<?xml version="1.0" encoding="utf-8"?>
<svg version="1.1" xmlns:xlink="http://www.w3.org/1999/xlink" width="50px" height="22px" xmlns="http://www.w3.org/2000/svg">
  <defs>
    <pattern id="BGPattern" patternUnits="userSpaceOnUse" alignment="0 0" imageRepeat="None" />
    <mask fill="white" id="Clip325">
      <path d="M 49.73958333333333 7.581274382314695  C 49.91319444444444 7.752925877763329  50 7.972258344169916  50 8.239271781534459  L 50 13.732119635890768  C 50 13.999133073255308  49.91319444444444 14.2184655396619  49.73958333333333 14.390117035110533  C 49.56597222222222 14.561768530559167  49.34413580246914 14.647594278283485  49.074074074074076 14.647594278283485  L 12.962962962962962 14.647594278283485  L 12.962962962962962 21.055916775032507  C 12.962962962962962 21.456436931079324  12.779706790123457 21.732986562635453  12.413194444444445 21.88556566970091  C 12.046682098765434 22.038144776766362  11.709104938271606 21.99046380580841  11.400462962962964 21.742522756827046  L 0.28935185185185186 11.729518855656698  C 0.09645061728395089 11.538794971824878  0 11.31946250541829  0 11.071521456436932  C 0 10.804508019072387  0.09645061728395089 10.575639358474207  0.28935185185185186 10.384915474642392  L 11.400462962962964 0.2574772431729524  C 11.709104938271606 -0.009536194191596348  12.046682098765434 -0.06675335934114024  12.413194444444445 0.08582574772431828  C 12.779706790123457 0.2574772431729524  12.962962962962962 0.5340268747290853  12.962962962962962 0.9154746423927169  L 12.962962962962962 7.3237971391417425  L 49.074074074074076 7.3237971391417425  C 49.34413580246914 7.3237971391417425  49.56597222222222 7.409622886866061  49.73958333333333 7.581274382314695  Z " fill-rule="evenodd" />
    </mask>
  </defs>
  <g transform="matrix(1 0 0 1 -280 -209 )">
    <path d="M 49.73958333333333 7.581274382314695  C 49.91319444444444 7.752925877763329  50 7.972258344169916  50 8.239271781534459  L 50 13.732119635890768  C 50 13.999133073255308  49.91319444444444 14.2184655396619  49.73958333333333 14.390117035110533  C 49.56597222222222 14.561768530559167  49.34413580246914 14.647594278283485  49.074074074074076 14.647594278283485  L 12.962962962962962 14.647594278283485  L 12.962962962962962 21.055916775032507  C 12.962962962962962 21.456436931079324  12.779706790123457 21.732986562635453  12.413194444444445 21.88556566970091  C 12.046682098765434 22.038144776766362  11.709104938271606 21.99046380580841  11.400462962962964 21.742522756827046  L 0.28935185185185186 11.729518855656698  C 0.09645061728395089 11.538794971824878  0 11.31946250541829  0 11.071521456436932  C 0 10.804508019072387  0.09645061728395089 10.575639358474207  0.28935185185185186 10.384915474642392  L 11.400462962962964 0.2574772431729524  C 11.709104938271606 -0.009536194191596348  12.046682098765434 -0.06675335934114024  12.413194444444445 0.08582574772431828  C 12.779706790123457 0.2574772431729524  12.962962962962962 0.5340268747290853  12.962962962962962 0.9154746423927169  L 12.962962962962962 7.3237971391417425  L 49.074074074074076 7.3237971391417425  C 49.34413580246914 7.3237971391417425  49.56597222222222 7.409622886866061  49.73958333333333 7.581274382314695  Z " fill-rule="nonzero" fill="rgba(0, 0, 0, 1)" stroke="none" transform="matrix(1 0 0 1 280 209 )" class="fill" />
    <path d="M 49.73958333333333 7.581274382314695  C 49.91319444444444 7.752925877763329  50 7.972258344169916  50 8.239271781534459  L 50 13.732119635890768  C 50 13.999133073255308  49.91319444444444 14.2184655396619  49.73958333333333 14.390117035110533  C 49.56597222222222 14.561768530559167  49.34413580246914 14.647594278283485  49.074074074074076 14.647594278283485  L 12.962962962962962 14.647594278283485  L 12.962962962962962 21.055916775032507  C 12.962962962962962 21.456436931079324  12.779706790123457 21.732986562635453  12.413194444444445 21.88556566970091  C 12.046682098765434 22.038144776766362  11.709104938271606 21.99046380580841  11.400462962962964 21.742522756827046  L 0.28935185185185186 11.729518855656698  C 0.09645061728395089 11.538794971824878  0 11.31946250541829  0 11.071521456436932  C 0 10.804508019072387  0.09645061728395089 10.575639358474207  0.28935185185185186 10.384915474642392  L 11.400462962962964 0.2574772431729524  C 11.709104938271606 -0.009536194191596348  12.046682098765434 -0.06675335934114024  12.413194444444445 0.08582574772431828  C 12.779706790123457 0.2574772431729524  12.962962962962962 0.5340268747290853  12.962962962962962 0.9154746423927169  L 12.962962962962962 7.3237971391417425  L 49.074074074074076 7.3237971391417425  C 49.34413580246914 7.3237971391417425  49.56597222222222 7.409622886866061  49.73958333333333 7.581274382314695  Z " stroke-width="0" stroke-dasharray="0" stroke="rgba(255, 255, 255, 0)" fill="none" transform="matrix(1 0 0 1 280 209 )" class="stroke" mask="url(#Clip325)" />
  </g>
</svg>