<?xml version="1.0" encoding="utf-8"?>
<svg version="1.1" xmlns:xlink="http://www.w3.org/1999/xlink" width="22px" height="50px" xmlns="http://www.w3.org/2000/svg">
  <defs>
    <pattern id="BGPattern" patternUnits="userSpaceOnUse" alignment="0 0" imageRepeat="None" />
    <mask fill="white" id="Clip324">
      <path d="M 21.742857142857144 11.400462962962965  C 21.990476190476194 11.709104938271603  22.038095238095238 12.046682098765432  21.885714285714286 12.413194444444443  C 21.714285714285715 12.779706790123452  21.438095238095237 12.962962962962965  21.057142857142857 12.962962962962965  L 14.657142857142858 12.962962962962965  L 14.657142857142858 49.074074074074076  C 14.657142857142858 49.34413580246913  14.571428571428571 49.56597222222222  14.4 49.73958333333333  C 14.228571428571428 49.91319444444444  14.00952380952381 50  13.742857142857144 50  L 8.257142857142858 50  C 7.990476190476191 50  7.771428571428571 49.91319444444444  7.6 49.73958333333333  C 7.428571428571429 49.56597222222222  7.3428571428571425 49.34413580246913  7.3428571428571425 49.074074074074076  L 7.3428571428571425 12.962962962962965  L 0.9428571428571428 12.962962962962965  C 0.5428571428571429 12.962962962962965  0.26666666666666666 12.779706790123452  0.11428571428571428 12.413194444444443  C -0.03809523809523811 12.046682098765432  0.009523809523809502 11.709104938271603  0.2571428571428572 11.400462962962965  L 10.257142857142856 0.2893518518518545  C 10.447619047619048 0.09645061728394966  10.666666666666668 0  10.914285714285715 0  C 11.180952380952382 0  11.40952380952381 0.09645061728394966  11.6 0.2893518518518545  L 21.742857142857144 11.400462962962965  Z " fill-rule="evenodd" />
    </mask>
  </defs>
  <g transform="matrix(1 0 0 1 -423 -261 )">
    <path d="M 21.742857142857144 11.400462962962965  C 21.990476190476194 11.709104938271603  22.038095238095238 12.046682098765432  21.885714285714286 12.413194444444443  C 21.714285714285715 12.779706790123452  21.438095238095237 12.962962962962965  21.057142857142857 12.962962962962965  L 14.657142857142858 12.962962962962965  L 14.657142857142858 49.074074074074076  C 14.657142857142858 49.34413580246913  14.571428571428571 49.56597222222222  14.4 49.73958333333333  C 14.228571428571428 49.91319444444444  14.00952380952381 50  13.742857142857144 50  L 8.257142857142858 50  C 7.990476190476191 50  7.771428571428571 49.91319444444444  7.6 49.73958333333333  C 7.428571428571429 49.56597222222222  7.3428571428571425 49.34413580246913  7.3428571428571425 49.074074074074076  L 7.3428571428571425 12.962962962962965  L 0.9428571428571428 12.962962962962965  C 0.5428571428571429 12.962962962962965  0.26666666666666666 12.779706790123452  0.11428571428571428 12.413194444444443  C -0.03809523809523811 12.046682098765432  0.009523809523809502 11.709104938271603  0.2571428571428572 11.400462962962965  L 10.257142857142856 0.2893518518518545  C 10.447619047619048 0.09645061728394966  10.666666666666668 0  10.914285714285715 0  C 11.180952380952382 0  11.40952380952381 0.09645061728394966  11.6 0.2893518518518545  L 21.742857142857144 11.400462962962965  Z " fill-rule="nonzero" fill="rgba(0, 0, 0, 1)" stroke="none" transform="matrix(1 0 0 1 423 261 )" class="fill" />
    <path d="M 21.742857142857144 11.400462962962965  C 21.990476190476194 11.709104938271603  22.038095238095238 12.046682098765432  21.885714285714286 12.413194444444443  C 21.714285714285715 12.779706790123452  21.438095238095237 12.962962962962965  21.057142857142857 12.962962962962965  L 14.657142857142858 12.962962962962965  L 14.657142857142858 49.074074074074076  C 14.657142857142858 49.34413580246913  14.571428571428571 49.56597222222222  14.4 49.73958333333333  C 14.228571428571428 49.91319444444444  14.00952380952381 50  13.742857142857144 50  L 8.257142857142858 50  C 7.990476190476191 50  7.771428571428571 49.91319444444444  7.6 49.73958333333333  C 7.428571428571429 49.56597222222222  7.3428571428571425 49.34413580246913  7.3428571428571425 49.074074074074076  L 7.3428571428571425 12.962962962962965  L 0.9428571428571428 12.962962962962965  C 0.5428571428571429 12.962962962962965  0.26666666666666666 12.779706790123452  0.11428571428571428 12.413194444444443  C -0.03809523809523811 12.046682098765432  0.009523809523809502 11.709104938271603  0.2571428571428572 11.400462962962965  L 10.257142857142856 0.2893518518518545  C 10.447619047619048 0.09645061728394966  10.666666666666668 0  10.914285714285715 0  C 11.180952380952382 0  11.40952380952381 0.09645061728394966  11.6 0.2893518518518545  L 21.742857142857144 11.400462962962965  Z " stroke-width="0" stroke-dasharray="0" stroke="rgba(255, 255, 255, 0)" fill="none" transform="matrix(1 0 0 1 423 261 )" class="stroke" mask="url(#Clip324)" />
  </g>
</svg>