<?xml version="1.0" encoding="utf-8"?>
<svg version="1.1" xmlns:xlink="http://www.w3.org/1999/xlink" width="31px" height="24px" xmlns="http://www.w3.org/2000/svg">
  <defs>
    <pattern id="BGPattern" patternUnits="userSpaceOnUse" alignment="0 0" imageRepeat="None" />
    <mask fill="white" id="Clip339">
      <path d="M 28.621372767857142 21.65625  C 28.73093377976191 21.548295454545457  28.78571428571429 21.420454545454547  28.78571428571429 21.272727272727273  L 28.78571428571429 8.181818181818183  C 28.41666666666667 8.59090909090909  28.01878720238096 8.96590909090909  27.592075892857142 9.306818181818183  C 24.501302083333336 11.64772727272727  22.04482886904762 13.56818181818182  20.22265625 15.06818181818182  C 19.634486607142858 15.55681818181818  19.155877976190478 15.9375  18.786830357142858 16.210227272727273  C 18.417782738095237 16.482954545454547  17.918991815476193 16.758522727272727  17.29045758928571 17.03693181818182  C 16.661923363095237 17.315340909090907  16.07087053571429 17.454545454545453  15.517299107142856 17.454545454545453  L 15.5 17.454545454545453  L 15.482700892857144 17.454545454545453  C 14.929129464285715 17.454545454545453  14.338076636904763 17.315340909090907  13.709542410714285 17.03693181818182  C 13.08100818452381 16.758522727272727  12.582217261904763 16.482954545454547  12.213169642857144 16.210227272727273  C 11.844122023809526 15.9375  11.365513392857144 15.55681818181818  10.77734375 15.06818181818182  C 8.955171130952383 13.56818181818182  6.498697916666668 11.64772727272727  3.407924107142857 9.306818181818183  C 2.981212797619048 8.96590909090909  2.5833333333333335 8.59090909090909  2.214285714285714 8.181818181818183  L 2.214285714285714 21.272727272727273  C 2.214285714285714 21.420454545454547  2.269066220238096 21.548295454545457  2.378627232142857 21.65625  C 2.488188244047619 21.764204545454543  2.617931547619048 21.818181818181817  2.767857142857143 21.818181818181817  L 28.232142857142858 21.818181818181817  C 28.382068452380953 21.818181818181817  28.511811755952383 21.764204545454543  28.621372767857142 21.65625  Z M 27.98130580357143 5.5994318181818175  C 28.517578125 4.775568181818179  28.78571428571429 4.028409090909091  28.78571428571429 3.357954545454545  L 28.78571428571429 3.170454545454545  L 28.78571428571429 2.94034090909091  C 28.78571428571429 2.94034090909091  28.782831101190478 2.866477272727269  28.777064732142858 2.71875  C 28.771298363095237 2.5710227272727257  28.753999255952383 2.4999999999999964  28.72516741071429 2.5056818181818175  C 28.696335565476193 2.511363636363636  28.66462053571429 2.4602272727272707  28.63002232142857 2.3522727272727275  C 28.595424107142858 2.244318181818179  28.54352678571429 2.201704545454544  28.474330357142858 2.2244318181818175  C 28.40513392857143 2.247159090909091  28.324404761904766 2.232954545454545  28.232142857142858 2.1818181818181825  L 2.767857142857143 2.1818181818181825  C 2.617931547619048 2.1818181818181825  2.488188244047619 2.2357954545454515  2.378627232142857 2.34375  C 2.269066220238096 2.451704545454543  2.214285714285714 2.5795454545454533  2.214285714285714 2.7272727272727275  C 2.214285714285714 4.636363636363638  3.061941964285714 6.2499999999999964  4.757254464285714 7.5681818181818175  C 6.983072916666668 9.295454545454543  9.295386904761907 11.09659090909091  11.694196428571429 12.97159090909091  C 11.763392857142856 13.028409090909088  11.965215773809526 13.196022727272727  12.299665178571429 13.47443181818182  C 12.634114583333334 13.752840909090908  12.89936755952381 13.965909090909088  13.095424107142856 14.113636363636365  C 13.291480654761909 14.261363636363633  13.548084077380954 14.440340909090907  13.865234375 14.65056818181818  C 14.182384672619047 14.860795454545453  14.47358630952381 15.017045454545455  14.738839285714285 15.11931818181818  C 15.004092261904763 15.22159090909091  15.252046130952383 15.272727272727273  15.482700892857144 15.272727272727273  L 15.5 15.272727272727273  L 15.517299107142856 15.272727272727273  C 15.74795386904762 15.272727272727273  15.995907738095239 15.22159090909091  16.26116071428571 15.11931818181818  C 16.526413690476193 15.017045454545455  16.817615327380953 14.860795454545453  17.134765625 14.65056818181818  C 17.451915922619047 14.440340909090907  17.708519345238095 14.261363636363633  17.904575892857142 14.113636363636365  C 18.100632440476193 13.965909090909088  18.365885416666668 13.752840909090908  18.70033482142857 13.47443181818182  C 19.034784226190478 13.196022727272727  19.236607142857142 13.028409090909088  19.30580357142857 12.97159090909091  C 21.704613095238095 11.09659090909091  24.016927083333336 9.295454545454543  26.24274553571429 7.5681818181818175  C 26.865513392857142 7.079545454545453  27.445033482142858 6.423295454545453  27.98130580357143 5.5994318181818175  Z M 30.18694196428571 0.8011363636363624  C 30.72898065476191 1.3352272727272707  31 1.9772727272727275  31 2.7272727272727275  L 31 21.272727272727273  C 31 22.022727272727273  30.72898065476191 22.66477272727273  30.18694196428571 23.198863636363637  C 29.64490327380953 23.732954545454543  28.993303571428577 24  28.232142857142858 24  L 2.767857142857143 24  C 2.006696428571429 24  1.3550967261904763 23.732954545454543  0.8130580357142857 23.198863636363637  C 0.27101934523809523 22.66477272727273  0 22.022727272727273  0 21.272727272727273  L 0 2.7272727272727275  C 0 1.9772727272727275  0.27101934523809523 1.3352272727272707  0.8130580357142857 0.8011363636363624  C 1.3550967261904763 0.2670454545454515  2.006696428571429 0  2.767857142857143 0  L 28.232142857142858 0  C 28.993303571428577 0  29.64490327380953 0.2670454545454515  30.18694196428571 0.8011363636363624  Z " fill-rule="evenodd" />
    </mask>
  </defs>
  <g transform="matrix(1 0 0 1 -226 -54 )">
    <path d="M 28.621372767857142 21.65625  C 28.73093377976191 21.548295454545457  28.78571428571429 21.420454545454547  28.78571428571429 21.272727272727273  L 28.78571428571429 8.181818181818183  C 28.41666666666667 8.59090909090909  28.01878720238096 8.96590909090909  27.592075892857142 9.306818181818183  C 24.501302083333336 11.64772727272727  22.04482886904762 13.56818181818182  20.22265625 15.06818181818182  C 19.634486607142858 15.55681818181818  19.155877976190478 15.9375  18.786830357142858 16.210227272727273  C 18.417782738095237 16.482954545454547  17.918991815476193 16.758522727272727  17.29045758928571 17.03693181818182  C 16.661923363095237 17.315340909090907  16.07087053571429 17.454545454545453  15.517299107142856 17.454545454545453  L 15.5 17.454545454545453  L 15.482700892857144 17.454545454545453  C 14.929129464285715 17.454545454545453  14.338076636904763 17.315340909090907  13.709542410714285 17.03693181818182  C 13.08100818452381 16.758522727272727  12.582217261904763 16.482954545454547  12.213169642857144 16.210227272727273  C 11.844122023809526 15.9375  11.365513392857144 15.55681818181818  10.77734375 15.06818181818182  C 8.955171130952383 13.56818181818182  6.498697916666668 11.64772727272727  3.407924107142857 9.306818181818183  C 2.981212797619048 8.96590909090909  2.5833333333333335 8.59090909090909  2.214285714285714 8.181818181818183  L 2.214285714285714 21.272727272727273  C 2.214285714285714 21.420454545454547  2.269066220238096 21.548295454545457  2.378627232142857 21.65625  C 2.488188244047619 21.764204545454543  2.617931547619048 21.818181818181817  2.767857142857143 21.818181818181817  L 28.232142857142858 21.818181818181817  C 28.382068452380953 21.818181818181817  28.511811755952383 21.764204545454543  28.621372767857142 21.65625  Z M 27.98130580357143 5.5994318181818175  C 28.517578125 4.775568181818179  28.78571428571429 4.028409090909091  28.78571428571429 3.357954545454545  L 28.78571428571429 3.170454545454545  L 28.78571428571429 2.94034090909091  C 28.78571428571429 2.94034090909091  28.782831101190478 2.866477272727269  28.777064732142858 2.71875  C 28.771298363095237 2.5710227272727257  28.753999255952383 2.4999999999999964  28.72516741071429 2.5056818181818175  C 28.696335565476193 2.511363636363636  28.66462053571429 2.4602272727272707  28.63002232142857 2.3522727272727275  C 28.595424107142858 2.244318181818179  28.54352678571429 2.201704545454544  28.474330357142858 2.2244318181818175  C 28.40513392857143 2.247159090909091  28.324404761904766 2.232954545454545  28.232142857142858 2.1818181818181825  L 2.767857142857143 2.1818181818181825  C 2.617931547619048 2.1818181818181825  2.488188244047619 2.2357954545454515  2.378627232142857 2.34375  C 2.269066220238096 2.451704545454543  2.214285714285714 2.5795454545454533  2.214285714285714 2.7272727272727275  C 2.214285714285714 4.636363636363638  3.061941964285714 6.2499999999999964  4.757254464285714 7.5681818181818175  C 6.983072916666668 9.295454545454543  9.295386904761907 11.09659090909091  11.694196428571429 12.97159090909091  C 11.763392857142856 13.028409090909088  11.965215773809526 13.196022727272727  12.299665178571429 13.47443181818182  C 12.634114583333334 13.752840909090908  12.89936755952381 13.965909090909088  13.095424107142856 14.113636363636365  C 13.291480654761909 14.261363636363633  13.548084077380954 14.440340909090907  13.865234375 14.65056818181818  C 14.182384672619047 14.860795454545453  14.47358630952381 15.017045454545455  14.738839285714285 15.11931818181818  C 15.004092261904763 15.22159090909091  15.252046130952383 15.272727272727273  15.482700892857144 15.272727272727273  L 15.5 15.272727272727273  L 15.517299107142856 15.272727272727273  C 15.74795386904762 15.272727272727273  15.995907738095239 15.22159090909091  16.26116071428571 15.11931818181818  C 16.526413690476193 15.017045454545455  16.817615327380953 14.860795454545453  17.134765625 14.65056818181818  C 17.451915922619047 14.440340909090907  17.708519345238095 14.261363636363633  17.904575892857142 14.113636363636365  C 18.100632440476193 13.965909090909088  18.365885416666668 13.752840909090908  18.70033482142857 13.47443181818182  C 19.034784226190478 13.196022727272727  19.236607142857142 13.028409090909088  19.30580357142857 12.97159090909091  C 21.704613095238095 11.09659090909091  24.016927083333336 9.295454545454543  26.24274553571429 7.5681818181818175  C 26.865513392857142 7.079545454545453  27.445033482142858 6.423295454545453  27.98130580357143 5.5994318181818175  Z M 30.18694196428571 0.8011363636363624  C 30.72898065476191 1.3352272727272707  31 1.9772727272727275  31 2.7272727272727275  L 31 21.272727272727273  C 31 22.022727272727273  30.72898065476191 22.66477272727273  30.18694196428571 23.198863636363637  C 29.64490327380953 23.732954545454543  28.993303571428577 24  28.232142857142858 24  L 2.767857142857143 24  C 2.006696428571429 24  1.3550967261904763 23.732954545454543  0.8130580357142857 23.198863636363637  C 0.27101934523809523 22.66477272727273  0 22.022727272727273  0 21.272727272727273  L 0 2.7272727272727275  C 0 1.9772727272727275  0.27101934523809523 1.3352272727272707  0.8130580357142857 0.8011363636363624  C 1.3550967261904763 0.2670454545454515  2.006696428571429 0  2.767857142857143 0  L 28.232142857142858 0  C 28.993303571428577 0  29.64490327380953 0.2670454545454515  30.18694196428571 0.8011363636363624  Z " fill-rule="nonzero" fill="rgba(255, 255, 255, 1)" stroke="none" transform="matrix(1 0 0 1 226 54 )" class="fill" />
    <path d="M 28.621372767857142 21.65625  C 28.73093377976191 21.548295454545457  28.78571428571429 21.420454545454547  28.78571428571429 21.272727272727273  L 28.78571428571429 8.181818181818183  C 28.41666666666667 8.59090909090909  28.01878720238096 8.96590909090909  27.592075892857142 9.306818181818183  C 24.501302083333336 11.64772727272727  22.04482886904762 13.56818181818182  20.22265625 15.06818181818182  C 19.634486607142858 15.55681818181818  19.155877976190478 15.9375  18.786830357142858 16.210227272727273  C 18.417782738095237 16.482954545454547  17.918991815476193 16.758522727272727  17.29045758928571 17.03693181818182  C 16.661923363095237 17.315340909090907  16.07087053571429 17.454545454545453  15.517299107142856 17.454545454545453  L 15.5 17.454545454545453  L 15.482700892857144 17.454545454545453  C 14.929129464285715 17.454545454545453  14.338076636904763 17.315340909090907  13.709542410714285 17.03693181818182  C 13.08100818452381 16.758522727272727  12.582217261904763 16.482954545454547  12.213169642857144 16.210227272727273  C 11.844122023809526 15.9375  11.365513392857144 15.55681818181818  10.77734375 15.06818181818182  C 8.955171130952383 13.56818181818182  6.498697916666668 11.64772727272727  3.407924107142857 9.306818181818183  C 2.981212797619048 8.96590909090909  2.5833333333333335 8.59090909090909  2.214285714285714 8.181818181818183  L 2.214285714285714 21.272727272727273  C 2.214285714285714 21.420454545454547  2.269066220238096 21.548295454545457  2.378627232142857 21.65625  C 2.488188244047619 21.764204545454543  2.617931547619048 21.818181818181817  2.767857142857143 21.818181818181817  L 28.232142857142858 21.818181818181817  C 28.382068452380953 21.818181818181817  28.511811755952383 21.764204545454543  28.621372767857142 21.65625  Z " stroke-width="0" stroke-dasharray="0" stroke="rgba(255, 255, 255, 0)" fill="none" transform="matrix(1 0 0 1 226 54 )" class="stroke" mask="url(#Clip339)" />
    <path d="M 27.98130580357143 5.5994318181818175  C 28.517578125 4.775568181818179  28.78571428571429 4.028409090909091  28.78571428571429 3.357954545454545  L 28.78571428571429 3.170454545454545  L 28.78571428571429 2.94034090909091  C 28.78571428571429 2.94034090909091  28.782831101190478 2.866477272727269  28.777064732142858 2.71875  C 28.771298363095237 2.5710227272727257  28.753999255952383 2.4999999999999964  28.72516741071429 2.5056818181818175  C 28.696335565476193 2.511363636363636  28.66462053571429 2.4602272727272707  28.63002232142857 2.3522727272727275  C 28.595424107142858 2.244318181818179  28.54352678571429 2.201704545454544  28.474330357142858 2.2244318181818175  C 28.40513392857143 2.247159090909091  28.324404761904766 2.232954545454545  28.232142857142858 2.1818181818181825  L 2.767857142857143 2.1818181818181825  C 2.617931547619048 2.1818181818181825  2.488188244047619 2.2357954545454515  2.378627232142857 2.34375  C 2.269066220238096 2.451704545454543  2.214285714285714 2.5795454545454533  2.214285714285714 2.7272727272727275  C 2.214285714285714 4.636363636363638  3.061941964285714 6.2499999999999964  4.757254464285714 7.5681818181818175  C 6.983072916666668 9.295454545454543  9.295386904761907 11.09659090909091  11.694196428571429 12.97159090909091  C 11.763392857142856 13.028409090909088  11.965215773809526 13.196022727272727  12.299665178571429 13.47443181818182  C 12.634114583333334 13.752840909090908  12.89936755952381 13.965909090909088  13.095424107142856 14.113636363636365  C 13.291480654761909 14.261363636363633  13.548084077380954 14.440340909090907  13.865234375 14.65056818181818  C 14.182384672619047 14.860795454545453  14.47358630952381 15.017045454545455  14.738839285714285 15.11931818181818  C 15.004092261904763 15.22159090909091  15.252046130952383 15.272727272727273  15.482700892857144 15.272727272727273  L 15.5 15.272727272727273  L 15.517299107142856 15.272727272727273  C 15.74795386904762 15.272727272727273  15.995907738095239 15.22159090909091  16.26116071428571 15.11931818181818  C 16.526413690476193 15.017045454545455  16.817615327380953 14.860795454545453  17.134765625 14.65056818181818  C 17.451915922619047 14.440340909090907  17.708519345238095 14.261363636363633  17.904575892857142 14.113636363636365  C 18.100632440476193 13.965909090909088  18.365885416666668 13.752840909090908  18.70033482142857 13.47443181818182  C 19.034784226190478 13.196022727272727  19.236607142857142 13.028409090909088  19.30580357142857 12.97159090909091  C 21.704613095238095 11.09659090909091  24.016927083333336 9.295454545454543  26.24274553571429 7.5681818181818175  C 26.865513392857142 7.079545454545453  27.445033482142858 6.423295454545453  27.98130580357143 5.5994318181818175  Z " stroke-width="0" stroke-dasharray="0" stroke="rgba(255, 255, 255, 0)" fill="none" transform="matrix(1 0 0 1 226 54 )" class="stroke" mask="url(#Clip339)" />
    <path d="M 30.18694196428571 0.8011363636363624  C 30.72898065476191 1.3352272727272707  31 1.9772727272727275  31 2.7272727272727275  L 31 21.272727272727273  C 31 22.022727272727273  30.72898065476191 22.66477272727273  30.18694196428571 23.198863636363637  C 29.64490327380953 23.732954545454543  28.993303571428577 24  28.232142857142858 24  L 2.767857142857143 24  C 2.006696428571429 24  1.3550967261904763 23.732954545454543  0.8130580357142857 23.198863636363637  C 0.27101934523809523 22.66477272727273  0 22.022727272727273  0 21.272727272727273  L 0 2.7272727272727275  C 0 1.9772727272727275  0.27101934523809523 1.3352272727272707  0.8130580357142857 0.8011363636363624  C 1.3550967261904763 0.2670454545454515  2.006696428571429 0  2.767857142857143 0  L 28.232142857142858 0  C 28.993303571428577 0  29.64490327380953 0.2670454545454515  30.18694196428571 0.8011363636363624  Z " stroke-width="0" stroke-dasharray="0" stroke="rgba(255, 255, 255, 0)" fill="none" transform="matrix(1 0 0 1 226 54 )" class="stroke" mask="url(#Clip339)" />
  </g>
</svg>