<?xml version="1.0" encoding="utf-8"?>
<svg version="1.1" xmlns:xlink="http://www.w3.org/1999/xlink" width="23px" height="18px" xmlns="http://www.w3.org/2000/svg">
  <defs>
    <pattern id="BGPattern" patternUnits="userSpaceOnUse" alignment="0 0" imageRepeat="None" />
    <mask fill="white" id="Clip342">
      <path d="M 1.4375 16.5  L 23 16.5  L 23 18  L 0 18  L 0 0  L 1.4375 0  L 1.4375 16.5  Z M 21.46142578125 1.6054687500000007  C 21.528808593750004 1.6757812500000007  21.562500000000004 1.7656249999999982  21.5625 1.8749999999999993  L 21.5625 6.972656249999999  C 21.562500000000004 7.136718749999998  21.489501953125004 7.251953125  21.343505859375 7.318359375000001  C 21.197509765625004 7.384765625  21.06461588541667 7.35546875  20.94482421875 7.230468750000001  L 19.5859375 5.812499999999999  L 12.47705078125 13.230468750000002  C 12.402180989583336 13.30859375  12.316080729166668 13.347656249999998  12.21875 13.347656249999998  C 12.121419270833336 13.347656249999998  12.035319010416668 13.30859375  11.96044921875 13.230468750000002  L 9.34375 10.499999999999998  L 4.671875 15.375  L 2.515625 13.125000000000002  L 9.08544921875 6.269531249999999  C 9.160319010416668 6.191406249999999  9.246419270833336 6.15234375  9.34375 6.15234375  C 9.441080729166668 6.15234375  9.527180989583334 6.191406249999999  9.60205078125 6.269531249999999  L 12.21875 9  L 17.4296875 3.562499999999999  L 16.07080078125 2.14453125  C 15.951009114583336 2.0195312499999982  15.922932942708336 1.880859375  15.986572265625 1.7285156250000007  C 16.050211588541668 1.5761718749999993  16.16064453125 1.5000000000000007  16.31787109375 1.5000000000000007  L 21.203125 1.5000000000000007  C 21.307942708333336 1.5000000000000007  21.394042968750004 1.5351562500000007  21.46142578125 1.6054687500000007  Z " fill-rule="evenodd" />
    </mask>
  </defs>
  <g transform="matrix(1 0 0 1 -220 -136 )">
    <path d="M 1.4375 16.5  L 23 16.5  L 23 18  L 0 18  L 0 0  L 1.4375 0  L 1.4375 16.5  Z M 21.46142578125 1.6054687500000007  C 21.528808593750004 1.6757812500000007  21.562500000000004 1.7656249999999982  21.5625 1.8749999999999993  L 21.5625 6.972656249999999  C 21.562500000000004 7.136718749999998  21.489501953125004 7.251953125  21.343505859375 7.318359375000001  C 21.197509765625004 7.384765625  21.06461588541667 7.35546875  20.94482421875 7.230468750000001  L 19.5859375 5.812499999999999  L 12.47705078125 13.230468750000002  C 12.402180989583336 13.30859375  12.316080729166668 13.347656249999998  12.21875 13.347656249999998  C 12.121419270833336 13.347656249999998  12.035319010416668 13.30859375  11.96044921875 13.230468750000002  L 9.34375 10.499999999999998  L 4.671875 15.375  L 2.515625 13.125000000000002  L 9.08544921875 6.269531249999999  C 9.160319010416668 6.191406249999999  9.246419270833336 6.15234375  9.34375 6.15234375  C 9.441080729166668 6.15234375  9.527180989583334 6.191406249999999  9.60205078125 6.269531249999999  L 12.21875 9  L 17.4296875 3.562499999999999  L 16.07080078125 2.14453125  C 15.951009114583336 2.0195312499999982  15.922932942708336 1.880859375  15.986572265625 1.7285156250000007  C 16.050211588541668 1.5761718749999993  16.16064453125 1.5000000000000007  16.31787109375 1.5000000000000007  L 21.203125 1.5000000000000007  C 21.307942708333336 1.5000000000000007  21.394042968750004 1.5351562500000007  21.46142578125 1.6054687500000007  Z " fill-rule="nonzero" fill="rgba(0, 0, 0, 1)" stroke="none" transform="matrix(1 0 0 1 220 136 )" class="fill" />
    <path d="M 1.4375 16.5  L 23 16.5  L 23 18  L 0 18  L 0 0  L 1.4375 0  L 1.4375 16.5  Z " stroke-width="0" stroke-dasharray="0" stroke="rgba(255, 255, 255, 0)" fill="none" transform="matrix(1 0 0 1 220 136 )" class="stroke" mask="url(#Clip342)" />
    <path d="M 21.46142578125 1.6054687500000007  C 21.528808593750004 1.6757812500000007  21.562500000000004 1.7656249999999982  21.5625 1.8749999999999993  L 21.5625 6.972656249999999  C 21.562500000000004 7.136718749999998  21.489501953125004 7.251953125  21.343505859375 7.318359375000001  C 21.197509765625004 7.384765625  21.06461588541667 7.35546875  20.94482421875 7.230468750000001  L 19.5859375 5.812499999999999  L 12.47705078125 13.230468750000002  C 12.402180989583336 13.30859375  12.316080729166668 13.347656249999998  12.21875 13.347656249999998  C 12.121419270833336 13.347656249999998  12.035319010416668 13.30859375  11.96044921875 13.230468750000002  L 9.34375 10.499999999999998  L 4.671875 15.375  L 2.515625 13.125000000000002  L 9.08544921875 6.269531249999999  C 9.160319010416668 6.191406249999999  9.246419270833336 6.15234375  9.34375 6.15234375  C 9.441080729166668 6.15234375  9.527180989583334 6.191406249999999  9.60205078125 6.269531249999999  L 12.21875 9  L 17.4296875 3.562499999999999  L 16.07080078125 2.14453125  C 15.951009114583336 2.0195312499999982  15.922932942708336 1.880859375  15.986572265625 1.7285156250000007  C 16.050211588541668 1.5761718749999993  16.16064453125 1.5000000000000007  16.31787109375 1.5000000000000007  L 21.203125 1.5000000000000007  C 21.307942708333336 1.5000000000000007  21.394042968750004 1.5351562500000007  21.46142578125 1.6054687500000007  Z " stroke-width="0" stroke-dasharray="0" stroke="rgba(255, 255, 255, 0)" fill="none" transform="matrix(1 0 0 1 220 136 )" class="stroke" mask="url(#Clip342)" />
  </g>
</svg>