<?xml version="1.0" encoding="utf-8"?>
<svg version="1.1" xmlns:xlink="http://www.w3.org/1999/xlink" width="26px" height="26px" xmlns="http://www.w3.org/2000/svg">
  <defs>
    <pattern id="BGPattern" patternUnits="userSpaceOnUse" alignment="0 0" imageRepeat="None" />
    <mask fill="white" id="Clip340">
      <path d="M 15.9453125 15.9453125  C 17.315104166666668 14.575520833333332  18 12.927083333333332  18 11.000000000000002  C 18 9.072916666666664  17.315104166666668 7.424479166666665  15.9453125 6.0546875  C 14.575520833333334 4.684895833333331  12.927083333333334 4  11 4  C 9.072916666666668 4  7.424479166666668 4.684895833333331  6.0546875 6.0546875  C 4.684895833333334 7.424479166666665  4 9.072916666666664  4 11.000000000000002  C 4 12.927083333333332  4.684895833333334 14.575520833333332  6.0546875 15.9453125  C 7.424479166666668 17.315104166666664  9.072916666666668 18  11 18  C 12.927083333333334 18  14.575520833333334 17.315104166666664  15.9453125 15.9453125  Z M 25.421875 22.59375  C 25.807291666666668 22.979166666666668  26 23.447916666666668  26 24  C 26 24.541666666666668  25.802083333333336 25.010416666666668  25.40625 25.40625  C 25.010416666666668 25.802083333333332  24.541666666666668 26  24 26  C 23.4375 26  22.96875 25.802083333333332  22.59375 25.40625  L 17.234375 20.0625  C 15.369791666666668 21.354166666666668  13.291666666666668 22  11 22  C 9.510416666666668 22  8.0859375 21.7109375  6.7265625 21.1328125  C 5.3671875 20.5546875  4.1953125 19.7734375  3.2109375 18.7890625  C 2.2265625 17.8046875  1.4453125000000002 16.6328125  0.8671875 15.2734375  C 0.2890625 13.9140625  0 12.48958333333333  0 11.000000000000002  C 0 9.510416666666663  0.2890625 8.0859375  0.8671875 6.7265625  C 1.4453125000000002 5.367187499999999  2.2265625 4.195312500000002  3.2109375 3.2109375  C 4.1953125 2.226562500000001  5.3671875 1.4453124999999996  6.7265625 0.8671875000000009  C 8.0859375 0.28906249999999933  9.510416666666668 0  11 0  C 12.489583333333334 0  13.9140625 0.28906249999999933  15.2734375 0.8671875000000009  C 16.6328125 1.4453124999999996  17.8046875 2.226562500000001  18.7890625 3.2109375  C 19.7734375 4.195312500000002  20.5546875 5.367187499999999  21.1328125 6.7265625  C 21.7109375 8.0859375  22 9.510416666666663  22 11.000000000000002  C 22 13.291666666666666  21.354166666666668 15.369791666666664  20.0625 17.234375  L 25.421875 22.59375  Z " fill-rule="evenodd" />
    </mask>
  </defs>
  <g transform="matrix(1 0 0 1 -531 -93 )">
    <path d="M 15.9453125 15.9453125  C 17.315104166666668 14.575520833333332  18 12.927083333333332  18 11.000000000000002  C 18 9.072916666666664  17.315104166666668 7.424479166666665  15.9453125 6.0546875  C 14.575520833333334 4.684895833333331  12.927083333333334 4  11 4  C 9.072916666666668 4  7.424479166666668 4.684895833333331  6.0546875 6.0546875  C 4.684895833333334 7.424479166666665  4 9.072916666666664  4 11.000000000000002  C 4 12.927083333333332  4.684895833333334 14.575520833333332  6.0546875 15.9453125  C 7.424479166666668 17.315104166666664  9.072916666666668 18  11 18  C 12.927083333333334 18  14.575520833333334 17.315104166666664  15.9453125 15.9453125  Z M 25.421875 22.59375  C 25.807291666666668 22.979166666666668  26 23.447916666666668  26 24  C 26 24.541666666666668  25.802083333333336 25.010416666666668  25.40625 25.40625  C 25.010416666666668 25.802083333333332  24.541666666666668 26  24 26  C 23.4375 26  22.96875 25.802083333333332  22.59375 25.40625  L 17.234375 20.0625  C 15.369791666666668 21.354166666666668  13.291666666666668 22  11 22  C 9.510416666666668 22  8.0859375 21.7109375  6.7265625 21.1328125  C 5.3671875 20.5546875  4.1953125 19.7734375  3.2109375 18.7890625  C 2.2265625 17.8046875  1.4453125000000002 16.6328125  0.8671875 15.2734375  C 0.2890625 13.9140625  0 12.48958333333333  0 11.000000000000002  C 0 9.510416666666663  0.2890625 8.0859375  0.8671875 6.7265625  C 1.4453125000000002 5.367187499999999  2.2265625 4.195312500000002  3.2109375 3.2109375  C 4.1953125 2.226562500000001  5.3671875 1.4453124999999996  6.7265625 0.8671875000000009  C 8.0859375 0.28906249999999933  9.510416666666668 0  11 0  C 12.489583333333334 0  13.9140625 0.28906249999999933  15.2734375 0.8671875000000009  C 16.6328125 1.4453124999999996  17.8046875 2.226562500000001  18.7890625 3.2109375  C 19.7734375 4.195312500000002  20.5546875 5.367187499999999  21.1328125 6.7265625  C 21.7109375 8.0859375  22 9.510416666666663  22 11.000000000000002  C 22 13.291666666666666  21.354166666666668 15.369791666666664  20.0625 17.234375  L 25.421875 22.59375  Z " fill-rule="nonzero" fill="rgba(0, 0, 0, 1)" stroke="none" transform="matrix(1 0 0 1 531 93 )" class="fill" />
    <path d="M 15.9453125 15.9453125  C 17.315104166666668 14.575520833333332  18 12.927083333333332  18 11.000000000000002  C 18 9.072916666666664  17.315104166666668 7.424479166666665  15.9453125 6.0546875  C 14.575520833333334 4.684895833333331  12.927083333333334 4  11 4  C 9.072916666666668 4  7.424479166666668 4.684895833333331  6.0546875 6.0546875  C 4.684895833333334 7.424479166666665  4 9.072916666666664  4 11.000000000000002  C 4 12.927083333333332  4.684895833333334 14.575520833333332  6.0546875 15.9453125  C 7.424479166666668 17.315104166666664  9.072916666666668 18  11 18  C 12.927083333333334 18  14.575520833333334 17.315104166666664  15.9453125 15.9453125  Z " stroke-width="0" stroke-dasharray="0" stroke="rgba(255, 255, 255, 0)" fill="none" transform="matrix(1 0 0 1 531 93 )" class="stroke" mask="url(#Clip340)" />
    <path d="M 25.421875 22.59375  C 25.807291666666668 22.979166666666668  26 23.447916666666668  26 24  C 26 24.541666666666668  25.802083333333336 25.010416666666668  25.40625 25.40625  C 25.010416666666668 25.802083333333332  24.541666666666668 26  24 26  C 23.4375 26  22.96875 25.802083333333332  22.59375 25.40625  L 17.234375 20.0625  C 15.369791666666668 21.354166666666668  13.291666666666668 22  11 22  C 9.510416666666668 22  8.0859375 21.7109375  6.7265625 21.1328125  C 5.3671875 20.5546875  4.1953125 19.7734375  3.2109375 18.7890625  C 2.2265625 17.8046875  1.4453125000000002 16.6328125  0.8671875 15.2734375  C 0.2890625 13.9140625  0 12.48958333333333  0 11.000000000000002  C 0 9.510416666666663  0.2890625 8.0859375  0.8671875 6.7265625  C 1.4453125000000002 5.367187499999999  2.2265625 4.195312500000002  3.2109375 3.2109375  C 4.1953125 2.226562500000001  5.3671875 1.4453124999999996  6.7265625 0.8671875000000009  C 8.0859375 0.28906249999999933  9.510416666666668 0  11 0  C 12.489583333333334 0  13.9140625 0.28906249999999933  15.2734375 0.8671875000000009  C 16.6328125 1.4453124999999996  17.8046875 2.226562500000001  18.7890625 3.2109375  C 19.7734375 4.195312500000002  20.5546875 5.367187499999999  21.1328125 6.7265625  C 21.7109375 8.0859375  22 9.510416666666663  22 11.000000000000002  C 22 13.291666666666666  21.354166666666668 15.369791666666664  20.0625 17.234375  L 25.421875 22.59375  Z " stroke-width="0" stroke-dasharray="0" stroke="rgba(255, 255, 255, 0)" fill="none" transform="matrix(1 0 0 1 531 93 )" class="stroke" mask="url(#Clip340)" />
  </g>
</svg>