<?xml version="1.0" encoding="utf-8"?>
<svg version="1.1" xmlns:xlink="http://www.w3.org/1999/xlink" width="22px" height="19px" xmlns="http://www.w3.org/2000/svg">
  <defs>
    <pattern id="BGPattern" patternUnits="userSpaceOnUse" alignment="0 0" imageRepeat="None" />
    <mask fill="white" id="Clip341">
      <path d="M 21.727864583333336 15.48203125  C 21.909288194444443 15.670052083333335  22 15.892708333333335  22 16.15  L 22 18.05  C 22 18.307291666666664  21.909288194444443 18.529947916666664  21.727864583333336 18.71796875  C 21.546440972222225 18.905989583333334  21.331597222222225 19  21.083333333333336 19  L 0.9166666666666666 19  C 0.6684027777777779 19  0.4535590277777778 18.905989583333334  0.27213541666666663 18.71796875  C 0.09071180555555555 18.529947916666664  0 18.307291666666664  0 18.05  L 0 16.15  C 0 15.892708333333335  0.09071180555555555 15.670052083333335  0.27213541666666663 15.48203125  C 0.4535590277777778 15.294010416666666  0.6684027777777779 15.200000000000001  0.9166666666666666 15  L 21.083333333333336 15  C 21.331597222222225 15.200000000000001  21.546440972222225 15.294010416666666  21.727864583333336 15.48203125  Z M 21.727864583333336 7.882031249999999  C 21.909288194444443 8.070052083333332  22 8.292708333333332  22 8.549999999999999  L 22 10.450000000000001  C 22 10.707291666666666  21.909288194444443 10.929947916666666  21.727864583333336 11.117968750000001  C 21.546440972222225 11.305989583333332  21.331597222222225 11.4  21.083333333333336 11.4  L 0.9166666666666666 11.4  C 0.6684027777777779 11.4  0.4535590277777778 11.305989583333332  0.27213541666666663 11.117968750000001  C 0.09071180555555555 10.929947916666666  0 10.707291666666666  0 10.450000000000001  L 0 8.549999999999999  C 0 8.292708333333332  0.09071180555555555 8.070052083333332  0.27213541666666663 7.882031249999999  C 0.4535590277777778 7.694010416666668  0.6684027777777779 7.6000000000000005  0.9166666666666666 7.6000000000000005  L 21.083333333333336 7.6000000000000005  C 21.331597222222225 7.6000000000000005  21.546440972222225 7.694010416666668  21.727864583333336 7.882031249999999  Z M 21.727864583333336 0.28203125000000084  C 21.909288194444443 0.4700520833333319  22 0.6927083333333319  22 0.9500000000000008  L 22 2.8500000000000005  C 22 3.107291666666665  21.909288194444443 3.329947916666665  21.727864583333336 3.5179687500000005  C 21.546440972222225 3.7059895833333316  21.331597222222225 3.799999999999999  21.083333333333336 4  L 0.9166666666666666 4  C 0.6684027777777779 3.799999999999999  0.4535590277777778 3.7059895833333316  0.27213541666666663 3.5179687500000005  C 0.09071180555555555 3.329947916666665  0 3.107291666666665  0 2.8500000000000005  L 0 0.9500000000000008  C 0 0.6927083333333319  0.09071180555555555 0.4700520833333319  0.27213541666666663 0.28203125000000084  C 0.4535590277777778 0.09401041666666554  0.6684027777777779 0  0.9166666666666666 0  L 21.083333333333336 0  C 21.331597222222225 0  21.546440972222225 0.09401041666666554  21.727864583333336 0.28203125000000084  Z " fill-rule="evenodd" />
    </mask>
  </defs>
  <g transform="matrix(1 0 0 1 -588 -97 )">
    <path d="M 21.727864583333336 15.48203125  C 21.909288194444443 15.670052083333335  22 15.892708333333335  22 16.15  L 22 18.05  C 22 18.307291666666664  21.909288194444443 18.529947916666664  21.727864583333336 18.71796875  C 21.546440972222225 18.905989583333334  21.331597222222225 19  21.083333333333336 19  L 0.9166666666666666 19  C 0.6684027777777779 19  0.4535590277777778 18.905989583333334  0.27213541666666663 18.71796875  C 0.09071180555555555 18.529947916666664  0 18.307291666666664  0 18.05  L 0 16.15  C 0 15.892708333333335  0.09071180555555555 15.670052083333335  0.27213541666666663 15.48203125  C 0.4535590277777778 15.294010416666666  0.6684027777777779 15.200000000000001  0.9166666666666666 15  L 21.083333333333336 15  C 21.331597222222225 15.200000000000001  21.546440972222225 15.294010416666666  21.727864583333336 15.48203125  Z M 21.727864583333336 7.882031249999999  C 21.909288194444443 8.070052083333332  22 8.292708333333332  22 8.549999999999999  L 22 10.450000000000001  C 22 10.707291666666666  21.909288194444443 10.929947916666666  21.727864583333336 11.117968750000001  C 21.546440972222225 11.305989583333332  21.331597222222225 11.4  21.083333333333336 11.4  L 0.9166666666666666 11.4  C 0.6684027777777779 11.4  0.4535590277777778 11.305989583333332  0.27213541666666663 11.117968750000001  C 0.09071180555555555 10.929947916666666  0 10.707291666666666  0 10.450000000000001  L 0 8.549999999999999  C 0 8.292708333333332  0.09071180555555555 8.070052083333332  0.27213541666666663 7.882031249999999  C 0.4535590277777778 7.694010416666668  0.6684027777777779 7.6000000000000005  0.9166666666666666 7.6000000000000005  L 21.083333333333336 7.6000000000000005  C 21.331597222222225 7.6000000000000005  21.546440972222225 7.694010416666668  21.727864583333336 7.882031249999999  Z M 21.727864583333336 0.28203125000000084  C 21.909288194444443 0.4700520833333319  22 0.6927083333333319  22 0.9500000000000008  L 22 2.8500000000000005  C 22 3.107291666666665  21.909288194444443 3.329947916666665  21.727864583333336 3.5179687500000005  C 21.546440972222225 3.7059895833333316  21.331597222222225 3.799999999999999  21.083333333333336 4  L 0.9166666666666666 4  C 0.6684027777777779 3.799999999999999  0.4535590277777778 3.7059895833333316  0.27213541666666663 3.5179687500000005  C 0.09071180555555555 3.329947916666665  0 3.107291666666665  0 2.8500000000000005  L 0 0.9500000000000008  C 0 0.6927083333333319  0.09071180555555555 0.4700520833333319  0.27213541666666663 0.28203125000000084  C 0.4535590277777778 0.09401041666666554  0.6684027777777779 0  0.9166666666666666 0  L 21.083333333333336 0  C 21.331597222222225 0  21.546440972222225 0.09401041666666554  21.727864583333336 0.28203125000000084  Z " fill-rule="nonzero" fill="rgba(0, 0, 0, 1)" stroke="none" transform="matrix(1 0 0 1 588 97 )" class="fill" />
    <path d="M 21.727864583333336 15.48203125  C 21.909288194444443 15.670052083333335  22 15.892708333333335  22 16.15  L 22 18.05  C 22 18.307291666666664  21.909288194444443 18.529947916666664  21.727864583333336 18.71796875  C 21.546440972222225 18.905989583333334  21.331597222222225 19  21.083333333333336 19  L 0.9166666666666666 19  C 0.6684027777777779 19  0.4535590277777778 18.905989583333334  0.27213541666666663 18.71796875  C 0.09071180555555555 18.529947916666664  0 18.307291666666664  0 18.05  L 0 16.15  C 0 15.892708333333335  0.09071180555555555 15.670052083333335  0.27213541666666663 15.48203125  C 0.4535590277777778 15.294010416666666  0.6684027777777779 15.200000000000001  0.9166666666666666 15  L 21.083333333333336 15  C 21.331597222222225 15.200000000000001  21.546440972222225 15.294010416666666  21.727864583333336 15.48203125  Z " stroke-width="0" stroke-dasharray="0" stroke="rgba(255, 255, 255, 0)" fill="none" transform="matrix(1 0 0 1 588 97 )" class="stroke" mask="url(#Clip341)" />
    <path d="M 21.727864583333336 7.882031249999999  C 21.909288194444443 8.070052083333332  22 8.292708333333332  22 8.549999999999999  L 22 10.450000000000001  C 22 10.707291666666666  21.909288194444443 10.929947916666666  21.727864583333336 11.117968750000001  C 21.546440972222225 11.305989583333332  21.331597222222225 11.4  21.083333333333336 11.4  L 0.9166666666666666 11.4  C 0.6684027777777779 11.4  0.4535590277777778 11.305989583333332  0.27213541666666663 11.117968750000001  C 0.09071180555555555 10.929947916666666  0 10.707291666666666  0 10.450000000000001  L 0 8.549999999999999  C 0 8.292708333333332  0.09071180555555555 8.070052083333332  0.27213541666666663 7.882031249999999  C 0.4535590277777778 7.694010416666668  0.6684027777777779 7.6000000000000005  0.9166666666666666 7.6000000000000005  L 21.083333333333336 7.6000000000000005  C 21.331597222222225 7.6000000000000005  21.546440972222225 7.694010416666668  21.727864583333336 7.882031249999999  Z " stroke-width="0" stroke-dasharray="0" stroke="rgba(255, 255, 255, 0)" fill="none" transform="matrix(1 0 0 1 588 97 )" class="stroke" mask="url(#Clip341)" />
    <path d="M 21.727864583333336 0.28203125000000084  C 21.909288194444443 0.4700520833333319  22 0.6927083333333319  22 0.9500000000000008  L 22 2.8500000000000005  C 22 3.107291666666665  21.909288194444443 3.329947916666665  21.727864583333336 3.5179687500000005  C 21.546440972222225 3.7059895833333316  21.331597222222225 3.799999999999999  21.083333333333336 4  L 0.9166666666666666 4  C 0.6684027777777779 3.799999999999999  0.4535590277777778 3.7059895833333316  0.27213541666666663 3.5179687500000005  C 0.09071180555555555 3.329947916666665  0 3.107291666666665  0 2.8500000000000005  L 0 0.9500000000000008  C 0 0.6927083333333319  0.09071180555555555 0.4700520833333319  0.27213541666666663 0.28203125000000084  C 0.4535590277777778 0.09401041666666554  0.6684027777777779 0  0.9166666666666666 0  L 21.083333333333336 0  C 21.331597222222225 0  21.546440972222225 0.09401041666666554  21.727864583333336 0.28203125000000084  Z " stroke-width="0" stroke-dasharray="0" stroke="rgba(255, 255, 255, 0)" fill="none" transform="matrix(1 0 0 1 588 97 )" class="stroke" mask="url(#Clip341)" />
  </g>
</svg>