<?xml version="1.0" encoding="utf-8"?>
<svg version="1.1" xmlns:xlink="http://www.w3.org/1999/xlink" width="25px" height="25px" xmlns="http://www.w3.org/2000/svg">
  <defs>
    <pattern id="BGPattern" patternUnits="userSpaceOnUse" alignment="0 0" imageRepeat="None" />
    <mask fill="white" id="Clip343">
      <path d="M 10.416666666666668 11.458333333333334  L 10.416666666666668 15.625  L 14.583333333333334 13.541666666666668  L 10.416666666666668 11.458333333333334  Z M 8.333333333333332 10.172526041666666  L 16.666666666666664 6.005859375  L 16.666666666666664 14.827473958333332  L 8.333333333333332 18.994140625  L 8.333333333333332 10.172526041666666  Z M 20.166015625 16.943359375  C 20.958116319444446 15.587022569444443  21.354166666666664 14.105902777777779  21.354166666666664 12.5  C 21.354166666666664 10.894097222222221  20.958116319444446 9.412977430555555  20.166015625 8.056640625  C 19.373914930555557 6.700303819444442  18.299696180555557 5.626085069444442  16.943359375 4.833984375  C 15.587022569444445 4.041883680555555  14.105902777777779 3.6458333333333344  12.5 3.6458333333333344  C 10.894097222222223 3.6458333333333344  9.412977430555557 4.041883680555555  8.056640625 4.833984375  C 6.700303819444445 5.626085069444442  5.626085069444445 6.700303819444442  4.833984375 8.056640625  C 4.041883680555556 9.412977430555555  3.6458333333333335 10.894097222222221  3.6458333333333335 12.5  C 3.6458333333333335 14.105902777777779  4.041883680555556 15.587022569444443  4.833984375 16.943359375  C 5.626085069444445 18.299696180555554  6.700303819444445 19.373914930555554  8.056640625 20.166015625  C 9.412977430555557 20.958116319444446  10.894097222222223 21.354166666666664  12.5 21.354166666666664  C 14.105902777777779 21.354166666666664  15.587022569444445 20.958116319444446  16.943359375 20.166015625  C 18.299696180555557 19.373914930555554  19.373914930555557 18.299696180555554  20.166015625 16.943359375  Z M 23.323567708333336 6.2255859375  C 24.441189236111107 8.140733506944443  25 10.232204861111107  25 12.5  C 25 14.76779513888889  24.441189236111107 16.859266493055554  23.323567708333336 18.7744140625  C 22.205946180555557 20.689561631944446  20.689561631944446 22.205946180555554  18.7744140625 23.323567708333336  C 16.859266493055557 24.441189236111114  14.76779513888889 25  12.5 25  C 10.232204861111112 25  8.140733506944445 24.441189236111114  6.2255859375 23.323567708333336  C 4.310438368055556 22.205946180555554  2.7940538194444446 20.689561631944446  1.6764322916666667 18.7744140625  C 0.5588107638888888 16.859266493055554  0 14.76779513888889  0 12.5  C 0 10.232204861111107  0.5588107638888888 8.140733506944443  1.6764322916666667 6.2255859375  C 2.7940538194444446 4.310438368055555  4.310438368055556 2.794053819444442  6.2255859375 1.6764322916666656  C 8.140733506944445 0.5588107638888867  10.232204861111112 0  12.5 0  C 14.76779513888889 0  16.859266493055557 0.5588107638888867  18.7744140625 1.6764322916666656  C 20.689561631944446 2.794053819444442  22.205946180555557 4.310438368055555  23.323567708333336 6.2255859375  Z " fill-rule="evenodd" />
    </mask>
  </defs>
  <g transform="matrix(1 0 0 1 -214 -610 )">
    <path d="M 10.416666666666668 11.458333333333334  L 10.416666666666668 15.625  L 14.583333333333334 13.541666666666668  L 10.416666666666668 11.458333333333334  Z M 8.333333333333332 10.172526041666666  L 16.666666666666664 6.005859375  L 16.666666666666664 14.827473958333332  L 8.333333333333332 18.994140625  L 8.333333333333332 10.172526041666666  Z M 20.166015625 16.943359375  C 20.958116319444446 15.587022569444443  21.354166666666664 14.105902777777779  21.354166666666664 12.5  C 21.354166666666664 10.894097222222221  20.958116319444446 9.412977430555555  20.166015625 8.056640625  C 19.373914930555557 6.700303819444442  18.299696180555557 5.626085069444442  16.943359375 4.833984375  C 15.587022569444445 4.041883680555555  14.105902777777779 3.6458333333333344  12.5 3.6458333333333344  C 10.894097222222223 3.6458333333333344  9.412977430555557 4.041883680555555  8.056640625 4.833984375  C 6.700303819444445 5.626085069444442  5.626085069444445 6.700303819444442  4.833984375 8.056640625  C 4.041883680555556 9.412977430555555  3.6458333333333335 10.894097222222221  3.6458333333333335 12.5  C 3.6458333333333335 14.105902777777779  4.041883680555556 15.587022569444443  4.833984375 16.943359375  C 5.626085069444445 18.299696180555554  6.700303819444445 19.373914930555554  8.056640625 20.166015625  C 9.412977430555557 20.958116319444446  10.894097222222223 21.354166666666664  12.5 21.354166666666664  C 14.105902777777779 21.354166666666664  15.587022569444445 20.958116319444446  16.943359375 20.166015625  C 18.299696180555557 19.373914930555554  19.373914930555557 18.299696180555554  20.166015625 16.943359375  Z M 23.323567708333336 6.2255859375  C 24.441189236111107 8.140733506944443  25 10.232204861111107  25 12.5  C 25 14.76779513888889  24.441189236111107 16.859266493055554  23.323567708333336 18.7744140625  C 22.205946180555557 20.689561631944446  20.689561631944446 22.205946180555554  18.7744140625 23.323567708333336  C 16.859266493055557 24.441189236111114  14.76779513888889 25  12.5 25  C 10.232204861111112 25  8.140733506944445 24.441189236111114  6.2255859375 23.323567708333336  C 4.310438368055556 22.205946180555554  2.7940538194444446 20.689561631944446  1.6764322916666667 18.7744140625  C 0.5588107638888888 16.859266493055554  0 14.76779513888889  0 12.5  C 0 10.232204861111107  0.5588107638888888 8.140733506944443  1.6764322916666667 6.2255859375  C 2.7940538194444446 4.310438368055555  4.310438368055556 2.794053819444442  6.2255859375 1.6764322916666656  C 8.140733506944445 0.5588107638888867  10.232204861111112 0  12.5 0  C 14.76779513888889 0  16.859266493055557 0.5588107638888867  18.7744140625 1.6764322916666656  C 20.689561631944446 2.794053819444442  22.205946180555557 4.310438368055555  23.323567708333336 6.2255859375  Z " fill-rule="nonzero" fill="rgba(0, 0, 0, 1)" stroke="none" transform="matrix(1 0 0 1 214 610 )" class="fill" />
    <path d="M 10.416666666666668 11.458333333333334  L 10.416666666666668 15.625  L 14.583333333333334 13.541666666666668  L 10.416666666666668 11.458333333333334  Z " stroke-width="0" stroke-dasharray="0" stroke="rgba(255, 255, 255, 0)" fill="none" transform="matrix(1 0 0 1 214 610 )" class="stroke" mask="url(#Clip343)" />
    <path d="M 8.333333333333332 10.172526041666666  L 16.666666666666664 6.005859375  L 16.666666666666664 14.827473958333332  L 8.333333333333332 18.994140625  L 8.333333333333332 10.172526041666666  Z " stroke-width="0" stroke-dasharray="0" stroke="rgba(255, 255, 255, 0)" fill="none" transform="matrix(1 0 0 1 214 610 )" class="stroke" mask="url(#Clip343)" />
    <path d="M 20.166015625 16.943359375  C 20.958116319444446 15.587022569444443  21.354166666666664 14.105902777777779  21.354166666666664 12.5  C 21.354166666666664 10.894097222222221  20.958116319444446 9.412977430555555  20.166015625 8.056640625  C 19.373914930555557 6.700303819444442  18.299696180555557 5.626085069444442  16.943359375 4.833984375  C 15.587022569444445 4.041883680555555  14.105902777777779 3.6458333333333344  12.5 3.6458333333333344  C 10.894097222222223 3.6458333333333344  9.412977430555557 4.041883680555555  8.056640625 4.833984375  C 6.700303819444445 5.626085069444442  5.626085069444445 6.700303819444442  4.833984375 8.056640625  C 4.041883680555556 9.412977430555555  3.6458333333333335 10.894097222222221  3.6458333333333335 12.5  C 3.6458333333333335 14.105902777777779  4.041883680555556 15.587022569444443  4.833984375 16.943359375  C 5.626085069444445 18.299696180555554  6.700303819444445 19.373914930555554  8.056640625 20.166015625  C 9.412977430555557 20.958116319444446  10.894097222222223 21.354166666666664  12.5 21.354166666666664  C 14.105902777777779 21.354166666666664  15.587022569444445 20.958116319444446  16.943359375 20.166015625  C 18.299696180555557 19.373914930555554  19.373914930555557 18.299696180555554  20.166015625 16.943359375  Z " stroke-width="0" stroke-dasharray="0" stroke="rgba(255, 255, 255, 0)" fill="none" transform="matrix(1 0 0 1 214 610 )" class="stroke" mask="url(#Clip343)" />
    <path d="M 23.323567708333336 6.2255859375  C 24.441189236111107 8.140733506944443  25 10.232204861111107  25 12.5  C 25 14.76779513888889  24.441189236111107 16.859266493055554  23.323567708333336 18.7744140625  C 22.205946180555557 20.689561631944446  20.689561631944446 22.205946180555554  18.7744140625 23.323567708333336  C 16.859266493055557 24.441189236111114  14.76779513888889 25  12.5 25  C 10.232204861111112 25  8.140733506944445 24.441189236111114  6.2255859375 23.323567708333336  C 4.310438368055556 22.205946180555554  2.7940538194444446 20.689561631944446  1.6764322916666667 18.7744140625  C 0.5588107638888888 16.859266493055554  0 14.76779513888889  0 12.5  C 0 10.232204861111107  0.5588107638888888 8.140733506944443  1.6764322916666667 6.2255859375  C 2.7940538194444446 4.310438368055555  4.310438368055556 2.794053819444442  6.2255859375 1.6764322916666656  C 8.140733506944445 0.5588107638888867  10.232204861111112 0  12.5 0  C 14.76779513888889 0  16.859266493055557 0.5588107638888867  18.7744140625 1.6764322916666656  C 20.689561631944446 2.794053819444442  22.205946180555557 4.310438368055555  23.323567708333336 6.2255859375  Z " stroke-width="0" stroke-dasharray="0" stroke="rgba(255, 255, 255, 0)" fill="none" transform="matrix(1 0 0 1 214 610 )" class="stroke" mask="url(#Clip343)" />
  </g>
</svg>