<?xml version="1.0" encoding="utf-8"?>
<svg version="1.1" xmlns:xlink="http://www.w3.org/1999/xlink" width="26px" height="22px" xmlns="http://www.w3.org/2000/svg">
  <defs>
    <pattern id="BGPattern" patternUnits="userSpaceOnUse" alignment="0 0" imageRepeat="None" />
    <mask fill="white" id="Clip349">
      <path d="M 22.931472081218274 3.4718750000000007  C 23.954314720812185 3.3572916666666663  24.977157360406093 3.0708333333333298  26 2.6125000000000007  C 25.263113367174284 3.7354166666666644  24.372250423011845 4.692187499999999  23.32741116751269 5.482812500000001  C 23.338409475465316 5.643229166666666  23.343908629441625 5.883854166666664  23.343908629441625 6.204687499999999  C 23.343908629441625 7.694270833333331  23.134940778341797 9.180989583333332  22.71700507614213 10.66484375  C 22.299069373942473 12.148697916666665  21.66391708967851 13.572395833333333  20.811548223350254 14.935937500000001  C 19.959179357022 16.299479166666664  18.94458544839256 17.50546875  17.767766497461928 18.55390625  C 16.590947546531304 19.60234375  15.172165820642977 20.438802083333336  13.511421319796955 21.06328125  C 11.850676818950932 21.687760416666666  10.07445008460237 22  8.182741116751268 22  C 5.202199661590525 22  2.4746192893401013 21.169270833333336  0 19.5078125  C 0.38494077834179374 19.553645833333334  0.813874788494078 19.5765625  1.2868020304568528 19.5765625  C 3.7614213197969555 19.5765625  5.966582064297801 18.7859375  7.902284263959391 17.2046875  C 6.74746192893401 17.18177083333333  5.713620981387479 16.81223958333333  4.800761421319797 16.09609375  C 3.8879018612521152 15.379947916666664  3.2609983079526232 14.466145833333332  2.92005076142132 13.3546875  C 3.282994923857868 13.411979166666667  3.6184433164128604 13.440625  3.926395939086295 13.440625  C 4.399323181049069 13.440625  4.866751269035532 13.377604166666666  5.3286802030456855 13.251562499999999  C 4.096869712351946 12.988020833333334  3.0767766497461935 12.349218749999999  2.2684010152284264 11.33515625  C 1.46002538071066 10.32109375  1.055837563451777 9.14375  1.0558375634517765 7.803125000000001  L 1.0558375634517765 7.734375  C 1.8037225042301186 8.169791666666667  2.6065989847715736 8.404687499999998  3.4644670050761426 8.439062499999999  C 2.7385786802030454 7.934895833333332  2.1611675126903553 7.276041666666666  1.7322335025380713 6.462499999999999  C 1.3032994923857868 5.648958333333329  1.0888324873096447 4.766666666666664  1.0888324873096447 3.8156250000000007  C 1.0888324873096447 2.807291666666666  1.3307952622673436 1.873437500000001  1.8147208121827412 1.014062500000001  C 3.145516074450085 2.721354166666666  4.765016920473774 4.087760416666667  6.673223350253807 5.11328125  C 8.581429780033842 6.138802083333333  10.624365482233502 6.708854166666667  12.80203045685279 6.823437500000001  C 12.714043993231812 6.388020833333332  12.67005076142132 5.964062499999998  12.67005076142132 5.551562499999999  C 12.67005076142132 4.016145833333329  13.18972081218274 2.70703125  14.229060913705583 1.6242187500000005  C 15.268401015228426 0.541406250000001  16.52495769881557 0  17.998730964467004 0  C 19.538494077834184 0  20.836294416243653 0.584375000000001  21.89213197969543 1.7531250000000005  C 23.090947546531304 1.5124999999999995  24.218274111675125 1.0656250000000005  25.274111675126903 0.412500000000001  C 24.867174280879865 1.7302083333333302  24.08629441624366 2.75  22.931472081218274 3.4718750000000007  Z " fill-rule="evenodd" />
    </mask>
  </defs>
  <g transform="matrix(1 0 0 1 -845 -2541 )">
    <path d="M 22.931472081218274 3.4718750000000007  C 23.954314720812185 3.3572916666666663  24.977157360406093 3.0708333333333298  26 2.6125000000000007  C 25.263113367174284 3.7354166666666644  24.372250423011845 4.692187499999999  23.32741116751269 5.482812500000001  C 23.338409475465316 5.643229166666666  23.343908629441625 5.883854166666664  23.343908629441625 6.204687499999999  C 23.343908629441625 7.694270833333331  23.134940778341797 9.180989583333332  22.71700507614213 10.66484375  C 22.299069373942473 12.148697916666665  21.66391708967851 13.572395833333333  20.811548223350254 14.935937500000001  C 19.959179357022 16.299479166666664  18.94458544839256 17.50546875  17.767766497461928 18.55390625  C 16.590947546531304 19.60234375  15.172165820642977 20.438802083333336  13.511421319796955 21.06328125  C 11.850676818950932 21.687760416666666  10.07445008460237 22  8.182741116751268 22  C 5.202199661590525 22  2.4746192893401013 21.169270833333336  0 19.5078125  C 0.38494077834179374 19.553645833333334  0.813874788494078 19.5765625  1.2868020304568528 19.5765625  C 3.7614213197969555 19.5765625  5.966582064297801 18.7859375  7.902284263959391 17.2046875  C 6.74746192893401 17.18177083333333  5.713620981387479 16.81223958333333  4.800761421319797 16.09609375  C 3.8879018612521152 15.379947916666664  3.2609983079526232 14.466145833333332  2.92005076142132 13.3546875  C 3.282994923857868 13.411979166666667  3.6184433164128604 13.440625  3.926395939086295 13.440625  C 4.399323181049069 13.440625  4.866751269035532 13.377604166666666  5.3286802030456855 13.251562499999999  C 4.096869712351946 12.988020833333334  3.0767766497461935 12.349218749999999  2.2684010152284264 11.33515625  C 1.46002538071066 10.32109375  1.055837563451777 9.14375  1.0558375634517765 7.803125000000001  L 1.0558375634517765 7.734375  C 1.8037225042301186 8.169791666666667  2.6065989847715736 8.404687499999998  3.4644670050761426 8.439062499999999  C 2.7385786802030454 7.934895833333332  2.1611675126903553 7.276041666666666  1.7322335025380713 6.462499999999999  C 1.3032994923857868 5.648958333333329  1.0888324873096447 4.766666666666664  1.0888324873096447 3.8156250000000007  C 1.0888324873096447 2.807291666666666  1.3307952622673436 1.873437500000001  1.8147208121827412 1.014062500000001  C 3.145516074450085 2.721354166666666  4.765016920473774 4.087760416666667  6.673223350253807 5.11328125  C 8.581429780033842 6.138802083333333  10.624365482233502 6.708854166666667  12.80203045685279 6.823437500000001  C 12.714043993231812 6.388020833333332  12.67005076142132 5.964062499999998  12.67005076142132 5.551562499999999  C 12.67005076142132 4.016145833333329  13.18972081218274 2.70703125  14.229060913705583 1.6242187500000005  C 15.268401015228426 0.541406250000001  16.52495769881557 0  17.998730964467004 0  C 19.538494077834184 0  20.836294416243653 0.584375000000001  21.89213197969543 1.7531250000000005  C 23.090947546531304 1.5124999999999995  24.218274111675125 1.0656250000000005  25.274111675126903 0.412500000000001  C 24.867174280879865 1.7302083333333302  24.08629441624366 2.75  22.931472081218274 3.4718750000000007  Z " fill-rule="nonzero" fill="rgba(127, 127, 127, 1)" stroke="none" transform="matrix(1 0 0 1 845 2541 )" class="fill" />
    <path d="M 22.931472081218274 3.4718750000000007  C 23.954314720812185 3.3572916666666663  24.977157360406093 3.0708333333333298  26 2.6125000000000007  C 25.263113367174284 3.7354166666666644  24.372250423011845 4.692187499999999  23.32741116751269 5.482812500000001  C 23.338409475465316 5.643229166666666  23.343908629441625 5.883854166666664  23.343908629441625 6.204687499999999  C 23.343908629441625 7.694270833333331  23.134940778341797 9.180989583333332  22.71700507614213 10.66484375  C 22.299069373942473 12.148697916666665  21.66391708967851 13.572395833333333  20.811548223350254 14.935937500000001  C 19.959179357022 16.299479166666664  18.94458544839256 17.50546875  17.767766497461928 18.55390625  C 16.590947546531304 19.60234375  15.172165820642977 20.438802083333336  13.511421319796955 21.06328125  C 11.850676818950932 21.687760416666666  10.07445008460237 22  8.182741116751268 22  C 5.202199661590525 22  2.4746192893401013 21.169270833333336  0 19.5078125  C 0.38494077834179374 19.553645833333334  0.813874788494078 19.5765625  1.2868020304568528 19.5765625  C 3.7614213197969555 19.5765625  5.966582064297801 18.7859375  7.902284263959391 17.2046875  C 6.74746192893401 17.18177083333333  5.713620981387479 16.81223958333333  4.800761421319797 16.09609375  C 3.8879018612521152 15.379947916666664  3.2609983079526232 14.466145833333332  2.92005076142132 13.3546875  C 3.282994923857868 13.411979166666667  3.6184433164128604 13.440625  3.926395939086295 13.440625  C 4.399323181049069 13.440625  4.866751269035532 13.377604166666666  5.3286802030456855 13.251562499999999  C 4.096869712351946 12.988020833333334  3.0767766497461935 12.349218749999999  2.2684010152284264 11.33515625  C 1.46002538071066 10.32109375  1.055837563451777 9.14375  1.0558375634517765 7.803125000000001  L 1.0558375634517765 7.734375  C 1.8037225042301186 8.169791666666667  2.6065989847715736 8.404687499999998  3.4644670050761426 8.439062499999999  C 2.7385786802030454 7.934895833333332  2.1611675126903553 7.276041666666666  1.7322335025380713 6.462499999999999  C 1.3032994923857868 5.648958333333329  1.0888324873096447 4.766666666666664  1.0888324873096447 3.8156250000000007  C 1.0888324873096447 2.807291666666666  1.3307952622673436 1.873437500000001  1.8147208121827412 1.014062500000001  C 3.145516074450085 2.721354166666666  4.765016920473774 4.087760416666667  6.673223350253807 5.11328125  C 8.581429780033842 6.138802083333333  10.624365482233502 6.708854166666667  12.80203045685279 6.823437500000001  C 12.714043993231812 6.388020833333332  12.67005076142132 5.964062499999998  12.67005076142132 5.551562499999999  C 12.67005076142132 4.016145833333329  13.18972081218274 2.70703125  14.229060913705583 1.6242187500000005  C 15.268401015228426 0.541406250000001  16.52495769881557 0  17.998730964467004 0  C 19.538494077834184 0  20.836294416243653 0.584375000000001  21.89213197969543 1.7531250000000005  C 23.090947546531304 1.5124999999999995  24.218274111675125 1.0656250000000005  25.274111675126903 0.412500000000001  C 24.867174280879865 1.7302083333333302  24.08629441624366 2.75  22.931472081218274 3.4718750000000007  Z " stroke-width="0" stroke-dasharray="0" stroke="rgba(255, 255, 255, 0)" fill="none" transform="matrix(1 0 0 1 845 2541 )" class="stroke" mask="url(#Clip349)" />
  </g>
</svg>