<?xml version="1.0" encoding="utf-8"?>
<svg version="1.1" xmlns:xlink="http://www.w3.org/1999/xlink" width="26px" height="26px" xmlns="http://www.w3.org/2000/svg">
  <defs>
    <pattern id="BGPattern" patternUnits="userSpaceOnUse" alignment="0 0" imageRepeat="None" />
    <mask fill="white" id="Clip351">
      <path d="M 4 10.020833333333332  L 4 21.768229166666668  L 8 21.768229166666668  L 8 10.020833333333332  L 4 10.020833333333332  Z M 7.56640625 7.845703125  C 7.972656250000002 7.456380208333332  8.175781250000002 6.973958333333332  8.17578125 6.3984375  C 8.164496527777779 5.811631944444442  7.961371527777779 5.3263888888888875  7.56640625 4.942708333333332  C 7.171440972222222 4.559027777777778  6.646701388888888 4.3671875  5.9921875 4.3671875  C 5.337673611111112 4.3671875  4.804470486111112 4.559027777777778  4.392578125 4.942708333333332  C 3.9806857638888893 5.3263888888888875  3.774739583333333 5.811631944444442  3.774739583333333 6.3984375  C 3.774739583333333 6.973958333333332  3.975043402777778 7.456380208333332  4.375651041666667 7.845703125  C 4.776258680555555 8.235026041666668  5.298177083333333 8.4296875  5.94140625 8.4296875  L 5.958333333333333 8.4296875  C 6.624131944444445 8.4296875  7.160156250000002 8.235026041666668  7.56640625 7.845703125  Z M 18.078125 15.48828125  L 18.078125 21.768229166666668  L 21.98828125 21.768229166666668  L 21.98828125 15.03125  C 21.98828125 13.293402777777775  21.57638888888889 11.978732638888888  20.752604166666668 11.087239583333332  C 19.928819444444446 10.195746527777777  18.83984375 9.75  17.485677083333332 9.75  C 15.950954861111112 9.75  14.77170138888889 10.41015625  13.947916666666668 11.73046875  L 13.981770833333332 11.73046875  L 13.981770833333332 10.020833333333332  L 10.071614583333334 10.020833333333332  C 10.10546875 10.765625  10.10546875 14.68142361111111  10.071614583333334 21.768229166666668  L 13.981770833333332 21.768229166666668  L 13.981770833333332 15.200520833333336  C 13.981770833333332 14.77170138888889  14.021267361111112 14.455729166666664  14.100260416666668 14.252604166666664  C 14.26953125 13.85763888888889  14.5234375 13.521918402777775  14.861979166666668 13.245442708333336  C 15.200520833333332 12.968967013888888  15.618055555555557 12.830729166666668  16.114583333333332 12.830729166666668  C 17.423611111111114 12.830729166666668  18.078125 13.71657986111111  18.078125 15.48828125  Z M 24.569661458333332 1.4303385416666676  C 25.52322048611111 2.383897569444442  26 3.532118055555552  26 4.875  L 26 21.125  C 26 22.467881944444443  25.52322048611111 23.616102430555557  24.569661458333332 24.569661458333332  C 23.616102430555557 25.52322048611111  22.467881944444446 26  21.125 26  L 4.875 26  C 3.532118055555556 26  2.3838975694444446 25.52322048611111  1.4303385416666667 24.569661458333332  C 0.47677951388888884 23.616102430555557  0 22.467881944444443  0 21.125  L 0 4.875  C 0 3.532118055555552  0.47677951388888884 2.383897569444442  1.4303385416666667 1.4303385416666676  C 2.3838975694444446 0.4767795138888873  3.532118055555556 0  4.875 0  L 21.125 0  C 22.467881944444446 0  23.616102430555557 0.4767795138888873  24.569661458333332 1.4303385416666676  Z " fill-rule="evenodd" />
    </mask>
  </defs>
  <g transform="matrix(1 0 0 1 -801 -2539 )">
    <path d="M 4 10.020833333333332  L 4 21.768229166666668  L 8 21.768229166666668  L 8 10.020833333333332  L 4 10.020833333333332  Z M 7.56640625 7.845703125  C 7.972656250000002 7.456380208333332  8.175781250000002 6.973958333333332  8.17578125 6.3984375  C 8.164496527777779 5.811631944444442  7.961371527777779 5.3263888888888875  7.56640625 4.942708333333332  C 7.171440972222222 4.559027777777778  6.646701388888888 4.3671875  5.9921875 4.3671875  C 5.337673611111112 4.3671875  4.804470486111112 4.559027777777778  4.392578125 4.942708333333332  C 3.9806857638888893 5.3263888888888875  3.774739583333333 5.811631944444442  3.774739583333333 6.3984375  C 3.774739583333333 6.973958333333332  3.975043402777778 7.456380208333332  4.375651041666667 7.845703125  C 4.776258680555555 8.235026041666668  5.298177083333333 8.4296875  5.94140625 8.4296875  L 5.958333333333333 8.4296875  C 6.624131944444445 8.4296875  7.160156250000002 8.235026041666668  7.56640625 7.845703125  Z M 18.078125 15.48828125  L 18.078125 21.768229166666668  L 21.98828125 21.768229166666668  L 21.98828125 15.03125  C 21.98828125 13.293402777777775  21.57638888888889 11.978732638888888  20.752604166666668 11.087239583333332  C 19.928819444444446 10.195746527777777  18.83984375 9.75  17.485677083333332 9.75  C 15.950954861111112 9.75  14.77170138888889 10.41015625  13.947916666666668 11.73046875  L 13.981770833333332 11.73046875  L 13.981770833333332 10.020833333333332  L 10.071614583333334 10.020833333333332  C 10.10546875 10.765625  10.10546875 14.68142361111111  10.071614583333334 21.768229166666668  L 13.981770833333332 21.768229166666668  L 13.981770833333332 15.200520833333336  C 13.981770833333332 14.77170138888889  14.021267361111112 14.455729166666664  14.100260416666668 14.252604166666664  C 14.26953125 13.85763888888889  14.5234375 13.521918402777775  14.861979166666668 13.245442708333336  C 15.200520833333332 12.968967013888888  15.618055555555557 12.830729166666668  16.114583333333332 12.830729166666668  C 17.423611111111114 12.830729166666668  18.078125 13.71657986111111  18.078125 15.48828125  Z M 24.569661458333332 1.4303385416666676  C 25.52322048611111 2.383897569444442  26 3.532118055555552  26 4.875  L 26 21.125  C 26 22.467881944444443  25.52322048611111 23.616102430555557  24.569661458333332 24.569661458333332  C 23.616102430555557 25.52322048611111  22.467881944444446 26  21.125 26  L 4.875 26  C 3.532118055555556 26  2.3838975694444446 25.52322048611111  1.4303385416666667 24.569661458333332  C 0.47677951388888884 23.616102430555557  0 22.467881944444443  0 21.125  L 0 4.875  C 0 3.532118055555552  0.47677951388888884 2.383897569444442  1.4303385416666667 1.4303385416666676  C 2.3838975694444446 0.4767795138888873  3.532118055555556 0  4.875 0  L 21.125 0  C 22.467881944444446 0  23.616102430555557 0.4767795138888873  24.569661458333332 1.4303385416666676  Z " fill-rule="nonzero" fill="rgba(127, 127, 127, 1)" stroke="none" transform="matrix(1 0 0 1 801 2539 )" class="fill" />
    <path d="M 4 10.020833333333332  L 4 21.768229166666668  L 8 21.768229166666668  L 8 10.020833333333332  L 4 10.020833333333332  Z " stroke-width="0" stroke-dasharray="0" stroke="rgba(255, 255, 255, 0)" fill="none" transform="matrix(1 0 0 1 801 2539 )" class="stroke" mask="url(#Clip351)" />
    <path d="M 7.56640625 7.845703125  C 7.972656250000002 7.456380208333332  8.175781250000002 6.973958333333332  8.17578125 6.3984375  C 8.164496527777779 5.811631944444442  7.961371527777779 5.3263888888888875  7.56640625 4.942708333333332  C 7.171440972222222 4.559027777777778  6.646701388888888 4.3671875  5.9921875 4.3671875  C 5.337673611111112 4.3671875  4.804470486111112 4.559027777777778  4.392578125 4.942708333333332  C 3.9806857638888893 5.3263888888888875  3.774739583333333 5.811631944444442  3.774739583333333 6.3984375  C 3.774739583333333 6.973958333333332  3.975043402777778 7.456380208333332  4.375651041666667 7.845703125  C 4.776258680555555 8.235026041666668  5.298177083333333 8.4296875  5.94140625 8.4296875  L 5.958333333333333 8.4296875  C 6.624131944444445 8.4296875  7.160156250000002 8.235026041666668  7.56640625 7.845703125  Z " stroke-width="0" stroke-dasharray="0" stroke="rgba(255, 255, 255, 0)" fill="none" transform="matrix(1 0 0 1 801 2539 )" class="stroke" mask="url(#Clip351)" />
    <path d="M 18.078125 15.48828125  L 18.078125 21.768229166666668  L 21.98828125 21.768229166666668  L 21.98828125 15.03125  C 21.98828125 13.293402777777775  21.57638888888889 11.978732638888888  20.752604166666668 11.087239583333332  C 19.928819444444446 10.195746527777777  18.83984375 9.75  17.485677083333332 9.75  C 15.950954861111112 9.75  14.77170138888889 10.41015625  13.947916666666668 11.73046875  L 13.981770833333332 11.73046875  L 13.981770833333332 10.020833333333332  L 10.071614583333334 10.020833333333332  C 10.10546875 10.765625  10.10546875 14.68142361111111  10.071614583333334 21.768229166666668  L 13.981770833333332 21.768229166666668  L 13.981770833333332 15.200520833333336  C 13.981770833333332 14.77170138888889  14.021267361111112 14.455729166666664  14.100260416666668 14.252604166666664  C 14.26953125 13.85763888888889  14.5234375 13.521918402777775  14.861979166666668 13.245442708333336  C 15.200520833333332 12.968967013888888  15.618055555555557 12.830729166666668  16.114583333333332 12.830729166666668  C 17.423611111111114 12.830729166666668  18.078125 13.71657986111111  18.078125 15.48828125  Z " stroke-width="0" stroke-dasharray="0" stroke="rgba(255, 255, 255, 0)" fill="none" transform="matrix(1 0 0 1 801 2539 )" class="stroke" mask="url(#Clip351)" />
    <path d="M 24.569661458333332 1.4303385416666676  C 25.52322048611111 2.383897569444442  26 3.532118055555552  26 4.875  L 26 21.125  C 26 22.467881944444443  25.52322048611111 23.616102430555557  24.569661458333332 24.569661458333332  C 23.616102430555557 25.52322048611111  22.467881944444446 26  21.125 26  L 4.875 26  C 3.532118055555556 26  2.3838975694444446 25.52322048611111  1.4303385416666667 24.569661458333332  C 0.47677951388888884 23.616102430555557  0 22.467881944444443  0 21.125  L 0 4.875  C 0 3.532118055555552  0.47677951388888884 2.383897569444442  1.4303385416666667 1.4303385416666676  C 2.3838975694444446 0.4767795138888873  3.532118055555556 0  4.875 0  L 21.125 0  C 22.467881944444446 0  23.616102430555557 0.4767795138888873  24.569661458333332 1.4303385416666676  Z " stroke-width="0" stroke-dasharray="0" stroke="rgba(255, 255, 255, 0)" fill="none" transform="matrix(1 0 0 1 801 2539 )" class="stroke" mask="url(#Clip351)" />
  </g>
</svg>