<?xml version="1.0" encoding="utf-8"?>
<svg version="1.1" xmlns:xlink="http://www.w3.org/1999/xlink" width="17px" height="17px" xmlns="http://www.w3.org/2000/svg">
  <defs>
    <pattern id="BGPattern" patternUnits="userSpaceOnUse" alignment="0 0" imageRepeat="None" />
    <mask fill="white" id="Clip346">
      <path d="M 12.672526041666668 10.3427734375  C 12.709418402777779 10.3759765625  12.727864583333332 10.418402777777775  12.727864583333332 10.470052083333334  L 12.727864583333332 11.676432291666666  C 12.727864583333332 12.045355902777775  12.593207465277779 12.373697916666666  12.323893229166668 12.661458333333334  C 12.054578993055557 12.94921875  11.707790798611112 13.172417534722221  11.283528645833332 13.3310546875  C 10.859266493055557 13.489691840277777  10.423936631944445 13.60959201388889  9.9775390625 13.690755208333332  C 9.531141493055557 13.771918402777777  9.09765625 13.8125  8.677083333333332 13.8125  C 7.164496527777779 13.8125  5.900933159722223 13.299696180555557  4.886393229166666 12.274088541666666  C 3.8718532986111116 11.248480902777775  3.364583333333333 9.972005208333334  3.364583333333333 8.444661458333332  C 3.364583333333333 6.946831597222222  3.8663194444444446 5.696180555555555  4.869791666666666 4.692708333333333  C 5.873263888888889 3.6892361111111103  7.123914930555556 3.1875  8.621744791666668 3.1875  C 8.872612847222223 3.1875  9.151150173611112 3.2041015625  9.457356770833332 3.2373046875  C 9.763563368055557 3.2705078125  10.10666232638889 3.3369140625  10.486653645833332 3.4365234375  C 10.866644965277779 3.5361328125  11.207899305555557 3.6615668402777777  11.510416666666668 3.8128255208333326  C 11.812934027777779 3.964084201388888  12.067491319444446 4.172526041666667  12.274088541666668 4.438151041666667  C 12.48068576388889 4.703776041666667  12.583984375 5.002604166666667  12.583984375 5.334635416666667  L 12.583984375 6.541015625  C 12.583984375 6.659071180555554  12.524956597222223 6.718098958333333  12.406901041666668 6.718098958333333  L 11.100911458333332 6.718098958333333  C 10.982855902777779 6.718098958333333  10.923828125000002 6.659071180555554  10.923828125 6.541015625  L 10.923828125 5.766276041666667  C 10.923828125000002 5.449001736111111  10.682183159722223 5.199978298611111  10.198893229166668 5.019205729166667  C 9.715603298611112 4.8384331597222205  9.208333333333332 4.748046875  8.677083333333332 4.748046875  C 7.644097222222223 4.748046875  6.801106770833334 5.085611979166667  6.148111979166666 5.7607421875  C 5.4951171875 6.435872395833333  5.168619791666666 7.312065972222222  5.168619791666666 8.389322916666668  C 5.168619791666666 9.503472222222221  5.506184895833334 10.423936631944445  6.181315104166666 11.150716145833334  C 6.8564453125 11.877495659722221  7.717881944444445 12.240885416666666  8.765625 12.240885416666666  C 9.267361111111112 12.240885416666666  9.776475694444445 12.15234375  10.29296875 11.975260416666666  C 10.809461805555557 11.798177083333334  11.067708333333332 11.5546875  11.067708333333332 11.244791666666666  L 11.067708333333332 10.470052083333334  C 11.067708333333332 10.418402777777775  11.084309895833332 10.3759765625  11.117513020833332 10.3427734375  C 11.150716145833332 10.3095703125  11.189453125 10.29296875  11.233723958333332 10.29296875  L 12.55078125 10.29296875  C 12.595052083333332 10.29296875  12.635633680555557 10.3095703125  12.672526041666668 10.3427734375  Z M 11.250325520833332 1.9811197916666674  C 10.3759765625 1.6048177083333326  9.45920138888889 1.4166666666666674  8.5 1.4166666666666674  C 7.540798611111112 1.4166666666666674  6.6240234375 1.6048177083333326  5.749674479166666 1.9811197916666674  C 4.875325520833334 2.357421875  4.122721354166667 2.8610026041666674  3.491861979166667 3.4918619791666674  C 2.861002604166667 4.122721354166667  2.357421875 4.875325520833333  1.9811197916666665 5.749674479166667  C 1.6048177083333335 6.6240234375  1.4166666666666665 7.540798611111111  1.4166666666666665 8.5  C 1.4166666666666665 9.45920138888889  1.6048177083333335 10.3759765625  1.9811197916666665 11.250325520833334  C 2.357421875 12.124674479166666  2.861002604166667 12.877278645833332  3.491861979166667 13.508138020833332  C 4.122721354166667 14.138997395833332  4.875325520833334 14.642578125  5.749674479166666 15.018880208333332  C 6.6240234375 15.395182291666668  7.540798611111112 15.583333333333332  8.5 15.583333333333332  C 9.45920138888889 15.583333333333332  10.3759765625 15.395182291666668  11.250325520833332 15.018880208333332  C 12.124674479166668 14.642578125  12.877278645833332 14.138997395833332  13.508138020833332 13.508138020833332  C 14.138997395833332 12.877278645833332  14.642578125 12.124674479166666  15.018880208333332 11.250325520833334  C 15.395182291666668 10.3759765625  15.583333333333332 9.45920138888889  15.583333333333332 8.5  C 15.583333333333332 7.540798611111111  15.395182291666668 6.6240234375  15.018880208333332 5.749674479166667  C 14.642578125 4.875325520833333  14.138997395833332 4.122721354166667  13.508138020833332 3.4918619791666674  C 12.877278645833332 2.8610026041666674  12.124674479166668 2.357421875  11.250325520833332 1.9811197916666674  Z M 15.860026041666668 4.2333984375  C 16.620008680555554 5.5356987847222205  17 6.957899305555554  17 8.5  C 17 10.042100694444445  16.620008680555554 11.464301215277775  15.860026041666668 12.7666015625  C 15.100043402777779 14.068901909722223  14.068901909722223 15.100043402777777  12.7666015625 15.860026041666668  C 11.464301215277779 16.620008680555557  10.042100694444445 17  8.5 17  C 6.957899305555556 17  5.535698784722222 16.620008680555557  4.2333984375 15.860026041666668  C 2.931098090277778 15.100043402777777  1.8999565972222223 14.068901909722223  1.1399739583333335 12.7666015625  C 0.3799913194444444 11.464301215277775  0 10.042100694444445  0 8.5  C 0 6.957899305555554  0.3799913194444444 5.5356987847222205  1.1399739583333335 4.2333984375  C 1.8999565972222223 2.9310980902777777  2.931098090277778 1.8999565972222205  4.2333984375 1.1399739583333326  C 5.535698784722222 0.379991319444443  6.957899305555556 0  8.5 0  C 10.042100694444445 0  11.464301215277779 0.379991319444443  12.7666015625 1.1399739583333326  C 14.068901909722223 1.8999565972222205  15.100043402777779 2.9310980902777777  15.860026041666668 4.2333984375  Z " fill-rule="evenodd" />
    </mask>
  </defs>
  <g transform="matrix(1 0 0 1 -739 -2511 )">
    <path d="M 12.672526041666668 10.3427734375  C 12.709418402777779 10.3759765625  12.727864583333332 10.418402777777775  12.727864583333332 10.470052083333334  L 12.727864583333332 11.676432291666666  C 12.727864583333332 12.045355902777775  12.593207465277779 12.373697916666666  12.323893229166668 12.661458333333334  C 12.054578993055557 12.94921875  11.707790798611112 13.172417534722221  11.283528645833332 13.3310546875  C 10.859266493055557 13.489691840277777  10.423936631944445 13.60959201388889  9.9775390625 13.690755208333332  C 9.531141493055557 13.771918402777777  9.09765625 13.8125  8.677083333333332 13.8125  C 7.164496527777779 13.8125  5.900933159722223 13.299696180555557  4.886393229166666 12.274088541666666  C 3.8718532986111116 11.248480902777775  3.364583333333333 9.972005208333334  3.364583333333333 8.444661458333332  C 3.364583333333333 6.946831597222222  3.8663194444444446 5.696180555555555  4.869791666666666 4.692708333333333  C 5.873263888888889 3.6892361111111103  7.123914930555556 3.1875  8.621744791666668 3.1875  C 8.872612847222223 3.1875  9.151150173611112 3.2041015625  9.457356770833332 3.2373046875  C 9.763563368055557 3.2705078125  10.10666232638889 3.3369140625  10.486653645833332 3.4365234375  C 10.866644965277779 3.5361328125  11.207899305555557 3.6615668402777777  11.510416666666668 3.8128255208333326  C 11.812934027777779 3.964084201388888  12.067491319444446 4.172526041666667  12.274088541666668 4.438151041666667  C 12.48068576388889 4.703776041666667  12.583984375 5.002604166666667  12.583984375 5.334635416666667  L 12.583984375 6.541015625  C 12.583984375 6.659071180555554  12.524956597222223 6.718098958333333  12.406901041666668 6.718098958333333  L 11.100911458333332 6.718098958333333  C 10.982855902777779 6.718098958333333  10.923828125000002 6.659071180555554  10.923828125 6.541015625  L 10.923828125 5.766276041666667  C 10.923828125000002 5.449001736111111  10.682183159722223 5.199978298611111  10.198893229166668 5.019205729166667  C 9.715603298611112 4.8384331597222205  9.208333333333332 4.748046875  8.677083333333332 4.748046875  C 7.644097222222223 4.748046875  6.801106770833334 5.085611979166667  6.148111979166666 5.7607421875  C 5.4951171875 6.435872395833333  5.168619791666666 7.312065972222222  5.168619791666666 8.389322916666668  C 5.168619791666666 9.503472222222221  5.506184895833334 10.423936631944445  6.181315104166666 11.150716145833334  C 6.8564453125 11.877495659722221  7.717881944444445 12.240885416666666  8.765625 12.240885416666666  C 9.267361111111112 12.240885416666666  9.776475694444445 12.15234375  10.29296875 11.975260416666666  C 10.809461805555557 11.798177083333334  11.067708333333332 11.5546875  11.067708333333332 11.244791666666666  L 11.067708333333332 10.470052083333334  C 11.067708333333332 10.418402777777775  11.084309895833332 10.3759765625  11.117513020833332 10.3427734375  C 11.150716145833332 10.3095703125  11.189453125 10.29296875  11.233723958333332 10.29296875  L 12.55078125 10.29296875  C 12.595052083333332 10.29296875  12.635633680555557 10.3095703125  12.672526041666668 10.3427734375  Z M 11.250325520833332 1.9811197916666674  C 10.3759765625 1.6048177083333326  9.45920138888889 1.4166666666666674  8.5 1.4166666666666674  C 7.540798611111112 1.4166666666666674  6.6240234375 1.6048177083333326  5.749674479166666 1.9811197916666674  C 4.875325520833334 2.357421875  4.122721354166667 2.8610026041666674  3.491861979166667 3.4918619791666674  C 2.861002604166667 4.122721354166667  2.357421875 4.875325520833333  1.9811197916666665 5.749674479166667  C 1.6048177083333335 6.6240234375  1.4166666666666665 7.540798611111111  1.4166666666666665 8.5  C 1.4166666666666665 9.45920138888889  1.6048177083333335 10.3759765625  1.9811197916666665 11.250325520833334  C 2.357421875 12.124674479166666  2.861002604166667 12.877278645833332  3.491861979166667 13.508138020833332  C 4.122721354166667 14.138997395833332  4.875325520833334 14.642578125  5.749674479166666 15.018880208333332  C 6.6240234375 15.395182291666668  7.540798611111112 15.583333333333332  8.5 15.583333333333332  C 9.45920138888889 15.583333333333332  10.3759765625 15.395182291666668  11.250325520833332 15.018880208333332  C 12.124674479166668 14.642578125  12.877278645833332 14.138997395833332  13.508138020833332 13.508138020833332  C 14.138997395833332 12.877278645833332  14.642578125 12.124674479166666  15.018880208333332 11.250325520833334  C 15.395182291666668 10.3759765625  15.583333333333332 9.45920138888889  15.583333333333332 8.5  C 15.583333333333332 7.540798611111111  15.395182291666668 6.6240234375  15.018880208333332 5.749674479166667  C 14.642578125 4.875325520833333  14.138997395833332 4.122721354166667  13.508138020833332 3.4918619791666674  C 12.877278645833332 2.8610026041666674  12.124674479166668 2.357421875  11.250325520833332 1.9811197916666674  Z M 15.860026041666668 4.2333984375  C 16.620008680555554 5.5356987847222205  17 6.957899305555554  17 8.5  C 17 10.042100694444445  16.620008680555554 11.464301215277775  15.860026041666668 12.7666015625  C 15.100043402777779 14.068901909722223  14.068901909722223 15.100043402777777  12.7666015625 15.860026041666668  C 11.464301215277779 16.620008680555557  10.042100694444445 17  8.5 17  C 6.957899305555556 17  5.535698784722222 16.620008680555557  4.2333984375 15.860026041666668  C 2.931098090277778 15.100043402777777  1.8999565972222223 14.068901909722223  1.1399739583333335 12.7666015625  C 0.3799913194444444 11.464301215277775  0 10.042100694444445  0 8.5  C 0 6.957899305555554  0.3799913194444444 5.5356987847222205  1.1399739583333335 4.2333984375  C 1.8999565972222223 2.9310980902777777  2.931098090277778 1.8999565972222205  4.2333984375 1.1399739583333326  C 5.535698784722222 0.379991319444443  6.957899305555556 0  8.5 0  C 10.042100694444445 0  11.464301215277779 0.379991319444443  12.7666015625 1.1399739583333326  C 14.068901909722223 1.8999565972222205  15.100043402777779 2.9310980902777777  15.860026041666668 4.2333984375  Z " fill-rule="nonzero" fill="rgba(127, 127, 127, 1)" stroke="none" transform="matrix(1 0 0 1 739 2511 )" class="fill" />
    <path d="M 12.672526041666668 10.3427734375  C 12.709418402777779 10.3759765625  12.727864583333332 10.418402777777775  12.727864583333332 10.470052083333334  L 12.727864583333332 11.676432291666666  C 12.727864583333332 12.045355902777775  12.593207465277779 12.373697916666666  12.323893229166668 12.661458333333334  C 12.054578993055557 12.94921875  11.707790798611112 13.172417534722221  11.283528645833332 13.3310546875  C 10.859266493055557 13.489691840277777  10.423936631944445 13.60959201388889  9.9775390625 13.690755208333332  C 9.531141493055557 13.771918402777777  9.09765625 13.8125  8.677083333333332 13.8125  C 7.164496527777779 13.8125  5.900933159722223 13.299696180555557  4.886393229166666 12.274088541666666  C 3.8718532986111116 11.248480902777775  3.364583333333333 9.972005208333334  3.364583333333333 8.444661458333332  C 3.364583333333333 6.946831597222222  3.8663194444444446 5.696180555555555  4.869791666666666 4.692708333333333  C 5.873263888888889 3.6892361111111103  7.123914930555556 3.1875  8.621744791666668 3.1875  C 8.872612847222223 3.1875  9.151150173611112 3.2041015625  9.457356770833332 3.2373046875  C 9.763563368055557 3.2705078125  10.10666232638889 3.3369140625  10.486653645833332 3.4365234375  C 10.866644965277779 3.5361328125  11.207899305555557 3.6615668402777777  11.510416666666668 3.8128255208333326  C 11.812934027777779 3.964084201388888  12.067491319444446 4.172526041666667  12.274088541666668 4.438151041666667  C 12.48068576388889 4.703776041666667  12.583984375 5.002604166666667  12.583984375 5.334635416666667  L 12.583984375 6.541015625  C 12.583984375 6.659071180555554  12.524956597222223 6.718098958333333  12.406901041666668 6.718098958333333  L 11.100911458333332 6.718098958333333  C 10.982855902777779 6.718098958333333  10.923828125000002 6.659071180555554  10.923828125 6.541015625  L 10.923828125 5.766276041666667  C 10.923828125000002 5.449001736111111  10.682183159722223 5.199978298611111  10.198893229166668 5.019205729166667  C 9.715603298611112 4.8384331597222205  9.208333333333332 4.748046875  8.677083333333332 4.748046875  C 7.644097222222223 4.748046875  6.801106770833334 5.085611979166667  6.148111979166666 5.7607421875  C 5.4951171875 6.435872395833333  5.168619791666666 7.312065972222222  5.168619791666666 8.389322916666668  C 5.168619791666666 9.503472222222221  5.506184895833334 10.423936631944445  6.181315104166666 11.150716145833334  C 6.8564453125 11.877495659722221  7.717881944444445 12.240885416666666  8.765625 12.240885416666666  C 9.267361111111112 12.240885416666666  9.776475694444445 12.15234375  10.29296875 11.975260416666666  C 10.809461805555557 11.798177083333334  11.067708333333332 11.5546875  11.067708333333332 11.244791666666666  L 11.067708333333332 10.470052083333334  C 11.067708333333332 10.418402777777775  11.084309895833332 10.3759765625  11.117513020833332 10.3427734375  C 11.150716145833332 10.3095703125  11.189453125 10.29296875  11.233723958333332 10.29296875  L 12.55078125 10.29296875  C 12.595052083333332 10.29296875  12.635633680555557 10.3095703125  12.672526041666668 10.3427734375  Z " stroke-width="0" stroke-dasharray="0" stroke="rgba(255, 255, 255, 0)" fill="none" transform="matrix(1 0 0 1 739 2511 )" class="stroke" mask="url(#Clip346)" />
    <path d="M 11.250325520833332 1.9811197916666674  C 10.3759765625 1.6048177083333326  9.45920138888889 1.4166666666666674  8.5 1.4166666666666674  C 7.540798611111112 1.4166666666666674  6.6240234375 1.6048177083333326  5.749674479166666 1.9811197916666674  C 4.875325520833334 2.357421875  4.122721354166667 2.8610026041666674  3.491861979166667 3.4918619791666674  C 2.861002604166667 4.122721354166667  2.357421875 4.875325520833333  1.9811197916666665 5.749674479166667  C 1.6048177083333335 6.6240234375  1.4166666666666665 7.540798611111111  1.4166666666666665 8.5  C 1.4166666666666665 9.45920138888889  1.6048177083333335 10.3759765625  1.9811197916666665 11.250325520833334  C 2.357421875 12.124674479166666  2.861002604166667 12.877278645833332  3.491861979166667 13.508138020833332  C 4.122721354166667 14.138997395833332  4.875325520833334 14.642578125  5.749674479166666 15.018880208333332  C 6.6240234375 15.395182291666668  7.540798611111112 15.583333333333332  8.5 15.583333333333332  C 9.45920138888889 15.583333333333332  10.3759765625 15.395182291666668  11.250325520833332 15.018880208333332  C 12.124674479166668 14.642578125  12.877278645833332 14.138997395833332  13.508138020833332 13.508138020833332  C 14.138997395833332 12.877278645833332  14.642578125 12.124674479166666  15.018880208333332 11.250325520833334  C 15.395182291666668 10.3759765625  15.583333333333332 9.45920138888889  15.583333333333332 8.5  C 15.583333333333332 7.540798611111111  15.395182291666668 6.6240234375  15.018880208333332 5.749674479166667  C 14.642578125 4.875325520833333  14.138997395833332 4.122721354166667  13.508138020833332 3.4918619791666674  C 12.877278645833332 2.8610026041666674  12.124674479166668 2.357421875  11.250325520833332 1.9811197916666674  Z " stroke-width="0" stroke-dasharray="0" stroke="rgba(255, 255, 255, 0)" fill="none" transform="matrix(1 0 0 1 739 2511 )" class="stroke" mask="url(#Clip346)" />
    <path d="M 15.860026041666668 4.2333984375  C 16.620008680555554 5.5356987847222205  17 6.957899305555554  17 8.5  C 17 10.042100694444445  16.620008680555554 11.464301215277775  15.860026041666668 12.7666015625  C 15.100043402777779 14.068901909722223  14.068901909722223 15.100043402777777  12.7666015625 15.860026041666668  C 11.464301215277779 16.620008680555557  10.042100694444445 17  8.5 17  C 6.957899305555556 17  5.535698784722222 16.620008680555557  4.2333984375 15.860026041666668  C 2.931098090277778 15.100043402777777  1.8999565972222223 14.068901909722223  1.1399739583333335 12.7666015625  C 0.3799913194444444 11.464301215277775  0 10.042100694444445  0 8.5  C 0 6.957899305555554  0.3799913194444444 5.5356987847222205  1.1399739583333335 4.2333984375  C 1.8999565972222223 2.9310980902777777  2.931098090277778 1.8999565972222205  4.2333984375 1.1399739583333326  C 5.535698784722222 0.379991319444443  6.957899305555556 0  8.5 0  C 10.042100694444445 0  11.464301215277779 0.379991319444443  12.7666015625 1.1399739583333326  C 14.068901909722223 1.8999565972222205  15.100043402777779 2.9310980902777777  15.860026041666668 4.2333984375  Z " stroke-width="0" stroke-dasharray="0" stroke="rgba(255, 255, 255, 0)" fill="none" transform="matrix(1 0 0 1 739 2511 )" class="stroke" mask="url(#Clip346)" />
  </g>
</svg>