<?xml version="1.0" encoding="utf-8"?>
<svg version="1.1" xmlns:xlink="http://www.w3.org/1999/xlink" width="25px" height="25px" xmlns="http://www.w3.org/2000/svg">
  <defs>
    <pattern id="BGPattern" patternUnits="userSpaceOnUse" alignment="0 0" imageRepeat="None" />
    <mask fill="white" id="Clip352">
      <path d="M 4.6875 0  L 20.3125 0  C 21.603732638888893 0  22.707790798611114 0.45844184027777624  23.624674479166664 1.3753255208333344  C 24.54155815972222 2.2922092013888866  25 3.3962673611111076  25 4.6875  L 25 20.3125  C 25 21.603732638888886  24.54155815972222 22.707790798611114  23.624674479166664 23.624674479166664  C 22.707790798611114 24.54155815972222  21.603732638888893 25  20.3125 25  L 17.252604166666664 25  L 17.252604166666664 15.315755208333332  L 20.491536458333336 15.315755208333332  L 20.979817708333336 11.539713541666666  L 17.252604166666664 11.539713541666666  L 17.252604166666664 9.130859375  C 17.252604166666664 8.523220486111107  17.380099826388893 8.067491319444443  17.635091145833336 7.763671875  C 17.89008246527778 7.459852430555555  18.386501736111114 7.307942708333334  19.124348958333336 7.307942708333334  L 21.110026041666664 7.291666666666666  L 21.110026041666664 3.9225260416666656  C 20.426432291666664 3.8248697916666656  19.460720486111114 3.7760416666666656  18.212890625 3.7760416666666656  C 16.737196180555557 3.7760416666666656  15.557183159722223 4.210069444444442  14.6728515625 5.078125  C 13.788519965277779 5.946180555555555  13.346354166666666 7.172309027777776  13.346354166666666 8.756510416666666  L 13.346354166666666 11.539713541666666  L 10.091145833333332 11.539713541666666  L 10.091145833333332 15.315755208333332  L 13.346354166666666 15.315755208333332  L 13.346354166666666 25  L 4.6875 25  C 3.396267361111111 25  2.2922092013888893 24.54155815972222  1.3753255208333335 23.624674479166664  C 0.45844184027777773 22.707790798611114  0 21.603732638888886  0 20.3125  L 0 4.6875  C 0 3.3962673611111076  0.45844184027777773 2.2922092013888866  1.3753255208333335 1.3753255208333344  C 2.2922092013888893 0.45844184027777624  3.396267361111111 0  4.6875 0  Z " fill-rule="evenodd" />
    </mask>
  </defs>
  <g transform="matrix(1 0 0 1 -753 -2539 )">
    <path d="M 4.6875 0  L 20.3125 0  C 21.603732638888893 0  22.707790798611114 0.45844184027777624  23.624674479166664 1.3753255208333344  C 24.54155815972222 2.2922092013888866  25 3.3962673611111076  25 4.6875  L 25 20.3125  C 25 21.603732638888886  24.54155815972222 22.707790798611114  23.624674479166664 23.624674479166664  C 22.707790798611114 24.54155815972222  21.603732638888893 25  20.3125 25  L 17.252604166666664 25  L 17.252604166666664 15.315755208333332  L 20.491536458333336 15.315755208333332  L 20.979817708333336 11.539713541666666  L 17.252604166666664 11.539713541666666  L 17.252604166666664 9.130859375  C 17.252604166666664 8.523220486111107  17.380099826388893 8.067491319444443  17.635091145833336 7.763671875  C 17.89008246527778 7.459852430555555  18.386501736111114 7.307942708333334  19.124348958333336 7.307942708333334  L 21.110026041666664 7.291666666666666  L 21.110026041666664 3.9225260416666656  C 20.426432291666664 3.8248697916666656  19.460720486111114 3.7760416666666656  18.212890625 3.7760416666666656  C 16.737196180555557 3.7760416666666656  15.557183159722223 4.210069444444442  14.6728515625 5.078125  C 13.788519965277779 5.946180555555555  13.346354166666666 7.172309027777776  13.346354166666666 8.756510416666666  L 13.346354166666666 11.539713541666666  L 10.091145833333332 11.539713541666666  L 10.091145833333332 15.315755208333332  L 13.346354166666666 15.315755208333332  L 13.346354166666666 25  L 4.6875 25  C 3.396267361111111 25  2.2922092013888893 24.54155815972222  1.3753255208333335 23.624674479166664  C 0.45844184027777773 22.707790798611114  0 21.603732638888886  0 20.3125  L 0 4.6875  C 0 3.3962673611111076  0.45844184027777773 2.2922092013888866  1.3753255208333335 1.3753255208333344  C 2.2922092013888893 0.45844184027777624  3.396267361111111 0  4.6875 0  Z " fill-rule="nonzero" fill="rgba(127, 127, 127, 1)" stroke="none" transform="matrix(1 0 0 1 753 2539 )" class="fill" />
    <path d="M 4.6875 0  L 20.3125 0  C 21.603732638888893 0  22.707790798611114 0.45844184027777624  23.624674479166664 1.3753255208333344  C 24.54155815972222 2.2922092013888866  25 3.3962673611111076  25 4.6875  L 25 20.3125  C 25 21.603732638888886  24.54155815972222 22.707790798611114  23.624674479166664 23.624674479166664  C 22.707790798611114 24.54155815972222  21.603732638888893 25  20.3125 25  L 17.252604166666664 25  L 17.252604166666664 15.315755208333332  L 20.491536458333336 15.315755208333332  L 20.979817708333336 11.539713541666666  L 17.252604166666664 11.539713541666666  L 17.252604166666664 9.130859375  C 17.252604166666664 8.523220486111107  17.380099826388893 8.067491319444443  17.635091145833336 7.763671875  C 17.89008246527778 7.459852430555555  18.386501736111114 7.307942708333334  19.124348958333336 7.307942708333334  L 21.110026041666664 7.291666666666666  L 21.110026041666664 3.9225260416666656  C 20.426432291666664 3.8248697916666656  19.460720486111114 3.7760416666666656  18.212890625 3.7760416666666656  C 16.737196180555557 3.7760416666666656  15.557183159722223 4.210069444444442  14.6728515625 5.078125  C 13.788519965277779 5.946180555555555  13.346354166666666 7.172309027777776  13.346354166666666 8.756510416666666  L 13.346354166666666 11.539713541666666  L 10.091145833333332 11.539713541666666  L 10.091145833333332 15.315755208333332  L 13.346354166666666 15.315755208333332  L 13.346354166666666 25  L 4.6875 25  C 3.396267361111111 25  2.2922092013888893 24.54155815972222  1.3753255208333335 23.624674479166664  C 0.45844184027777773 22.707790798611114  0 21.603732638888886  0 20.3125  L 0 4.6875  C 0 3.3962673611111076  0.45844184027777773 2.2922092013888866  1.3753255208333335 1.3753255208333344  C 2.2922092013888893 0.45844184027777624  3.396267361111111 0  4.6875 0  Z " stroke-width="0" stroke-dasharray="0" stroke="rgba(255, 255, 255, 0)" fill="none" transform="matrix(1 0 0 1 753 2539 )" class="stroke" mask="url(#Clip352)" />
  </g>
</svg>