<?xml version="1.0" encoding="utf-8"?>
<svg version="1.1" xmlns:xlink="http://www.w3.org/1999/xlink" width="29px" height="25px" xmlns="http://www.w3.org/2000/svg">
  <defs>
    <pattern id="BGPattern" patternUnits="userSpaceOnUse" alignment="0 0" imageRepeat="None" />
    <mask fill="white" id="Clip348">
      <path d="M 11.509476031215161 7.123015873015873  L 11.509476031215161 17.103174603174605  L 19.333333333333332 12.142857142857144  L 11.509476031215161 7.123015873015873  Z M 4.364548494983278 0.3571428571428559  C 7.069490895577853 0.11904761904761862  10.447974730583425 0  14.5 0  C 16.310479375696765 0  18.05899293942772 0.029761904761904656  19.745540691192865 0.08928571428571397  C 21.432088442958012 0.14880952380952328  22.668710516536606 0.21164021164020996  23.45540691192865 0.2777777777777768  L 24.63545150501672 0.3571428571428559  C 24.6462281679673 0.3571428571428559  24.737829803047198 0.36706349206349076  24.91025641025641 0.38690476190476053  C 25.082683017465627 0.4067460317460331  25.206614641397255 0.42658730158730285  25.28205128205128 0.4464285714285726  C 25.357487922705314 0.4662698412698424  25.484113712374583 0.49603174603174705  25.661928651059085 0.5357142857142866  C 25.83974358974359 0.5753968253968261  25.993311036789297 0.6283068783068751  26.12263099219621 0.6944444444444448  C 26.25195094760312 0.7605820105820088  26.402824228911186 0.8465608465608426  26.5752508361204 0.9523809523809518  C 26.74767744332962 1.0582010582010555  26.91471571906355 1.1871693121693117  27.076365663322186 1.339285714285715  C 27.238015607580827 1.491402116402113  27.39427722036418 1.6666666666666663  27.545150501672243 1.865079365079364  C 27.609810479375696 1.944444444444443  27.693329617242664 2.066798941798939  27.795707915273134 2.2321428571428577  C 27.898086213303607 2.3974867724867703  28.05434782608696 2.784391534391534  28.264492753623188 3.392857142857142  C 28.474637681159425 4.001322751322747  28.617428465254555 4.6693121693121675  28.692865105908584 5.396825396825397  C 28.779078409513197 6.243386243386243  28.846432552954294 7.14616402116402  28.894927536231883 8.10515873015873  C 28.94342251950948 9.064153439153438  28.973058342623563 9.814814814814813  28.983835005574136 10.357142857142856  L 28.983835005574136 11.15079365079365  L 28.983835005574136 13.84920634920635  C 28.994611668524712 15.767195767195762  28.89762170196953 17.685185185185183  28.692865105908584 19.603174603174605  C 28.617428465254555 20.330687830687832  28.482720178372357 20.988756613756614  28.288740245261987 21.577380952380953  C 28.09476031215162 22.16600529100529  27.922333704942403 22.572751322751326  27.771460423634338 22.797619047619047  L 27.545150501672243 23.134920634920636  C 27.39427722036418 23.333333333333332  27.238015607580827 23.508597883597883  27.076365663322186 23.660714285714285  C 26.91471571906355 23.81283068783069  26.74767744332962 23.938492063492063  26.5752508361204 24.037698412698415  C 26.402824228911186 24.136904761904763  26.25195094760312 24.21957671957672  26.12263099219621 24.285714285714285  C 25.993311036789297 24.35185185185185  25.83974358974359 24.404761904761905  25.661928651059085 24.444444444444443  C 25.484113712374583 24.484126984126984  25.35479375696767 24.51388888888889  25.27396878483835 24.533730158730158  C 25.19314381270903 24.553571428571427  25.069212188777406 24.573412698412696  24.90217391304348 24.59325396825397  C 24.73513563730955 24.61309523809524  24.6462281679673 24.623015873015873  24.63545150501672 24.623015873015873  C 21.930509104422146 24.874338624338627  18.552025269416575 25  14.5 25  C 12.269230769230768 24.973544973544975  10.332125603864736 24.930555555555557  8.688684503901895 24.871031746031747  C 7.045243403939056 24.811507936507937  5.964882943143813 24.761904761904763  5.447603121516165 24.72222222222222  L 4.65551839464883 24.642857142857146  L 4.073578595317725 24.563492063492063  C 3.6856187290969897 24.497354497354497  3.3919546636937943 24.43121693121693  3.1925863991081385 24.365079365079364  C 2.9932181345224826 24.2989417989418  2.718413229282795 24.16005291005291  2.3681716833890745 23.9484126984127  C 2.017930137495355 23.736772486772484  1.7134894091415829 23.46560846560847  1.4548494983277593 23.134920634920636  C 1.3901895206243033 23.055555555555557  1.3066703827573394 22.933201058201057  1.2042920847268674 22.767857142857142  C 1.1019137866963955 22.602513227513228  0.9456521739130435 22.215608465608465  0.7355072463768116 21.607142857142858  C 0.5253623188405797 20.998677248677247  0.3825715347454478 20.330687830687832  0.30713489409141587 19.603174603174605  C 0.2209215904868079 18.756613756613756  0.15356744704570796 17.853835978835978  0.10507246376811594 16.894841269841272  C 0.05657748049052397 15.935846560846556  0.026941657376439988 15.185185185185185  0.016164994425863992 14.64285714285714  L 0.016164994425863992 13.84920634920635  L 0.016164994425863992 11.15079365079365  C 0.005388331475287995 9.23280423280423  0.10237829803047194 7.314814814814813  0.30713489409141587 5.396825396825397  C 0.3825715347454478 4.6693121693121675  0.5172798216276477 4.0112433862433825  0.7112597547380156 3.4226190476190466  C 0.9052396878483835 2.833994708994708  1.0776662950575995 2.427248677248675  1.2285395763656635 2.202380952380953  L 1.4548494983277593 1.865079365079364  C 1.6057227796358233 1.6666666666666663  1.761984392419175 1.491402116402113  1.923634336677815 1.339285714285715  C 2.0852842809364547 1.1871693121693117  2.2523225566703826 1.0582010582010555  2.4247491638795986 0.9523809523809518  C 2.597175771088815 0.8465608465608426  2.7480490523968784 0.7605820105820088  2.8773690078037903 0.6944444444444448  C 3.0066889632107023 0.6283068783068751  3.16025641025641 0.5753968253968261  3.338071348940914 0.5357142857142866  C 3.5158862876254187 0.49603174603174705  3.642512077294687 0.4662698412698424  3.7179487179487176 0.4464285714285726  C 3.79338535860275 0.42658730158730285  3.9173169825343743 0.4067460317460331  4.089743589743589 0.38690476190476053  C 4.262170196952806 0.36706349206349076  4.353771832032702 0.3571428571428559  4.364548494983278 0.3571428571428559  Z " fill-rule="evenodd" />
    </mask>
  </defs>
  <g transform="matrix(1 0 0 1 -931 -2540 )">
    <path d="M 11.509476031215161 7.123015873015873  L 11.509476031215161 17.103174603174605  L 19.333333333333332 12.142857142857144  L 11.509476031215161 7.123015873015873  Z M 4.364548494983278 0.3571428571428559  C 7.069490895577853 0.11904761904761862  10.447974730583425 0  14.5 0  C 16.310479375696765 0  18.05899293942772 0.029761904761904656  19.745540691192865 0.08928571428571397  C 21.432088442958012 0.14880952380952328  22.668710516536606 0.21164021164020996  23.45540691192865 0.2777777777777768  L 24.63545150501672 0.3571428571428559  C 24.6462281679673 0.3571428571428559  24.737829803047198 0.36706349206349076  24.91025641025641 0.38690476190476053  C 25.082683017465627 0.4067460317460331  25.206614641397255 0.42658730158730285  25.28205128205128 0.4464285714285726  C 25.357487922705314 0.4662698412698424  25.484113712374583 0.49603174603174705  25.661928651059085 0.5357142857142866  C 25.83974358974359 0.5753968253968261  25.993311036789297 0.6283068783068751  26.12263099219621 0.6944444444444448  C 26.25195094760312 0.7605820105820088  26.402824228911186 0.8465608465608426  26.5752508361204 0.9523809523809518  C 26.74767744332962 1.0582010582010555  26.91471571906355 1.1871693121693117  27.076365663322186 1.339285714285715  C 27.238015607580827 1.491402116402113  27.39427722036418 1.6666666666666663  27.545150501672243 1.865079365079364  C 27.609810479375696 1.944444444444443  27.693329617242664 2.066798941798939  27.795707915273134 2.2321428571428577  C 27.898086213303607 2.3974867724867703  28.05434782608696 2.784391534391534  28.264492753623188 3.392857142857142  C 28.474637681159425 4.001322751322747  28.617428465254555 4.6693121693121675  28.692865105908584 5.396825396825397  C 28.779078409513197 6.243386243386243  28.846432552954294 7.14616402116402  28.894927536231883 8.10515873015873  C 28.94342251950948 9.064153439153438  28.973058342623563 9.814814814814813  28.983835005574136 10.357142857142856  L 28.983835005574136 11.15079365079365  L 28.983835005574136 13.84920634920635  C 28.994611668524712 15.767195767195762  28.89762170196953 17.685185185185183  28.692865105908584 19.603174603174605  C 28.617428465254555 20.330687830687832  28.482720178372357 20.988756613756614  28.288740245261987 21.577380952380953  C 28.09476031215162 22.16600529100529  27.922333704942403 22.572751322751326  27.771460423634338 22.797619047619047  L 27.545150501672243 23.134920634920636  C 27.39427722036418 23.333333333333332  27.238015607580827 23.508597883597883  27.076365663322186 23.660714285714285  C 26.91471571906355 23.81283068783069  26.74767744332962 23.938492063492063  26.5752508361204 24.037698412698415  C 26.402824228911186 24.136904761904763  26.25195094760312 24.21957671957672  26.12263099219621 24.285714285714285  C 25.993311036789297 24.35185185185185  25.83974358974359 24.404761904761905  25.661928651059085 24.444444444444443  C 25.484113712374583 24.484126984126984  25.35479375696767 24.51388888888889  25.27396878483835 24.533730158730158  C 25.19314381270903 24.553571428571427  25.069212188777406 24.573412698412696  24.90217391304348 24.59325396825397  C 24.73513563730955 24.61309523809524  24.6462281679673 24.623015873015873  24.63545150501672 24.623015873015873  C 21.930509104422146 24.874338624338627  18.552025269416575 25  14.5 25  C 12.269230769230768 24.973544973544975  10.332125603864736 24.930555555555557  8.688684503901895 24.871031746031747  C 7.045243403939056 24.811507936507937  5.964882943143813 24.761904761904763  5.447603121516165 24.72222222222222  L 4.65551839464883 24.642857142857146  L 4.073578595317725 24.563492063492063  C 3.6856187290969897 24.497354497354497  3.3919546636937943 24.43121693121693  3.1925863991081385 24.365079365079364  C 2.9932181345224826 24.2989417989418  2.718413229282795 24.16005291005291  2.3681716833890745 23.9484126984127  C 2.017930137495355 23.736772486772484  1.7134894091415829 23.46560846560847  1.4548494983277593 23.134920634920636  C 1.3901895206243033 23.055555555555557  1.3066703827573394 22.933201058201057  1.2042920847268674 22.767857142857142  C 1.1019137866963955 22.602513227513228  0.9456521739130435 22.215608465608465  0.7355072463768116 21.607142857142858  C 0.5253623188405797 20.998677248677247  0.3825715347454478 20.330687830687832  0.30713489409141587 19.603174603174605  C 0.2209215904868079 18.756613756613756  0.15356744704570796 17.853835978835978  0.10507246376811594 16.894841269841272  C 0.05657748049052397 15.935846560846556  0.026941657376439988 15.185185185185185  0.016164994425863992 14.64285714285714  L 0.016164994425863992 13.84920634920635  L 0.016164994425863992 11.15079365079365  C 0.005388331475287995 9.23280423280423  0.10237829803047194 7.314814814814813  0.30713489409141587 5.396825396825397  C 0.3825715347454478 4.6693121693121675  0.5172798216276477 4.0112433862433825  0.7112597547380156 3.4226190476190466  C 0.9052396878483835 2.833994708994708  1.0776662950575995 2.427248677248675  1.2285395763656635 2.202380952380953  L 1.4548494983277593 1.865079365079364  C 1.6057227796358233 1.6666666666666663  1.761984392419175 1.491402116402113  1.923634336677815 1.339285714285715  C 2.0852842809364547 1.1871693121693117  2.2523225566703826 1.0582010582010555  2.4247491638795986 0.9523809523809518  C 2.597175771088815 0.8465608465608426  2.7480490523968784 0.7605820105820088  2.8773690078037903 0.6944444444444448  C 3.0066889632107023 0.6283068783068751  3.16025641025641 0.5753968253968261  3.338071348940914 0.5357142857142866  C 3.5158862876254187 0.49603174603174705  3.642512077294687 0.4662698412698424  3.7179487179487176 0.4464285714285726  C 3.79338535860275 0.42658730158730285  3.9173169825343743 0.4067460317460331  4.089743589743589 0.38690476190476053  C 4.262170196952806 0.36706349206349076  4.353771832032702 0.3571428571428559  4.364548494983278 0.3571428571428559  Z " fill-rule="nonzero" fill="rgba(127, 127, 127, 1)" stroke="none" transform="matrix(1 0 0 1 931 2540 )" class="fill" />
    <path d="M 11.509476031215161 7.123015873015873  L 11.509476031215161 17.103174603174605  L 19.333333333333332 12.142857142857144  L 11.509476031215161 7.123015873015873  Z " stroke-width="0" stroke-dasharray="0" stroke="rgba(255, 255, 255, 0)" fill="none" transform="matrix(1 0 0 1 931 2540 )" class="stroke" mask="url(#Clip348)" />
    <path d="M 4.364548494983278 0.3571428571428559  C 7.069490895577853 0.11904761904761862  10.447974730583425 0  14.5 0  C 16.310479375696765 0  18.05899293942772 0.029761904761904656  19.745540691192865 0.08928571428571397  C 21.432088442958012 0.14880952380952328  22.668710516536606 0.21164021164020996  23.45540691192865 0.2777777777777768  L 24.63545150501672 0.3571428571428559  C 24.6462281679673 0.3571428571428559  24.737829803047198 0.36706349206349076  24.91025641025641 0.38690476190476053  C 25.082683017465627 0.4067460317460331  25.206614641397255 0.42658730158730285  25.28205128205128 0.4464285714285726  C 25.357487922705314 0.4662698412698424  25.484113712374583 0.49603174603174705  25.661928651059085 0.5357142857142866  C 25.83974358974359 0.5753968253968261  25.993311036789297 0.6283068783068751  26.12263099219621 0.6944444444444448  C 26.25195094760312 0.7605820105820088  26.402824228911186 0.8465608465608426  26.5752508361204 0.9523809523809518  C 26.74767744332962 1.0582010582010555  26.91471571906355 1.1871693121693117  27.076365663322186 1.339285714285715  C 27.238015607580827 1.491402116402113  27.39427722036418 1.6666666666666663  27.545150501672243 1.865079365079364  C 27.609810479375696 1.944444444444443  27.693329617242664 2.066798941798939  27.795707915273134 2.2321428571428577  C 27.898086213303607 2.3974867724867703  28.05434782608696 2.784391534391534  28.264492753623188 3.392857142857142  C 28.474637681159425 4.001322751322747  28.617428465254555 4.6693121693121675  28.692865105908584 5.396825396825397  C 28.779078409513197 6.243386243386243  28.846432552954294 7.14616402116402  28.894927536231883 8.10515873015873  C 28.94342251950948 9.064153439153438  28.973058342623563 9.814814814814813  28.983835005574136 10.357142857142856  L 28.983835005574136 11.15079365079365  L 28.983835005574136 13.84920634920635  C 28.994611668524712 15.767195767195762  28.89762170196953 17.685185185185183  28.692865105908584 19.603174603174605  C 28.617428465254555 20.330687830687832  28.482720178372357 20.988756613756614  28.288740245261987 21.577380952380953  C 28.09476031215162 22.16600529100529  27.922333704942403 22.572751322751326  27.771460423634338 22.797619047619047  L 27.545150501672243 23.134920634920636  C 27.39427722036418 23.333333333333332  27.238015607580827 23.508597883597883  27.076365663322186 23.660714285714285  C 26.91471571906355 23.81283068783069  26.74767744332962 23.938492063492063  26.5752508361204 24.037698412698415  C 26.402824228911186 24.136904761904763  26.25195094760312 24.21957671957672  26.12263099219621 24.285714285714285  C 25.993311036789297 24.35185185185185  25.83974358974359 24.404761904761905  25.661928651059085 24.444444444444443  C 25.484113712374583 24.484126984126984  25.35479375696767 24.51388888888889  25.27396878483835 24.533730158730158  C 25.19314381270903 24.553571428571427  25.069212188777406 24.573412698412696  24.90217391304348 24.59325396825397  C 24.73513563730955 24.61309523809524  24.6462281679673 24.623015873015873  24.63545150501672 24.623015873015873  C 21.930509104422146 24.874338624338627  18.552025269416575 25  14.5 25  C 12.269230769230768 24.973544973544975  10.332125603864736 24.930555555555557  8.688684503901895 24.871031746031747  C 7.045243403939056 24.811507936507937  5.964882943143813 24.761904761904763  5.447603121516165 24.72222222222222  L 4.65551839464883 24.642857142857146  L 4.073578595317725 24.563492063492063  C 3.6856187290969897 24.497354497354497  3.3919546636937943 24.43121693121693  3.1925863991081385 24.365079365079364  C 2.9932181345224826 24.2989417989418  2.718413229282795 24.16005291005291  2.3681716833890745 23.9484126984127  C 2.017930137495355 23.736772486772484  1.7134894091415829 23.46560846560847  1.4548494983277593 23.134920634920636  C 1.3901895206243033 23.055555555555557  1.3066703827573394 22.933201058201057  1.2042920847268674 22.767857142857142  C 1.1019137866963955 22.602513227513228  0.9456521739130435 22.215608465608465  0.7355072463768116 21.607142857142858  C 0.5253623188405797 20.998677248677247  0.3825715347454478 20.330687830687832  0.30713489409141587 19.603174603174605  C 0.2209215904868079 18.756613756613756  0.15356744704570796 17.853835978835978  0.10507246376811594 16.894841269841272  C 0.05657748049052397 15.935846560846556  0.026941657376439988 15.185185185185185  0.016164994425863992 14.64285714285714  L 0.016164994425863992 13.84920634920635  L 0.016164994425863992 11.15079365079365  C 0.005388331475287995 9.23280423280423  0.10237829803047194 7.314814814814813  0.30713489409141587 5.396825396825397  C 0.3825715347454478 4.6693121693121675  0.5172798216276477 4.0112433862433825  0.7112597547380156 3.4226190476190466  C 0.9052396878483835 2.833994708994708  1.0776662950575995 2.427248677248675  1.2285395763656635 2.202380952380953  L 1.4548494983277593 1.865079365079364  C 1.6057227796358233 1.6666666666666663  1.761984392419175 1.491402116402113  1.923634336677815 1.339285714285715  C 2.0852842809364547 1.1871693121693117  2.2523225566703826 1.0582010582010555  2.4247491638795986 0.9523809523809518  C 2.597175771088815 0.8465608465608426  2.7480490523968784 0.7605820105820088  2.8773690078037903 0.6944444444444448  C 3.0066889632107023 0.6283068783068751  3.16025641025641 0.5753968253968261  3.338071348940914 0.5357142857142866  C 3.5158862876254187 0.49603174603174705  3.642512077294687 0.4662698412698424  3.7179487179487176 0.4464285714285726  C 3.79338535860275 0.42658730158730285  3.9173169825343743 0.4067460317460331  4.089743589743589 0.38690476190476053  C 4.262170196952806 0.36706349206349076  4.353771832032702 0.3571428571428559  4.364548494983278 0.3571428571428559  Z " stroke-width="0" stroke-dasharray="0" stroke="rgba(255, 255, 255, 0)" fill="none" transform="matrix(1 0 0 1 931 2540 )" class="stroke" mask="url(#Clip348)" />
  </g>
</svg>