<?xml version="1.0" encoding="utf-8"?>
<svg version="1.1" xmlns:xlink="http://www.w3.org/1999/xlink" width="26px" height="25px" xmlns="http://www.w3.org/2000/svg">
  <defs>
    <pattern id="BGPattern" patternUnits="userSpaceOnUse" alignment="0 0" imageRepeat="None" />
    <mask fill="white" id="Clip347">
      <path d="M 15.79296875 14.54295865633075  C 16.233072916666668 14.020779500430663  16.526475694444446 13.75968992248062  16.673177083333332 13.75968992248062  C 16.81987847222222 13.75968992248062  17.370008680555557 13.996554694229113  18.323567708333332 14.4702842377261  C 19.277126736111114 14.94401378122308  19.782118055555557 15.229328165374678  19.838541666666668 15.326227390180879  C 19.861111111111114 15.380060292850988  19.872395833333332 15.460809646856157  19.872395833333332 15.568475452196385  C 19.872395833333332 15.923772609819121  19.776475694444446 16.33290267011197  19.584635416666668 16.795865633074936  C 19.404079861111114 17.21576227390181  19.00347222222222 17.568367786391043  18.3828125 17.853682170542633  C 17.76215277777778 18.138996554694227  17.186631944444446 18.281653746770026  16.65625 18.281653746770026  C 16.013020833333336 18.281653746770026  14.940972222222223 17.947889750215328  13.440104166666668 17.280361757105943  C 12.33420138888889 16.795865633074936  11.375 16.16063738156761  10.5625 15.374677002583981  C 9.75 14.588716623600344  8.914930555555557 13.59280792420327  8.057291666666666 12.386950904392766  C 7.244791666666666 11.234926787252366  6.844184027777779 10.190568475452197  6.85546875 9.253875968992247  L 6.85546875 9.124677002583978  C 6.889322916666668 8.14491817398794  7.30685763888889 7.29435831180017  8.108072916666666 6.57299741602067  C 8.37890625 6.336132644272177  8.672309027777779 6.217700258397932  8.98828125 6.217700258397932  C 9.055989583333334 6.217700258397932  9.157552083333334 6.22577519379845  9.29296875 6.241925064599482  C 9.428385416666666 6.258074935400518  9.535590277777779 6.266149870801033  9.614583333333334 6.266149870801033  C 9.828993055555557 6.266149870801033  9.978515625 6.301141257536605  10.063151041666666 6.371124031007752  C 10.147786458333334 6.441106804478896  10.235243055555557 6.5891472868217065  10.325520833333334 6.815245478036175  C 10.41579861111111 7.030577088716622  10.601996527777779 7.504306632213606  10.884114583333334 8.236434108527133  C 11.16623263888889 8.968561584840653  11.307291666666666 9.372308354866494  11.307291666666666 9.44767441860465  C 11.307291666666666 9.673772609819121  11.112630208333334 9.983311800172265  10.723307291666666 10.376291989664082  C 10.333984375 10.769272179155898  10.139322916666666 11.01959517657192  10.139322916666666 11.127260981912146  C 10.139322916666666 11.202627045650301  10.167534722222223 11.283376399655468  10.223958333333334 11.369509043927648  C 10.60763888888889 12.155469422911283  11.183159722222223 12.892980189491816  11.950520833333334 13.58204134366925  C 12.582465277777779 14.152670111972437  13.434461805555557 14.696382428940568  14.506510416666668 15.213178294573643  C 14.641927083333332 15.288544358311798  14.766059027777777 15.326227390180879  14.87890625 15.326227390180879  C 15.048177083333336 15.326227390180879  15.352864583333336 15.065137812230834  15.79296875 14.54295865633075  Z M 7.397135416666666 20.63953488372093  C 9.180121527777779 21.75925925925926  11.12673611111111 22.319121447028422  13.236979166666668 22.319121447028422  C 14.67013888888889 22.319121447028422  16.044053819444446 22.049956933677862  17.358723958333332 21.511627906976745  C 18.67339409722222 20.973298880275625  19.8046875 20.251937984496124  20.752604166666668 19.347545219638242  C 21.700520833333332 18.44315245478036  22.45659722222222 17.363802756244613  23.020833333333332 16.109496124031008  C 23.585069444444446 14.855189491817397  23.8671875 13.54435831180017  23.8671875 12.177002583979329  C 23.8671875 10.809646856158484  23.585069444444446 9.498815676141255  23.020833333333332 8.244509043927648  C 22.45659722222222 6.990202411714039  21.700520833333332 5.9108527131782935  20.752604166666668 5.006459948320413  C 19.8046875 4.102067183462532  18.67339409722222 3.3807062876830303  17.358723958333332 2.8423772609819125  C 16.044053819444446 2.3040482342807893  14.67013888888889 2.0348837209302335  13.236979166666668 2.0348837209302335  C 11.803819444444445 2.0348837209302335  10.42990451388889 2.3040482342807893  9.115234375 2.8423772609819125  C 7.800564236111112 3.3807062876830303  6.669270833333334 4.102067183462532  5.721354166666667 5.006459948320413  C 4.7734375 5.9108527131782935  4.017361111111112 6.990202411714039  3.453125 8.244509043927648  C 2.8888888888888893 9.498815676141255  2.6067708333333335 10.809646856158484  2.6067708333333335 12.177002583979329  C 2.6067708333333335 14.362618432385874  3.283854166666667 16.343669250645995  4.638020833333333 18.120155038759687  L 3.30078125 21.88307493540052  L 7.397135416666666 20.63953488372093  Z M 8.285807291666666 0.9689922480620144  C 9.860026041666666 0.32299741602067056  11.510416666666666 0  13.236979166666668 0  C 14.963541666666668 0  16.613932291666668 0.32299741602067056  18.188151041666668 0.9689922480620144  C 19.762369791666668 1.6149870801033583  21.11935763888889 2.48169681309216  22.259114583333332 3.5691214470284227  C 23.39887152777778 4.656546080964685  24.307291666666668 5.95122739018088  24.984375 7.4531653746770035  C 25.661458333333332 8.955103359173124  26 10.5297157622739  26 12.177002583979329  C 26 13.824289405684754  25.661458333333332 15.398901808785531  24.984375 16.90083979328165  C 24.307291666666668 18.40277777777778  23.39887152777778 19.69745908699397  22.259114583333332 20.78488372093023  C 21.11935763888889 21.872308354866494  19.762369791666668 22.739018087855296  18.188151041666668 23.385012919896642  C 16.613932291666668 24.031007751937985  14.963541666666668 24.354005167958658  13.236979166666668 24.354005167958658  C 11.036458333333334 24.354005167958658  8.976996527777779 23.847975882859604  7.05859375 22.8359173126615  L 0 25  L 2.3020833333333335 18.459302325581394  C 1.0833333333333333 16.54285099052541  0.47395833333333337 14.448751076658054  0.47395833333333337 12.177002583979329  C 0.47395833333333337 10.5297157622739  0.8125 8.955103359173124  1.4895833333333333 7.4531653746770035  C 2.1666666666666665 5.95122739018088  3.075086805555556 4.656546080964685  4.21484375 3.5691214470284227  C 5.354600694444445 2.48169681309216  6.711588541666666 1.6149870801033583  8.285807291666666 0.9689922480620144  Z " fill-rule="evenodd" />
    </mask>
  </defs>
  <g transform="matrix(1 0 0 1 -981 -2540 )">
    <path d="M 15.79296875 14.54295865633075  C 16.233072916666668 14.020779500430663  16.526475694444446 13.75968992248062  16.673177083333332 13.75968992248062  C 16.81987847222222 13.75968992248062  17.370008680555557 13.996554694229113  18.323567708333332 14.4702842377261  C 19.277126736111114 14.94401378122308  19.782118055555557 15.229328165374678  19.838541666666668 15.326227390180879  C 19.861111111111114 15.380060292850988  19.872395833333332 15.460809646856157  19.872395833333332 15.568475452196385  C 19.872395833333332 15.923772609819121  19.776475694444446 16.33290267011197  19.584635416666668 16.795865633074936  C 19.404079861111114 17.21576227390181  19.00347222222222 17.568367786391043  18.3828125 17.853682170542633  C 17.76215277777778 18.138996554694227  17.186631944444446 18.281653746770026  16.65625 18.281653746770026  C 16.013020833333336 18.281653746770026  14.940972222222223 17.947889750215328  13.440104166666668 17.280361757105943  C 12.33420138888889 16.795865633074936  11.375 16.16063738156761  10.5625 15.374677002583981  C 9.75 14.588716623600344  8.914930555555557 13.59280792420327  8.057291666666666 12.386950904392766  C 7.244791666666666 11.234926787252366  6.844184027777779 10.190568475452197  6.85546875 9.253875968992247  L 6.85546875 9.124677002583978  C 6.889322916666668 8.14491817398794  7.30685763888889 7.29435831180017  8.108072916666666 6.57299741602067  C 8.37890625 6.336132644272177  8.672309027777779 6.217700258397932  8.98828125 6.217700258397932  C 9.055989583333334 6.217700258397932  9.157552083333334 6.22577519379845  9.29296875 6.241925064599482  C 9.428385416666666 6.258074935400518  9.535590277777779 6.266149870801033  9.614583333333334 6.266149870801033  C 9.828993055555557 6.266149870801033  9.978515625 6.301141257536605  10.063151041666666 6.371124031007752  C 10.147786458333334 6.441106804478896  10.235243055555557 6.5891472868217065  10.325520833333334 6.815245478036175  C 10.41579861111111 7.030577088716622  10.601996527777779 7.504306632213606  10.884114583333334 8.236434108527133  C 11.16623263888889 8.968561584840653  11.307291666666666 9.372308354866494  11.307291666666666 9.44767441860465  C 11.307291666666666 9.673772609819121  11.112630208333334 9.983311800172265  10.723307291666666 10.376291989664082  C 10.333984375 10.769272179155898  10.139322916666666 11.01959517657192  10.139322916666666 11.127260981912146  C 10.139322916666666 11.202627045650301  10.167534722222223 11.283376399655468  10.223958333333334 11.369509043927648  C 10.60763888888889 12.155469422911283  11.183159722222223 12.892980189491816  11.950520833333334 13.58204134366925  C 12.582465277777779 14.152670111972437  13.434461805555557 14.696382428940568  14.506510416666668 15.213178294573643  C 14.641927083333332 15.288544358311798  14.766059027777777 15.326227390180879  14.87890625 15.326227390180879  C 15.048177083333336 15.326227390180879  15.352864583333336 15.065137812230834  15.79296875 14.54295865633075  Z M 7.397135416666666 20.63953488372093  C 9.180121527777779 21.75925925925926  11.12673611111111 22.319121447028422  13.236979166666668 22.319121447028422  C 14.67013888888889 22.319121447028422  16.044053819444446 22.049956933677862  17.358723958333332 21.511627906976745  C 18.67339409722222 20.973298880275625  19.8046875 20.251937984496124  20.752604166666668 19.347545219638242  C 21.700520833333332 18.44315245478036  22.45659722222222 17.363802756244613  23.020833333333332 16.109496124031008  C 23.585069444444446 14.855189491817397  23.8671875 13.54435831180017  23.8671875 12.177002583979329  C 23.8671875 10.809646856158484  23.585069444444446 9.498815676141255  23.020833333333332 8.244509043927648  C 22.45659722222222 6.990202411714039  21.700520833333332 5.9108527131782935  20.752604166666668 5.006459948320413  C 19.8046875 4.102067183462532  18.67339409722222 3.3807062876830303  17.358723958333332 2.8423772609819125  C 16.044053819444446 2.3040482342807893  14.67013888888889 2.0348837209302335  13.236979166666668 2.0348837209302335  C 11.803819444444445 2.0348837209302335  10.42990451388889 2.3040482342807893  9.115234375 2.8423772609819125  C 7.800564236111112 3.3807062876830303  6.669270833333334 4.102067183462532  5.721354166666667 5.006459948320413  C 4.7734375 5.9108527131782935  4.017361111111112 6.990202411714039  3.453125 8.244509043927648  C 2.8888888888888893 9.498815676141255  2.6067708333333335 10.809646856158484  2.6067708333333335 12.177002583979329  C 2.6067708333333335 14.362618432385874  3.283854166666667 16.343669250645995  4.638020833333333 18.120155038759687  L 3.30078125 21.88307493540052  L 7.397135416666666 20.63953488372093  Z M 8.285807291666666 0.9689922480620144  C 9.860026041666666 0.32299741602067056  11.510416666666666 0  13.236979166666668 0  C 14.963541666666668 0  16.613932291666668 0.32299741602067056  18.188151041666668 0.9689922480620144  C 19.762369791666668 1.6149870801033583  21.11935763888889 2.48169681309216  22.259114583333332 3.5691214470284227  C 23.39887152777778 4.656546080964685  24.307291666666668 5.95122739018088  24.984375 7.4531653746770035  C 25.661458333333332 8.955103359173124  26 10.5297157622739  26 12.177002583979329  C 26 13.824289405684754  25.661458333333332 15.398901808785531  24.984375 16.90083979328165  C 24.307291666666668 18.40277777777778  23.39887152777778 19.69745908699397  22.259114583333332 20.78488372093023  C 21.11935763888889 21.872308354866494  19.762369791666668 22.739018087855296  18.188151041666668 23.385012919896642  C 16.613932291666668 24.031007751937985  14.963541666666668 24.354005167958658  13.236979166666668 24.354005167958658  C 11.036458333333334 24.354005167958658  8.976996527777779 23.847975882859604  7.05859375 22.8359173126615  L 0 25  L 2.3020833333333335 18.459302325581394  C 1.0833333333333333 16.54285099052541  0.47395833333333337 14.448751076658054  0.47395833333333337 12.177002583979329  C 0.47395833333333337 10.5297157622739  0.8125 8.955103359173124  1.4895833333333333 7.4531653746770035  C 2.1666666666666665 5.95122739018088  3.075086805555556 4.656546080964685  4.21484375 3.5691214470284227  C 5.354600694444445 2.48169681309216  6.711588541666666 1.6149870801033583  8.285807291666666 0.9689922480620144  Z " fill-rule="nonzero" fill="rgba(127, 127, 127, 1)" stroke="none" transform="matrix(1 0 0 1 981 2540 )" class="fill" />
    <path d="M 15.79296875 14.54295865633075  C 16.233072916666668 14.020779500430663  16.526475694444446 13.75968992248062  16.673177083333332 13.75968992248062  C 16.81987847222222 13.75968992248062  17.370008680555557 13.996554694229113  18.323567708333332 14.4702842377261  C 19.277126736111114 14.94401378122308  19.782118055555557 15.229328165374678  19.838541666666668 15.326227390180879  C 19.861111111111114 15.380060292850988  19.872395833333332 15.460809646856157  19.872395833333332 15.568475452196385  C 19.872395833333332 15.923772609819121  19.776475694444446 16.33290267011197  19.584635416666668 16.795865633074936  C 19.404079861111114 17.21576227390181  19.00347222222222 17.568367786391043  18.3828125 17.853682170542633  C 17.76215277777778 18.138996554694227  17.186631944444446 18.281653746770026  16.65625 18.281653746770026  C 16.013020833333336 18.281653746770026  14.940972222222223 17.947889750215328  13.440104166666668 17.280361757105943  C 12.33420138888889 16.795865633074936  11.375 16.16063738156761  10.5625 15.374677002583981  C 9.75 14.588716623600344  8.914930555555557 13.59280792420327  8.057291666666666 12.386950904392766  C 7.244791666666666 11.234926787252366  6.844184027777779 10.190568475452197  6.85546875 9.253875968992247  L 6.85546875 9.124677002583978  C 6.889322916666668 8.14491817398794  7.30685763888889 7.29435831180017  8.108072916666666 6.57299741602067  C 8.37890625 6.336132644272177  8.672309027777779 6.217700258397932  8.98828125 6.217700258397932  C 9.055989583333334 6.217700258397932  9.157552083333334 6.22577519379845  9.29296875 6.241925064599482  C 9.428385416666666 6.258074935400518  9.535590277777779 6.266149870801033  9.614583333333334 6.266149870801033  C 9.828993055555557 6.266149870801033  9.978515625 6.301141257536605  10.063151041666666 6.371124031007752  C 10.147786458333334 6.441106804478896  10.235243055555557 6.5891472868217065  10.325520833333334 6.815245478036175  C 10.41579861111111 7.030577088716622  10.601996527777779 7.504306632213606  10.884114583333334 8.236434108527133  C 11.16623263888889 8.968561584840653  11.307291666666666 9.372308354866494  11.307291666666666 9.44767441860465  C 11.307291666666666 9.673772609819121  11.112630208333334 9.983311800172265  10.723307291666666 10.376291989664082  C 10.333984375 10.769272179155898  10.139322916666666 11.01959517657192  10.139322916666666 11.127260981912146  C 10.139322916666666 11.202627045650301  10.167534722222223 11.283376399655468  10.223958333333334 11.369509043927648  C 10.60763888888889 12.155469422911283  11.183159722222223 12.892980189491816  11.950520833333334 13.58204134366925  C 12.582465277777779 14.152670111972437  13.434461805555557 14.696382428940568  14.506510416666668 15.213178294573643  C 14.641927083333332 15.288544358311798  14.766059027777777 15.326227390180879  14.87890625 15.326227390180879  C 15.048177083333336 15.326227390180879  15.352864583333336 15.065137812230834  15.79296875 14.54295865633075  Z " stroke-width="0" stroke-dasharray="0" stroke="rgba(255, 255, 255, 0)" fill="none" transform="matrix(1 0 0 1 981 2540 )" class="stroke" mask="url(#Clip347)" />
    <path d="M 7.397135416666666 20.63953488372093  C 9.180121527777779 21.75925925925926  11.12673611111111 22.319121447028422  13.236979166666668 22.319121447028422  C 14.67013888888889 22.319121447028422  16.044053819444446 22.049956933677862  17.358723958333332 21.511627906976745  C 18.67339409722222 20.973298880275625  19.8046875 20.251937984496124  20.752604166666668 19.347545219638242  C 21.700520833333332 18.44315245478036  22.45659722222222 17.363802756244613  23.020833333333332 16.109496124031008  C 23.585069444444446 14.855189491817397  23.8671875 13.54435831180017  23.8671875 12.177002583979329  C 23.8671875 10.809646856158484  23.585069444444446 9.498815676141255  23.020833333333332 8.244509043927648  C 22.45659722222222 6.990202411714039  21.700520833333332 5.9108527131782935  20.752604166666668 5.006459948320413  C 19.8046875 4.102067183462532  18.67339409722222 3.3807062876830303  17.358723958333332 2.8423772609819125  C 16.044053819444446 2.3040482342807893  14.67013888888889 2.0348837209302335  13.236979166666668 2.0348837209302335  C 11.803819444444445 2.0348837209302335  10.42990451388889 2.3040482342807893  9.115234375 2.8423772609819125  C 7.800564236111112 3.3807062876830303  6.669270833333334 4.102067183462532  5.721354166666667 5.006459948320413  C 4.7734375 5.9108527131782935  4.017361111111112 6.990202411714039  3.453125 8.244509043927648  C 2.8888888888888893 9.498815676141255  2.6067708333333335 10.809646856158484  2.6067708333333335 12.177002583979329  C 2.6067708333333335 14.362618432385874  3.283854166666667 16.343669250645995  4.638020833333333 18.120155038759687  L 3.30078125 21.88307493540052  L 7.397135416666666 20.63953488372093  Z " stroke-width="0" stroke-dasharray="0" stroke="rgba(255, 255, 255, 0)" fill="none" transform="matrix(1 0 0 1 981 2540 )" class="stroke" mask="url(#Clip347)" />
    <path d="M 8.285807291666666 0.9689922480620144  C 9.860026041666666 0.32299741602067056  11.510416666666666 0  13.236979166666668 0  C 14.963541666666668 0  16.613932291666668 0.32299741602067056  18.188151041666668 0.9689922480620144  C 19.762369791666668 1.6149870801033583  21.11935763888889 2.48169681309216  22.259114583333332 3.5691214470284227  C 23.39887152777778 4.656546080964685  24.307291666666668 5.95122739018088  24.984375 7.4531653746770035  C 25.661458333333332 8.955103359173124  26 10.5297157622739  26 12.177002583979329  C 26 13.824289405684754  25.661458333333332 15.398901808785531  24.984375 16.90083979328165  C 24.307291666666668 18.40277777777778  23.39887152777778 19.69745908699397  22.259114583333332 20.78488372093023  C 21.11935763888889 21.872308354866494  19.762369791666668 22.739018087855296  18.188151041666668 23.385012919896642  C 16.613932291666668 24.031007751937985  14.963541666666668 24.354005167958658  13.236979166666668 24.354005167958658  C 11.036458333333334 24.354005167958658  8.976996527777779 23.847975882859604  7.05859375 22.8359173126615  L 0 25  L 2.3020833333333335 18.459302325581394  C 1.0833333333333333 16.54285099052541  0.47395833333333337 14.448751076658054  0.47395833333333337 12.177002583979329  C 0.47395833333333337 10.5297157622739  0.8125 8.955103359173124  1.4895833333333333 7.4531653746770035  C 2.1666666666666665 5.95122739018088  3.075086805555556 4.656546080964685  4.21484375 3.5691214470284227  C 5.354600694444445 2.48169681309216  6.711588541666666 1.6149870801033583  8.285807291666666 0.9689922480620144  Z " stroke-width="0" stroke-dasharray="0" stroke="rgba(255, 255, 255, 0)" fill="none" transform="matrix(1 0 0 1 981 2540 )" class="stroke" mask="url(#Clip347)" />
  </g>
</svg>