<?xml version="1.0" encoding="utf-8"?>
<svg version="1.1" xmlns:xlink="http://www.w3.org/1999/xlink" width="26px" height="26px" xmlns="http://www.w3.org/2000/svg">
  <defs>
    <pattern id="BGPattern" patternUnits="userSpaceOnUse" alignment="0 0" imageRepeat="None" />
    <mask fill="white" id="Clip350">
      <path d="M 16.075892857142858 19.514508928571427  C 16.694940476190474 19.86272321428571  17.086681547619047 19.678943452380953  17.251116071428573 18.963169642857142  L 19.383928571428573 8.908482142857144  C 19.470982142857142 8.482886904761902  19.420200892857142 8.178199404761902  19.231584821428573 7.994419642857144  C 19.04296875 7.8106398809523805  18.79389880952381 7.776785714285715  18.484375 7.892857142857144  L 5.948660714285714 12.724330357142856  C 5.668154761904762 12.830729166666664  5.477120535714286 12.951636904761905  5.375558035714286 13.087053571428571  C 5.273995535714286 13.222470238095237  5.261904761904762 13.350632440476192  5.339285714285714 13.471540178571429  C 5.416666666666667 13.592447916666664  5.571428571428571 13.686755952380953  5.803571428571429 13.754464285714288  L 9.010044642857142 14.755580357142856  L 16.453125 10.069196428571429  C 16.65625 9.933779761904761  16.81101190476191 9.904761904761902  16.917410714285715 9.982142857142856  C 16.985119047619047 10.030505952380953  16.96577380952381 10.103050595238093  16.859375 10.199776785714285  L 10.838169642857142 15.640625  L 10.606026785714286 18.94866071428571  C 10.828497023809524 18.94866071428571  11.046130952380954 18.842261904761905  11.258928571428571 18.62946428571429  L 12.825892857142858 17.12053571428571  L 16.075892857142858 19.514508928571427  Z M 24.969866071428573 7.950892857142856  C 25.656622023809526 9.556547619047617  26 11.239583333333332  26 13  C 26 14.760416666666664  25.656622023809526 16.44345238095238  24.969866071428573 18.049107142857142  C 24.283110119047624 19.654761904761905  23.359375000000004 21.037946428571427  22.198660714285715 22.19866071428571  C 21.037946428571427 23.359375  19.65476190476191 24.28311011904762  18.049107142857142 24.969866071428573  C 16.443452380952383 25.656622023809526  14.760416666666668 26  13 26  C 11.239583333333334 26  9.55654761904762 25.656622023809526  7.950892857142858 24.969866071428573  C 6.345238095238096 24.28311011904762  4.962053571428571 23.359375  3.801339285714286 22.19866071428571  C 2.640625 21.037946428571427  1.716889880952381 19.654761904761905  1.0301339285714286 18.049107142857142  C 0.34337797619047616 16.44345238095238  0 14.760416666666664  0 13  C 0 11.239583333333332  0.34337797619047616 9.556547619047617  1.0301339285714286 7.950892857142856  C 1.716889880952381 6.345238095238093  2.640625 4.962053571428572  3.801339285714286 3.8013392857142847  C 4.962053571428571 2.640625  6.345238095238096 1.7168898809523803  7.950892857142858 1.0301339285714282  C 9.55654761904762 0.34337797619047605  11.239583333333334 0  13 0  C 14.760416666666668 0  16.443452380952383 0.34337797619047605  18.049107142857142 1.0301339285714282  C 19.65476190476191 1.7168898809523803  21.037946428571427 2.640625  22.198660714285715 3.8013392857142847  C 23.359375000000004 4.962053571428572  24.283110119047624 6.345238095238093  24.969866071428573 7.950892857142856  Z " fill-rule="evenodd" />
    </mask>
  </defs>
  <g transform="matrix(1 0 0 1 -888 -2539 )">
    <path d="M 16.075892857142858 19.514508928571427  C 16.694940476190474 19.86272321428571  17.086681547619047 19.678943452380953  17.251116071428573 18.963169642857142  L 19.383928571428573 8.908482142857144  C 19.470982142857142 8.482886904761902  19.420200892857142 8.178199404761902  19.231584821428573 7.994419642857144  C 19.04296875 7.8106398809523805  18.79389880952381 7.776785714285715  18.484375 7.892857142857144  L 5.948660714285714 12.724330357142856  C 5.668154761904762 12.830729166666664  5.477120535714286 12.951636904761905  5.375558035714286 13.087053571428571  C 5.273995535714286 13.222470238095237  5.261904761904762 13.350632440476192  5.339285714285714 13.471540178571429  C 5.416666666666667 13.592447916666664  5.571428571428571 13.686755952380953  5.803571428571429 13.754464285714288  L 9.010044642857142 14.755580357142856  L 16.453125 10.069196428571429  C 16.65625 9.933779761904761  16.81101190476191 9.904761904761902  16.917410714285715 9.982142857142856  C 16.985119047619047 10.030505952380953  16.96577380952381 10.103050595238093  16.859375 10.199776785714285  L 10.838169642857142 15.640625  L 10.606026785714286 18.94866071428571  C 10.828497023809524 18.94866071428571  11.046130952380954 18.842261904761905  11.258928571428571 18.62946428571429  L 12.825892857142858 17.12053571428571  L 16.075892857142858 19.514508928571427  Z M 24.969866071428573 7.950892857142856  C 25.656622023809526 9.556547619047617  26 11.239583333333332  26 13  C 26 14.760416666666664  25.656622023809526 16.44345238095238  24.969866071428573 18.049107142857142  C 24.283110119047624 19.654761904761905  23.359375000000004 21.037946428571427  22.198660714285715 22.19866071428571  C 21.037946428571427 23.359375  19.65476190476191 24.28311011904762  18.049107142857142 24.969866071428573  C 16.443452380952383 25.656622023809526  14.760416666666668 26  13 26  C 11.239583333333334 26  9.55654761904762 25.656622023809526  7.950892857142858 24.969866071428573  C 6.345238095238096 24.28311011904762  4.962053571428571 23.359375  3.801339285714286 22.19866071428571  C 2.640625 21.037946428571427  1.716889880952381 19.654761904761905  1.0301339285714286 18.049107142857142  C 0.34337797619047616 16.44345238095238  0 14.760416666666664  0 13  C 0 11.239583333333332  0.34337797619047616 9.556547619047617  1.0301339285714286 7.950892857142856  C 1.716889880952381 6.345238095238093  2.640625 4.962053571428572  3.801339285714286 3.8013392857142847  C 4.962053571428571 2.640625  6.345238095238096 1.7168898809523803  7.950892857142858 1.0301339285714282  C 9.55654761904762 0.34337797619047605  11.239583333333334 0  13 0  C 14.760416666666668 0  16.443452380952383 0.34337797619047605  18.049107142857142 1.0301339285714282  C 19.65476190476191 1.7168898809523803  21.037946428571427 2.640625  22.198660714285715 3.8013392857142847  C 23.359375000000004 4.962053571428572  24.283110119047624 6.345238095238093  24.969866071428573 7.950892857142856  Z " fill-rule="nonzero" fill="rgba(127, 127, 127, 1)" stroke="none" transform="matrix(1 0 0 1 888 2539 )" class="fill" />
    <path d="M 16.075892857142858 19.514508928571427  C 16.694940476190474 19.86272321428571  17.086681547619047 19.678943452380953  17.251116071428573 18.963169642857142  L 19.383928571428573 8.908482142857144  C 19.470982142857142 8.482886904761902  19.420200892857142 8.178199404761902  19.231584821428573 7.994419642857144  C 19.04296875 7.8106398809523805  18.79389880952381 7.776785714285715  18.484375 7.892857142857144  L 5.948660714285714 12.724330357142856  C 5.668154761904762 12.830729166666664  5.477120535714286 12.951636904761905  5.375558035714286 13.087053571428571  C 5.273995535714286 13.222470238095237  5.261904761904762 13.350632440476192  5.339285714285714 13.471540178571429  C 5.416666666666667 13.592447916666664  5.571428571428571 13.686755952380953  5.803571428571429 13.754464285714288  L 9.010044642857142 14.755580357142856  L 16.453125 10.069196428571429  C 16.65625 9.933779761904761  16.81101190476191 9.904761904761902  16.917410714285715 9.982142857142856  C 16.985119047619047 10.030505952380953  16.96577380952381 10.103050595238093  16.859375 10.199776785714285  L 10.838169642857142 15.640625  L 10.606026785714286 18.94866071428571  C 10.828497023809524 18.94866071428571  11.046130952380954 18.842261904761905  11.258928571428571 18.62946428571429  L 12.825892857142858 17.12053571428571  L 16.075892857142858 19.514508928571427  Z " stroke-width="0" stroke-dasharray="0" stroke="rgba(255, 255, 255, 0)" fill="none" transform="matrix(1 0 0 1 888 2539 )" class="stroke" mask="url(#Clip350)" />
    <path d="M 24.969866071428573 7.950892857142856  C 25.656622023809526 9.556547619047617  26 11.239583333333332  26 13  C 26 14.760416666666664  25.656622023809526 16.44345238095238  24.969866071428573 18.049107142857142  C 24.283110119047624 19.654761904761905  23.359375000000004 21.037946428571427  22.198660714285715 22.19866071428571  C 21.037946428571427 23.359375  19.65476190476191 24.28311011904762  18.049107142857142 24.969866071428573  C 16.443452380952383 25.656622023809526  14.760416666666668 26  13 26  C 11.239583333333334 26  9.55654761904762 25.656622023809526  7.950892857142858 24.969866071428573  C 6.345238095238096 24.28311011904762  4.962053571428571 23.359375  3.801339285714286 22.19866071428571  C 2.640625 21.037946428571427  1.716889880952381 19.654761904761905  1.0301339285714286 18.049107142857142  C 0.34337797619047616 16.44345238095238  0 14.760416666666664  0 13  C 0 11.239583333333332  0.34337797619047616 9.556547619047617  1.0301339285714286 7.950892857142856  C 1.716889880952381 6.345238095238093  2.640625 4.962053571428572  3.801339285714286 3.8013392857142847  C 4.962053571428571 2.640625  6.345238095238096 1.7168898809523803  7.950892857142858 1.0301339285714282  C 9.55654761904762 0.34337797619047605  11.239583333333334 0  13 0  C 14.760416666666668 0  16.443452380952383 0.34337797619047605  18.049107142857142 1.0301339285714282  C 19.65476190476191 1.7168898809523803  21.037946428571427 2.640625  22.198660714285715 3.8013392857142847  C 23.359375000000004 4.962053571428572  24.283110119047624 6.345238095238093  24.969866071428573 7.950892857142856  Z " stroke-width="0" stroke-dasharray="0" stroke="rgba(255, 255, 255, 0)" fill="none" transform="matrix(1 0 0 1 888 2539 )" class="stroke" mask="url(#Clip350)" />
  </g>
</svg>