<?xml version="1.0" encoding="utf-8"?>
<svg version="1.1" xmlns:xlink="http://www.w3.org/1999/xlink" width="21px" height="24px" xmlns="http://www.w3.org/2000/svg">
  <defs>
    <pattern id="BGPattern" patternUnits="userSpaceOnUse" alignment="0 0" imageRepeat="None" />
    <mask fill="white" id="Clip353">
      <path d="M 1.6153846153846154 18.428571428571427  L 1.6153846153846154 22.285714285714285  L 5.25 22.285714285714285  L 5.25 18.428571428571427  L 1.6153846153846154 18.428571428571427  Z M 6.0576923076923075 18.428571428571427  L 6.0576923076923075 22.285714285714285  L 10.096153846153847 22.285714285714285  L 10.096153846153847 18.428571428571427  L 6.0576923076923075 18.428571428571427  Z M 1.6153846153846154 13.285714285714286  L 1.6153846153846154 17.571428571428573  L 5.25 17.571428571428573  L 5.25 13.285714285714286  L 1.6153846153846154 13.285714285714286  Z M 6.0576923076923075 13.285714285714286  L 6.0576923076923075 17.571428571428573  L 10.096153846153847 17.571428571428573  L 10.096153846153847 13.285714285714286  L 6.0576923076923075 13.285714285714286  Z M 1.6153846153846154 8.57142857142857  L 1.6153846153846154 12.428571428571427  L 5.25 12.428571428571427  L 5.25 8.57142857142857  L 1.6153846153846154 8.57142857142857  Z M 10.903846153846155 18.428571428571427  L 10.903846153846155 22.285714285714285  L 14.942307692307693 22.285714285714285  L 14.942307692307693 18.428571428571427  L 10.903846153846155 18.428571428571427  Z M 6.0576923076923075 8.57142857142857  L 6.0576923076923075 12.428571428571427  L 10.096153846153847 12.428571428571427  L 10.096153846153847 8.57142857142857  L 6.0576923076923075 8.57142857142857  Z M 15.75 18.428571428571427  L 15.75 22.285714285714285  L 19.384615384615387 22.285714285714285  L 19.384615384615387 18.428571428571427  L 15.75 18.428571428571427  Z M 10.903846153846155 13.285714285714286  L 10.903846153846155 17.571428571428573  L 14.942307692307693 17.571428571428573  L 14.942307692307693 13.285714285714286  L 10.903846153846155 13.285714285714286  Z M 6.341646634615384 6.3013392857142865  C 6.421574519230769 6.216517857142856  6.461538461538462 6.116071428571426  6.461538461538462 6  L 6.461538461538462 2.1428571428571432  C 6.461538461538462 2.0267857142857144  6.421574519230769 1.9263392857142847  6.341646634615384 1.8415178571428568  C 6.261718750000001 1.7566964285714262  6.167067307692308 1.7142857142857135  6.0576923076923075 1.7142857142857135  L 5.25 1.7142857142857135  C 5.140625 1.7142857142857135  5.045973557692308 1.7566964285714262  4.966045673076923 1.8415178571428568  C 4.886117788461537 1.9263392857142847  4.846153846153847 2.0267857142857144  4.846153846153847 2.1428571428571432  L 4.846153846153847 6  C 4.846153846153847 6.116071428571426  4.886117788461537 6.216517857142856  4.966045673076923 6.3013392857142865  C 5.045973557692308 6.386160714285714  5.140625 6.42857142857143  5.25 6.42857142857143  L 6.0576923076923075 6.42857142857143  C 6.167067307692308 6.42857142857143  6.261718750000001 6.386160714285714  6.341646634615384 6.3013392857142865  Z M 15.75 13.285714285714286  L 15.75 17.571428571428573  L 19.384615384615387 17.571428571428573  L 19.384615384615387 13.285714285714286  L 15.75 13.285714285714286  Z M 10.903846153846155 8.57142857142857  L 10.903846153846155 12.428571428571427  L 14.942307692307693 12.428571428571427  L 14.942307692307693 8.57142857142857  L 10.903846153846155 8.57142857142857  Z M 15.75 8.57142857142857  L 15.75 12.428571428571427  L 19.384615384615387 12.428571428571427  L 19.384615384615387 8.57142857142857  L 15.75 8.57142857142857  Z M 16.033954326923077 6.3013392857142865  C 16.113882211538463 6.216517857142856  16.153846153846153 6.116071428571426  16.153846153846153 6  L 16.153846153846153 2.1428571428571432  C 16.153846153846153 2.0267857142857144  16.113882211538463 1.9263392857142847  16.033954326923077 1.8415178571428568  C 15.954026442307693 1.7566964285714262  15.859375 1.7142857142857135  15.75 1.7142857142857135  L 14.942307692307693 1.7142857142857135  C 14.832932692307695 1.7142857142857135  14.738281250000002 1.7566964285714262  14.658353365384615 1.8415178571428568  C 14.578425480769232 1.9263392857142847  14.538461538461538 2.0267857142857144  14.538461538461538 2.1428571428571432  L 14.538461538461538 6  C 14.538461538461538 6.116071428571426  14.578425480769232 6.216517857142856  14.658353365384615 6.3013392857142865  C 14.738281250000002 6.386160714285714  14.832932692307695 6.42857142857143  14.942307692307693 6.42857142857143  L 15.75 6.42857142857143  C 15.859375 6.42857142857143  15.954026442307693 6.386160714285714  16.033954326923077 6.3013392857142865  Z M 20.520432692307693 3.9375  C 20.840144230769234 4.276785714285714  21 4.678571428571428  21 5.142857142857143  L 21 22.285714285714285  C 21 22.75  20.840144230769234 23.151785714285715  20.520432692307693 23.49107142857143  C 20.200721153846157 23.830357142857142  19.822115384615387 24  19.384615384615387 24  L 1.6153846153846154 24  C 1.1778846153846156 24  0.7992788461538463 23.830357142857142  0.47956730769230765 23.49107142857143  C 0.15985576923076922 23.151785714285715  0 22.75  0 22.285714285714285  L 0 5.142857142857143  C 0 4.678571428571428  0.15985576923076922 4.276785714285714  0.47956730769230765 3.9375  C 0.7992788461538463 3.598214285714283  1.1778846153846156 3.4285714285714297  1.6153846153846154 3.4285714285714297  L 3.230769230769231 3.4285714285714297  L 3.230769230769231 2.1428571428571432  C 3.230769230769231 1.5535714285714297  3.428485576923077 1.0491071428571415  3.823918269230769 0.6294642857142865  C 4.219350961538463 0.20982142857142883  4.694711538461538 0  5.25 0  L 6.0576923076923075 0  C 6.612980769230769 0  7.088341346153848 0.20982142857142883  7.483774038461538 0.6294642857142865  C 7.879206730769232 1.0491071428571415  8.076923076923077 1.5535714285714297  8.076923076923077 2.1428571428571432  L 8.076923076923077 3.4285714285714297  L 12.923076923076923 3.4285714285714297  L 12.923076923076923 2.1428571428571432  C 12.923076923076923 1.5535714285714297  13.12079326923077 1.0491071428571415  13.516225961538462 0.6294642857142865  C 13.911658653846157 0.20982142857142883  14.387019230769232 0  14.942307692307693 0  L 15.75 0  C 16.305288461538463 0  16.78064903846154 0.20982142857142883  17.17608173076923 0.6294642857142865  C 17.571514423076927 1.0491071428571415  17.76923076923077 1.5535714285714297  17.76923076923077 2.1428571428571432  L 17.76923076923077 3.4285714285714297  L 19.384615384615387 3.4285714285714297  C 19.822115384615387 3.4285714285714297  20.200721153846157 3.598214285714283  20.520432692307693 3.9375  Z " fill-rule="evenodd" />
    </mask>
  </defs>
  <g transform="matrix(1 0 0 1 -2174 -2190 )">
    <path d="M 1.6153846153846154 18.428571428571427  L 1.6153846153846154 22.285714285714285  L 5.25 22.285714285714285  L 5.25 18.428571428571427  L 1.6153846153846154 18.428571428571427  Z M 6.0576923076923075 18.428571428571427  L 6.0576923076923075 22.285714285714285  L 10.096153846153847 22.285714285714285  L 10.096153846153847 18.428571428571427  L 6.0576923076923075 18.428571428571427  Z M 1.6153846153846154 13.285714285714286  L 1.6153846153846154 17.571428571428573  L 5.25 17.571428571428573  L 5.25 13.285714285714286  L 1.6153846153846154 13.285714285714286  Z M 6.0576923076923075 13.285714285714286  L 6.0576923076923075 17.571428571428573  L 10.096153846153847 17.571428571428573  L 10.096153846153847 13.285714285714286  L 6.0576923076923075 13.285714285714286  Z M 1.6153846153846154 8.57142857142857  L 1.6153846153846154 12.428571428571427  L 5.25 12.428571428571427  L 5.25 8.57142857142857  L 1.6153846153846154 8.57142857142857  Z M 10.903846153846155 18.428571428571427  L 10.903846153846155 22.285714285714285  L 14.942307692307693 22.285714285714285  L 14.942307692307693 18.428571428571427  L 10.903846153846155 18.428571428571427  Z M 6.0576923076923075 8.57142857142857  L 6.0576923076923075 12.428571428571427  L 10.096153846153847 12.428571428571427  L 10.096153846153847 8.57142857142857  L 6.0576923076923075 8.57142857142857  Z M 15.75 18.428571428571427  L 15.75 22.285714285714285  L 19.384615384615387 22.285714285714285  L 19.384615384615387 18.428571428571427  L 15.75 18.428571428571427  Z M 10.903846153846155 13.285714285714286  L 10.903846153846155 17.571428571428573  L 14.942307692307693 17.571428571428573  L 14.942307692307693 13.285714285714286  L 10.903846153846155 13.285714285714286  Z M 6.341646634615384 6.3013392857142865  C 6.421574519230769 6.216517857142856  6.461538461538462 6.116071428571426  6.461538461538462 6  L 6.461538461538462 2.1428571428571432  C 6.461538461538462 2.0267857142857144  6.421574519230769 1.9263392857142847  6.341646634615384 1.8415178571428568  C 6.261718750000001 1.7566964285714262  6.167067307692308 1.7142857142857135  6.0576923076923075 1.7142857142857135  L 5.25 1.7142857142857135  C 5.140625 1.7142857142857135  5.045973557692308 1.7566964285714262  4.966045673076923 1.8415178571428568  C 4.886117788461537 1.9263392857142847  4.846153846153847 2.0267857142857144  4.846153846153847 2.1428571428571432  L 4.846153846153847 6  C 4.846153846153847 6.116071428571426  4.886117788461537 6.216517857142856  4.966045673076923 6.3013392857142865  C 5.045973557692308 6.386160714285714  5.140625 6.42857142857143  5.25 6.42857142857143  L 6.0576923076923075 6.42857142857143  C 6.167067307692308 6.42857142857143  6.261718750000001 6.386160714285714  6.341646634615384 6.3013392857142865  Z M 15.75 13.285714285714286  L 15.75 17.571428571428573  L 19.384615384615387 17.571428571428573  L 19.384615384615387 13.285714285714286  L 15.75 13.285714285714286  Z M 10.903846153846155 8.57142857142857  L 10.903846153846155 12.428571428571427  L 14.942307692307693 12.428571428571427  L 14.942307692307693 8.57142857142857  L 10.903846153846155 8.57142857142857  Z M 15.75 8.57142857142857  L 15.75 12.428571428571427  L 19.384615384615387 12.428571428571427  L 19.384615384615387 8.57142857142857  L 15.75 8.57142857142857  Z M 16.033954326923077 6.3013392857142865  C 16.113882211538463 6.216517857142856  16.153846153846153 6.116071428571426  16.153846153846153 6  L 16.153846153846153 2.1428571428571432  C 16.153846153846153 2.0267857142857144  16.113882211538463 1.9263392857142847  16.033954326923077 1.8415178571428568  C 15.954026442307693 1.7566964285714262  15.859375 1.7142857142857135  15.75 1.7142857142857135  L 14.942307692307693 1.7142857142857135  C 14.832932692307695 1.7142857142857135  14.738281250000002 1.7566964285714262  14.658353365384615 1.8415178571428568  C 14.578425480769232 1.9263392857142847  14.538461538461538 2.0267857142857144  14.538461538461538 2.1428571428571432  L 14.538461538461538 6  C 14.538461538461538 6.116071428571426  14.578425480769232 6.216517857142856  14.658353365384615 6.3013392857142865  C 14.738281250000002 6.386160714285714  14.832932692307695 6.42857142857143  14.942307692307693 6.42857142857143  L 15.75 6.42857142857143  C 15.859375 6.42857142857143  15.954026442307693 6.386160714285714  16.033954326923077 6.3013392857142865  Z M 20.520432692307693 3.9375  C 20.840144230769234 4.276785714285714  21 4.678571428571428  21 5.142857142857143  L 21 22.285714285714285  C 21 22.75  20.840144230769234 23.151785714285715  20.520432692307693 23.49107142857143  C 20.200721153846157 23.830357142857142  19.822115384615387 24  19.384615384615387 24  L 1.6153846153846154 24  C 1.1778846153846156 24  0.7992788461538463 23.830357142857142  0.47956730769230765 23.49107142857143  C 0.15985576923076922 23.151785714285715  0 22.75  0 22.285714285714285  L 0 5.142857142857143  C 0 4.678571428571428  0.15985576923076922 4.276785714285714  0.47956730769230765 3.9375  C 0.7992788461538463 3.598214285714283  1.1778846153846156 3.4285714285714297  1.6153846153846154 3.4285714285714297  L 3.230769230769231 3.4285714285714297  L 3.230769230769231 2.1428571428571432  C 3.230769230769231 1.5535714285714297  3.428485576923077 1.0491071428571415  3.823918269230769 0.6294642857142865  C 4.219350961538463 0.20982142857142883  4.694711538461538 0  5.25 0  L 6.0576923076923075 0  C 6.612980769230769 0  7.088341346153848 0.20982142857142883  7.483774038461538 0.6294642857142865  C 7.879206730769232 1.0491071428571415  8.076923076923077 1.5535714285714297  8.076923076923077 2.1428571428571432  L 8.076923076923077 3.4285714285714297  L 12.923076923076923 3.4285714285714297  L 12.923076923076923 2.1428571428571432  C 12.923076923076923 1.5535714285714297  13.12079326923077 1.0491071428571415  13.516225961538462 0.6294642857142865  C 13.911658653846157 0.20982142857142883  14.387019230769232 0  14.942307692307693 0  L 15.75 0  C 16.305288461538463 0  16.78064903846154 0.20982142857142883  17.17608173076923 0.6294642857142865  C 17.571514423076927 1.0491071428571415  17.76923076923077 1.5535714285714297  17.76923076923077 2.1428571428571432  L 17.76923076923077 3.4285714285714297  L 19.384615384615387 3.4285714285714297  C 19.822115384615387 3.4285714285714297  20.200721153846157 3.598214285714283  20.520432692307693 3.9375  Z " fill-rule="nonzero" fill="rgba(85, 85, 85, 1)" stroke="none" transform="matrix(1 0 0 1 2174 2190 )" class="fill" />
    <path d="M 1.6153846153846154 18.428571428571427  L 1.6153846153846154 22.285714285714285  L 5.25 22.285714285714285  L 5.25 18.428571428571427  L 1.6153846153846154 18.428571428571427  Z " stroke-width="0" stroke-dasharray="0" stroke="rgba(255, 255, 255, 0)" fill="none" transform="matrix(1 0 0 1 2174 2190 )" class="stroke" mask="url(#Clip353)" />
    <path d="M 6.0576923076923075 18.428571428571427  L 6.0576923076923075 22.285714285714285  L 10.096153846153847 22.285714285714285  L 10.096153846153847 18.428571428571427  L 6.0576923076923075 18.428571428571427  Z " stroke-width="0" stroke-dasharray="0" stroke="rgba(255, 255, 255, 0)" fill="none" transform="matrix(1 0 0 1 2174 2190 )" class="stroke" mask="url(#Clip353)" />
    <path d="M 1.6153846153846154 13.285714285714286  L 1.6153846153846154 17.571428571428573  L 5.25 17.571428571428573  L 5.25 13.285714285714286  L 1.6153846153846154 13.285714285714286  Z " stroke-width="0" stroke-dasharray="0" stroke="rgba(255, 255, 255, 0)" fill="none" transform="matrix(1 0 0 1 2174 2190 )" class="stroke" mask="url(#Clip353)" />
    <path d="M 6.0576923076923075 13.285714285714286  L 6.0576923076923075 17.571428571428573  L 10.096153846153847 17.571428571428573  L 10.096153846153847 13.285714285714286  L 6.0576923076923075 13.285714285714286  Z " stroke-width="0" stroke-dasharray="0" stroke="rgba(255, 255, 255, 0)" fill="none" transform="matrix(1 0 0 1 2174 2190 )" class="stroke" mask="url(#Clip353)" />
    <path d="M 1.6153846153846154 8.57142857142857  L 1.6153846153846154 12.428571428571427  L 5.25 12.428571428571427  L 5.25 8.57142857142857  L 1.6153846153846154 8.57142857142857  Z " stroke-width="0" stroke-dasharray="0" stroke="rgba(255, 255, 255, 0)" fill="none" transform="matrix(1 0 0 1 2174 2190 )" class="stroke" mask="url(#Clip353)" />
    <path d="M 10.903846153846155 18.428571428571427  L 10.903846153846155 22.285714285714285  L 14.942307692307693 22.285714285714285  L 14.942307692307693 18.428571428571427  L 10.903846153846155 18.428571428571427  Z " stroke-width="0" stroke-dasharray="0" stroke="rgba(255, 255, 255, 0)" fill="none" transform="matrix(1 0 0 1 2174 2190 )" class="stroke" mask="url(#Clip353)" />
    <path d="M 6.0576923076923075 8.57142857142857  L 6.0576923076923075 12.428571428571427  L 10.096153846153847 12.428571428571427  L 10.096153846153847 8.57142857142857  L 6.0576923076923075 8.57142857142857  Z " stroke-width="0" stroke-dasharray="0" stroke="rgba(255, 255, 255, 0)" fill="none" transform="matrix(1 0 0 1 2174 2190 )" class="stroke" mask="url(#Clip353)" />
    <path d="M 15.75 18.428571428571427  L 15.75 22.285714285714285  L 19.384615384615387 22.285714285714285  L 19.384615384615387 18.428571428571427  L 15.75 18.428571428571427  Z " stroke-width="0" stroke-dasharray="0" stroke="rgba(255, 255, 255, 0)" fill="none" transform="matrix(1 0 0 1 2174 2190 )" class="stroke" mask="url(#Clip353)" />
    <path d="M 10.903846153846155 13.285714285714286  L 10.903846153846155 17.571428571428573  L 14.942307692307693 17.571428571428573  L 14.942307692307693 13.285714285714286  L 10.903846153846155 13.285714285714286  Z " stroke-width="0" stroke-dasharray="0" stroke="rgba(255, 255, 255, 0)" fill="none" transform="matrix(1 0 0 1 2174 2190 )" class="stroke" mask="url(#Clip353)" />
    <path d="M 6.341646634615384 6.3013392857142865  C 6.421574519230769 6.216517857142856  6.461538461538462 6.116071428571426  6.461538461538462 6  L 6.461538461538462 2.1428571428571432  C 6.461538461538462 2.0267857142857144  6.421574519230769 1.9263392857142847  6.341646634615384 1.8415178571428568  C 6.261718750000001 1.7566964285714262  6.167067307692308 1.7142857142857135  6.0576923076923075 1.7142857142857135  L 5.25 1.7142857142857135  C 5.140625 1.7142857142857135  5.045973557692308 1.7566964285714262  4.966045673076923 1.8415178571428568  C 4.886117788461537 1.9263392857142847  4.846153846153847 2.0267857142857144  4.846153846153847 2.1428571428571432  L 4.846153846153847 6  C 4.846153846153847 6.116071428571426  4.886117788461537 6.216517857142856  4.966045673076923 6.3013392857142865  C 5.045973557692308 6.386160714285714  5.140625 6.42857142857143  5.25 6.42857142857143  L 6.0576923076923075 6.42857142857143  C 6.167067307692308 6.42857142857143  6.261718750000001 6.386160714285714  6.341646634615384 6.3013392857142865  Z " stroke-width="0" stroke-dasharray="0" stroke="rgba(255, 255, 255, 0)" fill="none" transform="matrix(1 0 0 1 2174 2190 )" class="stroke" mask="url(#Clip353)" />
    <path d="M 15.75 13.285714285714286  L 15.75 17.571428571428573  L 19.384615384615387 17.571428571428573  L 19.384615384615387 13.285714285714286  L 15.75 13.285714285714286  Z " stroke-width="0" stroke-dasharray="0" stroke="rgba(255, 255, 255, 0)" fill="none" transform="matrix(1 0 0 1 2174 2190 )" class="stroke" mask="url(#Clip353)" />
    <path d="M 10.903846153846155 8.57142857142857  L 10.903846153846155 12.428571428571427  L 14.942307692307693 12.428571428571427  L 14.942307692307693 8.57142857142857  L 10.903846153846155 8.57142857142857  Z " stroke-width="0" stroke-dasharray="0" stroke="rgba(255, 255, 255, 0)" fill="none" transform="matrix(1 0 0 1 2174 2190 )" class="stroke" mask="url(#Clip353)" />
    <path d="M 15.75 8.57142857142857  L 15.75 12.428571428571427  L 19.384615384615387 12.428571428571427  L 19.384615384615387 8.57142857142857  L 15.75 8.57142857142857  Z " stroke-width="0" stroke-dasharray="0" stroke="rgba(255, 255, 255, 0)" fill="none" transform="matrix(1 0 0 1 2174 2190 )" class="stroke" mask="url(#Clip353)" />
    <path d="M 16.033954326923077 6.3013392857142865  C 16.113882211538463 6.216517857142856  16.153846153846153 6.116071428571426  16.153846153846153 6  L 16.153846153846153 2.1428571428571432  C 16.153846153846153 2.0267857142857144  16.113882211538463 1.9263392857142847  16.033954326923077 1.8415178571428568  C 15.954026442307693 1.7566964285714262  15.859375 1.7142857142857135  15.75 1.7142857142857135  L 14.942307692307693 1.7142857142857135  C 14.832932692307695 1.7142857142857135  14.738281250000002 1.7566964285714262  14.658353365384615 1.8415178571428568  C 14.578425480769232 1.9263392857142847  14.538461538461538 2.0267857142857144  14.538461538461538 2.1428571428571432  L 14.538461538461538 6  C 14.538461538461538 6.116071428571426  14.578425480769232 6.216517857142856  14.658353365384615 6.3013392857142865  C 14.738281250000002 6.386160714285714  14.832932692307695 6.42857142857143  14.942307692307693 6.42857142857143  L 15.75 6.42857142857143  C 15.859375 6.42857142857143  15.954026442307693 6.386160714285714  16.033954326923077 6.3013392857142865  Z " stroke-width="0" stroke-dasharray="0" stroke="rgba(255, 255, 255, 0)" fill="none" transform="matrix(1 0 0 1 2174 2190 )" class="stroke" mask="url(#Clip353)" />
    <path d="M 20.520432692307693 3.9375  C 20.840144230769234 4.276785714285714  21 4.678571428571428  21 5.142857142857143  L 21 22.285714285714285  C 21 22.75  20.840144230769234 23.151785714285715  20.520432692307693 23.49107142857143  C 20.200721153846157 23.830357142857142  19.822115384615387 24  19.384615384615387 24  L 1.6153846153846154 24  C 1.1778846153846156 24  0.7992788461538463 23.830357142857142  0.47956730769230765 23.49107142857143  C 0.15985576923076922 23.151785714285715  0 22.75  0 22.285714285714285  L 0 5.142857142857143  C 0 4.678571428571428  0.15985576923076922 4.276785714285714  0.47956730769230765 3.9375  C 0.7992788461538463 3.598214285714283  1.1778846153846156 3.4285714285714297  1.6153846153846154 3.4285714285714297  L 3.230769230769231 3.4285714285714297  L 3.230769230769231 2.1428571428571432  C 3.230769230769231 1.5535714285714297  3.428485576923077 1.0491071428571415  3.823918269230769 0.6294642857142865  C 4.219350961538463 0.20982142857142883  4.694711538461538 0  5.25 0  L 6.0576923076923075 0  C 6.612980769230769 0  7.088341346153848 0.20982142857142883  7.483774038461538 0.6294642857142865  C 7.879206730769232 1.0491071428571415  8.076923076923077 1.5535714285714297  8.076923076923077 2.1428571428571432  L 8.076923076923077 3.4285714285714297  L 12.923076923076923 3.4285714285714297  L 12.923076923076923 2.1428571428571432  C 12.923076923076923 1.5535714285714297  13.12079326923077 1.0491071428571415  13.516225961538462 0.6294642857142865  C 13.911658653846157 0.20982142857142883  14.387019230769232 0  14.942307692307693 0  L 15.75 0  C 16.305288461538463 0  16.78064903846154 0.20982142857142883  17.17608173076923 0.6294642857142865  C 17.571514423076927 1.0491071428571415  17.76923076923077 1.5535714285714297  17.76923076923077 2.1428571428571432  L 17.76923076923077 3.4285714285714297  L 19.384615384615387 3.4285714285714297  C 19.822115384615387 3.4285714285714297  20.200721153846157 3.598214285714283  20.520432692307693 3.9375  Z " stroke-width="0" stroke-dasharray="0" stroke="rgba(255, 255, 255, 0)" fill="none" transform="matrix(1 0 0 1 2174 2190 )" class="stroke" mask="url(#Clip353)" />
  </g>
</svg>