<?xml version="1.0" encoding="utf-8"?>
<svg version="1.1" xmlns:xlink="http://www.w3.org/1999/xlink" width="34px" height="35px" xmlns="http://www.w3.org/2000/svg">
  <defs>
    <pattern id="BGPattern" patternUnits="userSpaceOnUse" alignment="0 0" imageRepeat="None" />
    <mask fill="white" id="Clip359">
      <path d="M 17.35016611295681 21.009114583333336  L 17.35016611295681 15  L 33.72890365448505 15  C 33.90963455149502 16.01128472222222  34 16.983506944444443  34 17.91015625  C 34 21.206597222222218  33.314728682170546 24.149848090277775  31.944186046511625 26.739908854166668  C 30.573643410852718 29.329969618055557  28.619490586932454 31.354166666666668  26.081727574750833 32.8125  C 23.543964562569215 34.27083333333333  20.633444075304542 35  17.35016611295681 35  C 14.98560354374308 35  12.733997785160577 34.54047309027778  10.595348837209302 33.62141927083333  C 8.45669988925803 32.70236545138889  6.611738648947952 31.46050347222222  5.06046511627907 29.895833333333332  C 3.5091915836101877 28.331163194444443  2.27796234772979 26.47026909722222  1.366777408637874 24.313151041666664  C 0.4555924695459579 22.15603298611111  0 19.88498263888889  0 17.5  C 0 15.115017361111109  0.4555924695459579 12.843967013888888  1.366777408637874 10.686848958333332  C 2.27796234772979 8.529730902777777  3.5091915836101877 6.668836805555551  5.06046511627907 5.104166666666668  C 6.611738648947952 3.5394965277777772  8.45669988925803 2.2976345486111094  10.595348837209302 1.3785807291666679  C 12.733997785160577 0.45952690972221877  14.98560354374308 0  17.35016611295681 0  C 21.868438538205982 0  25.746622369878185 1.5266927083333321  28.984717607973423 4.580078125  L 24.263122923588043 9.16015625  C 22.410631229235882 7.352430555555551  20.10631229235881 6.448567708333332  17.35016611295681 6.448567708333332  C 15.407308970099667 6.448567708333332  13.611295681063122 6.942274305555551  11.962126245847175 7.9296875  C 10.31295681063123 8.917100694444441  9.006423034330012 10.25770399305555  8.042524916943522 11.951497395833332  C 7.078626799557033 13.645290798611109  6.596677740863788 15.494791666666668  6.596677740863788 17.5  C 6.596677740863788 19.505208333333336  7.078626799557033 21.354709201388882  8.042524916943522 23.048502604166664  C 9.006423034330012 24.742296006944446  10.31295681063123 26.082899305555554  11.962126245847175 27.0703125  C 13.611295681063122 28.057725694444443  15.407308970099667 28.551432291666668  17.35016611295681 28.551432291666668  C 18.66046511627907 28.551432291666668  19.865337763012185 28.369140625  20.964784053156144 28.004557291666668  C 22.06423034330011 27.639973958333332  22.967884828349945 27.184244791666668  23.67574750830565 26.637369791666668  C 24.383610188261354 26.090494791666664  25.00110741971207 25.467664930555554  25.528239202657808 24.768880208333336  C 26.055370985603545 24.07009548611111  26.443189368770764 23.409288194444446  26.69169435215947 22.786458333333336  C 26.940199335548172 22.163628472222218  27.109634551495017 21.571180555555554  27.200000000000003 21.009114583333336  L 17.35016611295681 21.009114583333336  Z " fill-rule="evenodd" />
    </mask>
  </defs>
  <g transform="matrix(1 0 0 1 -1753 -408 )">
    <path d="M 17.35016611295681 21.009114583333336  L 17.35016611295681 15  L 33.72890365448505 15  C 33.90963455149502 16.01128472222222  34 16.983506944444443  34 17.91015625  C 34 21.206597222222218  33.314728682170546 24.149848090277775  31.944186046511625 26.739908854166668  C 30.573643410852718 29.329969618055557  28.619490586932454 31.354166666666668  26.081727574750833 32.8125  C 23.543964562569215 34.27083333333333  20.633444075304542 35  17.35016611295681 35  C 14.98560354374308 35  12.733997785160577 34.54047309027778  10.595348837209302 33.62141927083333  C 8.45669988925803 32.70236545138889  6.611738648947952 31.46050347222222  5.06046511627907 29.895833333333332  C 3.5091915836101877 28.331163194444443  2.27796234772979 26.47026909722222  1.366777408637874 24.313151041666664  C 0.4555924695459579 22.15603298611111  0 19.88498263888889  0 17.5  C 0 15.115017361111109  0.4555924695459579 12.843967013888888  1.366777408637874 10.686848958333332  C 2.27796234772979 8.529730902777777  3.5091915836101877 6.668836805555551  5.06046511627907 5.104166666666668  C 6.611738648947952 3.5394965277777772  8.45669988925803 2.2976345486111094  10.595348837209302 1.3785807291666679  C 12.733997785160577 0.45952690972221877  14.98560354374308 0  17.35016611295681 0  C 21.868438538205982 0  25.746622369878185 1.5266927083333321  28.984717607973423 4.580078125  L 24.263122923588043 9.16015625  C 22.410631229235882 7.352430555555551  20.10631229235881 6.448567708333332  17.35016611295681 6.448567708333332  C 15.407308970099667 6.448567708333332  13.611295681063122 6.942274305555551  11.962126245847175 7.9296875  C 10.31295681063123 8.917100694444441  9.006423034330012 10.25770399305555  8.042524916943522 11.951497395833332  C 7.078626799557033 13.645290798611109  6.596677740863788 15.494791666666668  6.596677740863788 17.5  C 6.596677740863788 19.505208333333336  7.078626799557033 21.354709201388882  8.042524916943522 23.048502604166664  C 9.006423034330012 24.742296006944446  10.31295681063123 26.082899305555554  11.962126245847175 27.0703125  C 13.611295681063122 28.057725694444443  15.407308970099667 28.551432291666668  17.35016611295681 28.551432291666668  C 18.66046511627907 28.551432291666668  19.865337763012185 28.369140625  20.964784053156144 28.004557291666668  C 22.06423034330011 27.639973958333332  22.967884828349945 27.184244791666668  23.67574750830565 26.637369791666668  C 24.383610188261354 26.090494791666664  25.00110741971207 25.467664930555554  25.528239202657808 24.768880208333336  C 26.055370985603545 24.07009548611111  26.443189368770764 23.409288194444446  26.69169435215947 22.786458333333336  C 26.940199335548172 22.163628472222218  27.109634551495017 21.571180555555554  27.200000000000003 21.009114583333336  L 17.35016611295681 21.009114583333336  Z " fill-rule="nonzero" fill="rgba(0, 0, 0, 1)" stroke="none" transform="matrix(1 0 0 1 1753 408 )" class="fill" />
    <path d="M 17.35016611295681 21.009114583333336  L 17.35016611295681 15  L 33.72890365448505 15  C 33.90963455149502 16.01128472222222  34 16.983506944444443  34 17.91015625  C 34 21.206597222222218  33.314728682170546 24.149848090277775  31.944186046511625 26.739908854166668  C 30.573643410852718 29.329969618055557  28.619490586932454 31.354166666666668  26.081727574750833 32.8125  C 23.543964562569215 34.27083333333333  20.633444075304542 35  17.35016611295681 35  C 14.98560354374308 35  12.733997785160577 34.54047309027778  10.595348837209302 33.62141927083333  C 8.45669988925803 32.70236545138889  6.611738648947952 31.46050347222222  5.06046511627907 29.895833333333332  C 3.5091915836101877 28.331163194444443  2.27796234772979 26.47026909722222  1.366777408637874 24.313151041666664  C 0.4555924695459579 22.15603298611111  0 19.88498263888889  0 17.5  C 0 15.115017361111109  0.4555924695459579 12.843967013888888  1.366777408637874 10.686848958333332  C 2.27796234772979 8.529730902777777  3.5091915836101877 6.668836805555551  5.06046511627907 5.104166666666668  C 6.611738648947952 3.5394965277777772  8.45669988925803 2.2976345486111094  10.595348837209302 1.3785807291666679  C 12.733997785160577 0.45952690972221877  14.98560354374308 0  17.35016611295681 0  C 21.868438538205982 0  25.746622369878185 1.5266927083333321  28.984717607973423 4.580078125  L 24.263122923588043 9.16015625  C 22.410631229235882 7.352430555555551  20.10631229235881 6.448567708333332  17.35016611295681 6.448567708333332  C 15.407308970099667 6.448567708333332  13.611295681063122 6.942274305555551  11.962126245847175 7.9296875  C 10.31295681063123 8.917100694444441  9.006423034330012 10.25770399305555  8.042524916943522 11.951497395833332  C 7.078626799557033 13.645290798611109  6.596677740863788 15.494791666666668  6.596677740863788 17.5  C 6.596677740863788 19.505208333333336  7.078626799557033 21.354709201388882  8.042524916943522 23.048502604166664  C 9.006423034330012 24.742296006944446  10.31295681063123 26.082899305555554  11.962126245847175 27.0703125  C 13.611295681063122 28.057725694444443  15.407308970099667 28.551432291666668  17.35016611295681 28.551432291666668  C 18.66046511627907 28.551432291666668  19.865337763012185 28.369140625  20.964784053156144 28.004557291666668  C 22.06423034330011 27.639973958333332  22.967884828349945 27.184244791666668  23.67574750830565 26.637369791666668  C 24.383610188261354 26.090494791666664  25.00110741971207 25.467664930555554  25.528239202657808 24.768880208333336  C 26.055370985603545 24.07009548611111  26.443189368770764 23.409288194444446  26.69169435215947 22.786458333333336  C 26.940199335548172 22.163628472222218  27.109634551495017 21.571180555555554  27.200000000000003 21.009114583333336  L 17.35016611295681 21.009114583333336  Z " stroke-width="0" stroke-dasharray="0" stroke="rgba(255, 255, 255, 0)" fill="none" transform="matrix(1 0 0 1 1753 408 )" class="stroke" mask="url(#Clip359)" />
  </g>
</svg>