<?xml version="1.0" encoding="utf-8"?>
<svg version="1.1" xmlns:xlink="http://www.w3.org/1999/xlink" width="22px" height="22px" xmlns="http://www.w3.org/2000/svg">
  <defs>
    <pattern id="BGPattern" patternUnits="userSpaceOnUse" alignment="0 0" imageRepeat="None" />
    <mask fill="white" id="Clip360">
      <path d="M 21.48148148148148 16.444444444444443  C 21.82716049382716 16.79012345679012  22 17.209876543209873  22 17.703703703703702  C 22 18.19753086419753  21.82716049382716 18.61728395061728  21.48148148148148 18.962962962962962  L 18.962962962962962 21.48148148148148  C 18.61728395061729 21.82716049382716  18.19753086419753 22  17.703703703703702 22  C 17.20987654320988 22  16.790123456790127 21.82716049382716  16.444444444444446 21.48148148148148  L 11 16.037037037037038  L 5.555555555555556 21.48148148148148  C 5.2098765432098775 21.82716049382716  4.790123456790123 22  4.296296296296296 22  C 3.8024691358024696 22  3.3827160493827164 21.82716049382716  3.037037037037037 21.48148148148148  L 0.5185185185185185 18.962962962962962  C 0.17283950617283966 18.61728395061728  0 18.19753086419753  0 17.703703703703702  C 0 17.209876543209873  0.17283950617283966 16.79012345679012  0.5185185185185185 16.444444444444443  L 5.962962962962963 11  L 0.5185185185185185 5.5555555555555545  C 0.17283950617283966 5.209876543209875  0 4.790123456790123  0 4.296296296296296  C 0 3.802469135802469  0.17283950617283966 3.382716049382713  0.5185185185185185 3.037037037037038  L 3.037037037037037 0.5185185185185186  C 3.3827160493827164 0.17283950617283872  3.8024691358024696 0  4.296296296296296 0  C 4.790123456790123 0  5.2098765432098775 0.17283950617283872  5.555555555555556 0.5185185185185186  L 11 5.962962962962964  L 16.444444444444446 0.5185185185185186  C 16.790123456790127 0.17283950617283872  17.20987654320988 0  17.703703703703702 0  C 18.19753086419753 0  18.61728395061729 0.17283950617283872  18.962962962962962 0.5185185185185186  L 21.48148148148148 3.037037037037038  C 21.82716049382716 3.382716049382713  22 3.802469135802469  22 4.296296296296296  C 22 4.790123456790123  21.82716049382716 5.209876543209875  21.48148148148148 5.5555555555555545  L 16.037037037037035 11  L 21.48148148148148 16.444444444444443  Z " fill-rule="evenodd" />
    </mask>
  </defs>
  <g transform="matrix(1 0 0 1 -3173 -978 )">
    <path d="M 21.48148148148148 16.444444444444443  C 21.82716049382716 16.79012345679012  22 17.209876543209873  22 17.703703703703702  C 22 18.19753086419753  21.82716049382716 18.61728395061728  21.48148148148148 18.962962962962962  L 18.962962962962962 21.48148148148148  C 18.61728395061729 21.82716049382716  18.19753086419753 22  17.703703703703702 22  C 17.20987654320988 22  16.790123456790127 21.82716049382716  16.444444444444446 21.48148148148148  L 11 16.037037037037038  L 5.555555555555556 21.48148148148148  C 5.2098765432098775 21.82716049382716  4.790123456790123 22  4.296296296296296 22  C 3.8024691358024696 22  3.3827160493827164 21.82716049382716  3.037037037037037 21.48148148148148  L 0.5185185185185185 18.962962962962962  C 0.17283950617283966 18.61728395061728  0 18.19753086419753  0 17.703703703703702  C 0 17.209876543209873  0.17283950617283966 16.79012345679012  0.5185185185185185 16.444444444444443  L 5.962962962962963 11  L 0.5185185185185185 5.5555555555555545  C 0.17283950617283966 5.209876543209875  0 4.790123456790123  0 4.296296296296296  C 0 3.802469135802469  0.17283950617283966 3.382716049382713  0.5185185185185185 3.037037037037038  L 3.037037037037037 0.5185185185185186  C 3.3827160493827164 0.17283950617283872  3.8024691358024696 0  4.296296296296296 0  C 4.790123456790123 0  5.2098765432098775 0.17283950617283872  5.555555555555556 0.5185185185185186  L 11 5.962962962962964  L 16.444444444444446 0.5185185185185186  C 16.790123456790127 0.17283950617283872  17.20987654320988 0  17.703703703703702 0  C 18.19753086419753 0  18.61728395061729 0.17283950617283872  18.962962962962962 0.5185185185185186  L 21.48148148148148 3.037037037037038  C 21.82716049382716 3.382716049382713  22 3.802469135802469  22 4.296296296296296  C 22 4.790123456790123  21.82716049382716 5.209876543209875  21.48148148148148 5.5555555555555545  L 16.037037037037035 11  L 21.48148148148148 16.444444444444443  Z " fill-rule="nonzero" fill="rgba(0, 0, 0, 1)" stroke="none" transform="matrix(1 0 0 1 3173 978 )" class="fill" />
    <path d="M 21.48148148148148 16.444444444444443  C 21.82716049382716 16.79012345679012  22 17.209876543209873  22 17.703703703703702  C 22 18.19753086419753  21.82716049382716 18.61728395061728  21.48148148148148 18.962962962962962  L 18.962962962962962 21.48148148148148  C 18.61728395061729 21.82716049382716  18.19753086419753 22  17.703703703703702 22  C 17.20987654320988 22  16.790123456790127 21.82716049382716  16.444444444444446 21.48148148148148  L 11 16.037037037037038  L 5.555555555555556 21.48148148148148  C 5.2098765432098775 21.82716049382716  4.790123456790123 22  4.296296296296296 22  C 3.8024691358024696 22  3.3827160493827164 21.82716049382716  3.037037037037037 21.48148148148148  L 0.5185185185185185 18.962962962962962  C 0.17283950617283966 18.61728395061728  0 18.19753086419753  0 17.703703703703702  C 0 17.209876543209873  0.17283950617283966 16.79012345679012  0.5185185185185185 16.444444444444443  L 5.962962962962963 11  L 0.5185185185185185 5.5555555555555545  C 0.17283950617283966 5.209876543209875  0 4.790123456790123  0 4.296296296296296  C 0 3.802469135802469  0.17283950617283966 3.382716049382713  0.5185185185185185 3.037037037037038  L 3.037037037037037 0.5185185185185186  C 3.3827160493827164 0.17283950617283872  3.8024691358024696 0  4.296296296296296 0  C 4.790123456790123 0  5.2098765432098775 0.17283950617283872  5.555555555555556 0.5185185185185186  L 11 5.962962962962964  L 16.444444444444446 0.5185185185185186  C 16.790123456790127 0.17283950617283872  17.20987654320988 0  17.703703703703702 0  C 18.19753086419753 0  18.61728395061729 0.17283950617283872  18.962962962962962 0.5185185185185186  L 21.48148148148148 3.037037037037038  C 21.82716049382716 3.382716049382713  22 3.802469135802469  22 4.296296296296296  C 22 4.790123456790123  21.82716049382716 5.209876543209875  21.48148148148148 5.5555555555555545  L 16.037037037037035 11  L 21.48148148148148 16.444444444444443  Z " stroke-width="0" stroke-dasharray="0" stroke="rgba(255, 255, 255, 0)" fill="none" transform="matrix(1 0 0 1 3173 978 )" class="stroke" mask="url(#Clip360)" />
  </g>
</svg>