<?xml version="1.0" encoding="utf-8"?>
<svg version="1.1" xmlns:xlink="http://www.w3.org/1999/xlink" width="22px" height="19px" xmlns="http://www.w3.org/2000/svg">
  <defs>
    <pattern id="BGPattern" patternUnits="userSpaceOnUse" alignment="0 0" imageRepeat="None" />
    <mask fill="white" id="Clip363">
      <path d="M 11.540178571428571 18.77734375  C 11.392857142857144 18.92578125  11.21279761904762 19  11 19  C 10.787202380952381 19  10.607142857142858 18.92578125  10.459821428571429 18.77734375  L 2.799107142857143 11.330729166666668  C 2.717261904761905 11.264756944444445  2.6047247023809526 11.157552083333332  2.4614955357142856 11.009114583333332  C 2.318266369047619 10.860677083333332  2.0911458333333335 10.590603298611112  1.7801339285714286 10.198893229166668  C 1.4691220238095237 9.80718315972222  1.1908482142857144 9.405164930555554  0.9453125 8.992838541666666  C 0.6997767857142857 8.580512152777779  0.48084077380952384 8.081597222222221  0.2885044642857143 7.49609375  C 0.09616815476190477 6.910590277777776  0 6.34157986111111  0 5.7890625  C 0 3.974826388888888  0.5197172619047619 2.55642361111111  1.5591517857142856 1.533854166666666  C 2.5985863095238098 0.511284722222222  4.034970238095238 0  5.868303571428572 0  C 6.3757440476190474 0  6.893415178571428 0.08865017361110994  7.421316964285714 0.26595052083333404  C 7.94921875 0.4432508680555539  8.440290178571429 0.6824001736111099  8.89453125 0.9833984375  C 9.348772321428573 1.284396701388888  9.739583333333336 1.566840277777776  10.066964285714285 1.830729166666666  C 10.394345238095239 2.094618055555554  10.705357142857142 2.375  11 2.671875  C 11.294642857142856 2.375  11.605654761904763 2.094618055555554  11.933035714285715 1.830729166666666  C 12.260416666666668 1.566840277777776  12.651227678571429 1.284396701388888  13.10546875 0.9833984375  C 13.559709821428571 0.6824001736111099  14.05078125 0.4432508680555539  14.578683035714285 0.26595052083333404  C 15.106584821428571 0.08865017361110994  15.624255952380954 0  16.13169642857143 0  C 17.965029761904763 0  19.401413690476193 0.511284722222222  20.440848214285715 1.533854166666666  C 21.48028273809524 2.55642361111111  22 3.974826388888888  22 5.7890625  C 22 7.6115451388888875  21.062872023809526 9.467013888888888  19.18861607142857 11.35546875  L 11.540178571428571 18.77734375  Z " fill-rule="evenodd" />
    </mask>
  </defs>
  <g transform="matrix(1 0 0 1 -3666 -461 )">
    <path d="M 11.540178571428571 18.77734375  C 11.392857142857144 18.92578125  11.21279761904762 19  11 19  C 10.787202380952381 19  10.607142857142858 18.92578125  10.459821428571429 18.77734375  L 2.799107142857143 11.330729166666668  C 2.717261904761905 11.264756944444445  2.6047247023809526 11.157552083333332  2.4614955357142856 11.009114583333332  C 2.318266369047619 10.860677083333332  2.0911458333333335 10.590603298611112  1.7801339285714286 10.198893229166668  C 1.4691220238095237 9.80718315972222  1.1908482142857144 9.405164930555554  0.9453125 8.992838541666666  C 0.6997767857142857 8.580512152777779  0.48084077380952384 8.081597222222221  0.2885044642857143 7.49609375  C 0.09616815476190477 6.910590277777776  0 6.34157986111111  0 5.7890625  C 0 3.974826388888888  0.5197172619047619 2.55642361111111  1.5591517857142856 1.533854166666666  C 2.5985863095238098 0.511284722222222  4.034970238095238 0  5.868303571428572 0  C 6.3757440476190474 0  6.893415178571428 0.08865017361110994  7.421316964285714 0.26595052083333404  C 7.94921875 0.4432508680555539  8.440290178571429 0.6824001736111099  8.89453125 0.9833984375  C 9.348772321428573 1.284396701388888  9.739583333333336 1.566840277777776  10.066964285714285 1.830729166666666  C 10.394345238095239 2.094618055555554  10.705357142857142 2.375  11 2.671875  C 11.294642857142856 2.375  11.605654761904763 2.094618055555554  11.933035714285715 1.830729166666666  C 12.260416666666668 1.566840277777776  12.651227678571429 1.284396701388888  13.10546875 0.9833984375  C 13.559709821428571 0.6824001736111099  14.05078125 0.4432508680555539  14.578683035714285 0.26595052083333404  C 15.106584821428571 0.08865017361110994  15.624255952380954 0  16.13169642857143 0  C 17.965029761904763 0  19.401413690476193 0.511284722222222  20.440848214285715 1.533854166666666  C 21.48028273809524 2.55642361111111  22 3.974826388888888  22 5.7890625  C 22 7.6115451388888875  21.062872023809526 9.467013888888888  19.18861607142857 11.35546875  L 11.540178571428571 18.77734375  Z " fill-rule="nonzero" fill="rgba(127, 127, 127, 1)" stroke="none" transform="matrix(1 0 0 1 3666 461 )" class="fill" />
    <path d="M 11.540178571428571 18.77734375  C 11.392857142857144 18.92578125  11.21279761904762 19  11 19  C 10.787202380952381 19  10.607142857142858 18.92578125  10.459821428571429 18.77734375  L 2.799107142857143 11.330729166666668  C 2.717261904761905 11.264756944444445  2.6047247023809526 11.157552083333332  2.4614955357142856 11.009114583333332  C 2.318266369047619 10.860677083333332  2.0911458333333335 10.590603298611112  1.7801339285714286 10.198893229166668  C 1.4691220238095237 9.80718315972222  1.1908482142857144 9.405164930555554  0.9453125 8.992838541666666  C 0.6997767857142857 8.580512152777779  0.48084077380952384 8.081597222222221  0.2885044642857143 7.49609375  C 0.09616815476190477 6.910590277777776  0 6.34157986111111  0 5.7890625  C 0 3.974826388888888  0.5197172619047619 2.55642361111111  1.5591517857142856 1.533854166666666  C 2.5985863095238098 0.511284722222222  4.034970238095238 0  5.868303571428572 0  C 6.3757440476190474 0  6.893415178571428 0.08865017361110994  7.421316964285714 0.26595052083333404  C 7.94921875 0.4432508680555539  8.440290178571429 0.6824001736111099  8.89453125 0.9833984375  C 9.348772321428573 1.284396701388888  9.739583333333336 1.566840277777776  10.066964285714285 1.830729166666666  C 10.394345238095239 2.094618055555554  10.705357142857142 2.375  11 2.671875  C 11.294642857142856 2.375  11.605654761904763 2.094618055555554  11.933035714285715 1.830729166666666  C 12.260416666666668 1.566840277777776  12.651227678571429 1.284396701388888  13.10546875 0.9833984375  C 13.559709821428571 0.6824001736111099  14.05078125 0.4432508680555539  14.578683035714285 0.26595052083333404  C 15.106584821428571 0.08865017361110994  15.624255952380954 0  16.13169642857143 0  C 17.965029761904763 0  19.401413690476193 0.511284722222222  20.440848214285715 1.533854166666666  C 21.48028273809524 2.55642361111111  22 3.974826388888888  22 5.7890625  C 22 7.6115451388888875  21.062872023809526 9.467013888888888  19.18861607142857 11.35546875  L 11.540178571428571 18.77734375  Z " stroke-width="0" stroke-dasharray="0" stroke="rgba(255, 255, 255, 0)" fill="none" transform="matrix(1 0 0 1 3666 461 )" class="stroke" mask="url(#Clip363)" />
  </g>
</svg>