<?xml version="1.0" encoding="utf-8"?>
<svg version="1.1" xmlns:xlink="http://www.w3.org/1999/xlink" width="21px" height="21px" xmlns="http://www.w3.org/2000/svg">
  <defs>
    <pattern id="BGPattern" patternUnits="userSpaceOnUse" alignment="0 0" imageRepeat="None" />
    <mask fill="white" id="Clip361">
      <path d="M 16.26953125 8.75  C 16.26953125 8.986979166666666  16.182942708333336 9.192057291666666  16.009765625 9.365234375  L 10.240234375 15.134765625  C 10.067057291666668 15.307942708333332  9.861979166666668 15.394531250000002  9.625 15.394531250000002  C 9.388020833333334 15.394531250000002  9.182942708333334 15.307942708333332  9.009765625 15.134765625  L 4.990234375 11.115234375  C 4.817057291666667 10.942057291666664  4.73046875 10.736979166666664  4.73046875 10.5  C 4.73046875 10.263020833333334  4.817057291666667 10.057942708333334  4.990234375 9.884765625  L 6.384765625 8.490234375  C 6.557942708333334 8.317057291666666  6.763020833333334 8.23046875  7 8.23046875  C 7.236979166666667 8.23046875  7.442057291666667 8.317057291666666  7.615234375 8.490234375  L 9.625 10.5  L 13.384765625 6.740234374999999  C 13.557942708333336 6.567057291666666  13.763020833333336 6.48046875  14 6.48046875  C 14.236979166666668 6.48046875  14.442057291666668 6.567057291666666  14.615234375 6.740234374999999  L 16.009765625 8.134765625  C 16.182942708333336 8.307942708333332  16.26953125 8.513020833333332  16.26953125 8.75  Z M 16.939453125 14.232421875  C 17.604817708333332 13.093098958333332  17.9375 11.848958333333334  17.9375 10.5  C 17.9375 9.151041666666666  17.604817708333332 7.906901041666666  16.939453125 6.767578125  C 16.274088541666668 5.628255208333331  15.371744791666668 4.725911458333331  14.232421875 4.060546875  C 13.093098958333334 3.3951822916666665  11.848958333333334 3.062500000000001  10.5 3.062500000000001  C 9.151041666666666 3.062500000000001  7.906901041666668 3.3951822916666665  6.767578125 4.060546875  C 5.628255208333334 4.725911458333331  4.725911458333334 5.628255208333331  4.060546875 6.767578125  C 3.395182291666667 7.906901041666666  3.0625 9.151041666666666  3.0625 10.5  C 3.0625 11.848958333333334  3.395182291666667 13.093098958333332  4.060546875 14.232421875  C 4.725911458333334 15.371744791666664  5.628255208333334 16.274088541666668  6.767578125 16.939453125  C 7.906901041666668 17.604817708333332  9.151041666666666 17.9375  10.5 17.9375  C 11.848958333333334 17.9375  13.093098958333334 17.604817708333332  14.232421875 16.939453125  C 15.371744791666668 16.274088541666668  16.274088541666668 15.371744791666664  16.939453125 14.232421875  Z M 19.591796875 5.2294921875  C 20.530598958333332 6.838216145833331  21 8.59505208333333  21 10.5  C 21 12.404947916666668  20.530598958333332 14.161783854166664  19.591796875 15.7705078125  C 18.652994791666668 17.379231770833332  17.379231770833332 18.652994791666668  15.7705078125 19.591796875  C 14.161783854166668 20.530598958333336  12.404947916666668 21  10.5 21  C 8.595052083333334 21  6.838216145833334 20.530598958333336  5.2294921875 19.591796875  C 3.620768229166667 18.652994791666668  2.3470052083333335 17.379231770833332  1.408203125 15.7705078125  C 0.46940104166666663 14.161783854166664  0 12.404947916666668  0 10.5  C 0 8.59505208333333  0.46940104166666663 6.838216145833331  1.408203125 5.2294921875  C 2.3470052083333335 3.6207682291666665  3.620768229166667 2.3470052083333313  5.2294921875 1.4082031249999991  C 6.838216145833334 0.46940104166666485  8.595052083333334 0  10.5 0  C 12.404947916666668 0  14.161783854166668 0.46940104166666485  15.7705078125 1.4082031249999991  C 17.379231770833332 2.3470052083333313  18.652994791666668 3.6207682291666665  19.591796875 5.2294921875  Z " fill-rule="evenodd" />
    </mask>
  </defs>
  <g transform="matrix(1 0 0 1 -3666 -427 )">
    <path d="M 16.26953125 8.75  C 16.26953125 8.986979166666666  16.182942708333336 9.192057291666666  16.009765625 9.365234375  L 10.240234375 15.134765625  C 10.067057291666668 15.307942708333332  9.861979166666668 15.394531250000002  9.625 15.394531250000002  C 9.388020833333334 15.394531250000002  9.182942708333334 15.307942708333332  9.009765625 15.134765625  L 4.990234375 11.115234375  C 4.817057291666667 10.942057291666664  4.73046875 10.736979166666664  4.73046875 10.5  C 4.73046875 10.263020833333334  4.817057291666667 10.057942708333334  4.990234375 9.884765625  L 6.384765625 8.490234375  C 6.557942708333334 8.317057291666666  6.763020833333334 8.23046875  7 8.23046875  C 7.236979166666667 8.23046875  7.442057291666667 8.317057291666666  7.615234375 8.490234375  L 9.625 10.5  L 13.384765625 6.740234374999999  C 13.557942708333336 6.567057291666666  13.763020833333336 6.48046875  14 6.48046875  C 14.236979166666668 6.48046875  14.442057291666668 6.567057291666666  14.615234375 6.740234374999999  L 16.009765625 8.134765625  C 16.182942708333336 8.307942708333332  16.26953125 8.513020833333332  16.26953125 8.75  Z M 16.939453125 14.232421875  C 17.604817708333332 13.093098958333332  17.9375 11.848958333333334  17.9375 10.5  C 17.9375 9.151041666666666  17.604817708333332 7.906901041666666  16.939453125 6.767578125  C 16.274088541666668 5.628255208333331  15.371744791666668 4.725911458333331  14.232421875 4.060546875  C 13.093098958333334 3.3951822916666665  11.848958333333334 3.062500000000001  10.5 3.062500000000001  C 9.151041666666666 3.062500000000001  7.906901041666668 3.3951822916666665  6.767578125 4.060546875  C 5.628255208333334 4.725911458333331  4.725911458333334 5.628255208333331  4.060546875 6.767578125  C 3.395182291666667 7.906901041666666  3.0625 9.151041666666666  3.0625 10.5  C 3.0625 11.848958333333334  3.395182291666667 13.093098958333332  4.060546875 14.232421875  C 4.725911458333334 15.371744791666664  5.628255208333334 16.274088541666668  6.767578125 16.939453125  C 7.906901041666668 17.604817708333332  9.151041666666666 17.9375  10.5 17.9375  C 11.848958333333334 17.9375  13.093098958333334 17.604817708333332  14.232421875 16.939453125  C 15.371744791666668 16.274088541666668  16.274088541666668 15.371744791666664  16.939453125 14.232421875  Z M 19.591796875 5.2294921875  C 20.530598958333332 6.838216145833331  21 8.59505208333333  21 10.5  C 21 12.404947916666668  20.530598958333332 14.161783854166664  19.591796875 15.7705078125  C 18.652994791666668 17.379231770833332  17.379231770833332 18.652994791666668  15.7705078125 19.591796875  C 14.161783854166668 20.530598958333336  12.404947916666668 21  10.5 21  C 8.595052083333334 21  6.838216145833334 20.530598958333336  5.2294921875 19.591796875  C 3.620768229166667 18.652994791666668  2.3470052083333335 17.379231770833332  1.408203125 15.7705078125  C 0.46940104166666663 14.161783854166664  0 12.404947916666668  0 10.5  C 0 8.59505208333333  0.46940104166666663 6.838216145833331  1.408203125 5.2294921875  C 2.3470052083333335 3.6207682291666665  3.620768229166667 2.3470052083333313  5.2294921875 1.4082031249999991  C 6.838216145833334 0.46940104166666485  8.595052083333334 0  10.5 0  C 12.404947916666668 0  14.161783854166668 0.46940104166666485  15.7705078125 1.4082031249999991  C 17.379231770833332 2.3470052083333313  18.652994791666668 3.6207682291666665  19.591796875 5.2294921875  Z " fill-rule="nonzero" fill="rgba(127, 127, 127, 1)" stroke="none" transform="matrix(1 0 0 1 3666 427 )" class="fill" />
    <path d="M 16.26953125 8.75  C 16.26953125 8.986979166666666  16.182942708333336 9.192057291666666  16.009765625 9.365234375  L 10.240234375 15.134765625  C 10.067057291666668 15.307942708333332  9.861979166666668 15.394531250000002  9.625 15.394531250000002  C 9.388020833333334 15.394531250000002  9.182942708333334 15.307942708333332  9.009765625 15.134765625  L 4.990234375 11.115234375  C 4.817057291666667 10.942057291666664  4.73046875 10.736979166666664  4.73046875 10.5  C 4.73046875 10.263020833333334  4.817057291666667 10.057942708333334  4.990234375 9.884765625  L 6.384765625 8.490234375  C 6.557942708333334 8.317057291666666  6.763020833333334 8.23046875  7 8.23046875  C 7.236979166666667 8.23046875  7.442057291666667 8.317057291666666  7.615234375 8.490234375  L 9.625 10.5  L 13.384765625 6.740234374999999  C 13.557942708333336 6.567057291666666  13.763020833333336 6.48046875  14 6.48046875  C 14.236979166666668 6.48046875  14.442057291666668 6.567057291666666  14.615234375 6.740234374999999  L 16.009765625 8.134765625  C 16.182942708333336 8.307942708333332  16.26953125 8.513020833333332  16.26953125 8.75  Z " stroke-width="0" stroke-dasharray="0" stroke="rgba(255, 255, 255, 0)" fill="none" transform="matrix(1 0 0 1 3666 427 )" class="stroke" mask="url(#Clip361)" />
    <path d="M 16.939453125 14.232421875  C 17.604817708333332 13.093098958333332  17.9375 11.848958333333334  17.9375 10.5  C 17.9375 9.151041666666666  17.604817708333332 7.906901041666666  16.939453125 6.767578125  C 16.274088541666668 5.628255208333331  15.371744791666668 4.725911458333331  14.232421875 4.060546875  C 13.093098958333334 3.3951822916666665  11.848958333333334 3.062500000000001  10.5 3.062500000000001  C 9.151041666666666 3.062500000000001  7.906901041666668 3.3951822916666665  6.767578125 4.060546875  C 5.628255208333334 4.725911458333331  4.725911458333334 5.628255208333331  4.060546875 6.767578125  C 3.395182291666667 7.906901041666666  3.0625 9.151041666666666  3.0625 10.5  C 3.0625 11.848958333333334  3.395182291666667 13.093098958333332  4.060546875 14.232421875  C 4.725911458333334 15.371744791666664  5.628255208333334 16.274088541666668  6.767578125 16.939453125  C 7.906901041666668 17.604817708333332  9.151041666666666 17.9375  10.5 17.9375  C 11.848958333333334 17.9375  13.093098958333334 17.604817708333332  14.232421875 16.939453125  C 15.371744791666668 16.274088541666668  16.274088541666668 15.371744791666664  16.939453125 14.232421875  Z " stroke-width="0" stroke-dasharray="0" stroke="rgba(255, 255, 255, 0)" fill="none" transform="matrix(1 0 0 1 3666 427 )" class="stroke" mask="url(#Clip361)" />
    <path d="M 19.591796875 5.2294921875  C 20.530598958333332 6.838216145833331  21 8.59505208333333  21 10.5  C 21 12.404947916666668  20.530598958333332 14.161783854166664  19.591796875 15.7705078125  C 18.652994791666668 17.379231770833332  17.379231770833332 18.652994791666668  15.7705078125 19.591796875  C 14.161783854166668 20.530598958333336  12.404947916666668 21  10.5 21  C 8.595052083333334 21  6.838216145833334 20.530598958333336  5.2294921875 19.591796875  C 3.620768229166667 18.652994791666668  2.3470052083333335 17.379231770833332  1.408203125 15.7705078125  C 0.46940104166666663 14.161783854166664  0 12.404947916666668  0 10.5  C 0 8.59505208333333  0.46940104166666663 6.838216145833331  1.408203125 5.2294921875  C 2.3470052083333335 3.6207682291666665  3.620768229166667 2.3470052083333313  5.2294921875 1.4082031249999991  C 6.838216145833334 0.46940104166666485  8.595052083333334 0  10.5 0  C 12.404947916666668 0  14.161783854166668 0.46940104166666485  15.7705078125 1.4082031249999991  C 17.379231770833332 2.3470052083333313  18.652994791666668 3.6207682291666665  19.591796875 5.2294921875  Z " stroke-width="0" stroke-dasharray="0" stroke="rgba(255, 255, 255, 0)" fill="none" transform="matrix(1 0 0 1 3666 427 )" class="stroke" mask="url(#Clip361)" />
  </g>
</svg>