<?xml version="1.0" encoding="utf-8"?>
<svg version="1.1" xmlns:xlink="http://www.w3.org/1999/xlink" width="414px" height="780px" xmlns="http://www.w3.org/2000/svg">
  <defs>
    <linearGradient gradientUnits="userSpaceOnUse" x1="207" y1="0" x2="207" y2="359.99999999999994" id="LinearGradient364">
      <stop id="Stop365" stop-color="#000000" stop-opacity="0.9921568627450981" offset="0" />
      <stop id="Stop366" stop-color="#000000" stop-opacity="0" offset="1" />
    </linearGradient>
    <pattern id="BGPattern" patternUnits="userSpaceOnUse" alignment="0 0" imageRepeat="None" />
    <mask fill="white" id="Clip367">
      <path d="M 0 775  L 0 5  C 0 2.1999999999999993  2.1999999999999997 0  5 0  L 409 0  C 411.8 0  414 2.1999999999999993  414 5  L 414 775  C 414 777.8000000000001  411.8 780  409 780  L 5 780  C 2.1999999999999997 780  0 777.8000000000001  0 775  Z " fill-rule="evenodd" />
    </mask>
  </defs>
  <g transform="matrix(1 0 0 1 -4547 -44 )">
    <path d="M 0 775  L 0 5  C 0 2.1999999999999993  2.1999999999999997 0  5 0  L 409 0  C 411.8 0  414 2.1999999999999993  414 5  L 414 775  C 414 777.8000000000001  411.8 780  409 780  L 5 780  C 2.1999999999999997 780  0 777.8000000000001  0 775  Z " fill-rule="nonzero" fill="url(#LinearGradient364)" stroke="none" transform="matrix(1 0 0 1 4547 44 )" class="fill" />
    <path d="M 0 775  L 0 5  C 0 2.1999999999999993  2.1999999999999997 0  5 0  L 409 0  C 411.8 0  414 2.1999999999999993  414 5  L 414 775  C 414 777.8000000000001  411.8 780  409 780  L 5 780  C 2.1999999999999997 780  0 777.8000000000001  0 775  Z " stroke-width="2" stroke-dasharray="0" stroke="rgba(121, 121, 121, 1)" fill="none" transform="matrix(1 0 0 1 4547 44 )" class="stroke" mask="url(#Clip367)" />
  </g>
</svg>