<?xml version="1.0" encoding="utf-8"?>
<svg version="1.1" xmlns:xlink="http://www.w3.org/1999/xlink" width="31px" height="21px" xmlns="http://www.w3.org/2000/svg">
  <defs>
    <pattern id="BGPattern" patternUnits="userSpaceOnUse" alignment="0 0" imageRepeat="None" />
    <mask fill="white" id="Clip368">
      <path d="M 9.774956597222223 10.0146484375  C 9.94089988425926 10.1650390625  10.023871527777777 10.372395833333332  10.023871527777777 10.636718750000002  C 10.023871527777777 10.973958333333332  9.909505208333332 11.254231770833334  9.680772569444445 11.477539062500002  C 9.452039930555555 11.700846354166664  9.171730324074074 11.8125  8.83984375 11.8125  C 8.579716435185187 11.8125  8.371166087962964 11.739583333333332  8.214192708333332 11.593749999999998  C 8.057219328703704 11.447916666666666  7.978732638888888 11.247395833333332  7.978732638888888 10.9921875  C 7.978732638888888 10.654947916666664  8.090856481481483 10.3701171875  8.315104166666668 10.1376953125  C 8.539351851851853 9.9052734375  8.817418981481483 9.7890625  9.149305555555555 9.7890625  C 9.400462962962964 9.7890625  9.609013310185187 9.8642578125  9.774956597222223 10.0146484375  Z M 20.424479166666664 8.1826171875  C 20.532118055555554 8.2783203125  20.5859375 8.417317708333334  20.5859375 8.599609375  C 20.5859375 8.982421875  20.48726851851852 9.2421875  20.289930555555554 9.37890625  C 20.092592592592595 9.515625  19.79658564814815 9.583984375  19.40190972222222 9.583984375  L 18.971354166666664 9.59765625  L 19.200086805555554 8.134765625  C 19.218026620370374 8.034505208333332  19.27633101851852 7.984375000000001  19.375 7.984375000000001  L 19.6171875 7.984375000000001  C 19.814525462962965 7.984375000000001  19.971498842592595 7.993489583333332  20.08810763888889 8.01171875  C 20.204716435185183 8.029947916666666  20.31684027777778 8.0869140625  20.424479166666664 8.1826171875  Z M 25.059678819444446 10.0146484375  C 25.225622106481485 10.1650390625  25.308593750000004 10.372395833333332  25.30859375 10.636718750000002  C 25.308593750000004 10.964843750000002  25.194227430555557 11.242838541666666  24.965494791666664 11.470703124999998  C 24.736762152777782 11.698567708333332  24.460937500000004 11.8125  24.138020833333336 11.8125  C 23.87789351851852 11.8125  23.667100694444446 11.739583333333332  23.50564236111111 11.593749999999998  C 23.34418402777778 11.447916666666666  23.26345486111111 11.247395833333332  23.26345486111111 10.9921875  C 23.26345486111111 10.654947916666664  23.375578703703706 10.3701171875  23.59982638888889 10.1376953125  C 23.824074074074076 9.9052734375  24.102141203703706 9.7890625  24.43402777777778 9.7890625  C 24.685185185185183 9.7890625  24.89373553240741 9.8642578125  25.059678819444446 10.0146484375  Z M 6.243055555555555 10.1376953125  C 6.682581018518519 9.695638020833332  6.90234375 9.082682291666664  6.90234375 8.298828125  C 6.90234375 7.761067708333334  6.729673032407408 7.371419270833334  6.384331597222222 7.129882812499999  C 6.038990162037037 6.888346354166665  5.588252314814815 6.767578125  5.032118055555555 6.767578125  L 2.8793402777777777 6.767578125  C 2.7089120370370376 6.767578125  2.6147280092592595 6.854166666666666  2.596788194444444 7.027343749999999  L 1.722222222222222 12.605468750000002  C 1.7132523148148149 12.660156249999998  1.726707175925926 12.710286458333334  1.7625868055555556 12.755859375  C 1.7984664351851856 12.801432291666666  1.843315972222222 12.824218749999998  1.8971354166666665 12.824218749999998  L 2.919704861111111 12.824218749999998  C 3.0991030092592595 12.824218749999998  3.197771990740741 12.737630208333332  3.215711805555556 12.564453125000002  L 3.457899305555556 11.060546874999998  C 3.4668692129629632 10.987630208333334  3.498263888888889 10.928385416666668  3.552083333333333 10.882812500000002  C 3.6059027777777777 10.837239583333332  3.673177083333333 10.8076171875  3.75390625 10.793945312499998  C 3.834635416666667 10.780273437500002  3.9108796296296298 10.773437499999998  3.9826388888888884 10.773437499999998  C 4.054398148148149 10.773437499999998  4.139612268518519 10.777994791666664  4.23828125 10.787109375  C 4.336950231481482 10.796223958333332  4.399739583333334 10.800781250000002  4.426649305555555 10.800781250000002  C 5.1980613425925934 10.800781250000002  5.8035300925925934 10.579752604166668  6.243055555555555 10.1376953125  Z M 10.76388888888889 12.824218749999998  C 10.93431712962963 12.824218749999998  11.032986111111112 12.737630208333332  11.059895833333332 12.564453125000002  L 11.61154513888889 8.99609375  C 11.620515046296298 8.94140625  11.607060185185187 8.891276041666666  11.571180555555555 8.845703125  C 11.535300925925927 8.800130208333332  11.49045138888889 8.77734375  11.436631944444445 8.77734375  L 10.4140625 8.77734375  C 10.288483796296298 8.77734375  10.212239583333332 8.927734375  10.18532986111111 9.228515625  C 9.94314236111111 8.863932291666666  9.51707175925926 8.681640625  8.907118055555555 8.681640625  C 8.261284722222223 8.681640625  7.711877893518519 8.927734375  7.258897569444445 9.419921875  C 6.805917245370371 9.912109375  6.579427083333335 10.490885416666666  6.579427083333334 11.15625  C 6.579427083333335 11.694010416666666  6.734157986111112 12.122395833333332  7.043619791666666 12.441406250000002  C 7.353081597222222 12.760416666666666  7.767939814814815 12.919921875  8.288194444444445 12.919921875  C 8.539351851851853 12.919921875  8.799479166666668 12.865234374999998  9.06857638888889 12.755859375  C 9.33767361111111 12.646484375000002  9.55295138888889 12.500651041666664  9.714409722222223 12.318359375000002  C 9.678530092592592 12.427734375  9.660590277777777 12.523437500000002  9.660590277777777 12.605468750000002  C 9.660590277777777 12.75130208333333  9.718894675925927 12.824218749999998  9.835503472222223 12.824218749999998  L 10.76388888888889 12.824218749999998  Z M 17.04730902777778 9.064453125  C 17.065248842592595 9.046223958333332  17.07421875 9.014322916666666  17.07421875 8.96875  C 17.07421875 8.923177083333332  17.056278935185183 8.8798828125  17.020399305555554 8.8388671875  C 16.984519675925927 8.7978515625  16.944155092592595 8.77734375  16.899305555555554 8.77734375  L 15.86328125 8.77734375  C 15.764612268518519 8.77734375  15.683883101851853 8.822916666666666  15.62109375 8.9140625  L 14.194878472222223 11.046875000000002  L 13.602864583333332 8.99609375  C 13.558015046296298 8.850260416666666  13.459346064814815 8.77734375  13.30685763888889 8.77734375  L 12.297743055555555 8.77734375  C 12.252893518518519 8.77734375  12.212528935185187 8.7978515625  12.176649305555555 8.8388671875  C 12.140769675925927 8.8798828125  12.12282986111111 8.923177083333332  12.12282986111111 8.96875  C 12.12282986111111 8.986979166666666  12.210286458333332 9.255859375  12.385199652777777 9.775390625  C 12.560112847222223 10.294921875  12.748480902777777 10.855468749999998  12.950303819444445 11.457031250000002  C 13.15212673611111 12.05859375  13.257523148148149 12.377604166666664  13.266493055555555 12.414062499999998  C 12.530960648148149 13.434895833333332  12.163194444444445 13.98177083333333  12.163194444444445 14.054687499999998  C 12.163194444444445 14.173177083333332  12.221498842592592 14.232421875  12.33810763888889 14.232421875  L 13.374131944444445 14.232421875  C 13.47280092592593 14.232421875  13.553530092592593 14.18684895833333  13.616319444444445 14.095703124999998  L 17.04730902777778 9.064453125  Z M 21.52777777777778 10.1376953125  C 21.96730324074074 9.695638020833332  22.18706597222222 9.082682291666664  22.18706597222222 8.298828125  C 22.18706597222222 7.761067708333334  22.01439525462963 7.371419270833334  21.669053819444446 7.129882812499999  C 21.32371238425926 6.888346354166665  20.872974537037038 6.767578125  20.31684027777778 6.767578125  L 18.17751736111111 6.767578125  C 17.998119212962965 6.767578125  17.899450231481485 6.854166666666666  17.881510416666664 7.027343749999999  L 17.006944444444446 12.605468750000002  C 16.997974537037038 12.660156249999998  17.01142939814815 12.710286458333334  17.04730902777778 12.755859375  C 17.08318865740741 12.801432291666666  17.128038194444446 12.824218749999998  17.18185763888889 12.824218749999998  L 18.28515625 12.824218749999998  C 18.39279513888889 12.824218749999998  18.46455439814815 12.764973958333332  18.50043402777778 12.646484375000002  L 18.74262152777778 11.060546874999998  C 18.751591435185183 10.987630208333334  18.78298611111111 10.928385416666668  18.836805555555554 10.882812500000002  C 18.890625 10.837239583333332  18.957899305555554 10.8076171875  19.03862847222222 10.793945312499998  C 19.11935763888889 10.780273437500002  19.195601851851855 10.773437499999998  19.26736111111111 10.773437499999998  C 19.339120370370374 10.773437499999998  19.42433449074074 10.777994791666664  19.52300347222222 10.787109375  C 19.621672453703706 10.796223958333332  19.684461805555554 10.800781250000002  19.71137152777778 10.800781250000002  C 20.482783564814817 10.800781250000002  21.088252314814817 10.579752604166668  21.52777777777778 10.1376953125  Z M 26.04861111111111 12.824218749999998  C 26.219039351851855 12.824218749999998  26.317708333333336 12.737630208333332  26.344618055555554 12.564453125000002  L 26.89626736111111 8.99609375  C 26.90523726851852 8.94140625  26.89178240740741 8.891276041666666  26.85590277777778 8.845703125  C 26.82002314814815 8.800130208333332  26.775173611111114 8.77734375  26.721354166666664 8.77734375  L 25.69878472222222 8.77734375  C 25.573206018518523 8.77734375  25.496961805555557 8.927734375  25.470052083333336 9.228515625  C 25.23683449074074 8.863932291666666  24.81076388888889 8.681640625  24.19184027777778 8.681640625  C 23.546006944444446 8.681640625  22.99660011574074 8.927734375  22.543619791666664 9.419921875  C 22.090639467592595 9.912109375  21.864149305555554 10.490885416666666  21.864149305555554 11.15625  C 21.864149305555554 11.694010416666666  22.018880208333336 12.122395833333332  22.32834201388889 12.441406250000002  C 22.637803819444446 12.760416666666666  23.052662037037038 12.919921875  23.572916666666664 12.919921875  C 23.833043981481485 12.919921875  24.09765625 12.865234374999998  24.36675347222222 12.755859375  C 24.635850694444446 12.646484375000002  24.84664351851852 12.500651041666664  24.999131944444446 12.318359375000002  C 24.999131944444446 12.327473958333332  24.990162037037038 12.368489583333332  24.97222222222222 12.441406250000002  C 24.954282407407412 12.514322916666666  24.945312500000004 12.569010416666668  24.9453125 12.605468750000002  C 24.945312500000004 12.75130208333333  25.00361689814815 12.824218749999998  25.120225694444446 12.824218749999998  L 26.04861111111111 12.824218749999998  Z M 28.403211805555554 12.564453125000002  L 29.27777777777778 6.97265625  L 29.27777777777778 6.958984375000001  C 29.27777777777778 6.83138020833333  29.219473379629633 6.767578125  29.102864583333336 6.767578125  L 28.10720486111111 6.767578125  C 28.008535879629633 6.767578125  27.950231481481485 6.817708333333331  27.932291666666664 6.917968750000001  L 27.057725694444446 12.605468750000002  L 27.044270833333336 12.6328125  C 27.04427083333334 12.678385416666666  27.06221064814815 12.721679687499998  27.09809027777778 12.762695312499998  C 27.13396990740741 12.803710937499998  27.178819444444446 12.824218749999998  27.23263888888889 12.824218749999998  L 28.12065972222222 12.824218749999998  C 28.29108796296297 12.824218749999998  28.385271990740744 12.737630208333332  28.403211805555554 12.564453125000002  Z M 5.112847222222222 8.1416015625  C 5.274305555555555 8.24641927083333  5.328125 8.467447916666664  5.274305555555555 8.8046875  C 5.229456018518519 9.123697916666664  5.112847222222223 9.333333333333332  4.924479166666666 9.43359375  C 4.736111111111112 9.533854166666664  4.467013888888888 9.583984375  4.1171875 9.583984375  L 3.673177083333333 9.59765625  L 3.9019097222222223 8.134765625  C 3.9198495370370376 8.034505208333332  3.9781539351851856 7.984375000000001  4.076822916666666 7.984375000000001  L 4.332465277777778 7.984375000000001  C 4.691261574074074 7.984375000000001  4.951388888888888 8.036783854166664  5.112847222222222 8.1416015625  Z M 30.48871527777778 0.5195312500000008  C 30.82957175925926 0.8658854166666656  31 1.2760416666666656  31 1.7500000000000009  L 31 19.25  C 31 19.723958333333336  30.82957175925926 20.134114583333336  30.48871527777778 20.48046875  C 30.1478587962963 20.826822916666668  29.74421296296297 21  29.27777777777778 21  L 1.722222222222222 21  C 1.2557870370370372 21  0.8521412037037037 20.826822916666668  0.5112847222222222 20.48046875  C 0.17042824074074076 20.134114583333336  0 19.723958333333336  0 19.25  L 0 1.7500000000000009  C 0 1.2760416666666656  0.17042824074074076 0.8658854166666656  0.5112847222222222 0.5195312500000008  C 0.8521412037037037 0.17317708333333126  1.2557870370370372 0  1.722222222222222 0  L 29.27777777777778 0  C 29.74421296296297 0  30.1478587962963 0.17317708333333126  30.48871527777778 0.5195312500000008  Z " fill-rule="evenodd" />
    </mask>
  </defs>
  <g transform="matrix(1 0 0 1 -4630 -450 )">
    <path d="M 9.774956597222223 10.0146484375  C 9.94089988425926 10.1650390625  10.023871527777777 10.372395833333332  10.023871527777777 10.636718750000002  C 10.023871527777777 10.973958333333332  9.909505208333332 11.254231770833334  9.680772569444445 11.477539062500002  C 9.452039930555555 11.700846354166664  9.171730324074074 11.8125  8.83984375 11.8125  C 8.579716435185187 11.8125  8.371166087962964 11.739583333333332  8.214192708333332 11.593749999999998  C 8.057219328703704 11.447916666666666  7.978732638888888 11.247395833333332  7.978732638888888 10.9921875  C 7.978732638888888 10.654947916666664  8.090856481481483 10.3701171875  8.315104166666668 10.1376953125  C 8.539351851851853 9.9052734375  8.817418981481483 9.7890625  9.149305555555555 9.7890625  C 9.400462962962964 9.7890625  9.609013310185187 9.8642578125  9.774956597222223 10.0146484375  Z M 20.424479166666664 8.1826171875  C 20.532118055555554 8.2783203125  20.5859375 8.417317708333334  20.5859375 8.599609375  C 20.5859375 8.982421875  20.48726851851852 9.2421875  20.289930555555554 9.37890625  C 20.092592592592595 9.515625  19.79658564814815 9.583984375  19.40190972222222 9.583984375  L 18.971354166666664 9.59765625  L 19.200086805555554 8.134765625  C 19.218026620370374 8.034505208333332  19.27633101851852 7.984375000000001  19.375 7.984375000000001  L 19.6171875 7.984375000000001  C 19.814525462962965 7.984375000000001  19.971498842592595 7.993489583333332  20.08810763888889 8.01171875  C 20.204716435185183 8.029947916666666  20.31684027777778 8.0869140625  20.424479166666664 8.1826171875  Z M 25.059678819444446 10.0146484375  C 25.225622106481485 10.1650390625  25.308593750000004 10.372395833333332  25.30859375 10.636718750000002  C 25.308593750000004 10.964843750000002  25.194227430555557 11.242838541666666  24.965494791666664 11.470703124999998  C 24.736762152777782 11.698567708333332  24.460937500000004 11.8125  24.138020833333336 11.8125  C 23.87789351851852 11.8125  23.667100694444446 11.739583333333332  23.50564236111111 11.593749999999998  C 23.34418402777778 11.447916666666666  23.26345486111111 11.247395833333332  23.26345486111111 10.9921875  C 23.26345486111111 10.654947916666664  23.375578703703706 10.3701171875  23.59982638888889 10.1376953125  C 23.824074074074076 9.9052734375  24.102141203703706 9.7890625  24.43402777777778 9.7890625  C 24.685185185185183 9.7890625  24.89373553240741 9.8642578125  25.059678819444446 10.0146484375  Z M 6.243055555555555 10.1376953125  C 6.682581018518519 9.695638020833332  6.90234375 9.082682291666664  6.90234375 8.298828125  C 6.90234375 7.761067708333334  6.729673032407408 7.371419270833334  6.384331597222222 7.129882812499999  C 6.038990162037037 6.888346354166665  5.588252314814815 6.767578125  5.032118055555555 6.767578125  L 2.8793402777777777 6.767578125  C 2.7089120370370376 6.767578125  2.6147280092592595 6.854166666666666  2.596788194444444 7.027343749999999  L 1.722222222222222 12.605468750000002  C 1.7132523148148149 12.660156249999998  1.726707175925926 12.710286458333334  1.7625868055555556 12.755859375  C 1.7984664351851856 12.801432291666666  1.843315972222222 12.824218749999998  1.8971354166666665 12.824218749999998  L 2.919704861111111 12.824218749999998  C 3.0991030092592595 12.824218749999998  3.197771990740741 12.737630208333332  3.215711805555556 12.564453125000002  L 3.457899305555556 11.060546874999998  C 3.4668692129629632 10.987630208333334  3.498263888888889 10.928385416666668  3.552083333333333 10.882812500000002  C 3.6059027777777777 10.837239583333332  3.673177083333333 10.8076171875  3.75390625 10.793945312499998  C 3.834635416666667 10.780273437500002  3.9108796296296298 10.773437499999998  3.9826388888888884 10.773437499999998  C 4.054398148148149 10.773437499999998  4.139612268518519 10.777994791666664  4.23828125 10.787109375  C 4.336950231481482 10.796223958333332  4.399739583333334 10.800781250000002  4.426649305555555 10.800781250000002  C 5.1980613425925934 10.800781250000002  5.8035300925925934 10.579752604166668  6.243055555555555 10.1376953125  Z M 10.76388888888889 12.824218749999998  C 10.93431712962963 12.824218749999998  11.032986111111112 12.737630208333332  11.059895833333332 12.564453125000002  L 11.61154513888889 8.99609375  C 11.620515046296298 8.94140625  11.607060185185187 8.891276041666666  11.571180555555555 8.845703125  C 11.535300925925927 8.800130208333332  11.49045138888889 8.77734375  11.436631944444445 8.77734375  L 10.4140625 8.77734375  C 10.288483796296298 8.77734375  10.212239583333332 8.927734375  10.18532986111111 9.228515625  C 9.94314236111111 8.863932291666666  9.51707175925926 8.681640625  8.907118055555555 8.681640625  C 8.261284722222223 8.681640625  7.711877893518519 8.927734375  7.258897569444445 9.419921875  C 6.805917245370371 9.912109375  6.579427083333335 10.490885416666666  6.579427083333334 11.15625  C 6.579427083333335 11.694010416666666  6.734157986111112 12.122395833333332  7.043619791666666 12.441406250000002  C 7.353081597222222 12.760416666666666  7.767939814814815 12.919921875  8.288194444444445 12.919921875  C 8.539351851851853 12.919921875  8.799479166666668 12.865234374999998  9.06857638888889 12.755859375  C 9.33767361111111 12.646484375000002  9.55295138888889 12.500651041666664  9.714409722222223 12.318359375000002  C 9.678530092592592 12.427734375  9.660590277777777 12.523437500000002  9.660590277777777 12.605468750000002  C 9.660590277777777 12.75130208333333  9.718894675925927 12.824218749999998  9.835503472222223 12.824218749999998  L 10.76388888888889 12.824218749999998  Z M 17.04730902777778 9.064453125  C 17.065248842592595 9.046223958333332  17.07421875 9.014322916666666  17.07421875 8.96875  C 17.07421875 8.923177083333332  17.056278935185183 8.8798828125  17.020399305555554 8.8388671875  C 16.984519675925927 8.7978515625  16.944155092592595 8.77734375  16.899305555555554 8.77734375  L 15.86328125 8.77734375  C 15.764612268518519 8.77734375  15.683883101851853 8.822916666666666  15.62109375 8.9140625  L 14.194878472222223 11.046875000000002  L 13.602864583333332 8.99609375  C 13.558015046296298 8.850260416666666  13.459346064814815 8.77734375  13.30685763888889 8.77734375  L 12.297743055555555 8.77734375  C 12.252893518518519 8.77734375  12.212528935185187 8.7978515625  12.176649305555555 8.8388671875  C 12.140769675925927 8.8798828125  12.12282986111111 8.923177083333332  12.12282986111111 8.96875  C 12.12282986111111 8.986979166666666  12.210286458333332 9.255859375  12.385199652777777 9.775390625  C 12.560112847222223 10.294921875  12.748480902777777 10.855468749999998  12.950303819444445 11.457031250000002  C 13.15212673611111 12.05859375  13.257523148148149 12.377604166666664  13.266493055555555 12.414062499999998  C 12.530960648148149 13.434895833333332  12.163194444444445 13.98177083333333  12.163194444444445 14.054687499999998  C 12.163194444444445 14.173177083333332  12.221498842592592 14.232421875  12.33810763888889 14.232421875  L 13.374131944444445 14.232421875  C 13.47280092592593 14.232421875  13.553530092592593 14.18684895833333  13.616319444444445 14.095703124999998  L 17.04730902777778 9.064453125  Z M 21.52777777777778 10.1376953125  C 21.96730324074074 9.695638020833332  22.18706597222222 9.082682291666664  22.18706597222222 8.298828125  C 22.18706597222222 7.761067708333334  22.01439525462963 7.371419270833334  21.669053819444446 7.129882812499999  C 21.32371238425926 6.888346354166665  20.872974537037038 6.767578125  20.31684027777778 6.767578125  L 18.17751736111111 6.767578125  C 17.998119212962965 6.767578125  17.899450231481485 6.854166666666666  17.881510416666664 7.027343749999999  L 17.006944444444446 12.605468750000002  C 16.997974537037038 12.660156249999998  17.01142939814815 12.710286458333334  17.04730902777778 12.755859375  C 17.08318865740741 12.801432291666666  17.128038194444446 12.824218749999998  17.18185763888889 12.824218749999998  L 18.28515625 12.824218749999998  C 18.39279513888889 12.824218749999998  18.46455439814815 12.764973958333332  18.50043402777778 12.646484375000002  L 18.74262152777778 11.060546874999998  C 18.751591435185183 10.987630208333334  18.78298611111111 10.928385416666668  18.836805555555554 10.882812500000002  C 18.890625 10.837239583333332  18.957899305555554 10.8076171875  19.03862847222222 10.793945312499998  C 19.11935763888889 10.780273437500002  19.195601851851855 10.773437499999998  19.26736111111111 10.773437499999998  C 19.339120370370374 10.773437499999998  19.42433449074074 10.777994791666664  19.52300347222222 10.787109375  C 19.621672453703706 10.796223958333332  19.684461805555554 10.800781250000002  19.71137152777778 10.800781250000002  C 20.482783564814817 10.800781250000002  21.088252314814817 10.579752604166668  21.52777777777778 10.1376953125  Z M 26.04861111111111 12.824218749999998  C 26.219039351851855 12.824218749999998  26.317708333333336 12.737630208333332  26.344618055555554 12.564453125000002  L 26.89626736111111 8.99609375  C 26.90523726851852 8.94140625  26.89178240740741 8.891276041666666  26.85590277777778 8.845703125  C 26.82002314814815 8.800130208333332  26.775173611111114 8.77734375  26.721354166666664 8.77734375  L 25.69878472222222 8.77734375  C 25.573206018518523 8.77734375  25.496961805555557 8.927734375  25.470052083333336 9.228515625  C 25.23683449074074 8.863932291666666  24.81076388888889 8.681640625  24.19184027777778 8.681640625  C 23.546006944444446 8.681640625  22.99660011574074 8.927734375  22.543619791666664 9.419921875  C 22.090639467592595 9.912109375  21.864149305555554 10.490885416666666  21.864149305555554 11.15625  C 21.864149305555554 11.694010416666666  22.018880208333336 12.122395833333332  22.32834201388889 12.441406250000002  C 22.637803819444446 12.760416666666666  23.052662037037038 12.919921875  23.572916666666664 12.919921875  C 23.833043981481485 12.919921875  24.09765625 12.865234374999998  24.36675347222222 12.755859375  C 24.635850694444446 12.646484375000002  24.84664351851852 12.500651041666664  24.999131944444446 12.318359375000002  C 24.999131944444446 12.327473958333332  24.990162037037038 12.368489583333332  24.97222222222222 12.441406250000002  C 24.954282407407412 12.514322916666666  24.945312500000004 12.569010416666668  24.9453125 12.605468750000002  C 24.945312500000004 12.75130208333333  25.00361689814815 12.824218749999998  25.120225694444446 12.824218749999998  L 26.04861111111111 12.824218749999998  Z M 28.403211805555554 12.564453125000002  L 29.27777777777778 6.97265625  L 29.27777777777778 6.958984375000001  C 29.27777777777778 6.83138020833333  29.219473379629633 6.767578125  29.102864583333336 6.767578125  L 28.10720486111111 6.767578125  C 28.008535879629633 6.767578125  27.950231481481485 6.817708333333331  27.932291666666664 6.917968750000001  L 27.057725694444446 12.605468750000002  L 27.044270833333336 12.6328125  C 27.04427083333334 12.678385416666666  27.06221064814815 12.721679687499998  27.09809027777778 12.762695312499998  C 27.13396990740741 12.803710937499998  27.178819444444446 12.824218749999998  27.23263888888889 12.824218749999998  L 28.12065972222222 12.824218749999998  C 28.29108796296297 12.824218749999998  28.385271990740744 12.737630208333332  28.403211805555554 12.564453125000002  Z M 5.112847222222222 8.1416015625  C 5.274305555555555 8.24641927083333  5.328125 8.467447916666664  5.274305555555555 8.8046875  C 5.229456018518519 9.123697916666664  5.112847222222223 9.333333333333332  4.924479166666666 9.43359375  C 4.736111111111112 9.533854166666664  4.467013888888888 9.583984375  4.1171875 9.583984375  L 3.673177083333333 9.59765625  L 3.9019097222222223 8.134765625  C 3.9198495370370376 8.034505208333332  3.9781539351851856 7.984375000000001  4.076822916666666 7.984375000000001  L 4.332465277777778 7.984375000000001  C 4.691261574074074 7.984375000000001  4.951388888888888 8.036783854166664  5.112847222222222 8.1416015625  Z M 30.48871527777778 0.5195312500000008  C 30.82957175925926 0.8658854166666656  31 1.2760416666666656  31 1.7500000000000009  L 31 19.25  C 31 19.723958333333336  30.82957175925926 20.134114583333336  30.48871527777778 20.48046875  C 30.1478587962963 20.826822916666668  29.74421296296297 21  29.27777777777778 21  L 1.722222222222222 21  C 1.2557870370370372 21  0.8521412037037037 20.826822916666668  0.5112847222222222 20.48046875  C 0.17042824074074076 20.134114583333336  0 19.723958333333336  0 19.25  L 0 1.7500000000000009  C 0 1.2760416666666656  0.17042824074074076 0.8658854166666656  0.5112847222222222 0.5195312500000008  C 0.8521412037037037 0.17317708333333126  1.2557870370370372 0  1.722222222222222 0  L 29.27777777777778 0  C 29.74421296296297 0  30.1478587962963 0.17317708333333126  30.48871527777778 0.5195312500000008  Z " fill-rule="nonzero" fill="rgba(0, 0, 0, 1)" stroke="none" transform="matrix(1 0 0 1 4630 450 )" class="fill" />
    <path d="M 9.774956597222223 10.0146484375  C 9.94089988425926 10.1650390625  10.023871527777777 10.372395833333332  10.023871527777777 10.636718750000002  C 10.023871527777777 10.973958333333332  9.909505208333332 11.254231770833334  9.680772569444445 11.477539062500002  C 9.452039930555555 11.700846354166664  9.171730324074074 11.8125  8.83984375 11.8125  C 8.579716435185187 11.8125  8.371166087962964 11.739583333333332  8.214192708333332 11.593749999999998  C 8.057219328703704 11.447916666666666  7.978732638888888 11.247395833333332  7.978732638888888 10.9921875  C 7.978732638888888 10.654947916666664  8.090856481481483 10.3701171875  8.315104166666668 10.1376953125  C 8.539351851851853 9.9052734375  8.817418981481483 9.7890625  9.149305555555555 9.7890625  C 9.400462962962964 9.7890625  9.609013310185187 9.8642578125  9.774956597222223 10.0146484375  Z " stroke-width="0" stroke-dasharray="0" stroke="rgba(255, 255, 255, 0)" fill="none" transform="matrix(1 0 0 1 4630 450 )" class="stroke" mask="url(#Clip368)" />
    <path d="M 20.424479166666664 8.1826171875  C 20.532118055555554 8.2783203125  20.5859375 8.417317708333334  20.5859375 8.599609375  C 20.5859375 8.982421875  20.48726851851852 9.2421875  20.289930555555554 9.37890625  C 20.092592592592595 9.515625  19.79658564814815 9.583984375  19.40190972222222 9.583984375  L 18.971354166666664 9.59765625  L 19.200086805555554 8.134765625  C 19.218026620370374 8.034505208333332  19.27633101851852 7.984375000000001  19.375 7.984375000000001  L 19.6171875 7.984375000000001  C 19.814525462962965 7.984375000000001  19.971498842592595 7.993489583333332  20.08810763888889 8.01171875  C 20.204716435185183 8.029947916666666  20.31684027777778 8.0869140625  20.424479166666664 8.1826171875  Z " stroke-width="0" stroke-dasharray="0" stroke="rgba(255, 255, 255, 0)" fill="none" transform="matrix(1 0 0 1 4630 450 )" class="stroke" mask="url(#Clip368)" />
    <path d="M 25.059678819444446 10.0146484375  C 25.225622106481485 10.1650390625  25.308593750000004 10.372395833333332  25.30859375 10.636718750000002  C 25.308593750000004 10.964843750000002  25.194227430555557 11.242838541666666  24.965494791666664 11.470703124999998  C 24.736762152777782 11.698567708333332  24.460937500000004 11.8125  24.138020833333336 11.8125  C 23.87789351851852 11.8125  23.667100694444446 11.739583333333332  23.50564236111111 11.593749999999998  C 23.34418402777778 11.447916666666666  23.26345486111111 11.247395833333332  23.26345486111111 10.9921875  C 23.26345486111111 10.654947916666664  23.375578703703706 10.3701171875  23.59982638888889 10.1376953125  C 23.824074074074076 9.9052734375  24.102141203703706 9.7890625  24.43402777777778 9.7890625  C 24.685185185185183 9.7890625  24.89373553240741 9.8642578125  25.059678819444446 10.0146484375  Z " stroke-width="0" stroke-dasharray="0" stroke="rgba(255, 255, 255, 0)" fill="none" transform="matrix(1 0 0 1 4630 450 )" class="stroke" mask="url(#Clip368)" />
    <path d="M 6.243055555555555 10.1376953125  C 6.682581018518519 9.695638020833332  6.90234375 9.082682291666664  6.90234375 8.298828125  C 6.90234375 7.761067708333334  6.729673032407408 7.371419270833334  6.384331597222222 7.129882812499999  C 6.038990162037037 6.888346354166665  5.588252314814815 6.767578125  5.032118055555555 6.767578125  L 2.8793402777777777 6.767578125  C 2.7089120370370376 6.767578125  2.6147280092592595 6.854166666666666  2.596788194444444 7.027343749999999  L 1.722222222222222 12.605468750000002  C 1.7132523148148149 12.660156249999998  1.726707175925926 12.710286458333334  1.7625868055555556 12.755859375  C 1.7984664351851856 12.801432291666666  1.843315972222222 12.824218749999998  1.8971354166666665 12.824218749999998  L 2.919704861111111 12.824218749999998  C 3.0991030092592595 12.824218749999998  3.197771990740741 12.737630208333332  3.215711805555556 12.564453125000002  L 3.457899305555556 11.060546874999998  C 3.4668692129629632 10.987630208333334  3.498263888888889 10.928385416666668  3.552083333333333 10.882812500000002  C 3.6059027777777777 10.837239583333332  3.673177083333333 10.8076171875  3.75390625 10.793945312499998  C 3.834635416666667 10.780273437500002  3.9108796296296298 10.773437499999998  3.9826388888888884 10.773437499999998  C 4.054398148148149 10.773437499999998  4.139612268518519 10.777994791666664  4.23828125 10.787109375  C 4.336950231481482 10.796223958333332  4.399739583333334 10.800781250000002  4.426649305555555 10.800781250000002  C 5.1980613425925934 10.800781250000002  5.8035300925925934 10.579752604166668  6.243055555555555 10.1376953125  Z " stroke-width="0" stroke-dasharray="0" stroke="rgba(255, 255, 255, 0)" fill="none" transform="matrix(1 0 0 1 4630 450 )" class="stroke" mask="url(#Clip368)" />
    <path d="M 10.76388888888889 12.824218749999998  C 10.93431712962963 12.824218749999998  11.032986111111112 12.737630208333332  11.059895833333332 12.564453125000002  L 11.61154513888889 8.99609375  C 11.620515046296298 8.94140625  11.607060185185187 8.891276041666666  11.571180555555555 8.845703125  C 11.535300925925927 8.800130208333332  11.49045138888889 8.77734375  11.436631944444445 8.77734375  L 10.4140625 8.77734375  C 10.288483796296298 8.77734375  10.212239583333332 8.927734375  10.18532986111111 9.228515625  C 9.94314236111111 8.863932291666666  9.51707175925926 8.681640625  8.907118055555555 8.681640625  C 8.261284722222223 8.681640625  7.711877893518519 8.927734375  7.258897569444445 9.419921875  C 6.805917245370371 9.912109375  6.579427083333335 10.490885416666666  6.579427083333334 11.15625  C 6.579427083333335 11.694010416666666  6.734157986111112 12.122395833333332  7.043619791666666 12.441406250000002  C 7.353081597222222 12.760416666666666  7.767939814814815 12.919921875  8.288194444444445 12.919921875  C 8.539351851851853 12.919921875  8.799479166666668 12.865234374999998  9.06857638888889 12.755859375  C 9.33767361111111 12.646484375000002  9.55295138888889 12.500651041666664  9.714409722222223 12.318359375000002  C 9.678530092592592 12.427734375  9.660590277777777 12.523437500000002  9.660590277777777 12.605468750000002  C 9.660590277777777 12.75130208333333  9.718894675925927 12.824218749999998  9.835503472222223 12.824218749999998  L 10.76388888888889 12.824218749999998  Z " stroke-width="0" stroke-dasharray="0" stroke="rgba(255, 255, 255, 0)" fill="none" transform="matrix(1 0 0 1 4630 450 )" class="stroke" mask="url(#Clip368)" />
    <path d="M 17.04730902777778 9.064453125  C 17.065248842592595 9.046223958333332  17.07421875 9.014322916666666  17.07421875 8.96875  C 17.07421875 8.923177083333332  17.056278935185183 8.8798828125  17.020399305555554 8.8388671875  C 16.984519675925927 8.7978515625  16.944155092592595 8.77734375  16.899305555555554 8.77734375  L 15.86328125 8.77734375  C 15.764612268518519 8.77734375  15.683883101851853 8.822916666666666  15.62109375 8.9140625  L 14.194878472222223 11.046875000000002  L 13.602864583333332 8.99609375  C 13.558015046296298 8.850260416666666  13.459346064814815 8.77734375  13.30685763888889 8.77734375  L 12.297743055555555 8.77734375  C 12.252893518518519 8.77734375  12.212528935185187 8.7978515625  12.176649305555555 8.8388671875  C 12.140769675925927 8.8798828125  12.12282986111111 8.923177083333332  12.12282986111111 8.96875  C 12.12282986111111 8.986979166666666  12.210286458333332 9.255859375  12.385199652777777 9.775390625  C 12.560112847222223 10.294921875  12.748480902777777 10.855468749999998  12.950303819444445 11.457031250000002  C 13.15212673611111 12.05859375  13.257523148148149 12.377604166666664  13.266493055555555 12.414062499999998  C 12.530960648148149 13.434895833333332  12.163194444444445 13.98177083333333  12.163194444444445 14.054687499999998  C 12.163194444444445 14.173177083333332  12.221498842592592 14.232421875  12.33810763888889 14.232421875  L 13.374131944444445 14.232421875  C 13.47280092592593 14.232421875  13.553530092592593 14.18684895833333  13.616319444444445 14.095703124999998  L 17.04730902777778 9.064453125  Z " stroke-width="0" stroke-dasharray="0" stroke="rgba(255, 255, 255, 0)" fill="none" transform="matrix(1 0 0 1 4630 450 )" class="stroke" mask="url(#Clip368)" />
    <path d="M 21.52777777777778 10.1376953125  C 21.96730324074074 9.695638020833332  22.18706597222222 9.082682291666664  22.18706597222222 8.298828125  C 22.18706597222222 7.761067708333334  22.01439525462963 7.371419270833334  21.669053819444446 7.129882812499999  C 21.32371238425926 6.888346354166665  20.872974537037038 6.767578125  20.31684027777778 6.767578125  L 18.17751736111111 6.767578125  C 17.998119212962965 6.767578125  17.899450231481485 6.854166666666666  17.881510416666664 7.027343749999999  L 17.006944444444446 12.605468750000002  C 16.997974537037038 12.660156249999998  17.01142939814815 12.710286458333334  17.04730902777778 12.755859375  C 17.08318865740741 12.801432291666666  17.128038194444446 12.824218749999998  17.18185763888889 12.824218749999998  L 18.28515625 12.824218749999998  C 18.39279513888889 12.824218749999998  18.46455439814815 12.764973958333332  18.50043402777778 12.646484375000002  L 18.74262152777778 11.060546874999998  C 18.751591435185183 10.987630208333334  18.78298611111111 10.928385416666668  18.836805555555554 10.882812500000002  C 18.890625 10.837239583333332  18.957899305555554 10.8076171875  19.03862847222222 10.793945312499998  C 19.11935763888889 10.780273437500002  19.195601851851855 10.773437499999998  19.26736111111111 10.773437499999998  C 19.339120370370374 10.773437499999998  19.42433449074074 10.777994791666664  19.52300347222222 10.787109375  C 19.621672453703706 10.796223958333332  19.684461805555554 10.800781250000002  19.71137152777778 10.800781250000002  C 20.482783564814817 10.800781250000002  21.088252314814817 10.579752604166668  21.52777777777778 10.1376953125  Z " stroke-width="0" stroke-dasharray="0" stroke="rgba(255, 255, 255, 0)" fill="none" transform="matrix(1 0 0 1 4630 450 )" class="stroke" mask="url(#Clip368)" />
    <path d="M 26.04861111111111 12.824218749999998  C 26.219039351851855 12.824218749999998  26.317708333333336 12.737630208333332  26.344618055555554 12.564453125000002  L 26.89626736111111 8.99609375  C 26.90523726851852 8.94140625  26.89178240740741 8.891276041666666  26.85590277777778 8.845703125  C 26.82002314814815 8.800130208333332  26.775173611111114 8.77734375  26.721354166666664 8.77734375  L 25.69878472222222 8.77734375  C 25.573206018518523 8.77734375  25.496961805555557 8.927734375  25.470052083333336 9.228515625  C 25.23683449074074 8.863932291666666  24.81076388888889 8.681640625  24.19184027777778 8.681640625  C 23.546006944444446 8.681640625  22.99660011574074 8.927734375  22.543619791666664 9.419921875  C 22.090639467592595 9.912109375  21.864149305555554 10.490885416666666  21.864149305555554 11.15625  C 21.864149305555554 11.694010416666666  22.018880208333336 12.122395833333332  22.32834201388889 12.441406250000002  C 22.637803819444446 12.760416666666666  23.052662037037038 12.919921875  23.572916666666664 12.919921875  C 23.833043981481485 12.919921875  24.09765625 12.865234374999998  24.36675347222222 12.755859375  C 24.635850694444446 12.646484375000002  24.84664351851852 12.500651041666664  24.999131944444446 12.318359375000002  C 24.999131944444446 12.327473958333332  24.990162037037038 12.368489583333332  24.97222222222222 12.441406250000002  C 24.954282407407412 12.514322916666666  24.945312500000004 12.569010416666668  24.9453125 12.605468750000002  C 24.945312500000004 12.75130208333333  25.00361689814815 12.824218749999998  25.120225694444446 12.824218749999998  L 26.04861111111111 12.824218749999998  Z " stroke-width="0" stroke-dasharray="0" stroke="rgba(255, 255, 255, 0)" fill="none" transform="matrix(1 0 0 1 4630 450 )" class="stroke" mask="url(#Clip368)" />
    <path d="M 28.403211805555554 12.564453125000002  L 29.27777777777778 6.97265625  L 29.27777777777778 6.958984375000001  C 29.27777777777778 6.83138020833333  29.219473379629633 6.767578125  29.102864583333336 6.767578125  L 28.10720486111111 6.767578125  C 28.008535879629633 6.767578125  27.950231481481485 6.817708333333331  27.932291666666664 6.917968750000001  L 27.057725694444446 12.605468750000002  L 27.044270833333336 12.6328125  C 27.04427083333334 12.678385416666666  27.06221064814815 12.721679687499998  27.09809027777778 12.762695312499998  C 27.13396990740741 12.803710937499998  27.178819444444446 12.824218749999998  27.23263888888889 12.824218749999998  L 28.12065972222222 12.824218749999998  C 28.29108796296297 12.824218749999998  28.385271990740744 12.737630208333332  28.403211805555554 12.564453125000002  Z " stroke-width="0" stroke-dasharray="0" stroke="rgba(255, 255, 255, 0)" fill="none" transform="matrix(1 0 0 1 4630 450 )" class="stroke" mask="url(#Clip368)" />
    <path d="M 5.112847222222222 8.1416015625  C 5.274305555555555 8.24641927083333  5.328125 8.467447916666664  5.274305555555555 8.8046875  C 5.229456018518519 9.123697916666664  5.112847222222223 9.333333333333332  4.924479166666666 9.43359375  C 4.736111111111112 9.533854166666664  4.467013888888888 9.583984375  4.1171875 9.583984375  L 3.673177083333333 9.59765625  L 3.9019097222222223 8.134765625  C 3.9198495370370376 8.034505208333332  3.9781539351851856 7.984375000000001  4.076822916666666 7.984375000000001  L 4.332465277777778 7.984375000000001  C 4.691261574074074 7.984375000000001  4.951388888888888 8.036783854166664  5.112847222222222 8.1416015625  Z " stroke-width="0" stroke-dasharray="0" stroke="rgba(255, 255, 255, 0)" fill="none" transform="matrix(1 0 0 1 4630 450 )" class="stroke" mask="url(#Clip368)" />
    <path d="M 30.48871527777778 0.5195312500000008  C 30.82957175925926 0.8658854166666656  31 1.2760416666666656  31 1.7500000000000009  L 31 19.25  C 31 19.723958333333336  30.82957175925926 20.134114583333336  30.48871527777778 20.48046875  C 30.1478587962963 20.826822916666668  29.74421296296297 21  29.27777777777778 21  L 1.722222222222222 21  C 1.2557870370370372 21  0.8521412037037037 20.826822916666668  0.5112847222222222 20.48046875  C 0.17042824074074076 20.134114583333336  0 19.723958333333336  0 19.25  L 0 1.7500000000000009  C 0 1.2760416666666656  0.17042824074074076 0.8658854166666656  0.5112847222222222 0.5195312500000008  C 0.8521412037037037 0.17317708333333126  1.2557870370370372 0  1.722222222222222 0  L 29.27777777777778 0  C 29.74421296296297 0  30.1478587962963 0.17317708333333126  30.48871527777778 0.5195312500000008  Z " stroke-width="0" stroke-dasharray="0" stroke="rgba(255, 255, 255, 0)" fill="none" transform="matrix(1 0 0 1 4630 450 )" class="stroke" mask="url(#Clip368)" />
  </g>
</svg>