<?xml version="1.0" encoding="utf-8"?>
<svg version="1.1" xmlns:xlink="http://www.w3.org/1999/xlink" width="20px" height="20px" xmlns="http://www.w3.org/2000/svg">
  <defs>
    <pattern id="BGPattern" patternUnits="userSpaceOnUse" alignment="0 0" imageRepeat="None" />
    <mask fill="white" id="Clip370">
      <path d="M 14.713541666666668 13.541666666666664  C 14.878472222222223 13.37673611111111  14.9609375 13.177083333333336  14.9609375 12.942708333333336  C 14.9609375 12.71701388888889  14.878472222222223 12.52170138888889  14.713541666666668 12.356770833333336  L 12.356770833333332 10  L 14.713541666666668 7.643229166666668  C 14.878472222222223 7.478298611111109  14.9609375 7.282986111111109  14.9609375 7.057291666666668  C 14.9609375 6.822916666666668  14.878472222222223 6.623263888888886  14.713541666666668 6.458333333333332  L 13.541666666666668 5.286458333333332  C 13.376736111111114 5.121527777777777  13.177083333333332 5.0390625  12.942708333333332 5.0390625  C 12.717013888888891 5.0390625  12.521701388888891 5.121527777777777  12.356770833333332 5.286458333333332  L 10 7.643229166666668  L 7.643229166666666 5.286458333333332  C 7.478298611111112 5.121527777777777  7.282986111111112 5.0390625  7.057291666666666 5.0390625  C 6.822916666666666 5.0390625  6.623263888888889 5.121527777777777  6.458333333333334 5.286458333333332  L 5.286458333333334 6.458333333333332  C 5.121527777777778 6.623263888888886  5.039062500000001 6.822916666666668  5.0390625 7.057291666666668  C 5.039062500000001 7.282986111111109  5.121527777777778 7.478298611111109  5.286458333333334 7.643229166666668  L 7.643229166666666 10  L 5.286458333333334 12.356770833333336  C 5.121527777777778 12.52170138888889  5.039062500000001 12.71701388888889  5.0390625 12.942708333333336  C 5.039062500000001 13.177083333333336  5.121527777777778 13.37673611111111  5.286458333333334 13.541666666666664  L 6.458333333333334 14.713541666666664  C 6.623263888888889 14.878472222222218  6.822916666666666 14.9609375  7.057291666666666 14.9609375  C 7.282986111111112 14.9609375  7.478298611111112 14.878472222222218  7.643229166666666 14.713541666666664  L 10 12.356770833333336  L 12.356770833333332 14.713541666666664  C 12.521701388888891 14.878472222222218  12.717013888888891 14.9609375  12.942708333333332 14.9609375  C 13.177083333333332 14.9609375  13.376736111111114 14.878472222222218  13.541666666666668 14.713541666666664  L 14.713541666666668 13.541666666666664  Z M 18.658854166666668 4.98046875  C 19.552951388888886 6.512586805555554  20 8.185763888888886  20 10  C 20 11.81423611111111  19.552951388888886 13.487413194444443  18.658854166666668 15.01953125  C 17.764756944444446 16.551649305555557  16.551649305555557 17.764756944444443  15.01953125 18.658854166666668  C 13.487413194444446 19.55295138888889  11.81423611111111 20  10 20  C 8.18576388888889 20  6.512586805555555 19.55295138888889  4.98046875 18.658854166666668  C 3.4483506944444446 17.764756944444443  2.235243055555556 16.551649305555557  1.3411458333333335 15.01953125  C 0.44704861111111105 13.487413194444443  0 11.81423611111111  0 10  C 0 8.185763888888886  0.44704861111111105 6.512586805555554  1.3411458333333335 4.98046875  C 2.235243055555556 3.448350694444444  3.4483506944444446 2.2352430555555536  4.98046875 1.3411458333333326  C 6.512586805555555 0.4470486111111094  8.18576388888889 0  10 0  C 11.81423611111111 0  13.487413194444446 0.4470486111111094  15.01953125 1.3411458333333326  C 16.551649305555557 2.2352430555555536  17.764756944444446 3.448350694444444  18.658854166666668 4.98046875  Z " fill-rule="evenodd" />
    </mask>
  </defs>
  <g transform="matrix(1 0 0 1 -1552 -1015 )">
    <path d="M 14.713541666666668 13.541666666666664  C 14.878472222222223 13.37673611111111  14.9609375 13.177083333333336  14.9609375 12.942708333333336  C 14.9609375 12.71701388888889  14.878472222222223 12.52170138888889  14.713541666666668 12.356770833333336  L 12.356770833333332 10  L 14.713541666666668 7.643229166666668  C 14.878472222222223 7.478298611111109  14.9609375 7.282986111111109  14.9609375 7.057291666666668  C 14.9609375 6.822916666666668  14.878472222222223 6.623263888888886  14.713541666666668 6.458333333333332  L 13.541666666666668 5.286458333333332  C 13.376736111111114 5.121527777777777  13.177083333333332 5.0390625  12.942708333333332 5.0390625  C 12.717013888888891 5.0390625  12.521701388888891 5.121527777777777  12.356770833333332 5.286458333333332  L 10 7.643229166666668  L 7.643229166666666 5.286458333333332  C 7.478298611111112 5.121527777777777  7.282986111111112 5.0390625  7.057291666666666 5.0390625  C 6.822916666666666 5.0390625  6.623263888888889 5.121527777777777  6.458333333333334 5.286458333333332  L 5.286458333333334 6.458333333333332  C 5.121527777777778 6.623263888888886  5.039062500000001 6.822916666666668  5.0390625 7.057291666666668  C 5.039062500000001 7.282986111111109  5.121527777777778 7.478298611111109  5.286458333333334 7.643229166666668  L 7.643229166666666 10  L 5.286458333333334 12.356770833333336  C 5.121527777777778 12.52170138888889  5.039062500000001 12.71701388888889  5.0390625 12.942708333333336  C 5.039062500000001 13.177083333333336  5.121527777777778 13.37673611111111  5.286458333333334 13.541666666666664  L 6.458333333333334 14.713541666666664  C 6.623263888888889 14.878472222222218  6.822916666666666 14.9609375  7.057291666666666 14.9609375  C 7.282986111111112 14.9609375  7.478298611111112 14.878472222222218  7.643229166666666 14.713541666666664  L 10 12.356770833333336  L 12.356770833333332 14.713541666666664  C 12.521701388888891 14.878472222222218  12.717013888888891 14.9609375  12.942708333333332 14.9609375  C 13.177083333333332 14.9609375  13.376736111111114 14.878472222222218  13.541666666666668 14.713541666666664  L 14.713541666666668 13.541666666666664  Z M 18.658854166666668 4.98046875  C 19.552951388888886 6.512586805555554  20 8.185763888888886  20 10  C 20 11.81423611111111  19.552951388888886 13.487413194444443  18.658854166666668 15.01953125  C 17.764756944444446 16.551649305555557  16.551649305555557 17.764756944444443  15.01953125 18.658854166666668  C 13.487413194444446 19.55295138888889  11.81423611111111 20  10 20  C 8.18576388888889 20  6.512586805555555 19.55295138888889  4.98046875 18.658854166666668  C 3.4483506944444446 17.764756944444443  2.235243055555556 16.551649305555557  1.3411458333333335 15.01953125  C 0.44704861111111105 13.487413194444443  0 11.81423611111111  0 10  C 0 8.185763888888886  0.44704861111111105 6.512586805555554  1.3411458333333335 4.98046875  C 2.235243055555556 3.448350694444444  3.4483506944444446 2.2352430555555536  4.98046875 1.3411458333333326  C 6.512586805555555 0.4470486111111094  8.18576388888889 0  10 0  C 11.81423611111111 0  13.487413194444446 0.4470486111111094  15.01953125 1.3411458333333326  C 16.551649305555557 2.2352430555555536  17.764756944444446 3.448350694444444  18.658854166666668 4.98046875  Z " fill-rule="nonzero" fill="rgba(215, 215, 215, 1)" stroke="none" transform="matrix(1 0 0 1 1552 1015 )" class="fill" />
    <path d="M 14.713541666666668 13.541666666666664  C 14.878472222222223 13.37673611111111  14.9609375 13.177083333333336  14.9609375 12.942708333333336  C 14.9609375 12.71701388888889  14.878472222222223 12.52170138888889  14.713541666666668 12.356770833333336  L 12.356770833333332 10  L 14.713541666666668 7.643229166666668  C 14.878472222222223 7.478298611111109  14.9609375 7.282986111111109  14.9609375 7.057291666666668  C 14.9609375 6.822916666666668  14.878472222222223 6.623263888888886  14.713541666666668 6.458333333333332  L 13.541666666666668 5.286458333333332  C 13.376736111111114 5.121527777777777  13.177083333333332 5.0390625  12.942708333333332 5.0390625  C 12.717013888888891 5.0390625  12.521701388888891 5.121527777777777  12.356770833333332 5.286458333333332  L 10 7.643229166666668  L 7.643229166666666 5.286458333333332  C 7.478298611111112 5.121527777777777  7.282986111111112 5.0390625  7.057291666666666 5.0390625  C 6.822916666666666 5.0390625  6.623263888888889 5.121527777777777  6.458333333333334 5.286458333333332  L 5.286458333333334 6.458333333333332  C 5.121527777777778 6.623263888888886  5.039062500000001 6.822916666666668  5.0390625 7.057291666666668  C 5.039062500000001 7.282986111111109  5.121527777777778 7.478298611111109  5.286458333333334 7.643229166666668  L 7.643229166666666 10  L 5.286458333333334 12.356770833333336  C 5.121527777777778 12.52170138888889  5.039062500000001 12.71701388888889  5.0390625 12.942708333333336  C 5.039062500000001 13.177083333333336  5.121527777777778 13.37673611111111  5.286458333333334 13.541666666666664  L 6.458333333333334 14.713541666666664  C 6.623263888888889 14.878472222222218  6.822916666666666 14.9609375  7.057291666666666 14.9609375  C 7.282986111111112 14.9609375  7.478298611111112 14.878472222222218  7.643229166666666 14.713541666666664  L 10 12.356770833333336  L 12.356770833333332 14.713541666666664  C 12.521701388888891 14.878472222222218  12.717013888888891 14.9609375  12.942708333333332 14.9609375  C 13.177083333333332 14.9609375  13.376736111111114 14.878472222222218  13.541666666666668 14.713541666666664  L 14.713541666666668 13.541666666666664  Z " stroke-width="0" stroke-dasharray="0" stroke="rgba(255, 255, 255, 0)" fill="none" transform="matrix(1 0 0 1 1552 1015 )" class="stroke" mask="url(#Clip370)" />
    <path d="M 18.658854166666668 4.98046875  C 19.552951388888886 6.512586805555554  20 8.185763888888886  20 10  C 20 11.81423611111111  19.552951388888886 13.487413194444443  18.658854166666668 15.01953125  C 17.764756944444446 16.551649305555557  16.551649305555557 17.764756944444443  15.01953125 18.658854166666668  C 13.487413194444446 19.55295138888889  11.81423611111111 20  10 20  C 8.18576388888889 20  6.512586805555555 19.55295138888889  4.98046875 18.658854166666668  C 3.4483506944444446 17.764756944444443  2.235243055555556 16.551649305555557  1.3411458333333335 15.01953125  C 0.44704861111111105 13.487413194444443  0 11.81423611111111  0 10  C 0 8.185763888888886  0.44704861111111105 6.512586805555554  1.3411458333333335 4.98046875  C 2.235243055555556 3.448350694444444  3.4483506944444446 2.2352430555555536  4.98046875 1.3411458333333326  C 6.512586805555555 0.4470486111111094  8.18576388888889 0  10 0  C 11.81423611111111 0  13.487413194444446 0.4470486111111094  15.01953125 1.3411458333333326  C 16.551649305555557 2.2352430555555536  17.764756944444446 3.448350694444444  18.658854166666668 4.98046875  Z " stroke-width="0" stroke-dasharray="0" stroke="rgba(255, 255, 255, 0)" fill="none" transform="matrix(1 0 0 1 1552 1015 )" class="stroke" mask="url(#Clip370)" />
  </g>
</svg>