<?xml version="1.0" encoding="utf-8"?>
<svg version="1.1" xmlns:xlink="http://www.w3.org/1999/xlink" width="26px" height="22px" xmlns="http://www.w3.org/2000/svg">
  <defs>
    <pattern id="BGPattern" patternUnits="userSpaceOnUse" alignment="0 0" imageRepeat="None" />
    <mask fill="white" id="Clip371">
      <path d="M 13.638392857142856 21.7421875  C 13.464285714285715 21.9140625  13.251488095238095 22  13 22  C 12.748511904761905 22  12.535714285714288 21.9140625  12.361607142857142 21.7421875  L 3.308035714285714 13.119791666666668  C 3.2113095238095237 13.043402777777777  3.0783110119047623 12.919270833333332  2.9090401785714284 12.747395833333332  C 2.7397693452380953 12.575520833333332  2.471354166666667 12.262803819444446  2.103794642857143 11.809244791666668  C 1.736235119047619 11.355685763888886  1.4073660714285714 10.89019097222222  1.1171875 10.412760416666666  C 0.8270089285714285 9.93532986111111  0.5682663690476191 9.35763888888889  0.34095982142857145 8.6796875  C 0.11365327380952381 8.001736111111109  0 7.342881944444443  0 6.703125  C 0 4.6024305555555545  0.6142113095238094 2.960069444444443  1.8426339285714286 1.7760416666666659  C 3.071056547619048 0.5920138888888886  4.76860119047619 0  6.935267857142858 0  C 7.534970238095238 0  8.146763392857142 0.10264756944444309  8.770647321428571 0.30794270833333415  C 9.39453125 0.5132378472222203  9.974888392857142 0.7901475694444431  10.51171875 1.138671875  C 11.04854910714286 1.4871961805555545  11.51041666666667 1.814236111111109  11.897321428571429 2.119791666666666  C 12.284226190476192 2.4253472222222205  12.651785714285714 2.75  13 3.09375  C 13.348214285714285 2.75  13.715773809523812 2.4253472222222205  14.102678571428571 2.119791666666666  C 14.489583333333336 1.814236111111109  14.951450892857144 1.4871961805555545  15.48828125 1.138671875  C 16.025111607142858 0.7901475694444431  16.60546875 0.5132378472222203  17.229352678571427 0.30794270833333415  C 17.853236607142858 0.10264756944444309  18.465029761904763 0  19.064732142857142 0  C 21.23139880952381 0  22.928943452380956 0.5920138888888886  24.157366071428573 1.7760416666666659  C 25.38578869047619 2.960069444444443  26 4.6024305555555545  26 6.703125  C 26 8.813368055555554  24.89248511904762 10.961805555555554  22.677455357142858 13.1484375  L 13.638392857142856 21.7421875  Z " fill-rule="evenodd" />
    </mask>
  </defs>
  <g transform="matrix(1 0 0 1 -4461 -2059 )">
    <path d="M 13.638392857142856 21.7421875  C 13.464285714285715 21.9140625  13.251488095238095 22  13 22  C 12.748511904761905 22  12.535714285714288 21.9140625  12.361607142857142 21.7421875  L 3.308035714285714 13.119791666666668  C 3.2113095238095237 13.043402777777777  3.0783110119047623 12.919270833333332  2.9090401785714284 12.747395833333332  C 2.7397693452380953 12.575520833333332  2.471354166666667 12.262803819444446  2.103794642857143 11.809244791666668  C 1.736235119047619 11.355685763888886  1.4073660714285714 10.89019097222222  1.1171875 10.412760416666666  C 0.8270089285714285 9.93532986111111  0.5682663690476191 9.35763888888889  0.34095982142857145 8.6796875  C 0.11365327380952381 8.001736111111109  0 7.342881944444443  0 6.703125  C 0 4.6024305555555545  0.6142113095238094 2.960069444444443  1.8426339285714286 1.7760416666666659  C 3.071056547619048 0.5920138888888886  4.76860119047619 0  6.935267857142858 0  C 7.534970238095238 0  8.146763392857142 0.10264756944444309  8.770647321428571 0.30794270833333415  C 9.39453125 0.5132378472222203  9.974888392857142 0.7901475694444431  10.51171875 1.138671875  C 11.04854910714286 1.4871961805555545  11.51041666666667 1.814236111111109  11.897321428571429 2.119791666666666  C 12.284226190476192 2.4253472222222205  12.651785714285714 2.75  13 3.09375  C 13.348214285714285 2.75  13.715773809523812 2.4253472222222205  14.102678571428571 2.119791666666666  C 14.489583333333336 1.814236111111109  14.951450892857144 1.4871961805555545  15.48828125 1.138671875  C 16.025111607142858 0.7901475694444431  16.60546875 0.5132378472222203  17.229352678571427 0.30794270833333415  C 17.853236607142858 0.10264756944444309  18.465029761904763 0  19.064732142857142 0  C 21.23139880952381 0  22.928943452380956 0.5920138888888886  24.157366071428573 1.7760416666666659  C 25.38578869047619 2.960069444444443  26 4.6024305555555545  26 6.703125  C 26 8.813368055555554  24.89248511904762 10.961805555555554  22.677455357142858 13.1484375  L 13.638392857142856 21.7421875  Z " fill-rule="nonzero" fill="rgba(0, 0, 0, 1)" stroke="none" transform="matrix(1 0 0 1 4461 2059 )" class="fill" />
    <path d="M 13.638392857142856 21.7421875  C 13.464285714285715 21.9140625  13.251488095238095 22  13 22  C 12.748511904761905 22  12.535714285714288 21.9140625  12.361607142857142 21.7421875  L 3.308035714285714 13.119791666666668  C 3.2113095238095237 13.043402777777777  3.0783110119047623 12.919270833333332  2.9090401785714284 12.747395833333332  C 2.7397693452380953 12.575520833333332  2.471354166666667 12.262803819444446  2.103794642857143 11.809244791666668  C 1.736235119047619 11.355685763888886  1.4073660714285714 10.89019097222222  1.1171875 10.412760416666666  C 0.8270089285714285 9.93532986111111  0.5682663690476191 9.35763888888889  0.34095982142857145 8.6796875  C 0.11365327380952381 8.001736111111109  0 7.342881944444443  0 6.703125  C 0 4.6024305555555545  0.6142113095238094 2.960069444444443  1.8426339285714286 1.7760416666666659  C 3.071056547619048 0.5920138888888886  4.76860119047619 0  6.935267857142858 0  C 7.534970238095238 0  8.146763392857142 0.10264756944444309  8.770647321428571 0.30794270833333415  C 9.39453125 0.5132378472222203  9.974888392857142 0.7901475694444431  10.51171875 1.138671875  C 11.04854910714286 1.4871961805555545  11.51041666666667 1.814236111111109  11.897321428571429 2.119791666666666  C 12.284226190476192 2.4253472222222205  12.651785714285714 2.75  13 3.09375  C 13.348214285714285 2.75  13.715773809523812 2.4253472222222205  14.102678571428571 2.119791666666666  C 14.489583333333336 1.814236111111109  14.951450892857144 1.4871961805555545  15.48828125 1.138671875  C 16.025111607142858 0.7901475694444431  16.60546875 0.5132378472222203  17.229352678571427 0.30794270833333415  C 17.853236607142858 0.10264756944444309  18.465029761904763 0  19.064732142857142 0  C 21.23139880952381 0  22.928943452380956 0.5920138888888886  24.157366071428573 1.7760416666666659  C 25.38578869047619 2.960069444444443  26 4.6024305555555545  26 6.703125  C 26 8.813368055555554  24.89248511904762 10.961805555555554  22.677455357142858 13.1484375  L 13.638392857142856 21.7421875  Z " stroke-width="0" stroke-dasharray="0" stroke="rgba(255, 255, 255, 0)" fill="none" transform="matrix(1 0 0 1 4461 2059 )" class="stroke" mask="url(#Clip371)" />
  </g>
</svg>