<?xml version="1.0" encoding="utf-8"?>
<svg version="1.1" xmlns:xlink="http://www.w3.org/1999/xlink" width="20px" height="15px" xmlns="http://www.w3.org/2000/svg">
  <defs>
    <pattern id="BGPattern" patternUnits="userSpaceOnUse" alignment="0 0" imageRepeat="None" />
    <mask fill="white" id="Clip373">
      <path d="M 18.465401785714285 13.53515625  C 18.53608630952381 13.46768465909091  18.571428571428573 13.387784090909092  18.571428571428573 13.295454545454545  L 18.571428571428573 5.113636363636364  C 18.333333333333336 5.369318181818182  18.07663690476191 5.603693181818182  17.801339285714285 5.816761363636364  C 15.807291666666668 7.279829545454544  14.222470238095239 8.480113636363637  13.046875 9.417613636363637  C 12.667410714285714 9.723011363636362  12.358630952380953 9.9609375  12.120535714285714 10.131392045454545  C 11.882440476190476 10.30184659090909  11.560639880952383 10.474076704545453  11.155133928571427 10.648082386363637  C 10.749627976190476 10.822088068181818  10.368303571428573 10.90909090909091  10.011160714285714 10.90909090909091  L 10 10.90909090909091  L 9.988839285714286 10.90909090909091  C 9.631696428571429 10.90909090909091  9.250372023809524 10.822088068181818  8.844866071428571 10.648082386363637  C 8.43936011904762 10.474076704545453  8.117559523809524 10.30184659090909  7.8794642857142865 10.131392045454545  C 7.641369047619049 9.9609375  7.3325892857142865 9.723011363636362  6.953125 9.417613636363637  C 5.777529761904763 8.480113636363637  4.192708333333334 7.279829545454544  2.1986607142857144 5.816761363636364  C 1.9233630952380953 5.603693181818182  1.666666666666667 5.369318181818182  1.4285714285714284 5.113636363636364  L 1.4285714285714284 13.295454545454545  C 1.4285714285714284 13.387784090909092  1.4639136904761907 13.46768465909091  1.5345982142857142 13.53515625  C 1.6052827380952381 13.60262784090909  1.6889880952380953 13.636363636363637  1.7857142857142858 13.636363636363637  L 18.214285714285715 13.636363636363637  C 18.311011904761905 13.636363636363637  18.394717261904763 13.60262784090909  18.465401785714285 13.53515625  Z M 18.052455357142858 3.499644886363636  C 18.3984375 2.984730113636362  18.571428571428573 2.5177556818181817  18.571428571428573 2.098721590909091  L 18.571428571428573 1.9815340909090906  L 18.571428571428573 1.8377130681818188  C 18.571428571428573 1.8377130681818188  18.569568452380953 1.7915482954545432  18.565848214285715 1.69921875  C 18.562127976190478 1.6068892045454537  18.550967261904763 1.5624999999999978  18.532366071428573 1.5660511363636358  C 18.513764880952383 1.5696022727272725  18.493303571428573 1.537642045454544  18.470982142857142 1.4701704545454546  C 18.448660714285715 1.402698863636362  18.415178571428573 1.37606534090909  18.370535714285715 1.3902698863636358  C 18.325892857142858 1.4044744318181817  18.273809523809526 1.3955965909090906  18.214285714285715 1.3636363636363642  L 1.7857142857142858 1.3636363636363642  C 1.6889880952380953 1.3636363636363642  1.6052827380952381 1.3973721590909072  1.5345982142857142 1.46484375  C 1.4639136904761907 1.5323153409090895  1.4285714285714284 1.6122159090909083  1.4285714285714284 1.7045454545454546  C 1.4285714285714284 2.8977272727272734  1.9754464285714284 3.906249999999998  3.0691964285714284 4.730113636363636  C 4.505208333333334 5.80965909090909  5.99702380952381 6.935369318181818  7.544642857142857 8.107244318181818  C 7.5892857142857135 8.14275568181818  7.719494047619049 8.247514204545453  7.935267857142857 8.421519886363637  C 8.151041666666668 8.595525568181818  8.32217261904762 8.72869318181818  8.448660714285714 8.821022727272728  C 8.575148809523812 8.913352272727272  8.740699404761905 9.025213068181817  8.9453125 9.156605113636363  C 9.149925595238095 9.287997159090908  9.33779761904762 9.38565340909091  9.508928571428571 9.449573863636363  C 9.680059523809524 9.513494318181818  9.840029761904763 9.545454545454545  9.988839285714286 9.545454545454545  L 10 9.545454545454545  L 10.011160714285714 9.545454545454545  C 10.159970238095239 9.545454545454545  10.319940476190476 9.513494318181818  10.491071428571427 9.449573863636363  C 10.662202380952383 9.38565340909091  10.850074404761905 9.287997159090908  11.0546875 9.156605113636363  C 11.259300595238095 9.025213068181817  11.42485119047619 8.913352272727272  11.551339285714286 8.821022727272728  C 11.677827380952383 8.72869318181818  11.848958333333336 8.595525568181818  12.064732142857142 8.421519886363637  C 12.280505952380953 8.247514204545453  12.410714285714286 8.14275568181818  12.455357142857142 8.107244318181818  C 14.00297619047619 6.935369318181818  15.494791666666668 5.80965909090909  16.930803571428573 4.730113636363636  C 17.332589285714285 4.424715909090908  17.706473214285715 4.014559659090908  18.052455357142858 3.499644886363636  Z M 19.475446428571427 0.5007102272727265  C 19.82514880952381 0.8345170454545442  20 1.2357954545454546  20 1.7045454545454546  L 20 13.295454545454545  C 20 13.764204545454545  19.82514880952381 14.165482954545455  19.475446428571427 14.499289772727273  C 19.12574404761905 14.83309659090909  18.705357142857146 15  18.214285714285715 15  L 1.7857142857142858 15  C 1.2946428571428572 15  0.8742559523809524 14.83309659090909  0.5245535714285714 14.499289772727273  C 0.17485119047619047 14.165482954545455  0 13.764204545454545  0 13.295454545454545  L 0 1.7045454545454546  C 0 1.2357954545454546  0.17485119047619047 0.8345170454545442  0.5245535714285714 0.5007102272727265  C 0.8742559523809524 0.16690340909090717  1.2946428571428572 0  1.7857142857142858 0  L 18.214285714285715 0  C 18.705357142857146 0  19.12574404761905 0.16690340909090717  19.475446428571427 0.5007102272727265  Z " fill-rule="evenodd" />
    </mask>
  </defs>
  <g transform="matrix(1 0 0 1 -857 -3744 )">
    <path d="M 18.465401785714285 13.53515625  C 18.53608630952381 13.46768465909091  18.571428571428573 13.387784090909092  18.571428571428573 13.295454545454545  L 18.571428571428573 5.113636363636364  C 18.333333333333336 5.369318181818182  18.07663690476191 5.603693181818182  17.801339285714285 5.816761363636364  C 15.807291666666668 7.279829545454544  14.222470238095239 8.480113636363637  13.046875 9.417613636363637  C 12.667410714285714 9.723011363636362  12.358630952380953 9.9609375  12.120535714285714 10.131392045454545  C 11.882440476190476 10.30184659090909  11.560639880952383 10.474076704545453  11.155133928571427 10.648082386363637  C 10.749627976190476 10.822088068181818  10.368303571428573 10.90909090909091  10.011160714285714 10.90909090909091  L 10 10.90909090909091  L 9.988839285714286 10.90909090909091  C 9.631696428571429 10.90909090909091  9.250372023809524 10.822088068181818  8.844866071428571 10.648082386363637  C 8.43936011904762 10.474076704545453  8.117559523809524 10.30184659090909  7.8794642857142865 10.131392045454545  C 7.641369047619049 9.9609375  7.3325892857142865 9.723011363636362  6.953125 9.417613636363637  C 5.777529761904763 8.480113636363637  4.192708333333334 7.279829545454544  2.1986607142857144 5.816761363636364  C 1.9233630952380953 5.603693181818182  1.666666666666667 5.369318181818182  1.4285714285714284 5.113636363636364  L 1.4285714285714284 13.295454545454545  C 1.4285714285714284 13.387784090909092  1.4639136904761907 13.46768465909091  1.5345982142857142 13.53515625  C 1.6052827380952381 13.60262784090909  1.6889880952380953 13.636363636363637  1.7857142857142858 13.636363636363637  L 18.214285714285715 13.636363636363637  C 18.311011904761905 13.636363636363637  18.394717261904763 13.60262784090909  18.465401785714285 13.53515625  Z M 18.052455357142858 3.499644886363636  C 18.3984375 2.984730113636362  18.571428571428573 2.5177556818181817  18.571428571428573 2.098721590909091  L 18.571428571428573 1.9815340909090906  L 18.571428571428573 1.8377130681818188  C 18.571428571428573 1.8377130681818188  18.569568452380953 1.7915482954545432  18.565848214285715 1.69921875  C 18.562127976190478 1.6068892045454537  18.550967261904763 1.5624999999999978  18.532366071428573 1.5660511363636358  C 18.513764880952383 1.5696022727272725  18.493303571428573 1.537642045454544  18.470982142857142 1.4701704545454546  C 18.448660714285715 1.402698863636362  18.415178571428573 1.37606534090909  18.370535714285715 1.3902698863636358  C 18.325892857142858 1.4044744318181817  18.273809523809526 1.3955965909090906  18.214285714285715 1.3636363636363642  L 1.7857142857142858 1.3636363636363642  C 1.6889880952380953 1.3636363636363642  1.6052827380952381 1.3973721590909072  1.5345982142857142 1.46484375  C 1.4639136904761907 1.5323153409090895  1.4285714285714284 1.6122159090909083  1.4285714285714284 1.7045454545454546  C 1.4285714285714284 2.8977272727272734  1.9754464285714284 3.906249999999998  3.0691964285714284 4.730113636363636  C 4.505208333333334 5.80965909090909  5.99702380952381 6.935369318181818  7.544642857142857 8.107244318181818  C 7.5892857142857135 8.14275568181818  7.719494047619049 8.247514204545453  7.935267857142857 8.421519886363637  C 8.151041666666668 8.595525568181818  8.32217261904762 8.72869318181818  8.448660714285714 8.821022727272728  C 8.575148809523812 8.913352272727272  8.740699404761905 9.025213068181817  8.9453125 9.156605113636363  C 9.149925595238095 9.287997159090908  9.33779761904762 9.38565340909091  9.508928571428571 9.449573863636363  C 9.680059523809524 9.513494318181818  9.840029761904763 9.545454545454545  9.988839285714286 9.545454545454545  L 10 9.545454545454545  L 10.011160714285714 9.545454545454545  C 10.159970238095239 9.545454545454545  10.319940476190476 9.513494318181818  10.491071428571427 9.449573863636363  C 10.662202380952383 9.38565340909091  10.850074404761905 9.287997159090908  11.0546875 9.156605113636363  C 11.259300595238095 9.025213068181817  11.42485119047619 8.913352272727272  11.551339285714286 8.821022727272728  C 11.677827380952383 8.72869318181818  11.848958333333336 8.595525568181818  12.064732142857142 8.421519886363637  C 12.280505952380953 8.247514204545453  12.410714285714286 8.14275568181818  12.455357142857142 8.107244318181818  C 14.00297619047619 6.935369318181818  15.494791666666668 5.80965909090909  16.930803571428573 4.730113636363636  C 17.332589285714285 4.424715909090908  17.706473214285715 4.014559659090908  18.052455357142858 3.499644886363636  Z M 19.475446428571427 0.5007102272727265  C 19.82514880952381 0.8345170454545442  20 1.2357954545454546  20 1.7045454545454546  L 20 13.295454545454545  C 20 13.764204545454545  19.82514880952381 14.165482954545455  19.475446428571427 14.499289772727273  C 19.12574404761905 14.83309659090909  18.705357142857146 15  18.214285714285715 15  L 1.7857142857142858 15  C 1.2946428571428572 15  0.8742559523809524 14.83309659090909  0.5245535714285714 14.499289772727273  C 0.17485119047619047 14.165482954545455  0 13.764204545454545  0 13.295454545454545  L 0 1.7045454545454546  C 0 1.2357954545454546  0.17485119047619047 0.8345170454545442  0.5245535714285714 0.5007102272727265  C 0.8742559523809524 0.16690340909090717  1.2946428571428572 0  1.7857142857142858 0  L 18.214285714285715 0  C 18.705357142857146 0  19.12574404761905 0.16690340909090717  19.475446428571427 0.5007102272727265  Z " fill-rule="nonzero" fill="rgba(2, 167, 240, 1)" stroke="none" transform="matrix(1 0 0 1 857 3744 )" class="fill" />
    <path d="M 18.465401785714285 13.53515625  C 18.53608630952381 13.46768465909091  18.571428571428573 13.387784090909092  18.571428571428573 13.295454545454545  L 18.571428571428573 5.113636363636364  C 18.333333333333336 5.369318181818182  18.07663690476191 5.603693181818182  17.801339285714285 5.816761363636364  C 15.807291666666668 7.279829545454544  14.222470238095239 8.480113636363637  13.046875 9.417613636363637  C 12.667410714285714 9.723011363636362  12.358630952380953 9.9609375  12.120535714285714 10.131392045454545  C 11.882440476190476 10.30184659090909  11.560639880952383 10.474076704545453  11.155133928571427 10.648082386363637  C 10.749627976190476 10.822088068181818  10.368303571428573 10.90909090909091  10.011160714285714 10.90909090909091  L 10 10.90909090909091  L 9.988839285714286 10.90909090909091  C 9.631696428571429 10.90909090909091  9.250372023809524 10.822088068181818  8.844866071428571 10.648082386363637  C 8.43936011904762 10.474076704545453  8.117559523809524 10.30184659090909  7.8794642857142865 10.131392045454545  C 7.641369047619049 9.9609375  7.3325892857142865 9.723011363636362  6.953125 9.417613636363637  C 5.777529761904763 8.480113636363637  4.192708333333334 7.279829545454544  2.1986607142857144 5.816761363636364  C 1.9233630952380953 5.603693181818182  1.666666666666667 5.369318181818182  1.4285714285714284 5.113636363636364  L 1.4285714285714284 13.295454545454545  C 1.4285714285714284 13.387784090909092  1.4639136904761907 13.46768465909091  1.5345982142857142 13.53515625  C 1.6052827380952381 13.60262784090909  1.6889880952380953 13.636363636363637  1.7857142857142858 13.636363636363637  L 18.214285714285715 13.636363636363637  C 18.311011904761905 13.636363636363637  18.394717261904763 13.60262784090909  18.465401785714285 13.53515625  Z " stroke-width="0" stroke-dasharray="0" stroke="rgba(255, 255, 255, 0)" fill="none" transform="matrix(1 0 0 1 857 3744 )" class="stroke" mask="url(#Clip373)" />
    <path d="M 18.052455357142858 3.499644886363636  C 18.3984375 2.984730113636362  18.571428571428573 2.5177556818181817  18.571428571428573 2.098721590909091  L 18.571428571428573 1.9815340909090906  L 18.571428571428573 1.8377130681818188  C 18.571428571428573 1.8377130681818188  18.569568452380953 1.7915482954545432  18.565848214285715 1.69921875  C 18.562127976190478 1.6068892045454537  18.550967261904763 1.5624999999999978  18.532366071428573 1.5660511363636358  C 18.513764880952383 1.5696022727272725  18.493303571428573 1.537642045454544  18.470982142857142 1.4701704545454546  C 18.448660714285715 1.402698863636362  18.415178571428573 1.37606534090909  18.370535714285715 1.3902698863636358  C 18.325892857142858 1.4044744318181817  18.273809523809526 1.3955965909090906  18.214285714285715 1.3636363636363642  L 1.7857142857142858 1.3636363636363642  C 1.6889880952380953 1.3636363636363642  1.6052827380952381 1.3973721590909072  1.5345982142857142 1.46484375  C 1.4639136904761907 1.5323153409090895  1.4285714285714284 1.6122159090909083  1.4285714285714284 1.7045454545454546  C 1.4285714285714284 2.8977272727272734  1.9754464285714284 3.906249999999998  3.0691964285714284 4.730113636363636  C 4.505208333333334 5.80965909090909  5.99702380952381 6.935369318181818  7.544642857142857 8.107244318181818  C 7.5892857142857135 8.14275568181818  7.719494047619049 8.247514204545453  7.935267857142857 8.421519886363637  C 8.151041666666668 8.595525568181818  8.32217261904762 8.72869318181818  8.448660714285714 8.821022727272728  C 8.575148809523812 8.913352272727272  8.740699404761905 9.025213068181817  8.9453125 9.156605113636363  C 9.149925595238095 9.287997159090908  9.33779761904762 9.38565340909091  9.508928571428571 9.449573863636363  C 9.680059523809524 9.513494318181818  9.840029761904763 9.545454545454545  9.988839285714286 9.545454545454545  L 10 9.545454545454545  L 10.011160714285714 9.545454545454545  C 10.159970238095239 9.545454545454545  10.319940476190476 9.513494318181818  10.491071428571427 9.449573863636363  C 10.662202380952383 9.38565340909091  10.850074404761905 9.287997159090908  11.0546875 9.156605113636363  C 11.259300595238095 9.025213068181817  11.42485119047619 8.913352272727272  11.551339285714286 8.821022727272728  C 11.677827380952383 8.72869318181818  11.848958333333336 8.595525568181818  12.064732142857142 8.421519886363637  C 12.280505952380953 8.247514204545453  12.410714285714286 8.14275568181818  12.455357142857142 8.107244318181818  C 14.00297619047619 6.935369318181818  15.494791666666668 5.80965909090909  16.930803571428573 4.730113636363636  C 17.332589285714285 4.424715909090908  17.706473214285715 4.014559659090908  18.052455357142858 3.499644886363636  Z " stroke-width="0" stroke-dasharray="0" stroke="rgba(255, 255, 255, 0)" fill="none" transform="matrix(1 0 0 1 857 3744 )" class="stroke" mask="url(#Clip373)" />
    <path d="M 19.475446428571427 0.5007102272727265  C 19.82514880952381 0.8345170454545442  20 1.2357954545454546  20 1.7045454545454546  L 20 13.295454545454545  C 20 13.764204545454545  19.82514880952381 14.165482954545455  19.475446428571427 14.499289772727273  C 19.12574404761905 14.83309659090909  18.705357142857146 15  18.214285714285715 15  L 1.7857142857142858 15  C 1.2946428571428572 15  0.8742559523809524 14.83309659090909  0.5245535714285714 14.499289772727273  C 0.17485119047619047 14.165482954545455  0 13.764204545454545  0 13.295454545454545  L 0 1.7045454545454546  C 0 1.2357954545454546  0.17485119047619047 0.8345170454545442  0.5245535714285714 0.5007102272727265  C 0.8742559523809524 0.16690340909090717  1.2946428571428572 0  1.7857142857142858 0  L 18.214285714285715 0  C 18.705357142857146 0  19.12574404761905 0.16690340909090717  19.475446428571427 0.5007102272727265  Z " stroke-width="0" stroke-dasharray="0" stroke="rgba(255, 255, 255, 0)" fill="none" transform="matrix(1 0 0 1 857 3744 )" class="stroke" mask="url(#Clip373)" />
  </g>
</svg>