<?xml version="1.0" encoding="utf-8"?>
<svg version="1.1" xmlns:xlink="http://www.w3.org/1999/xlink" width="44px" height="39px" xmlns="http://www.w3.org/2000/svg">
  <defs>
    <pattern id="BGPattern" patternUnits="userSpaceOnUse" alignment="0 0" imageRepeat="None" />
    <mask fill="white" id="Clip374">
      <path d="M 23.72549019607844 0.31862745098038875  L 0.2156862745098016 0.31862745098038875  L 0.2156862745098016 38.39460784313725  L 23.72549019607844 38.39460784313725  C 23.72549019607844 38.39460784313725  44 39.828431372549026  44 19.436274509803923  C 44 -0.9558823529411754  23.72549019607844 0.31862745098038875  23.72549019607844 0.31862745098038875  Z " fill-rule="evenodd" />
    </mask>
  </defs>
  <g transform="matrix(1 0 0 1 -1047 -2343 )">
    <path d="M 23.72549019607844 0.31862745098038875  L 0.2156862745098016 0.31862745098038875  L 0.2156862745098016 38.39460784313725  L 23.72549019607844 38.39460784313725  C 23.72549019607844 38.39460784313725  44 39.828431372549026  44 19.436274509803923  C 44 -0.9558823529411754  23.72549019607844 0.31862745098038875  23.72549019607844 0.31862745098038875  Z " fill-rule="nonzero" fill="rgba(255, 255, 255, 1)" stroke="none" transform="matrix(1 0 0 1 1047 2343 )" class="fill" />
    <path d="M 23.72549019607844 0.31862745098038875  L 0.2156862745098016 0.31862745098038875  L 0.2156862745098016 38.39460784313725  L 23.72549019607844 38.39460784313725  C 23.72549019607844 38.39460784313725  44 39.828431372549026  44 19.436274509803923  C 44 -0.9558823529411754  23.72549019607844 0.31862745098038875  23.72549019607844 0.31862745098038875  Z " stroke-width="2" stroke-dasharray="0" stroke="rgba(121, 121, 121, 1)" fill="none" transform="matrix(1 0 0 1 1047 2343 )" class="stroke" mask="url(#Clip374)" />
  </g>
</svg>