<?xml version="1.0" encoding="utf-8"?>
<svg version="1.1" xmlns:xlink="http://www.w3.org/1999/xlink" width="23px" height="23px" xmlns="http://www.w3.org/2000/svg">
  <defs>
    <pattern id="BGPattern" patternUnits="userSpaceOnUse" alignment="0 0" imageRepeat="None" />
    <mask fill="white" id="Clip375">
      <path d="M 0 11.5  C 0 5.06  5.06 0  11.5 0  C 17.94 0  23 5.06  23 11.5  C 23 17.94  17.94 23  11.5 23  C 5.06 23  0 17.94  0 11.5  Z " fill-rule="evenodd" />
    </mask>
  </defs>
  <g transform="matrix(1 0 0 1 -3352 -2413 )">
    <path d="M 0 11.5  C 0 5.06  5.06 0  11.5 0  C 17.94 0  23 5.06  23 11.5  C 23 17.94  17.94 23  11.5 23  C 5.06 23  0 17.94  0 11.5  Z " fill-rule="nonzero" fill="rgba(255, 255, 255, 1)" stroke="none" transform="matrix(1 0 0 1 3352 2413 )" class="fill" />
    <path d="M 0 11.5  C 0 5.06  5.06 0  11.5 0  C 17.94 0  23 5.06  23 11.5  C 23 17.94  17.94 23  11.5 23  C 5.06 23  0 17.94  0 11.5  Z " stroke-width="2" stroke-dasharray="0" stroke="rgba(0, 0, 255, 1)" fill="none" transform="matrix(1 0 0 1 3352 2413 )" class="stroke" mask="url(#Clip375)" />
  </g>
</svg>