<?xml version="1.0" encoding="utf-8"?>
<svg version="1.1" xmlns:xlink="http://www.w3.org/1999/xlink" width="21px" height="41px" xmlns="http://www.w3.org/2000/svg">
  <defs>
    <pattern id="BGPattern" patternUnits="userSpaceOnUse" alignment="0 0" imageRepeat="None" />
    <mask fill="white" id="Clip376">
      <path d="M 15.458333333333334 0  C 17.84027777777778 0  19.6875 0.09855769230769196  21 0.2956730769230759  L 21 6.800480769230768  L 17.18402777777778 6.800480769230768  C 15.790509259259261 6.800480769230768  14.850694444444445 7.0961538461538485  14.364583333333334 7.6875  C 13.878472222222223 8.278846153846152  13.635416666666668 9.165865384615383  13.635416666666668 10.348557692307692  L 13.635416666666668 15.005408653846152  L 20.756944444444443 15.005408653846152  L 19.80902777777778 22.298677884615383  L 13.635416666666668 22.298677884615383  L 13.635416666666668 41  L 6.197916666666667 41  L 6.197916666666667 22.298677884615383  L 0 22.298677884615383  L 0 15.005408653846152  L 6.197916666666667 15.005408653846152  L 6.197916666666667 9.634014423076923  C 6.197916666666667 6.57872596153846  7.0405092592592595 4.209234775641024  8.725694444444445 2.525540865384616  C 10.410879629629632 0.8418469551282084  12.655092592592593 0  15.458333333333334 0  Z " fill-rule="evenodd" />
    </mask>
  </defs>
  <g transform="matrix(1 0 0 1 -1760 -475 )">
    <path d="M 15.458333333333334 0  C 17.84027777777778 0  19.6875 0.09855769230769196  21 0.2956730769230759  L 21 6.800480769230768  L 17.18402777777778 6.800480769230768  C 15.790509259259261 6.800480769230768  14.850694444444445 7.0961538461538485  14.364583333333334 7.6875  C 13.878472222222223 8.278846153846152  13.635416666666668 9.165865384615383  13.635416666666668 10.348557692307692  L 13.635416666666668 15.005408653846152  L 20.756944444444443 15.005408653846152  L 19.80902777777778 22.298677884615383  L 13.635416666666668 22.298677884615383  L 13.635416666666668 41  L 6.197916666666667 41  L 6.197916666666667 22.298677884615383  L 0 22.298677884615383  L 0 15.005408653846152  L 6.197916666666667 15.005408653846152  L 6.197916666666667 9.634014423076923  C 6.197916666666667 6.57872596153846  7.0405092592592595 4.209234775641024  8.725694444444445 2.525540865384616  C 10.410879629629632 0.8418469551282084  12.655092592592593 0  15.458333333333334 0  Z " fill-rule="nonzero" fill="rgba(0, 0, 0, 1)" stroke="none" transform="matrix(1 0 0 1 1760 475 )" class="fill" />
    <path d="M 15.458333333333334 0  C 17.84027777777778 0  19.6875 0.09855769230769196  21 0.2956730769230759  L 21 6.800480769230768  L 17.18402777777778 6.800480769230768  C 15.790509259259261 6.800480769230768  14.850694444444445 7.0961538461538485  14.364583333333334 7.6875  C 13.878472222222223 8.278846153846152  13.635416666666668 9.165865384615383  13.635416666666668 10.348557692307692  L 13.635416666666668 15.005408653846152  L 20.756944444444443 15.005408653846152  L 19.80902777777778 22.298677884615383  L 13.635416666666668 22.298677884615383  L 13.635416666666668 41  L 6.197916666666667 41  L 6.197916666666667 22.298677884615383  L 0 22.298677884615383  L 0 15.005408653846152  L 6.197916666666667 15.005408653846152  L 6.197916666666667 9.634014423076923  C 6.197916666666667 6.57872596153846  7.0405092592592595 4.209234775641024  8.725694444444445 2.525540865384616  C 10.410879629629632 0.8418469551282084  12.655092592592593 0  15.458333333333334 0  Z " stroke-width="0" stroke-dasharray="0" stroke="rgba(255, 255, 255, 0)" fill="none" transform="matrix(1 0 0 1 1760 475 )" class="stroke" mask="url(#Clip376)" />
  </g>
</svg>