<?xml version="1.0" encoding="utf-8"?>
<!-- Generator: Adobe Illustrator 25.0.0, SVG Export Plug-In . SVG Version: 6.00 Build 0)  -->
<svg version="1.1" id="Layer_1" xmlns:serif="http://www.serif.com/"
	 xmlns="http://www.w3.org/2000/svg" xmlns:xlink="http://www.w3.org/1999/xlink" x="0px" y="0px" viewBox="0 0 1078.5 1080"
	 style="enable-background:new 0 0 1078.5 1080;" xml:space="preserve">
<style type="text/css">
	.st0{fill:#1877F2;}
	.st1{fill:#FFFFFF;}
</style>
<g>
	<path class="st0" d="M1080,540C1080,241.8,838.2,0,540,0S0,241.8,0,540c0,269.5,197.5,492.9,455.6,533.4V696.1H318.5V540h137.1V421
		c0-135.3,80.6-210.1,204-210.1c59.1,0,120.9,10.5,120.9,10.5v132.9h-68.1c-67.1,0-88,41.6-88,84.3V540h149.8l-23.9,156.1H624.4
		v377.3C882.5,1032.9,1080,809.5,1080,540z"/>
	<path class="st1" d="M750.2,696.1L774.1,540H624.4V438.7c0-42.7,20.9-84.3,88-84.3h68.1V221.5c0,0-61.8-10.5-120.9-10.5
		c-123.3,0-204,74.8-204,210.1v119H318.5v156.1h137.1v377.3c27.5,4.3,55.7,6.6,84.4,6.6c28.7,0,56.9-2.2,84.4-6.6V696.1H750.2z"/>
</g>
</svg>
