<?xml version="1.0" encoding="utf-8"?>
<svg version="1.1" xmlns:xlink="http://www.w3.org/1999/xlink" width="23px" height="20px" xmlns="http://www.w3.org/2000/svg">
  <defs>
    <pattern id="BGPattern" patternUnits="userSpaceOnUse" alignment="0 0" imageRepeat="None" />
    <mask fill="white" id="Clip314">
      <path d="M 18.94419642857143 10.729166666666664  C 20.552827380952383 9.097222222222221  21.357142857142858 7.552083333333332  21.357142857142858 6.09375  C 21.357142857142858 5.390625  21.265159970238095 4.769965277777777  21.08119419642857 4.231770833333332  C 20.897228422619047 3.693576388888886  20.66192336309524 3.266059027777777  20.375279017857142 2.94921875  C 20.08863467261905 2.632378472222221  19.73995535714286 2.374131944444444  19.32924107142857 2.1744791666666674  C 18.91852678571429 1.9748263888888862  18.516369047619047 1.8402777777777768  18.122767857142858 1.7708333333333326  C 17.729166666666668 1.7013888888888862  17.309895833333336 1.6666666666666674  16.864955357142858 1.6666666666666674  C 16.420014880952383 1.6666666666666674  15.940848214285714 1.77734375  15.427455357142858 1.9986979166666674  C 14.9140625 2.2200520833333326  14.441313244047619 2.4978298611111094  14.009207589285714 2.83203125  C 13.577101934523812 3.166232638888886  13.20703125 3.478732638888886  12.898995535714286 3.76953125  C 12.590959821428573 4.060329861111109  12.334263392857144 4.327256944444445  12.12890625 4.5703125  C 11.974888392857144 4.761284722222221  11.765252976190478 4.856770833333332  11.5 4.856770833333332  C 11.234747023809524 4.856770833333332  11.025111607142856 4.761284722222221  10.87109375 4.5703125  C 10.665736607142856 4.327256944444445  10.409040178571429 4.060329861111109  10.101004464285715 3.76953125  C 9.79296875 3.478732638888886  9.422898065476192 3.166232638888886  8.990792410714285 2.83203125  C 8.558686755952381 2.4978298611111094  8.0859375 2.2200520833333326  7.572544642857143 1.9986979166666674  C 7.059151785714286 1.77734375  6.57998511904762 1.6666666666666674  6.135044642857143 1.6666666666666674  C 5.690104166666667 1.6666666666666674  5.270833333333335 1.7013888888888862  4.877232142857142 1.7708333333333326  C 4.483630952380953 1.8402777777777768  4.081473214285714 1.9748263888888862  3.6707589285714284 2.1744791666666674  C 3.260044642857143 2.374131944444444  2.9113653273809526 2.632378472222221  2.624720982142857 2.94921875  C 2.338076636904762 3.266059027777777  2.1027715773809526 3.693576388888886  1.9188058035714286 4.231770833333332  C 1.734840029761905 4.769965277777777  1.6428571428571428 5.390625  1.6428571428571428 6.09375  C 1.6428571428571428 7.552083333333332  2.4428943452380953 9.092881944444445  4.04296875 10.716145833333336  L 11.5 18.0078125  L 18.94419642857143 10.729166666666664  Z M 21.36997767857143 1.6145833333333326  C 22.456659226190478 2.690972222222221  23 4.184027777777777  23 6.09375  C 23 8.012152777777777  22.020275297619047 9.965277777777777  20.060825892857142 11.953125  L 12.064732142857142 19.765625  C 11.910714285714286 19.921875  11.722470238095239 20  11.5 20  C 11.277529761904763 20  11.089285714285715 19.921875  10.935267857142856 19.765625  L 2.9263392857142856 11.927083333333336  C 2.8407738095238098 11.85763888888889  2.723121279761905 11.744791666666664  2.573381696428571 11.588541666666664  C 2.423642113095238 11.432291666666664  2.186197916666667 11.148003472222223  1.8610491071428572 10.735677083333336  C 1.5359002976190477 10.323350694444443  1.2449776785714286 9.900173611111109  0.98828125 9.466145833333332  C 0.7315848214285714 9.032118055555555  0.5026971726190477 8.506944444444445  0.3016183035714286 7.890625  C 0.10053943452380952 7.274305555555554  0 6.675347222222221  0 6.09375  C 0 4.184027777777777  0.5433407738095237 2.690972222222221  1.6300223214285714 1.6145833333333326  C 2.7167038690476195 0.5381944444444442  4.218377976190476 0  6.135044642857143 0  C 6.665550595238095 0  7.206752232142857 0.09331597222222099  7.758649553571429 0.2799479166666674  C 8.310546875 0.4665798611111094  8.823939732142856 0.718315972222221  9.298828125 1.03515625  C 9.773716517857144 1.3519965277777768  10.18229166666667 1.6493055555555536  10.524553571428571 1.9270833333333326  C 10.866815476190478 2.2048611111111094  11.191964285714285 2.5  11.5 2.8125  C 11.808035714285714 2.5  12.133184523809526 2.2048611111111094  12.475446428571429 1.9270833333333326  C 12.817708333333336 1.6493055555555536  13.226283482142858 1.3519965277777768  13.701171875 1.03515625  C 14.176060267857142 0.718315972222221  14.689453125 0.4665798611111094  15.241350446428571 0.2799479166666674  C 15.793247767857142 0.09331597222222099  16.334449404761905 0  16.864955357142858 0  C 18.781622023809526 0  20.283296130952383 0.5381944444444442  21.36997767857143 1.6145833333333326  Z " fill-rule="evenodd" />
    </mask>
  </defs>
  <g transform="matrix(1 0 0 1 -4549 -729 )">
    <path d="M 18.94419642857143 10.729166666666664  C 20.552827380952383 9.097222222222221  21.357142857142858 7.552083333333332  21.357142857142858 6.09375  C 21.357142857142858 5.390625  21.265159970238095 4.769965277777777  21.08119419642857 4.231770833333332  C 20.897228422619047 3.693576388888886  20.66192336309524 3.266059027777777  20.375279017857142 2.94921875  C 20.08863467261905 2.632378472222221  19.73995535714286 2.374131944444444  19.32924107142857 2.1744791666666674  C 18.91852678571429 1.9748263888888862  18.516369047619047 1.8402777777777768  18.122767857142858 1.7708333333333326  C 17.729166666666668 1.7013888888888862  17.309895833333336 1.6666666666666674  16.864955357142858 1.6666666666666674  C 16.420014880952383 1.6666666666666674  15.940848214285714 1.77734375  15.427455357142858 1.9986979166666674  C 14.9140625 2.2200520833333326  14.441313244047619 2.4978298611111094  14.009207589285714 2.83203125  C 13.577101934523812 3.166232638888886  13.20703125 3.478732638888886  12.898995535714286 3.76953125  C 12.590959821428573 4.060329861111109  12.334263392857144 4.327256944444445  12.12890625 4.5703125  C 11.974888392857144 4.761284722222221  11.765252976190478 4.856770833333332  11.5 4.856770833333332  C 11.234747023809524 4.856770833333332  11.025111607142856 4.761284722222221  10.87109375 4.5703125  C 10.665736607142856 4.327256944444445  10.409040178571429 4.060329861111109  10.101004464285715 3.76953125  C 9.79296875 3.478732638888886  9.422898065476192 3.166232638888886  8.990792410714285 2.83203125  C 8.558686755952381 2.4978298611111094  8.0859375 2.2200520833333326  7.572544642857143 1.9986979166666674  C 7.059151785714286 1.77734375  6.57998511904762 1.6666666666666674  6.135044642857143 1.6666666666666674  C 5.690104166666667 1.6666666666666674  5.270833333333335 1.7013888888888862  4.877232142857142 1.7708333333333326  C 4.483630952380953 1.8402777777777768  4.081473214285714 1.9748263888888862  3.6707589285714284 2.1744791666666674  C 3.260044642857143 2.374131944444444  2.9113653273809526 2.632378472222221  2.624720982142857 2.94921875  C 2.338076636904762 3.266059027777777  2.1027715773809526 3.693576388888886  1.9188058035714286 4.231770833333332  C 1.734840029761905 4.769965277777777  1.6428571428571428 5.390625  1.6428571428571428 6.09375  C 1.6428571428571428 7.552083333333332  2.4428943452380953 9.092881944444445  4.04296875 10.716145833333336  L 11.5 18.0078125  L 18.94419642857143 10.729166666666664  Z M 21.36997767857143 1.6145833333333326  C 22.456659226190478 2.690972222222221  23 4.184027777777777  23 6.09375  C 23 8.012152777777777  22.020275297619047 9.965277777777777  20.060825892857142 11.953125  L 12.064732142857142 19.765625  C 11.910714285714286 19.921875  11.722470238095239 20  11.5 20  C 11.277529761904763 20  11.089285714285715 19.921875  10.935267857142856 19.765625  L 2.9263392857142856 11.927083333333336  C 2.8407738095238098 11.85763888888889  2.723121279761905 11.744791666666664  2.573381696428571 11.588541666666664  C 2.423642113095238 11.432291666666664  2.186197916666667 11.148003472222223  1.8610491071428572 10.735677083333336  C 1.5359002976190477 10.323350694444443  1.2449776785714286 9.900173611111109  0.98828125 9.466145833333332  C 0.7315848214285714 9.032118055555555  0.5026971726190477 8.506944444444445  0.3016183035714286 7.890625  C 0.10053943452380952 7.274305555555554  0 6.675347222222221  0 6.09375  C 0 4.184027777777777  0.5433407738095237 2.690972222222221  1.6300223214285714 1.6145833333333326  C 2.7167038690476195 0.5381944444444442  4.218377976190476 0  6.135044642857143 0  C 6.665550595238095 0  7.206752232142857 0.09331597222222099  7.758649553571429 0.2799479166666674  C 8.310546875 0.4665798611111094  8.823939732142856 0.718315972222221  9.298828125 1.03515625  C 9.773716517857144 1.3519965277777768  10.18229166666667 1.6493055555555536  10.524553571428571 1.9270833333333326  C 10.866815476190478 2.2048611111111094  11.191964285714285 2.5  11.5 2.8125  C 11.808035714285714 2.5  12.133184523809526 2.2048611111111094  12.475446428571429 1.9270833333333326  C 12.817708333333336 1.6493055555555536  13.226283482142858 1.3519965277777768  13.701171875 1.03515625  C 14.176060267857142 0.718315972222221  14.689453125 0.4665798611111094  15.241350446428571 0.2799479166666674  C 15.793247767857142 0.09331597222222099  16.334449404761905 0  16.864955357142858 0  C 18.781622023809526 0  20.283296130952383 0.5381944444444442  21.36997767857143 1.6145833333333326  Z " fill-rule="nonzero" fill="rgba(0, 0, 0, 1)" stroke="none" transform="matrix(1 0 0 1 4549 729 )" class="fill" />
    <path d="M 18.94419642857143 10.729166666666664  C 20.552827380952383 9.097222222222221  21.357142857142858 7.552083333333332  21.357142857142858 6.09375  C 21.357142857142858 5.390625  21.265159970238095 4.769965277777777  21.08119419642857 4.231770833333332  C 20.897228422619047 3.693576388888886  20.66192336309524 3.266059027777777  20.375279017857142 2.94921875  C 20.08863467261905 2.632378472222221  19.73995535714286 2.374131944444444  19.32924107142857 2.1744791666666674  C 18.91852678571429 1.9748263888888862  18.516369047619047 1.8402777777777768  18.122767857142858 1.7708333333333326  C 17.729166666666668 1.7013888888888862  17.309895833333336 1.6666666666666674  16.864955357142858 1.6666666666666674  C 16.420014880952383 1.6666666666666674  15.940848214285714 1.77734375  15.427455357142858 1.9986979166666674  C 14.9140625 2.2200520833333326  14.441313244047619 2.4978298611111094  14.009207589285714 2.83203125  C 13.577101934523812 3.166232638888886  13.20703125 3.478732638888886  12.898995535714286 3.76953125  C 12.590959821428573 4.060329861111109  12.334263392857144 4.327256944444445  12.12890625 4.5703125  C 11.974888392857144 4.761284722222221  11.765252976190478 4.856770833333332  11.5 4.856770833333332  C 11.234747023809524 4.856770833333332  11.025111607142856 4.761284722222221  10.87109375 4.5703125  C 10.665736607142856 4.327256944444445  10.409040178571429 4.060329861111109  10.101004464285715 3.76953125  C 9.79296875 3.478732638888886  9.422898065476192 3.166232638888886  8.990792410714285 2.83203125  C 8.558686755952381 2.4978298611111094  8.0859375 2.2200520833333326  7.572544642857143 1.9986979166666674  C 7.059151785714286 1.77734375  6.57998511904762 1.6666666666666674  6.135044642857143 1.6666666666666674  C 5.690104166666667 1.6666666666666674  5.270833333333335 1.7013888888888862  4.877232142857142 1.7708333333333326  C 4.483630952380953 1.8402777777777768  4.081473214285714 1.9748263888888862  3.6707589285714284 2.1744791666666674  C 3.260044642857143 2.374131944444444  2.9113653273809526 2.632378472222221  2.624720982142857 2.94921875  C 2.338076636904762 3.266059027777777  2.1027715773809526 3.693576388888886  1.9188058035714286 4.231770833333332  C 1.734840029761905 4.769965277777777  1.6428571428571428 5.390625  1.6428571428571428 6.09375  C 1.6428571428571428 7.552083333333332  2.4428943452380953 9.092881944444445  4.04296875 10.716145833333336  L 11.5 18.0078125  L 18.94419642857143 10.729166666666664  Z " stroke-width="0" stroke-dasharray="0" stroke="rgba(255, 255, 255, 0)" fill="none" transform="matrix(1 0 0 1 4549 729 )" class="stroke" mask="url(#Clip314)" />
    <path d="M 21.36997767857143 1.6145833333333326  C 22.456659226190478 2.690972222222221  23 4.184027777777777  23 6.09375  C 23 8.012152777777777  22.020275297619047 9.965277777777777  20.060825892857142 11.953125  L 12.064732142857142 19.765625  C 11.910714285714286 19.921875  11.722470238095239 20  11.5 20  C 11.277529761904763 20  11.089285714285715 19.921875  10.935267857142856 19.765625  L 2.9263392857142856 11.927083333333336  C 2.8407738095238098 11.85763888888889  2.723121279761905 11.744791666666664  2.573381696428571 11.588541666666664  C 2.423642113095238 11.432291666666664  2.186197916666667 11.148003472222223  1.8610491071428572 10.735677083333336  C 1.5359002976190477 10.323350694444443  1.2449776785714286 9.900173611111109  0.98828125 9.466145833333332  C 0.7315848214285714 9.032118055555555  0.5026971726190477 8.506944444444445  0.3016183035714286 7.890625  C 0.10053943452380952 7.274305555555554  0 6.675347222222221  0 6.09375  C 0 4.184027777777777  0.5433407738095237 2.690972222222221  1.6300223214285714 1.6145833333333326  C 2.7167038690476195 0.5381944444444442  4.218377976190476 0  6.135044642857143 0  C 6.665550595238095 0  7.206752232142857 0.09331597222222099  7.758649553571429 0.2799479166666674  C 8.310546875 0.4665798611111094  8.823939732142856 0.718315972222221  9.298828125 1.03515625  C 9.773716517857144 1.3519965277777768  10.18229166666667 1.6493055555555536  10.524553571428571 1.9270833333333326  C 10.866815476190478 2.2048611111111094  11.191964285714285 2.5  11.5 2.8125  C 11.808035714285714 2.5  12.133184523809526 2.2048611111111094  12.475446428571429 1.9270833333333326  C 12.817708333333336 1.6493055555555536  13.226283482142858 1.3519965277777768  13.701171875 1.03515625  C 14.176060267857142 0.718315972222221  14.689453125 0.4665798611111094  15.241350446428571 0.2799479166666674  C 15.793247767857142 0.09331597222222099  16.334449404761905 0  16.864955357142858 0  C 18.781622023809526 0  20.283296130952383 0.5381944444444442  21.36997767857143 1.6145833333333326  Z " stroke-width="0" stroke-dasharray="0" stroke="rgba(255, 255, 255, 0)" fill="none" transform="matrix(1 0 0 1 4549 729 )" class="stroke" mask="url(#Clip314)" />
  </g>
</svg>