<?xml version="1.0" encoding="utf-8"?>
<svg version="1.1" xmlns:xlink="http://www.w3.org/1999/xlink" width="22px" height="25px" xmlns="http://www.w3.org/2000/svg">
  <defs>
    <pattern id="BGPattern" patternUnits="userSpaceOnUse" alignment="0 0" imageRepeat="None" />
    <mask fill="white" id="Clip315">
      <path d="M 14.294270833333334 15.983072916666668  C 15.172743055555557 15.049913194444443  16.213541666666664 14.583333333333332  17.416666666666664 14.583333333333332  C 18.686631944444446 14.583333333333332  19.76801215277778 15.09060329861111  20.660807291666664 16.105143229166668  C 21.553602430555554 17.11968315972222  22 18.348524305555554  22 19.791666666666664  C 22 21.23480902777778  21.553602430555554 22.463650173611114  20.660807291666664 23.478190104166664  C 19.76801215277778 24.49273003472222  18.686631944444446 25  17.416666666666664 25  C 16.146701388888893 25  15.065321180555557 24.49273003472222  14.172526041666666 23.478190104166664  C 13.27973090277778 22.463650173611114  12.833333333333334 21.23480902777778  12.833333333333334 19.791666666666664  C 12.833333333333334 19.661458333333336  12.842881944444446 19.476996527777775  12.861979166666666 19.23828125  L 7.705729166666667 16.30859375  C 6.827256944444445 17.24175347222222  5.786458333333333 17.708333333333332  4.583333333333334 17.708333333333332  C 3.313368055555556 17.708333333333332  2.2319878472222223 17.201063368055554  1.3391927083333335 16.1865234375  C 0.44639756944444436 15.171983506944443  0 13.94314236111111  0 12.5  C 0 11.056857638888888  0.44639756944444436 9.828016493055555  1.3391927083333335 8.8134765625  C 2.2319878472222223 7.798936631944442  3.313368055555556 7.291666666666666  4.583333333333334 7.291666666666666  C 5.786458333333333 7.291666666666666  6.827256944444445 7.758246527777776  7.705729166666667 8.69140625  L 12.861979166666666 5.76171875  C 12.842881944444446 5.523003472222221  12.833333333333334 5.338541666666666  12.833333333333334 5.208333333333334  C 12.833333333333334 3.765190972222221  13.27973090277778 2.5363498263888866  14.172526041666666 1.5218098958333344  C 15.065321180555557 0.5072699652777762  16.146701388888893 0  17.416666666666664 0  C 18.686631944444446 0  19.76801215277778 0.5072699652777762  20.660807291666664 1.5218098958333344  C 21.553602430555554 2.5363498263888866  22 3.765190972222221  22 5.208333333333334  C 22 6.651475694444442  21.553602430555554 7.880316840277776  20.660807291666664 8.894856770833334  C 19.76801215277778 9.90939670138889  18.686631944444446 10.416666666666666  17.416666666666664 10.416666666666666  C 16.213541666666664 10.416666666666666  15.172743055555557 9.950086805555555  14.294270833333334 9.016927083333334  L 9.138020833333332 11.946614583333334  C 9.157118055555555 12.18532986111111  9.166666666666668 12.369791666666666  9.166666666666668 12.5  C 9.166666666666668 12.630208333333332  9.157118055555555 12.81467013888889  9.138020833333332 13.053385416666668  L 14.294270833333334 15.983072916666668  Z " fill-rule="evenodd" />
    </mask>
  </defs>
  <g transform="matrix(1 0 0 1 -4584 -724 )">
    <path d="M 14.294270833333334 15.983072916666668  C 15.172743055555557 15.049913194444443  16.213541666666664 14.583333333333332  17.416666666666664 14.583333333333332  C 18.686631944444446 14.583333333333332  19.76801215277778 15.09060329861111  20.660807291666664 16.105143229166668  C 21.553602430555554 17.11968315972222  22 18.348524305555554  22 19.791666666666664  C 22 21.23480902777778  21.553602430555554 22.463650173611114  20.660807291666664 23.478190104166664  C 19.76801215277778 24.49273003472222  18.686631944444446 25  17.416666666666664 25  C 16.146701388888893 25  15.065321180555557 24.49273003472222  14.172526041666666 23.478190104166664  C 13.27973090277778 22.463650173611114  12.833333333333334 21.23480902777778  12.833333333333334 19.791666666666664  C 12.833333333333334 19.661458333333336  12.842881944444446 19.476996527777775  12.861979166666666 19.23828125  L 7.705729166666667 16.30859375  C 6.827256944444445 17.24175347222222  5.786458333333333 17.708333333333332  4.583333333333334 17.708333333333332  C 3.313368055555556 17.708333333333332  2.2319878472222223 17.201063368055554  1.3391927083333335 16.1865234375  C 0.44639756944444436 15.171983506944443  0 13.94314236111111  0 12.5  C 0 11.056857638888888  0.44639756944444436 9.828016493055555  1.3391927083333335 8.8134765625  C 2.2319878472222223 7.798936631944442  3.313368055555556 7.291666666666666  4.583333333333334 7.291666666666666  C 5.786458333333333 7.291666666666666  6.827256944444445 7.758246527777776  7.705729166666667 8.69140625  L 12.861979166666666 5.76171875  C 12.842881944444446 5.523003472222221  12.833333333333334 5.338541666666666  12.833333333333334 5.208333333333334  C 12.833333333333334 3.765190972222221  13.27973090277778 2.5363498263888866  14.172526041666666 1.5218098958333344  C 15.065321180555557 0.5072699652777762  16.146701388888893 0  17.416666666666664 0  C 18.686631944444446 0  19.76801215277778 0.5072699652777762  20.660807291666664 1.5218098958333344  C 21.553602430555554 2.5363498263888866  22 3.765190972222221  22 5.208333333333334  C 22 6.651475694444442  21.553602430555554 7.880316840277776  20.660807291666664 8.894856770833334  C 19.76801215277778 9.90939670138889  18.686631944444446 10.416666666666666  17.416666666666664 10.416666666666666  C 16.213541666666664 10.416666666666666  15.172743055555557 9.950086805555555  14.294270833333334 9.016927083333334  L 9.138020833333332 11.946614583333334  C 9.157118055555555 12.18532986111111  9.166666666666668 12.369791666666666  9.166666666666668 12.5  C 9.166666666666668 12.630208333333332  9.157118055555555 12.81467013888889  9.138020833333332 13.053385416666668  L 14.294270833333334 15.983072916666668  Z " fill-rule="nonzero" fill="rgba(0, 0, 0, 1)" stroke="none" transform="matrix(1 0 0 1 4584 724 )" class="fill" />
    <path d="M 14.294270833333334 15.983072916666668  C 15.172743055555557 15.049913194444443  16.213541666666664 14.583333333333332  17.416666666666664 14.583333333333332  C 18.686631944444446 14.583333333333332  19.76801215277778 15.09060329861111  20.660807291666664 16.105143229166668  C 21.553602430555554 17.11968315972222  22 18.348524305555554  22 19.791666666666664  C 22 21.23480902777778  21.553602430555554 22.463650173611114  20.660807291666664 23.478190104166664  C 19.76801215277778 24.49273003472222  18.686631944444446 25  17.416666666666664 25  C 16.146701388888893 25  15.065321180555557 24.49273003472222  14.172526041666666 23.478190104166664  C 13.27973090277778 22.463650173611114  12.833333333333334 21.23480902777778  12.833333333333334 19.791666666666664  C 12.833333333333334 19.661458333333336  12.842881944444446 19.476996527777775  12.861979166666666 19.23828125  L 7.705729166666667 16.30859375  C 6.827256944444445 17.24175347222222  5.786458333333333 17.708333333333332  4.583333333333334 17.708333333333332  C 3.313368055555556 17.708333333333332  2.2319878472222223 17.201063368055554  1.3391927083333335 16.1865234375  C 0.44639756944444436 15.171983506944443  0 13.94314236111111  0 12.5  C 0 11.056857638888888  0.44639756944444436 9.828016493055555  1.3391927083333335 8.8134765625  C 2.2319878472222223 7.798936631944442  3.313368055555556 7.291666666666666  4.583333333333334 7.291666666666666  C 5.786458333333333 7.291666666666666  6.827256944444445 7.758246527777776  7.705729166666667 8.69140625  L 12.861979166666666 5.76171875  C 12.842881944444446 5.523003472222221  12.833333333333334 5.338541666666666  12.833333333333334 5.208333333333334  C 12.833333333333334 3.765190972222221  13.27973090277778 2.5363498263888866  14.172526041666666 1.5218098958333344  C 15.065321180555557 0.5072699652777762  16.146701388888893 0  17.416666666666664 0  C 18.686631944444446 0  19.76801215277778 0.5072699652777762  20.660807291666664 1.5218098958333344  C 21.553602430555554 2.5363498263888866  22 3.765190972222221  22 5.208333333333334  C 22 6.651475694444442  21.553602430555554 7.880316840277776  20.660807291666664 8.894856770833334  C 19.76801215277778 9.90939670138889  18.686631944444446 10.416666666666666  17.416666666666664 10.416666666666666  C 16.213541666666664 10.416666666666666  15.172743055555557 9.950086805555555  14.294270833333334 9.016927083333334  L 9.138020833333332 11.946614583333334  C 9.157118055555555 12.18532986111111  9.166666666666668 12.369791666666666  9.166666666666668 12.5  C 9.166666666666668 12.630208333333332  9.157118055555555 12.81467013888889  9.138020833333332 13.053385416666668  L 14.294270833333334 15.983072916666668  Z " stroke-width="0" stroke-dasharray="0" stroke="rgba(255, 255, 255, 0)" fill="none" transform="matrix(1 0 0 1 4584 724 )" class="stroke" mask="url(#Clip315)" />
  </g>
</svg>