<?xml version="1.0" encoding="utf-8"?>
<svg version="1.1" xmlns:xlink="http://www.w3.org/1999/xlink" width="28px" height="23px" xmlns="http://www.w3.org/2000/svg">
  <defs>
    <pattern id="BGPattern" patternUnits="userSpaceOnUse" alignment="0 0" imageRepeat="None" />
    <mask fill="white" id="Clip316">
      <path d="M 9.4140625 8.228190104166668  C 9.8046875 8.6025390625  10 9.054253472222221  10 9.583333333333332  C 10 10.112413194444443  9.8046875 10.564127604166668  9.4140625 10.9384765625  C 9.0234375 11.312825520833332  8.552083333333334 11.5  8 11.5  C 7.447916666666668 11.5  6.976562500000001 11.312825520833332  6.5859375 10.9384765625  C 6.1953125 10.564127604166668  6 10.112413194444443  6 9.583333333333332  C 6 9.054253472222221  6.1953125 8.6025390625  6.5859375 8.228190104166668  C 6.976562500000001 7.853841145833332  7.447916666666668 7.666666666666668  8 7.666666666666668  C 8.552083333333334 7.666666666666668  9.0234375 7.853841145833332  9.4140625 8.228190104166668  Z M 15.414062499999998 8.228190104166668  C 15.8046875 8.6025390625  16 9.054253472222221  16 9.583333333333332  C 16 10.112413194444443  15.8046875 10.564127604166668  15.414062499999998 10.9384765625  C 15.0234375 11.312825520833332  14.552083333333336 11.5  14 11.5  C 13.447916666666668 11.5  12.976562500000002 11.312825520833332  12.5859375 10.9384765625  C 12.1953125 10.564127604166668  12 10.112413194444443  12 9.583333333333332  C 12 9.054253472222221  12.1953125 8.6025390625  12.5859375 8.228190104166668  C 12.976562500000002 7.853841145833332  13.447916666666668 7.666666666666668  14 7.666666666666668  C 14.552083333333336 7.666666666666668  15.0234375 7.853841145833332  15.414062499999998 8.228190104166668  Z M 21.4140625 8.228190104166668  C 21.8046875 8.6025390625  22 9.054253472222221  22 9.583333333333332  C 22 10.112413194444443  21.8046875 10.564127604166668  21.4140625 10.9384765625  C 21.0234375 11.312825520833332  20.552083333333336 11.5  20 11.5  C 19.447916666666668 11.5  18.9765625 11.312825520833332  18.5859375 10.9384765625  C 18.1953125 10.564127604166668  18 10.112413194444443  18 9.583333333333332  C 18 9.054253472222221  18.1953125 8.6025390625  18.5859375 8.228190104166668  C 18.9765625 7.853841145833332  19.447916666666668 7.666666666666668  20 7.666666666666668  C 20.552083333333336 7.666666666666668  21.0234375 7.853841145833332  21.4140625 8.228190104166668  Z M 19.9609375 2.9573567708333326  C 18.111979166666668 2.263563368055554  16.125 1.9166666666666674  14 1.9166666666666674  C 11.875 1.9166666666666674  9.888020833333334 2.263563368055554  8.0390625 2.9573567708333326  C 6.190104166666667 3.6511501736111107  4.721354166666667 4.587022569444443  3.6328125 5.764973958333332  C 2.5442708333333335 6.942925347222219  2 8.215711805555554  2 9.583333333333332  C 2 10.70138888888889  2.3723958333333335 11.767035590277779  3.1171875 12.7802734375  C 3.861979166666667 13.793511284722221  4.911458333333334 14.669487847222221  6.265625 15.408203125  L 7.624999999999999 16.156901041666664  L 7.203125 17.594401041666668  C 6.953125 18.502821180555557  6.588541666666667 19.361328125  6.109375 20.169921875  C 7.692708333333334 19.541015625  9.125 18.6875  10.40625 17.609375  L 11.078125 17.040364583333336  L 11.96875 17.130208333333336  C 12.6875 17.210069444444443  13.364583333333334 17.25  14 17.25  C 16.125 17.25  18.111979166666668 16.903103298611107  19.9609375 16.209309895833336  C 21.809895833333336 15.515516493055552  23.278645833333336 14.579644097222221  24.3671875 13.401692708333336  C 25.455729166666668 12.223741319444443  26 10.95095486111111  26 9.583333333333332  C 26 8.215711805555554  25.455729166666668 6.942925347222219  24.3671875 5.764973958333332  C 23.278645833333336 4.587022569444443  21.809895833333336 3.6511501736111107  19.9609375 2.9573567708333326  Z M 26.890625 5.8623046875  C 27.630208333333336 7.045247395833332  28 8.285590277777775  28 9.583333333333332  C 28 11.3203125  27.375 12.925021701388886  26.125 14.3974609375  C 24.875 15.869900173611109  23.177083333333336 17.032877604166664  21.03125 17.886393229166668  C 18.885416666666668 18.739908854166668  16.541666666666668 19.166666666666668  14 19.166666666666668  C 13.270833333333334 19.166666666666668  12.515625 19.12673611111111  11.734375 19.046875  C 9.671875 20.793836805555557  7.276041666666668 22.00173611111111  4.546875 22.670572916666668  C 4.036458333333334 22.81032986111111  3.4427083333333335 22.92013888888889  2.765625 23  L 2.6875 23  C 2.53125 23  2.390625 22.947591145833332  2.265625 22.8427734375  C 2.140625 22.737955729166668  2.057291666666667 22.600694444444443  2.015625 22.430989583333332  L 2.015625 22.416015625  C 1.9843750000000004 22.376085069444446  1.9817708333333335 22.316189236111114  2.0078125 22.236328125  C 2.033854166666667 22.15646701388889  2.0442708333333335 22.106553819444443  2.0390625 22.086588541666668  C 2.033854166666667 22.06662326388889  2.057291666666667 22.019205729166668  2.109375 21.9443359375  L 2.203125 21.8095703125  C 2.203125 21.8095703125  2.2395833333333335 21.767144097222225  2.3125 21.682291666666668  C 2.385416666666667 21.59743923611111  2.4270833333333335 21.55251736111111  2.4375 21.547526041666668  C 2.510416666666667 21.467664930555557  2.671875 21.295464409722225  2.921875 21.030924479166668  C 3.171875 20.76638454861111  3.3515625 20.576714409722225  3.4609375 20.4619140625  C 3.5703125000000004 20.347113715277775  3.7317708333333335 20.149956597222225  3.9453125 19.870442708333332  C 4.158854166666667 19.590928819444443  4.328125 19.336371527777775  4.453125 19.106770833333332  C 4.578125 18.87717013888889  4.71875 18.582682291666668  4.875 18.223307291666668  C 5.03125 17.863932291666668  5.166666666666667 17.48459201388889  5.28125 17.085286458333336  C 3.6458333333333335 16.19683159722222  2.3567708333333335 15.098741319444443  1.4140625 13.791015625  C 0.47135416666666663 12.483289930555552  0 11.080729166666668  0 9.583333333333332  C 0 8.285590277777775  0.36979166666666663 7.045247395833332  1.109375 5.8623046875  C 1.8489583333333335 4.679361979166668  2.84375 3.658637152777776  4.09375 2.8001302083333326  C 5.34375 1.9416232638888866  6.833333333333334 1.2603081597222192  8.5625 0.7561848958333325  C 10.291666666666668 0.2520616319444433  12.104166666666668 0  14 0  C 15.895833333333334 0  17.708333333333336 0.2520616319444433  19.4375 0.7561848958333325  C 21.166666666666668 1.2603081597222192  22.65625 1.9416232638888866  23.90625 2.8001302083333326  C 25.156250000000004 3.658637152777776  26.15104166666667 4.679361979166668  26.890625 5.8623046875  Z " fill-rule="evenodd" />
    </mask>
  </defs>
  <g transform="matrix(1 0 0 1 -896 -309 )">
    <path d="M 9.4140625 8.228190104166668  C 9.8046875 8.6025390625  10 9.054253472222221  10 9.583333333333332  C 10 10.112413194444443  9.8046875 10.564127604166668  9.4140625 10.9384765625  C 9.0234375 11.312825520833332  8.552083333333334 11.5  8 11.5  C 7.447916666666668 11.5  6.976562500000001 11.312825520833332  6.5859375 10.9384765625  C 6.1953125 10.564127604166668  6 10.112413194444443  6 9.583333333333332  C 6 9.054253472222221  6.1953125 8.6025390625  6.5859375 8.228190104166668  C 6.976562500000001 7.853841145833332  7.447916666666668 7.666666666666668  8 7.666666666666668  C 8.552083333333334 7.666666666666668  9.0234375 7.853841145833332  9.4140625 8.228190104166668  Z M 15.414062499999998 8.228190104166668  C 15.8046875 8.6025390625  16 9.054253472222221  16 9.583333333333332  C 16 10.112413194444443  15.8046875 10.564127604166668  15.414062499999998 10.9384765625  C 15.0234375 11.312825520833332  14.552083333333336 11.5  14 11.5  C 13.447916666666668 11.5  12.976562500000002 11.312825520833332  12.5859375 10.9384765625  C 12.1953125 10.564127604166668  12 10.112413194444443  12 9.583333333333332  C 12 9.054253472222221  12.1953125 8.6025390625  12.5859375 8.228190104166668  C 12.976562500000002 7.853841145833332  13.447916666666668 7.666666666666668  14 7.666666666666668  C 14.552083333333336 7.666666666666668  15.0234375 7.853841145833332  15.414062499999998 8.228190104166668  Z M 21.4140625 8.228190104166668  C 21.8046875 8.6025390625  22 9.054253472222221  22 9.583333333333332  C 22 10.112413194444443  21.8046875 10.564127604166668  21.4140625 10.9384765625  C 21.0234375 11.312825520833332  20.552083333333336 11.5  20 11.5  C 19.447916666666668 11.5  18.9765625 11.312825520833332  18.5859375 10.9384765625  C 18.1953125 10.564127604166668  18 10.112413194444443  18 9.583333333333332  C 18 9.054253472222221  18.1953125 8.6025390625  18.5859375 8.228190104166668  C 18.9765625 7.853841145833332  19.447916666666668 7.666666666666668  20 7.666666666666668  C 20.552083333333336 7.666666666666668  21.0234375 7.853841145833332  21.4140625 8.228190104166668  Z M 19.9609375 2.9573567708333326  C 18.111979166666668 2.263563368055554  16.125 1.9166666666666674  14 1.9166666666666674  C 11.875 1.9166666666666674  9.888020833333334 2.263563368055554  8.0390625 2.9573567708333326  C 6.190104166666667 3.6511501736111107  4.721354166666667 4.587022569444443  3.6328125 5.764973958333332  C 2.5442708333333335 6.942925347222219  2 8.215711805555554  2 9.583333333333332  C 2 10.70138888888889  2.3723958333333335 11.767035590277779  3.1171875 12.7802734375  C 3.861979166666667 13.793511284722221  4.911458333333334 14.669487847222221  6.265625 15.408203125  L 7.624999999999999 16.156901041666664  L 7.203125 17.594401041666668  C 6.953125 18.502821180555557  6.588541666666667 19.361328125  6.109375 20.169921875  C 7.692708333333334 19.541015625  9.125 18.6875  10.40625 17.609375  L 11.078125 17.040364583333336  L 11.96875 17.130208333333336  C 12.6875 17.210069444444443  13.364583333333334 17.25  14 17.25  C 16.125 17.25  18.111979166666668 16.903103298611107  19.9609375 16.209309895833336  C 21.809895833333336 15.515516493055552  23.278645833333336 14.579644097222221  24.3671875 13.401692708333336  C 25.455729166666668 12.223741319444443  26 10.95095486111111  26 9.583333333333332  C 26 8.215711805555554  25.455729166666668 6.942925347222219  24.3671875 5.764973958333332  C 23.278645833333336 4.587022569444443  21.809895833333336 3.6511501736111107  19.9609375 2.9573567708333326  Z M 26.890625 5.8623046875  C 27.630208333333336 7.045247395833332  28 8.285590277777775  28 9.583333333333332  C 28 11.3203125  27.375 12.925021701388886  26.125 14.3974609375  C 24.875 15.869900173611109  23.177083333333336 17.032877604166664  21.03125 17.886393229166668  C 18.885416666666668 18.739908854166668  16.541666666666668 19.166666666666668  14 19.166666666666668  C 13.270833333333334 19.166666666666668  12.515625 19.12673611111111  11.734375 19.046875  C 9.671875 20.793836805555557  7.276041666666668 22.00173611111111  4.546875 22.670572916666668  C 4.036458333333334 22.81032986111111  3.4427083333333335 22.92013888888889  2.765625 23  L 2.6875 23  C 2.53125 23  2.390625 22.947591145833332  2.265625 22.8427734375  C 2.140625 22.737955729166668  2.057291666666667 22.600694444444443  2.015625 22.430989583333332  L 2.015625 22.416015625  C 1.9843750000000004 22.376085069444446  1.9817708333333335 22.316189236111114  2.0078125 22.236328125  C 2.033854166666667 22.15646701388889  2.0442708333333335 22.106553819444443  2.0390625 22.086588541666668  C 2.033854166666667 22.06662326388889  2.057291666666667 22.019205729166668  2.109375 21.9443359375  L 2.203125 21.8095703125  C 2.203125 21.8095703125  2.2395833333333335 21.767144097222225  2.3125 21.682291666666668  C 2.385416666666667 21.59743923611111  2.4270833333333335 21.55251736111111  2.4375 21.547526041666668  C 2.510416666666667 21.467664930555557  2.671875 21.295464409722225  2.921875 21.030924479166668  C 3.171875 20.76638454861111  3.3515625 20.576714409722225  3.4609375 20.4619140625  C 3.5703125000000004 20.347113715277775  3.7317708333333335 20.149956597222225  3.9453125 19.870442708333332  C 4.158854166666667 19.590928819444443  4.328125 19.336371527777775  4.453125 19.106770833333332  C 4.578125 18.87717013888889  4.71875 18.582682291666668  4.875 18.223307291666668  C 5.03125 17.863932291666668  5.166666666666667 17.48459201388889  5.28125 17.085286458333336  C 3.6458333333333335 16.19683159722222  2.3567708333333335 15.098741319444443  1.4140625 13.791015625  C 0.47135416666666663 12.483289930555552  0 11.080729166666668  0 9.583333333333332  C 0 8.285590277777775  0.36979166666666663 7.045247395833332  1.109375 5.8623046875  C 1.8489583333333335 4.679361979166668  2.84375 3.658637152777776  4.09375 2.8001302083333326  C 5.34375 1.9416232638888866  6.833333333333334 1.2603081597222192  8.5625 0.7561848958333325  C 10.291666666666668 0.2520616319444433  12.104166666666668 0  14 0  C 15.895833333333334 0  17.708333333333336 0.2520616319444433  19.4375 0.7561848958333325  C 21.166666666666668 1.2603081597222192  22.65625 1.9416232638888866  23.90625 2.8001302083333326  C 25.156250000000004 3.658637152777776  26.15104166666667 4.679361979166668  26.890625 5.8623046875  Z " fill-rule="nonzero" fill="rgba(0, 0, 0, 1)" stroke="none" transform="matrix(1 0 0 1 896 309 )" class="fill" />
    <path d="M 9.4140625 8.228190104166668  C 9.8046875 8.6025390625  10 9.054253472222221  10 9.583333333333332  C 10 10.112413194444443  9.8046875 10.564127604166668  9.4140625 10.9384765625  C 9.0234375 11.312825520833332  8.552083333333334 11.5  8 11.5  C 7.447916666666668 11.5  6.976562500000001 11.312825520833332  6.5859375 10.9384765625  C 6.1953125 10.564127604166668  6 10.112413194444443  6 9.583333333333332  C 6 9.054253472222221  6.1953125 8.6025390625  6.5859375 8.228190104166668  C 6.976562500000001 7.853841145833332  7.447916666666668 7.666666666666668  8 7.666666666666668  C 8.552083333333334 7.666666666666668  9.0234375 7.853841145833332  9.4140625 8.228190104166668  Z " stroke-width="0" stroke-dasharray="0" stroke="rgba(255, 255, 255, 0)" fill="none" transform="matrix(1 0 0 1 896 309 )" class="stroke" mask="url(#Clip316)" />
    <path d="M 15.414062499999998 8.228190104166668  C 15.8046875 8.6025390625  16 9.054253472222221  16 9.583333333333332  C 16 10.112413194444443  15.8046875 10.564127604166668  15.414062499999998 10.9384765625  C 15.0234375 11.312825520833332  14.552083333333336 11.5  14 11.5  C 13.447916666666668 11.5  12.976562500000002 11.312825520833332  12.5859375 10.9384765625  C 12.1953125 10.564127604166668  12 10.112413194444443  12 9.583333333333332  C 12 9.054253472222221  12.1953125 8.6025390625  12.5859375 8.228190104166668  C 12.976562500000002 7.853841145833332  13.447916666666668 7.666666666666668  14 7.666666666666668  C 14.552083333333336 7.666666666666668  15.0234375 7.853841145833332  15.414062499999998 8.228190104166668  Z " stroke-width="0" stroke-dasharray="0" stroke="rgba(255, 255, 255, 0)" fill="none" transform="matrix(1 0 0 1 896 309 )" class="stroke" mask="url(#Clip316)" />
    <path d="M 21.4140625 8.228190104166668  C 21.8046875 8.6025390625  22 9.054253472222221  22 9.583333333333332  C 22 10.112413194444443  21.8046875 10.564127604166668  21.4140625 10.9384765625  C 21.0234375 11.312825520833332  20.552083333333336 11.5  20 11.5  C 19.447916666666668 11.5  18.9765625 11.312825520833332  18.5859375 10.9384765625  C 18.1953125 10.564127604166668  18 10.112413194444443  18 9.583333333333332  C 18 9.054253472222221  18.1953125 8.6025390625  18.5859375 8.228190104166668  C 18.9765625 7.853841145833332  19.447916666666668 7.666666666666668  20 7.666666666666668  C 20.552083333333336 7.666666666666668  21.0234375 7.853841145833332  21.4140625 8.228190104166668  Z " stroke-width="0" stroke-dasharray="0" stroke="rgba(255, 255, 255, 0)" fill="none" transform="matrix(1 0 0 1 896 309 )" class="stroke" mask="url(#Clip316)" />
    <path d="M 19.9609375 2.9573567708333326  C 18.111979166666668 2.263563368055554  16.125 1.9166666666666674  14 1.9166666666666674  C 11.875 1.9166666666666674  9.888020833333334 2.263563368055554  8.0390625 2.9573567708333326  C 6.190104166666667 3.6511501736111107  4.721354166666667 4.587022569444443  3.6328125 5.764973958333332  C 2.5442708333333335 6.942925347222219  2 8.215711805555554  2 9.583333333333332  C 2 10.70138888888889  2.3723958333333335 11.767035590277779  3.1171875 12.7802734375  C 3.861979166666667 13.793511284722221  4.911458333333334 14.669487847222221  6.265625 15.408203125  L 7.624999999999999 16.156901041666664  L 7.203125 17.594401041666668  C 6.953125 18.502821180555557  6.588541666666667 19.361328125  6.109375 20.169921875  C 7.692708333333334 19.541015625  9.125 18.6875  10.40625 17.609375  L 11.078125 17.040364583333336  L 11.96875 17.130208333333336  C 12.6875 17.210069444444443  13.364583333333334 17.25  14 17.25  C 16.125 17.25  18.111979166666668 16.903103298611107  19.9609375 16.209309895833336  C 21.809895833333336 15.515516493055552  23.278645833333336 14.579644097222221  24.3671875 13.401692708333336  C 25.455729166666668 12.223741319444443  26 10.95095486111111  26 9.583333333333332  C 26 8.215711805555554  25.455729166666668 6.942925347222219  24.3671875 5.764973958333332  C 23.278645833333336 4.587022569444443  21.809895833333336 3.6511501736111107  19.9609375 2.9573567708333326  Z " stroke-width="0" stroke-dasharray="0" stroke="rgba(255, 255, 255, 0)" fill="none" transform="matrix(1 0 0 1 896 309 )" class="stroke" mask="url(#Clip316)" />
    <path d="M 26.890625 5.8623046875  C 27.630208333333336 7.045247395833332  28 8.285590277777775  28 9.583333333333332  C 28 11.3203125  27.375 12.925021701388886  26.125 14.3974609375  C 24.875 15.869900173611109  23.177083333333336 17.032877604166664  21.03125 17.886393229166668  C 18.885416666666668 18.739908854166668  16.541666666666668 19.166666666666668  14 19.166666666666668  C 13.270833333333334 19.166666666666668  12.515625 19.12673611111111  11.734375 19.046875  C 9.671875 20.793836805555557  7.276041666666668 22.00173611111111  4.546875 22.670572916666668  C 4.036458333333334 22.81032986111111  3.4427083333333335 22.92013888888889  2.765625 23  L 2.6875 23  C 2.53125 23  2.390625 22.947591145833332  2.265625 22.8427734375  C 2.140625 22.737955729166668  2.057291666666667 22.600694444444443  2.015625 22.430989583333332  L 2.015625 22.416015625  C 1.9843750000000004 22.376085069444446  1.9817708333333335 22.316189236111114  2.0078125 22.236328125  C 2.033854166666667 22.15646701388889  2.0442708333333335 22.106553819444443  2.0390625 22.086588541666668  C 2.033854166666667 22.06662326388889  2.057291666666667 22.019205729166668  2.109375 21.9443359375  L 2.203125 21.8095703125  C 2.203125 21.8095703125  2.2395833333333335 21.767144097222225  2.3125 21.682291666666668  C 2.385416666666667 21.59743923611111  2.4270833333333335 21.55251736111111  2.4375 21.547526041666668  C 2.510416666666667 21.467664930555557  2.671875 21.295464409722225  2.921875 21.030924479166668  C 3.171875 20.76638454861111  3.3515625 20.576714409722225  3.4609375 20.4619140625  C 3.5703125000000004 20.347113715277775  3.7317708333333335 20.149956597222225  3.9453125 19.870442708333332  C 4.158854166666667 19.590928819444443  4.328125 19.336371527777775  4.453125 19.106770833333332  C 4.578125 18.87717013888889  4.71875 18.582682291666668  4.875 18.223307291666668  C 5.03125 17.863932291666668  5.166666666666667 17.48459201388889  5.28125 17.085286458333336  C 3.6458333333333335 16.19683159722222  2.3567708333333335 15.098741319444443  1.4140625 13.791015625  C 0.47135416666666663 12.483289930555552  0 11.080729166666668  0 9.583333333333332  C 0 8.285590277777775  0.36979166666666663 7.045247395833332  1.109375 5.8623046875  C 1.8489583333333335 4.679361979166668  2.84375 3.658637152777776  4.09375 2.8001302083333326  C 5.34375 1.9416232638888866  6.833333333333334 1.2603081597222192  8.5625 0.7561848958333325  C 10.291666666666668 0.2520616319444433  12.104166666666668 0  14 0  C 15.895833333333334 0  17.708333333333336 0.2520616319444433  19.4375 0.7561848958333325  C 21.166666666666668 1.2603081597222192  22.65625 1.9416232638888866  23.90625 2.8001302083333326  C 25.156250000000004 3.658637152777776  26.15104166666667 4.679361979166668  26.890625 5.8623046875  Z " stroke-width="0" stroke-dasharray="0" stroke="rgba(255, 255, 255, 0)" fill="none" transform="matrix(1 0 0 1 896 309 )" class="stroke" mask="url(#Clip316)" />
  </g>
</svg>