<?xml version="1.0" encoding="utf-8"?>
<svg version="1.1" xmlns:xlink="http://www.w3.org/1999/xlink" width="39px" height="36px" xmlns="http://www.w3.org/2000/svg">
  <defs>
    <pattern id="BGPattern" patternUnits="userSpaceOnUse" alignment="0 0" imageRepeat="None" />
    <mask fill="white" id="Clip317">
      <path d="M 22.7880859375 28.78580814717477  C 24.4384765625 30.741130091984232  26.431640625 32.404730617608415  28.767578125 33.776609724047304  C 25.873046875 35.25886990801577  22.758463541666668 36  19.423828125 36  C 16.106119791666668 36  13 35.25886990801577  10.10546875 33.776609724047304  C 12.44140625 32.404730617608415  14.4345703125 30.741130091984232  16.0849609375 28.78580814717477  C 17.7353515625 26.83048620236531  18.848307291666668 24.717477003942182  19.423828125 22.446780551905388  C 20.016276041666668 24.717477003942182  21.1376953125 26.83048620236531  22.7880859375 28.78580814717477  Z M 7.947265625 3.240473061760843  C 10.418619791666668 1.5532194480946102  13.169270833333336 0.4730617608409986  16.19921875 0  L 16.19921875 11.47174770039422  C 16.19921875 15.445466491458607  15.128580729166666 19.06833114323259  12.9873046875 22.340341655716166  C 10.846028645833334 25.61235216819974  8.048828125 28.028909329829172  4.595703125 29.590013140604466  C 1.5319010416666667 26.19973718791064  0 22.296977660972402  0 17.88173455978975  C 0 14.93298291721419  0.7067057291666666 12.177398160315372  2.1201171875 9.614980289093298  C 3.5335286458333335 7.0525624178712185  5.475911458333334 4.927726675427067  7.947265625 3.240473061760843  Z M 36.8798828125 9.614980289093298  C 38.29329427083333 12.177398160315372  39 14.93298291721419  39 17.88173455978975  C 39 22.296977660972402  37.46809895833333 26.19973718791064  34.404296875 29.590013140604466  C 30.951171875 28.028909329829172  28.153971354166668 25.61235216819974  26.0126953125 22.340341655716166  C 23.871419270833336 19.06833114323259  22.80078125 15.445466491458607  22.80078125 11.47174770039422  L 22.80078125 0  C 25.830729166666668 0.4730617608409986  28.581380208333332 1.5532194480946102  31.052734375 3.240473061760843  C 33.52408854166667 4.927726675427067  35.46647135416667 7.0525624178712185  36.8798828125 9.614980289093298  Z " fill-rule="evenodd" />
    </mask>
  </defs>
  <g transform="matrix(1 0 0 1 -6106 -691 )">
    <path d="M 22.7880859375 28.78580814717477  C 24.4384765625 30.741130091984232  26.431640625 32.404730617608415  28.767578125 33.776609724047304  C 25.873046875 35.25886990801577  22.758463541666668 36  19.423828125 36  C 16.106119791666668 36  13 35.25886990801577  10.10546875 33.776609724047304  C 12.44140625 32.404730617608415  14.4345703125 30.741130091984232  16.0849609375 28.78580814717477  C 17.7353515625 26.83048620236531  18.848307291666668 24.717477003942182  19.423828125 22.446780551905388  C 20.016276041666668 24.717477003942182  21.1376953125 26.83048620236531  22.7880859375 28.78580814717477  Z M 7.947265625 3.240473061760843  C 10.418619791666668 1.5532194480946102  13.169270833333336 0.4730617608409986  16.19921875 0  L 16.19921875 11.47174770039422  C 16.19921875 15.445466491458607  15.128580729166666 19.06833114323259  12.9873046875 22.340341655716166  C 10.846028645833334 25.61235216819974  8.048828125 28.028909329829172  4.595703125 29.590013140604466  C 1.5319010416666667 26.19973718791064  0 22.296977660972402  0 17.88173455978975  C 0 14.93298291721419  0.7067057291666666 12.177398160315372  2.1201171875 9.614980289093298  C 3.5335286458333335 7.0525624178712185  5.475911458333334 4.927726675427067  7.947265625 3.240473061760843  Z M 36.8798828125 9.614980289093298  C 38.29329427083333 12.177398160315372  39 14.93298291721419  39 17.88173455978975  C 39 22.296977660972402  37.46809895833333 26.19973718791064  34.404296875 29.590013140604466  C 30.951171875 28.028909329829172  28.153971354166668 25.61235216819974  26.0126953125 22.340341655716166  C 23.871419270833336 19.06833114323259  22.80078125 15.445466491458607  22.80078125 11.47174770039422  L 22.80078125 0  C 25.830729166666668 0.4730617608409986  28.581380208333332 1.5532194480946102  31.052734375 3.240473061760843  C 33.52408854166667 4.927726675427067  35.46647135416667 7.0525624178712185  36.8798828125 9.614980289093298  Z " fill-rule="nonzero" fill="rgba(0, 0, 0, 1)" stroke="none" transform="matrix(1 0 0 1 6106 691 )" class="fill" />
    <path d="M 22.7880859375 28.78580814717477  C 24.4384765625 30.741130091984232  26.431640625 32.404730617608415  28.767578125 33.776609724047304  C 25.873046875 35.25886990801577  22.758463541666668 36  19.423828125 36  C 16.106119791666668 36  13 35.25886990801577  10.10546875 33.776609724047304  C 12.44140625 32.404730617608415  14.4345703125 30.741130091984232  16.0849609375 28.78580814717477  C 17.7353515625 26.83048620236531  18.848307291666668 24.717477003942182  19.423828125 22.446780551905388  C 20.016276041666668 24.717477003942182  21.1376953125 26.83048620236531  22.7880859375 28.78580814717477  Z " stroke-width="0" stroke-dasharray="0" stroke="rgba(255, 255, 255, 0)" fill="none" transform="matrix(1 0 0 1 6106 691 )" class="stroke" mask="url(#Clip317)" />
    <path d="M 7.947265625 3.240473061760843  C 10.418619791666668 1.5532194480946102  13.169270833333336 0.4730617608409986  16.19921875 0  L 16.19921875 11.47174770039422  C 16.19921875 15.445466491458607  15.128580729166666 19.06833114323259  12.9873046875 22.340341655716166  C 10.846028645833334 25.61235216819974  8.048828125 28.028909329829172  4.595703125 29.590013140604466  C 1.5319010416666667 26.19973718791064  0 22.296977660972402  0 17.88173455978975  C 0 14.93298291721419  0.7067057291666666 12.177398160315372  2.1201171875 9.614980289093298  C 3.5335286458333335 7.0525624178712185  5.475911458333334 4.927726675427067  7.947265625 3.240473061760843  Z " stroke-width="0" stroke-dasharray="0" stroke="rgba(255, 255, 255, 0)" fill="none" transform="matrix(1 0 0 1 6106 691 )" class="stroke" mask="url(#Clip317)" />
    <path d="M 36.8798828125 9.614980289093298  C 38.29329427083333 12.177398160315372  39 14.93298291721419  39 17.88173455978975  C 39 22.296977660972402  37.46809895833333 26.19973718791064  34.404296875 29.590013140604466  C 30.951171875 28.028909329829172  28.153971354166668 25.61235216819974  26.0126953125 22.340341655716166  C 23.871419270833336 19.06833114323259  22.80078125 15.445466491458607  22.80078125 11.47174770039422  L 22.80078125 0  C 25.830729166666668 0.4730617608409986  28.581380208333332 1.5532194480946102  31.052734375 3.240473061760843  C 33.52408854166667 4.927726675427067  35.46647135416667 7.0525624178712185  36.8798828125 9.614980289093298  Z " stroke-width="0" stroke-dasharray="0" stroke="rgba(255, 255, 255, 0)" fill="none" transform="matrix(1 0 0 1 6106 691 )" class="stroke" mask="url(#Clip317)" />
  </g>
</svg>