<?xml version="1.0" encoding="utf-8"?>
<svg version="1.1" xmlns:xlink="http://www.w3.org/1999/xlink" width="35px" height="31px" xmlns="http://www.w3.org/2000/svg">
  <defs>
    <pattern id="BGPattern" patternUnits="userSpaceOnUse" alignment="0 0" imageRepeat="None" />
    <mask fill="white" id="Clip319">
      <path d="M 4.679987980769231 12.95703125  C 6.0051081730769225 14.087239583333334  7.65625 14.84743923611111  9.633413461538462 15.237630208333334  C 8.595753205128204 13.057942708333334  8.076923076923077 10.56206597222222  8.076923076923077 7.75  L 2.6923076923076925 7.75  L 2.6923076923076925 9.6875  C 2.6923076923076925 10.736979166666666  3.3548677884615388 11.826822916666666  4.679987980769231 12.95703125  Z M 30.32001201923077 12.95703125  C 31.64513221153846 11.826822916666666  32.30769230769231 10.736979166666666  32.30769230769231 9.6875  L 32.30769230769231 7.75  L 26.923076923076923 7.75  C 26.923076923076923 10.56206597222222  26.404246794871796 13.057942708333334  25.36658653846154 15.237630208333334  C 27.34375 14.84743923611111  28.994891826923077 14.087239583333334  30.32001201923077 12.95703125  Z M 34.41105769230769 5.731770833333335  C 34.8036858974359 6.108506944444443  35 6.56597222222222  35 7.104166666666665  L 35 9.6875  C 35 10.64279513888889  34.709034455128204 11.604817708333334  34.12710336538461 12.573567708333334  C 33.54517227564103 13.542317708333334  32.75991586538462 14.416883680555554  31.771334134615383 15.197265625  C 30.782752403846153 15.977647569444446  29.569811698717952 16.633572048611107  28.13251201923077 17.1650390625  C 26.69521233974359 17.696506076388886  25.184294871794876 17.995876736111107  23.599759615384617 18.063151041666668  C 23.01081730769231 18.789713541666668  22.344751602564106 19.42881944444444  21.6015625 19.98046875  C 21.068709935897438 20.43793402777778  20.700620993589745 20.92567274305556  20.497295673076923 21.443684895833332  C 20.293970352564106 21.961697048611107  20.192307692307693 22.563802083333332  20.19230769230769 23.25  C 20.192307692307693 23.9765625  20.40614983974359 24.588758680555554  20.833834134615383 25.086588541666664  C 21.261518429487182 25.584418402777782  21.945112179487182 25.833333333333336  22.884615384615383 25.833333333333336  C 23.936298076923077 25.833333333333336  24.872295673076923 26.13943142361111  25.692608173076923 26.751627604166664  C 26.512920673076923 27.363823784722218  26.923076923076923 28.134114583333336  26.923076923076923 29.0625  L 26.923076923076923 30.354166666666664  C 26.923076923076923 30.542534722222218  26.85997596153846 30.697265625  26.73377403846154 30.818359375  C 26.607572115384617 30.939453125  26.446314102564106 31  26.25 31  L 8.75 31  C 8.5536858974359 31  8.392427884615385 30.939453125  8.266225961538462 30.818359375  C 8.140024038461538 30.697265625  8.076923076923077 30.542534722222218  8.076923076923077 30.354166666666664  L 8.076923076923077 29.0625  C 8.076923076923077 28.134114583333336  8.487079326923077 27.363823784722218  9.307391826923077 26.751627604166664  C 10.127704326923077 26.13943142361111  11.063701923076923 25.833333333333336  12.115384615384615 25.833333333333336  C 13.054887820512823 25.833333333333336  13.738481570512823 25.584418402777782  14.166165865384615 25.086588541666664  C 14.59385016025641 24.588758680555554  14.807692307692308 23.9765625  14.807692307692308 23.25  C 14.807692307692308 22.563802083333332  14.706029647435898 21.961697048611107  14.502704326923077 21.443684895833332  C 14.299379006410257 20.92567274305556  13.931290064102564 20.43793402777778  13.3984375 19.98046875  C 12.655248397435898 19.42881944444444  11.989182692307692 18.789713541666668  11.400240384615385 18.063151041666668  C 9.81570512820513 17.995876736111107  8.30478766025641 17.696506076388886  6.867487980769231 17.1650390625  C 5.430188301282052 16.633572048611107  4.217247596153846 15.977647569444446  3.2286658653846154 15.197265625  C 2.2400841346153846 14.416883680555554  1.4548277243589745 13.542317708333334  0.8728966346153847 12.573567708333334  C 0.2909655448717949 11.604817708333334  0 10.64279513888889  0 9.6875  L 0 7.104166666666665  C 0 6.56597222222222  0.19631410256410253 6.108506944444443  0.5889423076923077 5.731770833333335  C 0.981570512820513 5.35503472222222  1.4583333333333335 5.166666666666665  2.019230769230769 5.166666666666665  L 8.076923076923077 5.166666666666665  L 8.076923076923077 3.2291666666666656  C 8.076923076923077 2.3411458333333344  8.40645032051282 1.580946180555554  9.065504807692308 0.9485677083333345  C 9.724559294871796 0.31618923611110805  10.516826923076923 0  11.442307692307692 0  L 23.55769230769231 0  C 24.483173076923077 0  25.275440705128208 0.31618923611110805  25.93449519230769 0.9485677083333345  C 26.593549679487182 1.580946180555554  26.923076923076923 2.3411458333333344  26.923076923076923 3.2291666666666656  L 26.923076923076923 5.166666666666665  L 32.98076923076923 5.166666666666665  C 33.54166666666667 5.166666666666665  34.01842948717949 5.35503472222222  34.41105769230769 5.731770833333335  Z " fill-rule="evenodd" />
    </mask>
  </defs>
  <g transform="matrix(1 0 0 1 -6568 -745 )">
    <path d="M 4.679987980769231 12.95703125  C 6.0051081730769225 14.087239583333334  7.65625 14.84743923611111  9.633413461538462 15.237630208333334  C 8.595753205128204 13.057942708333334  8.076923076923077 10.56206597222222  8.076923076923077 7.75  L 2.6923076923076925 7.75  L 2.6923076923076925 9.6875  C 2.6923076923076925 10.736979166666666  3.3548677884615388 11.826822916666666  4.679987980769231 12.95703125  Z M 30.32001201923077 12.95703125  C 31.64513221153846 11.826822916666666  32.30769230769231 10.736979166666666  32.30769230769231 9.6875  L 32.30769230769231 7.75  L 26.923076923076923 7.75  C 26.923076923076923 10.56206597222222  26.404246794871796 13.057942708333334  25.36658653846154 15.237630208333334  C 27.34375 14.84743923611111  28.994891826923077 14.087239583333334  30.32001201923077 12.95703125  Z M 34.41105769230769 5.731770833333335  C 34.8036858974359 6.108506944444443  35 6.56597222222222  35 7.104166666666665  L 35 9.6875  C 35 10.64279513888889  34.709034455128204 11.604817708333334  34.12710336538461 12.573567708333334  C 33.54517227564103 13.542317708333334  32.75991586538462 14.416883680555554  31.771334134615383 15.197265625  C 30.782752403846153 15.977647569444446  29.569811698717952 16.633572048611107  28.13251201923077 17.1650390625  C 26.69521233974359 17.696506076388886  25.184294871794876 17.995876736111107  23.599759615384617 18.063151041666668  C 23.01081730769231 18.789713541666668  22.344751602564106 19.42881944444444  21.6015625 19.98046875  C 21.068709935897438 20.43793402777778  20.700620993589745 20.92567274305556  20.497295673076923 21.443684895833332  C 20.293970352564106 21.961697048611107  20.192307692307693 22.563802083333332  20.19230769230769 23.25  C 20.192307692307693 23.9765625  20.40614983974359 24.588758680555554  20.833834134615383 25.086588541666664  C 21.261518429487182 25.584418402777782  21.945112179487182 25.833333333333336  22.884615384615383 25.833333333333336  C 23.936298076923077 25.833333333333336  24.872295673076923 26.13943142361111  25.692608173076923 26.751627604166664  C 26.512920673076923 27.363823784722218  26.923076923076923 28.134114583333336  26.923076923076923 29.0625  L 26.923076923076923 30.354166666666664  C 26.923076923076923 30.542534722222218  26.85997596153846 30.697265625  26.73377403846154 30.818359375  C 26.607572115384617 30.939453125  26.446314102564106 31  26.25 31  L 8.75 31  C 8.5536858974359 31  8.392427884615385 30.939453125  8.266225961538462 30.818359375  C 8.140024038461538 30.697265625  8.076923076923077 30.542534722222218  8.076923076923077 30.354166666666664  L 8.076923076923077 29.0625  C 8.076923076923077 28.134114583333336  8.487079326923077 27.363823784722218  9.307391826923077 26.751627604166664  C 10.127704326923077 26.13943142361111  11.063701923076923 25.833333333333336  12.115384615384615 25.833333333333336  C 13.054887820512823 25.833333333333336  13.738481570512823 25.584418402777782  14.166165865384615 25.086588541666664  C 14.59385016025641 24.588758680555554  14.807692307692308 23.9765625  14.807692307692308 23.25  C 14.807692307692308 22.563802083333332  14.706029647435898 21.961697048611107  14.502704326923077 21.443684895833332  C 14.299379006410257 20.92567274305556  13.931290064102564 20.43793402777778  13.3984375 19.98046875  C 12.655248397435898 19.42881944444444  11.989182692307692 18.789713541666668  11.400240384615385 18.063151041666668  C 9.81570512820513 17.995876736111107  8.30478766025641 17.696506076388886  6.867487980769231 17.1650390625  C 5.430188301282052 16.633572048611107  4.217247596153846 15.977647569444446  3.2286658653846154 15.197265625  C 2.2400841346153846 14.416883680555554  1.4548277243589745 13.542317708333334  0.8728966346153847 12.573567708333334  C 0.2909655448717949 11.604817708333334  0 10.64279513888889  0 9.6875  L 0 7.104166666666665  C 0 6.56597222222222  0.19631410256410253 6.108506944444443  0.5889423076923077 5.731770833333335  C 0.981570512820513 5.35503472222222  1.4583333333333335 5.166666666666665  2.019230769230769 5.166666666666665  L 8.076923076923077 5.166666666666665  L 8.076923076923077 3.2291666666666656  C 8.076923076923077 2.3411458333333344  8.40645032051282 1.580946180555554  9.065504807692308 0.9485677083333345  C 9.724559294871796 0.31618923611110805  10.516826923076923 0  11.442307692307692 0  L 23.55769230769231 0  C 24.483173076923077 0  25.275440705128208 0.31618923611110805  25.93449519230769 0.9485677083333345  C 26.593549679487182 1.580946180555554  26.923076923076923 2.3411458333333344  26.923076923076923 3.2291666666666656  L 26.923076923076923 5.166666666666665  L 32.98076923076923 5.166666666666665  C 33.54166666666667 5.166666666666665  34.01842948717949 5.35503472222222  34.41105769230769 5.731770833333335  Z " fill-rule="nonzero" fill="rgba(0, 0, 0, 1)" stroke="none" transform="matrix(1 0 0 1 6568 745 )" class="fill" />
    <path d="M 4.679987980769231 12.95703125  C 6.0051081730769225 14.087239583333334  7.65625 14.84743923611111  9.633413461538462 15.237630208333334  C 8.595753205128204 13.057942708333334  8.076923076923077 10.56206597222222  8.076923076923077 7.75  L 2.6923076923076925 7.75  L 2.6923076923076925 9.6875  C 2.6923076923076925 10.736979166666666  3.3548677884615388 11.826822916666666  4.679987980769231 12.95703125  Z " stroke-width="0" stroke-dasharray="0" stroke="rgba(255, 255, 255, 0)" fill="none" transform="matrix(1 0 0 1 6568 745 )" class="stroke" mask="url(#Clip319)" />
    <path d="M 30.32001201923077 12.95703125  C 31.64513221153846 11.826822916666666  32.30769230769231 10.736979166666666  32.30769230769231 9.6875  L 32.30769230769231 7.75  L 26.923076923076923 7.75  C 26.923076923076923 10.56206597222222  26.404246794871796 13.057942708333334  25.36658653846154 15.237630208333334  C 27.34375 14.84743923611111  28.994891826923077 14.087239583333334  30.32001201923077 12.95703125  Z " stroke-width="0" stroke-dasharray="0" stroke="rgba(255, 255, 255, 0)" fill="none" transform="matrix(1 0 0 1 6568 745 )" class="stroke" mask="url(#Clip319)" />
    <path d="M 34.41105769230769 5.731770833333335  C 34.8036858974359 6.108506944444443  35 6.56597222222222  35 7.104166666666665  L 35 9.6875  C 35 10.64279513888889  34.709034455128204 11.604817708333334  34.12710336538461 12.573567708333334  C 33.54517227564103 13.542317708333334  32.75991586538462 14.416883680555554  31.771334134615383 15.197265625  C 30.782752403846153 15.977647569444446  29.569811698717952 16.633572048611107  28.13251201923077 17.1650390625  C 26.69521233974359 17.696506076388886  25.184294871794876 17.995876736111107  23.599759615384617 18.063151041666668  C 23.01081730769231 18.789713541666668  22.344751602564106 19.42881944444444  21.6015625 19.98046875  C 21.068709935897438 20.43793402777778  20.700620993589745 20.92567274305556  20.497295673076923 21.443684895833332  C 20.293970352564106 21.961697048611107  20.192307692307693 22.563802083333332  20.19230769230769 23.25  C 20.192307692307693 23.9765625  20.40614983974359 24.588758680555554  20.833834134615383 25.086588541666664  C 21.261518429487182 25.584418402777782  21.945112179487182 25.833333333333336  22.884615384615383 25.833333333333336  C 23.936298076923077 25.833333333333336  24.872295673076923 26.13943142361111  25.692608173076923 26.751627604166664  C 26.512920673076923 27.363823784722218  26.923076923076923 28.134114583333336  26.923076923076923 29.0625  L 26.923076923076923 30.354166666666664  C 26.923076923076923 30.542534722222218  26.85997596153846 30.697265625  26.73377403846154 30.818359375  C 26.607572115384617 30.939453125  26.446314102564106 31  26.25 31  L 8.75 31  C 8.5536858974359 31  8.392427884615385 30.939453125  8.266225961538462 30.818359375  C 8.140024038461538 30.697265625  8.076923076923077 30.542534722222218  8.076923076923077 30.354166666666664  L 8.076923076923077 29.0625  C 8.076923076923077 28.134114583333336  8.487079326923077 27.363823784722218  9.307391826923077 26.751627604166664  C 10.127704326923077 26.13943142361111  11.063701923076923 25.833333333333336  12.115384615384615 25.833333333333336  C 13.054887820512823 25.833333333333336  13.738481570512823 25.584418402777782  14.166165865384615 25.086588541666664  C 14.59385016025641 24.588758680555554  14.807692307692308 23.9765625  14.807692307692308 23.25  C 14.807692307692308 22.563802083333332  14.706029647435898 21.961697048611107  14.502704326923077 21.443684895833332  C 14.299379006410257 20.92567274305556  13.931290064102564 20.43793402777778  13.3984375 19.98046875  C 12.655248397435898 19.42881944444444  11.989182692307692 18.789713541666668  11.400240384615385 18.063151041666668  C 9.81570512820513 17.995876736111107  8.30478766025641 17.696506076388886  6.867487980769231 17.1650390625  C 5.430188301282052 16.633572048611107  4.217247596153846 15.977647569444446  3.2286658653846154 15.197265625  C 2.2400841346153846 14.416883680555554  1.4548277243589745 13.542317708333334  0.8728966346153847 12.573567708333334  C 0.2909655448717949 11.604817708333334  0 10.64279513888889  0 9.6875  L 0 7.104166666666665  C 0 6.56597222222222  0.19631410256410253 6.108506944444443  0.5889423076923077 5.731770833333335  C 0.981570512820513 5.35503472222222  1.4583333333333335 5.166666666666665  2.019230769230769 5.166666666666665  L 8.076923076923077 5.166666666666665  L 8.076923076923077 3.2291666666666656  C 8.076923076923077 2.3411458333333344  8.40645032051282 1.580946180555554  9.065504807692308 0.9485677083333345  C 9.724559294871796 0.31618923611110805  10.516826923076923 0  11.442307692307692 0  L 23.55769230769231 0  C 24.483173076923077 0  25.275440705128208 0.31618923611110805  25.93449519230769 0.9485677083333345  C 26.593549679487182 1.580946180555554  26.923076923076923 2.3411458333333344  26.923076923076923 3.2291666666666656  L 26.923076923076923 5.166666666666665  L 32.98076923076923 5.166666666666665  C 33.54166666666667 5.166666666666665  34.01842948717949 5.35503472222222  34.41105769230769 5.731770833333335  Z " stroke-width="0" stroke-dasharray="0" stroke="rgba(255, 255, 255, 0)" fill="none" transform="matrix(1 0 0 1 6568 745 )" class="stroke" mask="url(#Clip319)" />
  </g>
</svg>