<?xml version="1.0" encoding="utf-8"?>
<svg version="1.1" xmlns:xlink="http://www.w3.org/1999/xlink" width="29px" height="24px" xmlns="http://www.w3.org/2000/svg">
  <defs>
    <pattern id="BGPattern" patternUnits="userSpaceOnUse" alignment="0 0" imageRepeat="None" />
    <mask fill="white" id="Clip320">
      <path d="M 3.877704326923077 10.03125  C 4.9756610576923075 10.90625  6.34375 11.494791666666668  7.981971153846154 11.796875  C 7.122195512820513 10.109375  6.6923076923076925 8.177083333333332  6.6923076923076925 6  L 2.230769230769231 6  L 2.230769230769231 7.5  C 2.230769230769231 8.3125  2.7797475961538463 9.15625  3.877704326923077 10.03125  Z M 25.122295673076923 10.03125  C 26.220252403846153 9.15625  26.76923076923077 8.3125  26.76923076923077 7.5  L 26.76923076923077 6  L 22.30769230769231 6  C 22.30769230769231 8.177083333333332  21.87780448717949 10.109375  21.018028846153847 11.796875  C 22.65625 11.494791666666668  24.02433894230769 10.90625  25.122295673076923 10.03125  Z M 28.51201923076923 4.437500000000001  C 28.837339743589745 4.729166666666665  29 5.083333333333331  29 5.499999999999999  L 29 7.5  C 29 8.239583333333332  28.758914262820515 8.984375  28.276742788461537 9.734375  C 27.79457131410257 10.484375  27.14393028846154 11.161458333333332  26.324819711538463 11.765625  C 25.505709134615387 12.369791666666668  24.500701121794872 12.877604166666664  23.309795673076923 13.2890625  C 22.118890224358978 13.70052083333333  20.866987179487182 13.932291666666664  19.554086538461537 13.984375000000002  C 19.06610576923077 14.546875000000002  18.51422275641026 15.041666666666663  17.8984375 15.46875  C 17.45693108974359 15.822916666666666  17.151943108974358 16.200520833333336  16.98347355769231 16.6015625  C 16.81500400641026 17.002604166666664  16.730769230769234 17.46875  16.73076923076923 18  C 16.730769230769234 18.5625  16.907952724358978 19.036458333333332  17.262319711538463 19.421875  C 17.61668669871795 19.807291666666668  18.18309294871795 20  18.961538461538463 20  C 19.83293269230769 20  20.60847355769231 20.236979166666668  21.28816105769231 20.7109375  C 21.96784855769231 21.184895833333332  22.30769230769231 21.78125  22.30769230769231 22.5  L 22.30769230769231 23.5  C 22.30769230769231 23.645833333333332  22.255408653846153 23.765625  22.150841346153847 23.859375  C 22.046274038461537 23.953125  21.91266025641026 24  21.75 24  L 7.25 24  C 7.087339743589745 24  6.953725961538463 23.953125  6.849158653846153 23.859375  C 6.744591346153847 23.765625  6.6923076923076925 23.645833333333332  6.6923076923076925 23.5  L 6.6923076923076925 22.5  C 6.6923076923076925 21.78125  7.0321514423076925 21.184895833333332  7.7118389423076925 20.7109375  C 8.391526442307693 20.236979166666668  9.167067307692307 20  10.038461538461538 20  C 10.816907051282053 20  11.383313301282053 19.807291666666668  11.737680288461538 19.421875  C 12.092047275641027 19.036458333333332  12.269230769230768 18.5625  12.269230769230768 18  C 12.269230769230768 17.46875  12.184995993589745 17.002604166666664  12.016526442307693 16.6015625  C 11.84805689102564 16.200520833333336  11.54306891025641 15.822916666666666  11.1015625 15.46875  C 10.485777243589745 15.041666666666663  9.933894230769232 14.546875000000002  9.445913461538462 13.984375000000002  C 8.133012820512823 13.932291666666664  6.881109775641026 13.70052083333333  5.6902043269230775 13.2890625  C 4.499298878205129 12.877604166666664  3.4942908653846154 12.369791666666668  2.6751802884615388 11.765625  C 1.8560697115384615 11.161458333333332  1.2054286858974361 10.484375  0.7232572115384616 9.734375  C 0.24108573717948717 8.984375  0 8.239583333333332  0 7.5  L 0 5.499999999999999  C 0 5.083333333333331  0.1626602564102564 4.729166666666665  0.4879807692307692 4.437500000000001  C 0.8133012820512822 4.145833333333331  1.2083333333333335 3.999999999999999  1.6730769230769231 3.999999999999999  L 6.6923076923076925 3.999999999999999  L 6.6923076923076925 2.499999999999999  C 6.6923076923076925 1.8125000000000009  6.965344551282051 1.2239583333333321  7.511418269230769 0.7343750000000009  C 8.057491987179489 0.2447916666666643  8.713942307692307 0  9.480769230769232 0  L 19.51923076923077 0  C 20.28605769230769 0  20.942508012820515 0.2447916666666643  21.48858173076923 0.7343750000000009  C 22.03465544871795 1.2239583333333321  22.30769230769231 1.8125000000000009  22.30769230769231 2.499999999999999  L 22.30769230769231 3.999999999999999  L 27.326923076923077 3.999999999999999  C 27.79166666666667 3.999999999999999  28.186698717948723 4.145833333333331  28.51201923076923 4.437500000000001  Z " fill-rule="evenodd" />
    </mask>
  </defs>
  <g transform="matrix(1 0 0 1 -6761 -953 )">
    <path d="M 3.877704326923077 10.03125  C 4.9756610576923075 10.90625  6.34375 11.494791666666668  7.981971153846154 11.796875  C 7.122195512820513 10.109375  6.6923076923076925 8.177083333333332  6.6923076923076925 6  L 2.230769230769231 6  L 2.230769230769231 7.5  C 2.230769230769231 8.3125  2.7797475961538463 9.15625  3.877704326923077 10.03125  Z M 25.122295673076923 10.03125  C 26.220252403846153 9.15625  26.76923076923077 8.3125  26.76923076923077 7.5  L 26.76923076923077 6  L 22.30769230769231 6  C 22.30769230769231 8.177083333333332  21.87780448717949 10.109375  21.018028846153847 11.796875  C 22.65625 11.494791666666668  24.02433894230769 10.90625  25.122295673076923 10.03125  Z M 28.51201923076923 4.437500000000001  C 28.837339743589745 4.729166666666665  29 5.083333333333331  29 5.499999999999999  L 29 7.5  C 29 8.239583333333332  28.758914262820515 8.984375  28.276742788461537 9.734375  C 27.79457131410257 10.484375  27.14393028846154 11.161458333333332  26.324819711538463 11.765625  C 25.505709134615387 12.369791666666668  24.500701121794872 12.877604166666664  23.309795673076923 13.2890625  C 22.118890224358978 13.70052083333333  20.866987179487182 13.932291666666664  19.554086538461537 13.984375000000002  C 19.06610576923077 14.546875000000002  18.51422275641026 15.041666666666663  17.8984375 15.46875  C 17.45693108974359 15.822916666666666  17.151943108974358 16.200520833333336  16.98347355769231 16.6015625  C 16.81500400641026 17.002604166666664  16.730769230769234 17.46875  16.73076923076923 18  C 16.730769230769234 18.5625  16.907952724358978 19.036458333333332  17.262319711538463 19.421875  C 17.61668669871795 19.807291666666668  18.18309294871795 20  18.961538461538463 20  C 19.83293269230769 20  20.60847355769231 20.236979166666668  21.28816105769231 20.7109375  C 21.96784855769231 21.184895833333332  22.30769230769231 21.78125  22.30769230769231 22.5  L 22.30769230769231 23.5  C 22.30769230769231 23.645833333333332  22.255408653846153 23.765625  22.150841346153847 23.859375  C 22.046274038461537 23.953125  21.91266025641026 24  21.75 24  L 7.25 24  C 7.087339743589745 24  6.953725961538463 23.953125  6.849158653846153 23.859375  C 6.744591346153847 23.765625  6.6923076923076925 23.645833333333332  6.6923076923076925 23.5  L 6.6923076923076925 22.5  C 6.6923076923076925 21.78125  7.0321514423076925 21.184895833333332  7.7118389423076925 20.7109375  C 8.391526442307693 20.236979166666668  9.167067307692307 20  10.038461538461538 20  C 10.816907051282053 20  11.383313301282053 19.807291666666668  11.737680288461538 19.421875  C 12.092047275641027 19.036458333333332  12.269230769230768 18.5625  12.269230769230768 18  C 12.269230769230768 17.46875  12.184995993589745 17.002604166666664  12.016526442307693 16.6015625  C 11.84805689102564 16.200520833333336  11.54306891025641 15.822916666666666  11.1015625 15.46875  C 10.485777243589745 15.041666666666663  9.933894230769232 14.546875000000002  9.445913461538462 13.984375000000002  C 8.133012820512823 13.932291666666664  6.881109775641026 13.70052083333333  5.6902043269230775 13.2890625  C 4.499298878205129 12.877604166666664  3.4942908653846154 12.369791666666668  2.6751802884615388 11.765625  C 1.8560697115384615 11.161458333333332  1.2054286858974361 10.484375  0.7232572115384616 9.734375  C 0.24108573717948717 8.984375  0 8.239583333333332  0 7.5  L 0 5.499999999999999  C 0 5.083333333333331  0.1626602564102564 4.729166666666665  0.4879807692307692 4.437500000000001  C 0.8133012820512822 4.145833333333331  1.2083333333333335 3.999999999999999  1.6730769230769231 3.999999999999999  L 6.6923076923076925 3.999999999999999  L 6.6923076923076925 2.499999999999999  C 6.6923076923076925 1.8125000000000009  6.965344551282051 1.2239583333333321  7.511418269230769 0.7343750000000009  C 8.057491987179489 0.2447916666666643  8.713942307692307 0  9.480769230769232 0  L 19.51923076923077 0  C 20.28605769230769 0  20.942508012820515 0.2447916666666643  21.48858173076923 0.7343750000000009  C 22.03465544871795 1.2239583333333321  22.30769230769231 1.8125000000000009  22.30769230769231 2.499999999999999  L 22.30769230769231 3.999999999999999  L 27.326923076923077 3.999999999999999  C 27.79166666666667 3.999999999999999  28.186698717948723 4.145833333333331  28.51201923076923 4.437500000000001  Z " fill-rule="nonzero" fill="rgba(0, 0, 0, 1)" stroke="none" transform="matrix(1 0 0 1 6761 953 )" class="fill" />
    <path d="M 3.877704326923077 10.03125  C 4.9756610576923075 10.90625  6.34375 11.494791666666668  7.981971153846154 11.796875  C 7.122195512820513 10.109375  6.6923076923076925 8.177083333333332  6.6923076923076925 6  L 2.230769230769231 6  L 2.230769230769231 7.5  C 2.230769230769231 8.3125  2.7797475961538463 9.15625  3.877704326923077 10.03125  Z " stroke-width="0" stroke-dasharray="0" stroke="rgba(255, 255, 255, 0)" fill="none" transform="matrix(1 0 0 1 6761 953 )" class="stroke" mask="url(#Clip320)" />
    <path d="M 25.122295673076923 10.03125  C 26.220252403846153 9.15625  26.76923076923077 8.3125  26.76923076923077 7.5  L 26.76923076923077 6  L 22.30769230769231 6  C 22.30769230769231 8.177083333333332  21.87780448717949 10.109375  21.018028846153847 11.796875  C 22.65625 11.494791666666668  24.02433894230769 10.90625  25.122295673076923 10.03125  Z " stroke-width="0" stroke-dasharray="0" stroke="rgba(255, 255, 255, 0)" fill="none" transform="matrix(1 0 0 1 6761 953 )" class="stroke" mask="url(#Clip320)" />
    <path d="M 28.51201923076923 4.437500000000001  C 28.837339743589745 4.729166666666665  29 5.083333333333331  29 5.499999999999999  L 29 7.5  C 29 8.239583333333332  28.758914262820515 8.984375  28.276742788461537 9.734375  C 27.79457131410257 10.484375  27.14393028846154 11.161458333333332  26.324819711538463 11.765625  C 25.505709134615387 12.369791666666668  24.500701121794872 12.877604166666664  23.309795673076923 13.2890625  C 22.118890224358978 13.70052083333333  20.866987179487182 13.932291666666664  19.554086538461537 13.984375000000002  C 19.06610576923077 14.546875000000002  18.51422275641026 15.041666666666663  17.8984375 15.46875  C 17.45693108974359 15.822916666666666  17.151943108974358 16.200520833333336  16.98347355769231 16.6015625  C 16.81500400641026 17.002604166666664  16.730769230769234 17.46875  16.73076923076923 18  C 16.730769230769234 18.5625  16.907952724358978 19.036458333333332  17.262319711538463 19.421875  C 17.61668669871795 19.807291666666668  18.18309294871795 20  18.961538461538463 20  C 19.83293269230769 20  20.60847355769231 20.236979166666668  21.28816105769231 20.7109375  C 21.96784855769231 21.184895833333332  22.30769230769231 21.78125  22.30769230769231 22.5  L 22.30769230769231 23.5  C 22.30769230769231 23.645833333333332  22.255408653846153 23.765625  22.150841346153847 23.859375  C 22.046274038461537 23.953125  21.91266025641026 24  21.75 24  L 7.25 24  C 7.087339743589745 24  6.953725961538463 23.953125  6.849158653846153 23.859375  C 6.744591346153847 23.765625  6.6923076923076925 23.645833333333332  6.6923076923076925 23.5  L 6.6923076923076925 22.5  C 6.6923076923076925 21.78125  7.0321514423076925 21.184895833333332  7.7118389423076925 20.7109375  C 8.391526442307693 20.236979166666668  9.167067307692307 20  10.038461538461538 20  C 10.816907051282053 20  11.383313301282053 19.807291666666668  11.737680288461538 19.421875  C 12.092047275641027 19.036458333333332  12.269230769230768 18.5625  12.269230769230768 18  C 12.269230769230768 17.46875  12.184995993589745 17.002604166666664  12.016526442307693 16.6015625  C 11.84805689102564 16.200520833333336  11.54306891025641 15.822916666666666  11.1015625 15.46875  C 10.485777243589745 15.041666666666663  9.933894230769232 14.546875000000002  9.445913461538462 13.984375000000002  C 8.133012820512823 13.932291666666664  6.881109775641026 13.70052083333333  5.6902043269230775 13.2890625  C 4.499298878205129 12.877604166666664  3.4942908653846154 12.369791666666668  2.6751802884615388 11.765625  C 1.8560697115384615 11.161458333333332  1.2054286858974361 10.484375  0.7232572115384616 9.734375  C 0.24108573717948717 8.984375  0 8.239583333333332  0 7.5  L 0 5.499999999999999  C 0 5.083333333333331  0.1626602564102564 4.729166666666665  0.4879807692307692 4.437500000000001  C 0.8133012820512822 4.145833333333331  1.2083333333333335 3.999999999999999  1.6730769230769231 3.999999999999999  L 6.6923076923076925 3.999999999999999  L 6.6923076923076925 2.499999999999999  C 6.6923076923076925 1.8125000000000009  6.965344551282051 1.2239583333333321  7.511418269230769 0.7343750000000009  C 8.057491987179489 0.2447916666666643  8.713942307692307 0  9.480769230769232 0  L 19.51923076923077 0  C 20.28605769230769 0  20.942508012820515 0.2447916666666643  21.48858173076923 0.7343750000000009  C 22.03465544871795 1.2239583333333321  22.30769230769231 1.8125000000000009  22.30769230769231 2.499999999999999  L 22.30769230769231 3.999999999999999  L 27.326923076923077 3.999999999999999  C 27.79166666666667 3.999999999999999  28.186698717948723 4.145833333333331  28.51201923076923 4.437500000000001  Z " stroke-width="0" stroke-dasharray="0" stroke="rgba(255, 255, 255, 0)" fill="none" transform="matrix(1 0 0 1 6761 953 )" class="stroke" mask="url(#Clip320)" />
  </g>
</svg>