<?xml version="1.0" encoding="utf-8"?>
<svg version="1.1" xmlns:xlink="http://www.w3.org/1999/xlink" width="34px" height="29px" xmlns="http://www.w3.org/2000/svg">
  <defs>
    <pattern id="BGPattern" patternUnits="userSpaceOnUse" alignment="0 0" imageRepeat="None" />
    <mask fill="white" id="Clip321">
      <path d="M 20.8515625 17.78515625  C 22.64282852564103 16.257311698717945  23.538461538461537 14.41866987179487  23.538461538461537 12.26923076923077  C 23.538461538461537 10.119791666666664  22.64282852564103 8.281149839743588  20.8515625 6.753305288461538  C 19.060296474358974 5.2254607371794854  16.904647435897438 4.461538461538462  14.384615384615385 4.461538461538462  C 11.864583333333334 4.461538461538462  9.708934294871797 5.2254607371794854  7.917668269230769 6.753305288461538  C 6.126402243589744 8.281149839743588  5.230769230769231 10.119791666666664  5.230769230769231 12.26923076923077  C 5.230769230769231 14.41866987179487  6.126402243589744 16.257311698717945  7.917668269230769 17.78515625  C 9.708934294871797 19.313000801282048  11.864583333333334 20.076923076923077  14.384615384615385 20.076923076923077  C 16.904647435897438 20.076923076923077  19.060296474358974 19.313000801282048  20.8515625 17.78515625  Z M 33.24399038461539 25.200721153846153  C 33.747996794871796 25.630608974358978  34 26.153445512820515  34 26.76923076923077  C 34 27.373397435897438  33.7411858974359 27.896233974358978  33.22355769230769 28.337740384615387  C 32.70592948717949 28.779246794871796  32.09294871794872 29  31.384615384615387 29  C 30.649038461538463 29  30.036057692307693 28.779246794871796  29.545673076923077 28.337740384615387  L 22.537259615384613 22.377403846153847  C 20.098958333333336 23.818108974358978  17.38141025641026 24.538461538461537  14.384615384615385 24.538461538461537  C 12.436698717948719 24.538461538461537  10.573918269230768 24.216045673076923  8.796274038461538 23.571213942307693  C 7.0186298076923075 22.926382211538463  5.486177884615384 22.05498798076923  4.198918269230769 20.95703125  C 2.9116586538461537 19.85907451923077  1.8900240384615388 18.551983173076923  1.1340144230769231 17.035757211538463  C 0.3780048076923077 15.51953125  0 13.9306891025641  0 12.26923076923077  C 0 10.607772435897433  0.3780048076923077 9.018930288461538  1.1340144230769231 7.502704326923077  C 1.8900240384615388 5.986478365384615  2.9116586538461537 4.679387019230771  4.198918269230769 3.5814302884615383  C 5.486177884615384 2.483473557692309  7.0186298076923075 1.6120793269230764  8.796274038461538 0.9672475961538471  C 10.573918269230768 0.32241586538461464  12.436698717948719 0  14.384615384615385 0  C 16.33253205128205 0  18.1953125 0.32241586538461464  19.97295673076923 0.9672475961538471  C 21.750600961538463 1.6120793269230764  23.283052884615387 2.483473557692309  24.5703125 3.5814302884615383  C 25.857572115384613 4.679387019230771  26.87920673076923 5.986478365384615  27.635216346153843 7.502704326923077  C 28.391225961538463 9.018930288461538  28.76923076923077 10.607772435897433  28.76923076923077 12.26923076923077  C 28.76923076923077 14.825320512820511  27.92467948717949 17.143229166666664  26.235576923076923 19.22295673076923  L 33.24399038461539 25.200721153846153  Z " fill-rule="evenodd" />
    </mask>
  </defs>
  <g transform="matrix(1 0 0 1 -573 -1292 )">
    <path d="M 20.8515625 17.78515625  C 22.64282852564103 16.257311698717945  23.538461538461537 14.41866987179487  23.538461538461537 12.26923076923077  C 23.538461538461537 10.119791666666664  22.64282852564103 8.281149839743588  20.8515625 6.753305288461538  C 19.060296474358974 5.2254607371794854  16.904647435897438 4.461538461538462  14.384615384615385 4.461538461538462  C 11.864583333333334 4.461538461538462  9.708934294871797 5.2254607371794854  7.917668269230769 6.753305288461538  C 6.126402243589744 8.281149839743588  5.230769230769231 10.119791666666664  5.230769230769231 12.26923076923077  C 5.230769230769231 14.41866987179487  6.126402243589744 16.257311698717945  7.917668269230769 17.78515625  C 9.708934294871797 19.313000801282048  11.864583333333334 20.076923076923077  14.384615384615385 20.076923076923077  C 16.904647435897438 20.076923076923077  19.060296474358974 19.313000801282048  20.8515625 17.78515625  Z M 33.24399038461539 25.200721153846153  C 33.747996794871796 25.630608974358978  34 26.153445512820515  34 26.76923076923077  C 34 27.373397435897438  33.7411858974359 27.896233974358978  33.22355769230769 28.337740384615387  C 32.70592948717949 28.779246794871796  32.09294871794872 29  31.384615384615387 29  C 30.649038461538463 29  30.036057692307693 28.779246794871796  29.545673076923077 28.337740384615387  L 22.537259615384613 22.377403846153847  C 20.098958333333336 23.818108974358978  17.38141025641026 24.538461538461537  14.384615384615385 24.538461538461537  C 12.436698717948719 24.538461538461537  10.573918269230768 24.216045673076923  8.796274038461538 23.571213942307693  C 7.0186298076923075 22.926382211538463  5.486177884615384 22.05498798076923  4.198918269230769 20.95703125  C 2.9116586538461537 19.85907451923077  1.8900240384615388 18.551983173076923  1.1340144230769231 17.035757211538463  C 0.3780048076923077 15.51953125  0 13.9306891025641  0 12.26923076923077  C 0 10.607772435897433  0.3780048076923077 9.018930288461538  1.1340144230769231 7.502704326923077  C 1.8900240384615388 5.986478365384615  2.9116586538461537 4.679387019230771  4.198918269230769 3.5814302884615383  C 5.486177884615384 2.483473557692309  7.0186298076923075 1.6120793269230764  8.796274038461538 0.9672475961538471  C 10.573918269230768 0.32241586538461464  12.436698717948719 0  14.384615384615385 0  C 16.33253205128205 0  18.1953125 0.32241586538461464  19.97295673076923 0.9672475961538471  C 21.750600961538463 1.6120793269230764  23.283052884615387 2.483473557692309  24.5703125 3.5814302884615383  C 25.857572115384613 4.679387019230771  26.87920673076923 5.986478365384615  27.635216346153843 7.502704326923077  C 28.391225961538463 9.018930288461538  28.76923076923077 10.607772435897433  28.76923076923077 12.26923076923077  C 28.76923076923077 14.825320512820511  27.92467948717949 17.143229166666664  26.235576923076923 19.22295673076923  L 33.24399038461539 25.200721153846153  Z " fill-rule="nonzero" fill="rgba(127, 127, 127, 1)" stroke="none" transform="matrix(1 0 0 1 573 1292 )" class="fill" />
    <path d="M 20.8515625 17.78515625  C 22.64282852564103 16.257311698717945  23.538461538461537 14.41866987179487  23.538461538461537 12.26923076923077  C 23.538461538461537 10.119791666666664  22.64282852564103 8.281149839743588  20.8515625 6.753305288461538  C 19.060296474358974 5.2254607371794854  16.904647435897438 4.461538461538462  14.384615384615385 4.461538461538462  C 11.864583333333334 4.461538461538462  9.708934294871797 5.2254607371794854  7.917668269230769 6.753305288461538  C 6.126402243589744 8.281149839743588  5.230769230769231 10.119791666666664  5.230769230769231 12.26923076923077  C 5.230769230769231 14.41866987179487  6.126402243589744 16.257311698717945  7.917668269230769 17.78515625  C 9.708934294871797 19.313000801282048  11.864583333333334 20.076923076923077  14.384615384615385 20.076923076923077  C 16.904647435897438 20.076923076923077  19.060296474358974 19.313000801282048  20.8515625 17.78515625  Z " stroke-width="0" stroke="rgba(255, 255, 255, 0)" fill="none" transform="matrix(1 0 0 1 573 1292 )" class="stroke" mask="url(#Clip321)" />
    <path d="M 33.24399038461539 25.200721153846153  C 33.747996794871796 25.630608974358978  34 26.153445512820515  34 26.76923076923077  C 34 27.373397435897438  33.7411858974359 27.896233974358978  33.22355769230769 28.337740384615387  C 32.70592948717949 28.779246794871796  32.09294871794872 29  31.384615384615387 29  C 30.649038461538463 29  30.036057692307693 28.779246794871796  29.545673076923077 28.337740384615387  L 22.537259615384613 22.377403846153847  C 20.098958333333336 23.818108974358978  17.38141025641026 24.538461538461537  14.384615384615385 24.538461538461537  C 12.436698717948719 24.538461538461537  10.573918269230768 24.216045673076923  8.796274038461538 23.571213942307693  C 7.0186298076923075 22.926382211538463  5.486177884615384 22.05498798076923  4.198918269230769 20.95703125  C 2.9116586538461537 19.85907451923077  1.8900240384615388 18.551983173076923  1.1340144230769231 17.035757211538463  C 0.3780048076923077 15.51953125  0 13.9306891025641  0 12.26923076923077  C 0 10.607772435897433  0.3780048076923077 9.018930288461538  1.1340144230769231 7.502704326923077  C 1.8900240384615388 5.986478365384615  2.9116586538461537 4.679387019230771  4.198918269230769 3.5814302884615383  C 5.486177884615384 2.483473557692309  7.0186298076923075 1.6120793269230764  8.796274038461538 0.9672475961538471  C 10.573918269230768 0.32241586538461464  12.436698717948719 0  14.384615384615385 0  C 16.33253205128205 0  18.1953125 0.32241586538461464  19.97295673076923 0.9672475961538471  C 21.750600961538463 1.6120793269230764  23.283052884615387 2.483473557692309  24.5703125 3.5814302884615383  C 25.857572115384613 4.679387019230771  26.87920673076923 5.986478365384615  27.635216346153843 7.502704326923077  C 28.391225961538463 9.018930288461538  28.76923076923077 10.607772435897433  28.76923076923077 12.26923076923077  C 28.76923076923077 14.825320512820511  27.92467948717949 17.143229166666664  26.235576923076923 19.22295673076923  L 33.24399038461539 25.200721153846153  Z " stroke-width="0" stroke="rgba(255, 255, 255, 0)" fill="none" transform="matrix(1 0 0 1 573 1292 )" class="stroke" mask="url(#Clip321)" />
  </g>
</svg>