<?xml version="1.0" encoding="utf-8"?>
<svg version="1.1" xmlns:xlink="http://www.w3.org/1999/xlink" width="37px" height="21px" xmlns="http://www.w3.org/2000/svg">
  <defs>
    <pattern id="BGPattern" patternUnits="userSpaceOnUse" alignment="0 0" imageRepeat="None" />
    <mask fill="white" id="Clip322">
      <path d="M 36.3134765625 0.6927083333333344  C 36.77115885416667 1.1545138888888866  37 1.7013888888888835  37 2.3333333333333344  C 37 2.965277777777776  36.77115885416667 3.512152777777775  36.3134765625 3.9739583333333344  L 20.1259765625 20.307291666666664  C 19.668294270833336 20.769097222222225  19.126302083333336 21  18.5 21  C 17.873697916666668 21  17.331705729166668 20.769097222222225  16.8740234375 20.307291666666664  L 0.6865234375 3.9739583333333344  C 0.22884114583333331 3.512152777777775  0 2.965277777777776  0 2.3333333333333344  C 0 1.7013888888888835  0.22884114583333331 1.1545138888888866  0.6865234375 0.6927083333333344  C 1.1442057291666667 0.23090277777777501  1.6861979166666667 0  2.3125 0  L 34.6875 0  C 35.313802083333336 0  35.855794270833336 0.23090277777777501  36.3134765625 0.6927083333333344  Z " fill-rule="evenodd" />
    </mask>
  </defs>
  <g transform="matrix(1 0 0 1 -898 -1352 )">
    <path d="M 36.3134765625 0.6927083333333344  C 36.77115885416667 1.1545138888888866  37 1.7013888888888835  37 2.3333333333333344  C 37 2.965277777777776  36.77115885416667 3.512152777777775  36.3134765625 3.9739583333333344  L 20.1259765625 20.307291666666664  C 19.668294270833336 20.769097222222225  19.126302083333336 21  18.5 21  C 17.873697916666668 21  17.331705729166668 20.769097222222225  16.8740234375 20.307291666666664  L 0.6865234375 3.9739583333333344  C 0.22884114583333331 3.512152777777775  0 2.965277777777776  0 2.3333333333333344  C 0 1.7013888888888835  0.22884114583333331 1.1545138888888866  0.6865234375 0.6927083333333344  C 1.1442057291666667 0.23090277777777501  1.6861979166666667 0  2.3125 0  L 34.6875 0  C 35.313802083333336 0  35.855794270833336 0.23090277777777501  36.3134765625 0.6927083333333344  Z " fill-rule="nonzero" fill="rgba(0, 0, 0, 1)" stroke="none" transform="matrix(1 0 0 1 898 1352 )" class="fill" />
    <path d="M 36.3134765625 0.6927083333333344  C 36.77115885416667 1.1545138888888866  37 1.7013888888888835  37 2.3333333333333344  C 37 2.965277777777776  36.77115885416667 3.512152777777775  36.3134765625 3.9739583333333344  L 20.1259765625 20.307291666666664  C 19.668294270833336 20.769097222222225  19.126302083333336 21  18.5 21  C 17.873697916666668 21  17.331705729166668 20.769097222222225  16.8740234375 20.307291666666664  L 0.6865234375 3.9739583333333344  C 0.22884114583333331 3.512152777777775  0 2.965277777777776  0 2.3333333333333344  C 0 1.7013888888888835  0.22884114583333331 1.1545138888888866  0.6865234375 0.6927083333333344  C 1.1442057291666667 0.23090277777777501  1.6861979166666667 0  2.3125 0  L 34.6875 0  C 35.313802083333336 0  35.855794270833336 0.23090277777777501  36.3134765625 0.6927083333333344  Z " stroke-width="0" stroke-dasharray="0" stroke="rgba(255, 255, 255, 0)" fill="none" transform="matrix(1 0 0 1 898 1352 )" class="stroke" mask="url(#Clip322)" />
  </g>
</svg>