<?xml version="1.0" encoding="utf-8"?>
<svg version="1.1" xmlns:xlink="http://www.w3.org/1999/xlink" width="13px" height="15px" xmlns="http://www.w3.org/2000/svg">
  <defs>
    <pattern id="BGPattern" patternUnits="userSpaceOnUse" alignment="0 0" imageRepeat="None" />
    <mask fill="white" id="Clip306">
      <path d="M 8.663281249999999 11.640625  C 10.254427083333333 10.442708333333334  11.049999999999999 9.270833333333334  11.049999999999999 8.125000000000002  L 11.049999999999999 1.875  L 6.5 1.875  L 6.5 12.978515625  C 7.3057291666666675 12.568359375  8.026822916666667 12.122395833333334  8.663281249999999 11.640625  Z M 12.80703125 0.18554687499999944  C 12.935677083333335 0.30924479166666463  13 0.45572916666666463  13 0.6249999999999994  L 13 8.125000000000002  C 13 8.684895833333334  12.886588541666669 9.239908854166664  12.659765625 9.790039062499998  C 12.432942708333334 10.340169270833334  12.151953125 10.828450520833332  11.816796875 11.2548828125  C 11.481640624999999 11.681315104166666  11.082161458333335 12.096354166666668  10.618359374999999 12.5  C 10.154557291666666 12.903645833333332  9.726302083333335 13.238932291666668  9.33359375 13.505859375  C 8.940885416666667 13.772786458333332  8.531250000000002 14.025065104166666  8.104687499999999 14.2626953125  C 7.678125 14.500325520833332  7.375130208333334 14.661458333333332  7.195703125 14.74609375  C 7.016276041666668 14.830729166666666  6.872395833333334 14.895833333333332  6.7640625 14.94140625  C 6.6828125 14.98046875  6.5947916666666675 15  6.5 15  C 6.405208333333334 15  6.3171875 14.98046875  6.2359374999999995 14.94140625  C 6.127604166666667 14.895833333333332  5.983723958333334 14.830729166666666  5.8042968749999995 14.74609375  C 5.624869791666668 14.661458333333332  5.3218749999999995 14.500325520833332  4.8953125 14.2626953125  C 4.46875 14.025065104166666  4.059114583333334 13.772786458333332  3.66640625 13.505859375  C 3.273697916666667 13.238932291666668  2.8454427083333336 12.903645833333332  2.3816406249999997 12.5  C 1.9178385416666666 12.096354166666668  1.518359375 11.681315104166666  1.1832031250000001 11.2548828125  C 0.848046875 10.828450520833332  0.5670572916666667 10.340169270833334  0.34023437500000003 9.790039062499998  C 0.11341145833333334 9.239908854166664  0 8.684895833333334  0 8.125000000000002  L 0 0.6249999999999994  C 0 0.45572916666666463  0.06432291666666666 0.30924479166666463  0.19296875 0.18554687499999944  C 0.32161458333333337 0.06184895833333259  0.47395833333333337 0  0.65 0  L 12.35 0  C 12.526041666666668 0  12.678385416666668 0.06184895833333259  12.80703125 0.18554687499999944  Z " fill-rule="evenodd" />
    </mask>
  </defs>
  <g transform="matrix(1 0 0 1 -1536 -939 )">
    <path d="M 8.663281249999999 11.640625  C 10.254427083333333 10.442708333333334  11.049999999999999 9.270833333333334  11.049999999999999 8.125000000000002  L 11.049999999999999 1.875  L 6.5 1.875  L 6.5 12.978515625  C 7.3057291666666675 12.568359375  8.026822916666667 12.122395833333334  8.663281249999999 11.640625  Z M 12.80703125 0.18554687499999944  C 12.935677083333335 0.30924479166666463  13 0.45572916666666463  13 0.6249999999999994  L 13 8.125000000000002  C 13 8.684895833333334  12.886588541666669 9.239908854166664  12.659765625 9.790039062499998  C 12.432942708333334 10.340169270833334  12.151953125 10.828450520833332  11.816796875 11.2548828125  C 11.481640624999999 11.681315104166666  11.082161458333335 12.096354166666668  10.618359374999999 12.5  C 10.154557291666666 12.903645833333332  9.726302083333335 13.238932291666668  9.33359375 13.505859375  C 8.940885416666667 13.772786458333332  8.531250000000002 14.025065104166666  8.104687499999999 14.2626953125  C 7.678125 14.500325520833332  7.375130208333334 14.661458333333332  7.195703125 14.74609375  C 7.016276041666668 14.830729166666666  6.872395833333334 14.895833333333332  6.7640625 14.94140625  C 6.6828125 14.98046875  6.5947916666666675 15  6.5 15  C 6.405208333333334 15  6.3171875 14.98046875  6.2359374999999995 14.94140625  C 6.127604166666667 14.895833333333332  5.983723958333334 14.830729166666666  5.8042968749999995 14.74609375  C 5.624869791666668 14.661458333333332  5.3218749999999995 14.500325520833332  4.8953125 14.2626953125  C 4.46875 14.025065104166666  4.059114583333334 13.772786458333332  3.66640625 13.505859375  C 3.273697916666667 13.238932291666668  2.8454427083333336 12.903645833333332  2.3816406249999997 12.5  C 1.9178385416666666 12.096354166666668  1.518359375 11.681315104166666  1.1832031250000001 11.2548828125  C 0.848046875 10.828450520833332  0.5670572916666667 10.340169270833334  0.34023437500000003 9.790039062499998  C 0.11341145833333334 9.239908854166664  0 8.684895833333334  0 8.125000000000002  L 0 0.6249999999999994  C 0 0.45572916666666463  0.06432291666666666 0.30924479166666463  0.19296875 0.18554687499999944  C 0.32161458333333337 0.06184895833333259  0.47395833333333337 0  0.65 0  L 12.35 0  C 12.526041666666668 0  12.678385416666668 0.06184895833333259  12.80703125 0.18554687499999944  Z " fill-rule="nonzero" fill="rgba(0, 0, 0, 1)" stroke="none" transform="matrix(1 0 0 1 1536 939 )" class="fill" />
    <path d="M 8.663281249999999 11.640625  C 10.254427083333333 10.442708333333334  11.049999999999999 9.270833333333334  11.049999999999999 8.125000000000002  L 11.049999999999999 1.875  L 6.5 1.875  L 6.5 12.978515625  C 7.3057291666666675 12.568359375  8.026822916666667 12.122395833333334  8.663281249999999 11.640625  Z " stroke-width="0" stroke-dasharray="0" stroke="rgba(255, 255, 255, 0)" fill="none" transform="matrix(1 0 0 1 1536 939 )" class="stroke" mask="url(#Clip306)" />
    <path d="M 12.80703125 0.18554687499999944  C 12.935677083333335 0.30924479166666463  13 0.45572916666666463  13 0.6249999999999994  L 13 8.125000000000002  C 13 8.684895833333334  12.886588541666669 9.239908854166664  12.659765625 9.790039062499998  C 12.432942708333334 10.340169270833334  12.151953125 10.828450520833332  11.816796875 11.2548828125  C 11.481640624999999 11.681315104166666  11.082161458333335 12.096354166666668  10.618359374999999 12.5  C 10.154557291666666 12.903645833333332  9.726302083333335 13.238932291666668  9.33359375 13.505859375  C 8.940885416666667 13.772786458333332  8.531250000000002 14.025065104166666  8.104687499999999 14.2626953125  C 7.678125 14.500325520833332  7.375130208333334 14.661458333333332  7.195703125 14.74609375  C 7.016276041666668 14.830729166666666  6.872395833333334 14.895833333333332  6.7640625 14.94140625  C 6.6828125 14.98046875  6.5947916666666675 15  6.5 15  C 6.405208333333334 15  6.3171875 14.98046875  6.2359374999999995 14.94140625  C 6.127604166666667 14.895833333333332  5.983723958333334 14.830729166666666  5.8042968749999995 14.74609375  C 5.624869791666668 14.661458333333332  5.3218749999999995 14.500325520833332  4.8953125 14.2626953125  C 4.46875 14.025065104166666  4.059114583333334 13.772786458333332  3.66640625 13.505859375  C 3.273697916666667 13.238932291666668  2.8454427083333336 12.903645833333332  2.3816406249999997 12.5  C 1.9178385416666666 12.096354166666668  1.518359375 11.681315104166666  1.1832031250000001 11.2548828125  C 0.848046875 10.828450520833332  0.5670572916666667 10.340169270833334  0.34023437500000003 9.790039062499998  C 0.11341145833333334 9.239908854166664  0 8.684895833333334  0 8.125000000000002  L 0 0.6249999999999994  C 0 0.45572916666666463  0.06432291666666666 0.30924479166666463  0.19296875 0.18554687499999944  C 0.32161458333333337 0.06184895833333259  0.47395833333333337 0  0.65 0  L 12.35 0  C 12.526041666666668 0  12.678385416666668 0.06184895833333259  12.80703125 0.18554687499999944  Z " stroke-width="0" stroke-dasharray="0" stroke="rgba(255, 255, 255, 0)" fill="none" transform="matrix(1 0 0 1 1536 939 )" class="stroke" mask="url(#Clip306)" />
  </g>
</svg>