<?xml version="1.0" encoding="utf-8"?>
<svg version="1.1" xmlns:xlink="http://www.w3.org/1999/xlink" width="17px" height="17px" xmlns="http://www.w3.org/2000/svg">
  <defs>
    <pattern id="BGPattern" patternUnits="userSpaceOnUse" alignment="0 0" imageRepeat="None" />
    <mask fill="white" id="Clip307">
      <path d="M 6.917091836734694 15.545703125  C 6.909863945578231 15.594401041666668  6.917091836734694 15.654166666666669  6.938775510204081 15.725000000000001  C 6.938775510204081 15.760416666666668  6.942389455782314 15.848958333333332  6.949617346938775 15.990625000000001  C 6.956845238095239 16.132291666666667  6.958652210884354 16.249609375  6.955038265306123 16.342578125  C 6.951424319727892 16.435546875  6.940582482993198 16.539583333333333  6.922512755102041 16.6546875  C 6.904443027210885 16.76979166666667  6.868303571428571 16.856119791666668  6.814094387755103 16.913671875  C 6.759885204081633 16.971223958333333  6.685799319727892 17  6.591836734693877 17  L 3.122448979591837 17  C 2.2623299319727894 17  1.5268920068027212 16.62591145833333  0.9161352040816326 15.877734375  C 0.3053784013605442 15.129557291666668  0 14.228645833333331  0 13.175  L 0 3.8249999999999997  C 0 2.771354166666664  0.3053784013605442 1.8704427083333326  0.9161352040816326 1.1222656250000003  C 1.5268920068027212 0.3740885416666643  2.2623299319727894 0  3.122448979591837 0  L 6.591836734693877 0  C 6.685799319727892 0  6.767113095238096 0.042057291666664276  6.83577806122449 0.12617187500000038  C 6.904443027210885 0.2102864583333327  6.938775510204081 0.3098958333333327  6.938775510204081 0.4250000000000004  C 6.938775510204081 0.46041666666666503  6.942389455782314 0.5489583333333323  6.949617346938775 0.6906250000000004  C 6.956845238095239 0.8322916666666647  6.958652210884354 0.9496093750000008  6.955038265306123 1.0425781249999992  C 6.951424319727892 1.1355468749999997  6.940582482993198 1.2395833333333326  6.922512755102041 1.3546875000000003  C 6.904443027210885 1.4697916666666644  6.868303571428571 1.556119791666665  6.814094387755103 1.6136718750000008  C 6.759885204081633 1.6712239583333326  6.685799319727892 1.6999999999999997  6.591836734693877 1.6999999999999997  L 3.122448979591837 1.6999999999999997  C 2.6454081632653064 1.6999999999999997  2.2370323129251704 1.908072916666664  1.8973214285714286 2.32421875  C 1.5576105442176873 2.7403645833333323  1.3877551020408163 3.2406250000000005  1.3877551020408163 3.8249999999999997  L 1.3877551020408163 13.175  C 1.3877551020408163 13.759374999999999  1.5576105442176873 14.259635416666663  1.8973214285714286 14.67578125  C 2.2370323129251704 15.091927083333331  2.6454081632653064 15.3  3.122448979591837 15.3  L 6.244897959183674 15.3  L 6.364158163265306 15.3  L 6.505102040816326 15.3  C 6.505102040816326 15.3  6.546662414965987 15.304427083333332  6.629783163265306 15.31328125  C 6.712903911564626 15.322135416666669  6.754464285714286 15.335416666666667  6.754464285714286 15.353124999999999  C 6.754464285714286 15.370833333333332  6.7833758503401365 15.395182291666668  6.841198979591836 15.426171875000001  C 6.899022108843538 15.457161458333331  6.924319727891157 15.497005208333333  6.917091836734694 15.545703125  Z M 16.794005102040817 7.90234375  C 16.931335034013607 8.070572916666666  17 8.269791666666666  17 8.5  C 17 8.730208333333332  16.931335034013607 8.929427083333332  16.794005102040817 9.09765625  L 10.896045918367347 16.32265625  C 10.758715986394558 16.490885416666668  10.596088435374151 16.575  10.408163265306122 16.575  C 10.220238095238097 16.575  10.057610544217688 16.490885416666668  9.920280612244898 16.32265625  C 9.78295068027211 16.15442708333333  9.714285714285714 15.955208333333331  9.714285714285714 15.725000000000001  L 9.714285714285714 11.899999999999999  L 4.857142857142857 11.899999999999999  C 4.66921768707483 11.899999999999999  4.506590136054422 11.815885416666667  4.369260204081633 11.64765625  C 4.231930272108843 11.479427083333333  4.163265306122449 11.280208333333333  4.163265306122449 11.05  L 4.163265306122449 5.949999999999999  C 4.163265306122449 5.719791666666664  4.231930272108843 5.520572916666664  4.369260204081633 5.352343749999999  C 4.506590136054422 5.184114583333333  4.66921768707483 5.1000000000000005  4.857142857142857 5.1000000000000005  L 9.714285714285714 5.1000000000000005  L 9.714285714285714 1.2749999999999992  C 9.714285714285714 1.044791666666664  9.78295068027211 0.8455729166666639  9.920280612244898 0.6773437499999992  C 10.057610544217688 0.5091145833333327  10.220238095238097 0.4250000000000004  10.408163265306122 0.4250000000000004  C 10.596088435374151 0.4250000000000004  10.758715986394558 0.5091145833333327  10.896045918367347 0.6773437499999992  L 16.794005102040817 7.90234375  Z " fill-rule="evenodd" />
    </mask>
  </defs>
  <g transform="matrix(1 0 0 1 -1536 -958 )">
    <path d="M 6.917091836734694 15.545703125  C 6.909863945578231 15.594401041666668  6.917091836734694 15.654166666666669  6.938775510204081 15.725000000000001  C 6.938775510204081 15.760416666666668  6.942389455782314 15.848958333333332  6.949617346938775 15.990625000000001  C 6.956845238095239 16.132291666666667  6.958652210884354 16.249609375  6.955038265306123 16.342578125  C 6.951424319727892 16.435546875  6.940582482993198 16.539583333333333  6.922512755102041 16.6546875  C 6.904443027210885 16.76979166666667  6.868303571428571 16.856119791666668  6.814094387755103 16.913671875  C 6.759885204081633 16.971223958333333  6.685799319727892 17  6.591836734693877 17  L 3.122448979591837 17  C 2.2623299319727894 17  1.5268920068027212 16.62591145833333  0.9161352040816326 15.877734375  C 0.3053784013605442 15.129557291666668  0 14.228645833333331  0 13.175  L 0 3.8249999999999997  C 0 2.771354166666664  0.3053784013605442 1.8704427083333326  0.9161352040816326 1.1222656250000003  C 1.5268920068027212 0.3740885416666643  2.2623299319727894 0  3.122448979591837 0  L 6.591836734693877 0  C 6.685799319727892 0  6.767113095238096 0.042057291666664276  6.83577806122449 0.12617187500000038  C 6.904443027210885 0.2102864583333327  6.938775510204081 0.3098958333333327  6.938775510204081 0.4250000000000004  C 6.938775510204081 0.46041666666666503  6.942389455782314 0.5489583333333323  6.949617346938775 0.6906250000000004  C 6.956845238095239 0.8322916666666647  6.958652210884354 0.9496093750000008  6.955038265306123 1.0425781249999992  C 6.951424319727892 1.1355468749999997  6.940582482993198 1.2395833333333326  6.922512755102041 1.3546875000000003  C 6.904443027210885 1.4697916666666644  6.868303571428571 1.556119791666665  6.814094387755103 1.6136718750000008  C 6.759885204081633 1.6712239583333326  6.685799319727892 1.6999999999999997  6.591836734693877 1.6999999999999997  L 3.122448979591837 1.6999999999999997  C 2.6454081632653064 1.6999999999999997  2.2370323129251704 1.908072916666664  1.8973214285714286 2.32421875  C 1.5576105442176873 2.7403645833333323  1.3877551020408163 3.2406250000000005  1.3877551020408163 3.8249999999999997  L 1.3877551020408163 13.175  C 1.3877551020408163 13.759374999999999  1.5576105442176873 14.259635416666663  1.8973214285714286 14.67578125  C 2.2370323129251704 15.091927083333331  2.6454081632653064 15.3  3.122448979591837 15.3  L 6.244897959183674 15.3  L 6.364158163265306 15.3  L 6.505102040816326 15.3  C 6.505102040816326 15.3  6.546662414965987 15.304427083333332  6.629783163265306 15.31328125  C 6.712903911564626 15.322135416666669  6.754464285714286 15.335416666666667  6.754464285714286 15.353124999999999  C 6.754464285714286 15.370833333333332  6.7833758503401365 15.395182291666668  6.841198979591836 15.426171875000001  C 6.899022108843538 15.457161458333331  6.924319727891157 15.497005208333333  6.917091836734694 15.545703125  Z M 16.794005102040817 7.90234375  C 16.931335034013607 8.070572916666666  17 8.269791666666666  17 8.5  C 17 8.730208333333332  16.931335034013607 8.929427083333332  16.794005102040817 9.09765625  L 10.896045918367347 16.32265625  C 10.758715986394558 16.490885416666668  10.596088435374151 16.575  10.408163265306122 16.575  C 10.220238095238097 16.575  10.057610544217688 16.490885416666668  9.920280612244898 16.32265625  C 9.78295068027211 16.15442708333333  9.714285714285714 15.955208333333331  9.714285714285714 15.725000000000001  L 9.714285714285714 11.899999999999999  L 4.857142857142857 11.899999999999999  C 4.66921768707483 11.899999999999999  4.506590136054422 11.815885416666667  4.369260204081633 11.64765625  C 4.231930272108843 11.479427083333333  4.163265306122449 11.280208333333333  4.163265306122449 11.05  L 4.163265306122449 5.949999999999999  C 4.163265306122449 5.719791666666664  4.231930272108843 5.520572916666664  4.369260204081633 5.352343749999999  C 4.506590136054422 5.184114583333333  4.66921768707483 5.1000000000000005  4.857142857142857 5.1000000000000005  L 9.714285714285714 5.1000000000000005  L 9.714285714285714 1.2749999999999992  C 9.714285714285714 1.044791666666664  9.78295068027211 0.8455729166666639  9.920280612244898 0.6773437499999992  C 10.057610544217688 0.5091145833333327  10.220238095238097 0.4250000000000004  10.408163265306122 0.4250000000000004  C 10.596088435374151 0.4250000000000004  10.758715986394558 0.5091145833333327  10.896045918367347 0.6773437499999992  L 16.794005102040817 7.90234375  Z " fill-rule="nonzero" fill="rgba(0, 0, 0, 1)" stroke="none" transform="matrix(1 0 0 1 1536 958 )" class="fill" />
    <path d="M 6.917091836734694 15.545703125  C 6.909863945578231 15.594401041666668  6.917091836734694 15.654166666666669  6.938775510204081 15.725000000000001  C 6.938775510204081 15.760416666666668  6.942389455782314 15.848958333333332  6.949617346938775 15.990625000000001  C 6.956845238095239 16.132291666666667  6.958652210884354 16.249609375  6.955038265306123 16.342578125  C 6.951424319727892 16.435546875  6.940582482993198 16.539583333333333  6.922512755102041 16.6546875  C 6.904443027210885 16.76979166666667  6.868303571428571 16.856119791666668  6.814094387755103 16.913671875  C 6.759885204081633 16.971223958333333  6.685799319727892 17  6.591836734693877 17  L 3.122448979591837 17  C 2.2623299319727894 17  1.5268920068027212 16.62591145833333  0.9161352040816326 15.877734375  C 0.3053784013605442 15.129557291666668  0 14.228645833333331  0 13.175  L 0 3.8249999999999997  C 0 2.771354166666664  0.3053784013605442 1.8704427083333326  0.9161352040816326 1.1222656250000003  C 1.5268920068027212 0.3740885416666643  2.2623299319727894 0  3.122448979591837 0  L 6.591836734693877 0  C 6.685799319727892 0  6.767113095238096 0.042057291666664276  6.83577806122449 0.12617187500000038  C 6.904443027210885 0.2102864583333327  6.938775510204081 0.3098958333333327  6.938775510204081 0.4250000000000004  C 6.938775510204081 0.46041666666666503  6.942389455782314 0.5489583333333323  6.949617346938775 0.6906250000000004  C 6.956845238095239 0.8322916666666647  6.958652210884354 0.9496093750000008  6.955038265306123 1.0425781249999992  C 6.951424319727892 1.1355468749999997  6.940582482993198 1.2395833333333326  6.922512755102041 1.3546875000000003  C 6.904443027210885 1.4697916666666644  6.868303571428571 1.556119791666665  6.814094387755103 1.6136718750000008  C 6.759885204081633 1.6712239583333326  6.685799319727892 1.6999999999999997  6.591836734693877 1.6999999999999997  L 3.122448979591837 1.6999999999999997  C 2.6454081632653064 1.6999999999999997  2.2370323129251704 1.908072916666664  1.8973214285714286 2.32421875  C 1.5576105442176873 2.7403645833333323  1.3877551020408163 3.2406250000000005  1.3877551020408163 3.8249999999999997  L 1.3877551020408163 13.175  C 1.3877551020408163 13.759374999999999  1.5576105442176873 14.259635416666663  1.8973214285714286 14.67578125  C 2.2370323129251704 15.091927083333331  2.6454081632653064 15.3  3.122448979591837 15.3  L 6.244897959183674 15.3  L 6.364158163265306 15.3  L 6.505102040816326 15.3  C 6.505102040816326 15.3  6.546662414965987 15.304427083333332  6.629783163265306 15.31328125  C 6.712903911564626 15.322135416666669  6.754464285714286 15.335416666666667  6.754464285714286 15.353124999999999  C 6.754464285714286 15.370833333333332  6.7833758503401365 15.395182291666668  6.841198979591836 15.426171875000001  C 6.899022108843538 15.457161458333331  6.924319727891157 15.497005208333333  6.917091836734694 15.545703125  Z " stroke-width="0" stroke-dasharray="0" stroke="rgba(255, 255, 255, 0)" fill="none" transform="matrix(1 0 0 1 1536 958 )" class="stroke" mask="url(#Clip307)" />
    <path d="M 16.794005102040817 7.90234375  C 16.931335034013607 8.070572916666666  17 8.269791666666666  17 8.5  C 17 8.730208333333332  16.931335034013607 8.929427083333332  16.794005102040817 9.09765625  L 10.896045918367347 16.32265625  C 10.758715986394558 16.490885416666668  10.596088435374151 16.575  10.408163265306122 16.575  C 10.220238095238097 16.575  10.057610544217688 16.490885416666668  9.920280612244898 16.32265625  C 9.78295068027211 16.15442708333333  9.714285714285714 15.955208333333331  9.714285714285714 15.725000000000001  L 9.714285714285714 11.899999999999999  L 4.857142857142857 11.899999999999999  C 4.66921768707483 11.899999999999999  4.506590136054422 11.815885416666667  4.369260204081633 11.64765625  C 4.231930272108843 11.479427083333333  4.163265306122449 11.280208333333333  4.163265306122449 11.05  L 4.163265306122449 5.949999999999999  C 4.163265306122449 5.719791666666664  4.231930272108843 5.520572916666664  4.369260204081633 5.352343749999999  C 4.506590136054422 5.184114583333333  4.66921768707483 5.1000000000000005  4.857142857142857 5.1000000000000005  L 9.714285714285714 5.1000000000000005  L 9.714285714285714 1.2749999999999992  C 9.714285714285714 1.044791666666664  9.78295068027211 0.8455729166666639  9.920280612244898 0.6773437499999992  C 10.057610544217688 0.5091145833333327  10.220238095238097 0.4250000000000004  10.408163265306122 0.4250000000000004  C 10.596088435374151 0.4250000000000004  10.758715986394558 0.5091145833333327  10.896045918367347 0.6773437499999992  L 16.794005102040817 7.90234375  Z " stroke-width="0" stroke-dasharray="0" stroke="rgba(255, 255, 255, 0)" fill="none" transform="matrix(1 0 0 1 1536 958 )" class="stroke" mask="url(#Clip307)" />
  </g>
</svg>