<?xml version="1.0" encoding="utf-8"?>
<svg version="1.1" xmlns:xlink="http://www.w3.org/1999/xlink" width="13px" height="21px" xmlns="http://www.w3.org/2000/svg">
  <defs>
    <pattern id="BGPattern" patternUnits="userSpaceOnUse" alignment="0 0" imageRepeat="None" />
    <mask fill="white" id="Clip308">
      <path d="M 12.776632302405497 10.016032064128257  C 12.925544100801835 10.1563126252505  13 10.317635270541082  13 10.5  C 13 10.682364729458916  12.925544100801835 10.843687374749498  12.776632302405497 10.983967935871743  L 2.3676975945017182 20.789579158316634  C 2.218785796105384 20.929859719438877  2.047537227949599 21  1.8539518900343641 21  C 1.6603665521191298 21  1.4891179839633448 20.929859719438877  1.3402061855670102 20.789579158316634  L 0.22336769759450173 19.737474949899802  C 0.0744558991981673 19.597194388777552  0 19.435871743486974  0 19.253507014028056  C 0 19.071142284569138  0.0744558991981673 18.90981963927856  0.22336769759450173 18.769539078156313  L 9.00171821305842 10.5  L 0.22336769759450173 2.2304609218436875  C 0.0744558991981673 2.0901803607214418  0 1.928857715430861  0 1.7464929859719445  C 0 1.5641282565130235  0.0744558991981673 1.4028056112224423  0.22336769759450173 1.2625250501001992  L 1.3402061855670102 0.21042084168336694  C 1.4891179839633448 0.07014028056112154  1.6603665521191298 0  1.8539518900343641 0  C 2.047537227949599 0  2.218785796105384 0.07014028056112154  2.3676975945017182 0.21042084168336694  L 12.776632302405497 10.016032064128257  Z " fill-rule="evenodd" />
    </mask>
  </defs>
  <g transform="matrix(1 0 0 1 -1898 -915 )">
    <path d="M 12.776632302405497 10.016032064128257  C 12.925544100801835 10.1563126252505  13 10.317635270541082  13 10.5  C 13 10.682364729458916  12.925544100801835 10.843687374749498  12.776632302405497 10.983967935871743  L 2.3676975945017182 20.789579158316634  C 2.218785796105384 20.929859719438877  2.047537227949599 21  1.8539518900343641 21  C 1.6603665521191298 21  1.4891179839633448 20.929859719438877  1.3402061855670102 20.789579158316634  L 0.22336769759450173 19.737474949899802  C 0.0744558991981673 19.597194388777552  0 19.435871743486974  0 19.253507014028056  C 0 19.071142284569138  0.0744558991981673 18.90981963927856  0.22336769759450173 18.769539078156313  L 9.00171821305842 10.5  L 0.22336769759450173 2.2304609218436875  C 0.0744558991981673 2.0901803607214418  0 1.928857715430861  0 1.7464929859719445  C 0 1.5641282565130235  0.0744558991981673 1.4028056112224423  0.22336769759450173 1.2625250501001992  L 1.3402061855670102 0.21042084168336694  C 1.4891179839633448 0.07014028056112154  1.6603665521191298 0  1.8539518900343641 0  C 2.047537227949599 0  2.218785796105384 0.07014028056112154  2.3676975945017182 0.21042084168336694  L 12.776632302405497 10.016032064128257  Z " fill-rule="nonzero" fill="rgba(0, 0, 0, 1)" stroke="none" transform="matrix(1 0 0 1 1898 915 )" class="fill" />
    <path d="M 12.776632302405497 10.016032064128257  C 12.925544100801835 10.1563126252505  13 10.317635270541082  13 10.5  C 13 10.682364729458916  12.925544100801835 10.843687374749498  12.776632302405497 10.983967935871743  L 2.3676975945017182 20.789579158316634  C 2.218785796105384 20.929859719438877  2.047537227949599 21  1.8539518900343641 21  C 1.6603665521191298 21  1.4891179839633448 20.929859719438877  1.3402061855670102 20.789579158316634  L 0.22336769759450173 19.737474949899802  C 0.0744558991981673 19.597194388777552  0 19.435871743486974  0 19.253507014028056  C 0 19.071142284569138  0.0744558991981673 18.90981963927856  0.22336769759450173 18.769539078156313  L 9.00171821305842 10.5  L 0.22336769759450173 2.2304609218436875  C 0.0744558991981673 2.0901803607214418  0 1.928857715430861  0 1.7464929859719445  C 0 1.5641282565130235  0.0744558991981673 1.4028056112224423  0.22336769759450173 1.2625250501001992  L 1.3402061855670102 0.21042084168336694  C 1.4891179839633448 0.07014028056112154  1.6603665521191298 0  1.8539518900343641 0  C 2.047537227949599 0  2.218785796105384 0.07014028056112154  2.3676975945017182 0.21042084168336694  L 12.776632302405497 10.016032064128257  Z " stroke-width="0" stroke-dasharray="0" stroke="rgba(255, 255, 255, 0)" fill="none" transform="matrix(1 0 0 1 1898 915 )" class="stroke" mask="url(#Clip308)" />
  </g>
</svg>