<?xml version="1.0" encoding="utf-8"?>
<svg version="1.1" xmlns:xlink="http://www.w3.org/1999/xlink" width="23px" height="22px" xmlns="http://www.w3.org/2000/svg">
  <defs>
    <pattern id="BGPattern" patternUnits="userSpaceOnUse" alignment="0 0" imageRepeat="None" />
    <mask fill="white" id="Clip309">
      <path d="M 21.357142857142858 14.657068062827225  C 22.452380952380956 15.597731239092495  23 16.725567190226876  23 18.040575916230367  C 23 19.163612565445025  22.567380952380955 20.104275741710296  21.702142857142857 20.862565445026178  C 20.836904761904766 21.62085514834206  19.763571428571428 22  18.482142857142858 22  C 17.00357142857143 22  15.716666666666667 21.520069808027927  14.62142857142857 20.56020942408377  L 1.8564285714285718 9.387434554973822  C 0.618809523809524 8.283595113438043  0 6.982984293193717  0 5.4856020942408374  C 0 3.959424083769634  0.6023809523809526 2.6636125654450256  1.8071428571428574 1.5981675392670145  C 3.0119047619047628 0.5327225130890056  4.485 0  6.226428571428572 0  C 7.956904761904762 0  9.451904761904762 0.5423211169284434  10.711428571428572 1.62696335078534  L 20.650714285714287 10.352094240837697  C 20.760238095238098 10.448080279232112  20.815 10.553664921465968  20.815 10.668848167539267  C 20.815 10.822425828970331  20.647976190476193 11.045593368237348  20.313928571428573 11.338350785340314  C 19.979880952380952 11.63110820244328  19.725238095238097 11.777486910994766  19.55 11.777486910994766  C 19.40761904761905 11.777486910994766  19.281666666666666 11.729493891797555  19.172142857142855 11.633507853403142  L 9.21642857142857 2.893979057591623  C 8.351190476190478 2.154886561954623  7.360000000000001 1.7853403141361257  6.242857142857142 1.7853403141361257  C 5.081904761904763 1.7853403141361257  4.101666666666667 2.145287958115183  3.302142857142857 2.8651832460732973  C 2.5026190476190484 3.585078534031414  2.1028571428571428 4.453752181500872  2.1028571428571428 5.471204188481675  C 2.1028571428571428 6.479057591623037  2.51904761904762 7.347731239092495  3.3514285714285714 8.077225130890051  L 16.099999999999998 19.264397905759164  C 16.79 19.86910994764398  17.58404761904762 20.17146596858639  18.482142857142858 20.17146596858639  C 19.18309523809524 20.17146596858639  19.763571428571428 19.969895287958114  20.22357142857143 19.566753926701573  C 20.683571428571426 19.163612565445025  20.913571428571426 18.654886561954626  20.913571428571426 18.040575916230367  C 20.913571428571426 17.25349040139616  20.568571428571428 16.55759162303665  19.87857142857143 15.952879581151834  L 10.333571428571428 7.587696335078534  C 10.048809523809526 7.357329842931938  9.720238095238097 7.24214659685864  9.347857142857142 7.24214659685864  C 9.030238095238097 7.24214659685864  8.767380952380954 7.333333333333332  8.559285714285714 7.515706806282723  C 8.351190476190478 7.698080279232111  8.247142857142858 7.928446771378709  8.247142857142858 8.206806282722514  C 8.247142857142858 8.51396160558464  8.38404761904762 8.797120418848168  8.657857142857143 9.056282722513089  L 15.393571428571429 14.959424083769633  C 15.50309523809524 15.055410122164046  15.557857142857145 15.160994764397905  15.557857142857141 15.276178010471206  C 15.557857142857145 15.429755671902265  15.38809523809524 15.655322862129143  15.048571428571428 15.952879581151834  C 14.70904761904762 16.250436300174517  14.451666666666668 16.399214659685864  14.27642857142857 16.399214659685864  C 14.145000000000003 16.399214659685864  14.024523809523812 16.351221640488653  13.915 16.25523560209424  L 7.179285714285715 10.352094240837697  C 6.489285714285714 9.76657940663176  6.144285714285714 9.05148342059337  6.144285714285714 8.206806282722514  C 6.144285714285714 7.419720767888306  6.456428571428571 6.75261780104712  7.080714285714286 6.2054973821989545  C 7.705 5.658376963350785  8.466190476190476 5.384816753926703  9.364285714285714 5.384816753926703  C 10.328095238095239 5.384816753926703  11.144047619047619 5.687172774869109  11.812142857142858 6.291884816753926  L 21.357142857142858 14.657068062827225  Z " fill-rule="evenodd" />
    </mask>
  </defs>
  <g transform="matrix(1 0 0 1 -2426 -1020 )">
    <path d="M 21.357142857142858 14.657068062827225  C 22.452380952380956 15.597731239092495  23 16.725567190226876  23 18.040575916230367  C 23 19.163612565445025  22.567380952380955 20.104275741710296  21.702142857142857 20.862565445026178  C 20.836904761904766 21.62085514834206  19.763571428571428 22  18.482142857142858 22  C 17.00357142857143 22  15.716666666666667 21.520069808027927  14.62142857142857 20.56020942408377  L 1.8564285714285718 9.387434554973822  C 0.618809523809524 8.283595113438043  0 6.982984293193717  0 5.4856020942408374  C 0 3.959424083769634  0.6023809523809526 2.6636125654450256  1.8071428571428574 1.5981675392670145  C 3.0119047619047628 0.5327225130890056  4.485 0  6.226428571428572 0  C 7.956904761904762 0  9.451904761904762 0.5423211169284434  10.711428571428572 1.62696335078534  L 20.650714285714287 10.352094240837697  C 20.760238095238098 10.448080279232112  20.815 10.553664921465968  20.815 10.668848167539267  C 20.815 10.822425828970331  20.647976190476193 11.045593368237348  20.313928571428573 11.338350785340314  C 19.979880952380952 11.63110820244328  19.725238095238097 11.777486910994766  19.55 11.777486910994766  C 19.40761904761905 11.777486910994766  19.281666666666666 11.729493891797555  19.172142857142855 11.633507853403142  L 9.21642857142857 2.893979057591623  C 8.351190476190478 2.154886561954623  7.360000000000001 1.7853403141361257  6.242857142857142 1.7853403141361257  C 5.081904761904763 1.7853403141361257  4.101666666666667 2.145287958115183  3.302142857142857 2.8651832460732973  C 2.5026190476190484 3.585078534031414  2.1028571428571428 4.453752181500872  2.1028571428571428 5.471204188481675  C 2.1028571428571428 6.479057591623037  2.51904761904762 7.347731239092495  3.3514285714285714 8.077225130890051  L 16.099999999999998 19.264397905759164  C 16.79 19.86910994764398  17.58404761904762 20.17146596858639  18.482142857142858 20.17146596858639  C 19.18309523809524 20.17146596858639  19.763571428571428 19.969895287958114  20.22357142857143 19.566753926701573  C 20.683571428571426 19.163612565445025  20.913571428571426 18.654886561954626  20.913571428571426 18.040575916230367  C 20.913571428571426 17.25349040139616  20.568571428571428 16.55759162303665  19.87857142857143 15.952879581151834  L 10.333571428571428 7.587696335078534  C 10.048809523809526 7.357329842931938  9.720238095238097 7.24214659685864  9.347857142857142 7.24214659685864  C 9.030238095238097 7.24214659685864  8.767380952380954 7.333333333333332  8.559285714285714 7.515706806282723  C 8.351190476190478 7.698080279232111  8.247142857142858 7.928446771378709  8.247142857142858 8.206806282722514  C 8.247142857142858 8.51396160558464  8.38404761904762 8.797120418848168  8.657857142857143 9.056282722513089  L 15.393571428571429 14.959424083769633  C 15.50309523809524 15.055410122164046  15.557857142857145 15.160994764397905  15.557857142857141 15.276178010471206  C 15.557857142857145 15.429755671902265  15.38809523809524 15.655322862129143  15.048571428571428 15.952879581151834  C 14.70904761904762 16.250436300174517  14.451666666666668 16.399214659685864  14.27642857142857 16.399214659685864  C 14.145000000000003 16.399214659685864  14.024523809523812 16.351221640488653  13.915 16.25523560209424  L 7.179285714285715 10.352094240837697  C 6.489285714285714 9.76657940663176  6.144285714285714 9.05148342059337  6.144285714285714 8.206806282722514  C 6.144285714285714 7.419720767888306  6.456428571428571 6.75261780104712  7.080714285714286 6.2054973821989545  C 7.705 5.658376963350785  8.466190476190476 5.384816753926703  9.364285714285714 5.384816753926703  C 10.328095238095239 5.384816753926703  11.144047619047619 5.687172774869109  11.812142857142858 6.291884816753926  L 21.357142857142858 14.657068062827225  Z " fill-rule="nonzero" fill="rgba(0, 0, 0, 1)" stroke="none" transform="matrix(1 0 0 1 2426 1020 )" class="fill" />
    <path d="M 21.357142857142858 14.657068062827225  C 22.452380952380956 15.597731239092495  23 16.725567190226876  23 18.040575916230367  C 23 19.163612565445025  22.567380952380955 20.104275741710296  21.702142857142857 20.862565445026178  C 20.836904761904766 21.62085514834206  19.763571428571428 22  18.482142857142858 22  C 17.00357142857143 22  15.716666666666667 21.520069808027927  14.62142857142857 20.56020942408377  L 1.8564285714285718 9.387434554973822  C 0.618809523809524 8.283595113438043  0 6.982984293193717  0 5.4856020942408374  C 0 3.959424083769634  0.6023809523809526 2.6636125654450256  1.8071428571428574 1.5981675392670145  C 3.0119047619047628 0.5327225130890056  4.485 0  6.226428571428572 0  C 7.956904761904762 0  9.451904761904762 0.5423211169284434  10.711428571428572 1.62696335078534  L 20.650714285714287 10.352094240837697  C 20.760238095238098 10.448080279232112  20.815 10.553664921465968  20.815 10.668848167539267  C 20.815 10.822425828970331  20.647976190476193 11.045593368237348  20.313928571428573 11.338350785340314  C 19.979880952380952 11.63110820244328  19.725238095238097 11.777486910994766  19.55 11.777486910994766  C 19.40761904761905 11.777486910994766  19.281666666666666 11.729493891797555  19.172142857142855 11.633507853403142  L 9.21642857142857 2.893979057591623  C 8.351190476190478 2.154886561954623  7.360000000000001 1.7853403141361257  6.242857142857142 1.7853403141361257  C 5.081904761904763 1.7853403141361257  4.101666666666667 2.145287958115183  3.302142857142857 2.8651832460732973  C 2.5026190476190484 3.585078534031414  2.1028571428571428 4.453752181500872  2.1028571428571428 5.471204188481675  C 2.1028571428571428 6.479057591623037  2.51904761904762 7.347731239092495  3.3514285714285714 8.077225130890051  L 16.099999999999998 19.264397905759164  C 16.79 19.86910994764398  17.58404761904762 20.17146596858639  18.482142857142858 20.17146596858639  C 19.18309523809524 20.17146596858639  19.763571428571428 19.969895287958114  20.22357142857143 19.566753926701573  C 20.683571428571426 19.163612565445025  20.913571428571426 18.654886561954626  20.913571428571426 18.040575916230367  C 20.913571428571426 17.25349040139616  20.568571428571428 16.55759162303665  19.87857142857143 15.952879581151834  L 10.333571428571428 7.587696335078534  C 10.048809523809526 7.357329842931938  9.720238095238097 7.24214659685864  9.347857142857142 7.24214659685864  C 9.030238095238097 7.24214659685864  8.767380952380954 7.333333333333332  8.559285714285714 7.515706806282723  C 8.351190476190478 7.698080279232111  8.247142857142858 7.928446771378709  8.247142857142858 8.206806282722514  C 8.247142857142858 8.51396160558464  8.38404761904762 8.797120418848168  8.657857142857143 9.056282722513089  L 15.393571428571429 14.959424083769633  C 15.50309523809524 15.055410122164046  15.557857142857145 15.160994764397905  15.557857142857141 15.276178010471206  C 15.557857142857145 15.429755671902265  15.38809523809524 15.655322862129143  15.048571428571428 15.952879581151834  C 14.70904761904762 16.250436300174517  14.451666666666668 16.399214659685864  14.27642857142857 16.399214659685864  C 14.145000000000003 16.399214659685864  14.024523809523812 16.351221640488653  13.915 16.25523560209424  L 7.179285714285715 10.352094240837697  C 6.489285714285714 9.76657940663176  6.144285714285714 9.05148342059337  6.144285714285714 8.206806282722514  C 6.144285714285714 7.419720767888306  6.456428571428571 6.75261780104712  7.080714285714286 6.2054973821989545  C 7.705 5.658376963350785  8.466190476190476 5.384816753926703  9.364285714285714 5.384816753926703  C 10.328095238095239 5.384816753926703  11.144047619047619 5.687172774869109  11.812142857142858 6.291884816753926  L 21.357142857142858 14.657068062827225  Z " stroke-width="0" stroke-dasharray="0" stroke="rgba(255, 255, 255, 0)" fill="none" transform="matrix(1 0 0 1 2426 1020 )" class="stroke" mask="url(#Clip309)" />
  </g>
</svg>