<?xml version="1.0" encoding="utf-8"?>
<svg version="1.1" xmlns:xlink="http://www.w3.org/1999/xlink" width="34px" height="32px" xmlns="http://www.w3.org/2000/svg">
  <defs>
    <pattern id="BGPattern" patternUnits="userSpaceOnUse" alignment="0 0" imageRepeat="None" />
    <mask fill="white" id="Clip310">
      <path d="M 25.926897321428573 12.598214285714285  C 26.09765625 12.330357142857142  26.145089285714285 12.041666666666664  26.069196428571427 11.732142857142858  C 25.993303571428573 11.422619047619044  25.813058035714285 11.1875  25.528459821428573 11.026785714285715  C 25.243861607142858 10.866071428571427  24.937127976190478 10.821428571428573  24.608258928571427 10.892857142857142  C 21.306919642857142 11.63095238095238  18.770833333333336 12  17 12  C 15.229166666666668 12  12.693080357142858 11.63095238095238  9.391741071428571 10.892857142857142  C 9.062872023809524 10.821428571428573  8.756138392857142 10.866071428571427  8.471540178571429 11.026785714285715  C 8.186941964285715 11.1875  8.006696428571429 11.422619047619044  7.930803571428571 11.732142857142858  C 7.854910714285714 12.041666666666664  7.90234375 12.330357142857142  8.073102678571429 12.598214285714285  C 8.243861607142858 12.866071428571427  8.493675595238095 13.035714285714285  8.822544642857142 13.107142857142858  C 11.276413690476192 13.654761904761902  13.192708333333334 14  14.571428571428571 14.142857142857142  C 14.546130952380954 16.023809523809522  14.448102678571429 17.625  14.27734375 18.94642857142857  C 14.106584821428571 20.267857142857142  13.938988095238097 21.19345238095238  13.774553571428571 21.723214285714285  C 13.610119047619047 22.25297619047619  13.350818452380954 22.94047619047619  12.996651785714286 23.785714285714285  L 12.825892857142858 24.160714285714285  C 12.699404761904763 24.458333333333336  12.705729166666668 24.75  12.844866071428571 25.035714285714285  C 12.984002976190478 25.32142857142857  13.211681547619047 25.523809523809522  13.527901785714286 25.642857142857142  C 13.641741071428571 25.69047619047619  13.787202380952383 25.714285714285715  13.964285714285714 25.714285714285715  C 14.520833333333336 25.714285714285715  14.900297619047622 25.470238095238095  15.102678571428571 24.982142857142858  L 15.254464285714286 24.625  C 15.937500000000002 22.970238095238095  16.38653273809524 21.42857142857143  16.6015625 20  L 17.3984375 20  C 17.613467261904763 21.42857142857143  18.0625 22.970238095238095  18.745535714285715 24.625  L 18.897321428571427 24.982142857142858  C 19.099702380952383 25.470238095238095  19.479166666666668 25.714285714285715  20.035714285714285 25.714285714285715  C 20.21279761904762 25.714285714285715  20.358258928571427 25.69047619047619  20.472098214285715 25.642857142857142  C 20.788318452380956 25.523809523809522  21.015997023809526 25.32142857142857  21.155133928571427 25.035714285714285  C 21.294270833333336 24.75  21.300595238095237 24.458333333333336  21.174107142857142 24.160714285714285  L 21.003348214285715 23.785714285714285  C 20.64918154761905 22.94047619047619  20.389880952380956 22.25297619047619  20.225446428571427 21.723214285714285  C 20.06101190476191 21.19345238095238  19.893415178571427 20.267857142857142  19.72265625 18.94642857142857  C 19.551897321428573 17.625  19.45386904761905 16.023809523809522  19.428571428571427 14.142857142857142  C 20.807291666666668 14  22.72358630952381 13.654761904761902  25.177455357142858 13.107142857142858  C 25.50632440476191 13.035714285714285  25.756138392857142 12.866071428571427  25.926897321428573 12.598214285714285  Z M 18.717075892857142 10.758928571428573  C 19.19140625 10.3125  19.428571428571427 9.773809523809522  19.428571428571427 9.142857142857142  C 19.428571428571427 8.51190476190476  19.19140625 7.973214285714285  18.717075892857142 7.526785714285715  C 18.242745535714285 7.080357142857142  17.67038690476191 6.857142857142858  17 6.857142857142858  C 16.329613095238095 6.857142857142858  15.757254464285715 7.080357142857142  15.282924107142858 7.526785714285715  C 14.80859375 7.973214285714285  14.571428571428571 8.51190476190476  14.571428571428571 9.142857142857142  C 14.571428571428571 9.773809523809522  14.80859375 10.3125  15.282924107142858 10.758928571428573  C 15.757254464285715 11.205357142857142  16.329613095238095 11.428571428571427  17 11.428571428571427  C 17.67038690476191 11.428571428571427  18.242745535714285 11.205357142857142  18.717075892857142 10.758928571428573  Z M 29.304129464285715 11.116071428571427  C 30.006138392857142 12.669642857142858  30.357142857142858 14.297619047619044  30.357142857142858 16  C 30.357142857142858 17.70238095238095  30.006138392857142 19.330357142857142  29.304129464285715 20.88392857142857  C 28.602120535714285 22.4375  27.653459821428573 23.776785714285715  26.458147321428573 24.901785714285715  C 25.262834821428573 26.026785714285715  23.83984375 26.919642857142858  22.189174107142858 27.580357142857142  C 20.538504464285715 28.241071428571427  18.808779761904763 28.571428571428573  17 28.571428571428573  C 15.191220238095239 28.571428571428573  13.461495535714286 28.241071428571427  11.810825892857142 27.580357142857142  C 10.16015625 26.919642857142858  8.737165178571429 26.026785714285715  7.541852678571429 24.901785714285715  C 6.346540178571429 23.776785714285715  5.397879464285714 22.4375  4.695870535714286 20.88392857142857  C 3.993861607142857 19.330357142857142  3.642857142857143 17.70238095238095  3.642857142857143 16  C 3.642857142857143 14.297619047619044  3.993861607142857 12.669642857142858  4.695870535714286 11.116071428571427  C 5.397879464285714 9.5625  6.346540178571429 8.223214285714285  7.541852678571429 7.098214285714285  C 8.737165178571429 5.973214285714285  10.16015625 5.080357142857142  11.810825892857142 4.419642857142858  C 13.461495535714286 3.758928571428573  15.191220238095239 3.428571428571427  17 3.428571428571427  C 18.808779761904763 3.428571428571427  20.538504464285715 3.758928571428573  22.189174107142858 4.419642857142858  C 23.83984375 5.080357142857142  25.262834821428573 5.973214285714285  26.458147321428573 7.098214285714285  C 27.653459821428573 8.223214285714285  28.602120535714285 9.5625  29.304129464285715 11.116071428571427  Z M 22.654017857142858 3.375  C 20.85788690476191 2.648809523809522  18.973214285714285 2.2857142857142847  17 2.2857142857142847  C 15.026785714285714 2.2857142857142847  13.142113095238097 2.648809523809522  11.345982142857142 3.375  C 9.549851190476192 4.1011904761904745  8.000372023809526 5.0773809523809526  6.697544642857143 6.303571428571427  C 5.394717261904763 7.5297619047619015  4.357514880952381 8.988095238095237  3.5859375 10.678571428571427  C 2.8143601190476195 12.369047619047617  2.4285714285714284 14.142857142857142  2.4285714285714284 16  C 2.4285714285714284 17.857142857142858  2.8143601190476195 19.63095238095238  3.5859375 21.32142857142857  C 4.357514880952381 23.011904761904763  5.394717261904763 24.470238095238095  6.697544642857143 25.69642857142857  C 8.000372023809526 26.92261904761905  9.549851190476192 27.898809523809522  11.345982142857142 28.625  C 13.142113095238097 29.351190476190478  15.026785714285714 29.714285714285715  17 29.714285714285715  C 18.973214285714285 29.714285714285715  20.85788690476191 29.351190476190478  22.654017857142858 28.625  C 24.45014880952381 27.898809523809522  25.999627976190478 26.92261904761905  27.302455357142858 25.69642857142857  C 28.605282738095244 24.470238095238095  29.64248511904762 23.011904761904763  30.4140625 21.32142857142857  C 31.185639880952383 19.63095238095238  31.571428571428573 17.857142857142858  31.571428571428573 16  C 31.571428571428573 14.142857142857142  31.185639880952383 12.369047619047617  30.4140625 10.678571428571427  C 29.64248511904762 8.988095238095237  28.605282738095244 7.5297619047619015  27.302455357142858 6.303571428571427  C 25.999627976190478 5.0773809523809526  24.45014880952381 4.1011904761904745  22.654017857142858 3.375  Z M 32.652901785714285 9.785714285714285  C 33.550967261904766 11.76190476190476  34 13.833333333333332  34 16  C 34 18.166666666666664  33.550967261904766 20.238095238095237  32.652901785714285 22.214285714285715  C 31.754836309523814 24.19047619047619  30.546875000000004 25.892857142857142  29.029017857142858 27.32142857142857  C 27.511160714285715 28.75  25.702380952380956 29.886904761904763  23.602678571428573 30.732142857142858  C 21.502976190476193 31.577380952380953  19.302083333333336 32  17 32  C 14.697916666666668 32  12.49702380952381 31.577380952380953  10.397321428571429 30.732142857142858  C 8.297619047619047 29.886904761904763  6.488839285714286 28.75  4.970982142857143 27.32142857142857  C 3.453125 25.892857142857142  2.2451636904761907 24.19047619047619  1.3470982142857142 22.214285714285715  C 0.449032738095238 20.238095238095237  0 18.166666666666664  0 16  C 0 13.833333333333332  0.449032738095238 11.76190476190476  1.3470982142857142 9.785714285714285  C 2.2451636904761907 7.809523809523807  3.453125 6.107142857142858  4.970982142857143 4.678571428571427  C 6.488839285714286 3.25  8.297619047619047 2.1130952380952372  10.397321428571429 1.2678571428571423  C 12.49702380952381 0.42261904761904745  14.697916666666668 0  17 0  C 19.302083333333336 0  21.502976190476193 0.42261904761904745  23.602678571428573 1.2678571428571423  C 25.702380952380956 2.1130952380952372  27.511160714285715 3.25  29.029017857142858 4.678571428571427  C 30.546875000000004 6.107142857142858  31.754836309523814 7.809523809523807  32.652901785714285 9.785714285714285  Z " fill-rule="evenodd" />
    </mask>
  </defs>
  <g transform="matrix(1 0 0 1 -5571 -934 )">
    <path d="M 25.926897321428573 12.598214285714285  C 26.09765625 12.330357142857142  26.145089285714285 12.041666666666664  26.069196428571427 11.732142857142858  C 25.993303571428573 11.422619047619044  25.813058035714285 11.1875  25.528459821428573 11.026785714285715  C 25.243861607142858 10.866071428571427  24.937127976190478 10.821428571428573  24.608258928571427 10.892857142857142  C 21.306919642857142 11.63095238095238  18.770833333333336 12  17 12  C 15.229166666666668 12  12.693080357142858 11.63095238095238  9.391741071428571 10.892857142857142  C 9.062872023809524 10.821428571428573  8.756138392857142 10.866071428571427  8.471540178571429 11.026785714285715  C 8.186941964285715 11.1875  8.006696428571429 11.422619047619044  7.930803571428571 11.732142857142858  C 7.854910714285714 12.041666666666664  7.90234375 12.330357142857142  8.073102678571429 12.598214285714285  C 8.243861607142858 12.866071428571427  8.493675595238095 13.035714285714285  8.822544642857142 13.107142857142858  C 11.276413690476192 13.654761904761902  13.192708333333334 14  14.571428571428571 14.142857142857142  C 14.546130952380954 16.023809523809522  14.448102678571429 17.625  14.27734375 18.94642857142857  C 14.106584821428571 20.267857142857142  13.938988095238097 21.19345238095238  13.774553571428571 21.723214285714285  C 13.610119047619047 22.25297619047619  13.350818452380954 22.94047619047619  12.996651785714286 23.785714285714285  L 12.825892857142858 24.160714285714285  C 12.699404761904763 24.458333333333336  12.705729166666668 24.75  12.844866071428571 25.035714285714285  C 12.984002976190478 25.32142857142857  13.211681547619047 25.523809523809522  13.527901785714286 25.642857142857142  C 13.641741071428571 25.69047619047619  13.787202380952383 25.714285714285715  13.964285714285714 25.714285714285715  C 14.520833333333336 25.714285714285715  14.900297619047622 25.470238095238095  15.102678571428571 24.982142857142858  L 15.254464285714286 24.625  C 15.937500000000002 22.970238095238095  16.38653273809524 21.42857142857143  16.6015625 20  L 17.3984375 20  C 17.613467261904763 21.42857142857143  18.0625 22.970238095238095  18.745535714285715 24.625  L 18.897321428571427 24.982142857142858  C 19.099702380952383 25.470238095238095  19.479166666666668 25.714285714285715  20.035714285714285 25.714285714285715  C 20.21279761904762 25.714285714285715  20.358258928571427 25.69047619047619  20.472098214285715 25.642857142857142  C 20.788318452380956 25.523809523809522  21.015997023809526 25.32142857142857  21.155133928571427 25.035714285714285  C 21.294270833333336 24.75  21.300595238095237 24.458333333333336  21.174107142857142 24.160714285714285  L 21.003348214285715 23.785714285714285  C 20.64918154761905 22.94047619047619  20.389880952380956 22.25297619047619  20.225446428571427 21.723214285714285  C 20.06101190476191 21.19345238095238  19.893415178571427 20.267857142857142  19.72265625 18.94642857142857  C 19.551897321428573 17.625  19.45386904761905 16.023809523809522  19.428571428571427 14.142857142857142  C 20.807291666666668 14  22.72358630952381 13.654761904761902  25.177455357142858 13.107142857142858  C 25.50632440476191 13.035714285714285  25.756138392857142 12.866071428571427  25.926897321428573 12.598214285714285  Z M 18.717075892857142 10.758928571428573  C 19.19140625 10.3125  19.428571428571427 9.773809523809522  19.428571428571427 9.142857142857142  C 19.428571428571427 8.51190476190476  19.19140625 7.973214285714285  18.717075892857142 7.526785714285715  C 18.242745535714285 7.080357142857142  17.67038690476191 6.857142857142858  17 6.857142857142858  C 16.329613095238095 6.857142857142858  15.757254464285715 7.080357142857142  15.282924107142858 7.526785714285715  C 14.80859375 7.973214285714285  14.571428571428571 8.51190476190476  14.571428571428571 9.142857142857142  C 14.571428571428571 9.773809523809522  14.80859375 10.3125  15.282924107142858 10.758928571428573  C 15.757254464285715 11.205357142857142  16.329613095238095 11.428571428571427  17 11.428571428571427  C 17.67038690476191 11.428571428571427  18.242745535714285 11.205357142857142  18.717075892857142 10.758928571428573  Z M 29.304129464285715 11.116071428571427  C 30.006138392857142 12.669642857142858  30.357142857142858 14.297619047619044  30.357142857142858 16  C 30.357142857142858 17.70238095238095  30.006138392857142 19.330357142857142  29.304129464285715 20.88392857142857  C 28.602120535714285 22.4375  27.653459821428573 23.776785714285715  26.458147321428573 24.901785714285715  C 25.262834821428573 26.026785714285715  23.83984375 26.919642857142858  22.189174107142858 27.580357142857142  C 20.538504464285715 28.241071428571427  18.808779761904763 28.571428571428573  17 28.571428571428573  C 15.191220238095239 28.571428571428573  13.461495535714286 28.241071428571427  11.810825892857142 27.580357142857142  C 10.16015625 26.919642857142858  8.737165178571429 26.026785714285715  7.541852678571429 24.901785714285715  C 6.346540178571429 23.776785714285715  5.397879464285714 22.4375  4.695870535714286 20.88392857142857  C 3.993861607142857 19.330357142857142  3.642857142857143 17.70238095238095  3.642857142857143 16  C 3.642857142857143 14.297619047619044  3.993861607142857 12.669642857142858  4.695870535714286 11.116071428571427  C 5.397879464285714 9.5625  6.346540178571429 8.223214285714285  7.541852678571429 7.098214285714285  C 8.737165178571429 5.973214285714285  10.16015625 5.080357142857142  11.810825892857142 4.419642857142858  C 13.461495535714286 3.758928571428573  15.191220238095239 3.428571428571427  17 3.428571428571427  C 18.808779761904763 3.428571428571427  20.538504464285715 3.758928571428573  22.189174107142858 4.419642857142858  C 23.83984375 5.080357142857142  25.262834821428573 5.973214285714285  26.458147321428573 7.098214285714285  C 27.653459821428573 8.223214285714285  28.602120535714285 9.5625  29.304129464285715 11.116071428571427  Z M 22.654017857142858 3.375  C 20.85788690476191 2.648809523809522  18.973214285714285 2.2857142857142847  17 2.2857142857142847  C 15.026785714285714 2.2857142857142847  13.142113095238097 2.648809523809522  11.345982142857142 3.375  C 9.549851190476192 4.1011904761904745  8.000372023809526 5.0773809523809526  6.697544642857143 6.303571428571427  C 5.394717261904763 7.5297619047619015  4.357514880952381 8.988095238095237  3.5859375 10.678571428571427  C 2.8143601190476195 12.369047619047617  2.4285714285714284 14.142857142857142  2.4285714285714284 16  C 2.4285714285714284 17.857142857142858  2.8143601190476195 19.63095238095238  3.5859375 21.32142857142857  C 4.357514880952381 23.011904761904763  5.394717261904763 24.470238095238095  6.697544642857143 25.69642857142857  C 8.000372023809526 26.92261904761905  9.549851190476192 27.898809523809522  11.345982142857142 28.625  C 13.142113095238097 29.351190476190478  15.026785714285714 29.714285714285715  17 29.714285714285715  C 18.973214285714285 29.714285714285715  20.85788690476191 29.351190476190478  22.654017857142858 28.625  C 24.45014880952381 27.898809523809522  25.999627976190478 26.92261904761905  27.302455357142858 25.69642857142857  C 28.605282738095244 24.470238095238095  29.64248511904762 23.011904761904763  30.4140625 21.32142857142857  C 31.185639880952383 19.63095238095238  31.571428571428573 17.857142857142858  31.571428571428573 16  C 31.571428571428573 14.142857142857142  31.185639880952383 12.369047619047617  30.4140625 10.678571428571427  C 29.64248511904762 8.988095238095237  28.605282738095244 7.5297619047619015  27.302455357142858 6.303571428571427  C 25.999627976190478 5.0773809523809526  24.45014880952381 4.1011904761904745  22.654017857142858 3.375  Z M 32.652901785714285 9.785714285714285  C 33.550967261904766 11.76190476190476  34 13.833333333333332  34 16  C 34 18.166666666666664  33.550967261904766 20.238095238095237  32.652901785714285 22.214285714285715  C 31.754836309523814 24.19047619047619  30.546875000000004 25.892857142857142  29.029017857142858 27.32142857142857  C 27.511160714285715 28.75  25.702380952380956 29.886904761904763  23.602678571428573 30.732142857142858  C 21.502976190476193 31.577380952380953  19.302083333333336 32  17 32  C 14.697916666666668 32  12.49702380952381 31.577380952380953  10.397321428571429 30.732142857142858  C 8.297619047619047 29.886904761904763  6.488839285714286 28.75  4.970982142857143 27.32142857142857  C 3.453125 25.892857142857142  2.2451636904761907 24.19047619047619  1.3470982142857142 22.214285714285715  C 0.449032738095238 20.238095238095237  0 18.166666666666664  0 16  C 0 13.833333333333332  0.449032738095238 11.76190476190476  1.3470982142857142 9.785714285714285  C 2.2451636904761907 7.809523809523807  3.453125 6.107142857142858  4.970982142857143 4.678571428571427  C 6.488839285714286 3.25  8.297619047619047 2.1130952380952372  10.397321428571429 1.2678571428571423  C 12.49702380952381 0.42261904761904745  14.697916666666668 0  17 0  C 19.302083333333336 0  21.502976190476193 0.42261904761904745  23.602678571428573 1.2678571428571423  C 25.702380952380956 2.1130952380952372  27.511160714285715 3.25  29.029017857142858 4.678571428571427  C 30.546875000000004 6.107142857142858  31.754836309523814 7.809523809523807  32.652901785714285 9.785714285714285  Z " fill-rule="nonzero" fill="rgba(0, 0, 0, 1)" stroke="none" transform="matrix(1 0 0 1 5571 934 )" class="fill" />
    <path d="M 25.926897321428573 12.598214285714285  C 26.09765625 12.330357142857142  26.145089285714285 12.041666666666664  26.069196428571427 11.732142857142858  C 25.993303571428573 11.422619047619044  25.813058035714285 11.1875  25.528459821428573 11.026785714285715  C 25.243861607142858 10.866071428571427  24.937127976190478 10.821428571428573  24.608258928571427 10.892857142857142  C 21.306919642857142 11.63095238095238  18.770833333333336 12  17 12  C 15.229166666666668 12  12.693080357142858 11.63095238095238  9.391741071428571 10.892857142857142  C 9.062872023809524 10.821428571428573  8.756138392857142 10.866071428571427  8.471540178571429 11.026785714285715  C 8.186941964285715 11.1875  8.006696428571429 11.422619047619044  7.930803571428571 11.732142857142858  C 7.854910714285714 12.041666666666664  7.90234375 12.330357142857142  8.073102678571429 12.598214285714285  C 8.243861607142858 12.866071428571427  8.493675595238095 13.035714285714285  8.822544642857142 13.107142857142858  C 11.276413690476192 13.654761904761902  13.192708333333334 14  14.571428571428571 14.142857142857142  C 14.546130952380954 16.023809523809522  14.448102678571429 17.625  14.27734375 18.94642857142857  C 14.106584821428571 20.267857142857142  13.938988095238097 21.19345238095238  13.774553571428571 21.723214285714285  C 13.610119047619047 22.25297619047619  13.350818452380954 22.94047619047619  12.996651785714286 23.785714285714285  L 12.825892857142858 24.160714285714285  C 12.699404761904763 24.458333333333336  12.705729166666668 24.75  12.844866071428571 25.035714285714285  C 12.984002976190478 25.32142857142857  13.211681547619047 25.523809523809522  13.527901785714286 25.642857142857142  C 13.641741071428571 25.69047619047619  13.787202380952383 25.714285714285715  13.964285714285714 25.714285714285715  C 14.520833333333336 25.714285714285715  14.900297619047622 25.470238095238095  15.102678571428571 24.982142857142858  L 15.254464285714286 24.625  C 15.937500000000002 22.970238095238095  16.38653273809524 21.42857142857143  16.6015625 20  L 17.3984375 20  C 17.613467261904763 21.42857142857143  18.0625 22.970238095238095  18.745535714285715 24.625  L 18.897321428571427 24.982142857142858  C 19.099702380952383 25.470238095238095  19.479166666666668 25.714285714285715  20.035714285714285 25.714285714285715  C 20.21279761904762 25.714285714285715  20.358258928571427 25.69047619047619  20.472098214285715 25.642857142857142  C 20.788318452380956 25.523809523809522  21.015997023809526 25.32142857142857  21.155133928571427 25.035714285714285  C 21.294270833333336 24.75  21.300595238095237 24.458333333333336  21.174107142857142 24.160714285714285  L 21.003348214285715 23.785714285714285  C 20.64918154761905 22.94047619047619  20.389880952380956 22.25297619047619  20.225446428571427 21.723214285714285  C 20.06101190476191 21.19345238095238  19.893415178571427 20.267857142857142  19.72265625 18.94642857142857  C 19.551897321428573 17.625  19.45386904761905 16.023809523809522  19.428571428571427 14.142857142857142  C 20.807291666666668 14  22.72358630952381 13.654761904761902  25.177455357142858 13.107142857142858  C 25.50632440476191 13.035714285714285  25.756138392857142 12.866071428571427  25.926897321428573 12.598214285714285  Z " stroke-width="0" stroke-dasharray="0" stroke="rgba(255, 255, 255, 0)" fill="none" transform="matrix(1 0 0 1 5571 934 )" class="stroke" mask="url(#Clip310)" />
    <path d="M 18.717075892857142 10.758928571428573  C 19.19140625 10.3125  19.428571428571427 9.773809523809522  19.428571428571427 9.142857142857142  C 19.428571428571427 8.51190476190476  19.19140625 7.973214285714285  18.717075892857142 7.526785714285715  C 18.242745535714285 7.080357142857142  17.67038690476191 6.857142857142858  17 6.857142857142858  C 16.329613095238095 6.857142857142858  15.757254464285715 7.080357142857142  15.282924107142858 7.526785714285715  C 14.80859375 7.973214285714285  14.571428571428571 8.51190476190476  14.571428571428571 9.142857142857142  C 14.571428571428571 9.773809523809522  14.80859375 10.3125  15.282924107142858 10.758928571428573  C 15.757254464285715 11.205357142857142  16.329613095238095 11.428571428571427  17 11.428571428571427  C 17.67038690476191 11.428571428571427  18.242745535714285 11.205357142857142  18.717075892857142 10.758928571428573  Z " stroke-width="0" stroke-dasharray="0" stroke="rgba(255, 255, 255, 0)" fill="none" transform="matrix(1 0 0 1 5571 934 )" class="stroke" mask="url(#Clip310)" />
    <path d="M 29.304129464285715 11.116071428571427  C 30.006138392857142 12.669642857142858  30.357142857142858 14.297619047619044  30.357142857142858 16  C 30.357142857142858 17.70238095238095  30.006138392857142 19.330357142857142  29.304129464285715 20.88392857142857  C 28.602120535714285 22.4375  27.653459821428573 23.776785714285715  26.458147321428573 24.901785714285715  C 25.262834821428573 26.026785714285715  23.83984375 26.919642857142858  22.189174107142858 27.580357142857142  C 20.538504464285715 28.241071428571427  18.808779761904763 28.571428571428573  17 28.571428571428573  C 15.191220238095239 28.571428571428573  13.461495535714286 28.241071428571427  11.810825892857142 27.580357142857142  C 10.16015625 26.919642857142858  8.737165178571429 26.026785714285715  7.541852678571429 24.901785714285715  C 6.346540178571429 23.776785714285715  5.397879464285714 22.4375  4.695870535714286 20.88392857142857  C 3.993861607142857 19.330357142857142  3.642857142857143 17.70238095238095  3.642857142857143 16  C 3.642857142857143 14.297619047619044  3.993861607142857 12.669642857142858  4.695870535714286 11.116071428571427  C 5.397879464285714 9.5625  6.346540178571429 8.223214285714285  7.541852678571429 7.098214285714285  C 8.737165178571429 5.973214285714285  10.16015625 5.080357142857142  11.810825892857142 4.419642857142858  C 13.461495535714286 3.758928571428573  15.191220238095239 3.428571428571427  17 3.428571428571427  C 18.808779761904763 3.428571428571427  20.538504464285715 3.758928571428573  22.189174107142858 4.419642857142858  C 23.83984375 5.080357142857142  25.262834821428573 5.973214285714285  26.458147321428573 7.098214285714285  C 27.653459821428573 8.223214285714285  28.602120535714285 9.5625  29.304129464285715 11.116071428571427  Z " stroke-width="0" stroke-dasharray="0" stroke="rgba(255, 255, 255, 0)" fill="none" transform="matrix(1 0 0 1 5571 934 )" class="stroke" mask="url(#Clip310)" />
    <path d="M 22.654017857142858 3.375  C 20.85788690476191 2.648809523809522  18.973214285714285 2.2857142857142847  17 2.2857142857142847  C 15.026785714285714 2.2857142857142847  13.142113095238097 2.648809523809522  11.345982142857142 3.375  C 9.549851190476192 4.1011904761904745  8.000372023809526 5.0773809523809526  6.697544642857143 6.303571428571427  C 5.394717261904763 7.5297619047619015  4.357514880952381 8.988095238095237  3.5859375 10.678571428571427  C 2.8143601190476195 12.369047619047617  2.4285714285714284 14.142857142857142  2.4285714285714284 16  C 2.4285714285714284 17.857142857142858  2.8143601190476195 19.63095238095238  3.5859375 21.32142857142857  C 4.357514880952381 23.011904761904763  5.394717261904763 24.470238095238095  6.697544642857143 25.69642857142857  C 8.000372023809526 26.92261904761905  9.549851190476192 27.898809523809522  11.345982142857142 28.625  C 13.142113095238097 29.351190476190478  15.026785714285714 29.714285714285715  17 29.714285714285715  C 18.973214285714285 29.714285714285715  20.85788690476191 29.351190476190478  22.654017857142858 28.625  C 24.45014880952381 27.898809523809522  25.999627976190478 26.92261904761905  27.302455357142858 25.69642857142857  C 28.605282738095244 24.470238095238095  29.64248511904762 23.011904761904763  30.4140625 21.32142857142857  C 31.185639880952383 19.63095238095238  31.571428571428573 17.857142857142858  31.571428571428573 16  C 31.571428571428573 14.142857142857142  31.185639880952383 12.369047619047617  30.4140625 10.678571428571427  C 29.64248511904762 8.988095238095237  28.605282738095244 7.5297619047619015  27.302455357142858 6.303571428571427  C 25.999627976190478 5.0773809523809526  24.45014880952381 4.1011904761904745  22.654017857142858 3.375  Z " stroke-width="0" stroke-dasharray="0" stroke="rgba(255, 255, 255, 0)" fill="none" transform="matrix(1 0 0 1 5571 934 )" class="stroke" mask="url(#Clip310)" />
    <path d="M 32.652901785714285 9.785714285714285  C 33.550967261904766 11.76190476190476  34 13.833333333333332  34 16  C 34 18.166666666666664  33.550967261904766 20.238095238095237  32.652901785714285 22.214285714285715  C 31.754836309523814 24.19047619047619  30.546875000000004 25.892857142857142  29.029017857142858 27.32142857142857  C 27.511160714285715 28.75  25.702380952380956 29.886904761904763  23.602678571428573 30.732142857142858  C 21.502976190476193 31.577380952380953  19.302083333333336 32  17 32  C 14.697916666666668 32  12.49702380952381 31.577380952380953  10.397321428571429 30.732142857142858  C 8.297619047619047 29.886904761904763  6.488839285714286 28.75  4.970982142857143 27.32142857142857  C 3.453125 25.892857142857142  2.2451636904761907 24.19047619047619  1.3470982142857142 22.214285714285715  C 0.449032738095238 20.238095238095237  0 18.166666666666664  0 16  C 0 13.833333333333332  0.449032738095238 11.76190476190476  1.3470982142857142 9.785714285714285  C 2.2451636904761907 7.809523809523807  3.453125 6.107142857142858  4.970982142857143 4.678571428571427  C 6.488839285714286 3.25  8.297619047619047 2.1130952380952372  10.397321428571429 1.2678571428571423  C 12.49702380952381 0.42261904761904745  14.697916666666668 0  17 0  C 19.302083333333336 0  21.502976190476193 0.42261904761904745  23.602678571428573 1.2678571428571423  C 25.702380952380956 2.1130952380952372  27.511160714285715 3.25  29.029017857142858 4.678571428571427  C 30.546875000000004 6.107142857142858  31.754836309523814 7.809523809523807  32.652901785714285 9.785714285714285  Z " stroke-width="0" stroke-dasharray="0" stroke="rgba(255, 255, 255, 0)" fill="none" transform="matrix(1 0 0 1 5571 934 )" class="stroke" mask="url(#Clip310)" />
  </g>
</svg>