<?xml version="1.0" encoding="utf-8"?>
<svg version="1.1" xmlns:xlink="http://www.w3.org/1999/xlink" width="19px" height="18px" xmlns="http://www.w3.org/2000/svg">
  <defs>
    <pattern id="BGPattern" patternUnits="userSpaceOnUse" alignment="0 0" imageRepeat="None" />
    <mask fill="white" id="Clip312">
      <path d="M 0 9  C 0 3.9599999999999995  4.18 0  9.5 0  C 14.82 0  19 3.9599999999999995  19 9  C 19 14.040000000000001  14.82 18  9.5 18  C 4.18 18  0 14.040000000000001  0 9  Z " fill-rule="evenodd" />
    </mask>
  </defs>
  <g transform="matrix(1 0 0 1 -871 -302 )">
    <path d="M 0 9  C 0 3.9599999999999995  4.18 0  9.5 0  C 14.82 0  19 3.9599999999999995  19 9  C 19 14.040000000000001  14.82 18  9.5 18  C 4.18 18  0 14.040000000000001  0 9  Z " fill-rule="nonzero" fill="rgba(217, 0, 27, 1)" stroke="none" transform="matrix(1 0 0 1 871 302 )" class="fill" />
    <path d="M 0 9  C 0 3.9599999999999995  4.18 0  9.5 0  C 14.82 0  19 3.9599999999999995  19 9  C 19 14.040000000000001  14.82 18  9.5 18  C 4.18 18  0 14.040000000000001  0 9  Z " stroke-width="2" stroke-dasharray="0" stroke="rgba(121, 121, 121, 1)" fill="none" transform="matrix(1 0 0 1 871 302 )" class="stroke" mask="url(#Clip312)" />
  </g>
</svg>