<?xml version="1.0" encoding="utf-8"?>
<svg version="1.1" xmlns:xlink="http://www.w3.org/1999/xlink" width="154px" height="103px" xmlns="http://www.w3.org/2000/svg">
  <g transform="matrix(1 0 0 1 -1557 -126 )">
    <path d="M 1557 126  L 1711 126  L 1711 229  L 1557 229  L 1557 126  " fill-rule="nonzero" fill="rgba(204, 204, 204, 1)" stroke="none" class="fill" />
    <path d="M 1564 133  L 1704 133  L 1704 222  L 1564 222  L 1564 133  " fill-rule="nonzero" fill="rgba(255, 255, 255, 1)" stroke="none" class="fill" />
    <path d="M 1644.8049999999998 156.89999999999998  C 1640.4789999999998 156.89999999999998  1637.08 153.50099999999998  1637.08 149.17499999999998  C 1637.08 144.849  1640.4789999999998 141.45  1644.8049999999998 141.45  C 1649.1309999999999 141.45  1652.53 144.849  1652.53 149.17499999999998  C 1652.53 153.50099999999998  1649.1309999999999 156.89999999999998  1644.8049999999998 156.89999999999998  " fill-rule="nonzero" fill="rgba(204, 204, 204, 1)" stroke="none" class="fill" />
    <path d="M 1567 220  L 1567 173.8  L 1600.75 152.8  L 1648 186.2909090909091  L 1675 165.4  L 1702 186.2909090909091  L 1702 220  L 1567 220  " fill-rule="nonzero" fill="rgba(22, 155, 213, 1)" stroke="none" class="fill" />
  </g>
</svg>