<?xml version="1.0" encoding="utf-8"?>
<svg version="1.1" xmlns:xlink="http://www.w3.org/1999/xlink" width="13px" height="13px" xmlns="http://www.w3.org/2000/svg">
  <defs>
    <pattern id="BGPattern" patternUnits="userSpaceOnUse" alignment="0 0" imageRepeat="None" />
    <mask fill="white" id="Clip391">
      <path d="M 9.690755208333334 7.9091796875  C 9.71896701388889 7.9345703125  9.733072916666666 7.9670138888888875  9.733072916666666 8.006510416666668  L 9.733072916666666 8.929036458333332  C 9.733072916666666 9.211154513888888  9.63009982638889 9.462239583333332  9.424153645833334 9.682291666666668  C 9.218207465277779 9.90234375  8.953016493055557 10.07302517361111  8.628580729166666 10.1943359375  C 8.304144965277779 10.31564670138889  7.971245659722222 10.407335069444445  7.6298828125 10.469401041666666  C 7.288519965277779 10.53146701388889  6.95703125 10.5625  6.635416666666666 10.5625  C 5.478732638888889 10.5625  4.512478298611112 10.170355902777779  3.736653645833333 9.386067708333332  C 2.960828993055556 8.601779513888888  2.5729166666666665 7.625651041666668  2.5729166666666665 6.457682291666666  C 2.5729166666666665 5.312282986111112  2.9565972222222223 4.355902777777778  3.723958333333333 3.588541666666666  C 4.491319444444445 2.821180555555555  5.447699652777779 2.4375  6.593098958333334 2.4375  C 6.784939236111112 2.4375  6.997938368055556 2.4501953125  7.232096354166666 2.4755859375  C 7.466254340277779 2.5009765625  7.728624131944445 2.5517578125  8.019205729166666 2.6279296875  C 8.30978732638889 2.7041015625  8.570746527777779 2.800021701388889  8.802083333333334 2.915690104166666  C 9.03342013888889 3.0313585069444438  9.228081597222223 3.190755208333334  9.386067708333334 3.393880208333334  C 9.544053819444445 3.597005208333334  9.623046875 3.825520833333334  9.623046875 4.079427083333334  L 9.623046875 5.001953125  C 9.623046875 5.092230902777776  9.57790798611111 5.137369791666666  9.487630208333334 5.137369791666666  L 8.488932291666666 5.137369791666666  C 8.39865451388889 5.137369791666666  8.353515625000002 5.092230902777776  8.353515625 5.001953125  L 8.353515625 4.409505208333334  C 8.353515625000002 4.166883680555555  8.16872829861111 3.976453993055555  7.799153645833334 3.838216145833334  C 7.429578993055556 3.69997829861111  7.041666666666666 3.630859375  6.635416666666666 3.630859375  C 5.845486111111112 3.630859375  5.200846354166667 3.888997395833334  4.701497395833333 4.4052734375  C 4.2021484375 4.921549479166666  3.952473958333333 5.591579861111112  3.952473958333333 6.415364583333334  C 3.952473958333333 7.26736111111111  4.210611979166667 7.971245659722222  4.726888020833333 8.527018229166668  C 5.2431640625 9.08279079861111  5.901909722222222 9.360677083333332  6.703125 9.360677083333332  C 7.086805555555556 9.360677083333332  7.476128472222222 9.29296875  7.87109375 9.157552083333332  C 8.266059027777779 9.022135416666668  8.463541666666666 8.8359375  8.463541666666666 8.598958333333332  L 8.463541666666666 8.006510416666668  C 8.463541666666666 7.9670138888888875  8.476236979166666 7.9345703125  8.501627604166666 7.9091796875  C 8.527018229166666 7.8837890625  8.556640625 7.87109375  8.590494791666666 7.87109375  L 9.59765625 7.87109375  C 9.631510416666666 7.87109375  9.662543402777779 7.8837890625  9.690755208333334 7.9091796875  Z M 8.603190104166666 1.514973958333334  C 7.9345703125 1.227213541666666  7.233506944444445 1.083333333333334  6.5 1.083333333333334  C 5.766493055555555 1.083333333333334  5.0654296875 1.227213541666666  4.396809895833333 1.514973958333334  C 3.728190104166667 1.802734375  3.1526692708333335 2.187825520833334  2.6702473958333335 2.670247395833334  C 2.1878255208333335 3.152669270833334  1.802734375 3.728190104166666  1.5149739583333333 4.396809895833334  C 1.2272135416666667 5.0654296875  1.0833333333333333 5.766493055555555  1.0833333333333333 6.5  C 1.0833333333333333 7.233506944444445  1.2272135416666667 7.9345703125  1.5149739583333333 8.603190104166668  C 1.802734375 9.271809895833332  2.1878255208333335 9.847330729166666  2.6702473958333335 10.329752604166666  C 3.1526692708333335 10.812174479166666  3.728190104166667 11.197265625  4.396809895833333 11.485026041666666  C 5.0654296875 11.772786458333334  5.766493055555555 11.916666666666666  6.5 11.916666666666666  C 7.233506944444445 11.916666666666666  7.9345703125 11.772786458333334  8.603190104166666 11.485026041666666  C 9.271809895833334 11.197265625  9.847330729166666 10.812174479166666  10.329752604166666 10.329752604166666  C 10.812174479166666 9.847330729166666  11.197265625 9.271809895833332  11.485026041666666 8.603190104166668  C 11.772786458333334 7.9345703125  11.916666666666666 7.233506944444445  11.916666666666666 6.5  C 11.916666666666666 5.766493055555555  11.772786458333334 5.0654296875  11.485026041666666 4.396809895833334  C 11.197265625 3.728190104166666  10.812174479166666 3.152669270833334  10.329752604166666 2.670247395833334  C 9.847330729166666 2.187825520833334  9.271809895833334 1.802734375  8.603190104166666 1.514973958333334  Z M 12.128255208333334 3.2373046875  C 12.709418402777777 4.23318142361111  13 5.320746527777776  13 6.5  C 13 7.679253472222222  12.709418402777777 8.766818576388888  12.128255208333334 9.7626953125  C 11.54709201388889 10.75857204861111  10.75857204861111 11.54709201388889  9.7626953125 12.128255208333334  C 8.76681857638889 12.709418402777779  7.679253472222222 13  6.5 13  C 5.320746527777779 13  4.233181423611112 12.709418402777779  3.2373046875 12.128255208333334  C 2.2414279513888893 11.54709201388889  1.4529079861111112 10.75857204861111  0.8717447916666667 9.7626953125  C 0.2905815972222222 8.766818576388888  0 7.679253472222222  0 6.5  C 0 5.320746527777776  0.2905815972222222 4.23318142361111  0.8717447916666667 3.2373046875  C 1.4529079861111112 2.241427951388889  2.2414279513888893 1.4529079861111098  3.2373046875 0.8717447916666662  C 4.233181423611112 0.2905815972222211  5.320746527777779 0  6.5 0  C 7.679253472222222 0  8.76681857638889 0.2905815972222211  9.7626953125 0.8717447916666662  C 10.75857204861111 1.4529079861111098  11.54709201388889 2.241427951388889  12.128255208333334 3.2373046875  Z " fill-rule="evenodd" />
    </mask>
  </defs>
  <g transform="matrix(1 0 0 1 -2549 -635 )">
    <path d="M 9.690755208333334 7.9091796875  C 9.71896701388889 7.9345703125  9.733072916666666 7.9670138888888875  9.733072916666666 8.006510416666668  L 9.733072916666666 8.929036458333332  C 9.733072916666666 9.211154513888888  9.63009982638889 9.462239583333332  9.424153645833334 9.682291666666668  C 9.218207465277779 9.90234375  8.953016493055557 10.07302517361111  8.628580729166666 10.1943359375  C 8.304144965277779 10.31564670138889  7.971245659722222 10.407335069444445  7.6298828125 10.469401041666666  C 7.288519965277779 10.53146701388889  6.95703125 10.5625  6.635416666666666 10.5625  C 5.478732638888889 10.5625  4.512478298611112 10.170355902777779  3.736653645833333 9.386067708333332  C 2.960828993055556 8.601779513888888  2.5729166666666665 7.625651041666668  2.5729166666666665 6.457682291666666  C 2.5729166666666665 5.312282986111112  2.9565972222222223 4.355902777777778  3.723958333333333 3.588541666666666  C 4.491319444444445 2.821180555555555  5.447699652777779 2.4375  6.593098958333334 2.4375  C 6.784939236111112 2.4375  6.997938368055556 2.4501953125  7.232096354166666 2.4755859375  C 7.466254340277779 2.5009765625  7.728624131944445 2.5517578125  8.019205729166666 2.6279296875  C 8.30978732638889 2.7041015625  8.570746527777779 2.800021701388889  8.802083333333334 2.915690104166666  C 9.03342013888889 3.0313585069444438  9.228081597222223 3.190755208333334  9.386067708333334 3.393880208333334  C 9.544053819444445 3.597005208333334  9.623046875 3.825520833333334  9.623046875 4.079427083333334  L 9.623046875 5.001953125  C 9.623046875 5.092230902777776  9.57790798611111 5.137369791666666  9.487630208333334 5.137369791666666  L 8.488932291666666 5.137369791666666  C 8.39865451388889 5.137369791666666  8.353515625000002 5.092230902777776  8.353515625 5.001953125  L 8.353515625 4.409505208333334  C 8.353515625000002 4.166883680555555  8.16872829861111 3.976453993055555  7.799153645833334 3.838216145833334  C 7.429578993055556 3.69997829861111  7.041666666666666 3.630859375  6.635416666666666 3.630859375  C 5.845486111111112 3.630859375  5.200846354166667 3.888997395833334  4.701497395833333 4.4052734375  C 4.2021484375 4.921549479166666  3.952473958333333 5.591579861111112  3.952473958333333 6.415364583333334  C 3.952473958333333 7.26736111111111  4.210611979166667 7.971245659722222  4.726888020833333 8.527018229166668  C 5.2431640625 9.08279079861111  5.901909722222222 9.360677083333332  6.703125 9.360677083333332  C 7.086805555555556 9.360677083333332  7.476128472222222 9.29296875  7.87109375 9.157552083333332  C 8.266059027777779 9.022135416666668  8.463541666666666 8.8359375  8.463541666666666 8.598958333333332  L 8.463541666666666 8.006510416666668  C 8.463541666666666 7.9670138888888875  8.476236979166666 7.9345703125  8.501627604166666 7.9091796875  C 8.527018229166666 7.8837890625  8.556640625 7.87109375  8.590494791666666 7.87109375  L 9.59765625 7.87109375  C 9.631510416666666 7.87109375  9.662543402777779 7.8837890625  9.690755208333334 7.9091796875  Z M 8.603190104166666 1.514973958333334  C 7.9345703125 1.227213541666666  7.233506944444445 1.083333333333334  6.5 1.083333333333334  C 5.766493055555555 1.083333333333334  5.0654296875 1.227213541666666  4.396809895833333 1.514973958333334  C 3.728190104166667 1.802734375  3.1526692708333335 2.187825520833334  2.6702473958333335 2.670247395833334  C 2.1878255208333335 3.152669270833334  1.802734375 3.728190104166666  1.5149739583333333 4.396809895833334  C 1.2272135416666667 5.0654296875  1.0833333333333333 5.766493055555555  1.0833333333333333 6.5  C 1.0833333333333333 7.233506944444445  1.2272135416666667 7.9345703125  1.5149739583333333 8.603190104166668  C 1.802734375 9.271809895833332  2.1878255208333335 9.847330729166666  2.6702473958333335 10.329752604166666  C 3.1526692708333335 10.812174479166666  3.728190104166667 11.197265625  4.396809895833333 11.485026041666666  C 5.0654296875 11.772786458333334  5.766493055555555 11.916666666666666  6.5 11.916666666666666  C 7.233506944444445 11.916666666666666  7.9345703125 11.772786458333334  8.603190104166666 11.485026041666666  C 9.271809895833334 11.197265625  9.847330729166666 10.812174479166666  10.329752604166666 10.329752604166666  C 10.812174479166666 9.847330729166666  11.197265625 9.271809895833332  11.485026041666666 8.603190104166668  C 11.772786458333334 7.9345703125  11.916666666666666 7.233506944444445  11.916666666666666 6.5  C 11.916666666666666 5.766493055555555  11.772786458333334 5.0654296875  11.485026041666666 4.396809895833334  C 11.197265625 3.728190104166666  10.812174479166666 3.152669270833334  10.329752604166666 2.670247395833334  C 9.847330729166666 2.187825520833334  9.271809895833334 1.802734375  8.603190104166666 1.514973958333334  Z M 12.128255208333334 3.2373046875  C 12.709418402777777 4.23318142361111  13 5.320746527777776  13 6.5  C 13 7.679253472222222  12.709418402777777 8.766818576388888  12.128255208333334 9.7626953125  C 11.54709201388889 10.75857204861111  10.75857204861111 11.54709201388889  9.7626953125 12.128255208333334  C 8.76681857638889 12.709418402777779  7.679253472222222 13  6.5 13  C 5.320746527777779 13  4.233181423611112 12.709418402777779  3.2373046875 12.128255208333334  C 2.2414279513888893 11.54709201388889  1.4529079861111112 10.75857204861111  0.8717447916666667 9.7626953125  C 0.2905815972222222 8.766818576388888  0 7.679253472222222  0 6.5  C 0 5.320746527777776  0.2905815972222222 4.23318142361111  0.8717447916666667 3.2373046875  C 1.4529079861111112 2.241427951388889  2.2414279513888893 1.4529079861111098  3.2373046875 0.8717447916666662  C 4.233181423611112 0.2905815972222211  5.320746527777779 0  6.5 0  C 7.679253472222222 0  8.76681857638889 0.2905815972222211  9.7626953125 0.8717447916666662  C 10.75857204861111 1.4529079861111098  11.54709201388889 2.241427951388889  12.128255208333334 3.2373046875  Z " fill-rule="nonzero" fill="rgba(127, 127, 127, 1)" stroke="none" transform="matrix(1 0 0 1 2549 635 )" class="fill" />
    <path d="M 9.690755208333334 7.9091796875  C 9.71896701388889 7.9345703125  9.733072916666666 7.9670138888888875  9.733072916666666 8.006510416666668  L 9.733072916666666 8.929036458333332  C 9.733072916666666 9.211154513888888  9.63009982638889 9.462239583333332  9.424153645833334 9.682291666666668  C 9.218207465277779 9.90234375  8.953016493055557 10.07302517361111  8.628580729166666 10.1943359375  C 8.304144965277779 10.31564670138889  7.971245659722222 10.407335069444445  7.6298828125 10.469401041666666  C 7.288519965277779 10.53146701388889  6.95703125 10.5625  6.635416666666666 10.5625  C 5.478732638888889 10.5625  4.512478298611112 10.170355902777779  3.736653645833333 9.386067708333332  C 2.960828993055556 8.601779513888888  2.5729166666666665 7.625651041666668  2.5729166666666665 6.457682291666666  C 2.5729166666666665 5.312282986111112  2.9565972222222223 4.355902777777778  3.723958333333333 3.588541666666666  C 4.491319444444445 2.821180555555555  5.447699652777779 2.4375  6.593098958333334 2.4375  C 6.784939236111112 2.4375  6.997938368055556 2.4501953125  7.232096354166666 2.4755859375  C 7.466254340277779 2.5009765625  7.728624131944445 2.5517578125  8.019205729166666 2.6279296875  C 8.30978732638889 2.7041015625  8.570746527777779 2.800021701388889  8.802083333333334 2.915690104166666  C 9.03342013888889 3.0313585069444438  9.228081597222223 3.190755208333334  9.386067708333334 3.393880208333334  C 9.544053819444445 3.597005208333334  9.623046875 3.825520833333334  9.623046875 4.079427083333334  L 9.623046875 5.001953125  C 9.623046875 5.092230902777776  9.57790798611111 5.137369791666666  9.487630208333334 5.137369791666666  L 8.488932291666666 5.137369791666666  C 8.39865451388889 5.137369791666666  8.353515625000002 5.092230902777776  8.353515625 5.001953125  L 8.353515625 4.409505208333334  C 8.353515625000002 4.166883680555555  8.16872829861111 3.976453993055555  7.799153645833334 3.838216145833334  C 7.429578993055556 3.69997829861111  7.041666666666666 3.630859375  6.635416666666666 3.630859375  C 5.845486111111112 3.630859375  5.200846354166667 3.888997395833334  4.701497395833333 4.4052734375  C 4.2021484375 4.921549479166666  3.952473958333333 5.591579861111112  3.952473958333333 6.415364583333334  C 3.952473958333333 7.26736111111111  4.210611979166667 7.971245659722222  4.726888020833333 8.527018229166668  C 5.2431640625 9.08279079861111  5.901909722222222 9.360677083333332  6.703125 9.360677083333332  C 7.086805555555556 9.360677083333332  7.476128472222222 9.29296875  7.87109375 9.157552083333332  C 8.266059027777779 9.022135416666668  8.463541666666666 8.8359375  8.463541666666666 8.598958333333332  L 8.463541666666666 8.006510416666668  C 8.463541666666666 7.9670138888888875  8.476236979166666 7.9345703125  8.501627604166666 7.9091796875  C 8.527018229166666 7.8837890625  8.556640625 7.87109375  8.590494791666666 7.87109375  L 9.59765625 7.87109375  C 9.631510416666666 7.87109375  9.662543402777779 7.8837890625  9.690755208333334 7.9091796875  Z " stroke-width="0" stroke-dasharray="0" stroke="rgba(255, 255, 255, 0)" fill="none" transform="matrix(1 0 0 1 2549 635 )" class="stroke" mask="url(#Clip391)" />
    <path d="M 8.603190104166666 1.514973958333334  C 7.9345703125 1.227213541666666  7.233506944444445 1.083333333333334  6.5 1.083333333333334  C 5.766493055555555 1.083333333333334  5.0654296875 1.227213541666666  4.396809895833333 1.514973958333334  C 3.728190104166667 1.802734375  3.1526692708333335 2.187825520833334  2.6702473958333335 2.670247395833334  C 2.1878255208333335 3.152669270833334  1.802734375 3.728190104166666  1.5149739583333333 4.396809895833334  C 1.2272135416666667 5.0654296875  1.0833333333333333 5.766493055555555  1.0833333333333333 6.5  C 1.0833333333333333 7.233506944444445  1.2272135416666667 7.9345703125  1.5149739583333333 8.603190104166668  C 1.802734375 9.271809895833332  2.1878255208333335 9.847330729166666  2.6702473958333335 10.329752604166666  C 3.1526692708333335 10.812174479166666  3.728190104166667 11.197265625  4.396809895833333 11.485026041666666  C 5.0654296875 11.772786458333334  5.766493055555555 11.916666666666666  6.5 11.916666666666666  C 7.233506944444445 11.916666666666666  7.9345703125 11.772786458333334  8.603190104166666 11.485026041666666  C 9.271809895833334 11.197265625  9.847330729166666 10.812174479166666  10.329752604166666 10.329752604166666  C 10.812174479166666 9.847330729166666  11.197265625 9.271809895833332  11.485026041666666 8.603190104166668  C 11.772786458333334 7.9345703125  11.916666666666666 7.233506944444445  11.916666666666666 6.5  C 11.916666666666666 5.766493055555555  11.772786458333334 5.0654296875  11.485026041666666 4.396809895833334  C 11.197265625 3.728190104166666  10.812174479166666 3.152669270833334  10.329752604166666 2.670247395833334  C 9.847330729166666 2.187825520833334  9.271809895833334 1.802734375  8.603190104166666 1.514973958333334  Z " stroke-width="0" stroke-dasharray="0" stroke="rgba(255, 255, 255, 0)" fill="none" transform="matrix(1 0 0 1 2549 635 )" class="stroke" mask="url(#Clip391)" />
    <path d="M 12.128255208333334 3.2373046875  C 12.709418402777777 4.23318142361111  13 5.320746527777776  13 6.5  C 13 7.679253472222222  12.709418402777777 8.766818576388888  12.128255208333334 9.7626953125  C 11.54709201388889 10.75857204861111  10.75857204861111 11.54709201388889  9.7626953125 12.128255208333334  C 8.76681857638889 12.709418402777779  7.679253472222222 13  6.5 13  C 5.320746527777779 13  4.233181423611112 12.709418402777779  3.2373046875 12.128255208333334  C 2.2414279513888893 11.54709201388889  1.4529079861111112 10.75857204861111  0.8717447916666667 9.7626953125  C 0.2905815972222222 8.766818576388888  0 7.679253472222222  0 6.5  C 0 5.320746527777776  0.2905815972222222 4.23318142361111  0.8717447916666667 3.2373046875  C 1.4529079861111112 2.241427951388889  2.2414279513888893 1.4529079861111098  3.2373046875 0.8717447916666662  C 4.233181423611112 0.2905815972222211  5.320746527777779 0  6.5 0  C 7.679253472222222 0  8.76681857638889 0.2905815972222211  9.7626953125 0.8717447916666662  C 10.75857204861111 1.4529079861111098  11.54709201388889 2.241427951388889  12.128255208333334 3.2373046875  Z " stroke-width="0" stroke-dasharray="0" stroke="rgba(255, 255, 255, 0)" fill="none" transform="matrix(1 0 0 1 2549 635 )" class="stroke" mask="url(#Clip391)" />
  </g>
</svg>