<?xml version="1.0" encoding="utf-8"?>
<svg version="1.1" xmlns:xlink="http://www.w3.org/1999/xlink" width="22px" height="21px" xmlns="http://www.w3.org/2000/svg">
  <defs>
    <pattern id="BGPattern" patternUnits="userSpaceOnUse" alignment="0 0" imageRepeat="None" />
    <mask fill="white" id="Clip392">
      <path d="M 13.36328125 12.21608527131783  C 13.735677083333334 11.777454780361758  13.983940972222225 11.55813953488372  14.108072916666666 11.55813953488372  C 14.23220486111111 11.55813953488372  14.69769965277778 11.757105943152455  15.504557291666666 12.155038759689925  C 16.311414930555557 12.552971576227389  16.73871527777778 12.79263565891473  16.786458333333336 12.874031007751938  C 16.805555555555557 12.91925064599483  16.815104166666664 12.987080103359173  16.815104166666664 13.077519379844963  C 16.815104166666664 13.375968992248062  16.733940972222225 13.719638242894055  16.571614583333336 14.108527131782946  C 16.418836805555557 14.46124031007752  16.07986111111111 14.757428940568476  15.5546875 14.997093023255813  C 15.029513888888891 15.23675710594315  14.542534722222223 15.356589147286822  14.09375 15.356589147286822  C 13.549479166666668 15.356589147286822  12.64236111111111 15.076227390180875  11.372395833333334 14.515503875968992  C 10.436631944444446 14.108527131782946  9.625 13.574935400516793  8.9375 12.914728682170544  C 8.25 12.25452196382429  7.543402777777779 11.417958656330747  6.817708333333333 10.405038759689923  C 6.130208333333333 9.437338501291988  5.79123263888889 8.560077519379846  5.80078125 7.773255813953488  L 5.80078125 7.664728682170542  C 5.829427083333334 6.841731266149869  6.1827256944444455 6.127260981912142  6.860677083333333 5.521317829457363  C 7.08984375 5.322351421188629  7.33810763888889 5.222868217054263  7.60546875 5.222868217054263  C 7.662760416666667 5.222868217054263  7.748697916666667 5.229651162790698  7.86328125 5.243217054263565  C 7.977864583333333 5.256782945736435  8.06857638888889 5.263565891472868  8.135416666666668 5.263565891472868  C 8.316840277777779 5.263565891472868  8.443359375 5.2929586563307485  8.514973958333332 5.351744186046512  C 8.586588541666668 5.410529715762273  8.660590277777779 5.5348837209302335  8.736979166666668 5.724806201550387  C 8.813368055555555 5.905684754521962  8.97092013888889 6.303617571059429  9.209635416666668 6.918604651162791  C 9.448350694444446 7.533591731266149  9.567708333333332 7.872739018087854  9.567708333333332 7.936046511627907  C 9.567708333333332 8.125968992248062  9.402994791666668 8.385981912144702  9.073567708333332 8.71608527131783  C 8.744140625 9.046188630490954  8.579427083333332 9.256459948320412  8.579427083333332 9.346899224806203  C 8.579427083333332 9.410206718346252  8.603298611111112 9.478036175710592  8.651041666666668 9.550387596899224  C 8.975694444444446 10.210594315245478  9.462673611111112 10.830103359173124  10.111979166666668 11.40891472868217  C 10.64670138888889 11.888242894056848  11.36762152777778 12.344961240310077  12.274739583333334 12.77906976744186  C 12.389322916666666 12.84237726098191  12.49435763888889 12.874031007751938  12.58984375 12.874031007751938  C 12.733072916666668 12.874031007751938  12.990885416666668 12.6547157622739  13.36328125 12.21608527131783  Z M 6.259114583333333 17.337209302325583  C 7.76779513888889 18.27777777777778  9.414930555555554 18.748062015503876  11.200520833333334 18.748062015503876  C 12.413194444444446 18.748062015503876  13.575737847222225 18.521963824289404  14.688151041666666 18.069767441860463  C 15.80056423611111 17.617571059431526  16.7578125 17.011627906976745  17.559895833333336 16.251937984496124  C 18.361979166666664 15.492248062015504  19.00173611111111 14.585594315245476  19.479166666666664 13.531976744186046  C 19.956597222222225 12.478359173126613  20.1953125 11.377260981912142  20.1953125 10.228682170542637  C 20.1953125 9.080103359173126  19.956597222222225 7.979005167958655  19.479166666666664 6.925387596899224  C 19.00173611111111 5.871770025839792  18.361979166666664 4.9651162790697665  17.559895833333336 4.205426356589147  C 16.7578125 3.445736434108527  15.80056423611111 2.8397932816537454  14.688151041666666 2.3875968992248064  C 13.575737847222225 1.935400516795863  12.413194444444446 1.7093023255813962  11.200520833333334 1.7093023255813962  C 9.987847222222223 1.7093023255813962  8.825303819444446 1.935400516795863  7.712890625 2.3875968992248064  C 6.600477430555555 2.8397932816537454  5.643229166666667 3.445736434108527  4.841145833333334 4.205426356589147  C 4.0390625 4.9651162790697665  3.399305555555556 5.871770025839792  2.921875 6.925387596899224  C 2.4444444444444446 7.979005167958655  2.205729166666667 9.080103359173126  2.205729166666667 10.228682170542637  C 2.205729166666667 12.064599483204134  2.7786458333333335 13.728682170542635  3.9244791666666665 15.220930232558139  L 2.79296875 18.381782945736436  L 6.259114583333333 17.337209302325583  Z M 7.011067708333333 0.8139534883720921  C 8.343098958333332 0.27131782945736327  9.739583333333332 0  11.200520833333334 0  C 12.661458333333334 0  14.057942708333334 0.27131782945736327  15.389973958333334 0.8139534883720921  C 16.722005208333336 1.356589147286821  17.870225694444446 2.0846253229974145  18.834635416666664 2.998062015503875  C 19.799045138888893 3.9114987080103356  20.567708333333336 4.999031007751939  21.140625 6.260658914728683  C 21.713541666666664 7.522286821705425  22 8.844961240310075  22 10.228682170542637  C 22 11.612403100775193  21.713541666666664 12.935077519379846  21.140625 14.196705426356587  C 20.567708333333336 15.458333333333334  19.799045138888893 16.545865633074932  18.834635416666664 17.459302325581397  C 17.870225694444446 18.372739018087856  16.722005208333336 19.10077519379845  15.389973958333334 19.643410852713178  C 14.057942708333334 20.186046511627907  12.661458333333334 20.45736434108527  11.200520833333334 20.45736434108527  C 9.338541666666668 20.45736434108527  7.59592013888889 20.032299741602067  5.97265625 19.18217054263566  L 0 21  L 1.9479166666666667 15.50581395348837  C 0.9166666666666666 13.895994832041344  0.4010416666666667 12.136950904392766  0.4010416666666667 10.228682170542637  C 0.4010416666666667 8.844961240310075  0.6875 7.522286821705425  1.2604166666666665 6.260658914728683  C 1.8333333333333333 4.999031007751939  2.601996527777778 3.9114987080103356  3.56640625 2.998062015503875  C 4.530815972222223 2.0846253229974145  5.679036458333333 1.356589147286821  7.011067708333333 0.8139534883720921  Z " fill-rule="evenodd" />
    </mask>
  </defs>
  <g transform="matrix(1 0 0 1 -3046 -561 )">
    <path d="M 13.36328125 12.21608527131783  C 13.735677083333334 11.777454780361758  13.983940972222225 11.55813953488372  14.108072916666666 11.55813953488372  C 14.23220486111111 11.55813953488372  14.69769965277778 11.757105943152455  15.504557291666666 12.155038759689925  C 16.311414930555557 12.552971576227389  16.73871527777778 12.79263565891473  16.786458333333336 12.874031007751938  C 16.805555555555557 12.91925064599483  16.815104166666664 12.987080103359173  16.815104166666664 13.077519379844963  C 16.815104166666664 13.375968992248062  16.733940972222225 13.719638242894055  16.571614583333336 14.108527131782946  C 16.418836805555557 14.46124031007752  16.07986111111111 14.757428940568476  15.5546875 14.997093023255813  C 15.029513888888891 15.23675710594315  14.542534722222223 15.356589147286822  14.09375 15.356589147286822  C 13.549479166666668 15.356589147286822  12.64236111111111 15.076227390180875  11.372395833333334 14.515503875968992  C 10.436631944444446 14.108527131782946  9.625 13.574935400516793  8.9375 12.914728682170544  C 8.25 12.25452196382429  7.543402777777779 11.417958656330747  6.817708333333333 10.405038759689923  C 6.130208333333333 9.437338501291988  5.79123263888889 8.560077519379846  5.80078125 7.773255813953488  L 5.80078125 7.664728682170542  C 5.829427083333334 6.841731266149869  6.1827256944444455 6.127260981912142  6.860677083333333 5.521317829457363  C 7.08984375 5.322351421188629  7.33810763888889 5.222868217054263  7.60546875 5.222868217054263  C 7.662760416666667 5.222868217054263  7.748697916666667 5.229651162790698  7.86328125 5.243217054263565  C 7.977864583333333 5.256782945736435  8.06857638888889 5.263565891472868  8.135416666666668 5.263565891472868  C 8.316840277777779 5.263565891472868  8.443359375 5.2929586563307485  8.514973958333332 5.351744186046512  C 8.586588541666668 5.410529715762273  8.660590277777779 5.5348837209302335  8.736979166666668 5.724806201550387  C 8.813368055555555 5.905684754521962  8.97092013888889 6.303617571059429  9.209635416666668 6.918604651162791  C 9.448350694444446 7.533591731266149  9.567708333333332 7.872739018087854  9.567708333333332 7.936046511627907  C 9.567708333333332 8.125968992248062  9.402994791666668 8.385981912144702  9.073567708333332 8.71608527131783  C 8.744140625 9.046188630490954  8.579427083333332 9.256459948320412  8.579427083333332 9.346899224806203  C 8.579427083333332 9.410206718346252  8.603298611111112 9.478036175710592  8.651041666666668 9.550387596899224  C 8.975694444444446 10.210594315245478  9.462673611111112 10.830103359173124  10.111979166666668 11.40891472868217  C 10.64670138888889 11.888242894056848  11.36762152777778 12.344961240310077  12.274739583333334 12.77906976744186  C 12.389322916666666 12.84237726098191  12.49435763888889 12.874031007751938  12.58984375 12.874031007751938  C 12.733072916666668 12.874031007751938  12.990885416666668 12.6547157622739  13.36328125 12.21608527131783  Z M 6.259114583333333 17.337209302325583  C 7.76779513888889 18.27777777777778  9.414930555555554 18.748062015503876  11.200520833333334 18.748062015503876  C 12.413194444444446 18.748062015503876  13.575737847222225 18.521963824289404  14.688151041666666 18.069767441860463  C 15.80056423611111 17.617571059431526  16.7578125 17.011627906976745  17.559895833333336 16.251937984496124  C 18.361979166666664 15.492248062015504  19.00173611111111 14.585594315245476  19.479166666666664 13.531976744186046  C 19.956597222222225 12.478359173126613  20.1953125 11.377260981912142  20.1953125 10.228682170542637  C 20.1953125 9.080103359173126  19.956597222222225 7.979005167958655  19.479166666666664 6.925387596899224  C 19.00173611111111 5.871770025839792  18.361979166666664 4.9651162790697665  17.559895833333336 4.205426356589147  C 16.7578125 3.445736434108527  15.80056423611111 2.8397932816537454  14.688151041666666 2.3875968992248064  C 13.575737847222225 1.935400516795863  12.413194444444446 1.7093023255813962  11.200520833333334 1.7093023255813962  C 9.987847222222223 1.7093023255813962  8.825303819444446 1.935400516795863  7.712890625 2.3875968992248064  C 6.600477430555555 2.8397932816537454  5.643229166666667 3.445736434108527  4.841145833333334 4.205426356589147  C 4.0390625 4.9651162790697665  3.399305555555556 5.871770025839792  2.921875 6.925387596899224  C 2.4444444444444446 7.979005167958655  2.205729166666667 9.080103359173126  2.205729166666667 10.228682170542637  C 2.205729166666667 12.064599483204134  2.7786458333333335 13.728682170542635  3.9244791666666665 15.220930232558139  L 2.79296875 18.381782945736436  L 6.259114583333333 17.337209302325583  Z M 7.011067708333333 0.8139534883720921  C 8.343098958333332 0.27131782945736327  9.739583333333332 0  11.200520833333334 0  C 12.661458333333334 0  14.057942708333334 0.27131782945736327  15.389973958333334 0.8139534883720921  C 16.722005208333336 1.356589147286821  17.870225694444446 2.0846253229974145  18.834635416666664 2.998062015503875  C 19.799045138888893 3.9114987080103356  20.567708333333336 4.999031007751939  21.140625 6.260658914728683  C 21.713541666666664 7.522286821705425  22 8.844961240310075  22 10.228682170542637  C 22 11.612403100775193  21.713541666666664 12.935077519379846  21.140625 14.196705426356587  C 20.567708333333336 15.458333333333334  19.799045138888893 16.545865633074932  18.834635416666664 17.459302325581397  C 17.870225694444446 18.372739018087856  16.722005208333336 19.10077519379845  15.389973958333334 19.643410852713178  C 14.057942708333334 20.186046511627907  12.661458333333334 20.45736434108527  11.200520833333334 20.45736434108527  C 9.338541666666668 20.45736434108527  7.59592013888889 20.032299741602067  5.97265625 19.18217054263566  L 0 21  L 1.9479166666666667 15.50581395348837  C 0.9166666666666666 13.895994832041344  0.4010416666666667 12.136950904392766  0.4010416666666667 10.228682170542637  C 0.4010416666666667 8.844961240310075  0.6875 7.522286821705425  1.2604166666666665 6.260658914728683  C 1.8333333333333333 4.999031007751939  2.601996527777778 3.9114987080103356  3.56640625 2.998062015503875  C 4.530815972222223 2.0846253229974145  5.679036458333333 1.356589147286821  7.011067708333333 0.8139534883720921  Z " fill-rule="nonzero" fill="rgba(127, 127, 127, 1)" stroke="none" transform="matrix(1 0 0 1 3046 561 )" class="fill" />
    <path d="M 13.36328125 12.21608527131783  C 13.735677083333334 11.777454780361758  13.983940972222225 11.55813953488372  14.108072916666666 11.55813953488372  C 14.23220486111111 11.55813953488372  14.69769965277778 11.757105943152455  15.504557291666666 12.155038759689925  C 16.311414930555557 12.552971576227389  16.73871527777778 12.79263565891473  16.786458333333336 12.874031007751938  C 16.805555555555557 12.91925064599483  16.815104166666664 12.987080103359173  16.815104166666664 13.077519379844963  C 16.815104166666664 13.375968992248062  16.733940972222225 13.719638242894055  16.571614583333336 14.108527131782946  C 16.418836805555557 14.46124031007752  16.07986111111111 14.757428940568476  15.5546875 14.997093023255813  C 15.029513888888891 15.23675710594315  14.542534722222223 15.356589147286822  14.09375 15.356589147286822  C 13.549479166666668 15.356589147286822  12.64236111111111 15.076227390180875  11.372395833333334 14.515503875968992  C 10.436631944444446 14.108527131782946  9.625 13.574935400516793  8.9375 12.914728682170544  C 8.25 12.25452196382429  7.543402777777779 11.417958656330747  6.817708333333333 10.405038759689923  C 6.130208333333333 9.437338501291988  5.79123263888889 8.560077519379846  5.80078125 7.773255813953488  L 5.80078125 7.664728682170542  C 5.829427083333334 6.841731266149869  6.1827256944444455 6.127260981912142  6.860677083333333 5.521317829457363  C 7.08984375 5.322351421188629  7.33810763888889 5.222868217054263  7.60546875 5.222868217054263  C 7.662760416666667 5.222868217054263  7.748697916666667 5.229651162790698  7.86328125 5.243217054263565  C 7.977864583333333 5.256782945736435  8.06857638888889 5.263565891472868  8.135416666666668 5.263565891472868  C 8.316840277777779 5.263565891472868  8.443359375 5.2929586563307485  8.514973958333332 5.351744186046512  C 8.586588541666668 5.410529715762273  8.660590277777779 5.5348837209302335  8.736979166666668 5.724806201550387  C 8.813368055555555 5.905684754521962  8.97092013888889 6.303617571059429  9.209635416666668 6.918604651162791  C 9.448350694444446 7.533591731266149  9.567708333333332 7.872739018087854  9.567708333333332 7.936046511627907  C 9.567708333333332 8.125968992248062  9.402994791666668 8.385981912144702  9.073567708333332 8.71608527131783  C 8.744140625 9.046188630490954  8.579427083333332 9.256459948320412  8.579427083333332 9.346899224806203  C 8.579427083333332 9.410206718346252  8.603298611111112 9.478036175710592  8.651041666666668 9.550387596899224  C 8.975694444444446 10.210594315245478  9.462673611111112 10.830103359173124  10.111979166666668 11.40891472868217  C 10.64670138888889 11.888242894056848  11.36762152777778 12.344961240310077  12.274739583333334 12.77906976744186  C 12.389322916666666 12.84237726098191  12.49435763888889 12.874031007751938  12.58984375 12.874031007751938  C 12.733072916666668 12.874031007751938  12.990885416666668 12.6547157622739  13.36328125 12.21608527131783  Z " stroke-width="0" stroke-dasharray="0" stroke="rgba(255, 255, 255, 0)" fill="none" transform="matrix(1 0 0 1 3046 561 )" class="stroke" mask="url(#Clip392)" />
    <path d="M 6.259114583333333 17.337209302325583  C 7.76779513888889 18.27777777777778  9.414930555555554 18.748062015503876  11.200520833333334 18.748062015503876  C 12.413194444444446 18.748062015503876  13.575737847222225 18.521963824289404  14.688151041666666 18.069767441860463  C 15.80056423611111 17.617571059431526  16.7578125 17.011627906976745  17.559895833333336 16.251937984496124  C 18.361979166666664 15.492248062015504  19.00173611111111 14.585594315245476  19.479166666666664 13.531976744186046  C 19.956597222222225 12.478359173126613  20.1953125 11.377260981912142  20.1953125 10.228682170542637  C 20.1953125 9.080103359173126  19.956597222222225 7.979005167958655  19.479166666666664 6.925387596899224  C 19.00173611111111 5.871770025839792  18.361979166666664 4.9651162790697665  17.559895833333336 4.205426356589147  C 16.7578125 3.445736434108527  15.80056423611111 2.8397932816537454  14.688151041666666 2.3875968992248064  C 13.575737847222225 1.935400516795863  12.413194444444446 1.7093023255813962  11.200520833333334 1.7093023255813962  C 9.987847222222223 1.7093023255813962  8.825303819444446 1.935400516795863  7.712890625 2.3875968992248064  C 6.600477430555555 2.8397932816537454  5.643229166666667 3.445736434108527  4.841145833333334 4.205426356589147  C 4.0390625 4.9651162790697665  3.399305555555556 5.871770025839792  2.921875 6.925387596899224  C 2.4444444444444446 7.979005167958655  2.205729166666667 9.080103359173126  2.205729166666667 10.228682170542637  C 2.205729166666667 12.064599483204134  2.7786458333333335 13.728682170542635  3.9244791666666665 15.220930232558139  L 2.79296875 18.381782945736436  L 6.259114583333333 17.337209302325583  Z " stroke-width="0" stroke-dasharray="0" stroke="rgba(255, 255, 255, 0)" fill="none" transform="matrix(1 0 0 1 3046 561 )" class="stroke" mask="url(#Clip392)" />
    <path d="M 7.011067708333333 0.8139534883720921  C 8.343098958333332 0.27131782945736327  9.739583333333332 0  11.200520833333334 0  C 12.661458333333334 0  14.057942708333334 0.27131782945736327  15.389973958333334 0.8139534883720921  C 16.722005208333336 1.356589147286821  17.870225694444446 2.0846253229974145  18.834635416666664 2.998062015503875  C 19.799045138888893 3.9114987080103356  20.567708333333336 4.999031007751939  21.140625 6.260658914728683  C 21.713541666666664 7.522286821705425  22 8.844961240310075  22 10.228682170542637  C 22 11.612403100775193  21.713541666666664 12.935077519379846  21.140625 14.196705426356587  C 20.567708333333336 15.458333333333334  19.799045138888893 16.545865633074932  18.834635416666664 17.459302325581397  C 17.870225694444446 18.372739018087856  16.722005208333336 19.10077519379845  15.389973958333334 19.643410852713178  C 14.057942708333334 20.186046511627907  12.661458333333334 20.45736434108527  11.200520833333334 20.45736434108527  C 9.338541666666668 20.45736434108527  7.59592013888889 20.032299741602067  5.97265625 19.18217054263566  L 0 21  L 1.9479166666666667 15.50581395348837  C 0.9166666666666666 13.895994832041344  0.4010416666666667 12.136950904392766  0.4010416666666667 10.228682170542637  C 0.4010416666666667 8.844961240310075  0.6875 7.522286821705425  1.2604166666666665 6.260658914728683  C 1.8333333333333333 4.999031007751939  2.601996527777778 3.9114987080103356  3.56640625 2.998062015503875  C 4.530815972222223 2.0846253229974145  5.679036458333333 1.356589147286821  7.011067708333333 0.8139534883720921  Z " stroke-width="0" stroke-dasharray="0" stroke="rgba(255, 255, 255, 0)" fill="none" transform="matrix(1 0 0 1 3046 561 )" class="stroke" mask="url(#Clip392)" />
  </g>
</svg>