<?xml version="1.0" encoding="utf-8"?>
<svg version="1.1" xmlns:xlink="http://www.w3.org/1999/xlink" width="20px" height="20px" xmlns="http://www.w3.org/2000/svg">
  <defs>
    <pattern id="BGPattern" patternUnits="userSpaceOnUse" alignment="0 0" imageRepeat="None" />
    <mask fill="white" id="Clip396">
      <path d="M 3.0859375 7.708333333333332  L 3.0859375 16.744791666666668  L 6.09375 16.744791666666668  L 6.09375 7.708333333333332  L 3.0859375 7.708333333333332  Z M 5.8203125 6.03515625  C 6.132812500000001 5.735677083333332  6.289062500000001 5.364583333333332  6.2890625 4.921875  C 6.2803819444444455 4.470486111111109  6.1241319444444455 4.097222222222221  5.8203125 3.8020833333333326  C 5.516493055555555 3.506944444444444  5.112847222222222 3.359375  4.609375 3.359375  C 4.105902777777779 3.359375  3.6957465277777786 3.506944444444444  3.37890625 3.8020833333333326  C 3.0620659722222228 4.097222222222221  2.903645833333333 4.470486111111109  2.903645833333333 4.921875  C 2.903645833333333 5.364583333333332  3.0577256944444446 5.735677083333332  3.365885416666667 6.03515625  C 3.674045138888889 6.334635416666668  4.075520833333333 6.484375  4.5703125 6.484375  L 4.583333333333333 6.484375  C 5.095486111111112 6.484375  5.507812500000001 6.334635416666668  5.8203125 6.03515625  Z M 13.90625 11.9140625  L 13.90625 16.744791666666668  L 16.9140625 16.744791666666668  L 16.9140625 11.5625  C 16.9140625 10.225694444444443  16.59722222222222 9.214409722222221  15.963541666666668 8.528645833333332  C 15.329861111111114 7.842881944444445  14.4921875 7.5  13.450520833333332 7.5  C 12.269965277777779 7.5  11.362847222222223 8.0078125  10.729166666666668 9.0234375  L 10.755208333333332 9.0234375  L 10.755208333333332 7.708333333333332  L 7.747395833333334 7.708333333333332  C 7.7734375 8.28125  7.7734375 11.293402777777777  7.747395833333334 16.744791666666668  L 10.755208333333332 16.744791666666668  L 10.755208333333332 11.692708333333336  C 10.755208333333332 11.362847222222223  10.785590277777779 11.119791666666664  10.846354166666668 10.963541666666664  C 10.9765625 10.659722222222223  11.171875 10.401475694444443  11.432291666666668 10.188802083333336  C 11.692708333333332 9.976128472222221  12.013888888888891 9.869791666666668  12.395833333333332 9.869791666666668  C 13.402777777777779 9.869791666666668  13.90625 10.551215277777777  13.90625 11.9140625  Z M 18.899739583333332 1.1002604166666674  C 19.63324652777778 1.8337673611111094  20 2.717013888888886  20 3.75  L 20 16.25  C 20 17.28298611111111  19.63324652777778 18.16623263888889  18.899739583333332 18.899739583333332  C 18.16623263888889 19.63324652777778  17.282986111111114 20  16.25 20  L 3.75 20  C 2.717013888888889 20  1.8337673611111114 19.63324652777778  1.1002604166666667 18.899739583333332  C 0.36675347222222215 18.16623263888889  0 17.28298611111111  0 16.25  L 0 3.75  C 0 2.717013888888886  0.36675347222222215 1.8337673611111094  1.1002604166666667 1.1002604166666674  C 1.8337673611111114 0.366753472222221  2.717013888888889 0  3.75 0  L 16.25 0  C 17.282986111111114 0  18.16623263888889 0.366753472222221  18.899739583333332 1.1002604166666674  Z " fill-rule="evenodd" />
    </mask>
  </defs>
  <g transform="matrix(1 0 0 1 -3007 -520 )">
    <path d="M 3.0859375 7.708333333333332  L 3.0859375 16.744791666666668  L 6.09375 16.744791666666668  L 6.09375 7.708333333333332  L 3.0859375 7.708333333333332  Z M 5.8203125 6.03515625  C 6.132812500000001 5.735677083333332  6.289062500000001 5.364583333333332  6.2890625 4.921875  C 6.2803819444444455 4.470486111111109  6.1241319444444455 4.097222222222221  5.8203125 3.8020833333333326  C 5.516493055555555 3.506944444444444  5.112847222222222 3.359375  4.609375 3.359375  C 4.105902777777779 3.359375  3.6957465277777786 3.506944444444444  3.37890625 3.8020833333333326  C 3.0620659722222228 4.097222222222221  2.903645833333333 4.470486111111109  2.903645833333333 4.921875  C 2.903645833333333 5.364583333333332  3.0577256944444446 5.735677083333332  3.365885416666667 6.03515625  C 3.674045138888889 6.334635416666668  4.075520833333333 6.484375  4.5703125 6.484375  L 4.583333333333333 6.484375  C 5.095486111111112 6.484375  5.507812500000001 6.334635416666668  5.8203125 6.03515625  Z M 13.90625 11.9140625  L 13.90625 16.744791666666668  L 16.9140625 16.744791666666668  L 16.9140625 11.5625  C 16.9140625 10.225694444444443  16.59722222222222 9.214409722222221  15.963541666666668 8.528645833333332  C 15.329861111111114 7.842881944444445  14.4921875 7.5  13.450520833333332 7.5  C 12.269965277777779 7.5  11.362847222222223 8.0078125  10.729166666666668 9.0234375  L 10.755208333333332 9.0234375  L 10.755208333333332 7.708333333333332  L 7.747395833333334 7.708333333333332  C 7.7734375 8.28125  7.7734375 11.293402777777777  7.747395833333334 16.744791666666668  L 10.755208333333332 16.744791666666668  L 10.755208333333332 11.692708333333336  C 10.755208333333332 11.362847222222223  10.785590277777779 11.119791666666664  10.846354166666668 10.963541666666664  C 10.9765625 10.659722222222223  11.171875 10.401475694444443  11.432291666666668 10.188802083333336  C 11.692708333333332 9.976128472222221  12.013888888888891 9.869791666666668  12.395833333333332 9.869791666666668  C 13.402777777777779 9.869791666666668  13.90625 10.551215277777777  13.90625 11.9140625  Z M 18.899739583333332 1.1002604166666674  C 19.63324652777778 1.8337673611111094  20 2.717013888888886  20 3.75  L 20 16.25  C 20 17.28298611111111  19.63324652777778 18.16623263888889  18.899739583333332 18.899739583333332  C 18.16623263888889 19.63324652777778  17.282986111111114 20  16.25 20  L 3.75 20  C 2.717013888888889 20  1.8337673611111114 19.63324652777778  1.1002604166666667 18.899739583333332  C 0.36675347222222215 18.16623263888889  0 17.28298611111111  0 16.25  L 0 3.75  C 0 2.717013888888886  0.36675347222222215 1.8337673611111094  1.1002604166666667 1.1002604166666674  C 1.8337673611111114 0.366753472222221  2.717013888888889 0  3.75 0  L 16.25 0  C 17.282986111111114 0  18.16623263888889 0.366753472222221  18.899739583333332 1.1002604166666674  Z " fill-rule="nonzero" fill="rgba(127, 127, 127, 1)" stroke="none" transform="matrix(1 0 0 1 3007 520 )" class="fill" />
    <path d="M 3.0859375 7.708333333333332  L 3.0859375 16.744791666666668  L 6.09375 16.744791666666668  L 6.09375 7.708333333333332  L 3.0859375 7.708333333333332  Z " stroke-width="0" stroke-dasharray="0" stroke="rgba(255, 255, 255, 0)" fill="none" transform="matrix(1 0 0 1 3007 520 )" class="stroke" mask="url(#Clip396)" />
    <path d="M 5.8203125 6.03515625  C 6.132812500000001 5.735677083333332  6.289062500000001 5.364583333333332  6.2890625 4.921875  C 6.2803819444444455 4.470486111111109  6.1241319444444455 4.097222222222221  5.8203125 3.8020833333333326  C 5.516493055555555 3.506944444444444  5.112847222222222 3.359375  4.609375 3.359375  C 4.105902777777779 3.359375  3.6957465277777786 3.506944444444444  3.37890625 3.8020833333333326  C 3.0620659722222228 4.097222222222221  2.903645833333333 4.470486111111109  2.903645833333333 4.921875  C 2.903645833333333 5.364583333333332  3.0577256944444446 5.735677083333332  3.365885416666667 6.03515625  C 3.674045138888889 6.334635416666668  4.075520833333333 6.484375  4.5703125 6.484375  L 4.583333333333333 6.484375  C 5.095486111111112 6.484375  5.507812500000001 6.334635416666668  5.8203125 6.03515625  Z " stroke-width="0" stroke-dasharray="0" stroke="rgba(255, 255, 255, 0)" fill="none" transform="matrix(1 0 0 1 3007 520 )" class="stroke" mask="url(#Clip396)" />
    <path d="M 13.90625 11.9140625  L 13.90625 16.744791666666668  L 16.9140625 16.744791666666668  L 16.9140625 11.5625  C 16.9140625 10.225694444444443  16.59722222222222 9.214409722222221  15.963541666666668 8.528645833333332  C 15.329861111111114 7.842881944444445  14.4921875 7.5  13.450520833333332 7.5  C 12.269965277777779 7.5  11.362847222222223 8.0078125  10.729166666666668 9.0234375  L 10.755208333333332 9.0234375  L 10.755208333333332 7.708333333333332  L 7.747395833333334 7.708333333333332  C 7.7734375 8.28125  7.7734375 11.293402777777777  7.747395833333334 16.744791666666668  L 10.755208333333332 16.744791666666668  L 10.755208333333332 11.692708333333336  C 10.755208333333332 11.362847222222223  10.785590277777779 11.119791666666664  10.846354166666668 10.963541666666664  C 10.9765625 10.659722222222223  11.171875 10.401475694444443  11.432291666666668 10.188802083333336  C 11.692708333333332 9.976128472222221  12.013888888888891 9.869791666666668  12.395833333333332 9.869791666666668  C 13.402777777777779 9.869791666666668  13.90625 10.551215277777777  13.90625 11.9140625  Z " stroke-width="0" stroke-dasharray="0" stroke="rgba(255, 255, 255, 0)" fill="none" transform="matrix(1 0 0 1 3007 520 )" class="stroke" mask="url(#Clip396)" />
    <path d="M 18.899739583333332 1.1002604166666674  C 19.63324652777778 1.8337673611111094  20 2.717013888888886  20 3.75  L 20 16.25  C 20 17.28298611111111  19.63324652777778 18.16623263888889  18.899739583333332 18.899739583333332  C 18.16623263888889 19.63324652777778  17.282986111111114 20  16.25 20  L 3.75 20  C 2.717013888888889 20  1.8337673611111114 19.63324652777778  1.1002604166666667 18.899739583333332  C 0.36675347222222215 18.16623263888889  0 17.28298611111111  0 16.25  L 0 3.75  C 0 2.717013888888886  0.36675347222222215 1.8337673611111094  1.1002604166666667 1.1002604166666674  C 1.8337673611111114 0.366753472222221  2.717013888888889 0  3.75 0  L 16.25 0  C 17.282986111111114 0  18.16623263888889 0.366753472222221  18.899739583333332 1.1002604166666674  Z " stroke-width="0" stroke-dasharray="0" stroke="rgba(255, 255, 255, 0)" fill="none" transform="matrix(1 0 0 1 3007 520 )" class="stroke" mask="url(#Clip396)" />
  </g>
</svg>