<?xml version="1.0" encoding="utf-8"?>
<svg version="1.1" xmlns:xlink="http://www.w3.org/1999/xlink" width="24px" height="20px" xmlns="http://www.w3.org/2000/svg">
  <defs>
    <pattern id="BGPattern" patternUnits="userSpaceOnUse" alignment="0 0" imageRepeat="None" />
    <mask fill="white" id="Clip393">
      <path d="M 9.525083612040135 5.698412698412698  L 9.525083612040135 13.682539682539684  L 16 9.714285714285715  L 9.525083612040135 5.698412698412698  Z M 3.6120401337792645 0.2857142857142847  C 5.850613154960982 0.0952380952380949  8.646599777034558 0  12 0  C 13.498327759197323 0  14.945373467112598 0.023809523809523725  16.34113712374582 0.07142857142857117  C 17.736900780379045 0.11904761904761862  18.7603121516165 0.16931216931216797  19.411371237458194 0.22222222222222143  L 20.387959866220736 0.2857142857142847  C 20.396878483835007 0.2857142857142847  20.4726867335563 0.2936507936507926  20.615384615384613 0.3095238095238084  C 20.758082497212932 0.32539682539682646  20.860646599777038 0.3412698412698423  20.923076923076923 0.3571428571428581  C 20.985507246376812 0.3730158730158739  21.090301003344482 0.39682539682539764  21.237458193979933 0.42857142857142927  C 21.384615384615387 0.4603174603174609  21.51170568561873 0.5026455026455001  21.618729096989966 0.5555555555555558  C 21.725752508361204 0.608465608465607  21.850613154960982 0.6772486772486741  21.993311036789297 0.7619047619047614  C 22.13600891861762 0.8465608465608443  22.2742474916388 0.9497354497354493  22.40802675585284 1.071428571428572  C 22.541806020066893 1.1931216931216904  22.671125975473807 1.333333333333333  22.795986622073578 1.4920634920634912  C 22.849498327759196 1.5555555555555545  22.91861761426979 1.6534391534391513  23.003344481605353 1.785714285714286  C 23.088071348940918 1.9179894179894164  23.217391304347828 2.227513227513227  23.391304347826086 2.7142857142857135  C 23.56521739130435 3.201058201058198  23.683389074693423 3.735449735449734  23.74581939799331 4.317460317460318  C 23.81716833890747 4.9947089947089935  23.872909698996658 5.716931216931216  23.913043478260867 6.484126984126983  C 23.953177257525084 7.251322751322751  23.977703455964328 7.851851851851849  23.986622073578594 8.285714285714285  L 23.986622073578594 8.920634920634921  L 23.986622073578594 11.079365079365079  C 23.995540691192865 12.61375661375661  23.91527313266444 14.148148148148147  23.74581939799331 15.682539682539682  C 23.683389074693423 16.264550264550266  23.571906354515054 16.79100529100529  23.411371237458194 17.261904761904763  C 23.250836120401342 17.732804232804234  23.108138238573023 18.05820105820106  22.983277591973245 18.238095238095237  L 22.795986622073578 18.50793650793651  C 22.671125975473807 18.666666666666668  22.541806020066893 18.806878306878303  22.40802675585284 18.928571428571427  C 22.2742474916388 19.05026455026455  22.13600891861762 19.150793650793652  21.993311036789297 19.23015873015873  C 21.850613154960982 19.30952380952381  21.725752508361204 19.375661375661377  21.618729096989966 19.428571428571427  C 21.51170568561873 19.48148148148148  21.384615384615387 19.523809523809522  21.237458193979933 19.555555555555554  C 21.090301003344482 19.587301587301585  20.98327759197324 19.61111111111111  20.91638795986622 19.626984126984127  C 20.8494983277592 19.642857142857142  20.746934225195098 19.658730158730158  20.608695652173914 19.674603174603174  C 20.47045707915273 19.69047619047619  20.396878483835007 19.6984126984127  20.387959866220736 19.6984126984127  C 18.149386845039018 19.899470899470902  15.35340022296544 20  12 20  C 10.153846153846153 19.97883597883598  8.55072463768116 19.944444444444443  7.190635451505017 19.8968253968254  C 5.8305462653288735 19.849206349206348  4.936454849498328 19.80952380952381  4.508361204013378 19.77777777777778  L 3.8528428093645486 19.714285714285715  L 3.3712374581939795 19.65079365079365  C 3.0501672240802673 19.597883597883598  2.807134894091416 19.544973544973544  2.6421404682274248 19.49206349206349  C 2.477146042363434 19.43915343915344  2.2497212931995545 19.32804232804233  1.959866220735786 19.158730158730158  C 1.670011148272018 18.989417989417987  1.4180602006688963 18.772486772486772  1.2040133779264215 18.50793650793651  C 1.1505016722408028 18.444444444444446  1.0813823857302118 18.34656084656085  0.9966555183946488 18.214285714285715  C 0.9119286510590858 18.082010582010582  0.7826086956521738 17.772486772486772  0.6086956521739131 17.285714285714285  C 0.4347826086956522 16.798941798941797  0.3166109253065775 16.264550264550266  0.25418060200668896 15.682539682539682  C 0.18283166109253068 15.005291005291003  0.1270903010033445 14.283068783068781  0.08695652173913043 13.515873015873016  C 0.04682274247491639 12.748677248677245  0.022296544035674472 12.148148148148149  0.013377926421404682 11.714285714285712  L 0.013377926421404682 11.079365079365079  L 0.013377926421404682 8.920634920634921  C 0.004459308807134893 7.386243386243385  0.08472686733556298 5.85185185185185  0.25418060200668896 4.317460317460318  C 0.3166109253065775 3.735449735449734  0.4280936454849498 3.2089947089947057  0.588628762541806 2.7380952380952372  C 0.7491638795986623 2.2671957671957665  0.8918617614269788 1.94179894179894  1.0167224080267558 1.7619047619047623  L 1.2040133779264215 1.4920634920634912  C 1.3288740245261987 1.333333333333333  1.4581939799331103 1.1931216931216904  1.5919732441471572 1.071428571428572  C 1.7257525083612038 0.9497354497354493  1.8639910813823857 0.8465608465608443  2.0066889632107023 0.7619047619047614  C 2.149386845039019 0.6772486772486741  2.274247491638796 0.608465608465607  2.3812709030100336 0.5555555555555558  C 2.488294314381271 0.5026455026455001  2.6153846153846154 0.4603174603174609  2.762541806020067 0.42857142857142927  C 2.9096989966555187 0.39682539682539764  3.0144927536231894 0.3730158730158739  3.0769230769230766 0.3571428571428581  C 3.1393534002229657 0.3412698412698423  3.2419175027870684 0.32539682539682646  3.3846153846153846 0.3095238095238084  C 3.5273132664437012 0.2936507936507926  3.603121516164995 0.2857142857142847  3.6120401337792645 0.2857142857142847  Z " fill-rule="evenodd" />
    </mask>
  </defs>
  <g transform="matrix(1 0 0 1 -3006 -562 )">
    <path d="M 9.525083612040135 5.698412698412698  L 9.525083612040135 13.682539682539684  L 16 9.714285714285715  L 9.525083612040135 5.698412698412698  Z M 3.6120401337792645 0.2857142857142847  C 5.850613154960982 0.0952380952380949  8.646599777034558 0  12 0  C 13.498327759197323 0  14.945373467112598 0.023809523809523725  16.34113712374582 0.07142857142857117  C 17.736900780379045 0.11904761904761862  18.7603121516165 0.16931216931216797  19.411371237458194 0.22222222222222143  L 20.387959866220736 0.2857142857142847  C 20.396878483835007 0.2857142857142847  20.4726867335563 0.2936507936507926  20.615384615384613 0.3095238095238084  C 20.758082497212932 0.32539682539682646  20.860646599777038 0.3412698412698423  20.923076923076923 0.3571428571428581  C 20.985507246376812 0.3730158730158739  21.090301003344482 0.39682539682539764  21.237458193979933 0.42857142857142927  C 21.384615384615387 0.4603174603174609  21.51170568561873 0.5026455026455001  21.618729096989966 0.5555555555555558  C 21.725752508361204 0.608465608465607  21.850613154960982 0.6772486772486741  21.993311036789297 0.7619047619047614  C 22.13600891861762 0.8465608465608443  22.2742474916388 0.9497354497354493  22.40802675585284 1.071428571428572  C 22.541806020066893 1.1931216931216904  22.671125975473807 1.333333333333333  22.795986622073578 1.4920634920634912  C 22.849498327759196 1.5555555555555545  22.91861761426979 1.6534391534391513  23.003344481605353 1.785714285714286  C 23.088071348940918 1.9179894179894164  23.217391304347828 2.227513227513227  23.391304347826086 2.7142857142857135  C 23.56521739130435 3.201058201058198  23.683389074693423 3.735449735449734  23.74581939799331 4.317460317460318  C 23.81716833890747 4.9947089947089935  23.872909698996658 5.716931216931216  23.913043478260867 6.484126984126983  C 23.953177257525084 7.251322751322751  23.977703455964328 7.851851851851849  23.986622073578594 8.285714285714285  L 23.986622073578594 8.920634920634921  L 23.986622073578594 11.079365079365079  C 23.995540691192865 12.61375661375661  23.91527313266444 14.148148148148147  23.74581939799331 15.682539682539682  C 23.683389074693423 16.264550264550266  23.571906354515054 16.79100529100529  23.411371237458194 17.261904761904763  C 23.250836120401342 17.732804232804234  23.108138238573023 18.05820105820106  22.983277591973245 18.238095238095237  L 22.795986622073578 18.50793650793651  C 22.671125975473807 18.666666666666668  22.541806020066893 18.806878306878303  22.40802675585284 18.928571428571427  C 22.2742474916388 19.05026455026455  22.13600891861762 19.150793650793652  21.993311036789297 19.23015873015873  C 21.850613154960982 19.30952380952381  21.725752508361204 19.375661375661377  21.618729096989966 19.428571428571427  C 21.51170568561873 19.48148148148148  21.384615384615387 19.523809523809522  21.237458193979933 19.555555555555554  C 21.090301003344482 19.587301587301585  20.98327759197324 19.61111111111111  20.91638795986622 19.626984126984127  C 20.8494983277592 19.642857142857142  20.746934225195098 19.658730158730158  20.608695652173914 19.674603174603174  C 20.47045707915273 19.69047619047619  20.396878483835007 19.6984126984127  20.387959866220736 19.6984126984127  C 18.149386845039018 19.899470899470902  15.35340022296544 20  12 20  C 10.153846153846153 19.97883597883598  8.55072463768116 19.944444444444443  7.190635451505017 19.8968253968254  C 5.8305462653288735 19.849206349206348  4.936454849498328 19.80952380952381  4.508361204013378 19.77777777777778  L 3.8528428093645486 19.714285714285715  L 3.3712374581939795 19.65079365079365  C 3.0501672240802673 19.597883597883598  2.807134894091416 19.544973544973544  2.6421404682274248 19.49206349206349  C 2.477146042363434 19.43915343915344  2.2497212931995545 19.32804232804233  1.959866220735786 19.158730158730158  C 1.670011148272018 18.989417989417987  1.4180602006688963 18.772486772486772  1.2040133779264215 18.50793650793651  C 1.1505016722408028 18.444444444444446  1.0813823857302118 18.34656084656085  0.9966555183946488 18.214285714285715  C 0.9119286510590858 18.082010582010582  0.7826086956521738 17.772486772486772  0.6086956521739131 17.285714285714285  C 0.4347826086956522 16.798941798941797  0.3166109253065775 16.264550264550266  0.25418060200668896 15.682539682539682  C 0.18283166109253068 15.005291005291003  0.1270903010033445 14.283068783068781  0.08695652173913043 13.515873015873016  C 0.04682274247491639 12.748677248677245  0.022296544035674472 12.148148148148149  0.013377926421404682 11.714285714285712  L 0.013377926421404682 11.079365079365079  L 0.013377926421404682 8.920634920634921  C 0.004459308807134893 7.386243386243385  0.08472686733556298 5.85185185185185  0.25418060200668896 4.317460317460318  C 0.3166109253065775 3.735449735449734  0.4280936454849498 3.2089947089947057  0.588628762541806 2.7380952380952372  C 0.7491638795986623 2.2671957671957665  0.8918617614269788 1.94179894179894  1.0167224080267558 1.7619047619047623  L 1.2040133779264215 1.4920634920634912  C 1.3288740245261987 1.333333333333333  1.4581939799331103 1.1931216931216904  1.5919732441471572 1.071428571428572  C 1.7257525083612038 0.9497354497354493  1.8639910813823857 0.8465608465608443  2.0066889632107023 0.7619047619047614  C 2.149386845039019 0.6772486772486741  2.274247491638796 0.608465608465607  2.3812709030100336 0.5555555555555558  C 2.488294314381271 0.5026455026455001  2.6153846153846154 0.4603174603174609  2.762541806020067 0.42857142857142927  C 2.9096989966555187 0.39682539682539764  3.0144927536231894 0.3730158730158739  3.0769230769230766 0.3571428571428581  C 3.1393534002229657 0.3412698412698423  3.2419175027870684 0.32539682539682646  3.3846153846153846 0.3095238095238084  C 3.5273132664437012 0.2936507936507926  3.603121516164995 0.2857142857142847  3.6120401337792645 0.2857142857142847  Z " fill-rule="nonzero" fill="rgba(127, 127, 127, 1)" stroke="none" transform="matrix(1 0 0 1 3006 562 )" class="fill" />
    <path d="M 9.525083612040135 5.698412698412698  L 9.525083612040135 13.682539682539684  L 16 9.714285714285715  L 9.525083612040135 5.698412698412698  Z " stroke-width="0" stroke-dasharray="0" stroke="rgba(255, 255, 255, 0)" fill="none" transform="matrix(1 0 0 1 3006 562 )" class="stroke" mask="url(#Clip393)" />
    <path d="M 3.6120401337792645 0.2857142857142847  C 5.850613154960982 0.0952380952380949  8.646599777034558 0  12 0  C 13.498327759197323 0  14.945373467112598 0.023809523809523725  16.34113712374582 0.07142857142857117  C 17.736900780379045 0.11904761904761862  18.7603121516165 0.16931216931216797  19.411371237458194 0.22222222222222143  L 20.387959866220736 0.2857142857142847  C 20.396878483835007 0.2857142857142847  20.4726867335563 0.2936507936507926  20.615384615384613 0.3095238095238084  C 20.758082497212932 0.32539682539682646  20.860646599777038 0.3412698412698423  20.923076923076923 0.3571428571428581  C 20.985507246376812 0.3730158730158739  21.090301003344482 0.39682539682539764  21.237458193979933 0.42857142857142927  C 21.384615384615387 0.4603174603174609  21.51170568561873 0.5026455026455001  21.618729096989966 0.5555555555555558  C 21.725752508361204 0.608465608465607  21.850613154960982 0.6772486772486741  21.993311036789297 0.7619047619047614  C 22.13600891861762 0.8465608465608443  22.2742474916388 0.9497354497354493  22.40802675585284 1.071428571428572  C 22.541806020066893 1.1931216931216904  22.671125975473807 1.333333333333333  22.795986622073578 1.4920634920634912  C 22.849498327759196 1.5555555555555545  22.91861761426979 1.6534391534391513  23.003344481605353 1.785714285714286  C 23.088071348940918 1.9179894179894164  23.217391304347828 2.227513227513227  23.391304347826086 2.7142857142857135  C 23.56521739130435 3.201058201058198  23.683389074693423 3.735449735449734  23.74581939799331 4.317460317460318  C 23.81716833890747 4.9947089947089935  23.872909698996658 5.716931216931216  23.913043478260867 6.484126984126983  C 23.953177257525084 7.251322751322751  23.977703455964328 7.851851851851849  23.986622073578594 8.285714285714285  L 23.986622073578594 8.920634920634921  L 23.986622073578594 11.079365079365079  C 23.995540691192865 12.61375661375661  23.91527313266444 14.148148148148147  23.74581939799331 15.682539682539682  C 23.683389074693423 16.264550264550266  23.571906354515054 16.79100529100529  23.411371237458194 17.261904761904763  C 23.250836120401342 17.732804232804234  23.108138238573023 18.05820105820106  22.983277591973245 18.238095238095237  L 22.795986622073578 18.50793650793651  C 22.671125975473807 18.666666666666668  22.541806020066893 18.806878306878303  22.40802675585284 18.928571428571427  C 22.2742474916388 19.05026455026455  22.13600891861762 19.150793650793652  21.993311036789297 19.23015873015873  C 21.850613154960982 19.30952380952381  21.725752508361204 19.375661375661377  21.618729096989966 19.428571428571427  C 21.51170568561873 19.48148148148148  21.384615384615387 19.523809523809522  21.237458193979933 19.555555555555554  C 21.090301003344482 19.587301587301585  20.98327759197324 19.61111111111111  20.91638795986622 19.626984126984127  C 20.8494983277592 19.642857142857142  20.746934225195098 19.658730158730158  20.608695652173914 19.674603174603174  C 20.47045707915273 19.69047619047619  20.396878483835007 19.6984126984127  20.387959866220736 19.6984126984127  C 18.149386845039018 19.899470899470902  15.35340022296544 20  12 20  C 10.153846153846153 19.97883597883598  8.55072463768116 19.944444444444443  7.190635451505017 19.8968253968254  C 5.8305462653288735 19.849206349206348  4.936454849498328 19.80952380952381  4.508361204013378 19.77777777777778  L 3.8528428093645486 19.714285714285715  L 3.3712374581939795 19.65079365079365  C 3.0501672240802673 19.597883597883598  2.807134894091416 19.544973544973544  2.6421404682274248 19.49206349206349  C 2.477146042363434 19.43915343915344  2.2497212931995545 19.32804232804233  1.959866220735786 19.158730158730158  C 1.670011148272018 18.989417989417987  1.4180602006688963 18.772486772486772  1.2040133779264215 18.50793650793651  C 1.1505016722408028 18.444444444444446  1.0813823857302118 18.34656084656085  0.9966555183946488 18.214285714285715  C 0.9119286510590858 18.082010582010582  0.7826086956521738 17.772486772486772  0.6086956521739131 17.285714285714285  C 0.4347826086956522 16.798941798941797  0.3166109253065775 16.264550264550266  0.25418060200668896 15.682539682539682  C 0.18283166109253068 15.005291005291003  0.1270903010033445 14.283068783068781  0.08695652173913043 13.515873015873016  C 0.04682274247491639 12.748677248677245  0.022296544035674472 12.148148148148149  0.013377926421404682 11.714285714285712  L 0.013377926421404682 11.079365079365079  L 0.013377926421404682 8.920634920634921  C 0.004459308807134893 7.386243386243385  0.08472686733556298 5.85185185185185  0.25418060200668896 4.317460317460318  C 0.3166109253065775 3.735449735449734  0.4280936454849498 3.2089947089947057  0.588628762541806 2.7380952380952372  C 0.7491638795986623 2.2671957671957665  0.8918617614269788 1.94179894179894  1.0167224080267558 1.7619047619047623  L 1.2040133779264215 1.4920634920634912  C 1.3288740245261987 1.333333333333333  1.4581939799331103 1.1931216931216904  1.5919732441471572 1.071428571428572  C 1.7257525083612038 0.9497354497354493  1.8639910813823857 0.8465608465608443  2.0066889632107023 0.7619047619047614  C 2.149386845039019 0.6772486772486741  2.274247491638796 0.608465608465607  2.3812709030100336 0.5555555555555558  C 2.488294314381271 0.5026455026455001  2.6153846153846154 0.4603174603174609  2.762541806020067 0.42857142857142927  C 2.9096989966555187 0.39682539682539764  3.0144927536231894 0.3730158730158739  3.0769230769230766 0.3571428571428581  C 3.1393534002229657 0.3412698412698423  3.2419175027870684 0.32539682539682646  3.3846153846153846 0.3095238095238084  C 3.5273132664437012 0.2936507936507926  3.603121516164995 0.2857142857142847  3.6120401337792645 0.2857142857142847  Z " stroke-width="0" stroke-dasharray="0" stroke="rgba(255, 255, 255, 0)" fill="none" transform="matrix(1 0 0 1 3006 562 )" class="stroke" mask="url(#Clip393)" />
  </g>
</svg>