<?xml version="1.0" encoding="utf-8"?>
<svg version="1.1" xmlns:xlink="http://www.w3.org/1999/xlink" width="23px" height="23px" xmlns="http://www.w3.org/2000/svg">
  <defs>
    <pattern id="BGPattern" patternUnits="userSpaceOnUse" alignment="0 0" imageRepeat="None" />
    <mask fill="white" id="Clip395">
      <path d="M 14.220982142857142 17.26283482142857  C 14.76860119047619 17.570870535714285  15.115141369047619 17.40829613095238  15.260602678571429 16.775111607142858  L 17.14732142857143 7.880580357142858  C 17.224330357142858 7.504092261904759  17.179408482142858 7.234561011904759  17.01255580357143 7.071986607142858  C 16.845703125 6.909412202380952  16.625372023809526 6.8794642857142865  16.3515625 6.982142857142858  L 5.262276785714286 11.256138392857142  C 5.014136904761905 11.350260416666664  4.845145089285714 11.457217261904761  4.755301339285714 11.577008928571429  C 4.665457589285714 11.696800595238093  4.654761904761905 11.810174851190478  4.723214285714286 11.917131696428571  C 4.791666666666667 12.024088541666664  4.928571428571428 12.107514880952381  5.133928571428572 12.167410714285715  L 7.970424107142857 13.053013392857142  L 14.5546875 8.907366071428571  C 14.734375 8.787574404761903  14.871279761904765 8.76190476190476  14.965401785714286 8.830357142857142  C 15.025297619047619 8.873139880952381  15.008184523809526 8.937313988095235  14.9140625 9.022879464285714  L 9.587611607142856 13.8359375  L 9.382254464285715 16.762276785714285  C 9.57905505952381 16.762276785714285  9.771577380952381 16.668154761904763  9.959821428571429 16.479910714285715  L 11.345982142857144 15.145089285714285  L 14.220982142857142 17.26283482142857  Z M 22.08872767857143 7.033482142857142  C 22.696242559523814 8.453869047619046  23 9.942708333333332  23 11.5  C 23 13.057291666666664  22.696242559523814 14.546130952380953  22.08872767857143 15.966517857142858  C 21.48121279761905 17.386904761904763  20.664062500000004 18.61049107142857  19.63727678571429 19.637276785714285  C 18.61049107142857 20.6640625  17.386904761904763 21.481212797619047  15.966517857142858 22.08872767857143  C 14.546130952380954 22.69624255952381  13.057291666666668 23  11.5 23  C 9.942708333333334 23  8.453869047619047 22.69624255952381  7.033482142857143 22.08872767857143  C 5.613095238095239 21.481212797619047  4.389508928571428 20.6640625  3.3627232142857144 19.637276785714285  C 2.3359375 18.61049107142857  1.5187872023809523 17.386904761904763  0.9112723214285714 15.966517857142858  C 0.3037574404761904 14.546130952380953  0 13.057291666666664  0 11.5  C 0 9.942708333333332  0.3037574404761904 8.453869047619046  0.9112723214285714 7.033482142857142  C 1.5187872023809523 5.613095238095236  2.3359375 4.389508928571429  3.3627232142857144 3.362723214285713  C 4.389508928571428 2.3359375  5.613095238095239 1.5187872023809517  7.033482142857143 0.9112723214285711  C 8.453869047619047 0.30375744047619035  9.942708333333334 0  11.5 0  C 13.057291666666668 0  14.546130952380954 0.30375744047619035  15.966517857142858 0.9112723214285711  C 17.386904761904763 1.5187872023809517  18.61049107142857 2.3359375  19.63727678571429 3.362723214285713  C 20.664062500000004 4.389508928571429  21.48121279761905 5.613095238095236  22.08872767857143 7.033482142857142  Z " fill-rule="evenodd" />
    </mask>
  </defs>
  <g transform="matrix(1 0 0 1 -2967 -561 )">
    <path d="M 14.220982142857142 17.26283482142857  C 14.76860119047619 17.570870535714285  15.115141369047619 17.40829613095238  15.260602678571429 16.775111607142858  L 17.14732142857143 7.880580357142858  C 17.224330357142858 7.504092261904759  17.179408482142858 7.234561011904759  17.01255580357143 7.071986607142858  C 16.845703125 6.909412202380952  16.625372023809526 6.8794642857142865  16.3515625 6.982142857142858  L 5.262276785714286 11.256138392857142  C 5.014136904761905 11.350260416666664  4.845145089285714 11.457217261904761  4.755301339285714 11.577008928571429  C 4.665457589285714 11.696800595238093  4.654761904761905 11.810174851190478  4.723214285714286 11.917131696428571  C 4.791666666666667 12.024088541666664  4.928571428571428 12.107514880952381  5.133928571428572 12.167410714285715  L 7.970424107142857 13.053013392857142  L 14.5546875 8.907366071428571  C 14.734375 8.787574404761903  14.871279761904765 8.76190476190476  14.965401785714286 8.830357142857142  C 15.025297619047619 8.873139880952381  15.008184523809526 8.937313988095235  14.9140625 9.022879464285714  L 9.587611607142856 13.8359375  L 9.382254464285715 16.762276785714285  C 9.57905505952381 16.762276785714285  9.771577380952381 16.668154761904763  9.959821428571429 16.479910714285715  L 11.345982142857144 15.145089285714285  L 14.220982142857142 17.26283482142857  Z M 22.08872767857143 7.033482142857142  C 22.696242559523814 8.453869047619046  23 9.942708333333332  23 11.5  C 23 13.057291666666664  22.696242559523814 14.546130952380953  22.08872767857143 15.966517857142858  C 21.48121279761905 17.386904761904763  20.664062500000004 18.61049107142857  19.63727678571429 19.637276785714285  C 18.61049107142857 20.6640625  17.386904761904763 21.481212797619047  15.966517857142858 22.08872767857143  C 14.546130952380954 22.69624255952381  13.057291666666668 23  11.5 23  C 9.942708333333334 23  8.453869047619047 22.69624255952381  7.033482142857143 22.08872767857143  C 5.613095238095239 21.481212797619047  4.389508928571428 20.6640625  3.3627232142857144 19.637276785714285  C 2.3359375 18.61049107142857  1.5187872023809523 17.386904761904763  0.9112723214285714 15.966517857142858  C 0.3037574404761904 14.546130952380953  0 13.057291666666664  0 11.5  C 0 9.942708333333332  0.3037574404761904 8.453869047619046  0.9112723214285714 7.033482142857142  C 1.5187872023809523 5.613095238095236  2.3359375 4.389508928571429  3.3627232142857144 3.362723214285713  C 4.389508928571428 2.3359375  5.613095238095239 1.5187872023809517  7.033482142857143 0.9112723214285711  C 8.453869047619047 0.30375744047619035  9.942708333333334 0  11.5 0  C 13.057291666666668 0  14.546130952380954 0.30375744047619035  15.966517857142858 0.9112723214285711  C 17.386904761904763 1.5187872023809517  18.61049107142857 2.3359375  19.63727678571429 3.362723214285713  C 20.664062500000004 4.389508928571429  21.48121279761905 5.613095238095236  22.08872767857143 7.033482142857142  Z " fill-rule="nonzero" fill="rgba(127, 127, 127, 1)" stroke="none" transform="matrix(1 0 0 1 2967 561 )" class="fill" />
    <path d="M 14.220982142857142 17.26283482142857  C 14.76860119047619 17.570870535714285  15.115141369047619 17.40829613095238  15.260602678571429 16.775111607142858  L 17.14732142857143 7.880580357142858  C 17.224330357142858 7.504092261904759  17.179408482142858 7.234561011904759  17.01255580357143 7.071986607142858  C 16.845703125 6.909412202380952  16.625372023809526 6.8794642857142865  16.3515625 6.982142857142858  L 5.262276785714286 11.256138392857142  C 5.014136904761905 11.350260416666664  4.845145089285714 11.457217261904761  4.755301339285714 11.577008928571429  C 4.665457589285714 11.696800595238093  4.654761904761905 11.810174851190478  4.723214285714286 11.917131696428571  C 4.791666666666667 12.024088541666664  4.928571428571428 12.107514880952381  5.133928571428572 12.167410714285715  L 7.970424107142857 13.053013392857142  L 14.5546875 8.907366071428571  C 14.734375 8.787574404761903  14.871279761904765 8.76190476190476  14.965401785714286 8.830357142857142  C 15.025297619047619 8.873139880952381  15.008184523809526 8.937313988095235  14.9140625 9.022879464285714  L 9.587611607142856 13.8359375  L 9.382254464285715 16.762276785714285  C 9.57905505952381 16.762276785714285  9.771577380952381 16.668154761904763  9.959821428571429 16.479910714285715  L 11.345982142857144 15.145089285714285  L 14.220982142857142 17.26283482142857  Z " stroke-width="0" stroke-dasharray="0" stroke="rgba(255, 255, 255, 0)" fill="none" transform="matrix(1 0 0 1 2967 561 )" class="stroke" mask="url(#Clip395)" />
    <path d="M 22.08872767857143 7.033482142857142  C 22.696242559523814 8.453869047619046  23 9.942708333333332  23 11.5  C 23 13.057291666666664  22.696242559523814 14.546130952380953  22.08872767857143 15.966517857142858  C 21.48121279761905 17.386904761904763  20.664062500000004 18.61049107142857  19.63727678571429 19.637276785714285  C 18.61049107142857 20.6640625  17.386904761904763 21.481212797619047  15.966517857142858 22.08872767857143  C 14.546130952380954 22.69624255952381  13.057291666666668 23  11.5 23  C 9.942708333333334 23  8.453869047619047 22.69624255952381  7.033482142857143 22.08872767857143  C 5.613095238095239 21.481212797619047  4.389508928571428 20.6640625  3.3627232142857144 19.637276785714285  C 2.3359375 18.61049107142857  1.5187872023809523 17.386904761904763  0.9112723214285714 15.966517857142858  C 0.3037574404761904 14.546130952380953  0 13.057291666666664  0 11.5  C 0 9.942708333333332  0.3037574404761904 8.453869047619046  0.9112723214285714 7.033482142857142  C 1.5187872023809523 5.613095238095236  2.3359375 4.389508928571429  3.3627232142857144 3.362723214285713  C 4.389508928571428 2.3359375  5.613095238095239 1.5187872023809517  7.033482142857143 0.9112723214285711  C 8.453869047619047 0.30375744047619035  9.942708333333334 0  11.5 0  C 13.057291666666668 0  14.546130952380954 0.30375744047619035  15.966517857142858 0.9112723214285711  C 17.386904761904763 1.5187872023809517  18.61049107142857 2.3359375  19.63727678571429 3.362723214285713  C 20.664062500000004 4.389508928571429  21.48121279761905 5.613095238095236  22.08872767857143 7.033482142857142  Z " stroke-width="0" stroke-dasharray="0" stroke="rgba(255, 255, 255, 0)" fill="none" transform="matrix(1 0 0 1 2967 561 )" class="stroke" mask="url(#Clip395)" />
  </g>
</svg>