<?xml version="1.0" encoding="utf-8"?>
<svg version="1.1" xmlns:xlink="http://www.w3.org/1999/xlink" width="19px" height="17px" xmlns="http://www.w3.org/2000/svg">
  <defs>
    <pattern id="BGPattern" patternUnits="userSpaceOnUse" alignment="0 0" imageRepeat="None" />
    <mask fill="white" id="Clip402">
      <path d="M 15.649553571428571 9.119791666666666  C 16.97842261904762 7.7326388888888875  17.642857142857142 6.419270833333333  17.642857142857142 5.1796875  C 17.642857142857142 4.58203125  17.566871279761905 4.054470486111111  17.414899553571427 3.5970052083333326  C 17.262927827380953 3.139539930555553  17.068545386904763 2.7761501736111103  16.831752232142858 2.5068359375  C 16.594959077380956 2.237521701388888  16.306919642857146 2.0180121527777777  15.967633928571429 1.8483072916666674  C 15.628348214285715 1.6786024305555531  15.296130952380953 1.5642361111111103  14.970982142857144 1.5052083333333326  C 14.645833333333334 1.4461805555555531  14.299479166666668 1.4166666666666674  13.931919642857144 1.4166666666666674  C 13.56436011904762 1.4166666666666674  13.168526785714285 1.5107421875  12.744419642857144 1.6988932291666674  C 12.3203125 1.8870442708333326  11.929780505952381 2.123155381944443  11.572823660714285 2.4072265625  C 11.215866815476193 2.691297743055553  10.91015625 2.956922743055553  10.655691964285715 3.2041015625  C 10.40122767857143 3.451280381944443  10.18917410714286 3.6781684027777777  10.01953125 3.884765625  C 9.89229910714286 4.0470920138888875  9.719122023809526 4.128255208333333  9.5 4.128255208333333  C 9.280877976190476 4.128255208333333  9.107700892857142 4.0470920138888875  8.98046875 3.884765625  C 8.810825892857142 3.6781684027777777  8.598772321428571 3.451280381944443  8.344308035714286 3.2041015625  C 8.08984375 2.956922743055553  7.78413318452381 2.691297743055553  7.427176339285714 2.4072265625  C 7.0702194940476195 2.123155381944443  6.6796875 1.8870442708333326  6.255580357142858 1.6988932291666674  C 5.831473214285714 1.5107421875  5.435639880952382 1.4166666666666674  5.068080357142858 1.4166666666666674  C 4.700520833333334 1.4166666666666674  4.354166666666668 1.4461805555555531  4.029017857142857 1.5052083333333326  C 3.7038690476190483 1.5642361111111103  3.371651785714286 1.6786024305555531  3.032366071428571 1.8483072916666674  C 2.693080357142857 2.0180121527777777  2.4050409226190474 2.237521701388888  2.168247767857143 2.5068359375  C 1.9314546130952381 2.7761501736111103  1.7370721726190477 3.139539930555553  1.5851004464285714 3.5970052083333326  C 1.4331287202380956 4.054470486111111  1.357142857142857 4.58203125  1.357142857142857 5.1796875  C 1.357142857142857 6.419270833333333  2.018043154761905 7.728949652777778  3.33984375 9.108723958333334  L 9.5 15.306640625  L 15.649553571428571 9.119791666666666  Z M 17.653459821428573 1.3723958333333326  C 18.551153273809526 2.287326388888888  19 3.5564236111111103  19 5.1796875  C 19 6.810329861111111  18.190662202380953 8.47048611111111  16.571986607142858 10.16015625  L 9.966517857142856 16.80078125  C 9.839285714285715 16.93359375  9.683779761904763 17  9.5 17  C 9.316220238095239 17  9.160714285714286 16.93359375  9.033482142857142 16.80078125  L 2.417410714285714 10.138020833333334  C 2.3467261904761907 10.078993055555555  2.2495349702380953 9.983072916666666  2.1258370535714284 9.850260416666666  C 2.002139136904762 9.717447916666666  1.8059895833333335 9.47580295138889  1.537388392857143 9.125325520833334  C 1.2687872023809523 8.774848090277775  1.0284598214285714 8.415147569444443  0.81640625 8.046223958333332  C 0.6043526785714285 7.677300347222222  0.41527157738095244 7.230902777777778  0.24916294642857142 6.70703125  C 0.08305431547619048 6.1831597222222205  0 5.6740451388888875  0 5.1796875  C 0 3.5564236111111103  0.4488467261904761 2.287326388888888  1.3465401785714286 1.3723958333333326  C 2.2442336309523814 0.45746527777777757  3.4847470238095237 0  5.068080357142858 0  C 5.506324404761905 0  5.953404017857142 0.07931857638888784  6.409319196428572 0.2379557291666673  C 6.865234375 0.396592881944443  7.289341517857142 0.6105685763888878  7.681640625 0.8798828125  C 8.07393973214286 1.1491970486111103  8.411458333333336 1.4019097222222205  8.694196428571429 1.6380208333333326  C 8.976934523809526 1.8741319444444429  9.245535714285714 2.125  9.5 2.390625  C 9.754464285714285 2.125  10.023065476190478 1.8741319444444429  10.305803571428571 1.6380208333333326  C 10.588541666666668 1.4019097222222205  10.926060267857144 1.1491970486111103  11.318359375 0.8798828125  C 11.710658482142856 0.6105685763888878  12.134765625 0.396592881944443  12.590680803571429 0.2379557291666673  C 13.046595982142856 0.07931857638888784  13.493675595238097 0  13.931919642857144 0  C 15.515252976190478 0  16.75576636904762 0.45746527777777757  17.653459821428573 1.3723958333333326  Z " fill-rule="evenodd" />
    </mask>
  </defs>
  <g transform="matrix(1 0 0 1 -3006 -995 )">
    <path d="M 15.649553571428571 9.119791666666666  C 16.97842261904762 7.7326388888888875  17.642857142857142 6.419270833333333  17.642857142857142 5.1796875  C 17.642857142857142 4.58203125  17.566871279761905 4.054470486111111  17.414899553571427 3.5970052083333326  C 17.262927827380953 3.139539930555553  17.068545386904763 2.7761501736111103  16.831752232142858 2.5068359375  C 16.594959077380956 2.237521701388888  16.306919642857146 2.0180121527777777  15.967633928571429 1.8483072916666674  C 15.628348214285715 1.6786024305555531  15.296130952380953 1.5642361111111103  14.970982142857144 1.5052083333333326  C 14.645833333333334 1.4461805555555531  14.299479166666668 1.4166666666666674  13.931919642857144 1.4166666666666674  C 13.56436011904762 1.4166666666666674  13.168526785714285 1.5107421875  12.744419642857144 1.6988932291666674  C 12.3203125 1.8870442708333326  11.929780505952381 2.123155381944443  11.572823660714285 2.4072265625  C 11.215866815476193 2.691297743055553  10.91015625 2.956922743055553  10.655691964285715 3.2041015625  C 10.40122767857143 3.451280381944443  10.18917410714286 3.6781684027777777  10.01953125 3.884765625  C 9.89229910714286 4.0470920138888875  9.719122023809526 4.128255208333333  9.5 4.128255208333333  C 9.280877976190476 4.128255208333333  9.107700892857142 4.0470920138888875  8.98046875 3.884765625  C 8.810825892857142 3.6781684027777777  8.598772321428571 3.451280381944443  8.344308035714286 3.2041015625  C 8.08984375 2.956922743055553  7.78413318452381 2.691297743055553  7.427176339285714 2.4072265625  C 7.0702194940476195 2.123155381944443  6.6796875 1.8870442708333326  6.255580357142858 1.6988932291666674  C 5.831473214285714 1.5107421875  5.435639880952382 1.4166666666666674  5.068080357142858 1.4166666666666674  C 4.700520833333334 1.4166666666666674  4.354166666666668 1.4461805555555531  4.029017857142857 1.5052083333333326  C 3.7038690476190483 1.5642361111111103  3.371651785714286 1.6786024305555531  3.032366071428571 1.8483072916666674  C 2.693080357142857 2.0180121527777777  2.4050409226190474 2.237521701388888  2.168247767857143 2.5068359375  C 1.9314546130952381 2.7761501736111103  1.7370721726190477 3.139539930555553  1.5851004464285714 3.5970052083333326  C 1.4331287202380956 4.054470486111111  1.357142857142857 4.58203125  1.357142857142857 5.1796875  C 1.357142857142857 6.419270833333333  2.018043154761905 7.728949652777778  3.33984375 9.108723958333334  L 9.5 15.306640625  L 15.649553571428571 9.119791666666666  Z M 17.653459821428573 1.3723958333333326  C 18.551153273809526 2.287326388888888  19 3.5564236111111103  19 5.1796875  C 19 6.810329861111111  18.190662202380953 8.47048611111111  16.571986607142858 10.16015625  L 9.966517857142856 16.80078125  C 9.839285714285715 16.93359375  9.683779761904763 17  9.5 17  C 9.316220238095239 17  9.160714285714286 16.93359375  9.033482142857142 16.80078125  L 2.417410714285714 10.138020833333334  C 2.3467261904761907 10.078993055555555  2.2495349702380953 9.983072916666666  2.1258370535714284 9.850260416666666  C 2.002139136904762 9.717447916666666  1.8059895833333335 9.47580295138889  1.537388392857143 9.125325520833334  C 1.2687872023809523 8.774848090277775  1.0284598214285714 8.415147569444443  0.81640625 8.046223958333332  C 0.6043526785714285 7.677300347222222  0.41527157738095244 7.230902777777778  0.24916294642857142 6.70703125  C 0.08305431547619048 6.1831597222222205  0 5.6740451388888875  0 5.1796875  C 0 3.5564236111111103  0.4488467261904761 2.287326388888888  1.3465401785714286 1.3723958333333326  C 2.2442336309523814 0.45746527777777757  3.4847470238095237 0  5.068080357142858 0  C 5.506324404761905 0  5.953404017857142 0.07931857638888784  6.409319196428572 0.2379557291666673  C 6.865234375 0.396592881944443  7.289341517857142 0.6105685763888878  7.681640625 0.8798828125  C 8.07393973214286 1.1491970486111103  8.411458333333336 1.4019097222222205  8.694196428571429 1.6380208333333326  C 8.976934523809526 1.8741319444444429  9.245535714285714 2.125  9.5 2.390625  C 9.754464285714285 2.125  10.023065476190478 1.8741319444444429  10.305803571428571 1.6380208333333326  C 10.588541666666668 1.4019097222222205  10.926060267857144 1.1491970486111103  11.318359375 0.8798828125  C 11.710658482142856 0.6105685763888878  12.134765625 0.396592881944443  12.590680803571429 0.2379557291666673  C 13.046595982142856 0.07931857638888784  13.493675595238097 0  13.931919642857144 0  C 15.515252976190478 0  16.75576636904762 0.45746527777777757  17.653459821428573 1.3723958333333326  Z " fill-rule="nonzero" fill="rgba(0, 0, 0, 1)" stroke="none" transform="matrix(1 0 0 1 3006 995 )" class="fill" />
    <path d="M 15.649553571428571 9.119791666666666  C 16.97842261904762 7.7326388888888875  17.642857142857142 6.419270833333333  17.642857142857142 5.1796875  C 17.642857142857142 4.58203125  17.566871279761905 4.054470486111111  17.414899553571427 3.5970052083333326  C 17.262927827380953 3.139539930555553  17.068545386904763 2.7761501736111103  16.831752232142858 2.5068359375  C 16.594959077380956 2.237521701388888  16.306919642857146 2.0180121527777777  15.967633928571429 1.8483072916666674  C 15.628348214285715 1.6786024305555531  15.296130952380953 1.5642361111111103  14.970982142857144 1.5052083333333326  C 14.645833333333334 1.4461805555555531  14.299479166666668 1.4166666666666674  13.931919642857144 1.4166666666666674  C 13.56436011904762 1.4166666666666674  13.168526785714285 1.5107421875  12.744419642857144 1.6988932291666674  C 12.3203125 1.8870442708333326  11.929780505952381 2.123155381944443  11.572823660714285 2.4072265625  C 11.215866815476193 2.691297743055553  10.91015625 2.956922743055553  10.655691964285715 3.2041015625  C 10.40122767857143 3.451280381944443  10.18917410714286 3.6781684027777777  10.01953125 3.884765625  C 9.89229910714286 4.0470920138888875  9.719122023809526 4.128255208333333  9.5 4.128255208333333  C 9.280877976190476 4.128255208333333  9.107700892857142 4.0470920138888875  8.98046875 3.884765625  C 8.810825892857142 3.6781684027777777  8.598772321428571 3.451280381944443  8.344308035714286 3.2041015625  C 8.08984375 2.956922743055553  7.78413318452381 2.691297743055553  7.427176339285714 2.4072265625  C 7.0702194940476195 2.123155381944443  6.6796875 1.8870442708333326  6.255580357142858 1.6988932291666674  C 5.831473214285714 1.5107421875  5.435639880952382 1.4166666666666674  5.068080357142858 1.4166666666666674  C 4.700520833333334 1.4166666666666674  4.354166666666668 1.4461805555555531  4.029017857142857 1.5052083333333326  C 3.7038690476190483 1.5642361111111103  3.371651785714286 1.6786024305555531  3.032366071428571 1.8483072916666674  C 2.693080357142857 2.0180121527777777  2.4050409226190474 2.237521701388888  2.168247767857143 2.5068359375  C 1.9314546130952381 2.7761501736111103  1.7370721726190477 3.139539930555553  1.5851004464285714 3.5970052083333326  C 1.4331287202380956 4.054470486111111  1.357142857142857 4.58203125  1.357142857142857 5.1796875  C 1.357142857142857 6.419270833333333  2.018043154761905 7.728949652777778  3.33984375 9.108723958333334  L 9.5 15.306640625  L 15.649553571428571 9.119791666666666  Z " stroke-width="0" stroke-dasharray="0" stroke="rgba(255, 255, 255, 0)" fill="none" transform="matrix(1 0 0 1 3006 995 )" class="stroke" mask="url(#Clip402)" />
    <path d="M 17.653459821428573 1.3723958333333326  C 18.551153273809526 2.287326388888888  19 3.5564236111111103  19 5.1796875  C 19 6.810329861111111  18.190662202380953 8.47048611111111  16.571986607142858 10.16015625  L 9.966517857142856 16.80078125  C 9.839285714285715 16.93359375  9.683779761904763 17  9.5 17  C 9.316220238095239 17  9.160714285714286 16.93359375  9.033482142857142 16.80078125  L 2.417410714285714 10.138020833333334  C 2.3467261904761907 10.078993055555555  2.2495349702380953 9.983072916666666  2.1258370535714284 9.850260416666666  C 2.002139136904762 9.717447916666666  1.8059895833333335 9.47580295138889  1.537388392857143 9.125325520833334  C 1.2687872023809523 8.774848090277775  1.0284598214285714 8.415147569444443  0.81640625 8.046223958333332  C 0.6043526785714285 7.677300347222222  0.41527157738095244 7.230902777777778  0.24916294642857142 6.70703125  C 0.08305431547619048 6.1831597222222205  0 5.6740451388888875  0 5.1796875  C 0 3.5564236111111103  0.4488467261904761 2.287326388888888  1.3465401785714286 1.3723958333333326  C 2.2442336309523814 0.45746527777777757  3.4847470238095237 0  5.068080357142858 0  C 5.506324404761905 0  5.953404017857142 0.07931857638888784  6.409319196428572 0.2379557291666673  C 6.865234375 0.396592881944443  7.289341517857142 0.6105685763888878  7.681640625 0.8798828125  C 8.07393973214286 1.1491970486111103  8.411458333333336 1.4019097222222205  8.694196428571429 1.6380208333333326  C 8.976934523809526 1.8741319444444429  9.245535714285714 2.125  9.5 2.390625  C 9.754464285714285 2.125  10.023065476190478 1.8741319444444429  10.305803571428571 1.6380208333333326  C 10.588541666666668 1.4019097222222205  10.926060267857144 1.1491970486111103  11.318359375 0.8798828125  C 11.710658482142856 0.6105685763888878  12.134765625 0.396592881944443  12.590680803571429 0.2379557291666673  C 13.046595982142856 0.07931857638888784  13.493675595238097 0  13.931919642857144 0  C 15.515252976190478 0  16.75576636904762 0.45746527777777757  17.653459821428573 1.3723958333333326  Z " stroke-width="0" stroke-dasharray="0" stroke="rgba(255, 255, 255, 0)" fill="none" transform="matrix(1 0 0 1 3006 995 )" class="stroke" mask="url(#Clip402)" />
  </g>
</svg>