<?xml version="1.0" encoding="utf-8"?>
<svg version="1.1" xmlns:xlink="http://www.w3.org/1999/xlink" width="19px" height="16px" xmlns="http://www.w3.org/2000/svg">
  <defs>
    <pattern id="BGPattern" patternUnits="userSpaceOnUse" alignment="0 0" imageRepeat="None" />
    <mask fill="white" id="Clip403">
      <path d="M 1.4615384615384617 12.285714285714285  L 1.4615384615384617 14.857142857142858  L 4.75 14.857142857142858  L 4.75 12.285714285714285  L 1.4615384615384617 12.285714285714285  Z M 5.48076923076923 12.285714285714285  L 5.48076923076923 14.857142857142858  L 9.134615384615385 14.857142857142858  L 9.134615384615385 12.285714285714285  L 5.48076923076923 12.285714285714285  Z M 1.4615384615384617 8.857142857142858  L 1.4615384615384617 11.714285714285715  L 4.75 11.714285714285715  L 4.75 8.857142857142858  L 1.4615384615384617 8.857142857142858  Z M 5.48076923076923 8.857142857142858  L 5.48076923076923 11.714285714285715  L 9.134615384615385 11.714285714285715  L 9.134615384615385 8.857142857142858  L 5.48076923076923 8.857142857142858  Z M 1.4615384615384617 5.7142857142857135  L 1.4615384615384617 8.285714285714285  L 4.75 8.285714285714285  L 4.75 5.7142857142857135  L 1.4615384615384617 5.7142857142857135  Z M 9.865384615384617 12.285714285714285  L 9.865384615384617 14.857142857142858  L 13.51923076923077 14.857142857142858  L 13.51923076923077 12.285714285714285  L 9.865384615384617 12.285714285714285  Z M 5.48076923076923 5.7142857142857135  L 5.48076923076923 8.285714285714285  L 9.134615384615385 8.285714285714285  L 9.134615384615385 5.7142857142857135  L 5.48076923076923 5.7142857142857135  Z M 14.25 12.285714285714285  L 14.25 14.857142857142858  L 17.53846153846154 14.857142857142858  L 17.53846153846154 12.285714285714285  L 14.25 12.285714285714285  Z M 9.865384615384617 8.857142857142858  L 9.865384615384617 11.714285714285715  L 13.51923076923077 11.714285714285715  L 13.51923076923077 8.857142857142858  L 9.865384615384617 8.857142857142858  Z M 5.737680288461538 4.200892857142858  C 5.809995993589744 4.144345238095237  5.846153846153847 4.077380952380951  5.846153846153847 4  L 5.846153846153847 1.4285714285714288  C 5.846153846153847 1.3511904761904763  5.809995993589744 1.2842261904761898  5.737680288461538 1.2276785714285712  C 5.665364583333334 1.1711309523809508  5.579727564102564 1.1428571428571423  5.48076923076923 1.1428571428571423  L 4.75 1.1428571428571423  C 4.651041666666667 1.1428571428571423  4.565404647435898 1.1711309523809508  4.4930889423076925 1.2276785714285712  C 4.420773237179486 1.2842261904761898  4.384615384615385 1.3511904761904763  4.384615384615385 1.4285714285714288  L 4.384615384615385 4  C 4.384615384615385 4.077380952380951  4.420773237179486 4.144345238095237  4.4930889423076925 4.200892857142858  C 4.565404647435898 4.257440476190476  4.651041666666667 4.2857142857142865  4.75 4.2857142857142865  L 5.48076923076923 4.2857142857142865  C 5.579727564102564 4.2857142857142865  5.665364583333334 4.257440476190476  5.737680288461538 4.200892857142858  Z M 14.25 8.857142857142858  L 14.25 11.714285714285715  L 17.53846153846154 11.714285714285715  L 17.53846153846154 8.857142857142858  L 14.25 8.857142857142858  Z M 9.865384615384617 5.7142857142857135  L 9.865384615384617 8.285714285714285  L 13.51923076923077 8.285714285714285  L 13.51923076923077 5.7142857142857135  L 9.865384615384617 5.7142857142857135  Z M 14.25 5.7142857142857135  L 14.25 8.285714285714285  L 17.53846153846154 8.285714285714285  L 17.53846153846154 5.7142857142857135  L 14.25 5.7142857142857135  Z M 14.506911057692307 4.200892857142858  C 14.579226762820515 4.144345238095237  14.615384615384617 4.077380952380951  14.615384615384617 4  L 14.615384615384617 1.4285714285714288  C 14.615384615384617 1.3511904761904763  14.579226762820515 1.2842261904761898  14.506911057692307 1.2276785714285712  C 14.434595352564104 1.1711309523809508  14.348958333333334 1.1428571428571423  14.25 1.1428571428571423  L 13.51923076923077 1.1428571428571423  C 13.420272435897438 1.1428571428571423  13.334635416666668 1.1711309523809508  13.26231971153846 1.2276785714285712  C 13.190004006410257 1.2842261904761898  13.153846153846153 1.3511904761904763  13.153846153846153 1.4285714285714288  L 13.153846153846153 4  C 13.153846153846153 4.077380952380951  13.190004006410257 4.144345238095237  13.26231971153846 4.200892857142858  C 13.334635416666668 4.257440476190476  13.420272435897438 4.2857142857142865  13.51923076923077 4.2857142857142865  L 14.25 4.2857142857142865  C 14.348958333333334 4.2857142857142865  14.434595352564104 4.257440476190476  14.506911057692307 4.200892857142858  Z M 18.56610576923077 2.625  C 18.85536858974359 2.8511904761904763  19 3.1190476190476186  19 3.428571428571429  L 19 14.857142857142858  C 19 15.166666666666668  18.85536858974359 15.43452380952381  18.56610576923077 15.660714285714286  C 18.27684294871795 15.886904761904761  17.934294871794872 16  17.53846153846154 16  L 1.4615384615384617 16  C 1.0657051282051284 16  0.7231570512820513 15.886904761904761  0.4338942307692307 15.660714285714286  C 0.14463141025641024 15.43452380952381  0 15.166666666666668  0 14.857142857142858  L 0 3.428571428571429  C 0 3.1190476190476186  0.14463141025641024 2.8511904761904763  0.4338942307692307 2.625  C 0.7231570512820513 2.398809523809522  1.0657051282051284 2.2857142857142865  1.4615384615384617 2.2857142857142865  L 2.9230769230769234 2.2857142857142865  L 2.9230769230769234 1.4285714285714288  C 2.9230769230769234 1.0357142857142865  3.101963141025641 0.699404761904761  3.4597355769230766 0.41964285714285765  C 3.8175080128205137 0.13988095238095255  4.247596153846154 0  4.75 0  L 5.48076923076923 0  C 5.983173076923077 0  6.413261217948719 0.13988095238095255  6.771033653846153 0.41964285714285765  C 7.12880608974359 0.699404761904761  7.307692307692308 1.0357142857142865  7.307692307692308 1.4285714285714288  L 7.307692307692308 2.2857142857142865  L 11.692307692307693 2.2857142857142865  L 11.692307692307693 1.4285714285714288  C 11.692307692307693 1.0357142857142865  11.87119391025641 0.699404761904761  12.228966346153847 0.41964285714285765  C 12.586738782051285 0.13988095238095255  13.016826923076923 0  13.51923076923077 0  L 14.25 0  C 14.752403846153847 0  15.182491987179487 0.13988095238095255  15.540264423076923 0.41964285714285765  C 15.898036858974361 0.699404761904761  16.076923076923077 1.0357142857142865  16.076923076923077 1.4285714285714288  L 16.076923076923077 2.2857142857142865  L 17.53846153846154 2.2857142857142865  C 17.934294871794872 2.2857142857142865  18.27684294871795 2.398809523809522  18.56610576923077 2.625  Z " fill-rule="evenodd" />
    </mask>
  </defs>
  <g transform="matrix(1 0 0 1 -2563 -1174 )">
    <path d="M 1.4615384615384617 12.285714285714285  L 1.4615384615384617 14.857142857142858  L 4.75 14.857142857142858  L 4.75 12.285714285714285  L 1.4615384615384617 12.285714285714285  Z M 5.48076923076923 12.285714285714285  L 5.48076923076923 14.857142857142858  L 9.134615384615385 14.857142857142858  L 9.134615384615385 12.285714285714285  L 5.48076923076923 12.285714285714285  Z M 1.4615384615384617 8.857142857142858  L 1.4615384615384617 11.714285714285715  L 4.75 11.714285714285715  L 4.75 8.857142857142858  L 1.4615384615384617 8.857142857142858  Z M 5.48076923076923 8.857142857142858  L 5.48076923076923 11.714285714285715  L 9.134615384615385 11.714285714285715  L 9.134615384615385 8.857142857142858  L 5.48076923076923 8.857142857142858  Z M 1.4615384615384617 5.7142857142857135  L 1.4615384615384617 8.285714285714285  L 4.75 8.285714285714285  L 4.75 5.7142857142857135  L 1.4615384615384617 5.7142857142857135  Z M 9.865384615384617 12.285714285714285  L 9.865384615384617 14.857142857142858  L 13.51923076923077 14.857142857142858  L 13.51923076923077 12.285714285714285  L 9.865384615384617 12.285714285714285  Z M 5.48076923076923 5.7142857142857135  L 5.48076923076923 8.285714285714285  L 9.134615384615385 8.285714285714285  L 9.134615384615385 5.7142857142857135  L 5.48076923076923 5.7142857142857135  Z M 14.25 12.285714285714285  L 14.25 14.857142857142858  L 17.53846153846154 14.857142857142858  L 17.53846153846154 12.285714285714285  L 14.25 12.285714285714285  Z M 9.865384615384617 8.857142857142858  L 9.865384615384617 11.714285714285715  L 13.51923076923077 11.714285714285715  L 13.51923076923077 8.857142857142858  L 9.865384615384617 8.857142857142858  Z M 5.737680288461538 4.200892857142858  C 5.809995993589744 4.144345238095237  5.846153846153847 4.077380952380951  5.846153846153847 4  L 5.846153846153847 1.4285714285714288  C 5.846153846153847 1.3511904761904763  5.809995993589744 1.2842261904761898  5.737680288461538 1.2276785714285712  C 5.665364583333334 1.1711309523809508  5.579727564102564 1.1428571428571423  5.48076923076923 1.1428571428571423  L 4.75 1.1428571428571423  C 4.651041666666667 1.1428571428571423  4.565404647435898 1.1711309523809508  4.4930889423076925 1.2276785714285712  C 4.420773237179486 1.2842261904761898  4.384615384615385 1.3511904761904763  4.384615384615385 1.4285714285714288  L 4.384615384615385 4  C 4.384615384615385 4.077380952380951  4.420773237179486 4.144345238095237  4.4930889423076925 4.200892857142858  C 4.565404647435898 4.257440476190476  4.651041666666667 4.2857142857142865  4.75 4.2857142857142865  L 5.48076923076923 4.2857142857142865  C 5.579727564102564 4.2857142857142865  5.665364583333334 4.257440476190476  5.737680288461538 4.200892857142858  Z M 14.25 8.857142857142858  L 14.25 11.714285714285715  L 17.53846153846154 11.714285714285715  L 17.53846153846154 8.857142857142858  L 14.25 8.857142857142858  Z M 9.865384615384617 5.7142857142857135  L 9.865384615384617 8.285714285714285  L 13.51923076923077 8.285714285714285  L 13.51923076923077 5.7142857142857135  L 9.865384615384617 5.7142857142857135  Z M 14.25 5.7142857142857135  L 14.25 8.285714285714285  L 17.53846153846154 8.285714285714285  L 17.53846153846154 5.7142857142857135  L 14.25 5.7142857142857135  Z M 14.506911057692307 4.200892857142858  C 14.579226762820515 4.144345238095237  14.615384615384617 4.077380952380951  14.615384615384617 4  L 14.615384615384617 1.4285714285714288  C 14.615384615384617 1.3511904761904763  14.579226762820515 1.2842261904761898  14.506911057692307 1.2276785714285712  C 14.434595352564104 1.1711309523809508  14.348958333333334 1.1428571428571423  14.25 1.1428571428571423  L 13.51923076923077 1.1428571428571423  C 13.420272435897438 1.1428571428571423  13.334635416666668 1.1711309523809508  13.26231971153846 1.2276785714285712  C 13.190004006410257 1.2842261904761898  13.153846153846153 1.3511904761904763  13.153846153846153 1.4285714285714288  L 13.153846153846153 4  C 13.153846153846153 4.077380952380951  13.190004006410257 4.144345238095237  13.26231971153846 4.200892857142858  C 13.334635416666668 4.257440476190476  13.420272435897438 4.2857142857142865  13.51923076923077 4.2857142857142865  L 14.25 4.2857142857142865  C 14.348958333333334 4.2857142857142865  14.434595352564104 4.257440476190476  14.506911057692307 4.200892857142858  Z M 18.56610576923077 2.625  C 18.85536858974359 2.8511904761904763  19 3.1190476190476186  19 3.428571428571429  L 19 14.857142857142858  C 19 15.166666666666668  18.85536858974359 15.43452380952381  18.56610576923077 15.660714285714286  C 18.27684294871795 15.886904761904761  17.934294871794872 16  17.53846153846154 16  L 1.4615384615384617 16  C 1.0657051282051284 16  0.7231570512820513 15.886904761904761  0.4338942307692307 15.660714285714286  C 0.14463141025641024 15.43452380952381  0 15.166666666666668  0 14.857142857142858  L 0 3.428571428571429  C 0 3.1190476190476186  0.14463141025641024 2.8511904761904763  0.4338942307692307 2.625  C 0.7231570512820513 2.398809523809522  1.0657051282051284 2.2857142857142865  1.4615384615384617 2.2857142857142865  L 2.9230769230769234 2.2857142857142865  L 2.9230769230769234 1.4285714285714288  C 2.9230769230769234 1.0357142857142865  3.101963141025641 0.699404761904761  3.4597355769230766 0.41964285714285765  C 3.8175080128205137 0.13988095238095255  4.247596153846154 0  4.75 0  L 5.48076923076923 0  C 5.983173076923077 0  6.413261217948719 0.13988095238095255  6.771033653846153 0.41964285714285765  C 7.12880608974359 0.699404761904761  7.307692307692308 1.0357142857142865  7.307692307692308 1.4285714285714288  L 7.307692307692308 2.2857142857142865  L 11.692307692307693 2.2857142857142865  L 11.692307692307693 1.4285714285714288  C 11.692307692307693 1.0357142857142865  11.87119391025641 0.699404761904761  12.228966346153847 0.41964285714285765  C 12.586738782051285 0.13988095238095255  13.016826923076923 0  13.51923076923077 0  L 14.25 0  C 14.752403846153847 0  15.182491987179487 0.13988095238095255  15.540264423076923 0.41964285714285765  C 15.898036858974361 0.699404761904761  16.076923076923077 1.0357142857142865  16.076923076923077 1.4285714285714288  L 16.076923076923077 2.2857142857142865  L 17.53846153846154 2.2857142857142865  C 17.934294871794872 2.2857142857142865  18.27684294871795 2.398809523809522  18.56610576923077 2.625  Z " fill-rule="nonzero" fill="rgba(85, 85, 85, 1)" stroke="none" transform="matrix(1 0 0 1 2563 1174 )" class="fill" />
    <path d="M 1.4615384615384617 12.285714285714285  L 1.4615384615384617 14.857142857142858  L 4.75 14.857142857142858  L 4.75 12.285714285714285  L 1.4615384615384617 12.285714285714285  Z " stroke-width="0" stroke-dasharray="0" stroke="rgba(255, 255, 255, 0)" fill="none" transform="matrix(1 0 0 1 2563 1174 )" class="stroke" mask="url(#Clip403)" />
    <path d="M 5.48076923076923 12.285714285714285  L 5.48076923076923 14.857142857142858  L 9.134615384615385 14.857142857142858  L 9.134615384615385 12.285714285714285  L 5.48076923076923 12.285714285714285  Z " stroke-width="0" stroke-dasharray="0" stroke="rgba(255, 255, 255, 0)" fill="none" transform="matrix(1 0 0 1 2563 1174 )" class="stroke" mask="url(#Clip403)" />
    <path d="M 1.4615384615384617 8.857142857142858  L 1.4615384615384617 11.714285714285715  L 4.75 11.714285714285715  L 4.75 8.857142857142858  L 1.4615384615384617 8.857142857142858  Z " stroke-width="0" stroke-dasharray="0" stroke="rgba(255, 255, 255, 0)" fill="none" transform="matrix(1 0 0 1 2563 1174 )" class="stroke" mask="url(#Clip403)" />
    <path d="M 5.48076923076923 8.857142857142858  L 5.48076923076923 11.714285714285715  L 9.134615384615385 11.714285714285715  L 9.134615384615385 8.857142857142858  L 5.48076923076923 8.857142857142858  Z " stroke-width="0" stroke-dasharray="0" stroke="rgba(255, 255, 255, 0)" fill="none" transform="matrix(1 0 0 1 2563 1174 )" class="stroke" mask="url(#Clip403)" />
    <path d="M 1.4615384615384617 5.7142857142857135  L 1.4615384615384617 8.285714285714285  L 4.75 8.285714285714285  L 4.75 5.7142857142857135  L 1.4615384615384617 5.7142857142857135  Z " stroke-width="0" stroke-dasharray="0" stroke="rgba(255, 255, 255, 0)" fill="none" transform="matrix(1 0 0 1 2563 1174 )" class="stroke" mask="url(#Clip403)" />
    <path d="M 9.865384615384617 12.285714285714285  L 9.865384615384617 14.857142857142858  L 13.51923076923077 14.857142857142858  L 13.51923076923077 12.285714285714285  L 9.865384615384617 12.285714285714285  Z " stroke-width="0" stroke-dasharray="0" stroke="rgba(255, 255, 255, 0)" fill="none" transform="matrix(1 0 0 1 2563 1174 )" class="stroke" mask="url(#Clip403)" />
    <path d="M 5.48076923076923 5.7142857142857135  L 5.48076923076923 8.285714285714285  L 9.134615384615385 8.285714285714285  L 9.134615384615385 5.7142857142857135  L 5.48076923076923 5.7142857142857135  Z " stroke-width="0" stroke-dasharray="0" stroke="rgba(255, 255, 255, 0)" fill="none" transform="matrix(1 0 0 1 2563 1174 )" class="stroke" mask="url(#Clip403)" />
    <path d="M 14.25 12.285714285714285  L 14.25 14.857142857142858  L 17.53846153846154 14.857142857142858  L 17.53846153846154 12.285714285714285  L 14.25 12.285714285714285  Z " stroke-width="0" stroke-dasharray="0" stroke="rgba(255, 255, 255, 0)" fill="none" transform="matrix(1 0 0 1 2563 1174 )" class="stroke" mask="url(#Clip403)" />
    <path d="M 9.865384615384617 8.857142857142858  L 9.865384615384617 11.714285714285715  L 13.51923076923077 11.714285714285715  L 13.51923076923077 8.857142857142858  L 9.865384615384617 8.857142857142858  Z " stroke-width="0" stroke-dasharray="0" stroke="rgba(255, 255, 255, 0)" fill="none" transform="matrix(1 0 0 1 2563 1174 )" class="stroke" mask="url(#Clip403)" />
    <path d="M 5.737680288461538 4.200892857142858  C 5.809995993589744 4.144345238095237  5.846153846153847 4.077380952380951  5.846153846153847 4  L 5.846153846153847 1.4285714285714288  C 5.846153846153847 1.3511904761904763  5.809995993589744 1.2842261904761898  5.737680288461538 1.2276785714285712  C 5.665364583333334 1.1711309523809508  5.579727564102564 1.1428571428571423  5.48076923076923 1.1428571428571423  L 4.75 1.1428571428571423  C 4.651041666666667 1.1428571428571423  4.565404647435898 1.1711309523809508  4.4930889423076925 1.2276785714285712  C 4.420773237179486 1.2842261904761898  4.384615384615385 1.3511904761904763  4.384615384615385 1.4285714285714288  L 4.384615384615385 4  C 4.384615384615385 4.077380952380951  4.420773237179486 4.144345238095237  4.4930889423076925 4.200892857142858  C 4.565404647435898 4.257440476190476  4.651041666666667 4.2857142857142865  4.75 4.2857142857142865  L 5.48076923076923 4.2857142857142865  C 5.579727564102564 4.2857142857142865  5.665364583333334 4.257440476190476  5.737680288461538 4.200892857142858  Z " stroke-width="0" stroke-dasharray="0" stroke="rgba(255, 255, 255, 0)" fill="none" transform="matrix(1 0 0 1 2563 1174 )" class="stroke" mask="url(#Clip403)" />
    <path d="M 14.25 8.857142857142858  L 14.25 11.714285714285715  L 17.53846153846154 11.714285714285715  L 17.53846153846154 8.857142857142858  L 14.25 8.857142857142858  Z " stroke-width="0" stroke-dasharray="0" stroke="rgba(255, 255, 255, 0)" fill="none" transform="matrix(1 0 0 1 2563 1174 )" class="stroke" mask="url(#Clip403)" />
    <path d="M 9.865384615384617 5.7142857142857135  L 9.865384615384617 8.285714285714285  L 13.51923076923077 8.285714285714285  L 13.51923076923077 5.7142857142857135  L 9.865384615384617 5.7142857142857135  Z " stroke-width="0" stroke-dasharray="0" stroke="rgba(255, 255, 255, 0)" fill="none" transform="matrix(1 0 0 1 2563 1174 )" class="stroke" mask="url(#Clip403)" />
    <path d="M 14.25 5.7142857142857135  L 14.25 8.285714285714285  L 17.53846153846154 8.285714285714285  L 17.53846153846154 5.7142857142857135  L 14.25 5.7142857142857135  Z " stroke-width="0" stroke-dasharray="0" stroke="rgba(255, 255, 255, 0)" fill="none" transform="matrix(1 0 0 1 2563 1174 )" class="stroke" mask="url(#Clip403)" />
    <path d="M 14.506911057692307 4.200892857142858  C 14.579226762820515 4.144345238095237  14.615384615384617 4.077380952380951  14.615384615384617 4  L 14.615384615384617 1.4285714285714288  C 14.615384615384617 1.3511904761904763  14.579226762820515 1.2842261904761898  14.506911057692307 1.2276785714285712  C 14.434595352564104 1.1711309523809508  14.348958333333334 1.1428571428571423  14.25 1.1428571428571423  L 13.51923076923077 1.1428571428571423  C 13.420272435897438 1.1428571428571423  13.334635416666668 1.1711309523809508  13.26231971153846 1.2276785714285712  C 13.190004006410257 1.2842261904761898  13.153846153846153 1.3511904761904763  13.153846153846153 1.4285714285714288  L 13.153846153846153 4  C 13.153846153846153 4.077380952380951  13.190004006410257 4.144345238095237  13.26231971153846 4.200892857142858  C 13.334635416666668 4.257440476190476  13.420272435897438 4.2857142857142865  13.51923076923077 4.2857142857142865  L 14.25 4.2857142857142865  C 14.348958333333334 4.2857142857142865  14.434595352564104 4.257440476190476  14.506911057692307 4.200892857142858  Z " stroke-width="0" stroke-dasharray="0" stroke="rgba(255, 255, 255, 0)" fill="none" transform="matrix(1 0 0 1 2563 1174 )" class="stroke" mask="url(#Clip403)" />
    <path d="M 18.56610576923077 2.625  C 18.85536858974359 2.8511904761904763  19 3.1190476190476186  19 3.428571428571429  L 19 14.857142857142858  C 19 15.166666666666668  18.85536858974359 15.43452380952381  18.56610576923077 15.660714285714286  C 18.27684294871795 15.886904761904761  17.934294871794872 16  17.53846153846154 16  L 1.4615384615384617 16  C 1.0657051282051284 16  0.7231570512820513 15.886904761904761  0.4338942307692307 15.660714285714286  C 0.14463141025641024 15.43452380952381  0 15.166666666666668  0 14.857142857142858  L 0 3.428571428571429  C 0 3.1190476190476186  0.14463141025641024 2.8511904761904763  0.4338942307692307 2.625  C 0.7231570512820513 2.398809523809522  1.0657051282051284 2.2857142857142865  1.4615384615384617 2.2857142857142865  L 2.9230769230769234 2.2857142857142865  L 2.9230769230769234 1.4285714285714288  C 2.9230769230769234 1.0357142857142865  3.101963141025641 0.699404761904761  3.4597355769230766 0.41964285714285765  C 3.8175080128205137 0.13988095238095255  4.247596153846154 0  4.75 0  L 5.48076923076923 0  C 5.983173076923077 0  6.413261217948719 0.13988095238095255  6.771033653846153 0.41964285714285765  C 7.12880608974359 0.699404761904761  7.307692307692308 1.0357142857142865  7.307692307692308 1.4285714285714288  L 7.307692307692308 2.2857142857142865  L 11.692307692307693 2.2857142857142865  L 11.692307692307693 1.4285714285714288  C 11.692307692307693 1.0357142857142865  11.87119391025641 0.699404761904761  12.228966346153847 0.41964285714285765  C 12.586738782051285 0.13988095238095255  13.016826923076923 0  13.51923076923077 0  L 14.25 0  C 14.752403846153847 0  15.182491987179487 0.13988095238095255  15.540264423076923 0.41964285714285765  C 15.898036858974361 0.699404761904761  16.076923076923077 1.0357142857142865  16.076923076923077 1.4285714285714288  L 16.076923076923077 2.2857142857142865  L 17.53846153846154 2.2857142857142865  C 17.934294871794872 2.2857142857142865  18.27684294871795 2.398809523809522  18.56610576923077 2.625  Z " stroke-width="0" stroke-dasharray="0" stroke="rgba(255, 255, 255, 0)" fill="none" transform="matrix(1 0 0 1 2563 1174 )" class="stroke" mask="url(#Clip403)" />
  </g>
</svg>