<?xml version="1.0" encoding="utf-8"?>
<svg version="1.1" xmlns:xlink="http://www.w3.org/1999/xlink" width="17px" height="19px" xmlns="http://www.w3.org/2000/svg">
  <defs>
    <pattern id="BGPattern" patternUnits="userSpaceOnUse" alignment="0 0" imageRepeat="None" />
    <mask fill="white" id="Clip404">
      <path d="M 1.3076923076923077 14.589285714285714  L 1.3076923076923077 17.642857142857142  L 4.25 17.642857142857142  L 4.25 14.589285714285714  L 1.3076923076923077 14.589285714285714  Z M 4.903846153846153 14.589285714285714  L 4.903846153846153 17.642857142857142  L 8.173076923076923 17.642857142857142  L 8.173076923076923 14.589285714285714  L 4.903846153846153 14.589285714285714  Z M 1.3076923076923077 10.517857142857144  L 1.3076923076923077 13.910714285714286  L 4.25 13.910714285714286  L 4.25 10.517857142857144  L 1.3076923076923077 10.517857142857144  Z M 4.903846153846153 10.517857142857144  L 4.903846153846153 13.910714285714286  L 8.173076923076923 13.910714285714286  L 8.173076923076923 10.517857142857144  L 4.903846153846153 10.517857142857144  Z M 1.3076923076923077 6.785714285714285  L 1.3076923076923077 9.839285714285714  L 4.25 9.839285714285714  L 4.25 6.785714285714285  L 1.3076923076923077 6.785714285714285  Z M 8.826923076923078 14.589285714285714  L 8.826923076923078 17.642857142857142  L 12.096153846153847 17.642857142857142  L 12.096153846153847 14.589285714285714  L 8.826923076923078 14.589285714285714  Z M 4.903846153846153 6.785714285714285  L 4.903846153846153 9.839285714285714  L 8.173076923076923 9.839285714285714  L 8.173076923076923 6.785714285714285  L 4.903846153846153 6.785714285714285  Z M 12.75 14.589285714285714  L 12.75 17.642857142857142  L 15.692307692307693 17.642857142857142  L 15.692307692307693 14.589285714285714  L 12.75 14.589285714285714  Z M 8.826923076923078 10.517857142857144  L 8.826923076923078 13.910714285714286  L 12.096153846153847 13.910714285714286  L 12.096153846153847 10.517857142857144  L 8.826923076923078 10.517857142857144  Z M 5.1337139423076925 4.988560267857143  C 5.198417467948718 4.921409970238094  5.230769230769231 4.841889880952379  5.230769230769231 4.75  L 5.230769230769231 1.6964285714285716  C 5.230769230769231 1.6045386904761907  5.198417467948718 1.5250186011904754  5.1337139423076925 1.4578683035714284  C 5.069010416666667 1.3907180059523792  4.992387820512821 1.3571428571428565  4.903846153846153 1.3571428571428565  L 4.25 1.3571428571428565  C 4.161458333333334 1.3571428571428565  4.084835737179487 1.3907180059523792  4.020132211538462 1.4578683035714284  C 3.9554286858974352 1.5250186011904754  3.9230769230769234 1.6045386904761907  3.9230769230769234 1.6964285714285716  L 3.9230769230769234 4.75  C 3.9230769230769234 4.841889880952379  3.9554286858974352 4.921409970238094  4.020132211538462 4.988560267857143  C 4.084835737179487 5.055710565476191  4.161458333333334 5.089285714285715  4.25 5.089285714285715  L 4.903846153846153 5.089285714285715  C 4.992387820512821 5.089285714285715  5.069010416666667 5.055710565476191  5.1337139423076925 4.988560267857143  Z M 12.75 10.517857142857144  L 12.75 13.910714285714286  L 15.692307692307693 13.910714285714286  L 15.692307692307693 10.517857142857144  L 12.75 10.517857142857144  Z M 8.826923076923078 6.785714285714285  L 8.826923076923078 9.839285714285714  L 12.096153846153847 9.839285714285714  L 12.096153846153847 6.785714285714285  L 8.826923076923078 6.785714285714285  Z M 12.75 6.785714285714285  L 12.75 9.839285714285714  L 15.692307692307693 9.839285714285714  L 15.692307692307693 6.785714285714285  L 12.75 6.785714285714285  Z M 12.979867788461538 4.988560267857143  C 13.044571314102566 4.921409970238094  13.076923076923078 4.841889880952379  13.076923076923078 4.75  L 13.076923076923078 1.6964285714285716  C 13.076923076923078 1.6045386904761907  13.044571314102566 1.5250186011904754  12.979867788461538 1.4578683035714284  C 12.915164262820515 1.3907180059523792  12.838541666666668 1.3571428571428565  12.75 1.3571428571428565  L 12.096153846153847 1.3571428571428565  C 12.00761217948718 1.3571428571428565  11.930989583333334 1.3907180059523792  11.866286057692307 1.4578683035714284  C 11.801582532051283 1.5250186011904754  11.769230769230768 1.6045386904761907  11.769230769230768 1.6964285714285716  L 11.769230769230768 4.75  C 11.769230769230768 4.841889880952379  11.801582532051283 4.921409970238094  11.866286057692307 4.988560267857143  C 11.930989583333334 5.055710565476191  12.00761217948718 5.089285714285715  12.096153846153847 5.089285714285715  L 12.75 5.089285714285715  C 12.838541666666668 5.089285714285715  12.915164262820515 5.055710565476191  12.979867788461538 4.988560267857143  Z M 16.611778846153847 3.1171875  C 16.87059294871795 3.3857886904761907  17 3.703869047619047  17 4.071428571428572  L 17 17.642857142857142  C 17 18.010416666666668  16.87059294871795 18.328497023809526  16.611778846153847 18.597098214285715  C 16.352964743589745 18.865699404761905  16.04647435897436 19  15.692307692307693 19  L 1.3076923076923077 19  C 0.9535256410256412 19  0.6470352564102565 18.865699404761905  0.3882211538461538 18.597098214285715  C 0.12940705128205127 18.328497023809526  0 18.010416666666668  0 17.642857142857142  L 0 4.071428571428572  C 0 3.703869047619047  0.12940705128205127 3.3857886904761907  0.3882211538461538 3.1171875  C 0.6470352564102565 2.8485863095238075  0.9535256410256412 2.7142857142857153  1.3076923076923077 2.7142857142857153  L 2.6153846153846154 2.7142857142857153  L 2.6153846153846154 1.6964285714285716  C 2.6153846153846154 1.2299107142857153  2.7754407051282053 0.8305431547619037  3.0955528846153846 0.49832589285714346  C 3.4156650641025648 0.16610863095238115  3.8004807692307696 0  4.25 0  L 4.903846153846153 0  C 5.353365384615384 0  5.73818108974359 0.16610863095238115  6.058293269230769 0.49832589285714346  C 6.378405448717949 0.8305431547619037  6.538461538461539 1.2299107142857153  6.538461538461539 1.6964285714285716  L 6.538461538461539 2.7142857142857153  L 10.461538461538462 2.7142857142857153  L 10.461538461538462 1.6964285714285716  C 10.461538461538462 1.2299107142857153  10.621594551282051 0.8305431547619037  10.941706730769232 0.49832589285714346  C 11.261818910256412 0.16610863095238115  11.646634615384615 0  12.096153846153847 0  L 12.75 0  C 13.199519230769232 0  13.584334935897436 0.16610863095238115  13.904447115384615 0.49832589285714346  C 14.224559294871797 0.8305431547619037  14.384615384615385 1.2299107142857153  14.384615384615385 1.6964285714285716  L 14.384615384615385 2.7142857142857153  L 15.692307692307693 2.7142857142857153  C 16.04647435897436 2.7142857142857153  16.352964743589745 2.8485863095238075  16.611778846153847 3.1171875  Z " fill-rule="evenodd" />
    </mask>
  </defs>
  <g transform="matrix(1 0 0 1 -562 -2083 )">
    <path d="M 1.3076923076923077 14.589285714285714  L 1.3076923076923077 17.642857142857142  L 4.25 17.642857142857142  L 4.25 14.589285714285714  L 1.3076923076923077 14.589285714285714  Z M 4.903846153846153 14.589285714285714  L 4.903846153846153 17.642857142857142  L 8.173076923076923 17.642857142857142  L 8.173076923076923 14.589285714285714  L 4.903846153846153 14.589285714285714  Z M 1.3076923076923077 10.517857142857144  L 1.3076923076923077 13.910714285714286  L 4.25 13.910714285714286  L 4.25 10.517857142857144  L 1.3076923076923077 10.517857142857144  Z M 4.903846153846153 10.517857142857144  L 4.903846153846153 13.910714285714286  L 8.173076923076923 13.910714285714286  L 8.173076923076923 10.517857142857144  L 4.903846153846153 10.517857142857144  Z M 1.3076923076923077 6.785714285714285  L 1.3076923076923077 9.839285714285714  L 4.25 9.839285714285714  L 4.25 6.785714285714285  L 1.3076923076923077 6.785714285714285  Z M 8.826923076923078 14.589285714285714  L 8.826923076923078 17.642857142857142  L 12.096153846153847 17.642857142857142  L 12.096153846153847 14.589285714285714  L 8.826923076923078 14.589285714285714  Z M 4.903846153846153 6.785714285714285  L 4.903846153846153 9.839285714285714  L 8.173076923076923 9.839285714285714  L 8.173076923076923 6.785714285714285  L 4.903846153846153 6.785714285714285  Z M 12.75 14.589285714285714  L 12.75 17.642857142857142  L 15.692307692307693 17.642857142857142  L 15.692307692307693 14.589285714285714  L 12.75 14.589285714285714  Z M 8.826923076923078 10.517857142857144  L 8.826923076923078 13.910714285714286  L 12.096153846153847 13.910714285714286  L 12.096153846153847 10.517857142857144  L 8.826923076923078 10.517857142857144  Z M 5.1337139423076925 4.988560267857143  C 5.198417467948718 4.921409970238094  5.230769230769231 4.841889880952379  5.230769230769231 4.75  L 5.230769230769231 1.6964285714285716  C 5.230769230769231 1.6045386904761907  5.198417467948718 1.5250186011904754  5.1337139423076925 1.4578683035714284  C 5.069010416666667 1.3907180059523792  4.992387820512821 1.3571428571428565  4.903846153846153 1.3571428571428565  L 4.25 1.3571428571428565  C 4.161458333333334 1.3571428571428565  4.084835737179487 1.3907180059523792  4.020132211538462 1.4578683035714284  C 3.9554286858974352 1.5250186011904754  3.9230769230769234 1.6045386904761907  3.9230769230769234 1.6964285714285716  L 3.9230769230769234 4.75  C 3.9230769230769234 4.841889880952379  3.9554286858974352 4.921409970238094  4.020132211538462 4.988560267857143  C 4.084835737179487 5.055710565476191  4.161458333333334 5.089285714285715  4.25 5.089285714285715  L 4.903846153846153 5.089285714285715  C 4.992387820512821 5.089285714285715  5.069010416666667 5.055710565476191  5.1337139423076925 4.988560267857143  Z M 12.75 10.517857142857144  L 12.75 13.910714285714286  L 15.692307692307693 13.910714285714286  L 15.692307692307693 10.517857142857144  L 12.75 10.517857142857144  Z M 8.826923076923078 6.785714285714285  L 8.826923076923078 9.839285714285714  L 12.096153846153847 9.839285714285714  L 12.096153846153847 6.785714285714285  L 8.826923076923078 6.785714285714285  Z M 12.75 6.785714285714285  L 12.75 9.839285714285714  L 15.692307692307693 9.839285714285714  L 15.692307692307693 6.785714285714285  L 12.75 6.785714285714285  Z M 12.979867788461538 4.988560267857143  C 13.044571314102566 4.921409970238094  13.076923076923078 4.841889880952379  13.076923076923078 4.75  L 13.076923076923078 1.6964285714285716  C 13.076923076923078 1.6045386904761907  13.044571314102566 1.5250186011904754  12.979867788461538 1.4578683035714284  C 12.915164262820515 1.3907180059523792  12.838541666666668 1.3571428571428565  12.75 1.3571428571428565  L 12.096153846153847 1.3571428571428565  C 12.00761217948718 1.3571428571428565  11.930989583333334 1.3907180059523792  11.866286057692307 1.4578683035714284  C 11.801582532051283 1.5250186011904754  11.769230769230768 1.6045386904761907  11.769230769230768 1.6964285714285716  L 11.769230769230768 4.75  C 11.769230769230768 4.841889880952379  11.801582532051283 4.921409970238094  11.866286057692307 4.988560267857143  C 11.930989583333334 5.055710565476191  12.00761217948718 5.089285714285715  12.096153846153847 5.089285714285715  L 12.75 5.089285714285715  C 12.838541666666668 5.089285714285715  12.915164262820515 5.055710565476191  12.979867788461538 4.988560267857143  Z M 16.611778846153847 3.1171875  C 16.87059294871795 3.3857886904761907  17 3.703869047619047  17 4.071428571428572  L 17 17.642857142857142  C 17 18.010416666666668  16.87059294871795 18.328497023809526  16.611778846153847 18.597098214285715  C 16.352964743589745 18.865699404761905  16.04647435897436 19  15.692307692307693 19  L 1.3076923076923077 19  C 0.9535256410256412 19  0.6470352564102565 18.865699404761905  0.3882211538461538 18.597098214285715  C 0.12940705128205127 18.328497023809526  0 18.010416666666668  0 17.642857142857142  L 0 4.071428571428572  C 0 3.703869047619047  0.12940705128205127 3.3857886904761907  0.3882211538461538 3.1171875  C 0.6470352564102565 2.8485863095238075  0.9535256410256412 2.7142857142857153  1.3076923076923077 2.7142857142857153  L 2.6153846153846154 2.7142857142857153  L 2.6153846153846154 1.6964285714285716  C 2.6153846153846154 1.2299107142857153  2.7754407051282053 0.8305431547619037  3.0955528846153846 0.49832589285714346  C 3.4156650641025648 0.16610863095238115  3.8004807692307696 0  4.25 0  L 4.903846153846153 0  C 5.353365384615384 0  5.73818108974359 0.16610863095238115  6.058293269230769 0.49832589285714346  C 6.378405448717949 0.8305431547619037  6.538461538461539 1.2299107142857153  6.538461538461539 1.6964285714285716  L 6.538461538461539 2.7142857142857153  L 10.461538461538462 2.7142857142857153  L 10.461538461538462 1.6964285714285716  C 10.461538461538462 1.2299107142857153  10.621594551282051 0.8305431547619037  10.941706730769232 0.49832589285714346  C 11.261818910256412 0.16610863095238115  11.646634615384615 0  12.096153846153847 0  L 12.75 0  C 13.199519230769232 0  13.584334935897436 0.16610863095238115  13.904447115384615 0.49832589285714346  C 14.224559294871797 0.8305431547619037  14.384615384615385 1.2299107142857153  14.384615384615385 1.6964285714285716  L 14.384615384615385 2.7142857142857153  L 15.692307692307693 2.7142857142857153  C 16.04647435897436 2.7142857142857153  16.352964743589745 2.8485863095238075  16.611778846153847 3.1171875  Z " fill-rule="nonzero" fill="rgba(85, 85, 85, 1)" stroke="none" transform="matrix(1 0 0 1 562 2083 )" class="fill" />
    <path d="M 1.3076923076923077 14.589285714285714  L 1.3076923076923077 17.642857142857142  L 4.25 17.642857142857142  L 4.25 14.589285714285714  L 1.3076923076923077 14.589285714285714  Z " stroke-width="0" stroke-dasharray="0" stroke="rgba(255, 255, 255, 0)" fill="none" transform="matrix(1 0 0 1 562 2083 )" class="stroke" mask="url(#Clip404)" />
    <path d="M 4.903846153846153 14.589285714285714  L 4.903846153846153 17.642857142857142  L 8.173076923076923 17.642857142857142  L 8.173076923076923 14.589285714285714  L 4.903846153846153 14.589285714285714  Z " stroke-width="0" stroke-dasharray="0" stroke="rgba(255, 255, 255, 0)" fill="none" transform="matrix(1 0 0 1 562 2083 )" class="stroke" mask="url(#Clip404)" />
    <path d="M 1.3076923076923077 10.517857142857144  L 1.3076923076923077 13.910714285714286  L 4.25 13.910714285714286  L 4.25 10.517857142857144  L 1.3076923076923077 10.517857142857144  Z " stroke-width="0" stroke-dasharray="0" stroke="rgba(255, 255, 255, 0)" fill="none" transform="matrix(1 0 0 1 562 2083 )" class="stroke" mask="url(#Clip404)" />
    <path d="M 4.903846153846153 10.517857142857144  L 4.903846153846153 13.910714285714286  L 8.173076923076923 13.910714285714286  L 8.173076923076923 10.517857142857144  L 4.903846153846153 10.517857142857144  Z " stroke-width="0" stroke-dasharray="0" stroke="rgba(255, 255, 255, 0)" fill="none" transform="matrix(1 0 0 1 562 2083 )" class="stroke" mask="url(#Clip404)" />
    <path d="M 1.3076923076923077 6.785714285714285  L 1.3076923076923077 9.839285714285714  L 4.25 9.839285714285714  L 4.25 6.785714285714285  L 1.3076923076923077 6.785714285714285  Z " stroke-width="0" stroke-dasharray="0" stroke="rgba(255, 255, 255, 0)" fill="none" transform="matrix(1 0 0 1 562 2083 )" class="stroke" mask="url(#Clip404)" />
    <path d="M 8.826923076923078 14.589285714285714  L 8.826923076923078 17.642857142857142  L 12.096153846153847 17.642857142857142  L 12.096153846153847 14.589285714285714  L 8.826923076923078 14.589285714285714  Z " stroke-width="0" stroke-dasharray="0" stroke="rgba(255, 255, 255, 0)" fill="none" transform="matrix(1 0 0 1 562 2083 )" class="stroke" mask="url(#Clip404)" />
    <path d="M 4.903846153846153 6.785714285714285  L 4.903846153846153 9.839285714285714  L 8.173076923076923 9.839285714285714  L 8.173076923076923 6.785714285714285  L 4.903846153846153 6.785714285714285  Z " stroke-width="0" stroke-dasharray="0" stroke="rgba(255, 255, 255, 0)" fill="none" transform="matrix(1 0 0 1 562 2083 )" class="stroke" mask="url(#Clip404)" />
    <path d="M 12.75 14.589285714285714  L 12.75 17.642857142857142  L 15.692307692307693 17.642857142857142  L 15.692307692307693 14.589285714285714  L 12.75 14.589285714285714  Z " stroke-width="0" stroke-dasharray="0" stroke="rgba(255, 255, 255, 0)" fill="none" transform="matrix(1 0 0 1 562 2083 )" class="stroke" mask="url(#Clip404)" />
    <path d="M 8.826923076923078 10.517857142857144  L 8.826923076923078 13.910714285714286  L 12.096153846153847 13.910714285714286  L 12.096153846153847 10.517857142857144  L 8.826923076923078 10.517857142857144  Z " stroke-width="0" stroke-dasharray="0" stroke="rgba(255, 255, 255, 0)" fill="none" transform="matrix(1 0 0 1 562 2083 )" class="stroke" mask="url(#Clip404)" />
    <path d="M 5.1337139423076925 4.988560267857143  C 5.198417467948718 4.921409970238094  5.230769230769231 4.841889880952379  5.230769230769231 4.75  L 5.230769230769231 1.6964285714285716  C 5.230769230769231 1.6045386904761907  5.198417467948718 1.5250186011904754  5.1337139423076925 1.4578683035714284  C 5.069010416666667 1.3907180059523792  4.992387820512821 1.3571428571428565  4.903846153846153 1.3571428571428565  L 4.25 1.3571428571428565  C 4.161458333333334 1.3571428571428565  4.084835737179487 1.3907180059523792  4.020132211538462 1.4578683035714284  C 3.9554286858974352 1.5250186011904754  3.9230769230769234 1.6045386904761907  3.9230769230769234 1.6964285714285716  L 3.9230769230769234 4.75  C 3.9230769230769234 4.841889880952379  3.9554286858974352 4.921409970238094  4.020132211538462 4.988560267857143  C 4.084835737179487 5.055710565476191  4.161458333333334 5.089285714285715  4.25 5.089285714285715  L 4.903846153846153 5.089285714285715  C 4.992387820512821 5.089285714285715  5.069010416666667 5.055710565476191  5.1337139423076925 4.988560267857143  Z " stroke-width="0" stroke-dasharray="0" stroke="rgba(255, 255, 255, 0)" fill="none" transform="matrix(1 0 0 1 562 2083 )" class="stroke" mask="url(#Clip404)" />
    <path d="M 12.75 10.517857142857144  L 12.75 13.910714285714286  L 15.692307692307693 13.910714285714286  L 15.692307692307693 10.517857142857144  L 12.75 10.517857142857144  Z " stroke-width="0" stroke-dasharray="0" stroke="rgba(255, 255, 255, 0)" fill="none" transform="matrix(1 0 0 1 562 2083 )" class="stroke" mask="url(#Clip404)" />
    <path d="M 8.826923076923078 6.785714285714285  L 8.826923076923078 9.839285714285714  L 12.096153846153847 9.839285714285714  L 12.096153846153847 6.785714285714285  L 8.826923076923078 6.785714285714285  Z " stroke-width="0" stroke-dasharray="0" stroke="rgba(255, 255, 255, 0)" fill="none" transform="matrix(1 0 0 1 562 2083 )" class="stroke" mask="url(#Clip404)" />
    <path d="M 12.75 6.785714285714285  L 12.75 9.839285714285714  L 15.692307692307693 9.839285714285714  L 15.692307692307693 6.785714285714285  L 12.75 6.785714285714285  Z " stroke-width="0" stroke-dasharray="0" stroke="rgba(255, 255, 255, 0)" fill="none" transform="matrix(1 0 0 1 562 2083 )" class="stroke" mask="url(#Clip404)" />
    <path d="M 12.979867788461538 4.988560267857143  C 13.044571314102566 4.921409970238094  13.076923076923078 4.841889880952379  13.076923076923078 4.75  L 13.076923076923078 1.6964285714285716  C 13.076923076923078 1.6045386904761907  13.044571314102566 1.5250186011904754  12.979867788461538 1.4578683035714284  C 12.915164262820515 1.3907180059523792  12.838541666666668 1.3571428571428565  12.75 1.3571428571428565  L 12.096153846153847 1.3571428571428565  C 12.00761217948718 1.3571428571428565  11.930989583333334 1.3907180059523792  11.866286057692307 1.4578683035714284  C 11.801582532051283 1.5250186011904754  11.769230769230768 1.6045386904761907  11.769230769230768 1.6964285714285716  L 11.769230769230768 4.75  C 11.769230769230768 4.841889880952379  11.801582532051283 4.921409970238094  11.866286057692307 4.988560267857143  C 11.930989583333334 5.055710565476191  12.00761217948718 5.089285714285715  12.096153846153847 5.089285714285715  L 12.75 5.089285714285715  C 12.838541666666668 5.089285714285715  12.915164262820515 5.055710565476191  12.979867788461538 4.988560267857143  Z " stroke-width="0" stroke-dasharray="0" stroke="rgba(255, 255, 255, 0)" fill="none" transform="matrix(1 0 0 1 562 2083 )" class="stroke" mask="url(#Clip404)" />
    <path d="M 16.611778846153847 3.1171875  C 16.87059294871795 3.3857886904761907  17 3.703869047619047  17 4.071428571428572  L 17 17.642857142857142  C 17 18.010416666666668  16.87059294871795 18.328497023809526  16.611778846153847 18.597098214285715  C 16.352964743589745 18.865699404761905  16.04647435897436 19  15.692307692307693 19  L 1.3076923076923077 19  C 0.9535256410256412 19  0.6470352564102565 18.865699404761905  0.3882211538461538 18.597098214285715  C 0.12940705128205127 18.328497023809526  0 18.010416666666668  0 17.642857142857142  L 0 4.071428571428572  C 0 3.703869047619047  0.12940705128205127 3.3857886904761907  0.3882211538461538 3.1171875  C 0.6470352564102565 2.8485863095238075  0.9535256410256412 2.7142857142857153  1.3076923076923077 2.7142857142857153  L 2.6153846153846154 2.7142857142857153  L 2.6153846153846154 1.6964285714285716  C 2.6153846153846154 1.2299107142857153  2.7754407051282053 0.8305431547619037  3.0955528846153846 0.49832589285714346  C 3.4156650641025648 0.16610863095238115  3.8004807692307696 0  4.25 0  L 4.903846153846153 0  C 5.353365384615384 0  5.73818108974359 0.16610863095238115  6.058293269230769 0.49832589285714346  C 6.378405448717949 0.8305431547619037  6.538461538461539 1.2299107142857153  6.538461538461539 1.6964285714285716  L 6.538461538461539 2.7142857142857153  L 10.461538461538462 2.7142857142857153  L 10.461538461538462 1.6964285714285716  C 10.461538461538462 1.2299107142857153  10.621594551282051 0.8305431547619037  10.941706730769232 0.49832589285714346  C 11.261818910256412 0.16610863095238115  11.646634615384615 0  12.096153846153847 0  L 12.75 0  C 13.199519230769232 0  13.584334935897436 0.16610863095238115  13.904447115384615 0.49832589285714346  C 14.224559294871797 0.8305431547619037  14.384615384615385 1.2299107142857153  14.384615384615385 1.6964285714285716  L 14.384615384615385 2.7142857142857153  L 15.692307692307693 2.7142857142857153  C 16.04647435897436 2.7142857142857153  16.352964743589745 2.8485863095238075  16.611778846153847 3.1171875  Z " stroke-width="0" stroke-dasharray="0" stroke="rgba(255, 255, 255, 0)" fill="none" transform="matrix(1 0 0 1 562 2083 )" class="stroke" mask="url(#Clip404)" />
  </g>
</svg>