<?xml version="1.0" encoding="utf-8"?>
<svg version="1.1" xmlns:xlink="http://www.w3.org/1999/xlink" width="15px" height="15px" xmlns="http://www.w3.org/2000/svg">
  <defs>
    <pattern id="BGPattern" patternUnits="userSpaceOnUse" alignment="0 0" imageRepeat="None" />
    <mask fill="white" id="Clip406">
      <path d="M 8.662109375 3.837890625  C 8.720703125 3.896484375  8.75 3.9713541666666647  8.75 4.062500000000001  L 8.75 8.4375  C 8.75 8.528645833333332  8.720703125 8.603515624999998  8.662109375 8.662109374999998  C 8.603515625 8.720703124999998  8.528645833333334 8.749999999999998  8.4375 8.749999999999998  L 5.3125 8.749999999999998  C 5.221354166666668 8.749999999999998  5.146484375 8.720703124999998  5.087890625 8.662109374999998  C 5.029296875 8.603515624999998  5 8.528645833333332  5 8.4375  L 5 7.812499999999999  C 5 7.721354166666666  5.029296875 7.646484375  5.087890625 7.587890625  C 5.146484375 7.529296875  5.221354166666668 7.5  5.3125 7.5  L 7.5 7.5  L 7.5 4.062500000000001  C 7.5 3.9713541666666647  7.529296875 3.896484375  7.587890625 3.837890625  C 7.646484375000002 3.779296875  7.721354166666668 3.75  7.812500000000001 3.75  L 8.4375 3.75  C 8.528645833333334 3.75  8.603515625 3.779296875  8.662109375 3.837890625  Z M 12.099609375 10.166015625  C 12.574869791666666 9.352213541666664  12.8125 8.463541666666668  12.8125 7.5  C 12.8125 6.536458333333332  12.574869791666666 5.647786458333333  12.099609375 4.833984375  C 11.624348958333336 4.020182291666665  10.979817708333336 3.375651041666665  10.166015625 2.900390625  C 9.352213541666666 2.425130208333333  8.463541666666668 2.1875000000000004  7.5 2.1875000000000004  C 6.536458333333333 2.1875000000000004  5.647786458333334 2.425130208333333  4.833984375 2.900390625  C 4.020182291666667 3.375651041666665  3.375651041666667 4.020182291666665  2.900390625 4.833984375  C 2.4251302083333335 5.647786458333333  2.1875 6.536458333333332  2.1875 7.5  C 2.1875 8.463541666666668  2.4251302083333335 9.352213541666664  2.900390625 10.166015625  C 3.375651041666667 10.979817708333332  4.020182291666667 11.624348958333334  4.833984375 12.099609375  C 5.647786458333334 12.574869791666666  6.536458333333333 12.8125  7.5 12.8125  C 8.463541666666668 12.8125  9.352213541666666 12.574869791666666  10.166015625 12.099609375  C 10.979817708333336 11.624348958333334  11.624348958333336 10.979817708333332  12.099609375 10.166015625  Z M 13.994140625 3.7353515625  C 14.664713541666664 4.884440104166665  15 6.139322916666664  15 7.5  C 15 8.860677083333334  14.664713541666664 10.115559895833332  13.994140625 11.2646484375  C 13.323567708333336 12.413736979166666  12.413736979166666 13.323567708333334  11.2646484375 13.994140625  C 10.115559895833336 14.664713541666668  8.860677083333334 15  7.5 15  C 6.139322916666667 15  4.884440104166667 14.664713541666668  3.7353515625 13.994140625  C 2.5862630208333335 13.323567708333334  1.676432291666667 12.413736979166666  1.005859375 11.2646484375  C 0.33528645833333326 10.115559895833332  0 8.860677083333334  0 7.5  C 0 6.139322916666664  0.33528645833333326 4.884440104166665  1.005859375 3.7353515625  C 1.676432291666667 2.586263020833333  2.5862630208333335 1.6764322916666652  3.7353515625 1.0058593749999996  C 4.884440104166667 0.33528645833333204  6.139322916666667 0  7.5 0  C 8.860677083333334 0  10.115559895833336 0.33528645833333204  11.2646484375 1.0058593749999996  C 12.413736979166666 1.6764322916666652  13.323567708333336 2.586263020833333  13.994140625 3.7353515625  Z " fill-rule="evenodd" />
    </mask>
  </defs>
  <g transform="matrix(1 0 0 1 -2547 -2058 )">
    <path d="M 8.662109375 3.837890625  C 8.720703125 3.896484375  8.75 3.9713541666666647  8.75 4.062500000000001  L 8.75 8.4375  C 8.75 8.528645833333332  8.720703125 8.603515624999998  8.662109375 8.662109374999998  C 8.603515625 8.720703124999998  8.528645833333334 8.749999999999998  8.4375 8.749999999999998  L 5.3125 8.749999999999998  C 5.221354166666668 8.749999999999998  5.146484375 8.720703124999998  5.087890625 8.662109374999998  C 5.029296875 8.603515624999998  5 8.528645833333332  5 8.4375  L 5 7.812499999999999  C 5 7.721354166666666  5.029296875 7.646484375  5.087890625 7.587890625  C 5.146484375 7.529296875  5.221354166666668 7.5  5.3125 7.5  L 7.5 7.5  L 7.5 4.062500000000001  C 7.5 3.9713541666666647  7.529296875 3.896484375  7.587890625 3.837890625  C 7.646484375000002 3.779296875  7.721354166666668 3.75  7.812500000000001 3.75  L 8.4375 3.75  C 8.528645833333334 3.75  8.603515625 3.779296875  8.662109375 3.837890625  Z M 12.099609375 10.166015625  C 12.574869791666666 9.352213541666664  12.8125 8.463541666666668  12.8125 7.5  C 12.8125 6.536458333333332  12.574869791666666 5.647786458333333  12.099609375 4.833984375  C 11.624348958333336 4.020182291666665  10.979817708333336 3.375651041666665  10.166015625 2.900390625  C 9.352213541666666 2.425130208333333  8.463541666666668 2.1875000000000004  7.5 2.1875000000000004  C 6.536458333333333 2.1875000000000004  5.647786458333334 2.425130208333333  4.833984375 2.900390625  C 4.020182291666667 3.375651041666665  3.375651041666667 4.020182291666665  2.900390625 4.833984375  C 2.4251302083333335 5.647786458333333  2.1875 6.536458333333332  2.1875 7.5  C 2.1875 8.463541666666668  2.4251302083333335 9.352213541666664  2.900390625 10.166015625  C 3.375651041666667 10.979817708333332  4.020182291666667 11.624348958333334  4.833984375 12.099609375  C 5.647786458333334 12.574869791666666  6.536458333333333 12.8125  7.5 12.8125  C 8.463541666666668 12.8125  9.352213541666666 12.574869791666666  10.166015625 12.099609375  C 10.979817708333336 11.624348958333334  11.624348958333336 10.979817708333332  12.099609375 10.166015625  Z M 13.994140625 3.7353515625  C 14.664713541666664 4.884440104166665  15 6.139322916666664  15 7.5  C 15 8.860677083333334  14.664713541666664 10.115559895833332  13.994140625 11.2646484375  C 13.323567708333336 12.413736979166666  12.413736979166666 13.323567708333334  11.2646484375 13.994140625  C 10.115559895833336 14.664713541666668  8.860677083333334 15  7.5 15  C 6.139322916666667 15  4.884440104166667 14.664713541666668  3.7353515625 13.994140625  C 2.5862630208333335 13.323567708333334  1.676432291666667 12.413736979166666  1.005859375 11.2646484375  C 0.33528645833333326 10.115559895833332  0 8.860677083333334  0 7.5  C 0 6.139322916666664  0.33528645833333326 4.884440104166665  1.005859375 3.7353515625  C 1.676432291666667 2.586263020833333  2.5862630208333335 1.6764322916666652  3.7353515625 1.0058593749999996  C 4.884440104166667 0.33528645833333204  6.139322916666667 0  7.5 0  C 8.860677083333334 0  10.115559895833336 0.33528645833333204  11.2646484375 1.0058593749999996  C 12.413736979166666 1.6764322916666652  13.323567708333336 2.586263020833333  13.994140625 3.7353515625  Z " fill-rule="nonzero" fill="rgba(170, 170, 170, 1)" stroke="none" transform="matrix(1 0 0 1 2547 2058 )" class="fill" />
    <path d="M 8.662109375 3.837890625  C 8.720703125 3.896484375  8.75 3.9713541666666647  8.75 4.062500000000001  L 8.75 8.4375  C 8.75 8.528645833333332  8.720703125 8.603515624999998  8.662109375 8.662109374999998  C 8.603515625 8.720703124999998  8.528645833333334 8.749999999999998  8.4375 8.749999999999998  L 5.3125 8.749999999999998  C 5.221354166666668 8.749999999999998  5.146484375 8.720703124999998  5.087890625 8.662109374999998  C 5.029296875 8.603515624999998  5 8.528645833333332  5 8.4375  L 5 7.812499999999999  C 5 7.721354166666666  5.029296875 7.646484375  5.087890625 7.587890625  C 5.146484375 7.529296875  5.221354166666668 7.5  5.3125 7.5  L 7.5 7.5  L 7.5 4.062500000000001  C 7.5 3.9713541666666647  7.529296875 3.896484375  7.587890625 3.837890625  C 7.646484375000002 3.779296875  7.721354166666668 3.75  7.812500000000001 3.75  L 8.4375 3.75  C 8.528645833333334 3.75  8.603515625 3.779296875  8.662109375 3.837890625  Z " stroke-width="0" stroke-dasharray="0" stroke="rgba(255, 255, 255, 0)" fill="none" transform="matrix(1 0 0 1 2547 2058 )" class="stroke" mask="url(#Clip406)" />
    <path d="M 12.099609375 10.166015625  C 12.574869791666666 9.352213541666664  12.8125 8.463541666666668  12.8125 7.5  C 12.8125 6.536458333333332  12.574869791666666 5.647786458333333  12.099609375 4.833984375  C 11.624348958333336 4.020182291666665  10.979817708333336 3.375651041666665  10.166015625 2.900390625  C 9.352213541666666 2.425130208333333  8.463541666666668 2.1875000000000004  7.5 2.1875000000000004  C 6.536458333333333 2.1875000000000004  5.647786458333334 2.425130208333333  4.833984375 2.900390625  C 4.020182291666667 3.375651041666665  3.375651041666667 4.020182291666665  2.900390625 4.833984375  C 2.4251302083333335 5.647786458333333  2.1875 6.536458333333332  2.1875 7.5  C 2.1875 8.463541666666668  2.4251302083333335 9.352213541666664  2.900390625 10.166015625  C 3.375651041666667 10.979817708333332  4.020182291666667 11.624348958333334  4.833984375 12.099609375  C 5.647786458333334 12.574869791666666  6.536458333333333 12.8125  7.5 12.8125  C 8.463541666666668 12.8125  9.352213541666666 12.574869791666666  10.166015625 12.099609375  C 10.979817708333336 11.624348958333334  11.624348958333336 10.979817708333332  12.099609375 10.166015625  Z " stroke-width="0" stroke-dasharray="0" stroke="rgba(255, 255, 255, 0)" fill="none" transform="matrix(1 0 0 1 2547 2058 )" class="stroke" mask="url(#Clip406)" />
    <path d="M 13.994140625 3.7353515625  C 14.664713541666664 4.884440104166665  15 6.139322916666664  15 7.5  C 15 8.860677083333334  14.664713541666664 10.115559895833332  13.994140625 11.2646484375  C 13.323567708333336 12.413736979166666  12.413736979166666 13.323567708333334  11.2646484375 13.994140625  C 10.115559895833336 14.664713541666668  8.860677083333334 15  7.5 15  C 6.139322916666667 15  4.884440104166667 14.664713541666668  3.7353515625 13.994140625  C 2.5862630208333335 13.323567708333334  1.676432291666667 12.413736979166666  1.005859375 11.2646484375  C 0.33528645833333326 10.115559895833332  0 8.860677083333334  0 7.5  C 0 6.139322916666664  0.33528645833333326 4.884440104166665  1.005859375 3.7353515625  C 1.676432291666667 2.586263020833333  2.5862630208333335 1.6764322916666652  3.7353515625 1.0058593749999996  C 4.884440104166667 0.33528645833333204  6.139322916666667 0  7.5 0  C 8.860677083333334 0  10.115559895833336 0.33528645833333204  11.2646484375 1.0058593749999996  C 12.413736979166666 1.6764322916666652  13.323567708333336 2.586263020833333  13.994140625 3.7353515625  Z " stroke-width="0" stroke-dasharray="0" stroke="rgba(255, 255, 255, 0)" fill="none" transform="matrix(1 0 0 1 2547 2058 )" class="stroke" mask="url(#Clip406)" />
  </g>
</svg>