<?xml version="1.0" encoding="utf-8"?>
<svg version="1.1" xmlns:xlink="http://www.w3.org/1999/xlink" width="60px" height="64px" xmlns="http://www.w3.org/2000/svg">
  <defs>
    <pattern id="BGPattern" patternUnits="userSpaceOnUse" alignment="0 0" imageRepeat="None" />
    <mask fill="white" id="Clip409">
      <path d="M 50 18.9  C 50 32.4  35 40.5  25 54  C 15 40.5  0 32.4  0 18.9  C 0 11.879999999999999  5 0  25 0  C 45 0  50 11.879999999999999  50 18.9  Z " fill-rule="evenodd" />
    </mask>
  </defs>
  <g transform="matrix(1 0 0 1 -2766 -1228 )">
    <path d="M 50 18.9  C 50 32.4  35 40.5  25 54  C 15 40.5  0 32.4  0 18.9  C 0 11.879999999999999  5 0  25 0  C 45 0  50 11.879999999999999  50 18.9  Z " fill-rule="nonzero" fill="rgba(0, 194, 255, 1)" stroke="none" transform="matrix(1 0 0 1 2770 1232 )" class="fill" />
    <path d="M 50 18.9  C 50 32.4  35 40.5  25 54  C 15 40.5  0 32.4  0 18.9  C 0 11.879999999999999  5 0  25 0  C 45 0  50 11.879999999999999  50 18.9  Z " stroke-width="2" stroke-dasharray="0" stroke="rgba(255, 255, 255, 1)" fill="none" transform="matrix(1 0 0 1 2770 1232 )" class="stroke" mask="url(#Clip409)" />
  </g>
  <style>svg { filter: drop-shadow(1px 1px 2.5px rgba(0, 0, 0, 0.6980392156862745)); }</style>
</svg>