<?xml version="1.0" encoding="utf-8"?>
<svg version="1.1" xmlns:xlink="http://www.w3.org/1999/xlink" width="31px" height="31px" xmlns="http://www.w3.org/2000/svg">
  <defs>
    <pattern id="BGPattern" patternUnits="userSpaceOnUse" alignment="0 0" imageRepeat="None" />
    <mask fill="white" id="Clip411">
      <path d="M 25.55078125 13.138671875  C 25.79296875 12.896484375  25.9140625 12.59375  25.9140625 12.23046875  C 25.9140625 11.85373263888889  25.79296875 11.544270833333334  25.55078125 11.302083333333334  L 23.714192708333336 9.485677083333334  C 23.458550347222225 9.23003472222222  23.155815972222225 9.102213541666666  22.805989583333336 9.102213541666666  C 22.456163194444446 9.102213541666666  22.153428819444446 9.23003472222222  21.897786458333336 9.485677083333334  L 13.663411458333332 17.699869791666668  L 9.102213541666668 13.138671875  C 8.846571180555555 12.88302951388889  8.543836805555555 12.755208333333334  8.194010416666668 12.755208333333334  C 7.844184027777779 12.755208333333334  7.541449652777778 12.88302951388889  7.285807291666666 13.138671875  L 5.44921875 14.955078125  C 5.20703125 15.197265625  5.085937500000001 15.506727430555554  5.0859375 15.88346354166667  C 5.085937500000001 16.246744791666668  5.20703125 16.549479166666668  5.44921875 16.791666666666668  L 12.755208333333332 24.09765625  C 13.010850694444446 24.353298611111107  13.313585069444446 24.481119791666664  13.663411458333332 24.481119791666664  C 14.026692708333332 24.481119791666664  14.336154513888891 24.353298611111107  14.591796875 24.09765625  L 25.55078125 13.138671875  Z M 28.921223958333336 7.7197265625  C 30.307074652777775 10.094509548611107  31 12.687934027777773  31 15.5  C 31 18.31206597222222  30.307074652777775 20.905490451388886  28.921223958333336 23.2802734375  C 27.535373263888893 25.65505642361111  25.65505642361111 27.53537326388889  23.2802734375 28.921223958333336  C 20.905490451388893 30.307074652777782  18.31206597222222 31  15.5 31  C 12.687934027777779 31  10.09450954861111 30.307074652777782  7.7197265625 28.921223958333336  C 5.344943576388889 27.53537326388889  3.4646267361111116 25.65505642361111  2.078776041666667 23.2802734375  C 0.6929253472222221 20.905490451388886  0 18.31206597222222  0 15.5  C 0 12.687934027777773  0.6929253472222221 10.094509548611107  2.078776041666667 7.7197265625  C 3.4646267361111116 5.344943576388888  5.344943576388889 3.464626736111108  7.7197265625 2.0787760416666656  C 10.09450954861111 0.6929253472222195  12.687934027777779 0  15.5 0  C 18.31206597222222 0  20.905490451388893 0.6929253472222195  23.2802734375 2.0787760416666656  C 25.65505642361111 3.464626736111108  27.535373263888893 5.344943576388888  28.921223958333336 7.7197265625  Z " fill-rule="evenodd" />
    </mask>
  </defs>
  <g transform="matrix(1 0 0 1 -3953 -1101 )">
    <path d="M 25.55078125 13.138671875  C 25.79296875 12.896484375  25.9140625 12.59375  25.9140625 12.23046875  C 25.9140625 11.85373263888889  25.79296875 11.544270833333334  25.55078125 11.302083333333334  L 23.714192708333336 9.485677083333334  C 23.458550347222225 9.23003472222222  23.155815972222225 9.102213541666666  22.805989583333336 9.102213541666666  C 22.456163194444446 9.102213541666666  22.153428819444446 9.23003472222222  21.897786458333336 9.485677083333334  L 13.663411458333332 17.699869791666668  L 9.102213541666668 13.138671875  C 8.846571180555555 12.88302951388889  8.543836805555555 12.755208333333334  8.194010416666668 12.755208333333334  C 7.844184027777779 12.755208333333334  7.541449652777778 12.88302951388889  7.285807291666666 13.138671875  L 5.44921875 14.955078125  C 5.20703125 15.197265625  5.085937500000001 15.506727430555554  5.0859375 15.88346354166667  C 5.085937500000001 16.246744791666668  5.20703125 16.549479166666668  5.44921875 16.791666666666668  L 12.755208333333332 24.09765625  C 13.010850694444446 24.353298611111107  13.313585069444446 24.481119791666664  13.663411458333332 24.481119791666664  C 14.026692708333332 24.481119791666664  14.336154513888891 24.353298611111107  14.591796875 24.09765625  L 25.55078125 13.138671875  Z M 28.921223958333336 7.7197265625  C 30.307074652777775 10.094509548611107  31 12.687934027777773  31 15.5  C 31 18.31206597222222  30.307074652777775 20.905490451388886  28.921223958333336 23.2802734375  C 27.535373263888893 25.65505642361111  25.65505642361111 27.53537326388889  23.2802734375 28.921223958333336  C 20.905490451388893 30.307074652777782  18.31206597222222 31  15.5 31  C 12.687934027777779 31  10.09450954861111 30.307074652777782  7.7197265625 28.921223958333336  C 5.344943576388889 27.53537326388889  3.4646267361111116 25.65505642361111  2.078776041666667 23.2802734375  C 0.6929253472222221 20.905490451388886  0 18.31206597222222  0 15.5  C 0 12.687934027777773  0.6929253472222221 10.094509548611107  2.078776041666667 7.7197265625  C 3.4646267361111116 5.344943576388888  5.344943576388889 3.464626736111108  7.7197265625 2.0787760416666656  C 10.09450954861111 0.6929253472222195  12.687934027777779 0  15.5 0  C 18.31206597222222 0  20.905490451388893 0.6929253472222195  23.2802734375 2.0787760416666656  C 25.65505642361111 3.464626736111108  27.535373263888893 5.344943576388888  28.921223958333336 7.7197265625  Z " fill-rule="nonzero" fill="rgba(85, 136, 3, 1)" stroke="none" transform="matrix(1 0 0 1 3953 1101 )" class="fill" />
    <path d="M 25.55078125 13.138671875  C 25.79296875 12.896484375  25.9140625 12.59375  25.9140625 12.23046875  C 25.9140625 11.85373263888889  25.79296875 11.544270833333334  25.55078125 11.302083333333334  L 23.714192708333336 9.485677083333334  C 23.458550347222225 9.23003472222222  23.155815972222225 9.102213541666666  22.805989583333336 9.102213541666666  C 22.456163194444446 9.102213541666666  22.153428819444446 9.23003472222222  21.897786458333336 9.485677083333334  L 13.663411458333332 17.699869791666668  L 9.102213541666668 13.138671875  C 8.846571180555555 12.88302951388889  8.543836805555555 12.755208333333334  8.194010416666668 12.755208333333334  C 7.844184027777779 12.755208333333334  7.541449652777778 12.88302951388889  7.285807291666666 13.138671875  L 5.44921875 14.955078125  C 5.20703125 15.197265625  5.085937500000001 15.506727430555554  5.0859375 15.88346354166667  C 5.085937500000001 16.246744791666668  5.20703125 16.549479166666668  5.44921875 16.791666666666668  L 12.755208333333332 24.09765625  C 13.010850694444446 24.353298611111107  13.313585069444446 24.481119791666664  13.663411458333332 24.481119791666664  C 14.026692708333332 24.481119791666664  14.336154513888891 24.353298611111107  14.591796875 24.09765625  L 25.55078125 13.138671875  Z " stroke-width="0" stroke-dasharray="0" stroke="rgba(255, 255, 255, 0)" fill="none" transform="matrix(1 0 0 1 3953 1101 )" class="stroke" mask="url(#Clip411)" />
    <path d="M 28.921223958333336 7.7197265625  C 30.307074652777775 10.094509548611107  31 12.687934027777773  31 15.5  C 31 18.31206597222222  30.307074652777775 20.905490451388886  28.921223958333336 23.2802734375  C 27.535373263888893 25.65505642361111  25.65505642361111 27.53537326388889  23.2802734375 28.921223958333336  C 20.905490451388893 30.307074652777782  18.31206597222222 31  15.5 31  C 12.687934027777779 31  10.09450954861111 30.307074652777782  7.7197265625 28.921223958333336  C 5.344943576388889 27.53537326388889  3.4646267361111116 25.65505642361111  2.078776041666667 23.2802734375  C 0.6929253472222221 20.905490451388886  0 18.31206597222222  0 15.5  C 0 12.687934027777773  0.6929253472222221 10.094509548611107  2.078776041666667 7.7197265625  C 3.4646267361111116 5.344943576388888  5.344943576388889 3.464626736111108  7.7197265625 2.0787760416666656  C 10.09450954861111 0.6929253472222195  12.687934027777779 0  15.5 0  C 18.31206597222222 0  20.905490451388893 0.6929253472222195  23.2802734375 2.0787760416666656  C 25.65505642361111 3.464626736111108  27.535373263888893 5.344943576388888  28.921223958333336 7.7197265625  Z " stroke-width="0" stroke-dasharray="0" stroke="rgba(255, 255, 255, 0)" fill="none" transform="matrix(1 0 0 1 3953 1101 )" class="stroke" mask="url(#Clip411)" />
  </g>
</svg>