<?xml version="1.0" encoding="utf-8"?>
<svg version="1.1" xmlns:xlink="http://www.w3.org/1999/xlink" width="19px" height="16px" xmlns="http://www.w3.org/2000/svg">
  <defs>
    <pattern id="BGPattern" patternUnits="userSpaceOnUse" alignment="0 0" imageRepeat="None" />
    <mask fill="white" id="Clip410">
      <path d="M 9.966517857142856 15.8125  C 9.839285714285715 15.9375  9.683779761904763 16  9.5 16  C 9.316220238095239 16  9.160714285714286 15.9375  9.033482142857142 15.8125  L 2.417410714285714 9.541666666666668  C 2.3467261904761907 9.48611111111111  2.2495349702380953 9.395833333333332  2.1258370535714284 9.270833333333332  C 2.002139136904762 9.145833333333332  1.8059895833333335 8.918402777777779  1.537388392857143 8.588541666666668  C 1.2687872023809523 8.258680555555554  1.0284598214285714 7.9201388888888875  0.81640625 7.572916666666666  C 0.6043526785714285 7.225694444444445  0.41527157738095244 6.805555555555555  0.24916294642857142 6.3125  C 0.08305431547619048 5.819444444444443  0 5.340277777777777  0 4.875  C 0 3.3472222222222214  0.4488467261904761 2.152777777777777  1.3465401785714286 1.291666666666666  C 2.2442336309523814 0.43055555555555536  3.4847470238095237 0  5.068080357142858 0  C 5.506324404761905 0  5.953404017857142 0.07465277777777679  6.409319196428572 0.22395833333333393  C 6.865234375 0.3732638888888875  7.289341517857142 0.5746527777777768  7.681640625 0.828125  C 8.07393973214286 1.0815972222222214  8.411458333333336 1.3194444444444429  8.694196428571429 1.541666666666666  C 8.976934523809526 1.7638888888888875  9.245535714285714 2  9.5 2.25  C 9.754464285714285 2  10.023065476190478 1.7638888888888875  10.305803571428571 1.541666666666666  C 10.588541666666668 1.3194444444444429  10.926060267857144 1.0815972222222214  11.318359375 0.828125  C 11.710658482142856 0.5746527777777768  12.134765625 0.3732638888888875  12.590680803571429 0.22395833333333393  C 13.046595982142856 0.07465277777777679  13.493675595238097 0  13.931919642857144 0  C 15.515252976190478 0  16.75576636904762 0.43055555555555536  17.653459821428573 1.291666666666666  C 18.551153273809526 2.152777777777777  19 3.3472222222222214  19 4.875  C 19 6.409722222222221  18.190662202380953 7.972222222222221  16.571986607142858 9.5625  L 9.966517857142856 15.8125  Z " fill-rule="evenodd" />
    </mask>
  </defs>
  <g transform="matrix(1 0 0 1 -4016 -995 )">
    <path d="M 9.966517857142856 15.8125  C 9.839285714285715 15.9375  9.683779761904763 16  9.5 16  C 9.316220238095239 16  9.160714285714286 15.9375  9.033482142857142 15.8125  L 2.417410714285714 9.541666666666668  C 2.3467261904761907 9.48611111111111  2.2495349702380953 9.395833333333332  2.1258370535714284 9.270833333333332  C 2.002139136904762 9.145833333333332  1.8059895833333335 8.918402777777779  1.537388392857143 8.588541666666668  C 1.2687872023809523 8.258680555555554  1.0284598214285714 7.9201388888888875  0.81640625 7.572916666666666  C 0.6043526785714285 7.225694444444445  0.41527157738095244 6.805555555555555  0.24916294642857142 6.3125  C 0.08305431547619048 5.819444444444443  0 5.340277777777777  0 4.875  C 0 3.3472222222222214  0.4488467261904761 2.152777777777777  1.3465401785714286 1.291666666666666  C 2.2442336309523814 0.43055555555555536  3.4847470238095237 0  5.068080357142858 0  C 5.506324404761905 0  5.953404017857142 0.07465277777777679  6.409319196428572 0.22395833333333393  C 6.865234375 0.3732638888888875  7.289341517857142 0.5746527777777768  7.681640625 0.828125  C 8.07393973214286 1.0815972222222214  8.411458333333336 1.3194444444444429  8.694196428571429 1.541666666666666  C 8.976934523809526 1.7638888888888875  9.245535714285714 2  9.5 2.25  C 9.754464285714285 2  10.023065476190478 1.7638888888888875  10.305803571428571 1.541666666666666  C 10.588541666666668 1.3194444444444429  10.926060267857144 1.0815972222222214  11.318359375 0.828125  C 11.710658482142856 0.5746527777777768  12.134765625 0.3732638888888875  12.590680803571429 0.22395833333333393  C 13.046595982142856 0.07465277777777679  13.493675595238097 0  13.931919642857144 0  C 15.515252976190478 0  16.75576636904762 0.43055555555555536  17.653459821428573 1.291666666666666  C 18.551153273809526 2.152777777777777  19 3.3472222222222214  19 4.875  C 19 6.409722222222221  18.190662202380953 7.972222222222221  16.571986607142858 9.5625  L 9.966517857142856 15.8125  Z " fill-rule="nonzero" fill="rgba(0, 0, 0, 1)" stroke="none" transform="matrix(1 0 0 1 4016 995 )" class="fill" />
    <path d="M 9.966517857142856 15.8125  C 9.839285714285715 15.9375  9.683779761904763 16  9.5 16  C 9.316220238095239 16  9.160714285714286 15.9375  9.033482142857142 15.8125  L 2.417410714285714 9.541666666666668  C 2.3467261904761907 9.48611111111111  2.2495349702380953 9.395833333333332  2.1258370535714284 9.270833333333332  C 2.002139136904762 9.145833333333332  1.8059895833333335 8.918402777777779  1.537388392857143 8.588541666666668  C 1.2687872023809523 8.258680555555554  1.0284598214285714 7.9201388888888875  0.81640625 7.572916666666666  C 0.6043526785714285 7.225694444444445  0.41527157738095244 6.805555555555555  0.24916294642857142 6.3125  C 0.08305431547619048 5.819444444444443  0 5.340277777777777  0 4.875  C 0 3.3472222222222214  0.4488467261904761 2.152777777777777  1.3465401785714286 1.291666666666666  C 2.2442336309523814 0.43055555555555536  3.4847470238095237 0  5.068080357142858 0  C 5.506324404761905 0  5.953404017857142 0.07465277777777679  6.409319196428572 0.22395833333333393  C 6.865234375 0.3732638888888875  7.289341517857142 0.5746527777777768  7.681640625 0.828125  C 8.07393973214286 1.0815972222222214  8.411458333333336 1.3194444444444429  8.694196428571429 1.541666666666666  C 8.976934523809526 1.7638888888888875  9.245535714285714 2  9.5 2.25  C 9.754464285714285 2  10.023065476190478 1.7638888888888875  10.305803571428571 1.541666666666666  C 10.588541666666668 1.3194444444444429  10.926060267857144 1.0815972222222214  11.318359375 0.828125  C 11.710658482142856 0.5746527777777768  12.134765625 0.3732638888888875  12.590680803571429 0.22395833333333393  C 13.046595982142856 0.07465277777777679  13.493675595238097 0  13.931919642857144 0  C 15.515252976190478 0  16.75576636904762 0.43055555555555536  17.653459821428573 1.291666666666666  C 18.551153273809526 2.152777777777777  19 3.3472222222222214  19 4.875  C 19 6.409722222222221  18.190662202380953 7.972222222222221  16.571986607142858 9.5625  L 9.966517857142856 15.8125  Z " stroke-width="0" stroke-dasharray="0" stroke="rgba(255, 255, 255, 0)" fill="none" transform="matrix(1 0 0 1 4016 995 )" class="stroke" mask="url(#Clip410)" />
  </g>
</svg>