<?xml version="1.0" encoding="utf-8"?>
<svg version="1.1" xmlns:xlink="http://www.w3.org/1999/xlink" width="15px" height="15px" xmlns="http://www.w3.org/2000/svg">
  <defs>
    <pattern id="BGPattern" patternUnits="userSpaceOnUse" alignment="0 0" imageRepeat="None" />
  </defs>
  <g transform="matrix(1 0 0 1 -4936 -1043 )">
    <path d="M 7.5 0  C 11.700000000000001 0  15 3.3  15 7.5  C 15 11.700000000000001  11.700000000000001 15  7.5 15  C 3.3 15  0 11.700000000000001  0 7.5  C 0 3.3  3.3 0  7.5 0  Z " fill-rule="nonzero" fill="rgba(240, 240, 240, 1)" stroke="none" transform="matrix(1 0 0 1 4936 1043 )" class="fill" />
    <path d="M 7.5 0.5  C 11.42 0.5  14.5 3.5799999999999996  14.5 7.5  C 14.5 11.42  11.42 14.5  7.5 14.5  C 3.5799999999999996 14.5  0.5 11.42  0.5 7.5  C 0.5 3.5799999999999996  3.5799999999999996 0.5  7.5 0.5  Z " stroke-width="1" stroke-dasharray="0" stroke="rgba(2, 151, 215, 1)" fill="none" transform="matrix(1 0 0 1 4936 1043 )" class="stroke" stroke-dashoffset="0.5" />
    <path d="M 7.5 11.25  C 5.4 11.25  3.75 9.6  3.75 7.5  C 3.75 5.4  5.4 3.75  7.5 3.75  C 9.6 3.75  11.25 5.4  11.25 7.5  C 11.25 9.6  9.6 11.25  7.5 11.25  " fill-rule="nonzero" fill="rgba(2, 151, 215, 1)" stroke="none" transform="matrix(1 0 0 1 4936 1043 )" class="stroke btn_check" />
  </g>
</svg>