<?xml version="1.0" encoding="utf-8"?>
<svg version="1.1" xmlns:xlink="http://www.w3.org/1999/xlink" width="20px" height="19px" xmlns="http://www.w3.org/2000/svg">
  <defs>
    <pattern id="BGPattern" patternUnits="userSpaceOnUse" alignment="0 0" imageRepeat="None" />
    <mask fill="white" id="Clip414">
      <path d="M 12.265625 11.65234375  C 13.319310897435898 10.651342147435896  13.846153846153847 9.446714743589743  13.846153846153847 8.03846153846154  C 13.846153846153847 6.630208333333332  13.319310897435898 5.425580929487179  12.265625 4.424579326923077  C 11.211939102564104 3.423577724358973  9.943910256410257 2.9230769230769234  8.461538461538462 2.9230769230769234  C 6.979166666666668 2.9230769230769234  5.711137820512821 3.423577724358973  4.657451923076923 4.424579326923077  C 3.603766025641026 5.425580929487179  3.076923076923077 6.630208333333332  3.076923076923077 8.03846153846154  C 3.076923076923077 9.446714743589743  3.603766025641026 10.651342147435896  4.657451923076923 11.65234375  C 5.711137820512821 12.653345352564099  6.979166666666668 13.153846153846153  8.461538461538462 13.153846153846153  C 9.943910256410257 13.153846153846153  11.211939102564104 12.653345352564099  12.265625 11.65234375  Z M 19.555288461538463 16.510817307692307  C 19.85176282051282 16.79246794871795  20 17.135016025641026  20 17.53846153846154  C 20 17.934294871794872  19.847756410256412 18.27684294871795  19.54326923076923 18.56610576923077  C 19.23878205128205 18.855368589743588  18.87820512820513 19  18.461538461538463 19  C 18.028846153846153 19  17.66826923076923 18.855368589743588  17.379807692307693 18.56610576923077  L 13.257211538461537 14.661057692307693  C 11.822916666666668 15.60496794871795  10.224358974358976 16.076923076923077  8.461538461538462 16.076923076923077  C 7.315705128205129 16.076923076923077  6.219951923076923 15.865685096153847  5.174278846153846 15.443209134615387  C 4.128605769230769 15.020733173076923  3.2271634615384617 14.44981971153846  2.4699519230769234 13.73046875  C 1.7127403846153846 13.01111778846154  1.1117788461538463 12.154747596153847  0.6670673076923077 11.161358173076923  C 0.22235576923076925 10.16796875  0 9.127003205128203  0 8.03846153846154  C 0 6.94991987179487  0.22235576923076925 5.908954326923077  0.6670673076923077 4.915564903846153  C 1.1117788461538463 3.9221754807692304  1.7127403846153846 3.065805288461539  2.4699519230769234 2.3464543269230766  C 3.2271634615384617 1.6271033653846163  4.128605769230769 1.0561899038461535  5.174278846153846 0.633713942307693  C 6.219951923076923 0.21123798076923028  7.315705128205129 0  8.461538461538462 0  C 9.607371794871796 0  10.703125 0.21123798076923028  11.748798076923077 0.633713942307693  C 12.794471153846153 1.0561899038461535  13.695913461538463 1.6271033653846163  14.453125 2.3464543269230766  C 15.210336538461537 3.065805288461539  15.811298076923077 3.9221754807692304  16.256009615384613 4.915564903846153  C 16.700721153846153 5.908954326923077  16.923076923076923 6.94991987179487  16.923076923076923 8.03846153846154  C 16.923076923076923 9.713141025641026  16.42628205128205 11.231770833333332  15.432692307692308 12.59435096153846  L 19.555288461538463 16.510817307692307  Z " fill-rule="evenodd" />
    </mask>
  </defs>
  <g transform="matrix(1 0 0 1 -7992 -862 )">
    <path d="M 12.265625 11.65234375  C 13.319310897435898 10.651342147435896  13.846153846153847 9.446714743589743  13.846153846153847 8.03846153846154  C 13.846153846153847 6.630208333333332  13.319310897435898 5.425580929487179  12.265625 4.424579326923077  C 11.211939102564104 3.423577724358973  9.943910256410257 2.9230769230769234  8.461538461538462 2.9230769230769234  C 6.979166666666668 2.9230769230769234  5.711137820512821 3.423577724358973  4.657451923076923 4.424579326923077  C 3.603766025641026 5.425580929487179  3.076923076923077 6.630208333333332  3.076923076923077 8.03846153846154  C 3.076923076923077 9.446714743589743  3.603766025641026 10.651342147435896  4.657451923076923 11.65234375  C 5.711137820512821 12.653345352564099  6.979166666666668 13.153846153846153  8.461538461538462 13.153846153846153  C 9.943910256410257 13.153846153846153  11.211939102564104 12.653345352564099  12.265625 11.65234375  Z M 19.555288461538463 16.510817307692307  C 19.85176282051282 16.79246794871795  20 17.135016025641026  20 17.53846153846154  C 20 17.934294871794872  19.847756410256412 18.27684294871795  19.54326923076923 18.56610576923077  C 19.23878205128205 18.855368589743588  18.87820512820513 19  18.461538461538463 19  C 18.028846153846153 19  17.66826923076923 18.855368589743588  17.379807692307693 18.56610576923077  L 13.257211538461537 14.661057692307693  C 11.822916666666668 15.60496794871795  10.224358974358976 16.076923076923077  8.461538461538462 16.076923076923077  C 7.315705128205129 16.076923076923077  6.219951923076923 15.865685096153847  5.174278846153846 15.443209134615387  C 4.128605769230769 15.020733173076923  3.2271634615384617 14.44981971153846  2.4699519230769234 13.73046875  C 1.7127403846153846 13.01111778846154  1.1117788461538463 12.154747596153847  0.6670673076923077 11.161358173076923  C 0.22235576923076925 10.16796875  0 9.127003205128203  0 8.03846153846154  C 0 6.94991987179487  0.22235576923076925 5.908954326923077  0.6670673076923077 4.915564903846153  C 1.1117788461538463 3.9221754807692304  1.7127403846153846 3.065805288461539  2.4699519230769234 2.3464543269230766  C 3.2271634615384617 1.6271033653846163  4.128605769230769 1.0561899038461535  5.174278846153846 0.633713942307693  C 6.219951923076923 0.21123798076923028  7.315705128205129 0  8.461538461538462 0  C 9.607371794871796 0  10.703125 0.21123798076923028  11.748798076923077 0.633713942307693  C 12.794471153846153 1.0561899038461535  13.695913461538463 1.6271033653846163  14.453125 2.3464543269230766  C 15.210336538461537 3.065805288461539  15.811298076923077 3.9221754807692304  16.256009615384613 4.915564903846153  C 16.700721153846153 5.908954326923077  16.923076923076923 6.94991987179487  16.923076923076923 8.03846153846154  C 16.923076923076923 9.713141025641026  16.42628205128205 11.231770833333332  15.432692307692308 12.59435096153846  L 19.555288461538463 16.510817307692307  Z " fill-rule="nonzero" fill="rgba(255, 255, 255, 1)" stroke="none" transform="matrix(1 0 0 1 7992 862 )" class="fill" />
    <path d="M 12.265625 11.65234375  C 13.319310897435898 10.651342147435896  13.846153846153847 9.446714743589743  13.846153846153847 8.03846153846154  C 13.846153846153847 6.630208333333332  13.319310897435898 5.425580929487179  12.265625 4.424579326923077  C 11.211939102564104 3.423577724358973  9.943910256410257 2.9230769230769234  8.461538461538462 2.9230769230769234  C 6.979166666666668 2.9230769230769234  5.711137820512821 3.423577724358973  4.657451923076923 4.424579326923077  C 3.603766025641026 5.425580929487179  3.076923076923077 6.630208333333332  3.076923076923077 8.03846153846154  C 3.076923076923077 9.446714743589743  3.603766025641026 10.651342147435896  4.657451923076923 11.65234375  C 5.711137820512821 12.653345352564099  6.979166666666668 13.153846153846153  8.461538461538462 13.153846153846153  C 9.943910256410257 13.153846153846153  11.211939102564104 12.653345352564099  12.265625 11.65234375  Z " stroke-width="0" stroke-dasharray="0" stroke="rgba(255, 255, 255, 0)" fill="none" transform="matrix(1 0 0 1 7992 862 )" class="stroke" mask="url(#Clip414)" />
    <path d="M 19.555288461538463 16.510817307692307  C 19.85176282051282 16.79246794871795  20 17.135016025641026  20 17.53846153846154  C 20 17.934294871794872  19.847756410256412 18.27684294871795  19.54326923076923 18.56610576923077  C 19.23878205128205 18.855368589743588  18.87820512820513 19  18.461538461538463 19  C 18.028846153846153 19  17.66826923076923 18.855368589743588  17.379807692307693 18.56610576923077  L 13.257211538461537 14.661057692307693  C 11.822916666666668 15.60496794871795  10.224358974358976 16.076923076923077  8.461538461538462 16.076923076923077  C 7.315705128205129 16.076923076923077  6.219951923076923 15.865685096153847  5.174278846153846 15.443209134615387  C 4.128605769230769 15.020733173076923  3.2271634615384617 14.44981971153846  2.4699519230769234 13.73046875  C 1.7127403846153846 13.01111778846154  1.1117788461538463 12.154747596153847  0.6670673076923077 11.161358173076923  C 0.22235576923076925 10.16796875  0 9.127003205128203  0 8.03846153846154  C 0 6.94991987179487  0.22235576923076925 5.908954326923077  0.6670673076923077 4.915564903846153  C 1.1117788461538463 3.9221754807692304  1.7127403846153846 3.065805288461539  2.4699519230769234 2.3464543269230766  C 3.2271634615384617 1.6271033653846163  4.128605769230769 1.0561899038461535  5.174278846153846 0.633713942307693  C 6.219951923076923 0.21123798076923028  7.315705128205129 0  8.461538461538462 0  C 9.607371794871796 0  10.703125 0.21123798076923028  11.748798076923077 0.633713942307693  C 12.794471153846153 1.0561899038461535  13.695913461538463 1.6271033653846163  14.453125 2.3464543269230766  C 15.210336538461537 3.065805288461539  15.811298076923077 3.9221754807692304  16.256009615384613 4.915564903846153  C 16.700721153846153 5.908954326923077  16.923076923076923 6.94991987179487  16.923076923076923 8.03846153846154  C 16.923076923076923 9.713141025641026  16.42628205128205 11.231770833333332  15.432692307692308 12.59435096153846  L 19.555288461538463 16.510817307692307  Z " stroke-width="0" stroke-dasharray="0" stroke="rgba(255, 255, 255, 0)" fill="none" transform="matrix(1 0 0 1 7992 862 )" class="stroke" mask="url(#Clip414)" />
  </g>
</svg>