<?xml version="1.0" encoding="utf-8"?>
<svg version="1.1" xmlns:xlink="http://www.w3.org/1999/xlink" width="26px" height="20px" xmlns="http://www.w3.org/2000/svg">
  <defs>
    <pattern id="BGPattern" patternUnits="userSpaceOnUse" alignment="0 0" imageRepeat="None" />
    <mask fill="white" id="Clip421">
      <path d="M 13.638392857142856 19.765625  C 13.464285714285715 19.921875  13.251488095238095 20  13 20  C 12.748511904761905 20  12.535714285714288 19.921875  12.361607142857142 19.765625  L 3.308035714285714 11.927083333333336  C 3.2113095238095237 11.85763888888889  3.0783110119047623 11.744791666666664  2.9090401785714284 11.588541666666664  C 2.7397693452380953 11.432291666666664  2.471354166666667 11.148003472222223  2.103794642857143 10.735677083333336  C 1.736235119047619 10.323350694444443  1.4073660714285714 9.900173611111109  1.1171875 9.466145833333332  C 0.8270089285714285 9.032118055555555  0.5682663690476191 8.506944444444445  0.34095982142857145 7.890625  C 0.11365327380952381 7.274305555555554  0 6.675347222222221  0 6.09375  C 0 4.184027777777777  0.6142113095238094 2.690972222222221  1.8426339285714286 1.6145833333333326  C 3.071056547619048 0.5381944444444442  4.76860119047619 0  6.935267857142858 0  C 7.534970238095238 0  8.146763392857142 0.09331597222222099  8.770647321428571 0.2799479166666674  C 9.39453125 0.4665798611111094  9.974888392857142 0.718315972222221  10.51171875 1.03515625  C 11.04854910714286 1.3519965277777768  11.51041666666667 1.6493055555555536  11.897321428571429 1.9270833333333326  C 12.284226190476192 2.2048611111111094  12.651785714285714 2.5  13 2.8125  C 13.348214285714285 2.5  13.715773809523812 2.2048611111111094  14.102678571428571 1.9270833333333326  C 14.489583333333336 1.6493055555555536  14.951450892857144 1.3519965277777768  15.48828125 1.03515625  C 16.025111607142858 0.718315972222221  16.60546875 0.4665798611111094  17.229352678571427 0.2799479166666674  C 17.853236607142858 0.09331597222222099  18.465029761904763 0  19.064732142857142 0  C 21.23139880952381 0  22.928943452380956 0.5381944444444442  24.157366071428573 1.6145833333333326  C 25.38578869047619 2.690972222222221  26 4.184027777777777  26 6.09375  C 26 8.012152777777777  24.89248511904762 9.965277777777777  22.677455357142858 11.953125  L 13.638392857142856 19.765625  Z " fill-rule="evenodd" />
    </mask>
  </defs>
  <g transform="matrix(1 0 0 1 -5986 -1004 )">
    <path d="M 13.638392857142856 19.765625  C 13.464285714285715 19.921875  13.251488095238095 20  13 20  C 12.748511904761905 20  12.535714285714288 19.921875  12.361607142857142 19.765625  L 3.308035714285714 11.927083333333336  C 3.2113095238095237 11.85763888888889  3.0783110119047623 11.744791666666664  2.9090401785714284 11.588541666666664  C 2.7397693452380953 11.432291666666664  2.471354166666667 11.148003472222223  2.103794642857143 10.735677083333336  C 1.736235119047619 10.323350694444443  1.4073660714285714 9.900173611111109  1.1171875 9.466145833333332  C 0.8270089285714285 9.032118055555555  0.5682663690476191 8.506944444444445  0.34095982142857145 7.890625  C 0.11365327380952381 7.274305555555554  0 6.675347222222221  0 6.09375  C 0 4.184027777777777  0.6142113095238094 2.690972222222221  1.8426339285714286 1.6145833333333326  C 3.071056547619048 0.5381944444444442  4.76860119047619 0  6.935267857142858 0  C 7.534970238095238 0  8.146763392857142 0.09331597222222099  8.770647321428571 0.2799479166666674  C 9.39453125 0.4665798611111094  9.974888392857142 0.718315972222221  10.51171875 1.03515625  C 11.04854910714286 1.3519965277777768  11.51041666666667 1.6493055555555536  11.897321428571429 1.9270833333333326  C 12.284226190476192 2.2048611111111094  12.651785714285714 2.5  13 2.8125  C 13.348214285714285 2.5  13.715773809523812 2.2048611111111094  14.102678571428571 1.9270833333333326  C 14.489583333333336 1.6493055555555536  14.951450892857144 1.3519965277777768  15.48828125 1.03515625  C 16.025111607142858 0.718315972222221  16.60546875 0.4665798611111094  17.229352678571427 0.2799479166666674  C 17.853236607142858 0.09331597222222099  18.465029761904763 0  19.064732142857142 0  C 21.23139880952381 0  22.928943452380956 0.5381944444444442  24.157366071428573 1.6145833333333326  C 25.38578869047619 2.690972222222221  26 4.184027777777777  26 6.09375  C 26 8.012152777777777  24.89248511904762 9.965277777777777  22.677455357142858 11.953125  L 13.638392857142856 19.765625  Z " fill-rule="nonzero" fill="rgba(0, 0, 0, 1)" stroke="none" transform="matrix(1 0 0 1 5986 1004 )" class="fill" />
    <path d="M 13.638392857142856 19.765625  C 13.464285714285715 19.921875  13.251488095238095 20  13 20  C 12.748511904761905 20  12.535714285714288 19.921875  12.361607142857142 19.765625  L 3.308035714285714 11.927083333333336  C 3.2113095238095237 11.85763888888889  3.0783110119047623 11.744791666666664  2.9090401785714284 11.588541666666664  C 2.7397693452380953 11.432291666666664  2.471354166666667 11.148003472222223  2.103794642857143 10.735677083333336  C 1.736235119047619 10.323350694444443  1.4073660714285714 9.900173611111109  1.1171875 9.466145833333332  C 0.8270089285714285 9.032118055555555  0.5682663690476191 8.506944444444445  0.34095982142857145 7.890625  C 0.11365327380952381 7.274305555555554  0 6.675347222222221  0 6.09375  C 0 4.184027777777777  0.6142113095238094 2.690972222222221  1.8426339285714286 1.6145833333333326  C 3.071056547619048 0.5381944444444442  4.76860119047619 0  6.935267857142858 0  C 7.534970238095238 0  8.146763392857142 0.09331597222222099  8.770647321428571 0.2799479166666674  C 9.39453125 0.4665798611111094  9.974888392857142 0.718315972222221  10.51171875 1.03515625  C 11.04854910714286 1.3519965277777768  11.51041666666667 1.6493055555555536  11.897321428571429 1.9270833333333326  C 12.284226190476192 2.2048611111111094  12.651785714285714 2.5  13 2.8125  C 13.348214285714285 2.5  13.715773809523812 2.2048611111111094  14.102678571428571 1.9270833333333326  C 14.489583333333336 1.6493055555555536  14.951450892857144 1.3519965277777768  15.48828125 1.03515625  C 16.025111607142858 0.718315972222221  16.60546875 0.4665798611111094  17.229352678571427 0.2799479166666674  C 17.853236607142858 0.09331597222222099  18.465029761904763 0  19.064732142857142 0  C 21.23139880952381 0  22.928943452380956 0.5381944444444442  24.157366071428573 1.6145833333333326  C 25.38578869047619 2.690972222222221  26 4.184027777777777  26 6.09375  C 26 8.012152777777777  24.89248511904762 9.965277777777777  22.677455357142858 11.953125  L 13.638392857142856 19.765625  Z " stroke-width="0" stroke-dasharray="0" stroke="rgba(255, 255, 255, 0)" fill="none" transform="matrix(1 0 0 1 5986 1004 )" class="stroke" mask="url(#Clip421)" />
  </g>
</svg>