<?xml version="1.0" encoding="utf-8"?>
<svg version="1.1" xmlns:xlink="http://www.w3.org/1999/xlink" width="18px" height="18px" xmlns="http://www.w3.org/2000/svg">
  <defs>
    <pattern id="BGPattern" patternUnits="userSpaceOnUse" alignment="0 0" imageRepeat="None" />
    <mask fill="white" id="Clip423">
      <path d="M 9.185382059800663 10.804687500000002  L 9.185382059800663 7.710937499999999  L 17.856478405315613 7.710937499999999  C 17.952159468438538 8.234375  18 8.734374999999998  18 9.2109375  C 18 10.906249999999998  17.637209302325584 12.419921874999998  16.911627906976744 13.751953125  C 16.18604651162791 15.083984375000002  15.151495016611298 16.125  13.807973421926912 16.875  C 12.464451827242526 17.625  10.92358803986711 18  9.185382059800663 18  C 7.933554817275748 18  6.741528239202658 17.763671875  5.609302325581395 17.291015625  C 4.477076411960134 16.818359375  3.500332225913622 16.1796875  2.6790697674418604 15.375  C 1.8578073089700995 14.570312499999998  1.2059800664451827 13.61328125  0.7235880398671097 12.503906249999998  C 0.24119601328903653 11.39453125  0 10.2265625  0 9  C 0 7.773437499999999  0.24119601328903653 6.605468749999999  0.7235880398671097 5.496093749999999  C 1.2059800664451827 4.38671875  1.8578073089700995 3.4296874999999973  2.6790697674418604 2.625000000000001  C 3.500332225913622 1.8203124999999998  4.477076411960134 1.1816406249999991  5.609302325581395 0.7089843750000007  C 6.741528239202658 0.23632812499999822  7.933554817275748 0  9.185382059800663 0  C 11.577408637873756 0  13.630564784053158 0.7851562499999993  15.34485049833887 2.35546875  L 12.845182724252492 4.7109375  C 11.864451827242526 3.7812499999999973  10.644518272425252 3.316406249999999  9.185382059800663 3.316406249999999  C 8.156810631229236 3.316406249999999  7.205980066445183 3.5703124999999973  6.332890365448504 4.078125  C 5.459800664451827 4.585937499999998  4.7681063122923595 5.275390624999997  4.2578073089701 6.146484374999999  C 3.7475083056478407 7.017578124999999  3.4923588039867113 7.968750000000001  3.4923588039867113 9  C 3.4923588039867113 10.031250000000002  3.7475083056478407 10.982421874999996  4.2578073089701 11.853515624999998  C 4.7681063122923595 12.724609375  5.459800664451827 13.4140625  6.332890365448504 13.921875  C 7.205980066445183 14.429687499999998  8.156810631229236 14.68359375  9.185382059800663 14.68359375  C 9.87906976744186 14.68359375  10.516943521594685 14.58984375  11.099003322259136 14.40234375  C 11.681063122923588 14.21484375  12.159468438538207 13.98046875  12.53421926910299 13.69921875  C 12.908970099667775 13.417968749999998  13.235880398671096 13.09765625  13.514950166112957 12.738281250000002  C 13.794019933554818 12.37890625  13.999335548172757 12.0390625  14.130897009966777 11.718750000000002  C 14.262458471760798 11.398437499999998  14.352159468438538 11.09375  14.4 10.804687500000002  L 9.185382059800663 10.804687500000002  Z " fill-rule="evenodd" />
    </mask>
  </defs>
  <g transform="matrix(1 0 0 1 -3702 -358 )">
    <path d="M 9.185382059800663 10.804687500000002  L 9.185382059800663 7.710937499999999  L 17.856478405315613 7.710937499999999  C 17.952159468438538 8.234375  18 8.734374999999998  18 9.2109375  C 18 10.906249999999998  17.637209302325584 12.419921874999998  16.911627906976744 13.751953125  C 16.18604651162791 15.083984375000002  15.151495016611298 16.125  13.807973421926912 16.875  C 12.464451827242526 17.625  10.92358803986711 18  9.185382059800663 18  C 7.933554817275748 18  6.741528239202658 17.763671875  5.609302325581395 17.291015625  C 4.477076411960134 16.818359375  3.500332225913622 16.1796875  2.6790697674418604 15.375  C 1.8578073089700995 14.570312499999998  1.2059800664451827 13.61328125  0.7235880398671097 12.503906249999998  C 0.24119601328903653 11.39453125  0 10.2265625  0 9  C 0 7.773437499999999  0.24119601328903653 6.605468749999999  0.7235880398671097 5.496093749999999  C 1.2059800664451827 4.38671875  1.8578073089700995 3.4296874999999973  2.6790697674418604 2.625000000000001  C 3.500332225913622 1.8203124999999998  4.477076411960134 1.1816406249999991  5.609302325581395 0.7089843750000007  C 6.741528239202658 0.23632812499999822  7.933554817275748 0  9.185382059800663 0  C 11.577408637873756 0  13.630564784053158 0.7851562499999993  15.34485049833887 2.35546875  L 12.845182724252492 4.7109375  C 11.864451827242526 3.7812499999999973  10.644518272425252 3.316406249999999  9.185382059800663 3.316406249999999  C 8.156810631229236 3.316406249999999  7.205980066445183 3.5703124999999973  6.332890365448504 4.078125  C 5.459800664451827 4.585937499999998  4.7681063122923595 5.275390624999997  4.2578073089701 6.146484374999999  C 3.7475083056478407 7.017578124999999  3.4923588039867113 7.968750000000001  3.4923588039867113 9  C 3.4923588039867113 10.031250000000002  3.7475083056478407 10.982421874999996  4.2578073089701 11.853515624999998  C 4.7681063122923595 12.724609375  5.459800664451827 13.4140625  6.332890365448504 13.921875  C 7.205980066445183 14.429687499999998  8.156810631229236 14.68359375  9.185382059800663 14.68359375  C 9.87906976744186 14.68359375  10.516943521594685 14.58984375  11.099003322259136 14.40234375  C 11.681063122923588 14.21484375  12.159468438538207 13.98046875  12.53421926910299 13.69921875  C 12.908970099667775 13.417968749999998  13.235880398671096 13.09765625  13.514950166112957 12.738281250000002  C 13.794019933554818 12.37890625  13.999335548172757 12.0390625  14.130897009966777 11.718750000000002  C 14.262458471760798 11.398437499999998  14.352159468438538 11.09375  14.4 10.804687500000002  L 9.185382059800663 10.804687500000002  Z " fill-rule="nonzero" fill="rgba(0, 0, 0, 1)" stroke="none" transform="matrix(1 0 0 1 3702 358 )" class="fill" />
    <path d="M 9.185382059800663 10.804687500000002  L 9.185382059800663 7.710937499999999  L 17.856478405315613 7.710937499999999  C 17.952159468438538 8.234375  18 8.734374999999998  18 9.2109375  C 18 10.906249999999998  17.637209302325584 12.419921874999998  16.911627906976744 13.751953125  C 16.18604651162791 15.083984375000002  15.151495016611298 16.125  13.807973421926912 16.875  C 12.464451827242526 17.625  10.92358803986711 18  9.185382059800663 18  C 7.933554817275748 18  6.741528239202658 17.763671875  5.609302325581395 17.291015625  C 4.477076411960134 16.818359375  3.500332225913622 16.1796875  2.6790697674418604 15.375  C 1.8578073089700995 14.570312499999998  1.2059800664451827 13.61328125  0.7235880398671097 12.503906249999998  C 0.24119601328903653 11.39453125  0 10.2265625  0 9  C 0 7.773437499999999  0.24119601328903653 6.605468749999999  0.7235880398671097 5.496093749999999  C 1.2059800664451827 4.38671875  1.8578073089700995 3.4296874999999973  2.6790697674418604 2.625000000000001  C 3.500332225913622 1.8203124999999998  4.477076411960134 1.1816406249999991  5.609302325581395 0.7089843750000007  C 6.741528239202658 0.23632812499999822  7.933554817275748 0  9.185382059800663 0  C 11.577408637873756 0  13.630564784053158 0.7851562499999993  15.34485049833887 2.35546875  L 12.845182724252492 4.7109375  C 11.864451827242526 3.7812499999999973  10.644518272425252 3.316406249999999  9.185382059800663 3.316406249999999  C 8.156810631229236 3.316406249999999  7.205980066445183 3.5703124999999973  6.332890365448504 4.078125  C 5.459800664451827 4.585937499999998  4.7681063122923595 5.275390624999997  4.2578073089701 6.146484374999999  C 3.7475083056478407 7.017578124999999  3.4923588039867113 7.968750000000001  3.4923588039867113 9  C 3.4923588039867113 10.031250000000002  3.7475083056478407 10.982421874999996  4.2578073089701 11.853515624999998  C 4.7681063122923595 12.724609375  5.459800664451827 13.4140625  6.332890365448504 13.921875  C 7.205980066445183 14.429687499999998  8.156810631229236 14.68359375  9.185382059800663 14.68359375  C 9.87906976744186 14.68359375  10.516943521594685 14.58984375  11.099003322259136 14.40234375  C 11.681063122923588 14.21484375  12.159468438538207 13.98046875  12.53421926910299 13.69921875  C 12.908970099667775 13.417968749999998  13.235880398671096 13.09765625  13.514950166112957 12.738281250000002  C 13.794019933554818 12.37890625  13.999335548172757 12.0390625  14.130897009966777 11.718750000000002  C 14.262458471760798 11.398437499999998  14.352159468438538 11.09375  14.4 10.804687500000002  L 9.185382059800663 10.804687500000002  Z " stroke-width="0" stroke-dasharray="0" stroke="rgba(255, 255, 255, 0)" fill="none" transform="matrix(1 0 0 1 3702 358 )" class="stroke" mask="url(#Clip423)" />
  </g>
</svg>