<?xml version="1.0" encoding="utf-8"?>
<svg version="1.1" xmlns:xlink="http://www.w3.org/1999/xlink" width="13px" height="13px" xmlns="http://www.w3.org/2000/svg">
  <defs>
    <pattern id="BGPattern" patternUnits="userSpaceOnUse" alignment="0 0" imageRepeat="None" />
    <mask fill="white" id="Clip425">
      <path d="M 3.975446428571429 0.5150669642857141  C 4.77827380952381 0.17168898809523803  5.619791666666667 0  6.5 0  C 7.380208333333334 0  8.221726190476192 0.17168898809523803  9.024553571428571 0.5150669642857141  C 9.827380952380954 0.8584449404761901  10.518973214285714 1.3203125  11.099330357142858 1.9006696428571423  C 11.679687500000002 2.481026785714286  12.141555059523812 3.1726190476190466  12.484933035714286 3.975446428571428  C 12.828311011904763 4.778273809523808  13 5.619791666666666  13 6.5  C 13 7.375372023809524  12.829520089285714 8.214471726190476  12.488560267857142 9.017299107142856  C 12.147600446428571 9.820126488095239  11.686941964285714 10.51171875  11.106584821428571 11.092075892857144  C 10.526227678571429 11.672433035714286  9.834635416666668 12.135509672619046  9.031808035714286 12.481305803571429  C 8.228980654761905 12.82710193452381  7.385044642857142 13  6.5 13  C 5.614955357142857 13  4.771019345238096 12.828311011904763  3.968191964285714 12.484933035714286  C 3.1653645833333335 12.14155505952381  2.4749813988095237 11.678478422619046  1.8970424107142856 11.095703125  C 1.3191034226190474 10.512927827380953  0.8584449404761905 9.82133556547619  0.5150669642857143 9.020926339285714  C 0.17168898809523808 8.220517113095237  0 7.380208333333332  0 6.5  C 0 5.619791666666666  0.17168898809523808 4.778273809523808  0.5150669642857143 3.975446428571428  C 0.8584449404761905 3.1726190476190466  1.3203125 2.481026785714286  1.900669642857143 1.9006696428571423  C 2.4810267857142856 1.3203125  3.172619047619048 0.8584449404761901  3.975446428571429 0.5150669642857141  Z M 8.770647321428571 7.428571428571428  C 9.931361607142858 7.428571428571428  10.671316964285714 8.219308035714286  10.990513392857142 9.80078125  C 11.711123511904763 8.809337797619047  12.071428571428571 7.7090773809523805  12.071428571428571 6.5  C 12.071428571428571 5.745535714285714  11.923921130952381 5.024925595238094  11.62890625 4.338169642857142  C 11.33389136904762 3.6514136904761902  10.93731398809524 3.0589657738095224  10.439174107142858 2.5608258928571423  C 9.941034226190478 2.062686011904762  9.34858630952381 1.6661086309523803  8.661830357142858 1.37109375  C 7.975074404761906 1.0760788690476182  7.254464285714286 0.9285714285714282  6.5 0.9285714285714282  C 5.745535714285714 0.9285714285714282  5.024925595238096 1.0760788690476182  4.338169642857143 1.37109375  C 3.6514136904761907 1.6661086309523803  3.058965773809524 2.062686011904762  2.560825892857143 2.5608258928571423  C 2.0626860119047623 3.0589657738095224  1.666108630952381 3.6514136904761902  1.37109375 4.338169642857142  C 1.0760788690476193 5.024925595238094  0.9285714285714285 5.745535714285714  0.9285714285714285 6.5  C 0.9285714285714285 7.7090773809523805  1.2888764880952381 8.809337797619047  2.009486607142857 9.80078125  C 2.3286830357142856 8.219308035714286  3.068638392857143 7.428571428571428  4.229352678571429 7.428571428571428  C 4.862909226190477 8.047619047619047  5.619791666666667 8.357142857142856  6.5 8.357142857142856  C 7.380208333333334 8.357142857142856  8.137090773809524 8.047619047619047  8.770647321428571 7.428571428571428  Z M 8.469587053571429 7.076729910714286  C 9.013671875 6.532645089285714  9.285714285714286 5.876116071428572  9.285714285714286 5.107142857142858  C 9.285714285714286 4.338169642857142  9.013671875 3.681640625  8.469587053571429 3.137555803571428  C 7.925502232142858 2.5934709821428577  7.268973214285714 2.321428571428572  6.5 2.321428571428572  C 5.731026785714286 2.321428571428572  5.074497767857143 2.5934709821428577  4.530412946428571 3.137555803571428  C 3.986328125 3.681640625  3.714285714285714 4.338169642857142  3.714285714285714 5.107142857142858  C 3.714285714285714 5.876116071428572  3.986328125 6.532645089285714  4.530412946428571 7.076729910714286  C 5.074497767857143 7.620814732142856  5.731026785714286 7.892857142857144  6.5 7.892857142857144  C 7.268973214285714 7.892857142857144  7.925502232142858 7.620814732142856  8.469587053571429 7.076729910714286  Z " fill-rule="evenodd" />
    </mask>
  </defs>
  <g transform="matrix(1 0 0 1 -6946 610 )">
    <path d="M 3.975446428571429 0.5150669642857141  C 4.77827380952381 0.17168898809523803  5.619791666666667 0  6.5 0  C 7.380208333333334 0  8.221726190476192 0.17168898809523803  9.024553571428571 0.5150669642857141  C 9.827380952380954 0.8584449404761901  10.518973214285714 1.3203125  11.099330357142858 1.9006696428571423  C 11.679687500000002 2.481026785714286  12.141555059523812 3.1726190476190466  12.484933035714286 3.975446428571428  C 12.828311011904763 4.778273809523808  13 5.619791666666666  13 6.5  C 13 7.375372023809524  12.829520089285714 8.214471726190476  12.488560267857142 9.017299107142856  C 12.147600446428571 9.820126488095239  11.686941964285714 10.51171875  11.106584821428571 11.092075892857144  C 10.526227678571429 11.672433035714286  9.834635416666668 12.135509672619046  9.031808035714286 12.481305803571429  C 8.228980654761905 12.82710193452381  7.385044642857142 13  6.5 13  C 5.614955357142857 13  4.771019345238096 12.828311011904763  3.968191964285714 12.484933035714286  C 3.1653645833333335 12.14155505952381  2.4749813988095237 11.678478422619046  1.8970424107142856 11.095703125  C 1.3191034226190474 10.512927827380953  0.8584449404761905 9.82133556547619  0.5150669642857143 9.020926339285714  C 0.17168898809523808 8.220517113095237  0 7.380208333333332  0 6.5  C 0 5.619791666666666  0.17168898809523808 4.778273809523808  0.5150669642857143 3.975446428571428  C 0.8584449404761905 3.1726190476190466  1.3203125 2.481026785714286  1.900669642857143 1.9006696428571423  C 2.4810267857142856 1.3203125  3.172619047619048 0.8584449404761901  3.975446428571429 0.5150669642857141  Z M 8.770647321428571 7.428571428571428  C 9.931361607142858 7.428571428571428  10.671316964285714 8.219308035714286  10.990513392857142 9.80078125  C 11.711123511904763 8.809337797619047  12.071428571428571 7.7090773809523805  12.071428571428571 6.5  C 12.071428571428571 5.745535714285714  11.923921130952381 5.024925595238094  11.62890625 4.338169642857142  C 11.33389136904762 3.6514136904761902  10.93731398809524 3.0589657738095224  10.439174107142858 2.5608258928571423  C 9.941034226190478 2.062686011904762  9.34858630952381 1.6661086309523803  8.661830357142858 1.37109375  C 7.975074404761906 1.0760788690476182  7.254464285714286 0.9285714285714282  6.5 0.9285714285714282  C 5.745535714285714 0.9285714285714282  5.024925595238096 1.0760788690476182  4.338169642857143 1.37109375  C 3.6514136904761907 1.6661086309523803  3.058965773809524 2.062686011904762  2.560825892857143 2.5608258928571423  C 2.0626860119047623 3.0589657738095224  1.666108630952381 3.6514136904761902  1.37109375 4.338169642857142  C 1.0760788690476193 5.024925595238094  0.9285714285714285 5.745535714285714  0.9285714285714285 6.5  C 0.9285714285714285 7.7090773809523805  1.2888764880952381 8.809337797619047  2.009486607142857 9.80078125  C 2.3286830357142856 8.219308035714286  3.068638392857143 7.428571428571428  4.229352678571429 7.428571428571428  C 4.862909226190477 8.047619047619047  5.619791666666667 8.357142857142856  6.5 8.357142857142856  C 7.380208333333334 8.357142857142856  8.137090773809524 8.047619047619047  8.770647321428571 7.428571428571428  Z M 8.469587053571429 7.076729910714286  C 9.013671875 6.532645089285714  9.285714285714286 5.876116071428572  9.285714285714286 5.107142857142858  C 9.285714285714286 4.338169642857142  9.013671875 3.681640625  8.469587053571429 3.137555803571428  C 7.925502232142858 2.5934709821428577  7.268973214285714 2.321428571428572  6.5 2.321428571428572  C 5.731026785714286 2.321428571428572  5.074497767857143 2.5934709821428577  4.530412946428571 3.137555803571428  C 3.986328125 3.681640625  3.714285714285714 4.338169642857142  3.714285714285714 5.107142857142858  C 3.714285714285714 5.876116071428572  3.986328125 6.532645089285714  4.530412946428571 7.076729910714286  C 5.074497767857143 7.620814732142856  5.731026785714286 7.892857142857144  6.5 7.892857142857144  C 7.268973214285714 7.892857142857144  7.925502232142858 7.620814732142856  8.469587053571429 7.076729910714286  Z " fill-rule="nonzero" fill="rgba(255, 255, 255, 1)" stroke="none" transform="matrix(1 0 0 1 6946 -610 )" class="fill" />
    <path d="M 3.975446428571429 0.5150669642857141  C 4.77827380952381 0.17168898809523803  5.619791666666667 0  6.5 0  C 7.380208333333334 0  8.221726190476192 0.17168898809523803  9.024553571428571 0.5150669642857141  C 9.827380952380954 0.8584449404761901  10.518973214285714 1.3203125  11.099330357142858 1.9006696428571423  C 11.679687500000002 2.481026785714286  12.141555059523812 3.1726190476190466  12.484933035714286 3.975446428571428  C 12.828311011904763 4.778273809523808  13 5.619791666666666  13 6.5  C 13 7.375372023809524  12.829520089285714 8.214471726190476  12.488560267857142 9.017299107142856  C 12.147600446428571 9.820126488095239  11.686941964285714 10.51171875  11.106584821428571 11.092075892857144  C 10.526227678571429 11.672433035714286  9.834635416666668 12.135509672619046  9.031808035714286 12.481305803571429  C 8.228980654761905 12.82710193452381  7.385044642857142 13  6.5 13  C 5.614955357142857 13  4.771019345238096 12.828311011904763  3.968191964285714 12.484933035714286  C 3.1653645833333335 12.14155505952381  2.4749813988095237 11.678478422619046  1.8970424107142856 11.095703125  C 1.3191034226190474 10.512927827380953  0.8584449404761905 9.82133556547619  0.5150669642857143 9.020926339285714  C 0.17168898809523808 8.220517113095237  0 7.380208333333332  0 6.5  C 0 5.619791666666666  0.17168898809523808 4.778273809523808  0.5150669642857143 3.975446428571428  C 0.8584449404761905 3.1726190476190466  1.3203125 2.481026785714286  1.900669642857143 1.9006696428571423  C 2.4810267857142856 1.3203125  3.172619047619048 0.8584449404761901  3.975446428571429 0.5150669642857141  Z " stroke-width="0" stroke-dasharray="0" stroke="rgba(255, 255, 255, 0)" fill="none" transform="matrix(1 0 0 1 6946 -610 )" class="stroke" mask="url(#Clip425)" />
    <path d="M 8.770647321428571 7.428571428571428  C 9.931361607142858 7.428571428571428  10.671316964285714 8.219308035714286  10.990513392857142 9.80078125  C 11.711123511904763 8.809337797619047  12.071428571428571 7.7090773809523805  12.071428571428571 6.5  C 12.071428571428571 5.745535714285714  11.923921130952381 5.024925595238094  11.62890625 4.338169642857142  C 11.33389136904762 3.6514136904761902  10.93731398809524 3.0589657738095224  10.439174107142858 2.5608258928571423  C 9.941034226190478 2.062686011904762  9.34858630952381 1.6661086309523803  8.661830357142858 1.37109375  C 7.975074404761906 1.0760788690476182  7.254464285714286 0.9285714285714282  6.5 0.9285714285714282  C 5.745535714285714 0.9285714285714282  5.024925595238096 1.0760788690476182  4.338169642857143 1.37109375  C 3.6514136904761907 1.6661086309523803  3.058965773809524 2.062686011904762  2.560825892857143 2.5608258928571423  C 2.0626860119047623 3.0589657738095224  1.666108630952381 3.6514136904761902  1.37109375 4.338169642857142  C 1.0760788690476193 5.024925595238094  0.9285714285714285 5.745535714285714  0.9285714285714285 6.5  C 0.9285714285714285 7.7090773809523805  1.2888764880952381 8.809337797619047  2.009486607142857 9.80078125  C 2.3286830357142856 8.219308035714286  3.068638392857143 7.428571428571428  4.229352678571429 7.428571428571428  C 4.862909226190477 8.047619047619047  5.619791666666667 8.357142857142856  6.5 8.357142857142856  C 7.380208333333334 8.357142857142856  8.137090773809524 8.047619047619047  8.770647321428571 7.428571428571428  Z " stroke-width="0" stroke-dasharray="0" stroke="rgba(255, 255, 255, 0)" fill="none" transform="matrix(1 0 0 1 6946 -610 )" class="stroke" mask="url(#Clip425)" />
    <path d="M 8.469587053571429 7.076729910714286  C 9.013671875 6.532645089285714  9.285714285714286 5.876116071428572  9.285714285714286 5.107142857142858  C 9.285714285714286 4.338169642857142  9.013671875 3.681640625  8.469587053571429 3.137555803571428  C 7.925502232142858 2.5934709821428577  7.268973214285714 2.321428571428572  6.5 2.321428571428572  C 5.731026785714286 2.321428571428572  5.074497767857143 2.5934709821428577  4.530412946428571 3.137555803571428  C 3.986328125 3.681640625  3.714285714285714 4.338169642857142  3.714285714285714 5.107142857142858  C 3.714285714285714 5.876116071428572  3.986328125 6.532645089285714  4.530412946428571 7.076729910714286  C 5.074497767857143 7.620814732142856  5.731026785714286 7.892857142857144  6.5 7.892857142857144  C 7.268973214285714 7.892857142857144  7.925502232142858 7.620814732142856  8.469587053571429 7.076729910714286  Z " stroke-width="0" stroke-dasharray="0" stroke="rgba(255, 255, 255, 0)" fill="none" transform="matrix(1 0 0 1 6946 -610 )" class="stroke" mask="url(#Clip425)" />
  </g>
</svg>