<?xml version="1.0" encoding="utf-8"?>
<svg version="1.1" xmlns:xlink="http://www.w3.org/1999/xlink" width="13px" height="21px" xmlns="http://www.w3.org/2000/svg">
  <defs>
    <pattern id="BGPattern" patternUnits="userSpaceOnUse" alignment="0 0" imageRepeat="None" />
    <mask fill="white" id="Clip330">
      <path d="M 8.7978515625 9.474609375  C 9.4326171875 8.791015625  9.75 7.966145833333334  9.75 7.000000000000001  C 9.75 6.033854166666666  9.4326171875 5.208984375  8.7978515625 4.525390624999999  C 8.1630859375 3.841796875000001  7.397135416666668 3.499999999999999  6.5 3.499999999999999  C 5.602864583333334 3.499999999999999  4.8369140625 3.841796875000001  4.2021484375 4.525390624999999  C 3.5673828125 5.208984375  3.25 6.033854166666666  3.25 7.000000000000001  C 3.25 7.966145833333334  3.5673828125 8.791015625  4.2021484375 9.474609375  C 4.8369140625 10.158203125  5.602864583333334 10.5  6.5 10.5  C 7.397135416666668 10.5  8.1630859375 10.158203125  8.7978515625 9.474609375  Z M 11.095703125 2.05078125  C 12.365234375 3.417968749999999  13 5.06770833333333  13 7.000000000000001  C 13 7.993489583333332  12.8603515625 8.809244791666666  12.5810546875 9.447265625  L 7.9599609375 20.029296875  C 7.824544270833334 20.330078125  7.62353515625 20.567057291666664  7.35693359375 20.740234375  C 7.09033203125 20.913411458333336  6.8046875 21  6.5 21  C 6.1953125 21  5.90966796875 20.913411458333336  5.64306640625 20.740234375  C 5.37646484375 20.567057291666664  5.1796875 20.330078125  5.052734375 20.029296875  L 0.4189453125 9.447265625  C 0.1396484375 8.809244791666666  0 7.993489583333332  0 7.000000000000001  C 0 5.06770833333333  0.634765625 3.417968749999999  1.904296875 2.05078125  C 3.1738281250000004 0.6835937500000008  4.705729166666667 0  6.5 0  C 8.294270833333334 0  9.826171875 0.6835937500000008  11.095703125 2.05078125  Z " fill-rule="evenodd" />
    </mask>
  </defs>
  <g transform="matrix(1 0 0 1 -993 -726 )">
    <path d="M 8.7978515625 9.474609375  C 9.4326171875 8.791015625  9.75 7.966145833333334  9.75 7.000000000000001  C 9.75 6.033854166666666  9.4326171875 5.208984375  8.7978515625 4.525390624999999  C 8.1630859375 3.841796875000001  7.397135416666668 3.499999999999999  6.5 3.499999999999999  C 5.602864583333334 3.499999999999999  4.8369140625 3.841796875000001  4.2021484375 4.525390624999999  C 3.5673828125 5.208984375  3.25 6.033854166666666  3.25 7.000000000000001  C 3.25 7.966145833333334  3.5673828125 8.791015625  4.2021484375 9.474609375  C 4.8369140625 10.158203125  5.602864583333334 10.5  6.5 10.5  C 7.397135416666668 10.5  8.1630859375 10.158203125  8.7978515625 9.474609375  Z M 11.095703125 2.05078125  C 12.365234375 3.417968749999999  13 5.06770833333333  13 7.000000000000001  C 13 7.993489583333332  12.8603515625 8.809244791666666  12.5810546875 9.447265625  L 7.9599609375 20.029296875  C 7.824544270833334 20.330078125  7.62353515625 20.567057291666664  7.35693359375 20.740234375  C 7.09033203125 20.913411458333336  6.8046875 21  6.5 21  C 6.1953125 21  5.90966796875 20.913411458333336  5.64306640625 20.740234375  C 5.37646484375 20.567057291666664  5.1796875 20.330078125  5.052734375 20.029296875  L 0.4189453125 9.447265625  C 0.1396484375 8.809244791666666  0 7.993489583333332  0 7.000000000000001  C 0 5.06770833333333  0.634765625 3.417968749999999  1.904296875 2.05078125  C 3.1738281250000004 0.6835937500000008  4.705729166666667 0  6.5 0  C 8.294270833333334 0  9.826171875 0.6835937500000008  11.095703125 2.05078125  Z " fill-rule="nonzero" fill="rgba(0, 0, 0, 1)" stroke="none" transform="matrix(1 0 0 1 993 726 )" class="fill" />
    <path d="M 8.7978515625 9.474609375  C 9.4326171875 8.791015625  9.75 7.966145833333334  9.75 7.000000000000001  C 9.75 6.033854166666666  9.4326171875 5.208984375  8.7978515625 4.525390624999999  C 8.1630859375 3.841796875000001  7.397135416666668 3.499999999999999  6.5 3.499999999999999  C 5.602864583333334 3.499999999999999  4.8369140625 3.841796875000001  4.2021484375 4.525390624999999  C 3.5673828125 5.208984375  3.25 6.033854166666666  3.25 7.000000000000001  C 3.25 7.966145833333334  3.5673828125 8.791015625  4.2021484375 9.474609375  C 4.8369140625 10.158203125  5.602864583333334 10.5  6.5 10.5  C 7.397135416666668 10.5  8.1630859375 10.158203125  8.7978515625 9.474609375  Z " stroke-width="0" stroke-dasharray="0" stroke="rgba(255, 255, 255, 0)" fill="none" transform="matrix(1 0 0 1 993 726 )" class="stroke" mask="url(#Clip330)" />
    <path d="M 11.095703125 2.05078125  C 12.365234375 3.417968749999999  13 5.06770833333333  13 7.000000000000001  C 13 7.993489583333332  12.8603515625 8.809244791666666  12.5810546875 9.447265625  L 7.9599609375 20.029296875  C 7.824544270833334 20.330078125  7.62353515625 20.567057291666664  7.35693359375 20.740234375  C 7.09033203125 20.913411458333336  6.8046875 21  6.5 21  C 6.1953125 21  5.90966796875 20.913411458333336  5.64306640625 20.740234375  C 5.37646484375 20.567057291666664  5.1796875 20.330078125  5.052734375 20.029296875  L 0.4189453125 9.447265625  C 0.1396484375 8.809244791666666  0 7.993489583333332  0 7.000000000000001  C 0 5.06770833333333  0.634765625 3.417968749999999  1.904296875 2.05078125  C 3.1738281250000004 0.6835937500000008  4.705729166666667 0  6.5 0  C 8.294270833333334 0  9.826171875 0.6835937500000008  11.095703125 2.05078125  Z " stroke-width="0" stroke-dasharray="0" stroke="rgba(255, 255, 255, 0)" fill="none" transform="matrix(1 0 0 1 993 726 )" class="stroke" mask="url(#Clip330)" />
  </g>
</svg>