<?xml version="1.0" encoding="utf-8"?>
<svg version="1.1" xmlns:xlink="http://www.w3.org/1999/xlink" width="33px" height="27px" xmlns="http://www.w3.org/2000/svg">
  <defs>
    <pattern id="BGPattern" patternUnits="userSpaceOnUse" alignment="0 0" imageRepeat="None" />
    <mask fill="white" id="Clip333">
      <path d="M 32.17051630434783 11.940308087291399  C 32.72350543478261 12.344672657252888  33 12.864569961489087  33 13.5  C 33 14.123876765083441  32.72350543478261 14.649550706033375  32.17051630434783 15.077021822849808  L 17.576086956521742 26.358793324775352  C 16.993206521739133 26.786264441591786  16.31317934782609 27  15.53600543478261 27  C 14.773777173913043 27  14.101222826086957 26.786264441591786  13.518342391304348 26.358793324775352  L 11.836956521739129 25.059050064184852  C 11.269021739130435 24.62002567394095  10.985054347826088 24.09435173299101  10.985054347826088 23.482028241335044  C 10.985054347826088 22.869704749679077  11.269021739130435 22.34403080872914  11.836956521739129 21.905006418485236  L 18.405570652173914 16.827342747111683  L 2.6229619565217392 16.827342747111683  C 1.845788043478261 16.827342747111683  1.2143342391304348 16.6107188703466  0.7286005434782609 16.17747111681643  C 0.24286684782608692 15.744223363286263  0 15.221437740693196  0 14.609114249037228  L 0 12.390885750962772  C 0 11.778562259306803  0.24286684782608692 11.255776636713737  0.7286005434782609 10.822528883183569  C 1.2143342391304348 10.389281129653401  1.845788043478261 10.17265725288832  2.6229619565217392 10.17265725288832  L 18.405570652173914 10.17265725288832  L 11.836956521739129 5.077663671373557  C 11.269021739130435 4.661745827984595  10.985054347826088 4.141848523748397  10.985054347826088 3.517971758664955  C 10.985054347826088 2.894094993581516  11.269021739130435 2.3741976893453147  11.836956521739129 1.9582798459563535  L 13.518342391304348 0.6585365853658542  C 14.086277173913045 0.21951219512194942  14.75883152173913 0  15.53600543478261 0  C 16.328125 0  17.008152173913043 0.21951219512194942  17.576086956521742 0.6585365853658542  L 32.17051630434783 11.940308087291399  Z " fill-rule="evenodd" />
    </mask>
  </defs>
  <g transform="matrix(1 0 0 1 -1009 -611 )">
    <path d="M 32.17051630434783 11.940308087291399  C 32.72350543478261 12.344672657252888  33 12.864569961489087  33 13.5  C 33 14.123876765083441  32.72350543478261 14.649550706033375  32.17051630434783 15.077021822849808  L 17.576086956521742 26.358793324775352  C 16.993206521739133 26.786264441591786  16.31317934782609 27  15.53600543478261 27  C 14.773777173913043 27  14.101222826086957 26.786264441591786  13.518342391304348 26.358793324775352  L 11.836956521739129 25.059050064184852  C 11.269021739130435 24.62002567394095  10.985054347826088 24.09435173299101  10.985054347826088 23.482028241335044  C 10.985054347826088 22.869704749679077  11.269021739130435 22.34403080872914  11.836956521739129 21.905006418485236  L 18.405570652173914 16.827342747111683  L 2.6229619565217392 16.827342747111683  C 1.845788043478261 16.827342747111683  1.2143342391304348 16.6107188703466  0.7286005434782609 16.17747111681643  C 0.24286684782608692 15.744223363286263  0 15.221437740693196  0 14.609114249037228  L 0 12.390885750962772  C 0 11.778562259306803  0.24286684782608692 11.255776636713737  0.7286005434782609 10.822528883183569  C 1.2143342391304348 10.389281129653401  1.845788043478261 10.17265725288832  2.6229619565217392 10.17265725288832  L 18.405570652173914 10.17265725288832  L 11.836956521739129 5.077663671373557  C 11.269021739130435 4.661745827984595  10.985054347826088 4.141848523748397  10.985054347826088 3.517971758664955  C 10.985054347826088 2.894094993581516  11.269021739130435 2.3741976893453147  11.836956521739129 1.9582798459563535  L 13.518342391304348 0.6585365853658542  C 14.086277173913045 0.21951219512194942  14.75883152173913 0  15.53600543478261 0  C 16.328125 0  17.008152173913043 0.21951219512194942  17.576086956521742 0.6585365853658542  L 32.17051630434783 11.940308087291399  Z " fill-rule="nonzero" fill="rgba(0, 0, 0, 1)" stroke="none" transform="matrix(1 0 0 1 1009 611 )" class="fill" />
    <path d="M 32.17051630434783 11.940308087291399  C 32.72350543478261 12.344672657252888  33 12.864569961489087  33 13.5  C 33 14.123876765083441  32.72350543478261 14.649550706033375  32.17051630434783 15.077021822849808  L 17.576086956521742 26.358793324775352  C 16.993206521739133 26.786264441591786  16.31317934782609 27  15.53600543478261 27  C 14.773777173913043 27  14.101222826086957 26.786264441591786  13.518342391304348 26.358793324775352  L 11.836956521739129 25.059050064184852  C 11.269021739130435 24.62002567394095  10.985054347826088 24.09435173299101  10.985054347826088 23.482028241335044  C 10.985054347826088 22.869704749679077  11.269021739130435 22.34403080872914  11.836956521739129 21.905006418485236  L 18.405570652173914 16.827342747111683  L 2.6229619565217392 16.827342747111683  C 1.845788043478261 16.827342747111683  1.2143342391304348 16.6107188703466  0.7286005434782609 16.17747111681643  C 0.24286684782608692 15.744223363286263  0 15.221437740693196  0 14.609114249037228  L 0 12.390885750962772  C 0 11.778562259306803  0.24286684782608692 11.255776636713737  0.7286005434782609 10.822528883183569  C 1.2143342391304348 10.389281129653401  1.845788043478261 10.17265725288832  2.6229619565217392 10.17265725288832  L 18.405570652173914 10.17265725288832  L 11.836956521739129 5.077663671373557  C 11.269021739130435 4.661745827984595  10.985054347826088 4.141848523748397  10.985054347826088 3.517971758664955  C 10.985054347826088 2.894094993581516  11.269021739130435 2.3741976893453147  11.836956521739129 1.9582798459563535  L 13.518342391304348 0.6585365853658542  C 14.086277173913045 0.21951219512194942  14.75883152173913 0  15.53600543478261 0  C 16.328125 0  17.008152173913043 0.21951219512194942  17.576086956521742 0.6585365853658542  L 32.17051630434783 11.940308087291399  Z " stroke-width="0" stroke-dasharray="0" stroke="rgba(255, 255, 255, 0)" fill="none" transform="matrix(1 0 0 1 1009 611 )" class="stroke" mask="url(#Clip333)" />
  </g>
</svg>