<?xml version="1.0" encoding="utf-8"?>
<svg version="1.1" xmlns:xlink="http://www.w3.org/1999/xlink" width="40px" height="23px" xmlns="http://www.w3.org/2000/svg">
  <defs>
    <pattern id="BGPattern" patternUnits="userSpaceOnUse" alignment="0 0" imageRepeat="None" />
    <mask fill="white" id="Clip334">
      <path d="M 39.59919839679359 2.371134020618556  C 39.866399465597866 2.634593356242834  40 2.9375715922107646  40 3.280068728522338  C 40 3.6225658648339034  39.866399465597866 3.925544100801829  39.59919839679359 4.189003436426117  L 20.921843687374746 22.60481099656357  C 20.654642618570477 22.86827033218785  20.34736138944556 23  20 23  C 19.652638610554444 23  19.34535738142953 22.86827033218785  19.07815631262525 22.60481099656357  L 0.4008016032064128 4.189003436426117  C 0.13360053440213798 3.925544100801829  0 3.6225658648339034  0 3.280068728522338  C 0 2.9375715922107646  0.13360053440213798 2.634593356242834  0.4008016032064128 2.371134020618556  L 2.4048096192384767 0.39518900343642727  C 2.6720106880427528 0.13172966781213902  2.979291917167669 0  3.3266533066132267 0  C 3.674014696058785 0  3.981295925183701 0.13172966781213902  4.248496993987976 0.39518900343642727  L 20 15.926116838487973  L 35.75150300601202 0.39518900343642727  C 36.0187040748163 0.13172966781213902  36.325985303941216 0  36.673346693386776 0  C 37.020708082832336 0  37.32798931195725 0.13172966781213902  37.59519038076152 0.39518900343642727  L 39.59919839679359 2.371134020618556  Z " fill-rule="evenodd" />
    </mask>
  </defs>
  <g transform="matrix(1 0 0 1 -1012 -1082 )">
    <path d="M 39.59919839679359 2.371134020618556  C 39.866399465597866 2.634593356242834  40 2.9375715922107646  40 3.280068728522338  C 40 3.6225658648339034  39.866399465597866 3.925544100801829  39.59919839679359 4.189003436426117  L 20.921843687374746 22.60481099656357  C 20.654642618570477 22.86827033218785  20.34736138944556 23  20 23  C 19.652638610554444 23  19.34535738142953 22.86827033218785  19.07815631262525 22.60481099656357  L 0.4008016032064128 4.189003436426117  C 0.13360053440213798 3.925544100801829  0 3.6225658648339034  0 3.280068728522338  C 0 2.9375715922107646  0.13360053440213798 2.634593356242834  0.4008016032064128 2.371134020618556  L 2.4048096192384767 0.39518900343642727  C 2.6720106880427528 0.13172966781213902  2.979291917167669 0  3.3266533066132267 0  C 3.674014696058785 0  3.981295925183701 0.13172966781213902  4.248496993987976 0.39518900343642727  L 20 15.926116838487973  L 35.75150300601202 0.39518900343642727  C 36.0187040748163 0.13172966781213902  36.325985303941216 0  36.673346693386776 0  C 37.020708082832336 0  37.32798931195725 0.13172966781213902  37.59519038076152 0.39518900343642727  L 39.59919839679359 2.371134020618556  Z " fill-rule="nonzero" fill="rgba(0, 0, 0, 1)" stroke="none" transform="matrix(1 0 0 1 1012 1082 )" class="fill" />
    <path d="M 39.59919839679359 2.371134020618556  C 39.866399465597866 2.634593356242834  40 2.9375715922107646  40 3.280068728522338  C 40 3.6225658648339034  39.866399465597866 3.925544100801829  39.59919839679359 4.189003436426117  L 20.921843687374746 22.60481099656357  C 20.654642618570477 22.86827033218785  20.34736138944556 23  20 23  C 19.652638610554444 23  19.34535738142953 22.86827033218785  19.07815631262525 22.60481099656357  L 0.4008016032064128 4.189003436426117  C 0.13360053440213798 3.925544100801829  0 3.6225658648339034  0 3.280068728522338  C 0 2.9375715922107646  0.13360053440213798 2.634593356242834  0.4008016032064128 2.371134020618556  L 2.4048096192384767 0.39518900343642727  C 2.6720106880427528 0.13172966781213902  2.979291917167669 0  3.3266533066132267 0  C 3.674014696058785 0  3.981295925183701 0.13172966781213902  4.248496993987976 0.39518900343642727  L 20 15.926116838487973  L 35.75150300601202 0.39518900343642727  C 36.0187040748163 0.13172966781213902  36.325985303941216 0  36.673346693386776 0  C 37.020708082832336 0  37.32798931195725 0.13172966781213902  37.59519038076152 0.39518900343642727  L 39.59919839679359 2.371134020618556  Z " stroke-width="0" stroke-dasharray="0" stroke="rgba(255, 255, 255, 0)" fill="none" transform="matrix(1 0 0 1 1012 1082 )" class="stroke" mask="url(#Clip334)" />
  </g>
</svg>