<?xml version="1.0" encoding="utf-8"?>
<svg version="1.1" xmlns:xlink="http://www.w3.org/1999/xlink" width="398px" height="204px" xmlns="http://www.w3.org/2000/svg">
  <defs>
    <pattern id="BGPattern" patternUnits="userSpaceOnUse" alignment="0 0" imageRepeat="None" />
    <mask fill="white" id="Clip336">
      <path d="M 0 190  L 0 4  C 0 1.7599999999999996  1.7599999999999996 0  4 0  L 384 0  C 386.24 0  388 1.7599999999999996  388 4  L 388 190  C 388 192.23999999999998  386.24 194  384 194  L 4 194  C 1.7599999999999996 194  0 192.23999999999998  0 190  Z " fill-rule="evenodd" />
    </mask>
  </defs>
  <g transform="matrix(1 0 0 1 -1432 -17 )">
    <path d="M 0 190  L 0 4  C 0 1.7599999999999996  1.7599999999999996 0  4 0  L 384 0  C 386.24 0  388 1.7599999999999996  388 4  L 388 190  C 388 192.23999999999998  386.24 194  384 194  L 4 194  C 1.7599999999999996 194  0 192.23999999999998  0 190  Z " fill-rule="nonzero" fill="rgba(255, 255, 255, 0.9921568627450981)" stroke="none" transform="matrix(1 0 0 1 1432 17 )" class="fill" />
    <path d="M 0 190  L 0 4  C 0 1.7599999999999996  1.7599999999999996 0  4 0  L 384 0  C 386.24 0  388 1.7599999999999996  388 4  L 388 190  C 388 192.23999999999998  386.24 194  384 194  L 4 194  C 1.7599999999999996 194  0 192.23999999999998  0 190  Z " stroke-width="2" stroke-dasharray="3,1" stroke="rgba(0, 0, 0, 1)" fill="none" transform="matrix(1 0 0 1 1432 17 )" class="stroke" mask="url(#Clip336)" />
  </g>
  <style>svg { filter: drop-shadow(5px 5px 2.5px rgba(0, 0, 0, 0.34901960784313724)); }</style>
</svg>