<?xml version="1.0" encoding="utf-8"?>
<svg version="1.1" xmlns:xlink="http://www.w3.org/1999/xlink" width="38px" height="21px" xmlns="http://www.w3.org/2000/svg">
  <defs>
    <pattern id="BGPattern" patternUnits="userSpaceOnUse" alignment="0 0" imageRepeat="None" />
    <mask fill="white" id="Clip335">
      <path d="M 37.04483695652174 9.286906290115532  C 37.68161231884058 9.601412066752246  38 10.005776636713733  38 10.5  C 38 10.985237483953789  37.68161231884058 11.394094993581513  37.04483695652174 11.726572528883183  L 20.23913043478261 20.501283697047494  C 19.567934782608695 20.833761232349165  18.7848731884058 21  17.889945652173914 21  C 17.012228260869563 21  16.237771739130437 20.833761232349165  15.566576086956522 20.501283697047494  L 13.630434782608695 19.490372272143773  C 12.97644927536232 19.14890885750963  12.64945652173913 18.7400513478819  12.64945652173913 18.26379974326059  C 12.64945652173913 17.787548138639284  12.97644927536232 17.37869062901155  13.630434782608695 17.037227214377406  L 21.19429347826087 13  L 3.020380434782609 13  C 2.125452898550725 13.087933247753531  1.398324275362319 12.919448010269576  0.8389945652173914 12.582477535301669  C 0.27966485507246375 12.245507060333761  0 11.838896020539151  0 11.362644415917844  L 0 9.637355584082156  C 0 9.161103979460846  0.27966485507246375 8.754492939666239  0.8389945652173914 8.417522464698331  C 1.398324275362319 8.080551989730424  2.125452898550725 7.912066752246471  3.020380434782609 8  L 21.19429347826087 8  L 13.630434782608695 3.9492939666238773  C 12.97644927536232 3.6258023106546853  12.64945652173913 3.2214377406931973  12.64945652173913 2.7362002567394095  C 12.64945652173913 2.250962772785624  12.97644927536232 1.8465982028241337  13.630434782608695 1.5231065468549416  L 15.566576086956522 0.51219512195122  C 16.220561594202902 0.17073170731707177  16.995018115942027 0  17.889945652173914 0  C 18.802083333333336 0  19.585144927536234 0.17073170731707177  20.23913043478261 0.51219512195122  L 37.04483695652174 9.286906290115532  Z " fill-rule="evenodd" />
    </mask>
  </defs>
  <g transform="matrix(1 0 0 1 -886 -94 )">
    <path d="M 37.04483695652174 9.286906290115532  C 37.68161231884058 9.601412066752246  38 10.005776636713733  38 10.5  C 38 10.985237483953789  37.68161231884058 11.394094993581513  37.04483695652174 11.726572528883183  L 20.23913043478261 20.501283697047494  C 19.567934782608695 20.833761232349165  18.7848731884058 21  17.889945652173914 21  C 17.012228260869563 21  16.237771739130437 20.833761232349165  15.566576086956522 20.501283697047494  L 13.630434782608695 19.490372272143773  C 12.97644927536232 19.14890885750963  12.64945652173913 18.7400513478819  12.64945652173913 18.26379974326059  C 12.64945652173913 17.787548138639284  12.97644927536232 17.37869062901155  13.630434782608695 17.037227214377406  L 21.19429347826087 13  L 3.020380434782609 13  C 2.125452898550725 13.087933247753531  1.398324275362319 12.919448010269576  0.8389945652173914 12.582477535301669  C 0.27966485507246375 12.245507060333761  0 11.838896020539151  0 11.362644415917844  L 0 9.637355584082156  C 0 9.161103979460846  0.27966485507246375 8.754492939666239  0.8389945652173914 8.417522464698331  C 1.398324275362319 8.080551989730424  2.125452898550725 7.912066752246471  3.020380434782609 8  L 21.19429347826087 8  L 13.630434782608695 3.9492939666238773  C 12.97644927536232 3.6258023106546853  12.64945652173913 3.2214377406931973  12.64945652173913 2.7362002567394095  C 12.64945652173913 2.250962772785624  12.97644927536232 1.8465982028241337  13.630434782608695 1.5231065468549416  L 15.566576086956522 0.51219512195122  C 16.220561594202902 0.17073170731707177  16.995018115942027 0  17.889945652173914 0  C 18.802083333333336 0  19.585144927536234 0.17073170731707177  20.23913043478261 0.51219512195122  L 37.04483695652174 9.286906290115532  Z " fill-rule="nonzero" fill="rgba(0, 0, 0, 1)" stroke="none" transform="matrix(1 0 0 1 886 94 )" class="fill" />
    <path d="M 37.04483695652174 9.286906290115532  C 37.68161231884058 9.601412066752246  38 10.005776636713733  38 10.5  C 38 10.985237483953789  37.68161231884058 11.394094993581513  37.04483695652174 11.726572528883183  L 20.23913043478261 20.501283697047494  C 19.567934782608695 20.833761232349165  18.7848731884058 21  17.889945652173914 21  C 17.012228260869563 21  16.237771739130437 20.833761232349165  15.566576086956522 20.501283697047494  L 13.630434782608695 19.490372272143773  C 12.97644927536232 19.14890885750963  12.64945652173913 18.7400513478819  12.64945652173913 18.26379974326059  C 12.64945652173913 17.787548138639284  12.97644927536232 17.37869062901155  13.630434782608695 17.037227214377406  L 21.19429347826087 13  L 3.020380434782609 13  C 2.125452898550725 13.087933247753531  1.398324275362319 12.919448010269576  0.8389945652173914 12.582477535301669  C 0.27966485507246375 12.245507060333761  0 11.838896020539151  0 11.362644415917844  L 0 9.637355584082156  C 0 9.161103979460846  0.27966485507246375 8.754492939666239  0.8389945652173914 8.417522464698331  C 1.398324275362319 8.080551989730424  2.125452898550725 7.912066752246471  3.020380434782609 8  L 21.19429347826087 8  L 13.630434782608695 3.9492939666238773  C 12.97644927536232 3.6258023106546853  12.64945652173913 3.2214377406931973  12.64945652173913 2.7362002567394095  C 12.64945652173913 2.250962772785624  12.97644927536232 1.8465982028241337  13.630434782608695 1.5231065468549416  L 15.566576086956522 0.51219512195122  C 16.220561594202902 0.17073170731707177  16.995018115942027 0  17.889945652173914 0  C 18.802083333333336 0  19.585144927536234 0.17073170731707177  20.23913043478261 0.51219512195122  L 37.04483695652174 9.286906290115532  Z " stroke-width="0" stroke-dasharray="0" stroke="rgba(255, 255, 255, 0)" fill="none" transform="matrix(1 0 0 1 886 94 )" class="stroke" mask="url(#Clip335)" />
  </g>
</svg>