<?xml version="1.0" encoding="utf-8"?>
<svg version="1.1" xmlns:xlink="http://www.w3.org/1999/xlink" width="24px" height="41px" xmlns="http://www.w3.org/2000/svg">
  <defs>
    <pattern id="BGPattern" patternUnits="userSpaceOnUse" alignment="0 0" imageRepeat="None" />
    <mask fill="white" id="Clip337">
      <path d="M 23.58762886597938 2.4649298597194367  C 23.862542955326465 2.738810955243816  24 3.053774215096855  24 3.4098196392785582  C 24 3.7658650634602524  23.862542955326465 4.080828323313291  23.58762886597938 4.354709418837675  L 7.381443298969073 20.5  L 23.58762886597938 36.64529058116233  C 23.862542955326465 36.91917167668671  24 37.234134936539746  24 37.59018036072144  C 24 37.94622578490314  23.862542955326465 38.26118904475617  23.58762886597938 38.53507014028056  L 21.52577319587629 40.589178356713425  C 21.250859106529212 40.86305945223781  20.934707903780073 41  20.577319587628864 41  C 20.219931271477666 41  19.903780068728526 40.86305945223781  19.628865979381445 40.589178356713425  L 0.4123711340206186 21.444889779559116  C 0.1374570446735396 21.17100868403473  0 20.856045424181694  0 20.5  C 0 20.143954575818302  0.1374570446735396 19.82899131596526  0.4123711340206186 19.555110220440884  L 19.628865979381445 0.41082164328657356  C 19.903780068728526 0.13694054776218967  20.219931271477666 0  20.577319587628864 0  C 20.934707903780073 0  21.250859106529212 0.13694054776218967  21.52577319587629 0.41082164328657356  L 23.58762886597938 2.4649298597194367  Z " fill-rule="evenodd" />
    </mask>
  </defs>
  <g transform="matrix(1 0 0 1 -1113 -478 )">
    <path d="M 23.58762886597938 2.4649298597194367  C 23.862542955326465 2.738810955243816  24 3.053774215096855  24 3.4098196392785582  C 24 3.7658650634602524  23.862542955326465 4.080828323313291  23.58762886597938 4.354709418837675  L 7.381443298969073 20.5  L 23.58762886597938 36.64529058116233  C 23.862542955326465 36.91917167668671  24 37.234134936539746  24 37.59018036072144  C 24 37.94622578490314  23.862542955326465 38.26118904475617  23.58762886597938 38.53507014028056  L 21.52577319587629 40.589178356713425  C 21.250859106529212 40.86305945223781  20.934707903780073 41  20.577319587628864 41  C 20.219931271477666 41  19.903780068728526 40.86305945223781  19.628865979381445 40.589178356713425  L 0.4123711340206186 21.444889779559116  C 0.1374570446735396 21.17100868403473  0 20.856045424181694  0 20.5  C 0 20.143954575818302  0.1374570446735396 19.82899131596526  0.4123711340206186 19.555110220440884  L 19.628865979381445 0.41082164328657356  C 19.903780068728526 0.13694054776218967  20.219931271477666 0  20.577319587628864 0  C 20.934707903780073 0  21.250859106529212 0.13694054776218967  21.52577319587629 0.41082164328657356  L 23.58762886597938 2.4649298597194367  Z " fill-rule="nonzero" fill="rgba(0, 0, 0, 1)" stroke="none" transform="matrix(1 0 0 1 1113 478 )" class="fill" />
    <path d="M 23.58762886597938 2.4649298597194367  C 23.862542955326465 2.738810955243816  24 3.053774215096855  24 3.4098196392785582  C 24 3.7658650634602524  23.862542955326465 4.080828323313291  23.58762886597938 4.354709418837675  L 7.381443298969073 20.5  L 23.58762886597938 36.64529058116233  C 23.862542955326465 36.91917167668671  24 37.234134936539746  24 37.59018036072144  C 24 37.94622578490314  23.862542955326465 38.26118904475617  23.58762886597938 38.53507014028056  L 21.52577319587629 40.589178356713425  C 21.250859106529212 40.86305945223781  20.934707903780073 41  20.577319587628864 41  C 20.219931271477666 41  19.903780068728526 40.86305945223781  19.628865979381445 40.589178356713425  L 0.4123711340206186 21.444889779559116  C 0.1374570446735396 21.17100868403473  0 20.856045424181694  0 20.5  C 0 20.143954575818302  0.1374570446735396 19.82899131596526  0.4123711340206186 19.555110220440884  L 19.628865979381445 0.41082164328657356  C 19.903780068728526 0.13694054776218967  20.219931271477666 0  20.577319587628864 0  C 20.934707903780073 0  21.250859106529212 0.13694054776218967  21.52577319587629 0.41082164328657356  L 23.58762886597938 2.4649298597194367  Z " stroke-width="0" stroke-dasharray="0" stroke="rgba(255, 255, 255, 0)" fill="none" transform="matrix(1 0 0 1 1113 478 )" class="stroke" mask="url(#Clip337)" />
  </g>
</svg>