<?xml version="1.0" encoding="utf-8"?>
<svg version="1.1" xmlns:xlink="http://www.w3.org/1999/xlink" width="39px" height="34px" xmlns="http://www.w3.org/2000/svg">
  <defs>
    <pattern id="BGPattern" patternUnits="userSpaceOnUse" alignment="0 0" imageRepeat="None" />
    <mask fill="white" id="Clip293">
      <path d="M 30.446986607142858 20.032552083333332  C 30.577566964285715 20.165364583333332  30.642857142857142 20.335069444444443  30.642857142857142 20.541666666666668  L 30.642857142857142 27.625  C 30.642857142857142 29.381076388888886  30.029854910714292 30.882595486111114  28.803850446428573 32.129557291666664  C 27.57784598214286 33.37651909722222  26.1015625 34  24.375 34  L 6.267857142857143 34  C 4.541294642857143 34  3.065011160714286 33.37651909722222  1.8390066964285714 32.129557291666664  C 0.6130022321428571 30.882595486111114  0 29.381076388888886  0 27.625  L 0 9.208333333333334  C 0 7.452256944444441  0.6130022321428571 5.9507378472222205  1.8390066964285714 4.703776041666665  C 3.065011160714286 3.4568142361111063  4.541294642857143 2.833333333333335  6.267857142857143 3  L 21.589285714285715 3  C 21.792410714285715 2.833333333333335  21.959263392857142 2.899739583333335  22.08984375 3.032552083333335  C 22.220424107142858 3.165364583333335  22.285714285714285 3.335069444444441  22.285714285714285 3.541666666666665  L 22.285714285714285 4.958333333333335  C 22.285714285714285 5.164930555555555  22.220424107142858 5.334635416666665  22.08984375 5.467447916666665  C 21.959263392857142 5.600260416666665  21.792410714285715 5.666666666666665  21.589285714285715 6  L 6.267857142857143 6  C 5.310267857142858 5.666666666666665  4.490513392857144 6.013454861111106  3.80859375 6.70703125  C 3.126674107142857 7.400607638888886  2.7857142857142856 8.234375  3 9.208333333333334  L 3 27.625  C 2.7857142857142856 28.598958333333336  3.126674107142857 29.432725694444443  3.80859375 30.126302083333336  C 4.490513392857144 30.81987847222222  5.310267857142858 31.166666666666664  6.267857142857143 31  L 24.375 31  C 25.332589285714285 31.166666666666664  26.152343750000004 30.81987847222222  26.834263392857142 30.126302083333336  C 27.516183035714292 29.432725694444443  27.857142857142858 28.598958333333336  27.857142857142858 27.625  L 27.857142857142858 20.541666666666668  C 27.857142857142858 20.335069444444443  27.922433035714285 20.165364583333332  28.053013392857142 20.032552083333332  C 28.18359375 19.899739583333332  28.35044642857143 19.833333333333332  28.553571428571427 19.833333333333332  L 29.946428571428573 19.833333333333332  C 30.149553571428577 19.833333333333332  30.31640625 19.899739583333332  30.446986607142858 20.032552083333332  Z M 38.586495535714285 0.4205729166666654  C 38.86216517857143 0.7009548611111065  39 1.0329861111111065  39 1.4166666666666654  L 39 12.75  C 39 13.133680555555555  38.86216517857143 13.465711805555555  38.586495535714285 13.74609375  C 38.310825892857146 14.026475694444445  37.984375 14.166666666666666  37.60714285714286 14.166666666666666  C 37.229910714285715 14.166666666666666  36.90345982142857 14.026475694444445  36.62779017857142 13.74609375  L 32.797433035714285 9.850260416666666  L 18.607700892857142 24.282552083333332  C 18.462611607142858 24.43012152777777  18.29575892857143 24.50390625  18.107142857142858 24.50390625  C 17.91852678571429 24.50390625  17.751674107142858 24.43012152777777  17.60658482142857 24.282552083333332  L 15.125558035714286 21.759114583333332  C 14.980468750000002 21.61154513888889  14.907924107142858 21.44184027777778  14.907924107142858 21.25  C 14.907924107142858 21.05815972222222  14.980468750000002 20.88845486111111  15.125558035714286 20.740885416666668  L 29.315290178571427 6.30859375  L 25.484933035714285 2.412760416666665  C 25.20926339285715 2.1323784722222205  25.071428571428573 1.8003472222222205  25.071428571428573 1.4166666666666654  C 25.071428571428573 1.0329861111111065  25.20926339285715 0.7009548611111065  25.484933035714285 0.4205729166666654  C 25.76060267857143 0.14019097222222432  26.087053571428573 0  26.464285714285715 0  L 37.60714285714286 0  C 37.984375 0  38.310825892857146 0.14019097222222432  38.586495535714285 0.4205729166666654  Z " fill-rule="evenodd" />
    </mask>
  </defs>
  <g transform="matrix(1 0 0 1 -2958 -786 )">
    <path d="M 30.446986607142858 20.032552083333332  C 30.577566964285715 20.165364583333332  30.642857142857142 20.335069444444443  30.642857142857142 20.541666666666668  L 30.642857142857142 27.625  C 30.642857142857142 29.381076388888886  30.029854910714292 30.882595486111114  28.803850446428573 32.129557291666664  C 27.57784598214286 33.37651909722222  26.1015625 34  24.375 34  L 6.267857142857143 34  C 4.541294642857143 34  3.065011160714286 33.37651909722222  1.8390066964285714 32.129557291666664  C 0.6130022321428571 30.882595486111114  0 29.381076388888886  0 27.625  L 0 9.208333333333334  C 0 7.452256944444441  0.6130022321428571 5.9507378472222205  1.8390066964285714 4.703776041666665  C 3.065011160714286 3.4568142361111063  4.541294642857143 2.833333333333335  6.267857142857143 3  L 21.589285714285715 3  C 21.792410714285715 2.833333333333335  21.959263392857142 2.899739583333335  22.08984375 3.032552083333335  C 22.220424107142858 3.165364583333335  22.285714285714285 3.335069444444441  22.285714285714285 3.541666666666665  L 22.285714285714285 4.958333333333335  C 22.285714285714285 5.164930555555555  22.220424107142858 5.334635416666665  22.08984375 5.467447916666665  C 21.959263392857142 5.600260416666665  21.792410714285715 5.666666666666665  21.589285714285715 6  L 6.267857142857143 6  C 5.310267857142858 5.666666666666665  4.490513392857144 6.013454861111106  3.80859375 6.70703125  C 3.126674107142857 7.400607638888886  2.7857142857142856 8.234375  3 9.208333333333334  L 3 27.625  C 2.7857142857142856 28.598958333333336  3.126674107142857 29.432725694444443  3.80859375 30.126302083333336  C 4.490513392857144 30.81987847222222  5.310267857142858 31.166666666666664  6.267857142857143 31  L 24.375 31  C 25.332589285714285 31.166666666666664  26.152343750000004 30.81987847222222  26.834263392857142 30.126302083333336  C 27.516183035714292 29.432725694444443  27.857142857142858 28.598958333333336  27.857142857142858 27.625  L 27.857142857142858 20.541666666666668  C 27.857142857142858 20.335069444444443  27.922433035714285 20.165364583333332  28.053013392857142 20.032552083333332  C 28.18359375 19.899739583333332  28.35044642857143 19.833333333333332  28.553571428571427 19.833333333333332  L 29.946428571428573 19.833333333333332  C 30.149553571428577 19.833333333333332  30.31640625 19.899739583333332  30.446986607142858 20.032552083333332  Z M 38.586495535714285 0.4205729166666654  C 38.86216517857143 0.7009548611111065  39 1.0329861111111065  39 1.4166666666666654  L 39 12.75  C 39 13.133680555555555  38.86216517857143 13.465711805555555  38.586495535714285 13.74609375  C 38.310825892857146 14.026475694444445  37.984375 14.166666666666666  37.60714285714286 14.166666666666666  C 37.229910714285715 14.166666666666666  36.90345982142857 14.026475694444445  36.62779017857142 13.74609375  L 32.797433035714285 9.850260416666666  L 18.607700892857142 24.282552083333332  C 18.462611607142858 24.43012152777777  18.29575892857143 24.50390625  18.107142857142858 24.50390625  C 17.91852678571429 24.50390625  17.751674107142858 24.43012152777777  17.60658482142857 24.282552083333332  L 15.125558035714286 21.759114583333332  C 14.980468750000002 21.61154513888889  14.907924107142858 21.44184027777778  14.907924107142858 21.25  C 14.907924107142858 21.05815972222222  14.980468750000002 20.88845486111111  15.125558035714286 20.740885416666668  L 29.315290178571427 6.30859375  L 25.484933035714285 2.412760416666665  C 25.20926339285715 2.1323784722222205  25.071428571428573 1.8003472222222205  25.071428571428573 1.4166666666666654  C 25.071428571428573 1.0329861111111065  25.20926339285715 0.7009548611111065  25.484933035714285 0.4205729166666654  C 25.76060267857143 0.14019097222222432  26.087053571428573 0  26.464285714285715 0  L 37.60714285714286 0  C 37.984375 0  38.310825892857146 0.14019097222222432  38.586495535714285 0.4205729166666654  Z " fill-rule="nonzero" fill="rgba(0, 0, 0, 1)" stroke="none" transform="matrix(1 0 0 1 2958 786 )" class="fill" />
    <path d="M 30.446986607142858 20.032552083333332  C 30.577566964285715 20.165364583333332  30.642857142857142 20.335069444444443  30.642857142857142 20.541666666666668  L 30.642857142857142 27.625  C 30.642857142857142 29.381076388888886  30.029854910714292 30.882595486111114  28.803850446428573 32.129557291666664  C 27.57784598214286 33.37651909722222  26.1015625 34  24.375 34  L 6.267857142857143 34  C 4.541294642857143 34  3.065011160714286 33.37651909722222  1.8390066964285714 32.129557291666664  C 0.6130022321428571 30.882595486111114  0 29.381076388888886  0 27.625  L 0 9.208333333333334  C 0 7.452256944444441  0.6130022321428571 5.9507378472222205  1.8390066964285714 4.703776041666665  C 3.065011160714286 3.4568142361111063  4.541294642857143 2.833333333333335  6.267857142857143 3  L 21.589285714285715 3  C 21.792410714285715 2.833333333333335  21.959263392857142 2.899739583333335  22.08984375 3.032552083333335  C 22.220424107142858 3.165364583333335  22.285714285714285 3.335069444444441  22.285714285714285 3.541666666666665  L 22.285714285714285 4.958333333333335  C 22.285714285714285 5.164930555555555  22.220424107142858 5.334635416666665  22.08984375 5.467447916666665  C 21.959263392857142 5.600260416666665  21.792410714285715 5.666666666666665  21.589285714285715 6  L 6.267857142857143 6  C 5.310267857142858 5.666666666666665  4.490513392857144 6.013454861111106  3.80859375 6.70703125  C 3.126674107142857 7.400607638888886  2.7857142857142856 8.234375  3 9.208333333333334  L 3 27.625  C 2.7857142857142856 28.598958333333336  3.126674107142857 29.432725694444443  3.80859375 30.126302083333336  C 4.490513392857144 30.81987847222222  5.310267857142858 31.166666666666664  6.267857142857143 31  L 24.375 31  C 25.332589285714285 31.166666666666664  26.152343750000004 30.81987847222222  26.834263392857142 30.126302083333336  C 27.516183035714292 29.432725694444443  27.857142857142858 28.598958333333336  27.857142857142858 27.625  L 27.857142857142858 20.541666666666668  C 27.857142857142858 20.335069444444443  27.922433035714285 20.165364583333332  28.053013392857142 20.032552083333332  C 28.18359375 19.899739583333332  28.35044642857143 19.833333333333332  28.553571428571427 19.833333333333332  L 29.946428571428573 19.833333333333332  C 30.149553571428577 19.833333333333332  30.31640625 19.899739583333332  30.446986607142858 20.032552083333332  Z " stroke-width="0" stroke-dasharray="0" stroke="rgba(255, 255, 255, 0)" fill="none" transform="matrix(1 0 0 1 2958 786 )" class="stroke" mask="url(#Clip293)" />
    <path d="M 38.586495535714285 0.4205729166666654  C 38.86216517857143 0.7009548611111065  39 1.0329861111111065  39 1.4166666666666654  L 39 12.75  C 39 13.133680555555555  38.86216517857143 13.465711805555555  38.586495535714285 13.74609375  C 38.310825892857146 14.026475694444445  37.984375 14.166666666666666  37.60714285714286 14.166666666666666  C 37.229910714285715 14.166666666666666  36.90345982142857 14.026475694444445  36.62779017857142 13.74609375  L 32.797433035714285 9.850260416666666  L 18.607700892857142 24.282552083333332  C 18.462611607142858 24.43012152777777  18.29575892857143 24.50390625  18.107142857142858 24.50390625  C 17.91852678571429 24.50390625  17.751674107142858 24.43012152777777  17.60658482142857 24.282552083333332  L 15.125558035714286 21.759114583333332  C 14.980468750000002 21.61154513888889  14.907924107142858 21.44184027777778  14.907924107142858 21.25  C 14.907924107142858 21.05815972222222  14.980468750000002 20.88845486111111  15.125558035714286 20.740885416666668  L 29.315290178571427 6.30859375  L 25.484933035714285 2.412760416666665  C 25.20926339285715 2.1323784722222205  25.071428571428573 1.8003472222222205  25.071428571428573 1.4166666666666654  C 25.071428571428573 1.0329861111111065  25.20926339285715 0.7009548611111065  25.484933035714285 0.4205729166666654  C 25.76060267857143 0.14019097222222432  26.087053571428573 0  26.464285714285715 0  L 37.60714285714286 0  C 37.984375 0  38.310825892857146 0.14019097222222432  38.586495535714285 0.4205729166666654  Z " stroke-width="0" stroke-dasharray="0" stroke="rgba(255, 255, 255, 0)" fill="none" transform="matrix(1 0 0 1 2958 786 )" class="stroke" mask="url(#Clip293)" />
  </g>
</svg>