<?xml version="1.0" encoding="utf-8"?>
<svg version="1.1" xmlns:xlink="http://www.w3.org/1999/xlink" width="43px" height="39px" xmlns="http://www.w3.org/2000/svg">
  <defs>
    <pattern id="BGPattern" patternUnits="userSpaceOnUse" alignment="0 0" imageRepeat="None" />
    <mask fill="white" id="Clip294">
      <path d="M 31.2421875 34.232514177693766  L 29.38161057692308 23.886578449905485  L 37.2890625 16.58790170132325  L 26.38401442307692 15.064272211720226  L 21.5 5.676748582230622  L 16.615985576923077 15.064272211720226  L 5.7109375 16.58790170132325  L 13.618389423076923 23.886578449905485  L 11.731971153846153 34.232514177693766  L 21.5 29.342155009451794  L 31.2421875 34.232514177693766  Z M 41.55288461538461 13.982986767485823  C 42.517628205128204 14.130434782608697  43 14.507246376811594  43 15.11342155009452  C 43 15.473850031505984  42.77604166666667 15.867044738500311  42.328125 16.293005671077506  L 32.94771634615385 24.99243856332703  L 35.17007211538461 37.27977315689981  C 35.18729967948718 37.39445494643983  35.19591346153846 37.55828607435412  35.19591346153846 37.77126654064272  C 35.19591346153846 38.59042218021424  34.8427483974359 39  34.13641826923077 39  C 33.80909455128205 39  33.46454326923077 38.901701323251416  33.10276442307692 38.705103969754255  L 21.5 32.9054820415879  L 9.897235576923077 38.705103969754255  C 9.518229166666668 38.901701323251416  9.173677884615385 39  8.86358173076923 39  C 8.501802884615385 39  8.23046875 38.88122243226213  8.049579326923077 38.64366729678639  C 7.868689903846154 38.406112161310645  7.7782451923076925 38.11531190926276  7.7782451923076925 37.77126654064272  C 7.7782451923076925 37.672967863894144  7.795472756410257 37.50913673597984  7.829927884615384 37.27977315689981  L 10.052283653846153 24.99243856332703  L 0.6460336538461539 16.293005671077506  C 0.21534455128205127 15.850661625708884  0 15.457466918714557  0 15.11342155009452  C 0 14.507246376811594  0.4823717948717948 14.130434782608697  1.4471153846153846 13.982986767485823  L 14.419471153846153 12.189035916824194  L 20.23377403846154 1.007561436672966  C 20.56109775641026 0.33585381222432054  20.983173076923077 0  21.5 0  C 22.01682692307692 0  22.438902243589745 0.33585381222432054  22.766225961538463 1.007561436672966  L 28.580528846153847 12.189035916824194  L 41.55288461538461 13.982986767485823  Z " fill-rule="evenodd" />
    </mask>
  </defs>
  <g transform="matrix(1 0 0 1 -2899 -781 )">
    <path d="M 31.2421875 34.232514177693766  L 29.38161057692308 23.886578449905485  L 37.2890625 16.58790170132325  L 26.38401442307692 15.064272211720226  L 21.5 5.676748582230622  L 16.615985576923077 15.064272211720226  L 5.7109375 16.58790170132325  L 13.618389423076923 23.886578449905485  L 11.731971153846153 34.232514177693766  L 21.5 29.342155009451794  L 31.2421875 34.232514177693766  Z M 41.55288461538461 13.982986767485823  C 42.517628205128204 14.130434782608697  43 14.507246376811594  43 15.11342155009452  C 43 15.473850031505984  42.77604166666667 15.867044738500311  42.328125 16.293005671077506  L 32.94771634615385 24.99243856332703  L 35.17007211538461 37.27977315689981  C 35.18729967948718 37.39445494643983  35.19591346153846 37.55828607435412  35.19591346153846 37.77126654064272  C 35.19591346153846 38.59042218021424  34.8427483974359 39  34.13641826923077 39  C 33.80909455128205 39  33.46454326923077 38.901701323251416  33.10276442307692 38.705103969754255  L 21.5 32.9054820415879  L 9.897235576923077 38.705103969754255  C 9.518229166666668 38.901701323251416  9.173677884615385 39  8.86358173076923 39  C 8.501802884615385 39  8.23046875 38.88122243226213  8.049579326923077 38.64366729678639  C 7.868689903846154 38.406112161310645  7.7782451923076925 38.11531190926276  7.7782451923076925 37.77126654064272  C 7.7782451923076925 37.672967863894144  7.795472756410257 37.50913673597984  7.829927884615384 37.27977315689981  L 10.052283653846153 24.99243856332703  L 0.6460336538461539 16.293005671077506  C 0.21534455128205127 15.850661625708884  0 15.457466918714557  0 15.11342155009452  C 0 14.507246376811594  0.4823717948717948 14.130434782608697  1.4471153846153846 13.982986767485823  L 14.419471153846153 12.189035916824194  L 20.23377403846154 1.007561436672966  C 20.56109775641026 0.33585381222432054  20.983173076923077 0  21.5 0  C 22.01682692307692 0  22.438902243589745 0.33585381222432054  22.766225961538463 1.007561436672966  L 28.580528846153847 12.189035916824194  L 41.55288461538461 13.982986767485823  Z " fill-rule="nonzero" fill="rgba(0, 0, 0, 1)" stroke="none" transform="matrix(1 0 0 1 2899 781 )" class="fill" />
    <path d="M 31.2421875 34.232514177693766  L 29.38161057692308 23.886578449905485  L 37.2890625 16.58790170132325  L 26.38401442307692 15.064272211720226  L 21.5 5.676748582230622  L 16.615985576923077 15.064272211720226  L 5.7109375 16.58790170132325  L 13.618389423076923 23.886578449905485  L 11.731971153846153 34.232514177693766  L 21.5 29.342155009451794  L 31.2421875 34.232514177693766  Z " stroke-width="0" stroke-dasharray="0" stroke="rgba(255, 255, 255, 0)" fill="none" transform="matrix(1 0 0 1 2899 781 )" class="stroke" mask="url(#Clip294)" />
    <path d="M 41.55288461538461 13.982986767485823  C 42.517628205128204 14.130434782608697  43 14.507246376811594  43 15.11342155009452  C 43 15.473850031505984  42.77604166666667 15.867044738500311  42.328125 16.293005671077506  L 32.94771634615385 24.99243856332703  L 35.17007211538461 37.27977315689981  C 35.18729967948718 37.39445494643983  35.19591346153846 37.55828607435412  35.19591346153846 37.77126654064272  C 35.19591346153846 38.59042218021424  34.8427483974359 39  34.13641826923077 39  C 33.80909455128205 39  33.46454326923077 38.901701323251416  33.10276442307692 38.705103969754255  L 21.5 32.9054820415879  L 9.897235576923077 38.705103969754255  C 9.518229166666668 38.901701323251416  9.173677884615385 39  8.86358173076923 39  C 8.501802884615385 39  8.23046875 38.88122243226213  8.049579326923077 38.64366729678639  C 7.868689903846154 38.406112161310645  7.7782451923076925 38.11531190926276  7.7782451923076925 37.77126654064272  C 7.7782451923076925 37.672967863894144  7.795472756410257 37.50913673597984  7.829927884615384 37.27977315689981  L 10.052283653846153 24.99243856332703  L 0.6460336538461539 16.293005671077506  C 0.21534455128205127 15.850661625708884  0 15.457466918714557  0 15.11342155009452  C 0 14.507246376811594  0.4823717948717948 14.130434782608697  1.4471153846153846 13.982986767485823  L 14.419471153846153 12.189035916824194  L 20.23377403846154 1.007561436672966  C 20.56109775641026 0.33585381222432054  20.983173076923077 0  21.5 0  C 22.01682692307692 0  22.438902243589745 0.33585381222432054  22.766225961538463 1.007561436672966  L 28.580528846153847 12.189035916824194  L 41.55288461538461 13.982986767485823  Z " stroke-width="0" stroke-dasharray="0" stroke="rgba(255, 255, 255, 0)" fill="none" transform="matrix(1 0 0 1 2899 781 )" class="stroke" mask="url(#Clip294)" />
  </g>
</svg>