<?xml version="1.0" encoding="utf-8"?>
<svg version="1.1" xmlns:xlink="http://www.w3.org/1999/xlink" width="38px" height="33px" xmlns="http://www.w3.org/2000/svg">
  <defs>
    <pattern id="BGPattern" patternUnits="userSpaceOnUse" alignment="0 0" imageRepeat="None" />
    <mask fill="white" id="Clip295">
      <path d="M 27.08984375 4.243164062499999  C 24.580543154761905 3.2477213541666647  21.88392857142857 2.7500000000000013  19 2.7500000000000013  C 16.116071428571427 2.7500000000000013  13.419456845238097 3.2477213541666647  10.91015625 4.243164062499999  C 8.400855654761905 5.238606770833333  6.407552083333334 6.581380208333332  4.930245535714286 8.271484374999998  C 3.452938988095238 9.961588541666663  2.714285714285714 11.787760416666664  2.714285714285714 13.749999999999998  C 2.714285714285714 15.354166666666668  3.2196800595238098 16.883138020833336  4.23046875 18.3369140625  C 5.241257440476191 19.790690104166664  6.665550595238097 21.047526041666664  8.503348214285714 22.107421875  L 10.348214285714285 23.181640624999996  L 9.775669642857144 25.244140625  C 9.436383928571429 26.547526041666668  8.941592261904763 27.779296875  8.291294642857142 28.939453125  C 10.440104166666668 28.037109375  12.383928571428571 26.8125  14.122767857142856 25.265625  L 15.034598214285715 24.449218750000004  L 16.243303571428573 24.578125000000004  C 17.21875 24.692708333333332  18.13764880952381 24.75  19 24.75  C 21.88392857142857 24.75  24.580543154761905 24.25227864583333  27.08984375 23.256835937500004  C 29.5991443452381 22.26139322916666  31.592447916666668 20.918619791666664  33.069754464285715 19.228515625000004  C 34.54706101190476 17.538411458333332  35.285714285714285 15.712239583333332  35.285714285714285 13.749999999999998  C 35.285714285714285 11.787760416666664  34.54706101190476 9.961588541666663  33.069754464285715 8.271484374999998  C 31.592447916666668 6.581380208333332  29.5991443452381 5.238606770833333  27.08984375 4.243164062499999  Z M 35.455357142857146 6.842773437500001  C 37.151785714285715 8.95540364583333  38 11.257812500000002  38 13.749999999999998  C 38 16.2421875  37.151785714285715 18.544596354166664  35.455357142857146 20.6572265625  C 33.75892857142857 22.76985677083333  31.4546130952381 24.438476562499996  28.54241071428571 25.6630859375  C 25.630208333333336 26.8876953125  22.449404761904763 27.5  19 27.5  C 18.010416666666668 27.5  16.985491071428573 27.442708333333332  15.925223214285715 27.328125  C 13.126116071428571 29.834635416666668  9.874627976190478 31.567708333333332  6.170758928571428 32.52734375  C 5.478050595238097 32.727864583333336  4.672247023809524 32.885416666666664  3.753348214285714 33  L 3.647321428571429 33  C 3.435267857142857 33  3.244419642857143 32.9248046875  3.074776785714286 32.7744140625  C 2.905133928571429 32.6240234375  2.792038690476191 32.42708333333333  2.735491071428571 32.18359375  L 2.735491071428571 32.162109375  C 2.6930803571428577 32.104817708333336  2.6895461309523814 32.018880208333336  2.724888392857143 31.904296875  C 2.760230654761905 31.789713541666668  2.7743675595238098 31.718098958333332  2.767299107142857 31.689453125  C 2.760230654761905 31.660807291666668  2.792038690476191 31.5927734375  2.862723214285714 31.4853515625  L 2.989955357142857 31.2919921875  C 2.989955357142857 31.2919921875  3.039434523809524 31.231119791666668  3.138392857142857 31.109375  C 3.237351190476191 30.987630208333332  3.2938988095238098 30.923177083333332  3.308035714285714 30.916015625  C 3.4069940476190483 30.801432291666668  3.626116071428571 30.554361979166668  3.965401785714286 30.1748046875  C 4.3046875 29.795247395833332  4.548549107142857 29.523111979166668  4.696986607142857 29.3583984375  C 4.845424107142858 29.193684895833332  5.064546130952381 28.910807291666668  5.354352678571428 28.509765625  C 5.644159226190476 28.108723958333332  5.873883928571428 27.743489583333332  6.043526785714286 27.4140625  C 6.213169642857142 27.084635416666668  6.404017857142858 26.662109375  6.616071428571428 26.146484375  C 6.828125 25.630859375  7.011904761904763 25.086588541666668  7.167410714285714 24.513671875000004  C 4.947916666666667 23.238932291666664  3.1984747023809526 21.663411458333332  1.9190848214285714 19.787109375  C 0.6396949404761905 17.91080729166666  0 15.898437500000002  0 13.749999999999998  C 0 11.257812500000002  0.8482142857142857 8.95540364583333  2.544642857142857 6.842773437500001  C 4.24107142857143 4.730143229166664  6.545386904761905 3.0615234375  9.457589285714286 1.8369140625  C 12.369791666666668 0.6123046875  15.550595238095239 0  19 0  C 22.449404761904763 0  25.630208333333336 0.6123046875  28.54241071428571 1.8369140625  C 31.4546130952381 3.0615234375  33.75892857142857 4.730143229166664  35.455357142857146 6.842773437500001  Z " fill-rule="evenodd" />
    </mask>
  </defs>
  <g transform="matrix(1 0 0 1 -2845 -787 )">
    <path d="M 27.08984375 4.243164062499999  C 24.580543154761905 3.2477213541666647  21.88392857142857 2.7500000000000013  19 2.7500000000000013  C 16.116071428571427 2.7500000000000013  13.419456845238097 3.2477213541666647  10.91015625 4.243164062499999  C 8.400855654761905 5.238606770833333  6.407552083333334 6.581380208333332  4.930245535714286 8.271484374999998  C 3.452938988095238 9.961588541666663  2.714285714285714 11.787760416666664  2.714285714285714 13.749999999999998  C 2.714285714285714 15.354166666666668  3.2196800595238098 16.883138020833336  4.23046875 18.3369140625  C 5.241257440476191 19.790690104166664  6.665550595238097 21.047526041666664  8.503348214285714 22.107421875  L 10.348214285714285 23.181640624999996  L 9.775669642857144 25.244140625  C 9.436383928571429 26.547526041666668  8.941592261904763 27.779296875  8.291294642857142 28.939453125  C 10.440104166666668 28.037109375  12.383928571428571 26.8125  14.122767857142856 25.265625  L 15.034598214285715 24.449218750000004  L 16.243303571428573 24.578125000000004  C 17.21875 24.692708333333332  18.13764880952381 24.75  19 24.75  C 21.88392857142857 24.75  24.580543154761905 24.25227864583333  27.08984375 23.256835937500004  C 29.5991443452381 22.26139322916666  31.592447916666668 20.918619791666664  33.069754464285715 19.228515625000004  C 34.54706101190476 17.538411458333332  35.285714285714285 15.712239583333332  35.285714285714285 13.749999999999998  C 35.285714285714285 11.787760416666664  34.54706101190476 9.961588541666663  33.069754464285715 8.271484374999998  C 31.592447916666668 6.581380208333332  29.5991443452381 5.238606770833333  27.08984375 4.243164062499999  Z M 35.455357142857146 6.842773437500001  C 37.151785714285715 8.95540364583333  38 11.257812500000002  38 13.749999999999998  C 38 16.2421875  37.151785714285715 18.544596354166664  35.455357142857146 20.6572265625  C 33.75892857142857 22.76985677083333  31.4546130952381 24.438476562499996  28.54241071428571 25.6630859375  C 25.630208333333336 26.8876953125  22.449404761904763 27.5  19 27.5  C 18.010416666666668 27.5  16.985491071428573 27.442708333333332  15.925223214285715 27.328125  C 13.126116071428571 29.834635416666668  9.874627976190478 31.567708333333332  6.170758928571428 32.52734375  C 5.478050595238097 32.727864583333336  4.672247023809524 32.885416666666664  3.753348214285714 33  L 3.647321428571429 33  C 3.435267857142857 33  3.244419642857143 32.9248046875  3.074776785714286 32.7744140625  C 2.905133928571429 32.6240234375  2.792038690476191 32.42708333333333  2.735491071428571 32.18359375  L 2.735491071428571 32.162109375  C 2.6930803571428577 32.104817708333336  2.6895461309523814 32.018880208333336  2.724888392857143 31.904296875  C 2.760230654761905 31.789713541666668  2.7743675595238098 31.718098958333332  2.767299107142857 31.689453125  C 2.760230654761905 31.660807291666668  2.792038690476191 31.5927734375  2.862723214285714 31.4853515625  L 2.989955357142857 31.2919921875  C 2.989955357142857 31.2919921875  3.039434523809524 31.231119791666668  3.138392857142857 31.109375  C 3.237351190476191 30.987630208333332  3.2938988095238098 30.923177083333332  3.308035714285714 30.916015625  C 3.4069940476190483 30.801432291666668  3.626116071428571 30.554361979166668  3.965401785714286 30.1748046875  C 4.3046875 29.795247395833332  4.548549107142857 29.523111979166668  4.696986607142857 29.3583984375  C 4.845424107142858 29.193684895833332  5.064546130952381 28.910807291666668  5.354352678571428 28.509765625  C 5.644159226190476 28.108723958333332  5.873883928571428 27.743489583333332  6.043526785714286 27.4140625  C 6.213169642857142 27.084635416666668  6.404017857142858 26.662109375  6.616071428571428 26.146484375  C 6.828125 25.630859375  7.011904761904763 25.086588541666668  7.167410714285714 24.513671875000004  C 4.947916666666667 23.238932291666664  3.1984747023809526 21.663411458333332  1.9190848214285714 19.787109375  C 0.6396949404761905 17.91080729166666  0 15.898437500000002  0 13.749999999999998  C 0 11.257812500000002  0.8482142857142857 8.95540364583333  2.544642857142857 6.842773437500001  C 4.24107142857143 4.730143229166664  6.545386904761905 3.0615234375  9.457589285714286 1.8369140625  C 12.369791666666668 0.6123046875  15.550595238095239 0  19 0  C 22.449404761904763 0  25.630208333333336 0.6123046875  28.54241071428571 1.8369140625  C 31.4546130952381 3.0615234375  33.75892857142857 4.730143229166664  35.455357142857146 6.842773437500001  Z " fill-rule="nonzero" fill="rgba(0, 0, 0, 1)" stroke="none" transform="matrix(1 0 0 1 2845 787 )" class="fill" />
    <path d="M 27.08984375 4.243164062499999  C 24.580543154761905 3.2477213541666647  21.88392857142857 2.7500000000000013  19 2.7500000000000013  C 16.116071428571427 2.7500000000000013  13.419456845238097 3.2477213541666647  10.91015625 4.243164062499999  C 8.400855654761905 5.238606770833333  6.407552083333334 6.581380208333332  4.930245535714286 8.271484374999998  C 3.452938988095238 9.961588541666663  2.714285714285714 11.787760416666664  2.714285714285714 13.749999999999998  C 2.714285714285714 15.354166666666668  3.2196800595238098 16.883138020833336  4.23046875 18.3369140625  C 5.241257440476191 19.790690104166664  6.665550595238097 21.047526041666664  8.503348214285714 22.107421875  L 10.348214285714285 23.181640624999996  L 9.775669642857144 25.244140625  C 9.436383928571429 26.547526041666668  8.941592261904763 27.779296875  8.291294642857142 28.939453125  C 10.440104166666668 28.037109375  12.383928571428571 26.8125  14.122767857142856 25.265625  L 15.034598214285715 24.449218750000004  L 16.243303571428573 24.578125000000004  C 17.21875 24.692708333333332  18.13764880952381 24.75  19 24.75  C 21.88392857142857 24.75  24.580543154761905 24.25227864583333  27.08984375 23.256835937500004  C 29.5991443452381 22.26139322916666  31.592447916666668 20.918619791666664  33.069754464285715 19.228515625000004  C 34.54706101190476 17.538411458333332  35.285714285714285 15.712239583333332  35.285714285714285 13.749999999999998  C 35.285714285714285 11.787760416666664  34.54706101190476 9.961588541666663  33.069754464285715 8.271484374999998  C 31.592447916666668 6.581380208333332  29.5991443452381 5.238606770833333  27.08984375 4.243164062499999  Z " stroke-width="0" stroke-dasharray="0" stroke="rgba(255, 255, 255, 0)" fill="none" transform="matrix(1 0 0 1 2845 787 )" class="stroke" mask="url(#Clip295)" />
    <path d="M 35.455357142857146 6.842773437500001  C 37.151785714285715 8.95540364583333  38 11.257812500000002  38 13.749999999999998  C 38 16.2421875  37.151785714285715 18.544596354166664  35.455357142857146 20.6572265625  C 33.75892857142857 22.76985677083333  31.4546130952381 24.438476562499996  28.54241071428571 25.6630859375  C 25.630208333333336 26.8876953125  22.449404761904763 27.5  19 27.5  C 18.010416666666668 27.5  16.985491071428573 27.442708333333332  15.925223214285715 27.328125  C 13.126116071428571 29.834635416666668  9.874627976190478 31.567708333333332  6.170758928571428 32.52734375  C 5.478050595238097 32.727864583333336  4.672247023809524 32.885416666666664  3.753348214285714 33  L 3.647321428571429 33  C 3.435267857142857 33  3.244419642857143 32.9248046875  3.074776785714286 32.7744140625  C 2.905133928571429 32.6240234375  2.792038690476191 32.42708333333333  2.735491071428571 32.18359375  L 2.735491071428571 32.162109375  C 2.6930803571428577 32.104817708333336  2.6895461309523814 32.018880208333336  2.724888392857143 31.904296875  C 2.760230654761905 31.789713541666668  2.7743675595238098 31.718098958333332  2.767299107142857 31.689453125  C 2.760230654761905 31.660807291666668  2.792038690476191 31.5927734375  2.862723214285714 31.4853515625  L 2.989955357142857 31.2919921875  C 2.989955357142857 31.2919921875  3.039434523809524 31.231119791666668  3.138392857142857 31.109375  C 3.237351190476191 30.987630208333332  3.2938988095238098 30.923177083333332  3.308035714285714 30.916015625  C 3.4069940476190483 30.801432291666668  3.626116071428571 30.554361979166668  3.965401785714286 30.1748046875  C 4.3046875 29.795247395833332  4.548549107142857 29.523111979166668  4.696986607142857 29.3583984375  C 4.845424107142858 29.193684895833332  5.064546130952381 28.910807291666668  5.354352678571428 28.509765625  C 5.644159226190476 28.108723958333332  5.873883928571428 27.743489583333332  6.043526785714286 27.4140625  C 6.213169642857142 27.084635416666668  6.404017857142858 26.662109375  6.616071428571428 26.146484375  C 6.828125 25.630859375  7.011904761904763 25.086588541666668  7.167410714285714 24.513671875000004  C 4.947916666666667 23.238932291666664  3.1984747023809526 21.663411458333332  1.9190848214285714 19.787109375  C 0.6396949404761905 17.91080729166666  0 15.898437500000002  0 13.749999999999998  C 0 11.257812500000002  0.8482142857142857 8.95540364583333  2.544642857142857 6.842773437500001  C 4.24107142857143 4.730143229166664  6.545386904761905 3.0615234375  9.457589285714286 1.8369140625  C 12.369791666666668 0.6123046875  15.550595238095239 0  19 0  C 22.449404761904763 0  25.630208333333336 0.6123046875  28.54241071428571 1.8369140625  C 31.4546130952381 3.0615234375  33.75892857142857 4.730143229166664  35.455357142857146 6.842773437500001  Z " stroke-width="0" stroke-dasharray="0" stroke="rgba(255, 255, 255, 0)" fill="none" transform="matrix(1 0 0 1 2845 787 )" class="stroke" mask="url(#Clip295)" />
  </g>
</svg>