<?xml version="1.0" encoding="utf-8"?>
<svg version="1.1" xmlns:xlink="http://www.w3.org/1999/xlink" width="50px" height="50px" xmlns="http://www.w3.org/2000/svg">
  <defs>
    <pattern id="BGPattern" patternUnits="userSpaceOnUse" alignment="0 0" imageRepeat="None" />
    <mask fill="white" id="Clip299">
      <path d="M 28.971354166666668 39.84375  C 29.600694444444446 39.84375  29.915364583333332 39.31206597222223  29.915364583333332 38.24869791666667  L 29.915364583333332 33.138020833333336  C 29.915364583333332 32.052951388888886  29.600694444444446 31.510416666666664  28.971354166666668 31.510416666666664  C 28.602430555555557 31.510416666666664  28.24435763888889 31.68402777777778  27.897135416666668 32.03125  L 27.897135416666668 39.32291666666667  C 28.24435763888889 39.67013888888889  28.602430555555557 39.84375  28.971354166666668 39.84375  Z M 35.90494791666667 33.170572916666664  L 35.90494791666667 34.27734375  L 38.05338541666667 34.27734375  L 38.05338541666667 33.170572916666664  C 38.05338541666667 32.063802083333336  37.6953125 31.510416666666664  36.97916666666667 31.510416666666664  C 36.26302083333333 31.510416666666664  35.90494791666667 32.063802083333336  35.90494791666667 33.170572916666664  Z M 9.765625 25.618489583333336  L 17.317708333333336 25.618489583333336  L 17.317708333333336 27.897135416666664  L 15 27.897135416666664  L 15 41.66666666666667  L 13 41.66666666666667  L 13 27.897135416666664  L 9.765625 27.897135416666664  L 9.765625 25.618489583333336  Z M 21.6796875 29.720052083333336  L 24 29.720052083333336  L 24 41.66666666666667  L 21.6796875 41.66666666666667  L 21.6796875 40.36458333333333  C 20.833333333333336 41.34114583333333  20.008680555555557 41.82942708333333  19.205729166666664 41.82942708333333  C 18.489583333333336 41.82942708333333  18.033854166666664 41.52560763888889  17.838541666666664 40.91796875  C 17.708333333333336 40.54904513888889  17.643229166666664 39.96310763888889  17.643229166666664 39.16015625  L 17.643229166666664 29.720052083333336  L 19.791666666666664 29.720052083333336  L 19.791666666666664 38.50911458333333  C 19.791666666666664 39.02994791666667  19.802517361111114 39.312065972222214  19.82421875 39.35546875  C 19.845920138888893 39.68098958333333  20.008680555555557 39.84375  20.3125 39.84375  C 20.74652777777778 39.84375  21.202256944444446 39.50737847222223  21.6796875 38.83463541666667  L 21.6796875 29.720052083333336  Z M 31.8359375 30.924479166666664  C 31.987847222222225 31.380208333333336  32.06380208333333 32.18315972222222  32.06380208333333 33.333333333333336  L 32.06380208333333 38.0859375  C 32.06380208333333 39.21440972222223  31.987847222222225 40.00651041666667  31.8359375 40.46223958333333  C 31.575520833333336 41.37369791666667  31.000434027777786 41.82942708333333  30.110677083333332 41.82942708333333  C 29.351128472222225 41.82942708333333  28.61328125 41.38454861111111  27.897135416666668 40.49479166666667  L 27.897135416666668 41.66666666666667  L 25 41.66666666666667  L 25 25.618489583333336  L 27.897135416666668 25.618489583333336  L 27.897135416666668 30.859375  C 28.59157986111111 29.991319444444443  29.329427083333332 29.557291666666664  30.110677083333332 29.557291666666664  C 31.000434027777786 29.557291666666664  31.575520833333336 30.013020833333336  31.8359375 30.924479166666664  Z M 38.02083333333333 37.53255208333333  L 40.234375 37.53255208333333  L 40.234375 37.82552083333333  C 40.234375 38.45486111111111  40.212673611111114 38.92144097222223  40.16927083333333 39.22526041666667  C 40.10416666666667 39.70269097222223  39.94140625 40.13671875  39.68098958333333 40.52734375  C 39.09505208333333 41.39539930555556  38.226996527777786 41.82942708333333  37.07682291666667 41.82942708333333  C 35.94835069444445 41.82942708333333  35.06944444444445 41.41710069444444  34.44010416666667 40.59244791666667  C 33.984375 40.00651041666667  33.75651041666667 39.07335069444444  33.75651041666667 37.79296875  L 33.75651041666667 33.59375  C 33.75651041666667 32.31336805555555  33.97352430555556 31.380208333333336  34.40755208333333 30.794270833333336  C 35.036892361111114 29.969618055555557  35.90494791666667 29.557291666666664  37.01171875 29.557291666666664  C 38.11848958333333 29.557291666666664  38.96484375 29.969618055555557  39.55078125 30.794270833333336  C 40.00651041666667 31.423611111111104  40.234375 32.356770833333336  40.234375 33.59375  L 40.234375 36.067708333333336  L 35.90494791666667 36.067708333333336  L 35.90494791666667 38.18359375  C 35.90494791666667 39.29036458333333  36.273871527777786 39.84375  37.01171875 39.84375  C 37.53255208333333 39.84375  37.85807291666667 39.56163194444444  37.98828125 38.99739583333333  C 37.98828125 38.97569444444444  37.99370659722223 38.89973958333333  38.00455729166667 38.76953125  C 38.015407986111114 38.63932291666667  38.02083333333333 38.46028645833333  38.02083333333333 38.232421875  L 38.02083333333333 37.53255208333333  Z M 24.51171875 9.016927083333332  C 25.206163194444446 9.016927083333332  25.553385416666668 9.581163194444443  25.553385416666668 10.709635416666668  L 25.553385416666668 15.787760416666668  C 25.553385416666668 16.89453125  25.206163194444446 17.447916666666668  24.51171875 17.447916666666668  C 23.817274305555557 17.447916666666668  23.470052083333336 16.89453125  23.470052083333336 15.787760416666668  L 23.470052083333336 10.709635416666668  C 23.470052083333336 9.581163194444443  23.817274305555557 9.016927083333332  24.51171875 9.016927083333332  Z M 42.25260416666667 42.3828125  C 42.68663194444445 40.55989583333333  42.90364583333333 37.73871527777777  42.90364583333333 33.919270833333336  C 42.90364583333333 30.078125  42.69748263888889 27.256944444444443  42.28515625 25.455729166666664  C 42.068142361111114 24.500868055555554  41.6015625 23.70334201388889  40.88541666666667 23.063151041666668  C 40.16927083333333 22.422960069444443  39.34461805555556 22.04861111111111  38.41145833333333 21.940104166666668  C 35.46006944444445 21.614583333333332  30.989583333333336 21.451822916666668  25 21.451822916666668  C 19.032118055555557 21.451822916666668  14.57248263888889 21.614583333333332  11.62109375 21.940104166666668  C 10.66623263888889 22.04861111111111  9.83615451388889 22.422960069444443  9.130859375 23.063151041666668  C 8.425564236111112 23.70334201388889  7.964409722222222 24.500868055555554  7.747395833333333 25.455729166666664  C 7.313368055555556 27.34375  7.096354166666667 30.164930555555557  7.096354166666667 33.919270833333336  C 7.096354166666667 37.73871527777777  7.313368055555556 40.55989583333333  7.747395833333333 42.3828125  C 7.964409722222222 43.31597222222223  8.425564236111112 44.10807291666667  9.130859375 44.75911458333333  C 9.83615451388889 45.41015625  10.655381944444446 45.78993055555556  11.588541666666668 45.8984375  C 14.561631944444445 46.22395833333333  19.032118055555557 46.38671875  25 46.38671875  C 30.967881944444446 46.38671875  35.43836805555556 46.22395833333333  38.41145833333333 45.8984375  C 39.34461805555556 45.78993055555556  40.163845486111114 45.41015625  40.869140625 44.75911458333333  C 41.57443576388889 44.10807291666667  42.035590277777786 43.31597222222223  42.25260416666667 42.3828125  Z M 18.326822916666664 19.270833333333332  L 18.326822916666664 12.727864583333332  L 21.256510416666664 3.0924479166666687  L 18.815104166666664 3.0924479166666687  L 17.154947916666664 9.440104166666668  L 15.4296875 3.0924479166666687  L 12.890625 3.0924479166666687  C 13.042534722222223 3.5915798611111107  13.292100694444445 4.340277777777773  13.639322916666666 5.338541666666669  L 14.420572916666666 7.584635416666669  C 15.180121527777779 9.819878472222216  15.679253472222223 11.534288194444443  15.91796875 12.727864583333332  L 15.91796875 19.270833333333332  L 18.326822916666664 19.270833333333332  Z M 27.05078125 18.196614583333332  C 27.506510416666668 17.610677083333332  27.734375000000007 16.666666666666668  27.734375 15.364583333333332  L 27.734375 11.1328125  C 27.734375000000007 9.874131944444443  27.506510416666668 8.930121527777773  27.05078125 8.30078125  C 26.421440972222225 7.476128472222215  25.575086805555557 7.063802083333331  24.51171875 7.063802083333331  C 23.404947916666664 7.063802083333331  22.55859375 7.476128472222215  21.97265625 8.30078125  C 21.516927083333336 8.930121527777773  21.2890625 9.874131944444443  21.2890625 11.1328125  L 21.2890625 15.364583333333332  C 21.2890625 16.623263888888886  21.516927083333336 17.567274305555554  21.97265625 18.196614583333332  C 22.55859375 19.02126736111111  23.404947916666664 19.43359375  24.51171875 19.43359375  C 25.575086805555557 19.43359375  26.421440972222225 19.02126736111111  27.05078125 18.196614583333332  Z M 33.62630208333333 17.96875  L 33.62630208333333 19.270833333333332  L 35 19.270833333333332  L 35 7.2265625  L 33.62630208333333 7.2265625  L 33.62630208333333 16.438802083333332  C 33.148871527777786 17.11154513888889  32.693142361111114 17.447916666666668  32.25911458333333 17.447916666666668  C 31.93359375 17.447916666666668  31.75998263888889 17.274305555555554  31.73828125 16.927083333333332  C 31.71657986111111 16.883680555555554  31.705729166666668 16.6015625  31.705729166666668 16.080729166666668  L 31.705729166666668 7.2265625  L 29.524739583333332 7.2265625  L 29.524739583333332 16.764322916666668  C 29.524739583333332 17.567274305555554  29.58984375 18.1640625  29.720052083333332 18.5546875  C 29.958767361111114 19.140625  30.425347222222225 19.43359375  31.119791666666668 19.43359375  C 31.901041666666668 19.43359375  32.73654513888889 18.9453125  33.62630208333333 17.96875  Z M 47.24934895833333 2.7506510416666687  C 49.08311631944444 4.584418402777773  50 6.792534722222215  50 9.375  L 50 40.625  C 50 43.20746527777777  49.08311631944444 45.41558159722223  47.24934895833333 47.24934895833333  C 45.41558159722223 49.08311631944444  43.207465277777786 50  40.625 50  L 9.375 50  C 6.792534722222222 50  4.584418402777779 49.08311631944444  2.750651041666667 47.24934895833333  C 0.9168836805555555 45.41558159722223  0 43.20746527777777  0 40.625  L 0 9.375  C 0 6.792534722222215  0.9168836805555555 4.584418402777773  2.750651041666667 2.7506510416666687  C 4.584418402777779 0.9168836805555525  6.792534722222222 0  9.375 0  L 40.625 0  C 43.207465277777786 0  45.41558159722223 0.9168836805555525  47.24934895833333 2.7506510416666687  Z " fill-rule="evenodd" />
    </mask>
  </defs>
  <g transform="matrix(1 0 0 1 -3294 -727 )">
    <path d="M 28.971354166666668 39.84375  C 29.600694444444446 39.84375  29.915364583333332 39.31206597222223  29.915364583333332 38.24869791666667  L 29.915364583333332 33.138020833333336  C 29.915364583333332 32.052951388888886  29.600694444444446 31.510416666666664  28.971354166666668 31.510416666666664  C 28.602430555555557 31.510416666666664  28.24435763888889 31.68402777777778  27.897135416666668 32.03125  L 27.897135416666668 39.32291666666667  C 28.24435763888889 39.67013888888889  28.602430555555557 39.84375  28.971354166666668 39.84375  Z M 35.90494791666667 33.170572916666664  L 35.90494791666667 34.27734375  L 38.05338541666667 34.27734375  L 38.05338541666667 33.170572916666664  C 38.05338541666667 32.063802083333336  37.6953125 31.510416666666664  36.97916666666667 31.510416666666664  C 36.26302083333333 31.510416666666664  35.90494791666667 32.063802083333336  35.90494791666667 33.170572916666664  Z M 9.765625 25.618489583333336  L 17.317708333333336 25.618489583333336  L 17.317708333333336 27.897135416666664  L 15 27.897135416666664  L 15 41.66666666666667  L 13 41.66666666666667  L 13 27.897135416666664  L 9.765625 27.897135416666664  L 9.765625 25.618489583333336  Z M 21.6796875 29.720052083333336  L 24 29.720052083333336  L 24 41.66666666666667  L 21.6796875 41.66666666666667  L 21.6796875 40.36458333333333  C 20.833333333333336 41.34114583333333  20.008680555555557 41.82942708333333  19.205729166666664 41.82942708333333  C 18.489583333333336 41.82942708333333  18.033854166666664 41.52560763888889  17.838541666666664 40.91796875  C 17.708333333333336 40.54904513888889  17.643229166666664 39.96310763888889  17.643229166666664 39.16015625  L 17.643229166666664 29.720052083333336  L 19.791666666666664 29.720052083333336  L 19.791666666666664 38.50911458333333  C 19.791666666666664 39.02994791666667  19.802517361111114 39.312065972222214  19.82421875 39.35546875  C 19.845920138888893 39.68098958333333  20.008680555555557 39.84375  20.3125 39.84375  C 20.74652777777778 39.84375  21.202256944444446 39.50737847222223  21.6796875 38.83463541666667  L 21.6796875 29.720052083333336  Z M 31.8359375 30.924479166666664  C 31.987847222222225 31.380208333333336  32.06380208333333 32.18315972222222  32.06380208333333 33.333333333333336  L 32.06380208333333 38.0859375  C 32.06380208333333 39.21440972222223  31.987847222222225 40.00651041666667  31.8359375 40.46223958333333  C 31.575520833333336 41.37369791666667  31.000434027777786 41.82942708333333  30.110677083333332 41.82942708333333  C 29.351128472222225 41.82942708333333  28.61328125 41.38454861111111  27.897135416666668 40.49479166666667  L 27.897135416666668 41.66666666666667  L 25 41.66666666666667  L 25 25.618489583333336  L 27.897135416666668 25.618489583333336  L 27.897135416666668 30.859375  C 28.59157986111111 29.991319444444443  29.329427083333332 29.557291666666664  30.110677083333332 29.557291666666664  C 31.000434027777786 29.557291666666664  31.575520833333336 30.013020833333336  31.8359375 30.924479166666664  Z M 38.02083333333333 37.53255208333333  L 40.234375 37.53255208333333  L 40.234375 37.82552083333333  C 40.234375 38.45486111111111  40.212673611111114 38.92144097222223  40.16927083333333 39.22526041666667  C 40.10416666666667 39.70269097222223  39.94140625 40.13671875  39.68098958333333 40.52734375  C 39.09505208333333 41.39539930555556  38.226996527777786 41.82942708333333  37.07682291666667 41.82942708333333  C 35.94835069444445 41.82942708333333  35.06944444444445 41.41710069444444  34.44010416666667 40.59244791666667  C 33.984375 40.00651041666667  33.75651041666667 39.07335069444444  33.75651041666667 37.79296875  L 33.75651041666667 33.59375  C 33.75651041666667 32.31336805555555  33.97352430555556 31.380208333333336  34.40755208333333 30.794270833333336  C 35.036892361111114 29.969618055555557  35.90494791666667 29.557291666666664  37.01171875 29.557291666666664  C 38.11848958333333 29.557291666666664  38.96484375 29.969618055555557  39.55078125 30.794270833333336  C 40.00651041666667 31.423611111111104  40.234375 32.356770833333336  40.234375 33.59375  L 40.234375 36.067708333333336  L 35.90494791666667 36.067708333333336  L 35.90494791666667 38.18359375  C 35.90494791666667 39.29036458333333  36.273871527777786 39.84375  37.01171875 39.84375  C 37.53255208333333 39.84375  37.85807291666667 39.56163194444444  37.98828125 38.99739583333333  C 37.98828125 38.97569444444444  37.99370659722223 38.89973958333333  38.00455729166667 38.76953125  C 38.015407986111114 38.63932291666667  38.02083333333333 38.46028645833333  38.02083333333333 38.232421875  L 38.02083333333333 37.53255208333333  Z M 24.51171875 9.016927083333332  C 25.206163194444446 9.016927083333332  25.553385416666668 9.581163194444443  25.553385416666668 10.709635416666668  L 25.553385416666668 15.787760416666668  C 25.553385416666668 16.89453125  25.206163194444446 17.447916666666668  24.51171875 17.447916666666668  C 23.817274305555557 17.447916666666668  23.470052083333336 16.89453125  23.470052083333336 15.787760416666668  L 23.470052083333336 10.709635416666668  C 23.470052083333336 9.581163194444443  23.817274305555557 9.016927083333332  24.51171875 9.016927083333332  Z M 42.25260416666667 42.3828125  C 42.68663194444445 40.55989583333333  42.90364583333333 37.73871527777777  42.90364583333333 33.919270833333336  C 42.90364583333333 30.078125  42.69748263888889 27.256944444444443  42.28515625 25.455729166666664  C 42.068142361111114 24.500868055555554  41.6015625 23.70334201388889  40.88541666666667 23.063151041666668  C 40.16927083333333 22.422960069444443  39.34461805555556 22.04861111111111  38.41145833333333 21.940104166666668  C 35.46006944444445 21.614583333333332  30.989583333333336 21.451822916666668  25 21.451822916666668  C 19.032118055555557 21.451822916666668  14.57248263888889 21.614583333333332  11.62109375 21.940104166666668  C 10.66623263888889 22.04861111111111  9.83615451388889 22.422960069444443  9.130859375 23.063151041666668  C 8.425564236111112 23.70334201388889  7.964409722222222 24.500868055555554  7.747395833333333 25.455729166666664  C 7.313368055555556 27.34375  7.096354166666667 30.164930555555557  7.096354166666667 33.919270833333336  C 7.096354166666667 37.73871527777777  7.313368055555556 40.55989583333333  7.747395833333333 42.3828125  C 7.964409722222222 43.31597222222223  8.425564236111112 44.10807291666667  9.130859375 44.75911458333333  C 9.83615451388889 45.41015625  10.655381944444446 45.78993055555556  11.588541666666668 45.8984375  C 14.561631944444445 46.22395833333333  19.032118055555557 46.38671875  25 46.38671875  C 30.967881944444446 46.38671875  35.43836805555556 46.22395833333333  38.41145833333333 45.8984375  C 39.34461805555556 45.78993055555556  40.163845486111114 45.41015625  40.869140625 44.75911458333333  C 41.57443576388889 44.10807291666667  42.035590277777786 43.31597222222223  42.25260416666667 42.3828125  Z M 18.326822916666664 19.270833333333332  L 18.326822916666664 12.727864583333332  L 21.256510416666664 3.0924479166666687  L 18.815104166666664 3.0924479166666687  L 17.154947916666664 9.440104166666668  L 15.4296875 3.0924479166666687  L 12.890625 3.0924479166666687  C 13.042534722222223 3.5915798611111107  13.292100694444445 4.340277777777773  13.639322916666666 5.338541666666669  L 14.420572916666666 7.584635416666669  C 15.180121527777779 9.819878472222216  15.679253472222223 11.534288194444443  15.91796875 12.727864583333332  L 15.91796875 19.270833333333332  L 18.326822916666664 19.270833333333332  Z M 27.05078125 18.196614583333332  C 27.506510416666668 17.610677083333332  27.734375000000007 16.666666666666668  27.734375 15.364583333333332  L 27.734375 11.1328125  C 27.734375000000007 9.874131944444443  27.506510416666668 8.930121527777773  27.05078125 8.30078125  C 26.421440972222225 7.476128472222215  25.575086805555557 7.063802083333331  24.51171875 7.063802083333331  C 23.404947916666664 7.063802083333331  22.55859375 7.476128472222215  21.97265625 8.30078125  C 21.516927083333336 8.930121527777773  21.2890625 9.874131944444443  21.2890625 11.1328125  L 21.2890625 15.364583333333332  C 21.2890625 16.623263888888886  21.516927083333336 17.567274305555554  21.97265625 18.196614583333332  C 22.55859375 19.02126736111111  23.404947916666664 19.43359375  24.51171875 19.43359375  C 25.575086805555557 19.43359375  26.421440972222225 19.02126736111111  27.05078125 18.196614583333332  Z M 33.62630208333333 17.96875  L 33.62630208333333 19.270833333333332  L 35 19.270833333333332  L 35 7.2265625  L 33.62630208333333 7.2265625  L 33.62630208333333 16.438802083333332  C 33.148871527777786 17.11154513888889  32.693142361111114 17.447916666666668  32.25911458333333 17.447916666666668  C 31.93359375 17.447916666666668  31.75998263888889 17.274305555555554  31.73828125 16.927083333333332  C 31.71657986111111 16.883680555555554  31.705729166666668 16.6015625  31.705729166666668 16.080729166666668  L 31.705729166666668 7.2265625  L 29.524739583333332 7.2265625  L 29.524739583333332 16.764322916666668  C 29.524739583333332 17.567274305555554  29.58984375 18.1640625  29.720052083333332 18.5546875  C 29.958767361111114 19.140625  30.425347222222225 19.43359375  31.119791666666668 19.43359375  C 31.901041666666668 19.43359375  32.73654513888889 18.9453125  33.62630208333333 17.96875  Z M 47.24934895833333 2.7506510416666687  C 49.08311631944444 4.584418402777773  50 6.792534722222215  50 9.375  L 50 40.625  C 50 43.20746527777777  49.08311631944444 45.41558159722223  47.24934895833333 47.24934895833333  C 45.41558159722223 49.08311631944444  43.207465277777786 50  40.625 50  L 9.375 50  C 6.792534722222222 50  4.584418402777779 49.08311631944444  2.750651041666667 47.24934895833333  C 0.9168836805555555 45.41558159722223  0 43.20746527777777  0 40.625  L 0 9.375  C 0 6.792534722222215  0.9168836805555555 4.584418402777773  2.750651041666667 2.7506510416666687  C 4.584418402777779 0.9168836805555525  6.792534722222222 0  9.375 0  L 40.625 0  C 43.207465277777786 0  45.41558159722223 0.9168836805555525  47.24934895833333 2.7506510416666687  Z " fill-rule="nonzero" fill="rgba(0, 0, 0, 1)" stroke="none" transform="matrix(1 0 0 1 3294 727 )" class="fill" />
    <path d="M 28.971354166666668 39.84375  C 29.600694444444446 39.84375  29.915364583333332 39.31206597222223  29.915364583333332 38.24869791666667  L 29.915364583333332 33.138020833333336  C 29.915364583333332 32.052951388888886  29.600694444444446 31.510416666666664  28.971354166666668 31.510416666666664  C 28.602430555555557 31.510416666666664  28.24435763888889 31.68402777777778  27.897135416666668 32.03125  L 27.897135416666668 39.32291666666667  C 28.24435763888889 39.67013888888889  28.602430555555557 39.84375  28.971354166666668 39.84375  Z " stroke-width="0" stroke-dasharray="0" stroke="rgba(255, 255, 255, 0)" fill="none" transform="matrix(1 0 0 1 3294 727 )" class="stroke" mask="url(#Clip299)" />
    <path d="M 35.90494791666667 33.170572916666664  L 35.90494791666667 34.27734375  L 38.05338541666667 34.27734375  L 38.05338541666667 33.170572916666664  C 38.05338541666667 32.063802083333336  37.6953125 31.510416666666664  36.97916666666667 31.510416666666664  C 36.26302083333333 31.510416666666664  35.90494791666667 32.063802083333336  35.90494791666667 33.170572916666664  Z " stroke-width="0" stroke-dasharray="0" stroke="rgba(255, 255, 255, 0)" fill="none" transform="matrix(1 0 0 1 3294 727 )" class="stroke" mask="url(#Clip299)" />
    <path d="M 9.765625 25.618489583333336  L 17.317708333333336 25.618489583333336  L 17.317708333333336 27.897135416666664  L 15 27.897135416666664  L 15 41.66666666666667  L 13 41.66666666666667  L 13 27.897135416666664  L 9.765625 27.897135416666664  L 9.765625 25.618489583333336  Z " stroke-width="0" stroke-dasharray="0" stroke="rgba(255, 255, 255, 0)" fill="none" transform="matrix(1 0 0 1 3294 727 )" class="stroke" mask="url(#Clip299)" />
    <path d="M 21.6796875 29.720052083333336  L 24 29.720052083333336  L 24 41.66666666666667  L 21.6796875 41.66666666666667  L 21.6796875 40.36458333333333  C 20.833333333333336 41.34114583333333  20.008680555555557 41.82942708333333  19.205729166666664 41.82942708333333  C 18.489583333333336 41.82942708333333  18.033854166666664 41.52560763888889  17.838541666666664 40.91796875  C 17.708333333333336 40.54904513888889  17.643229166666664 39.96310763888889  17.643229166666664 39.16015625  L 17.643229166666664 29.720052083333336  L 19.791666666666664 29.720052083333336  L 19.791666666666664 38.50911458333333  C 19.791666666666664 39.02994791666667  19.802517361111114 39.312065972222214  19.82421875 39.35546875  C 19.845920138888893 39.68098958333333  20.008680555555557 39.84375  20.3125 39.84375  C 20.74652777777778 39.84375  21.202256944444446 39.50737847222223  21.6796875 38.83463541666667  L 21.6796875 29.720052083333336  Z " stroke-width="0" stroke-dasharray="0" stroke="rgba(255, 255, 255, 0)" fill="none" transform="matrix(1 0 0 1 3294 727 )" class="stroke" mask="url(#Clip299)" />
    <path d="M 31.8359375 30.924479166666664  C 31.987847222222225 31.380208333333336  32.06380208333333 32.18315972222222  32.06380208333333 33.333333333333336  L 32.06380208333333 38.0859375  C 32.06380208333333 39.21440972222223  31.987847222222225 40.00651041666667  31.8359375 40.46223958333333  C 31.575520833333336 41.37369791666667  31.000434027777786 41.82942708333333  30.110677083333332 41.82942708333333  C 29.351128472222225 41.82942708333333  28.61328125 41.38454861111111  27.897135416666668 40.49479166666667  L 27.897135416666668 41.66666666666667  L 25 41.66666666666667  L 25 25.618489583333336  L 27.897135416666668 25.618489583333336  L 27.897135416666668 30.859375  C 28.59157986111111 29.991319444444443  29.329427083333332 29.557291666666664  30.110677083333332 29.557291666666664  C 31.000434027777786 29.557291666666664  31.575520833333336 30.013020833333336  31.8359375 30.924479166666664  Z " stroke-width="0" stroke-dasharray="0" stroke="rgba(255, 255, 255, 0)" fill="none" transform="matrix(1 0 0 1 3294 727 )" class="stroke" mask="url(#Clip299)" />
    <path d="M 38.02083333333333 37.53255208333333  L 40.234375 37.53255208333333  L 40.234375 37.82552083333333  C 40.234375 38.45486111111111  40.212673611111114 38.92144097222223  40.16927083333333 39.22526041666667  C 40.10416666666667 39.70269097222223  39.94140625 40.13671875  39.68098958333333 40.52734375  C 39.09505208333333 41.39539930555556  38.226996527777786 41.82942708333333  37.07682291666667 41.82942708333333  C 35.94835069444445 41.82942708333333  35.06944444444445 41.41710069444444  34.44010416666667 40.59244791666667  C 33.984375 40.00651041666667  33.75651041666667 39.07335069444444  33.75651041666667 37.79296875  L 33.75651041666667 33.59375  C 33.75651041666667 32.31336805555555  33.97352430555556 31.380208333333336  34.40755208333333 30.794270833333336  C 35.036892361111114 29.969618055555557  35.90494791666667 29.557291666666664  37.01171875 29.557291666666664  C 38.11848958333333 29.557291666666664  38.96484375 29.969618055555557  39.55078125 30.794270833333336  C 40.00651041666667 31.423611111111104  40.234375 32.356770833333336  40.234375 33.59375  L 40.234375 36.067708333333336  L 35.90494791666667 36.067708333333336  L 35.90494791666667 38.18359375  C 35.90494791666667 39.29036458333333  36.273871527777786 39.84375  37.01171875 39.84375  C 37.53255208333333 39.84375  37.85807291666667 39.56163194444444  37.98828125 38.99739583333333  C 37.98828125 38.97569444444444  37.99370659722223 38.89973958333333  38.00455729166667 38.76953125  C 38.015407986111114 38.63932291666667  38.02083333333333 38.46028645833333  38.02083333333333 38.232421875  L 38.02083333333333 37.53255208333333  Z " stroke-width="0" stroke-dasharray="0" stroke="rgba(255, 255, 255, 0)" fill="none" transform="matrix(1 0 0 1 3294 727 )" class="stroke" mask="url(#Clip299)" />
    <path d="M 24.51171875 9.016927083333332  C 25.206163194444446 9.016927083333332  25.553385416666668 9.581163194444443  25.553385416666668 10.709635416666668  L 25.553385416666668 15.787760416666668  C 25.553385416666668 16.89453125  25.206163194444446 17.447916666666668  24.51171875 17.447916666666668  C 23.817274305555557 17.447916666666668  23.470052083333336 16.89453125  23.470052083333336 15.787760416666668  L 23.470052083333336 10.709635416666668  C 23.470052083333336 9.581163194444443  23.817274305555557 9.016927083333332  24.51171875 9.016927083333332  Z " stroke-width="0" stroke-dasharray="0" stroke="rgba(255, 255, 255, 0)" fill="none" transform="matrix(1 0 0 1 3294 727 )" class="stroke" mask="url(#Clip299)" />
    <path d="M 42.25260416666667 42.3828125  C 42.68663194444445 40.55989583333333  42.90364583333333 37.73871527777777  42.90364583333333 33.919270833333336  C 42.90364583333333 30.078125  42.69748263888889 27.256944444444443  42.28515625 25.455729166666664  C 42.068142361111114 24.500868055555554  41.6015625 23.70334201388889  40.88541666666667 23.063151041666668  C 40.16927083333333 22.422960069444443  39.34461805555556 22.04861111111111  38.41145833333333 21.940104166666668  C 35.46006944444445 21.614583333333332  30.989583333333336 21.451822916666668  25 21.451822916666668  C 19.032118055555557 21.451822916666668  14.57248263888889 21.614583333333332  11.62109375 21.940104166666668  C 10.66623263888889 22.04861111111111  9.83615451388889 22.422960069444443  9.130859375 23.063151041666668  C 8.425564236111112 23.70334201388889  7.964409722222222 24.500868055555554  7.747395833333333 25.455729166666664  C 7.313368055555556 27.34375  7.096354166666667 30.164930555555557  7.096354166666667 33.919270833333336  C 7.096354166666667 37.73871527777777  7.313368055555556 40.55989583333333  7.747395833333333 42.3828125  C 7.964409722222222 43.31597222222223  8.425564236111112 44.10807291666667  9.130859375 44.75911458333333  C 9.83615451388889 45.41015625  10.655381944444446 45.78993055555556  11.588541666666668 45.8984375  C 14.561631944444445 46.22395833333333  19.032118055555557 46.38671875  25 46.38671875  C 30.967881944444446 46.38671875  35.43836805555556 46.22395833333333  38.41145833333333 45.8984375  C 39.34461805555556 45.78993055555556  40.163845486111114 45.41015625  40.869140625 44.75911458333333  C 41.57443576388889 44.10807291666667  42.035590277777786 43.31597222222223  42.25260416666667 42.3828125  Z " stroke-width="0" stroke-dasharray="0" stroke="rgba(255, 255, 255, 0)" fill="none" transform="matrix(1 0 0 1 3294 727 )" class="stroke" mask="url(#Clip299)" />
    <path d="M 18.326822916666664 19.270833333333332  L 18.326822916666664 12.727864583333332  L 21.256510416666664 3.0924479166666687  L 18.815104166666664 3.0924479166666687  L 17.154947916666664 9.440104166666668  L 15.4296875 3.0924479166666687  L 12.890625 3.0924479166666687  C 13.042534722222223 3.5915798611111107  13.292100694444445 4.340277777777773  13.639322916666666 5.338541666666669  L 14.420572916666666 7.584635416666669  C 15.180121527777779 9.819878472222216  15.679253472222223 11.534288194444443  15.91796875 12.727864583333332  L 15.91796875 19.270833333333332  L 18.326822916666664 19.270833333333332  Z " stroke-width="0" stroke-dasharray="0" stroke="rgba(255, 255, 255, 0)" fill="none" transform="matrix(1 0 0 1 3294 727 )" class="stroke" mask="url(#Clip299)" />
    <path d="M 27.05078125 18.196614583333332  C 27.506510416666668 17.610677083333332  27.734375000000007 16.666666666666668  27.734375 15.364583333333332  L 27.734375 11.1328125  C 27.734375000000007 9.874131944444443  27.506510416666668 8.930121527777773  27.05078125 8.30078125  C 26.421440972222225 7.476128472222215  25.575086805555557 7.063802083333331  24.51171875 7.063802083333331  C 23.404947916666664 7.063802083333331  22.55859375 7.476128472222215  21.97265625 8.30078125  C 21.516927083333336 8.930121527777773  21.2890625 9.874131944444443  21.2890625 11.1328125  L 21.2890625 15.364583333333332  C 21.2890625 16.623263888888886  21.516927083333336 17.567274305555554  21.97265625 18.196614583333332  C 22.55859375 19.02126736111111  23.404947916666664 19.43359375  24.51171875 19.43359375  C 25.575086805555557 19.43359375  26.421440972222225 19.02126736111111  27.05078125 18.196614583333332  Z " stroke-width="0" stroke-dasharray="0" stroke="rgba(255, 255, 255, 0)" fill="none" transform="matrix(1 0 0 1 3294 727 )" class="stroke" mask="url(#Clip299)" />
    <path d="M 33.62630208333333 17.96875  L 33.62630208333333 19.270833333333332  L 35 19.270833333333332  L 35 7.2265625  L 33.62630208333333 7.2265625  L 33.62630208333333 16.438802083333332  C 33.148871527777786 17.11154513888889  32.693142361111114 17.447916666666668  32.25911458333333 17.447916666666668  C 31.93359375 17.447916666666668  31.75998263888889 17.274305555555554  31.73828125 16.927083333333332  C 31.71657986111111 16.883680555555554  31.705729166666668 16.6015625  31.705729166666668 16.080729166666668  L 31.705729166666668 7.2265625  L 29.524739583333332 7.2265625  L 29.524739583333332 16.764322916666668  C 29.524739583333332 17.567274305555554  29.58984375 18.1640625  29.720052083333332 18.5546875  C 29.958767361111114 19.140625  30.425347222222225 19.43359375  31.119791666666668 19.43359375  C 31.901041666666668 19.43359375  32.73654513888889 18.9453125  33.62630208333333 17.96875  Z " stroke-width="0" stroke-dasharray="0" stroke="rgba(255, 255, 255, 0)" fill="none" transform="matrix(1 0 0 1 3294 727 )" class="stroke" mask="url(#Clip299)" />
    <path d="M 47.24934895833333 2.7506510416666687  C 49.08311631944444 4.584418402777773  50 6.792534722222215  50 9.375  L 50 40.625  C 50 43.20746527777777  49.08311631944444 45.41558159722223  47.24934895833333 47.24934895833333  C 45.41558159722223 49.08311631944444  43.207465277777786 50  40.625 50  L 9.375 50  C 6.792534722222222 50  4.584418402777779 49.08311631944444  2.750651041666667 47.24934895833333  C 0.9168836805555555 45.41558159722223  0 43.20746527777777  0 40.625  L 0 9.375  C 0 6.792534722222215  0.9168836805555555 4.584418402777773  2.750651041666667 2.7506510416666687  C 4.584418402777779 0.9168836805555525  6.792534722222222 0  9.375 0  L 40.625 0  C 43.207465277777786 0  45.41558159722223 0.9168836805555525  47.24934895833333 2.7506510416666687  Z " stroke-width="0" stroke-dasharray="0" stroke="rgba(255, 255, 255, 0)" fill="none" transform="matrix(1 0 0 1 3294 727 )" class="stroke" mask="url(#Clip299)" />
  </g>
</svg>