<?xml version="1.0" encoding="utf-8"?>
<svg version="1.1" xmlns:xlink="http://www.w3.org/1999/xlink" width="25px" height="29px" xmlns="http://www.w3.org/2000/svg">
  <defs>
    <pattern id="BGPattern" patternUnits="userSpaceOnUse" alignment="0 0" imageRepeat="None" />
    <mask fill="white" id="Clip300">
      <path d="M 1.9230769230769231 22.267857142857142  L 1.9230769230769231 26.92857142857143  L 6.25 26.92857142857143  L 6.25 22.267857142857142  L 1.9230769230769231 22.267857142857142  Z M 7.211538461538461 22.267857142857142  L 7.211538461538461 26.92857142857143  L 12.01923076923077 26.92857142857143  L 12.01923076923077 22.267857142857142  L 7.211538461538461 22.267857142857142  Z M 1.9230769230769231 16.05357142857143  L 1.9230769230769231 21.232142857142858  L 6.25 21.232142857142858  L 6.25 16.05357142857143  L 1.9230769230769231 16.05357142857143  Z M 7.211538461538461 16.05357142857143  L 7.211538461538461 21.232142857142858  L 12.01923076923077 21.232142857142858  L 12.01923076923077 16.05357142857143  L 7.211538461538461 16.05357142857143  Z M 1.9230769230769231 10.357142857142856  L 1.9230769230769231 15.01785714285714  L 6.25 15.01785714285714  L 6.25 10.357142857142856  L 1.9230769230769231 10.357142857142856  Z M 12.980769230769232 22.267857142857142  L 12.980769230769232 26.92857142857143  L 17.78846153846154 26.92857142857143  L 17.78846153846154 22.267857142857142  L 12.980769230769232 22.267857142857142  Z M 7.211538461538461 10.357142857142856  L 7.211538461538461 15.01785714285714  L 12.01923076923077 15.01785714285714  L 12.01923076923077 10.357142857142856  L 7.211538461538461 10.357142857142856  Z M 18.75 22.267857142857142  L 18.75 26.92857142857143  L 23.076923076923077 26.92857142857143  L 23.076923076923077 22.267857142857142  L 18.75 22.267857142857142  Z M 12.980769230769232 16.05357142857143  L 12.980769230769232 21.232142857142858  L 17.78846153846154 21.232142857142858  L 17.78846153846154 16.05357142857143  L 12.980769230769232 16.05357142857143  Z M 7.549579326923077 7.61411830357143  C 7.644731570512821 7.511625744047618  7.6923076923076925 7.390252976190474  7.6923076923076925 7.25  L 7.6923076923076925 2.589285714285715  C 7.6923076923076925 2.449032738095238  7.644731570512821 2.327659970238094  7.549579326923077 2.225167410714285  C 7.454427083333334 2.122674851190473  7.341746794871796 2.0714285714285703  7.211538461538461 2.0714285714285703  L 6.25 2.0714285714285703  C 6.119791666666667 2.0714285714285703  6.007111378205129 2.122674851190473  5.911959134615385 2.225167410714285  C 5.8168068910256405 2.327659970238094  5.769230769230769 2.449032738095238  5.769230769230769 2.589285714285715  L 5.769230769230769 7.25  C 5.769230769230769 7.390252976190474  5.8168068910256405 7.511625744047618  5.911959134615385 7.61411830357143  C 6.007111378205129 7.716610863095238  6.119791666666667 7.767857142857144  6.25 7.767857142857144  L 7.211538461538461 7.767857142857144  C 7.341746794871796 7.767857142857144  7.454427083333334 7.716610863095238  7.549579326923077 7.61411830357143  Z M 18.75 16.05357142857143  L 18.75 21.232142857142858  L 23.076923076923077 21.232142857142858  L 23.076923076923077 16.05357142857143  L 18.75 16.05357142857143  Z M 12.980769230769232 10.357142857142856  L 12.980769230769232 15.01785714285714  L 17.78846153846154 15.01785714285714  L 17.78846153846154 10.357142857142856  L 12.980769230769232 10.357142857142856  Z M 18.75 10.357142857142856  L 18.75 15.01785714285714  L 23.076923076923077 15.01785714285714  L 23.076923076923077 10.357142857142856  L 18.75 10.357142857142856  Z M 19.088040865384613 7.61411830357143  C 19.18319310897436 7.511625744047618  19.230769230769234 7.390252976190474  19.230769230769234 7.25  L 19.230769230769234 2.589285714285715  C 19.230769230769234 2.449032738095238  19.18319310897436 2.327659970238094  19.088040865384613 2.225167410714285  C 18.992888621794872 2.122674851190473  18.880208333333336 2.0714285714285703  18.75 2.0714285714285703  L 17.78846153846154 2.0714285714285703  C 17.658253205128208 2.0714285714285703  17.545572916666668 2.122674851190473  17.450420673076923 2.225167410714285  C 17.355268429487182 2.327659970238094  17.307692307692307 2.449032738095238  17.307692307692307 2.589285714285715  L 17.307692307692307 7.25  C 17.307692307692307 7.390252976190474  17.355268429487182 7.511625744047618  17.450420673076923 7.61411830357143  C 17.545572916666668 7.716610863095238  17.658253205128208 7.767857142857144  17.78846153846154 7.767857142857144  L 18.75 7.767857142857144  C 18.880208333333336 7.767857142857144  18.992888621794872 7.716610863095238  19.088040865384613 7.61411830357143  Z M 24.42908653846154 4.7578125  C 24.809695512820515 5.167782738095238  25 5.653273809523808  25 6.214285714285714  L 25 26.92857142857143  C 25 27.489583333333336  24.809695512820515 27.975074404761905  24.42908653846154 28.385044642857146  C 24.048477564102566 28.79501488095238  23.597756410256412 29  23.076923076923077 29  L 1.9230769230769231 29  C 1.4022435897435899 29  0.951522435897436 28.79501488095238  0.5709134615384615 28.385044642857146  C 0.19030448717948717 27.975074404761905  0 27.489583333333336  0 26.92857142857143  L 0 6.214285714285714  C 0 5.653273809523808  0.19030448717948717 5.167782738095238  0.5709134615384615 4.7578125  C 0.951522435897436 4.347842261904758  1.4022435897435899 4.142857142857144  1.9230769230769231 4.142857142857144  L 3.8461538461538463 4.142857142857144  L 3.8461538461538463 2.589285714285715  C 3.8461538461538463 1.8772321428571441  4.081530448717949 1.2676711309523792  4.552283653846153 0.7606026785714295  C 5.0230368589743595 0.2535342261904765  5.588942307692308 0  6.25 0  L 7.211538461538461 0  C 7.872596153846153 0  8.438501602564104 0.2535342261904765  8.909254807692307 0.7606026785714295  C 9.380008012820513 1.2676711309523792  9.615384615384617 1.8772321428571441  9.615384615384617 2.589285714285715  L 9.615384615384617 4.142857142857144  L 15.384615384615385 4.142857142857144  L 15.384615384615385 2.589285714285715  C 15.384615384615385 1.8772321428571441  15.619991987179487 1.2676711309523792  16.090745192307693 0.7606026785714295  C 16.5614983974359 0.2535342261904765  17.127403846153847 0  17.78846153846154 0  L 18.75 0  C 19.411057692307693 0  19.976963141025642 0.2535342261904765  20.447716346153847 0.7606026785714295  C 20.918469551282055 1.2676711309523792  21.153846153846153 1.8772321428571441  21.153846153846153 2.589285714285715  L 21.153846153846153 4.142857142857144  L 23.076923076923077 4.142857142857144  C 23.597756410256412 4.142857142857144  24.048477564102566 4.347842261904758  24.42908653846154 4.7578125  Z " fill-rule="evenodd" />
    </mask>
  </defs>
  <g transform="matrix(1 0 0 1 -1508 -123 )">
    <path d="M 1.9230769230769231 22.267857142857142  L 1.9230769230769231 26.92857142857143  L 6.25 26.92857142857143  L 6.25 22.267857142857142  L 1.9230769230769231 22.267857142857142  Z M 7.211538461538461 22.267857142857142  L 7.211538461538461 26.92857142857143  L 12.01923076923077 26.92857142857143  L 12.01923076923077 22.267857142857142  L 7.211538461538461 22.267857142857142  Z M 1.9230769230769231 16.05357142857143  L 1.9230769230769231 21.232142857142858  L 6.25 21.232142857142858  L 6.25 16.05357142857143  L 1.9230769230769231 16.05357142857143  Z M 7.211538461538461 16.05357142857143  L 7.211538461538461 21.232142857142858  L 12.01923076923077 21.232142857142858  L 12.01923076923077 16.05357142857143  L 7.211538461538461 16.05357142857143  Z M 1.9230769230769231 10.357142857142856  L 1.9230769230769231 15.01785714285714  L 6.25 15.01785714285714  L 6.25 10.357142857142856  L 1.9230769230769231 10.357142857142856  Z M 12.980769230769232 22.267857142857142  L 12.980769230769232 26.92857142857143  L 17.78846153846154 26.92857142857143  L 17.78846153846154 22.267857142857142  L 12.980769230769232 22.267857142857142  Z M 7.211538461538461 10.357142857142856  L 7.211538461538461 15.01785714285714  L 12.01923076923077 15.01785714285714  L 12.01923076923077 10.357142857142856  L 7.211538461538461 10.357142857142856  Z M 18.75 22.267857142857142  L 18.75 26.92857142857143  L 23.076923076923077 26.92857142857143  L 23.076923076923077 22.267857142857142  L 18.75 22.267857142857142  Z M 12.980769230769232 16.05357142857143  L 12.980769230769232 21.232142857142858  L 17.78846153846154 21.232142857142858  L 17.78846153846154 16.05357142857143  L 12.980769230769232 16.05357142857143  Z M 7.549579326923077 7.61411830357143  C 7.644731570512821 7.511625744047618  7.6923076923076925 7.390252976190474  7.6923076923076925 7.25  L 7.6923076923076925 2.589285714285715  C 7.6923076923076925 2.449032738095238  7.644731570512821 2.327659970238094  7.549579326923077 2.225167410714285  C 7.454427083333334 2.122674851190473  7.341746794871796 2.0714285714285703  7.211538461538461 2.0714285714285703  L 6.25 2.0714285714285703  C 6.119791666666667 2.0714285714285703  6.007111378205129 2.122674851190473  5.911959134615385 2.225167410714285  C 5.8168068910256405 2.327659970238094  5.769230769230769 2.449032738095238  5.769230769230769 2.589285714285715  L 5.769230769230769 7.25  C 5.769230769230769 7.390252976190474  5.8168068910256405 7.511625744047618  5.911959134615385 7.61411830357143  C 6.007111378205129 7.716610863095238  6.119791666666667 7.767857142857144  6.25 7.767857142857144  L 7.211538461538461 7.767857142857144  C 7.341746794871796 7.767857142857144  7.454427083333334 7.716610863095238  7.549579326923077 7.61411830357143  Z M 18.75 16.05357142857143  L 18.75 21.232142857142858  L 23.076923076923077 21.232142857142858  L 23.076923076923077 16.05357142857143  L 18.75 16.05357142857143  Z M 12.980769230769232 10.357142857142856  L 12.980769230769232 15.01785714285714  L 17.78846153846154 15.01785714285714  L 17.78846153846154 10.357142857142856  L 12.980769230769232 10.357142857142856  Z M 18.75 10.357142857142856  L 18.75 15.01785714285714  L 23.076923076923077 15.01785714285714  L 23.076923076923077 10.357142857142856  L 18.75 10.357142857142856  Z M 19.088040865384613 7.61411830357143  C 19.18319310897436 7.511625744047618  19.230769230769234 7.390252976190474  19.230769230769234 7.25  L 19.230769230769234 2.589285714285715  C 19.230769230769234 2.449032738095238  19.18319310897436 2.327659970238094  19.088040865384613 2.225167410714285  C 18.992888621794872 2.122674851190473  18.880208333333336 2.0714285714285703  18.75 2.0714285714285703  L 17.78846153846154 2.0714285714285703  C 17.658253205128208 2.0714285714285703  17.545572916666668 2.122674851190473  17.450420673076923 2.225167410714285  C 17.355268429487182 2.327659970238094  17.307692307692307 2.449032738095238  17.307692307692307 2.589285714285715  L 17.307692307692307 7.25  C 17.307692307692307 7.390252976190474  17.355268429487182 7.511625744047618  17.450420673076923 7.61411830357143  C 17.545572916666668 7.716610863095238  17.658253205128208 7.767857142857144  17.78846153846154 7.767857142857144  L 18.75 7.767857142857144  C 18.880208333333336 7.767857142857144  18.992888621794872 7.716610863095238  19.088040865384613 7.61411830357143  Z M 24.42908653846154 4.7578125  C 24.809695512820515 5.167782738095238  25 5.653273809523808  25 6.214285714285714  L 25 26.92857142857143  C 25 27.489583333333336  24.809695512820515 27.975074404761905  24.42908653846154 28.385044642857146  C 24.048477564102566 28.79501488095238  23.597756410256412 29  23.076923076923077 29  L 1.9230769230769231 29  C 1.4022435897435899 29  0.951522435897436 28.79501488095238  0.5709134615384615 28.385044642857146  C 0.19030448717948717 27.975074404761905  0 27.489583333333336  0 26.92857142857143  L 0 6.214285714285714  C 0 5.653273809523808  0.19030448717948717 5.167782738095238  0.5709134615384615 4.7578125  C 0.951522435897436 4.347842261904758  1.4022435897435899 4.142857142857144  1.9230769230769231 4.142857142857144  L 3.8461538461538463 4.142857142857144  L 3.8461538461538463 2.589285714285715  C 3.8461538461538463 1.8772321428571441  4.081530448717949 1.2676711309523792  4.552283653846153 0.7606026785714295  C 5.0230368589743595 0.2535342261904765  5.588942307692308 0  6.25 0  L 7.211538461538461 0  C 7.872596153846153 0  8.438501602564104 0.2535342261904765  8.909254807692307 0.7606026785714295  C 9.380008012820513 1.2676711309523792  9.615384615384617 1.8772321428571441  9.615384615384617 2.589285714285715  L 9.615384615384617 4.142857142857144  L 15.384615384615385 4.142857142857144  L 15.384615384615385 2.589285714285715  C 15.384615384615385 1.8772321428571441  15.619991987179487 1.2676711309523792  16.090745192307693 0.7606026785714295  C 16.5614983974359 0.2535342261904765  17.127403846153847 0  17.78846153846154 0  L 18.75 0  C 19.411057692307693 0  19.976963141025642 0.2535342261904765  20.447716346153847 0.7606026785714295  C 20.918469551282055 1.2676711309523792  21.153846153846153 1.8772321428571441  21.153846153846153 2.589285714285715  L 21.153846153846153 4.142857142857144  L 23.076923076923077 4.142857142857144  C 23.597756410256412 4.142857142857144  24.048477564102566 4.347842261904758  24.42908653846154 4.7578125  Z " fill-rule="nonzero" fill="rgba(0, 0, 0, 1)" stroke="none" transform="matrix(1 0 0 1 1508 123 )" class="fill" />
    <path d="M 1.9230769230769231 22.267857142857142  L 1.9230769230769231 26.92857142857143  L 6.25 26.92857142857143  L 6.25 22.267857142857142  L 1.9230769230769231 22.267857142857142  Z " stroke-width="0" stroke-dasharray="0" stroke="rgba(255, 255, 255, 0)" fill="none" transform="matrix(1 0 0 1 1508 123 )" class="stroke" mask="url(#Clip300)" />
    <path d="M 7.211538461538461 22.267857142857142  L 7.211538461538461 26.92857142857143  L 12.01923076923077 26.92857142857143  L 12.01923076923077 22.267857142857142  L 7.211538461538461 22.267857142857142  Z " stroke-width="0" stroke-dasharray="0" stroke="rgba(255, 255, 255, 0)" fill="none" transform="matrix(1 0 0 1 1508 123 )" class="stroke" mask="url(#Clip300)" />
    <path d="M 1.9230769230769231 16.05357142857143  L 1.9230769230769231 21.232142857142858  L 6.25 21.232142857142858  L 6.25 16.05357142857143  L 1.9230769230769231 16.05357142857143  Z " stroke-width="0" stroke-dasharray="0" stroke="rgba(255, 255, 255, 0)" fill="none" transform="matrix(1 0 0 1 1508 123 )" class="stroke" mask="url(#Clip300)" />
    <path d="M 7.211538461538461 16.05357142857143  L 7.211538461538461 21.232142857142858  L 12.01923076923077 21.232142857142858  L 12.01923076923077 16.05357142857143  L 7.211538461538461 16.05357142857143  Z " stroke-width="0" stroke-dasharray="0" stroke="rgba(255, 255, 255, 0)" fill="none" transform="matrix(1 0 0 1 1508 123 )" class="stroke" mask="url(#Clip300)" />
    <path d="M 1.9230769230769231 10.357142857142856  L 1.9230769230769231 15.01785714285714  L 6.25 15.01785714285714  L 6.25 10.357142857142856  L 1.9230769230769231 10.357142857142856  Z " stroke-width="0" stroke-dasharray="0" stroke="rgba(255, 255, 255, 0)" fill="none" transform="matrix(1 0 0 1 1508 123 )" class="stroke" mask="url(#Clip300)" />
    <path d="M 12.980769230769232 22.267857142857142  L 12.980769230769232 26.92857142857143  L 17.78846153846154 26.92857142857143  L 17.78846153846154 22.267857142857142  L 12.980769230769232 22.267857142857142  Z " stroke-width="0" stroke-dasharray="0" stroke="rgba(255, 255, 255, 0)" fill="none" transform="matrix(1 0 0 1 1508 123 )" class="stroke" mask="url(#Clip300)" />
    <path d="M 7.211538461538461 10.357142857142856  L 7.211538461538461 15.01785714285714  L 12.01923076923077 15.01785714285714  L 12.01923076923077 10.357142857142856  L 7.211538461538461 10.357142857142856  Z " stroke-width="0" stroke-dasharray="0" stroke="rgba(255, 255, 255, 0)" fill="none" transform="matrix(1 0 0 1 1508 123 )" class="stroke" mask="url(#Clip300)" />
    <path d="M 18.75 22.267857142857142  L 18.75 26.92857142857143  L 23.076923076923077 26.92857142857143  L 23.076923076923077 22.267857142857142  L 18.75 22.267857142857142  Z " stroke-width="0" stroke-dasharray="0" stroke="rgba(255, 255, 255, 0)" fill="none" transform="matrix(1 0 0 1 1508 123 )" class="stroke" mask="url(#Clip300)" />
    <path d="M 12.980769230769232 16.05357142857143  L 12.980769230769232 21.232142857142858  L 17.78846153846154 21.232142857142858  L 17.78846153846154 16.05357142857143  L 12.980769230769232 16.05357142857143  Z " stroke-width="0" stroke-dasharray="0" stroke="rgba(255, 255, 255, 0)" fill="none" transform="matrix(1 0 0 1 1508 123 )" class="stroke" mask="url(#Clip300)" />
    <path d="M 7.549579326923077 7.61411830357143  C 7.644731570512821 7.511625744047618  7.6923076923076925 7.390252976190474  7.6923076923076925 7.25  L 7.6923076923076925 2.589285714285715  C 7.6923076923076925 2.449032738095238  7.644731570512821 2.327659970238094  7.549579326923077 2.225167410714285  C 7.454427083333334 2.122674851190473  7.341746794871796 2.0714285714285703  7.211538461538461 2.0714285714285703  L 6.25 2.0714285714285703  C 6.119791666666667 2.0714285714285703  6.007111378205129 2.122674851190473  5.911959134615385 2.225167410714285  C 5.8168068910256405 2.327659970238094  5.769230769230769 2.449032738095238  5.769230769230769 2.589285714285715  L 5.769230769230769 7.25  C 5.769230769230769 7.390252976190474  5.8168068910256405 7.511625744047618  5.911959134615385 7.61411830357143  C 6.007111378205129 7.716610863095238  6.119791666666667 7.767857142857144  6.25 7.767857142857144  L 7.211538461538461 7.767857142857144  C 7.341746794871796 7.767857142857144  7.454427083333334 7.716610863095238  7.549579326923077 7.61411830357143  Z " stroke-width="0" stroke-dasharray="0" stroke="rgba(255, 255, 255, 0)" fill="none" transform="matrix(1 0 0 1 1508 123 )" class="stroke" mask="url(#Clip300)" />
    <path d="M 18.75 16.05357142857143  L 18.75 21.232142857142858  L 23.076923076923077 21.232142857142858  L 23.076923076923077 16.05357142857143  L 18.75 16.05357142857143  Z " stroke-width="0" stroke-dasharray="0" stroke="rgba(255, 255, 255, 0)" fill="none" transform="matrix(1 0 0 1 1508 123 )" class="stroke" mask="url(#Clip300)" />
    <path d="M 12.980769230769232 10.357142857142856  L 12.980769230769232 15.01785714285714  L 17.78846153846154 15.01785714285714  L 17.78846153846154 10.357142857142856  L 12.980769230769232 10.357142857142856  Z " stroke-width="0" stroke-dasharray="0" stroke="rgba(255, 255, 255, 0)" fill="none" transform="matrix(1 0 0 1 1508 123 )" class="stroke" mask="url(#Clip300)" />
    <path d="M 18.75 10.357142857142856  L 18.75 15.01785714285714  L 23.076923076923077 15.01785714285714  L 23.076923076923077 10.357142857142856  L 18.75 10.357142857142856  Z " stroke-width="0" stroke-dasharray="0" stroke="rgba(255, 255, 255, 0)" fill="none" transform="matrix(1 0 0 1 1508 123 )" class="stroke" mask="url(#Clip300)" />
    <path d="M 19.088040865384613 7.61411830357143  C 19.18319310897436 7.511625744047618  19.230769230769234 7.390252976190474  19.230769230769234 7.25  L 19.230769230769234 2.589285714285715  C 19.230769230769234 2.449032738095238  19.18319310897436 2.327659970238094  19.088040865384613 2.225167410714285  C 18.992888621794872 2.122674851190473  18.880208333333336 2.0714285714285703  18.75 2.0714285714285703  L 17.78846153846154 2.0714285714285703  C 17.658253205128208 2.0714285714285703  17.545572916666668 2.122674851190473  17.450420673076923 2.225167410714285  C 17.355268429487182 2.327659970238094  17.307692307692307 2.449032738095238  17.307692307692307 2.589285714285715  L 17.307692307692307 7.25  C 17.307692307692307 7.390252976190474  17.355268429487182 7.511625744047618  17.450420673076923 7.61411830357143  C 17.545572916666668 7.716610863095238  17.658253205128208 7.767857142857144  17.78846153846154 7.767857142857144  L 18.75 7.767857142857144  C 18.880208333333336 7.767857142857144  18.992888621794872 7.716610863095238  19.088040865384613 7.61411830357143  Z " stroke-width="0" stroke-dasharray="0" stroke="rgba(255, 255, 255, 0)" fill="none" transform="matrix(1 0 0 1 1508 123 )" class="stroke" mask="url(#Clip300)" />
    <path d="M 24.42908653846154 4.7578125  C 24.809695512820515 5.167782738095238  25 5.653273809523808  25 6.214285714285714  L 25 26.92857142857143  C 25 27.489583333333336  24.809695512820515 27.975074404761905  24.42908653846154 28.385044642857146  C 24.048477564102566 28.79501488095238  23.597756410256412 29  23.076923076923077 29  L 1.9230769230769231 29  C 1.4022435897435899 29  0.951522435897436 28.79501488095238  0.5709134615384615 28.385044642857146  C 0.19030448717948717 27.975074404761905  0 27.489583333333336  0 26.92857142857143  L 0 6.214285714285714  C 0 5.653273809523808  0.19030448717948717 5.167782738095238  0.5709134615384615 4.7578125  C 0.951522435897436 4.347842261904758  1.4022435897435899 4.142857142857144  1.9230769230769231 4.142857142857144  L 3.8461538461538463 4.142857142857144  L 3.8461538461538463 2.589285714285715  C 3.8461538461538463 1.8772321428571441  4.081530448717949 1.2676711309523792  4.552283653846153 0.7606026785714295  C 5.0230368589743595 0.2535342261904765  5.588942307692308 0  6.25 0  L 7.211538461538461 0  C 7.872596153846153 0  8.438501602564104 0.2535342261904765  8.909254807692307 0.7606026785714295  C 9.380008012820513 1.2676711309523792  9.615384615384617 1.8772321428571441  9.615384615384617 2.589285714285715  L 9.615384615384617 4.142857142857144  L 15.384615384615385 4.142857142857144  L 15.384615384615385 2.589285714285715  C 15.384615384615385 1.8772321428571441  15.619991987179487 1.2676711309523792  16.090745192307693 0.7606026785714295  C 16.5614983974359 0.2535342261904765  17.127403846153847 0  17.78846153846154 0  L 18.75 0  C 19.411057692307693 0  19.976963141025642 0.2535342261904765  20.447716346153847 0.7606026785714295  C 20.918469551282055 1.2676711309523792  21.153846153846153 1.8772321428571441  21.153846153846153 2.589285714285715  L 21.153846153846153 4.142857142857144  L 23.076923076923077 4.142857142857144  C 23.597756410256412 4.142857142857144  24.048477564102566 4.347842261904758  24.42908653846154 4.7578125  Z " stroke-width="0" stroke-dasharray="0" stroke="rgba(255, 255, 255, 0)" fill="none" transform="matrix(1 0 0 1 1508 123 )" class="stroke" mask="url(#Clip300)" />
  </g>
</svg>