<?xml version="1.0" encoding="utf-8"?>
<svg version="1.1" xmlns:xlink="http://www.w3.org/1999/xlink" width="50px" height="53px" xmlns="http://www.w3.org/2000/svg">
  <defs>
    <pattern id="BGPattern" patternUnits="userSpaceOnUse" alignment="0 0" imageRepeat="None" />
    <mask fill="white" id="Clip301">
      <path d="M 40 15.049999999999999  C 40 25.8  28 32.25  20 43  C 12 32.25  0 25.8  0 15.049999999999999  C 0 9.459999999999999  4 0  20 0  C 36 0  40 9.459999999999999  40 15.049999999999999  Z " fill-rule="evenodd" />
    </mask>
  </defs>
  <g transform="matrix(1 0 0 1 -1180 -346 )">
    <path d="M 40 15.049999999999999  C 40 25.8  28 32.25  20 43  C 12 32.25  0 25.8  0 15.049999999999999  C 0 9.459999999999999  4 0  20 0  C 36 0  40 9.459999999999999  40 15.049999999999999  Z " fill-rule="nonzero" fill="rgba(0, 194, 255, 1)" stroke="none" transform="matrix(1 0 0 1 1184 350 )" class="fill" />
    <path d="M 40 15.049999999999999  C 40 25.8  28 32.25  20 43  C 12 32.25  0 25.8  0 15.049999999999999  C 0 9.459999999999999  4 0  20 0  C 36 0  40 9.459999999999999  40 15.049999999999999  Z " stroke-width="2" stroke-dasharray="0" stroke="rgba(255, 255, 255, 1)" fill="none" transform="matrix(1 0 0 1 1184 350 )" class="stroke" mask="url(#Clip301)" />
  </g>
  <style>svg { filter: drop-shadow(1px 1px 2.5px rgba(0, 0, 0, 0.6980392156862745)); }</style>
</svg>