<?xml version="1.0" encoding="utf-8"?>
<svg version="1.1" xmlns:xlink="http://www.w3.org/1999/xlink" width="35px" height="33px" xmlns="http://www.w3.org/2000/svg">
  <defs>
    <pattern id="BGPattern" patternUnits="userSpaceOnUse" alignment="0 0" imageRepeat="None" />
    <mask fill="white" id="Clip302">
      <path d="M 0 11.5  C 0 5.06  5.499999999999999 0  12.5 0  C 19.5 0  25 5.06  25 11.5  C 25 17.94  19.5 23  12.5 23  C 5.499999999999999 23  0 17.94  0 11.5  Z " fill-rule="evenodd" />
    </mask>
  </defs>
  <g transform="matrix(1 0 0 1 -1612 -270 )">
    <path d="M 0 11.5  C 0 5.06  5.499999999999999 0  12.5 0  C 19.5 0  25 5.06  25 11.5  C 25 17.94  19.5 23  12.5 23  C 5.499999999999999 23  0 17.94  0 11.5  Z " fill-rule="nonzero" fill="rgba(0, 194, 255, 1)" stroke="none" transform="matrix(1 0 0 1 1616 274 )" class="fill" />
    <path d="M 0 11.5  C 0 5.06  5.499999999999999 0  12.5 0  C 19.5 0  25 5.06  25 11.5  C 25 17.94  19.5 23  12.5 23  C 5.499999999999999 23  0 17.94  0 11.5  Z " stroke-width="2" stroke-dasharray="0" stroke="rgba(255, 255, 255, 1)" fill="none" transform="matrix(1 0 0 1 1616 274 )" class="stroke" mask="url(#Clip302)" />
  </g>
  <style>svg { filter: drop-shadow(1px 1px 2.5px rgba(0, 0, 0, 0.6980392156862745)); }</style>
</svg>