<?xml version="1.0" encoding="utf-8"?>
<svg version="1.1" xmlns:xlink="http://www.w3.org/1999/xlink" width="59px" height="57px" xmlns="http://www.w3.org/2000/svg">
  <defs>
    <pattern id="BGPattern" patternUnits="userSpaceOnUse" alignment="0 0" imageRepeat="None" />
    <mask fill="white" id="Clip303">
      <path d="M 0 28.5  C 0 12.54  12.979999999999999 0  29.5 0  C 46.02 0  59 12.54  59 28.5  C 59 44.46  46.02 57  29.5 57  C 12.979999999999999 57  0 44.46  0 28.5  Z " fill-rule="evenodd" />
    </mask>
  </defs>
  <g transform="matrix(1 0 0 1 -3582 -49 )">
    <path d="M 0 28.5  C 0 12.54  12.979999999999999 0  29.5 0  C 46.02 0  59 12.54  59 28.5  C 59 44.46  46.02 57  29.5 57  C 12.979999999999999 57  0 44.46  0 28.5  Z " fill-rule="nonzero" fill="rgba(255, 255, 255, 1)" stroke="none" transform="matrix(1 0 0 1 3582 49 )" class="fill" />
    <path d="M 0 28.5  C 0 12.54  12.979999999999999 0  29.5 0  C 46.02 0  59 12.54  59 28.5  C 59 44.46  46.02 57  29.5 57  C 12.979999999999999 57  0 44.46  0 28.5  Z " stroke-width="2" stroke-dasharray="0" stroke="rgba(121, 121, 121, 1)" fill="none" transform="matrix(1 0 0 1 3582 49 )" class="stroke" mask="url(#Clip303)" />
  </g>
</svg>