<?xml version="1.0" encoding="utf-8"?>
<svg version="1.1" xmlns:xlink="http://www.w3.org/1999/xlink" width="30px" height="27px" xmlns="http://www.w3.org/2000/svg">
  <defs>
    <pattern id="BGPattern" patternUnits="userSpaceOnUse" alignment="0 0" imageRepeat="None" />
    <mask fill="white" id="Clip304">
      <path d="M 18.53515625 16.681640625000004  C 19.51171875 15.802734374999998  20 14.7421875  20 13.5  C 20 12.257812499999998  19.51171875 11.197265624999998  18.53515625 10.318359375000002  C 17.55859375 9.439453125  16.380208333333336 9.000000000000002  15 9.000000000000002  C 13.619791666666668 9.000000000000002  12.44140625 9.439453125  11.46484375 10.318359375000002  C 10.48828125 11.197265624999998  10 12.257812499999998  10 13.5  C 10 14.7421875  10.48828125 15.802734374999998  11.46484375 16.681640625000004  C 12.44140625 17.560546875  13.619791666666668 18.000000000000004  15 18.000000000000004  C 16.380208333333336 18.000000000000004  17.55859375 17.560546875  18.53515625 16.681640625000004  Z M 29.84375 11.170898437499998  C 29.947916666666664 11.293945312500002  30 11.431640625  30 11.583984375000002  L 30 15.486328124999998  C 30 15.626953125000002  29.947916666666664 15.761718750000002  29.84375 15.890625000000002  C 29.739583333333336 16.019531249999996  29.609375 16.095703124999996  29.453125 16.119140624999996  L 25.83984375 16.611328125  C 25.59244791666667 17.244140625  25.33854166666667 17.77734375  25.078125 18.210937500000004  C 25.53385416666667 18.796875  26.23046875 19.605468749999996  27.16796875 20.63671875  C 27.298177083333336 20.77734375  27.36328125 20.923828125  27.36328125 21.076171875  C 27.36328125 21.228515625000004  27.3046875 21.36328125  27.1875 21.48046875  C 26.8359375 21.914062500000004  26.19140625 22.546875000000004  25.25390625 23.37890625  C 24.31640625 24.2109375  23.704427083333336 24.626953125  23.41796875 24.626953125  C 23.26171875 24.626953125  23.092447916666668 24.57421875  22.91015625 24.46875  L 20.21484375 22.5703125  C 19.641927083333332 22.83984375  19.049479166666668 23.0625  18.4375 23.23828125  C 18.229166666666668 24.83203125  18.040364583333336 25.921875000000004  17.87109375 26.5078125  C 17.779947916666668 26.8359375  17.545572916666668 27  17.16796875 27  L 12.83203125 27  C 12.649739583333336 27  12.490234375 26.950195312500004  12.353515625 26.8505859375  C 12.216796875 26.7509765625  12.141927083333336 26.625  12.12890625 26.47265625  L 11.58203125 23.23828125  C 10.944010416666668 23.05078125  10.358072916666668 22.833984375  9.82421875 22.587890625  L 7.0703125 24.46875  C 6.940104166666668 24.57421875  6.77734375 24.626953125  6.58203125 24.626953125  C 6.399739583333334 24.626953125  6.236979166666668 24.5625  6.09375 24.43359375  C 4.453125 23.09765625  3.37890625 22.11328125  2.87109375 21.48046875  C 2.779947916666667 21.36328125  2.734375 21.228515625000004  2.734375 21.076171875  C 2.734375 20.935546875  2.786458333333334 20.800781249999996  2.890625 20.671875  C 3.0859375 20.42578125  3.41796875 20.0361328125  3.8867187499999996 19.502929687500004  C 4.35546875 18.969726562499996  4.70703125 18.556640624999996  4.94140625 18.263671875000004  C 4.58984375 17.677734374999996  4.322916666666667 17.097656249999996  4.140625 16.523437500000004  L 0.56640625 16.048828125000004  C 0.39713541666666674 16.025390625  0.2604166666666667 15.9521484375  0.15625 15.829101562499998  C 0.05208333333333333 15.706054687500002  0 15.568359374999996  0 15.416015625000002  L 0 11.513671874999998  C 0 11.373046875000002  0.05208333333333333 11.238281249999998  0.15625 11.109375000000002  C 0.2604166666666667 10.98046875  0.38411458333333337 10.904296875  0.52734375 10.880859374999998  L 4.16015625 10.388671875  C 4.342447916666667 9.849609375  4.596354166666667 9.310546875  4.921875 8.771484374999998  C 4.401041666666667 8.103515625000002  3.704427083333334 7.294921874999999  2.83203125 6.345703124999999  C 2.701822916666667 6.205078125000001  2.63671875 6.064453125  2.63671875 5.923828124999999  C 2.63671875 5.806640624999998  2.6953125 5.6718749999999964  2.8125 5.519531250000001  C 3.1510416666666665 5.097656250000001  3.792317708333334 4.467773437499997  4.736328125 3.629882812499999  C 5.680338541666668 2.791992187499998  6.295572916666668 2.373046875  6.58203125 2.373046875  C 6.751302083333334 2.373046875  6.920572916666668 2.4316406249999987  7.08984375 2.548828124999999  L 9.78515625 4.4296875  C 10.358072916666668 4.160156249999998  10.950520833333336 3.937500000000001  11.5625 3.761718749999999  C 11.770833333333336 2.1679687499999987  11.959635416666666 1.0781249999999978  12.12890625 0.492187499999999  C 12.220052083333334 0.16406249999999867  12.454427083333334 0  12.83203125 0  L 17.16796875 0  C 17.350260416666668 0  17.509765625 0.04980468749999767  17.646484375 0.149414062499999  C 17.783203125 0.24902343749999734  17.858072916666668 0.37499999999999867  17.87109375 0.52734375  L 18.41796875 3.761718749999999  C 19.055989583333332 3.9492187499999982  19.641927083333332 4.166015625  20.17578125 4.412109375000001  L 22.94921875 2.53125  C 23.06640625 2.42578125  23.22265625 2.373046875  23.41796875 2.373046875  C 23.587239583333336 2.373046875  23.75 2.4316406249999987  23.90625 2.548828124999999  C 25.5859375 3.9433593749999996  26.66015625 4.939453125000001  27.12890625 5.537109375  C 27.220052083333336 5.630859375  27.265625 5.759765624999997  27.265625 5.923828124999999  C 27.265625 6.064453125  27.21354166666667 6.1992187499999964  27.109375 6.328125  C 26.9140625 6.574218750000001  26.58203125 6.9638671874999964  26.11328125 7.497070312500001  C 25.64453125 8.0302734375  25.29296875 8.443359374999998  25.05859375 8.736328125000002  C 25.39713541666667 9.322265625  25.6640625 9.896484374999998  25.859375 10.458984374999998  L 29.43359375 10.951171875000002  C 29.602864583333332 10.974609374999998  29.739583333333336 11.047851562499996  29.84375 11.170898437499998  Z " fill-rule="evenodd" />
    </mask>
  </defs>
  <g transform="matrix(1 0 0 1 -3906 -58 )">
    <path d="M 18.53515625 16.681640625000004  C 19.51171875 15.802734374999998  20 14.7421875  20 13.5  C 20 12.257812499999998  19.51171875 11.197265624999998  18.53515625 10.318359375000002  C 17.55859375 9.439453125  16.380208333333336 9.000000000000002  15 9.000000000000002  C 13.619791666666668 9.000000000000002  12.44140625 9.439453125  11.46484375 10.318359375000002  C 10.48828125 11.197265624999998  10 12.257812499999998  10 13.5  C 10 14.7421875  10.48828125 15.802734374999998  11.46484375 16.681640625000004  C 12.44140625 17.560546875  13.619791666666668 18.000000000000004  15 18.000000000000004  C 16.380208333333336 18.000000000000004  17.55859375 17.560546875  18.53515625 16.681640625000004  Z M 29.84375 11.170898437499998  C 29.947916666666664 11.293945312500002  30 11.431640625  30 11.583984375000002  L 30 15.486328124999998  C 30 15.626953125000002  29.947916666666664 15.761718750000002  29.84375 15.890625000000002  C 29.739583333333336 16.019531249999996  29.609375 16.095703124999996  29.453125 16.119140624999996  L 25.83984375 16.611328125  C 25.59244791666667 17.244140625  25.33854166666667 17.77734375  25.078125 18.210937500000004  C 25.53385416666667 18.796875  26.23046875 19.605468749999996  27.16796875 20.63671875  C 27.298177083333336 20.77734375  27.36328125 20.923828125  27.36328125 21.076171875  C 27.36328125 21.228515625000004  27.3046875 21.36328125  27.1875 21.48046875  C 26.8359375 21.914062500000004  26.19140625 22.546875000000004  25.25390625 23.37890625  C 24.31640625 24.2109375  23.704427083333336 24.626953125  23.41796875 24.626953125  C 23.26171875 24.626953125  23.092447916666668 24.57421875  22.91015625 24.46875  L 20.21484375 22.5703125  C 19.641927083333332 22.83984375  19.049479166666668 23.0625  18.4375 23.23828125  C 18.229166666666668 24.83203125  18.040364583333336 25.921875000000004  17.87109375 26.5078125  C 17.779947916666668 26.8359375  17.545572916666668 27  17.16796875 27  L 12.83203125 27  C 12.649739583333336 27  12.490234375 26.950195312500004  12.353515625 26.8505859375  C 12.216796875 26.7509765625  12.141927083333336 26.625  12.12890625 26.47265625  L 11.58203125 23.23828125  C 10.944010416666668 23.05078125  10.358072916666668 22.833984375  9.82421875 22.587890625  L 7.0703125 24.46875  C 6.940104166666668 24.57421875  6.77734375 24.626953125  6.58203125 24.626953125  C 6.399739583333334 24.626953125  6.236979166666668 24.5625  6.09375 24.43359375  C 4.453125 23.09765625  3.37890625 22.11328125  2.87109375 21.48046875  C 2.779947916666667 21.36328125  2.734375 21.228515625000004  2.734375 21.076171875  C 2.734375 20.935546875  2.786458333333334 20.800781249999996  2.890625 20.671875  C 3.0859375 20.42578125  3.41796875 20.0361328125  3.8867187499999996 19.502929687500004  C 4.35546875 18.969726562499996  4.70703125 18.556640624999996  4.94140625 18.263671875000004  C 4.58984375 17.677734374999996  4.322916666666667 17.097656249999996  4.140625 16.523437500000004  L 0.56640625 16.048828125000004  C 0.39713541666666674 16.025390625  0.2604166666666667 15.9521484375  0.15625 15.829101562499998  C 0.05208333333333333 15.706054687500002  0 15.568359374999996  0 15.416015625000002  L 0 11.513671874999998  C 0 11.373046875000002  0.05208333333333333 11.238281249999998  0.15625 11.109375000000002  C 0.2604166666666667 10.98046875  0.38411458333333337 10.904296875  0.52734375 10.880859374999998  L 4.16015625 10.388671875  C 4.342447916666667 9.849609375  4.596354166666667 9.310546875  4.921875 8.771484374999998  C 4.401041666666667 8.103515625000002  3.704427083333334 7.294921874999999  2.83203125 6.345703124999999  C 2.701822916666667 6.205078125000001  2.63671875 6.064453125  2.63671875 5.923828124999999  C 2.63671875 5.806640624999998  2.6953125 5.6718749999999964  2.8125 5.519531250000001  C 3.1510416666666665 5.097656250000001  3.792317708333334 4.467773437499997  4.736328125 3.629882812499999  C 5.680338541666668 2.791992187499998  6.295572916666668 2.373046875  6.58203125 2.373046875  C 6.751302083333334 2.373046875  6.920572916666668 2.4316406249999987  7.08984375 2.548828124999999  L 9.78515625 4.4296875  C 10.358072916666668 4.160156249999998  10.950520833333336 3.937500000000001  11.5625 3.761718749999999  C 11.770833333333336 2.1679687499999987  11.959635416666666 1.0781249999999978  12.12890625 0.492187499999999  C 12.220052083333334 0.16406249999999867  12.454427083333334 0  12.83203125 0  L 17.16796875 0  C 17.350260416666668 0  17.509765625 0.04980468749999767  17.646484375 0.149414062499999  C 17.783203125 0.24902343749999734  17.858072916666668 0.37499999999999867  17.87109375 0.52734375  L 18.41796875 3.761718749999999  C 19.055989583333332 3.9492187499999982  19.641927083333332 4.166015625  20.17578125 4.412109375000001  L 22.94921875 2.53125  C 23.06640625 2.42578125  23.22265625 2.373046875  23.41796875 2.373046875  C 23.587239583333336 2.373046875  23.75 2.4316406249999987  23.90625 2.548828124999999  C 25.5859375 3.9433593749999996  26.66015625 4.939453125000001  27.12890625 5.537109375  C 27.220052083333336 5.630859375  27.265625 5.759765624999997  27.265625 5.923828124999999  C 27.265625 6.064453125  27.21354166666667 6.1992187499999964  27.109375 6.328125  C 26.9140625 6.574218750000001  26.58203125 6.9638671874999964  26.11328125 7.497070312500001  C 25.64453125 8.0302734375  25.29296875 8.443359374999998  25.05859375 8.736328125000002  C 25.39713541666667 9.322265625  25.6640625 9.896484374999998  25.859375 10.458984374999998  L 29.43359375 10.951171875000002  C 29.602864583333332 10.974609374999998  29.739583333333336 11.047851562499996  29.84375 11.170898437499998  Z " fill-rule="nonzero" fill="rgba(0, 0, 0, 1)" stroke="none" transform="matrix(1 0 0 1 3906 58 )" class="fill" />
    <path d="M 18.53515625 16.681640625000004  C 19.51171875 15.802734374999998  20 14.7421875  20 13.5  C 20 12.257812499999998  19.51171875 11.197265624999998  18.53515625 10.318359375000002  C 17.55859375 9.439453125  16.380208333333336 9.000000000000002  15 9.000000000000002  C 13.619791666666668 9.000000000000002  12.44140625 9.439453125  11.46484375 10.318359375000002  C 10.48828125 11.197265624999998  10 12.257812499999998  10 13.5  C 10 14.7421875  10.48828125 15.802734374999998  11.46484375 16.681640625000004  C 12.44140625 17.560546875  13.619791666666668 18.000000000000004  15 18.000000000000004  C 16.380208333333336 18.000000000000004  17.55859375 17.560546875  18.53515625 16.681640625000004  Z " stroke-width="0" stroke-dasharray="0" stroke="rgba(255, 255, 255, 0)" fill="none" transform="matrix(1 0 0 1 3906 58 )" class="stroke" mask="url(#Clip304)" />
    <path d="M 29.84375 11.170898437499998  C 29.947916666666664 11.293945312500002  30 11.431640625  30 11.583984375000002  L 30 15.486328124999998  C 30 15.626953125000002  29.947916666666664 15.761718750000002  29.84375 15.890625000000002  C 29.739583333333336 16.019531249999996  29.609375 16.095703124999996  29.453125 16.119140624999996  L 25.83984375 16.611328125  C 25.59244791666667 17.244140625  25.33854166666667 17.77734375  25.078125 18.210937500000004  C 25.53385416666667 18.796875  26.23046875 19.605468749999996  27.16796875 20.63671875  C 27.298177083333336 20.77734375  27.36328125 20.923828125  27.36328125 21.076171875  C 27.36328125 21.228515625000004  27.3046875 21.36328125  27.1875 21.48046875  C 26.8359375 21.914062500000004  26.19140625 22.546875000000004  25.25390625 23.37890625  C 24.31640625 24.2109375  23.704427083333336 24.626953125  23.41796875 24.626953125  C 23.26171875 24.626953125  23.092447916666668 24.57421875  22.91015625 24.46875  L 20.21484375 22.5703125  C 19.641927083333332 22.83984375  19.049479166666668 23.0625  18.4375 23.23828125  C 18.229166666666668 24.83203125  18.040364583333336 25.921875000000004  17.87109375 26.5078125  C 17.779947916666668 26.8359375  17.545572916666668 27  17.16796875 27  L 12.83203125 27  C 12.649739583333336 27  12.490234375 26.950195312500004  12.353515625 26.8505859375  C 12.216796875 26.7509765625  12.141927083333336 26.625  12.12890625 26.47265625  L 11.58203125 23.23828125  C 10.944010416666668 23.05078125  10.358072916666668 22.833984375  9.82421875 22.587890625  L 7.0703125 24.46875  C 6.940104166666668 24.57421875  6.77734375 24.626953125  6.58203125 24.626953125  C 6.399739583333334 24.626953125  6.236979166666668 24.5625  6.09375 24.43359375  C 4.453125 23.09765625  3.37890625 22.11328125  2.87109375 21.48046875  C 2.779947916666667 21.36328125  2.734375 21.228515625000004  2.734375 21.076171875  C 2.734375 20.935546875  2.786458333333334 20.800781249999996  2.890625 20.671875  C 3.0859375 20.42578125  3.41796875 20.0361328125  3.8867187499999996 19.502929687500004  C 4.35546875 18.969726562499996  4.70703125 18.556640624999996  4.94140625 18.263671875000004  C 4.58984375 17.677734374999996  4.322916666666667 17.097656249999996  4.140625 16.523437500000004  L 0.56640625 16.048828125000004  C 0.39713541666666674 16.025390625  0.2604166666666667 15.9521484375  0.15625 15.829101562499998  C 0.05208333333333333 15.706054687500002  0 15.568359374999996  0 15.416015625000002  L 0 11.513671874999998  C 0 11.373046875000002  0.05208333333333333 11.238281249999998  0.15625 11.109375000000002  C 0.2604166666666667 10.98046875  0.38411458333333337 10.904296875  0.52734375 10.880859374999998  L 4.16015625 10.388671875  C 4.342447916666667 9.849609375  4.596354166666667 9.310546875  4.921875 8.771484374999998  C 4.401041666666667 8.103515625000002  3.704427083333334 7.294921874999999  2.83203125 6.345703124999999  C 2.701822916666667 6.205078125000001  2.63671875 6.064453125  2.63671875 5.923828124999999  C 2.63671875 5.806640624999998  2.6953125 5.6718749999999964  2.8125 5.519531250000001  C 3.1510416666666665 5.097656250000001  3.792317708333334 4.467773437499997  4.736328125 3.629882812499999  C 5.680338541666668 2.791992187499998  6.295572916666668 2.373046875  6.58203125 2.373046875  C 6.751302083333334 2.373046875  6.920572916666668 2.4316406249999987  7.08984375 2.548828124999999  L 9.78515625 4.4296875  C 10.358072916666668 4.160156249999998  10.950520833333336 3.937500000000001  11.5625 3.761718749999999  C 11.770833333333336 2.1679687499999987  11.959635416666666 1.0781249999999978  12.12890625 0.492187499999999  C 12.220052083333334 0.16406249999999867  12.454427083333334 0  12.83203125 0  L 17.16796875 0  C 17.350260416666668 0  17.509765625 0.04980468749999767  17.646484375 0.149414062499999  C 17.783203125 0.24902343749999734  17.858072916666668 0.37499999999999867  17.87109375 0.52734375  L 18.41796875 3.761718749999999  C 19.055989583333332 3.9492187499999982  19.641927083333332 4.166015625  20.17578125 4.412109375000001  L 22.94921875 2.53125  C 23.06640625 2.42578125  23.22265625 2.373046875  23.41796875 2.373046875  C 23.587239583333336 2.373046875  23.75 2.4316406249999987  23.90625 2.548828124999999  C 25.5859375 3.9433593749999996  26.66015625 4.939453125000001  27.12890625 5.537109375  C 27.220052083333336 5.630859375  27.265625 5.759765624999997  27.265625 5.923828124999999  C 27.265625 6.064453125  27.21354166666667 6.1992187499999964  27.109375 6.328125  C 26.9140625 6.574218750000001  26.58203125 6.9638671874999964  26.11328125 7.497070312500001  C 25.64453125 8.0302734375  25.29296875 8.443359374999998  25.05859375 8.736328125000002  C 25.39713541666667 9.322265625  25.6640625 9.896484374999998  25.859375 10.458984374999998  L 29.43359375 10.951171875000002  C 29.602864583333332 10.974609374999998  29.739583333333336 11.047851562499996  29.84375 11.170898437499998  Z " stroke-width="0" stroke-dasharray="0" stroke="rgba(255, 255, 255, 0)" fill="none" transform="matrix(1 0 0 1 3906 58 )" class="stroke" mask="url(#Clip304)" />
  </g>
</svg>