<?xml version="1.0" encoding="utf-8"?>
<svg version="1.1" xmlns:xlink="http://www.w3.org/1999/xlink" width="47px" height="39px" xmlns="http://www.w3.org/2000/svg">
  <defs>
    <mask fill="white" id="Clip291">
      <path d="M 732 810  C 729.225 810  727 807.775  727 805  L 727 776  C 727 773.225  729.225 771  732 771  L 769 771  C 771.775 771  774 773.225  774 776  L 774 805  C 774 807.775  771.775 810  769 810  " fill-rule="evenodd" />
    </mask>
  </defs>
  <g transform="matrix(1 0 0 1 -727 -771 )">
    <path d="M 727 771  L 774 771  L 774 810  L 727 810  L 727 771  " fill-rule="nonzero" fill="rgba(204, 204, 204, 1)" stroke="none" class="fill" mask="url(#Clip291)" />
    <path d="M 730 774  L 771 774  L 771 807  L 730 807  L 730 774  " fill-rule="nonzero" fill="rgba(255, 255, 255, 1)" stroke="none" class="fill" mask="url(#Clip291)" />
    <path d="M 754.365 782.7  C 752.7270000000001 782.7  751.44 781.413  751.44 779.7750000000001  C 751.44 778.1370000000001  752.7270000000001 776.85  754.365 776.85  C 756.003 776.85  757.2900000000001 778.1370000000001  757.2900000000001 779.7750000000001  C 757.2900000000001 781.413  756.003 782.7  754.365 782.7  " fill-rule="nonzero" fill="rgba(204, 204, 204, 1)" stroke="none" class="fill" mask="url(#Clip291)" />
    <path d="M 731 806  L 731 788.95  L 740.75 781.2  L 754.4 790.5659574468085  L 762.2 785.85  L 770 790.5659574468085  L 770 806  L 731 806  " fill-rule="nonzero" fill="rgba(22, 155, 213, 1)" stroke="none" class="fill" mask="url(#Clip291)" />
  </g>
</svg>