<?xml version="1.0" encoding="utf-8"?>
<svg version="1.1" xmlns:xlink="http://www.w3.org/1999/xlink" width="23px" height="21px" xmlns="http://www.w3.org/2000/svg">
  <defs>
    <pattern id="BGPattern" patternUnits="userSpaceOnUse" alignment="0 0" imageRepeat="None" />
    <mask fill="white" id="Clip292">
      <path d="M 14.10546875 12.87890625  C 15.317207532051283 11.772536057692307  15.923076923076923 10.441105769230768  15.923076923076923 8.884615384615385  C 15.923076923076923 7.328124999999998  15.317207532051283 5.99669471153846  14.10546875 4.890324519230769  C 12.893729967948719 3.7839543269230753  11.435496794871796 3.230769230769231  9.73076923076923 3.230769230769231  C 8.026041666666668 3.230769230769231  6.5678084935897445 3.7839543269230753  5.356069711538462 4.890324519230769  C 4.14433092948718 5.99669471153846  3.5384615384615388 7.328124999999998  3.5384615384615388 8.884615384615385  C 3.5384615384615388 10.441105769230768  4.14433092948718 11.772536057692307  5.356069711538462 12.87890625  C 6.5678084935897445 13.98527644230769  8.026041666666668 14.538461538461538  9.73076923076923 14.538461538461538  C 11.435496794871796 14.538461538461538  12.893729967948719 13.98527644230769  14.10546875 12.87890625  Z M 22.488581730769234 18.248798076923077  C 22.829527243589745 18.560096153846157  23 18.938701923076923  23 19.384615384615387  C 23 19.822115384615387  22.824919871794872 20.200721153846157  22.474759615384617 20.520432692307693  C 22.12459935897436 20.84014423076923  21.709935897435898 21  21.230769230769234 21  C 20.733173076923077 21  20.318509615384617 20.84014423076923  19.986778846153847 20.520432692307693  L 15.245793269230768 16.204326923076923  C 13.596354166666668 17.247596153846157  11.758012820512823 17.76923076923077  9.73076923076923 17.76923076923077  C 8.413060897435898 17.76923076923077  7.152944711538462 17.535757211538463  5.9504206730769225 17.068810096153847  C 4.747896634615385 16.60186298076923  3.711237980769231 15.970853365384615  2.8404447115384617 15.17578125  C 1.9696514423076923 14.380709134615385  1.2785456730769234 13.434194711538462  0.7671274038461539 12.336237980769232  C 0.25570913461538464 11.23828125  0 10.087740384615383  0 8.884615384615385  C 0 7.6814903846153815  0.25570913461538464 6.530949519230769  0.7671274038461539 5.432992788461538  C 1.2785456730769234 4.3350360576923075  1.9696514423076923 3.388521634615386  2.8404447115384617 2.593449519230769  C 3.711237980769231 1.7983774038461546  4.747896634615385 1.167367788461538  5.9504206730769225 0.7004206730769238  C 7.152944711538462 0.23347355769230715  8.413060897435898 0  9.73076923076923 0  C 11.048477564102564 0  12.30859375 0.23347355769230715  13.511117788461538 0.7004206730769238  C 14.713641826923077 1.167367788461538  15.750300480769232 1.7983774038461546  16.62109375 2.593449519230769  C 17.491887019230766 3.388521634615386  18.18299278846154 4.3350360576923075  18.694411057692307 5.432992788461538  C 19.205829326923077 6.530949519230769  19.46153846153846 7.6814903846153815  19.46153846153846 8.884615384615385  C 19.46153846153846 10.735576923076922  18.89022435897436 12.414062499999998  17.747596153846153 13.920072115384615  L 22.488581730769234 18.248798076923077  Z " fill-rule="evenodd" />
    </mask>
  </defs>
  <g transform="matrix(1 0 0 1 -2310 -48 )">
    <path d="M 14.10546875 12.87890625  C 15.317207532051283 11.772536057692307  15.923076923076923 10.441105769230768  15.923076923076923 8.884615384615385  C 15.923076923076923 7.328124999999998  15.317207532051283 5.99669471153846  14.10546875 4.890324519230769  C 12.893729967948719 3.7839543269230753  11.435496794871796 3.230769230769231  9.73076923076923 3.230769230769231  C 8.026041666666668 3.230769230769231  6.5678084935897445 3.7839543269230753  5.356069711538462 4.890324519230769  C 4.14433092948718 5.99669471153846  3.5384615384615388 7.328124999999998  3.5384615384615388 8.884615384615385  C 3.5384615384615388 10.441105769230768  4.14433092948718 11.772536057692307  5.356069711538462 12.87890625  C 6.5678084935897445 13.98527644230769  8.026041666666668 14.538461538461538  9.73076923076923 14.538461538461538  C 11.435496794871796 14.538461538461538  12.893729967948719 13.98527644230769  14.10546875 12.87890625  Z M 22.488581730769234 18.248798076923077  C 22.829527243589745 18.560096153846157  23 18.938701923076923  23 19.384615384615387  C 23 19.822115384615387  22.824919871794872 20.200721153846157  22.474759615384617 20.520432692307693  C 22.12459935897436 20.84014423076923  21.709935897435898 21  21.230769230769234 21  C 20.733173076923077 21  20.318509615384617 20.84014423076923  19.986778846153847 20.520432692307693  L 15.245793269230768 16.204326923076923  C 13.596354166666668 17.247596153846157  11.758012820512823 17.76923076923077  9.73076923076923 17.76923076923077  C 8.413060897435898 17.76923076923077  7.152944711538462 17.535757211538463  5.9504206730769225 17.068810096153847  C 4.747896634615385 16.60186298076923  3.711237980769231 15.970853365384615  2.8404447115384617 15.17578125  C 1.9696514423076923 14.380709134615385  1.2785456730769234 13.434194711538462  0.7671274038461539 12.336237980769232  C 0.25570913461538464 11.23828125  0 10.087740384615383  0 8.884615384615385  C 0 7.6814903846153815  0.25570913461538464 6.530949519230769  0.7671274038461539 5.432992788461538  C 1.2785456730769234 4.3350360576923075  1.9696514423076923 3.388521634615386  2.8404447115384617 2.593449519230769  C 3.711237980769231 1.7983774038461546  4.747896634615385 1.167367788461538  5.9504206730769225 0.7004206730769238  C 7.152944711538462 0.23347355769230715  8.413060897435898 0  9.73076923076923 0  C 11.048477564102564 0  12.30859375 0.23347355769230715  13.511117788461538 0.7004206730769238  C 14.713641826923077 1.167367788461538  15.750300480769232 1.7983774038461546  16.62109375 2.593449519230769  C 17.491887019230766 3.388521634615386  18.18299278846154 4.3350360576923075  18.694411057692307 5.432992788461538  C 19.205829326923077 6.530949519230769  19.46153846153846 7.6814903846153815  19.46153846153846 8.884615384615385  C 19.46153846153846 10.735576923076922  18.89022435897436 12.414062499999998  17.747596153846153 13.920072115384615  L 22.488581730769234 18.248798076923077  Z " fill-rule="nonzero" fill="rgba(127, 127, 127, 1)" stroke="none" transform="matrix(1 0 0 1 2310 48 )" class="fill" />
    <path d="M 14.10546875 12.87890625  C 15.317207532051283 11.772536057692307  15.923076923076923 10.441105769230768  15.923076923076923 8.884615384615385  C 15.923076923076923 7.328124999999998  15.317207532051283 5.99669471153846  14.10546875 4.890324519230769  C 12.893729967948719 3.7839543269230753  11.435496794871796 3.230769230769231  9.73076923076923 3.230769230769231  C 8.026041666666668 3.230769230769231  6.5678084935897445 3.7839543269230753  5.356069711538462 4.890324519230769  C 4.14433092948718 5.99669471153846  3.5384615384615388 7.328124999999998  3.5384615384615388 8.884615384615385  C 3.5384615384615388 10.441105769230768  4.14433092948718 11.772536057692307  5.356069711538462 12.87890625  C 6.5678084935897445 13.98527644230769  8.026041666666668 14.538461538461538  9.73076923076923 14.538461538461538  C 11.435496794871796 14.538461538461538  12.893729967948719 13.98527644230769  14.10546875 12.87890625  Z " stroke-width="0" stroke="rgba(255, 255, 255, 0)" fill="none" transform="matrix(1 0 0 1 2310 48 )" class="stroke" mask="url(#Clip292)" />
    <path d="M 22.488581730769234 18.248798076923077  C 22.829527243589745 18.560096153846157  23 18.938701923076923  23 19.384615384615387  C 23 19.822115384615387  22.824919871794872 20.200721153846157  22.474759615384617 20.520432692307693  C 22.12459935897436 20.84014423076923  21.709935897435898 21  21.230769230769234 21  C 20.733173076923077 21  20.318509615384617 20.84014423076923  19.986778846153847 20.520432692307693  L 15.245793269230768 16.204326923076923  C 13.596354166666668 17.247596153846157  11.758012820512823 17.76923076923077  9.73076923076923 17.76923076923077  C 8.413060897435898 17.76923076923077  7.152944711538462 17.535757211538463  5.9504206730769225 17.068810096153847  C 4.747896634615385 16.60186298076923  3.711237980769231 15.970853365384615  2.8404447115384617 15.17578125  C 1.9696514423076923 14.380709134615385  1.2785456730769234 13.434194711538462  0.7671274038461539 12.336237980769232  C 0.25570913461538464 11.23828125  0 10.087740384615383  0 8.884615384615385  C 0 7.6814903846153815  0.25570913461538464 6.530949519230769  0.7671274038461539 5.432992788461538  C 1.2785456730769234 4.3350360576923075  1.9696514423076923 3.388521634615386  2.8404447115384617 2.593449519230769  C 3.711237980769231 1.7983774038461546  4.747896634615385 1.167367788461538  5.9504206730769225 0.7004206730769238  C 7.152944711538462 0.23347355769230715  8.413060897435898 0  9.73076923076923 0  C 11.048477564102564 0  12.30859375 0.23347355769230715  13.511117788461538 0.7004206730769238  C 14.713641826923077 1.167367788461538  15.750300480769232 1.7983774038461546  16.62109375 2.593449519230769  C 17.491887019230766 3.388521634615386  18.18299278846154 4.3350360576923075  18.694411057692307 5.432992788461538  C 19.205829326923077 6.530949519230769  19.46153846153846 7.6814903846153815  19.46153846153846 8.884615384615385  C 19.46153846153846 10.735576923076922  18.89022435897436 12.414062499999998  17.747596153846153 13.920072115384615  L 22.488581730769234 18.248798076923077  Z " stroke-width="0" stroke="rgba(255, 255, 255, 0)" fill="none" transform="matrix(1 0 0 1 2310 48 )" class="stroke" mask="url(#Clip292)" />
  </g>
</svg>